<?xml version="1.0" encoding="utf-8"?>
<!-- Generator: Adobe Illustrator 25.0.0, SVG Export Plug-In . SVG Version: 6.00 Build 0)  -->
<svg version="1.1" id="Layer_1" xmlns="http://www.w3.org/2000/svg" xmlns:xlink="http://www.w3.org/1999/xlink" x="0px" y="0px"
	 viewBox="0 0 221 544" enable-background="new 0 0 221 544" xml:space="preserve">
<path fill="#F05661" d="M115.6,162.7c2,1.9,3.4,6.2,4.3,10.8c1.4,6.9,3.6,13.6,5.5,32.8c4.4,29.9,7.8,51.1,8.8,83.6
	c0.4,13.8-0.9,36.3,0.1,43.8c1.7,12.9,2.9,21.4,4.3,28c2,9.5,1.6,7,2.7,12.9c1.6,8.4,1.2,7.6,0.8,31.4c0,0,0.3,13.4,0.7,25.8
	c0.3,12.3,7.1,54.7,7.7,104.4c3.6,1.3,8.5,3.3,12.4,3.6c12.9,1.1,16.2-1.1,16.2-1.1s18.1-103.5,18.1-125.2c0-30.4-5.1-48-4.9-59.9
	c0.3-23.9,0.9-38.4,1.3-41.3c1.3-12.3,7.1-50.8,12.1-80.3c7.5-45,8.6-47.1,9.7-74.7c1.6-40.8-6.5-72.9-7.7-78
	c-1.1-4.6-4.8-17.4-6.1-23.4c-0.7-3.4-12.1-48.1-14.6-48c-21.4,1.1-32.6-0.3-73.2,0.3h-5.4C67.8,7.7,56.5,9.5,35.1,8.3
	c-2.4-0.1-13.8,44.2-14.5,47.6c-1.2,6-4.9,18.8-6.1,23.4c-1.2,5-9.3,37.2-7.7,78C7.9,184.9,9,187,16.5,232
	c4.9,29.5,10.7,68.1,12.1,80.3c0.3,2.9,1,17.4,1.3,41.3c0.1,12-4.9,29.6-4.9,59.9c0,21.8,18.1,125.2,18.1,125.2s3.3,2.2,16.2,1.1
	c3.9-0.3,8.7-2.3,12.4-3.6c0.5-49.7,7.3-92.1,7.7-104.4c0.3-12.4,0.7-25.8,0.7-25.8c-0.3-23.8-0.7-23.1,0.8-31.4
	c1.1-5.9,0.7-3.4,2.7-12.9c1.4-6.5,2.6-15.1,4.3-28c1-7.5-0.3-30,0.1-43.8c1-32.5,4.4-53.7,8.8-83.6c1.9-19.1,5.6-30,7-37
	c0.9-4.6,1.4-8.5,4.5-9.3h5.9L115.6,162.7L115.6,162.7z"/>
<path fill="#6D6E71" d="M113.6,163.5c3.7,3.9,4.1,10.4,5.2,15.4c1,4.6,2,9.1,2.7,13.7c1.2,7.8,2,15.7,3.1,23.6
	c1.1,7.5,2.2,15.1,3.2,22.6c2.1,15.8,3.5,31.6,4.1,47.5c0.5,13.4-0.2,26.8-0.1,40.1c0.1,6,0.9,11.8,1.7,17.7c0.8,6,1.7,12.1,3,18
	c1.4,6.6,3.3,13.3,3.7,20c0.6,8.8-0.3,17.6-0.1,26.4c0.3,10.7,0.2,21.5,1.2,32.2c2.7,27.5,5.8,54.8,6.7,82.5l0.3,13.5
	c0.1,0.2,0.2,0.3,0.4,0.4c3.8,1.4,7.6,2.9,11.5,3.6c3.6,0.6,7.4,0.6,11.1,0.4c2.7-0.1,6.5-0.3,8.9-1.9c1.1-0.7,1-1.6,1.2-2.8
	c0.4-2.3,0.8-4.5,1.2-6.8c3.2-18.8,6.3-37.6,9.2-56.4c2.8-18.5,6.1-37.1,7.2-55.8c0.8-12.9-0.5-26.1-2.1-38.9
	c-0.7-5.7-1.6-11.3-2.2-17c-0.7-6.1-0.5-12.2-0.4-18.4c0.2-10.3,0.1-20.8,1.1-31.1c1.2-11.8,3.2-23.6,4.9-35.3
	c4.4-29.1,9.9-58,14.1-87.1c3.6-24.5,3.9-49.8,1.3-74.4c-1.2-11-2.9-22-5.4-32.8c-2.1-9.2-4.9-18.1-7-27.3
	c-1.7-7.3-3.7-14.6-5.7-21.9c-1.3-4.9-2.7-9.7-4.2-14.5c-1-3.3-2-6.7-3.5-9.8c-0.3-0.7-0.7-1.5-1.4-1.9c-1.5-0.7-4.6,0-6.3,0.1
	c-4.7,0.2-9.4,0.2-14.2,0.2c-11.8,0-23.6-0.3-35.4-0.3c-26.2,0-52.3,0.3-78.5,0.6c-4.8,0.1-9.5,0-14.3-0.2c-3.3-0.1-6.6-0.9-8.3,2.5
	c-1.5,3-2.5,6.4-3.5,9.6c-1.5,4.8-2.9,9.6-4.2,14.5c-2,7.3-4,14.5-5.7,21.9C16,65,13.2,74,11.1,83.1c-6.2,26.6-7.9,54-6.6,81.3
	c1,21.6,5.2,42.8,8.7,64.1c2.8,16.3,5.4,32.7,7.8,49.1c1.8,11.7,3.7,23.5,4.9,35.3c1,10.1,0.9,20.3,1.1,30.5
	c0.1,6.4,0.3,12.7-0.3,19c-0.6,5.7-1.5,11.3-2.2,17c-1.6,12.8-2.9,26-2.1,38.9c0.5,8,1.5,16,2.6,23.9c2.8,21.4,6.2,42.7,9.8,63.9
	c1.3,8.1,2.7,16.2,4.1,24.3c0.4,2.3,0.8,4.5,1.2,6.8c0.2,0.9,0.1,1.8,0.8,2.4c1.9,1.6,6.3,1.4,8.5,1.4c3.8,0.1,7.7,0,11.4-0.7
	c3.8-0.8,7.4-2.2,11-3.5c0.6-0.2,1.3-0.6,1.3-1.3c0.4-30.5,3.3-60.7,6.6-91c1.1-10.4,1.3-20.8,1.6-31.3c0.2-10-0.3-19.9-0.1-29.9
	c0.1-6,1.6-11.9,2.9-17.7c1.3-5.9,2.4-11.9,3.3-17.9c0.9-6.4,2.1-12.8,2.3-19.3c0.4-13.1-0.6-26.2-0.2-39.2
	c0.5-16.6,1.9-33.2,4-49.7c1-7.8,2.1-15.6,3.3-23.4c1.2-8.2,2-16.4,3.5-24.6c1-5.8,2.4-11.5,3.8-17.3c0.5-2.1,1-4.2,1.4-6.3
	c0.3-1.6,0.6-3.3,1.2-4.9c0.1-0.3,1.2-2.2,1.2-2.2s-1.7,0-0.4,0.1c1.7,0.1,3.5,0,5.2,0c-0.4-0.1-0.7-0.2-1.1-0.3
	C112.5,161.7,113.1,162.6,113.6,163.5c0.7,1,4.8-0.3,4-1.6c-0.9-1.4-1.3-2.8-3-2.9c-1.8-0.1-3.8-0.1-5.6,0
	c-6.5,0.4-6.8,7.5-7.9,12.5c-1.2,5.2-2.6,10.3-3.7,15.5c-1.7,8.4-2.5,16.9-3.8,25.3c-4.7,32.1-8.5,64-7.9,96.5
	c0.1,6.8,0.3,13.6,0.2,20.4c-0.2,7-1.5,13.9-2.5,20.8c-1.4,9.4-3.9,18.6-5.4,28c-1.3,8.4-0.5,17.2-0.3,25.6
	c0.2,11.2,0,22.6-0.9,33.8c-1,11.4-2.4,22.7-3.5,34.1c-1.7,16.9-2.9,33.9-3.5,50.8c-0.2,4.8-0.3,9.6-0.3,14.5l1.3-1.3
	c-4,1.4-7.9,3.1-12.2,3.4c-3.3,0.3-6.8,0.4-10.1-0.1c-1.1-0.2-2.4-0.3-3.4-0.8c-0.3-0.2,0.2,0.5,0.1-0.1c-0.6-4.1-1.4-8.2-2.1-12.2
	c-3.2-18.7-6.3-37.4-9.1-56.1c-2.7-17.4-5.7-35-6.7-52.6c-0.8-12.9,0.6-26,2.2-38.8c0.7-5.4,1.5-10.7,2.1-16
	c0.6-5.4,0.5-10.7,0.5-16.1c-0.2-11-0.2-22.2-1.1-33.2c-0.8-9.9-2.6-19.8-4-29.6c-4.3-29.2-9.5-58.3-14.2-87.5
	c-3.5-21.9-4.7-44.3-3.4-66.5c1.2-21.1,5-41.4,10.5-61.7C24.4,51.1,28,34.3,33.2,18c0.6-1.8,1.1-3.5,1.8-5.2
	c0.4-1.2,1.2-2.4,1.5-3.5c0.1-0.6,0.9-0.9-0.7,0c-1.4,0.8-0.4,0.4,0.5,0.4c0.7,0,1.4,0.1,2.1,0.1c2.3,0.1,4.6,0.1,6.9,0.2
	c9.8,0.1,19.5-0.3,29.3-0.4c12.8-0.2,25.6,0,38.4-0.1c13.9-0.1,27.8-0.1,41.6,0.1c9.3,0.1,18.6,0.2,27.8-0.1c0.7,0,2.8-0.4,3.2-0.2
	c-0.4-0.2,0,0.1,0.2,0.4c0.6,1,1,2.1,1.4,3.2c1.4,3.7,2.5,7.5,3.7,11.3c5.1,17.2,9.1,34.7,13.8,52.1c5.7,21.1,8.4,43,8.8,64.8
	c0.5,21-1.4,41.7-4.9,62.3c-5,29.8-10,59.6-14.4,89.5c-1.2,8.1-2.5,16.3-3,24.5c-0.7,12.7-1.2,25.6-1,38.3
	c0.2,10.7,2.5,21.3,3.6,31.9c1.1,11.2,1.9,22.7,1,34c-1.5,18.6-4.6,37-7.4,55.4c-2.8,17.8-5.7,35.7-8.8,53.5c-0.5,2.9-1,5.9-1.5,8.8
	c0.3-0.3,0.6-0.5,0.8-0.8c-0.2,0.1,0.4,0,0,0c0.1,0-0.7,0.2-1.2,0.3c-2.8,0.6-5.7,0.5-8.5,0.4c-4.8-0.2-9-1.3-13.5-2.9
	c-1.3-0.5-1.7-0.5-1.9-2c-0.1-1.2,0-2.5-0.1-3.7c0-2.4-0.1-4.8-0.2-7.2c-0.6-17.6-1.8-35.1-3.5-52.6c-1.1-11.4-2.6-22.8-3.6-34.3
	s-1.1-23.3-0.9-34.8c0.1-8.3,0.9-16.9-0.5-25.1c-1.7-9.9-4.1-19.6-5.6-29.6c-1-6.7-2.1-13.4-2.2-20.2c-0.1-7,0.1-13.9,0.2-20.9
	c0.3-16.6-0.5-33.2-2.1-49.7c-1.6-16.7-4.4-33.2-6.6-49.8c-1.6-11.8-3.2-23.5-6-35.1c-0.8-3.2-1.7-6.7-4-9.2
	C116.7,160.9,112.7,162.4,113.6,163.5L113.6,163.5z"/>
<path fill="none" stroke="#6D6E71" stroke-width="0.725" stroke-miterlimit="10" stroke-dasharray="3.6896,1.8441,3.6882,1.8441" d="
	M46.3,11.9c0,0,116.7,1.3,132.3-0.5 M184.6,9.3c-19.8,1.6-147.1,0-147.1,0"/>
<path fill="none" stroke="#6D6E71" stroke-width="1.46" stroke-miterlimit="10" d="M188.4,8.7C106.1,32.6,33.6,9.2,33.6,9.2"/>
<path fill="#6D6E71" d="M108.8,154.1l7.5-2.4l12-3.9c0.9-0.3,1.8-0.6,2.8-0.9c0.3-0.1,2.6-1.4,2.5-1.5c-0.5-1.7-3.2-1-4.3-0.8
	c-3.1,0.7-6.1,2-9,3.3c-3.6,1.5-7.2,3.1-10.8,4.6c-3.6,1.5-7.3,2.6-10.7,4.5c-3.3,1.8-6.5,3.8-9.4,6.2c0.3-0.3,0.9-0.5,1.3-0.7
	s0.9-0.4,1.3-0.7c0.6-0.5,1.2-1,1.9-1.5s1.5-1.1,2.2-1.6c0.4-0.3,0.8-0.5,1.2-0.7c0.1-0.1,0.2-0.1,0.3-0.2c0.7-0.5-0.9,0.5-0.8,0.5
	c0.3-0.1,0.6-0.3,0.8-0.4c1.7-0.9,3.5-1.5,5.3-2.1c1.7-0.6,3.3-1.3,4.9-2c3.4-1.4,6.7-2.9,10.1-4.3c2.8-1.2,5.6-2.4,8.6-3.1
	c1.2-0.3,4.2-1.1,4.7,0.7c0.8-0.5,1.7-1,2.5-1.5l-7.5,2.4l-12,3.9c-0.9,0.3-1.8,0.6-2.8,0.9c-0.4,0.1-0.9,0.5-1.3,0.7
	C109.6,153.6,109.2,154,108.8,154.1L108.8,154.1z"/>
<path fill="none" stroke="#6D6E71" stroke-width="2" stroke-miterlimit="10" d="M111,66.5l-0.3,85.2"/>
<g>
	<path fill="none" d="M186.7,10.7l3.2-0.9l0.5,1.8l-3.2,0.9L186.7,10.7z"/>
	<path fill="none" stroke="#7F8083" stroke-width="0.29" d="M187.2,12.6c-0.5-1.9,3.4,0.3,2.8-1.9c-0.6-2-2.8,1.8-3.4-0.1 M189.4,10
		l0.5,1.8 M187.3,10.5l0.5,1.9"/>
</g>
<g>
	<path fill="none" d="M187.3,12.7l3.2-0.9l0.5,1.8l-3.2,0.9L187.3,12.7z"/>
	<path fill="none" stroke="#7F8083" stroke-width="0.29" d="M187.8,14.6c-0.5-1.9,3.4,0.3,2.8-1.9c-0.6-2-2.8,1.8-3.4-0.1
		 M189.9,11.9l0.5,1.8 M187.9,12.5l0.5,1.8"/>
</g>
<g>
	<path fill="none" d="M187.8,14.6l3.2-0.9l0.5,1.8l-3.2,0.9L187.8,14.6z"/>
	<path fill="none" stroke="#7F8083" stroke-width="0.29" d="M188.3,16.5c-0.5-1.9,3.4,0.3,2.8-1.9c-0.5-2-2.8,1.8-3.4-0.1
		 M190.5,13.9l0.5,1.8 M188.4,14.4l0.5,1.9"/>
</g>
<g>
	<path fill="none" d="M188.4,16.6l3.2-0.9l0.5,1.8l-3.2,0.9L188.4,16.6z"/>
	<path fill="none" stroke="#7F8083" stroke-width="0.29" d="M188.9,18.5c-0.5-1.9,3.4,0.3,2.8-1.9c-0.5-2-2.8,1.8-3.4-0.1 M191,15.8
		l0.5,1.8 M189,16.4l0.5,1.8"/>
</g>
<g>
	<path fill="none" d="M188.9,18.5l3.2-0.9l0.5,1.8l-3.2,0.9L188.9,18.5z"/>
	<path fill="none" stroke="#7F8083" stroke-width="0.29" d="M189.4,20.4c-0.5-1.9,3.4,0.3,2.8-1.9c-0.5-2-2.8,1.8-3.4-0.1
		 M191.6,17.8l0.5,1.8 M189.5,18.3l0.5,1.9"/>
</g>
<g>
	<path fill="none" d="M189.4,20.5l3.2-0.9l0.5,1.8l-3.2,0.9L189.4,20.5z"/>
	<path fill="none" stroke="#7F8083" stroke-width="0.29" d="M190,22.3c-0.5-1.9,3.4,0.3,2.8-1.9c-0.5-2-2.8,1.8-3.4-0.1 M192.1,19.7
		l0.5,1.8 M190.1,20.3l0.5,1.8"/>
</g>
<g>
	<path fill="none" d="M190,22.3l3.2-0.9l0.5,1.8l-3.2,0.9L190,22.3z"/>
	<path fill="none" stroke="#7F8083" stroke-width="0.29" d="M190.5,24.3c-0.5-1.9,3.4,0.3,2.8-1.9c-0.5-2-2.8,1.8-3.4-0.1
		 M192.7,21.7l0.5,1.8 M190.6,22.2l0.5,1.9"/>
</g>
<g>
	<path fill="none" d="M190.5,24.4l3.2-0.9l0.5,1.8l-3.2,0.9L190.5,24.4z"/>
	<path fill="none" stroke="#7F8083" stroke-width="0.29" d="M191,26.3c-0.5-1.9,3.4,0.3,2.8-1.9c-0.5-2-2.8,1.8-3.4-0.1 M193.2,23.6
		l0.5,1.9 M191.1,24.2l0.5,1.8"/>
</g>
<g>
	<path fill="none" d="M191.1,26.3l3.2-0.9l0.5,1.8l-3.2,0.9L191.1,26.3z"/>
	<path fill="none" stroke="#7F8083" stroke-width="0.29" d="M191.6,28.2c-0.5-1.9,3.4,0.3,2.9-1.9c-0.5-2-2.8,1.8-3.4-0.1
		 M193.7,25.6l0.5,1.8 M191.7,26.1l0.5,1.9"/>
</g>
<g>
	<path fill="none" d="M191.6,28.2l3.2-0.9l0.5,1.8l-3.2,0.9L191.6,28.2z"/>
	<path fill="none" stroke="#7F8083" stroke-width="0.29" d="M192.1,30.2c-0.5-1.9,3.4,0.3,2.9-1.9c-0.5-2-2.8,1.8-3.4-0.1
		 M194.3,27.5l0.5,1.9 M192.2,28.1l0.5,1.8"/>
</g>
<g>
	<path fill="none" d="M192.1,30.2l3.2-0.9l0.5,1.8l-3.2,0.9L192.1,30.2z"/>
	<path fill="none" stroke="#7F8083" stroke-width="0.29" d="M192.6,32.1c-0.5-1.9,3.4,0.3,2.9-1.9c-0.5-2-2.8,1.8-3.4-0.1
		 M194.8,29.5l0.5,1.8 M192.7,30l0.5,1.9"/>
</g>
<g>
	<path fill="none" d="M192.6,32.2l3.2-0.9l0.5,1.8l-3.2,0.9L192.6,32.2z"/>
	<path fill="none" stroke="#7F8083" stroke-width="0.29" d="M193.2,34.1c-0.5-1.9,3.4,0.3,2.9-1.8c-0.5-2-2.9,1.8-3.4-0.1
		 M195.3,31.5l0.5,1.8 M193.3,32l0.5,1.8"/>
</g>
<g>
	<path fill="none" d="M193.2,34.1l3.2-0.9l0.5,1.8l-3.2,0.9L193.2,34.1z"/>
	<path fill="none" stroke="#7F8083" stroke-width="0.29" d="M193.7,36c-0.5-1.9,3.4,0.3,2.9-1.8c-0.5-2-2.9,1.8-3.4-0.1 M195.9,33.4
		l0.4,1.8 M193.8,33.9l0.5,1.9"/>
</g>
<g>
	<path fill="none" d="M193.7,36.1l3.2-0.8l0.5,1.8l-3.2,0.8L193.7,36.1z"/>
	<path fill="none" stroke="#7F8083" stroke-width="0.29" d="M194.2,38c-0.5-1.9,3.4,0.3,2.9-1.8c-0.5-2-2.9,1.8-3.4-0.1 M196.4,35.4
		l0.5,1.8 M194.3,35.9l0.5,1.8"/>
</g>
<g>
	<path fill="none" d="M194.2,38l0.5,1.9l3.1-0.9l-0.4-1.8L194.2,38z"/>
	<path fill="none" stroke="#7F8083" stroke-width="0.29" d="M194.7,39.9c-0.5-1.9,3.4,0.3,2.9-1.8c-0.5-2-2.9,1.8-3.4-0.1
		 M196.9,37.3l0.5,1.9 M194.8,37.8l0.5,1.9"/>
</g>
<g>
	<path fill="none" d="M194.7,40l0.5,1.8l3.1-0.8l-0.4-1.8L194.7,40z"/>
	<path fill="none" stroke="#7F8083" stroke-width="0.29" d="M195.2,41.9c-0.5-1.9,3.4,0.3,2.9-1.8c-0.5-2-2.9,1.8-3.4-0.1
		 M197.4,39.3l0.5,1.8 M195.3,39.8l0.5,1.9"/>
</g>
<g>
	<path fill="none" d="M195.2,41.9l0.5,1.9l3.1-0.8l-0.4-1.9L195.2,41.9z"/>
	<path fill="none" stroke="#7F8083" stroke-width="0.29" d="M195.7,43.8c-0.5-1.9,3.4,0.4,2.9-1.8c-0.5-2-2.9,1.8-3.4-0.2
		 M197.9,41.3l0.5,1.8 M195.8,41.7l0.5,1.9"/>
</g>
<g>
	<path fill="none" d="M195.7,43.9l0.5,1.8l3.1-0.7l-0.4-1.9L195.7,43.9z"/>
	<path fill="none" stroke="#7F8083" stroke-width="0.29" d="M196.2,45.8c-0.5-1.9,3.4,0.4,2.9-1.8c-0.5-2-2.9,1.7-3.4-0.2
		 M198.4,43.2l0.5,1.9 M196.3,43.7l0.5,1.9"/>
</g>
<g>
	<path fill="none" d="M196.2,45.9l0.5,1.8l3.1-0.8l-0.4-1.8L196.2,45.9z"/>
	<path fill="none" stroke="#7F8083" stroke-width="0.29" d="M196.7,47.8c-0.4-1.9,3.4,0.4,2.9-1.8c-0.5-2-2.9,1.7-3.4-0.2
		 M198.9,45.2l0.4,1.9 M196.8,45.7l0.5,1.8"/>
</g>
<g>
	<path fill="none" d="M196.7,47.8l0.4,1.9l3.2-0.8l-0.5-1.8L196.7,47.8z"/>
	<path fill="none" stroke="#7F8083" stroke-width="0.29" d="M197.1,49.7c-0.4-1.9,3.4,0.4,2.9-1.7c-0.5-2-2.9,1.7-3.4-0.2
		 M199.4,47.2l0.4,1.8 M197.3,47.6l0.4,1.9"/>
</g>
<g>
	<path fill="none" d="M197.1,49.8l0.4,1.8l3.2-0.7l-0.4-1.8L197.1,49.8z"/>
	<path fill="none" stroke="#7F8083" stroke-width="0.29" d="M197.5,51.7c-0.4-1.9,3.4,0.5,2.9-1.7c-0.4-2-2.9,1.7-3.4-0.3
		 M199.8,49.2l0.5,1.8 M197.8,49.6l0.4,1.9"/>
</g>
<g>
	<path fill="none" d="M197.6,51.7c0.1,0.6,0.2,1.2,0.4,1.8l3.2-0.5c-0.1-0.7-0.2-1.3-0.4-1.9L197.6,51.7L197.6,51.7z"/>
	<path fill="none" stroke="#7F8083" stroke-width="0.29" d="M197.9,53.6c-0.2-0.9,0.7-0.8,1.5-0.7s1.7,0.2,1.5-0.9
		c-0.4-2-2.9,1.6-3.4-0.3 M200.3,51.2c0.1,0.6,0.3,1.3,0.4,1.9 M198.2,51.6c0.1,0.6,0.2,1.3,0.4,1.9"/>
</g>
<g>
	<path fill="none" d="M197.9,53.7c0.1,0.6,0.2,1.1,0.2,1.7h3.3c-0.1-0.8-0.1-1.6-0.3-2.2L197.9,53.7z"/>
	<path fill="none" stroke="#7F8083" stroke-width="0.29" d="M198.2,55.4c-0.1-0.8,0.7-0.7,1.6-0.4c0.8,0.2,1.7,0.5,1.5-0.9
		c-0.2-1.1-0.9-0.7-1.7-0.3c-0.7,0.4-1.5,0.7-1.7-0.2 M200.7,53.2c0.1,0.6,0.2,1.4,0.3,2.1 M198.6,53.5c0.1,0.6,0.2,1.2,0.2,1.8"/>
</g>
<path opacity="0.37" fill="#FFFFFF" enable-background="new    " d="M35,9.5c0,0,10.5,8,76.4,10.7c0,0,58.8-2.8,73-10.7
	C184.4,9.5,59.7,7.1,35,9.5z"/>
<g>
	<path fill="#6D6E71" d="M139,360.3c1,10.8,3.1,21.5,5.3,32.1c1.4,6.8,2.9,13.6,4.6,20.4c-0.2-0.8,0-1.9,0-2.7c0-0.9,0.2-1.9,0-2.7
		c-3.9-16.4-7.5-33.1-9.6-49.8l-0.3-2.7C139.1,356.6,138.8,358.5,139,360.3L139,360.3z"/>
</g>
<path fill="none" stroke="#6D6E71" stroke-width="2" stroke-miterlimit="10" d="M21.6,54.1c0,0,68.1,29.2,177.9,1.1"/>
<g>
	<g>
		<path fill="none" d="M31.9,12.4l0.5-1.8l3.2,0.9l-0.5,1.8L31.9,12.4z"/>
		<path fill="none" stroke="#7F8083" stroke-width="0.29" d="M31.9,12.5c0.5-1.9,2.8,2,3.4-0.1c0.6-1.9-3.4,0.1-2.8-1.8 M35.1,11.3
			l-0.5,1.9 M33,10.7l-0.5,1.9"/>
	</g>
	<g>
		<path fill="none" d="M31.3,14.3l0.5-1.8l3.2,0.9l-0.5,1.8L31.3,14.3z"/>
		<path fill="none" stroke="#7F8083" stroke-width="0.29" d="M31.3,14.4c0.5-1.9,2.8,2,3.4-0.1c0.6-1.9-3.4,0.1-2.8-1.8 M34.5,13.3
			L34,15.1 M32.5,12.7L32,14.5"/>
	</g>
	<g>
		<path fill="none" d="M30.8,16.3l0.5-1.8l3.2,0.9L34,17.1L30.8,16.3z"/>
		<path fill="none" stroke="#7F8083" stroke-width="0.29" d="M30.8,16.4c0.5-1.9,2.8,2,3.4-0.1c0.5-2-3.4,0.1-2.8-1.8 M34,15.2
			L33.5,17 M31.9,14.6l-0.5,1.9"/>
	</g>
	<g>
		<path fill="none" d="M30.2,18.3l0.5-1.8l3.2,0.9l-0.5,1.8L30.2,18.3z"/>
		<path fill="none" stroke="#7F8083" stroke-width="0.29" d="M30.2,18.3c0.5-1.9,2.8,2,3.4-0.1c0.5-1.9-3.4,0.1-2.8-1.8 M33.4,17.2
			L32.9,19 M31.4,16.6l-0.5,1.8"/>
	</g>
	<g>
		<path fill="none" d="M29.7,20.2l0.5-1.8l3.2,0.9l-0.5,1.8L29.7,20.2z"/>
		<path fill="none" stroke="#7F8083" stroke-width="0.29" d="M29.7,20.3c0.5-1.9,2.8,2,3.4-0.1c0.5-1.9-3.4,0.1-2.8-1.8 M32.9,19.1
			l-0.5,1.8 M30.8,18.5l-0.5,1.9"/>
	</g>
	<g>
		<path fill="none" d="M29.1,22.2l0.5-1.8l3.2,0.9l-0.5,1.8L29.1,22.2z"/>
		<path fill="none" stroke="#7F8083" stroke-width="0.29" d="M29.1,22.2c0.5-1.9,2.8,2,3.4-0.1c0.5-2-3.4,0.1-2.8-1.8 M32.3,21.1
			l-0.5,1.8 M30.3,20.5l-0.5,1.8"/>
	</g>
	<g>
		<path fill="none" d="M28.6,24.1l0.5-1.8l3.2,0.9L31.8,25L28.6,24.1z"/>
		<path fill="none" stroke="#7F8083" stroke-width="0.29" d="M28.6,24.2c0.5-1.9,2.8,2,3.4-0.1c0.5-2-3.4,0.1-2.8-1.8 M31.8,23
			l-0.5,1.8 M29.8,22.4l-0.6,1.9"/>
	</g>
	<g>
		<path fill="none" d="M28,26l0.5-1.8l3.2,0.9l-0.5,1.8L28,26z"/>
		<path fill="none" stroke="#7F8083" stroke-width="0.29" d="M28.1,26.1c0.5-1.9,2.8,2,3.4-0.1c0.5-2-3.4,0.1-2.8-1.8 M31.3,25
			l-0.5,1.8 M29.2,24.4l-0.5,1.8"/>
	</g>
	<g>
		<path fill="none" d="M27.6,28l0.5-1.8l3.2,0.9l-0.5,1.8L27.6,28z"/>
		<path fill="none" stroke="#7F8083" stroke-width="0.29" d="M27.5,28.1c0.5-1.9,2.8,2,3.4-0.2c0.5-2-3.4,0.1-2.8-1.8 M30.7,26.9
			l-0.5,1.8 M28.7,26.3l-0.5,1.9"/>
	</g>
	<g>
		<path fill="none" d="M27.1,30l0.5-1.8l3.2,0.9l-0.5,1.8L27.1,30z"/>
		<path fill="none" stroke="#7F8083" stroke-width="0.29" d="M27,30c0.5-1.9,2.8,2,3.4-0.2c0.5-2-3.4,0.1-2.8-1.8 M30.2,28.9
			l-0.5,1.8 M28.1,28.3l-0.5,1.8"/>
	</g>
	<g>
		<path fill="none" d="M26.5,31.9l0.5-1.8l3.2,0.9l-0.5,1.8L26.5,31.9z"/>
		<path fill="none" stroke="#7F8083" stroke-width="0.29" d="M26.5,32c0.5-1.9,2.8,2,3.4-0.2c0.5-2-3.4,0.1-2.9-1.8 M29.7,30.8
			l-0.5,1.8 M27.6,30.2l-0.5,1.9"/>
	</g>
	<g>
		<path fill="none" d="M26,33.9l0.5-1.8l3.2,0.9l-0.5,1.8L26,33.9z"/>
		<path fill="none" stroke="#7F8083" stroke-width="0.29" d="M25.9,33.9c0.5-1.9,2.8,2,3.4-0.2c0.5-2-3.4,0.1-2.9-1.8 M29.1,32.8
			l-0.5,1.8 M27.1,32.2L26.6,34"/>
	</g>
	<g>
		<path fill="none" d="M25.4,35.8l0.5-1.8l3.2,0.9l-0.5,1.8L25.4,35.8z"/>
		<path fill="none" stroke="#7F8083" stroke-width="0.29" d="M25.4,35.9c0.5-1.9,2.8,2,3.4-0.2c0.5-2-3.4,0.1-2.9-1.8 M28.6,34.7
			l-0.5,1.9 M26.6,34.1L26.1,36"/>
	</g>
	<g>
		<path fill="none" d="M24.9,37.8l0.5-1.8l3.2,0.8l-0.5,1.8L24.9,37.8z"/>
		<path fill="none" stroke="#7F8083" stroke-width="0.29" d="M24.9,37.9c0.5-1.9,2.8,2,3.4-0.2c0.5-2-3.4,0.1-2.9-1.8 M28.1,36.7
			l-0.5,1.8 M26,36.1L25.5,38"/>
	</g>
	<g>
		<path fill="none" d="M24.9,37.9l-0.5,1.9l3.2,0.8l0.4-1.9L24.9,37.9z"/>
		<path fill="none" stroke="#7F8083" stroke-width="0.29" d="M24.4,39.8c0.5-1.9,2.8,2,3.4-0.2c0.5-2-3.4,0.2-2.9-1.8 M27.6,38.6
			l-0.5,1.9 M25.5,38.1L25,39.9"/>
	</g>
	<g>
		<path fill="none" d="M24.4,39.9l-0.5,1.8l3.2,0.8l0.4-1.8L24.4,39.9z"/>
		<path fill="none" stroke="#7F8083" stroke-width="0.29" d="M23.9,41.8c0.5-1.9,2.8,1.9,3.4-0.2c0.5-2-3.4,0.2-2.9-1.8 M27.1,40.6
			l-0.5,1.8 M25,40l-0.5,1.9"/>
	</g>
	<g>
		<path fill="none" d="M23.9,41.9l-0.5,1.8l3.2,0.8l0.4-1.8L23.9,41.9z"/>
		<path fill="none" stroke="#7F8083" stroke-width="0.29" d="M23.4,43.8c0.5-1.9,2.9,1.9,3.4-0.2c0.5-2-3.4,0.2-2.9-1.7 M26.6,42.5
			l-0.5,1.9 M24.5,42L24,43.9"/>
	</g>
	<g>
		<path fill="none" d="M23.4,43.8l-0.5,1.9l3.2,0.7l0.4-1.8L23.4,43.8z"/>
		<path fill="none" stroke="#7F8083" stroke-width="0.29" d="M22.9,45.7c0.5-1.9,2.9,1.9,3.4-0.2c0.5-2-3.4,0.2-2.9-1.7 M26.1,44.5
			l-0.5,1.8 M24,43.9l-0.5,1.9"/>
	</g>
	<g>
		<path fill="none" d="M22.9,45.8l-0.5,1.9l3.2,0.7l0.5-1.8L22.9,45.8z"/>
		<path fill="none" stroke="#7F8083" stroke-width="0.29" d="M22.4,47.7c0.4-1.9,2.9,1.9,3.4-0.3c0.5-2-3.4,0.2-2.9-1.7 M25.6,46.5
			l-0.5,1.8 M23.5,45.9l-0.4,1.9"/>
	</g>
	<g>
		<path fill="none" d="M22.4,47.8L22,49.6l3.1,0.8l0.5-1.9L22.4,47.8z"/>
		<path fill="none" stroke="#7F8083" stroke-width="0.29" d="M22,49.7c0.4-1.9,2.9,1.9,3.4-0.3c0.5-2-3.4,0.2-2.9-1.7 M25.1,48.4
			l-0.4,1.8 M23,47.9l-0.4,1.9"/>
	</g>
	<g>
		<path fill="none" d="M21.9,49.8l-0.4,1.8l3.2,0.7l0.4-1.8L21.9,49.8z"/>
		<path fill="none" stroke="#7F8083" stroke-width="0.29" d="M21.5,51.7c0.4-1.9,2.9,1.8,3.4-0.3c0.4-2-3.4,0.3-2.9-1.7 M24.6,50.4
			l-0.3,1.8 M22.6,49.9l-0.4,1.9"/>
	</g>
	<g>
		<path fill="none" d="M21.5,51.8c-0.1,0.6-0.3,1.3-0.4,1.9l3.2,0.5l0.3-1.8L21.5,51.8L21.5,51.8z"/>
		<path fill="none" stroke="#7F8083" stroke-width="0.29" d="M21.1,53.7c0.2-1,0.9-0.5,1.7-0.1s1.5,0.7,1.7-0.3
			c0.4-1.9-3.4,0.3-3-1.6 M24.2,52.3l-0.3,1.8 M22.1,51.8c-0.1,0.6-0.3,1.3-0.4,1.9"/>
	</g>
	<g>
		<path fill="none" d="M21.1,53.8c-0.1,0.6-0.2,1.4-0.3,2.1h3.3c0.1-0.5,0.1-0.9,0.2-1.6L21.1,53.8z"/>
		<path fill="none" stroke="#7F8083" stroke-width="0.29" d="M20.9,55.9c0.1-1.1,0.9-0.7,1.7-0.4s1.6,0.4,1.7-0.4
			c0.1-0.9-0.7-0.8-1.5-0.7s-1.7,0.3-1.5-0.7 M23.9,54.3c-0.1,0.6-0.2,1.1-0.2,1.6 M21.8,53.9c-0.1,0.6-0.2,1.3-0.3,2"/>
	</g>
</g>
<g>
	<path fill="#6D6E71" d="M83.9,349.2c-1,10.8-3.1,21.5-5.3,32.1c-1.4,6.8-2.9,13.6-4.6,20.4c-0.2,0.8,0,1.9,0,2.7s0.2,1.9,0,2.7
		c3.9-16.4,7.5-33.1,9.6-49.8l0.3-2.7C84,352.9,83.7,351,83.9,349.2L83.9,349.2z"/>
</g>
<path fill="none" stroke="#6D6E71" stroke-miterlimit="10" d="M110.5,151.3c-4,0.6-8.1,4.3-11.5,9.3c-1.7,2.5-6.5,27.2-7.4,35.4
	c-1.4,7.9-2.1,13.7-3.2,22c-4.1,28.8-3.5,62.6-4.3,88.4c0,0,0,19.6-8,72.4c-3.4,22.3,1.8,22.5-4.3,87.8c0,0-4.5,49.9-3.9,69.5"/>
<g>
	<path fill="#6D6E71" d="M138.3,354.7c1,10.8,3.1,21.5,5.3,32.1c1.4,6.8,2.9,13.6,4.6,20.4c-0.2-0.8,0-1.9,0-2.7
		c0-0.9,0.2-1.9,0-2.7c-3.9-16.4-7.5-33.1-9.6-49.8l-0.3-2.7C138.4,351,138.1,352.9,138.3,354.7L138.3,354.7z"/>
</g>
<path fill="none" stroke="#6D6E71" stroke-miterlimit="10" d="M110.8,152.4c4,0.6,8.1,4.3,11.5,9.3c1.7,2.5,6.5,27.2,7.4,35.4
	c1.4,7.9,2.1,13.7,3.2,22c4.1,28.8,3.5,62.6,4.3,88.4c0,0,0,19.6,8,72.4c3.4,22.3-1.8,22.5,4.3,87.8c0,0,4.5,49.9,3.9,69.5"/>
<g>
	<g>
		<path fill="none" d="M41.5,531.4c0.7,0.2,1.3,0.4,2,0.5l0.7-3.2c-0.5-0.1-1.2-0.3-1.6-0.4L41.5,531.4L41.5,531.4z"/>
		<path fill="none" stroke="#7F8083" stroke-width="0.29" d="M43.5,532c-1-0.2-0.5-0.9,0-1.7c0.4-0.7,0.8-1.5-0.2-1.7
			c-0.8-0.2-0.9,0.6-0.9,1.4c0,0.8,0.1,1.7-1,1.4 M42.4,528.8c0.5,0.2,1.1,0.3,1.6,0.4 M41.7,530.8c0.7,0.2,1.3,0.4,1.9,0.5"/>
	</g>
	<g>
		<path fill="none" d="M43.6,532c0.6,0.1,1.3,0.3,1.9,0.4l0.5-3.2c-0.6-0.1-1.2-0.2-1.7-0.3L43.6,532L43.6,532z"/>
		<path fill="none" stroke="#7F8083" stroke-width="0.29" d="M45.6,532.3c-1-0.2-0.5-0.9-0.1-1.7s0.7-1.5-0.3-1.7
			c-0.9-0.2-0.9,0.6-0.8,1.5c0.1,0.8,0.2,1.7-0.8,1.5 M44.2,529.3l1.8,0.3 M43.7,531.4c0.6,0.1,1.3,0.3,1.9,0.4"/>
	</g>
	<g>
		<path fill="none" d="M45.6,532.4c0.6,0.1,1.3,0.2,1.9,0.2l0.3-3.2c-0.6-0.1-1.2-0.1-1.8-0.2L45.6,532.4z"/>
		<path fill="none" stroke="#7F8083" stroke-width="0.29" d="M47.6,532.6c-1-0.1-0.6-0.9-0.2-1.7c0.3-0.8,0.6-1.6-0.4-1.7
			c-0.9-0.1-0.8,0.7-0.7,1.5c0.1,0.8,0.3,1.7-0.7,1.5 M46.1,529.6c0.6,0.1,1.2,0.2,1.8,0.2 M45.7,531.7c0.6,0.1,1.3,0.2,1.9,0.3"/>
	</g>
	<g>
		<path fill="none" d="M47.7,532.6l1.9,0.2l0.2-3.3l-1.8-0.1L47.7,532.6z"/>
		<path fill="none" stroke="#7F8083" stroke-width="0.29" d="M49.7,532.8c-1-0.1-0.6-0.9-0.3-1.6c0.3-0.8,0.6-1.6-0.5-1.7
			c-1-0.1-0.8,0.7-0.6,1.6c0.2,0.8,0.4,1.6-0.6,1.6 M48,529.9l1.8,0.1 M47.7,532l2,0.1"/>
	</g>
	<g>
		<path fill="none" d="M49.8,532.8h1.9v-3.2l-1.8-0.1L49.8,532.8z"/>
		<path fill="none" stroke="#7F8083" stroke-width="0.29" d="M51.7,532.8c-1,0-0.7-0.8-0.4-1.6c0.3-0.8,0.5-1.6-0.6-1.6
			c-1,0-0.8,0.8-0.6,1.6c0.2,0.8,0.5,1.6-0.6,1.6 M49.9,530l1.8,0.1 M49.8,532.1l1.9,0.1"/>
	</g>
	<g>
		<path fill="none" d="M51.8,532.8h1.9v-3.2h-1.8L51.8,532.8z"/>
		<path fill="none" stroke="#7F8083" stroke-width="0.29" d="M53.8,532.8c-1,0-0.7-0.8-0.4-1.6c0.2-0.8,0.4-1.6-0.6-1.6
			s-0.7,0.8-0.5,1.6s0.5,1.6-0.5,1.6 M51.9,530.1h1.8 M51.8,532.2h1.9"/>
	</g>
	<g>
		<path fill="none" d="M53.9,532.8l1.9-0.1l-0.2-3.2l-1.8,0.1L53.9,532.8z"/>
		<path fill="none" stroke="#7F8083" stroke-width="0.29" d="M55.8,532.7c-1,0-0.7-0.8-0.5-1.6s0.4-1.6-0.7-1.6
			c-1,0-0.7,0.8-0.4,1.6c0.3,0.8,0.6,1.6-0.4,1.6 M53.8,530.1l1.8-0.1 M53.8,532.2l1.9-0.1"/>
	</g>
	<g>
		<path fill="none" d="M55.9,532.7c0.6,0,1.3-0.1,1.9-0.2l-0.3-3.2c-0.6,0-1.2,0.1-1.8,0.1L55.9,532.7L55.9,532.7z"/>
		<path fill="none" stroke="#7F8083" stroke-width="0.29" d="M57.9,532.6c-1.9,0.2,0.9-3.3-1.3-3.1c-1,0.1-0.7,0.8-0.4,1.6
			c0.3,0.8,0.6,1.6-0.4,1.6 M55.7,530c0.6,0,1.2-0.1,1.8-0.1 M55.8,532.1c0.6,0,1.3-0.1,1.9-0.2"/>
	</g>
	<g>
		<path fill="none" d="M57.9,532.6c0.6-0.1,1.3-0.1,1.9-0.2l-0.4-3.2c-0.6,0.1-1.2,0.1-1.8,0.2L57.9,532.6z"/>
		<path fill="none" stroke="#7F8083" stroke-width="0.29" d="M59.9,532.4c-1.9,0.3,0.8-3.4-1.4-3.1c-2,0.2,1.3,3.1-0.6,3.3
			 M57.7,529.8c0.6-0.1,1.2-0.1,1.8-0.2 M57.9,531.9c0.6-0.1,1.3-0.1,1.9-0.2"/>
	</g>
	<g>
		<path fill="none" d="M60,532.3l1.9-0.2l-0.5-3.2l-1.8,0.2L60,532.3z"/>
		<path fill="none" stroke="#7F8083" stroke-width="0.29" d="M61.9,532.1c-1.9,0.3,0.7-3.4-1.5-3.1c-2,0.3,1.4,3.1-0.5,3.3
			 M59.6,529.6l1.9-0.3 M59.9,531.7l1.9-0.2"/>
	</g>
	<g>
		<path fill="none" d="M62,532.1l1.9-0.4l-0.6-3.2l-1.8,0.4L62,532.1z"/>
		<path fill="none" stroke="#7F8083" stroke-width="0.29" d="M63.9,531.7c-1.9,0.3,0.6-3.4-1.6-3c-1.9,0.3,1.5,3-0.4,3.3
			 M61.6,529.3l1.8-0.3 M61.9,531.4l1.9-0.3"/>
	</g>
	<g>
		<path fill="none" d="M64,531.7c0.6-0.1,1.3-0.2,1.9-0.4l-0.7-3.2c-0.6,0.1-1.2,0.3-1.8,0.4L64,531.7z"/>
		<path fill="none" stroke="#7F8083" stroke-width="0.29" d="M65.9,531.3c-1.9,0.4,0.5-3.4-1.7-3c-1.9,0.3,1.6,3-0.3,3.3 M63.5,529
			c0.6-0.1,1.2-0.2,1.8-0.4 M63.9,531.1c0.6-0.1,1.3-0.2,1.9-0.4"/>
	</g>
	<g>
		<path fill="none" d="M66,531.3l1.9-0.4l-0.8-3.2l-1.8,0.4L66,531.3z"/>
		<path fill="none" stroke="#7F8083" stroke-width="0.29" d="M67.9,530.9c-1.9,0.4,0.4-3.4-1.7-2.9c-1.9,0.4,1.7,2.9-0.2,3.4
			 M65.4,528.6l1.8-0.4 M65.8,530.7l1.9-0.4"/>
	</g>
	<g>
		<path fill="none" d="M68,530.9c0.6-0.1,1.2-0.3,1.8-0.5l-0.8-3.1c-0.6,0.2-1.2,0.3-1.8,0.5L68,530.9z"/>
		<path fill="none" stroke="#7F8083" stroke-width="0.29" d="M69.9,530.4c-1.9,0.5,0.3-3.4-1.8-2.9c-1.9,0.5,1.7,2.9-0.2,3.4
			 M67.4,528.2c0.6-0.1,1.2-0.3,1.8-0.5 M67.8,530.3c0.6-0.1,1.2-0.3,1.9-0.5"/>
	</g>
	<g>
		<path fill="none" d="M70,530.3l1.8-0.5l-0.9-3.1l-1.8,0.5L70,530.3z"/>
		<path fill="none" stroke="#7F8083" stroke-width="0.29" d="M71.9,529.8c-1.9,0.5,0.2-3.4-1.9-2.8c-1.9,0.5,1.8,2.8-0.1,3.4
			 M69.3,527.7l1.7-0.5 M69.8,529.7l1.8-0.5"/>
	</g>
</g>
<g>
	<g>
		<path fill="none" d="M179.8,529.1c-0.5,0.2-1.1,0.3-1.7,0.5l0.7,3.2c0.7-0.2,1.3-0.3,2-0.6L179.8,529.1L179.8,529.1z"/>
		<path fill="none" stroke="#7F8083" stroke-width="0.29" d="M178.1,529.5c0.9-0.2,0.8,0.6,0.8,1.5c-0.1,0.8-0.1,1.7,1,1.4
			s0.6-1,0.1-1.7s-0.9-1.4-0.1-1.7 M180.7,531.7c-0.7,0.2-1.3,0.4-2,0.5 M180,529.7c-0.5,0.2-1.2,0.3-1.8,0.5"/>
	</g>
	<g>
		<path fill="none" d="M178,529.5l-1.8,0.3l0.5,3.2c0.7-0.1,1.3-0.2,2-0.4L178,529.5z"/>
		<path fill="none" stroke="#7F8083" stroke-width="0.29" d="M176.2,529.9c0.9-0.1,0.8,0.7,0.7,1.5c-0.1,0.8-0.2,1.7,0.9,1.5
			s0.6-0.9,0.2-1.7c-0.4-0.7-0.8-1.5,0.1-1.7 M178.6,532.2c-0.6,0.1-1.3,0.3-1.9,0.4 M178.2,530.2l-1.8,0.3"/>
	</g>
	<g>
		<path fill="none" d="M176.1,529.9c-0.6,0.1-1.2,0.2-1.8,0.2l0.3,3.2c0.7-0.1,1.3-0.1,2-0.3L176.1,529.9L176.1,529.9z"/>
		<path fill="none" stroke="#7F8083" stroke-width="0.29" d="M174.2,530.1c0.9-0.1,0.7,0.7,0.6,1.6c-0.2,0.8-0.3,1.7,0.8,1.5
			c1.1-0.1,0.7-0.9,0.3-1.7c-0.4-0.8-0.7-1.5,0.2-1.7 M176.5,532.6c-0.6,0.1-1.3,0.2-1.9,0.2 M176.2,530.5c-0.6,0.1-1.2,0.2-1.9,0.2
			"/>
	</g>
	<g>
		<path fill="none" d="M174.2,530.1l-1.8,0.2l0.1,3.2l2-0.1L174.2,530.1z"/>
		<path fill="none" stroke="#7F8083" stroke-width="0.29" d="M172.3,530.3c0.9-0.1,0.7,0.8,0.5,1.6s-0.4,1.7,0.8,1.6
			c1-0.1,0.7-0.9,0.4-1.6c-0.3-0.8-0.6-1.6,0.3-1.6 M174.5,532.9l-2,0.1 M174.3,530.8l-1.9,0.1"/>
	</g>
	<g>
		<path fill="none" d="M172.2,530.3h-1.8l0.1,3.3l1.9-0.1L172.2,530.3z"/>
		<path fill="none" stroke="#7F8083" stroke-width="0.29" d="M170.4,530.3c0.9,0,0.7,0.8,0.4,1.6c-0.2,0.8-0.5,1.6,0.7,1.6
			c1,0,0.7-0.8,0.4-1.6c-0.3-0.8-0.6-1.6,0.4-1.6 M172.4,533l-1.9,0.1 M172.3,530.9l-1.9,0.1"/>
	</g>
	<g>
		<path fill="none" d="M170.3,530.3h-1.8l-0.1,3.3h1.9V530.3z"/>
		<path fill="none" stroke="#7F8083" stroke-width="0.29" d="M168.4,530.3c0.9,0,0.6,0.8,0.4,1.6c-0.3,0.8-0.5,1.6,0.6,1.6
			c1,0,0.8-0.8,0.5-1.6s-0.5-1.6,0.4-1.6 M170.3,533.1h-1.9 M170.3,531h-1.9"/>
	</g>
	<g>
		<path fill="none" d="M168.3,530.3l-1.8-0.1l-0.2,3.3l2,0.1V530.3z"/>
		<path fill="none" stroke="#7F8083" stroke-width="0.29" d="M166.4,530.2c0.9,0,0.6,0.8,0.3,1.6s-0.6,1.6,0.6,1.6
			c1,0,0.8-0.8,0.6-1.6c-0.2-0.8-0.4-1.6,0.5-1.6 M168.3,533.1l-2-0.1 M168.4,531l-1.9-0.1"/>
	</g>
	<g>
		<path fill="none" d="M166.4,530.2c-0.6,0-1.2-0.1-1.8-0.1l-0.3,3.2c0.6,0.1,1.3,0.1,1.9,0.2L166.4,530.2L166.4,530.2z"/>
		<path fill="none" stroke="#7F8083" stroke-width="0.29" d="M164.5,530.1c1.9,0.2-1.5,3.1,0.8,3.3c1,0.1,0.8-0.8,0.6-1.6
			c-0.2-0.8-0.4-1.6,0.6-1.6 M166.2,533c-0.6,0-1.3-0.1-1.9-0.2 M166.4,530.9c-0.6,0-1.3-0.1-1.9-0.2"/>
	</g>
	<g>
		<path fill="none" d="M164.4,530.1c-0.6-0.1-1.2-0.1-1.8-0.2l-0.4,3.2c0.6,0.1,1.3,0.2,1.9,0.2L164.4,530.1z"/>
		<path fill="none" stroke="#7F8083" stroke-width="0.29" d="M162.5,529.9c1.9,0.3-1.6,3.1,0.7,3.4c2,0.2-0.6-3.3,1.3-3.1
			 M164.2,532.8c-0.6-0.1-1.3-0.1-1.9-0.2 M164.4,530.7c-0.6-0.1-1.3-0.1-1.9-0.2"/>
	</g>
	<g>
		<path fill="none" d="M162.5,529.9l-1.9-0.3l-0.5,3.2l2,0.3L162.5,529.9z"/>
		<path fill="none" stroke="#7F8083" stroke-width="0.29" d="M160.6,529.6c1.9,0.3-1.7,3,0.6,3.3c2,0.3-0.5-3.3,1.4-3.1
			 M162.1,532.6l-1.9-0.2 M162.4,530.5l-1.9-0.3"/>
	</g>
	<g>
		<path fill="none" d="M160.5,529.6l-1.8-0.3l-0.6,3.2l1.9,0.3L160.5,529.6z"/>
		<path fill="none" stroke="#7F8083" stroke-width="0.29" d="M158.6,529.3c1.9,0.3-1.8,3,0.5,3.4c2,0.4-0.4-3.3,1.5-3 M160.1,532.3
			l-1.9-0.3 M160.5,530.2l-1.9-0.3"/>
	</g>
	<g>
		<path fill="none" d="M158.6,529.3c-0.6-0.1-1.2-0.2-1.8-0.4l-0.7,3.2c0.6,0.2,1.3,0.3,1.9,0.4L158.6,529.3z"/>
		<path fill="none" stroke="#7F8083" stroke-width="0.29" d="M156.7,528.9c1.9,0.4-1.8,2.9,0.4,3.4c2,0.4-0.4-3.3,1.6-3 M158.1,532
			c-0.6-0.1-1.3-0.2-1.9-0.4 M158.5,529.9c-0.6-0.1-1.2-0.2-1.9-0.4"/>
	</g>
	<g>
		<path fill="none" d="M156.7,528.9l-1.9-0.4l-0.7,3.1l1.9,0.4L156.7,528.9z"/>
		<path fill="none" stroke="#7F8083" stroke-width="0.29" d="M154.8,528.4c1.9,0.4-1.9,2.9,0.3,3.4c2,0.4-0.3-3.4,1.6-2.9
			 M156.1,531.6l-1.9-0.4 M156.6,529.5l-1.9-0.4"/>
	</g>
	<g>
		<path fill="none" d="M154.7,528.4c-0.6-0.1-1.2-0.3-1.8-0.5l-0.8,3.1c0.6,0.2,1.2,0.4,1.9,0.5L154.7,528.4L154.7,528.4z"/>
		<path fill="none" stroke="#7F8083" stroke-width="0.29" d="M152.9,527.9c1.8,0.5-2,2.8,0.2,3.4c2,0.5-0.2-3.4,1.7-2.9
			 M154.1,531.1c-0.6-0.1-1.2-0.3-1.8-0.5 M154.6,529.1c-0.6-0.1-1.2-0.3-1.8-0.5"/>
	</g>
	<g>
		<path fill="none" d="M152.8,527.9l-1.8-0.5l-0.9,3.2l1.9,0.5L152.8,527.9z"/>
		<path fill="none" stroke="#7F8083" stroke-width="0.29" d="M151,527.4c1.8,0.5-2.1,2.8,0.1,3.4c2,0.5-0.1-3.4,1.8-2.8
			 M152.1,530.6l-1.9-0.5 M152.7,528.6l-1.8-0.5"/>
	</g>
</g>
</svg>
