<svg xmlns="http://www.w3.org/2000/svg" viewBox="0 0 612 792"><path fill="#FFC63E" d="M344.6 283.7c2 1.9 3.4 6.2 4.3 10.8 1.4 6.9 3.6 13.6 5.5 32.8 4.4 29.9 7.8 51.1 8.8 83.6.4 13.8-.9 36.3.1 43.8 1.7 12.9 2.9 21.4 4.3 28 2 9.5 1.6 7 2.7 12.9 1.6 8.4 1.2 7.6.8 31.4 0 0 .3 13.4.7 25.8.3 12.3 7.1 54.7 7.7 104.4 3.6 1.3 8.5 3.3 12.4 3.6 12.9 1.1 16.2-1.1 16.2-1.1s18.1-103.5 18.1-125.2c0-30.4-5.1-48-4.9-59.9.3-23.9.9-38.4 1.3-41.3 1.3-12.3 7.1-50.8 12.1-80.3 7.5-45 8.6-47.1 9.7-74.7 1.6-40.8-6.5-72.9-7.7-78-1.1-4.6-4.8-17.4-6.1-23.4-.7-3.4-12.1-48.1-14.6-48-21.4 1.1-32.6-.3-73.2.3h-5.4c-40.6-.5-51.9 1.3-73.3.1-2.4-.1-13.8 44.2-14.5 47.6-1.2 6-4.9 18.8-6.1 23.4-1.2 5-9.3 37.2-7.7 78 1.1 27.6 2.2 29.7 9.7 74.7 4.9 29.5 10.7 68.1 12.1 80.3.3 2.9 1 17.4 1.3 41.3.1 12-4.9 29.6-4.9 59.9 0 21.8 18.1 125.2 18.1 125.2s3.3 2.2 16.2 1.1c3.9-.3 8.7-2.3 12.4-3.6.5-49.7 7.3-92.1 7.7-104.4.3-12.4.7-25.8.7-25.8-.3-23.8-.7-23.1.8-31.4 1.1-5.9.7-3.4 2.7-12.9 1.4-6.5 2.6-15.1 4.3-28 1-7.5-.3-30 .1-43.8 1-32.5 4.4-53.7 8.8-83.6 1.9-19.1 5.6-30 7-37 .9-4.6 1.4-8.5 4.5-9.3h5.9l1.4 2.7z"/><path fill="#6D6E71" d="M342.6 284.5c3.7 3.9 4.1 10.4 5.2 15.4 1 4.6 2 9.1 2.7 13.7 1.2 7.8 2 15.7 3.1 23.6 1.1 7.5 2.2 15.1 3.2 22.6 2.1 15.8 3.5 31.6 4.1 47.5.5 13.4-.2 26.8-.1 40.1.1 6 .9 11.8 1.7 17.7.8 6 1.7 12.1 3 18 1.4 6.6 3.3 13.3 3.7 20 .6 8.8-.3 17.6-.1 26.4.3 10.7.2 21.5 1.2 32.2 2.7 27.5 5.8 54.8 6.7 82.5l.3 13.5c.1.2.2.3.4.4 3.8 1.4 7.6 2.9 11.5 3.6 3.6.6 7.4.6 11.1.4 2.7-.1 6.5-.3 8.9-1.9 1.1-.7 1-1.6 1.2-2.8.4-2.3.8-4.5 1.2-6.8 3.2-18.8 6.3-37.6 9.2-56.4 2.8-18.5 6.1-37.1 7.2-55.8.8-12.9-.5-26.1-2.1-38.9-.7-5.7-1.6-11.3-2.2-17-.7-6.1-.5-12.2-.4-18.4.2-10.3.1-20.8 1.1-31.1 1.2-11.8 3.2-23.6 4.9-35.3 4.4-29.1 9.9-58 14.1-87.1 3.6-24.5 3.9-49.8 1.3-74.4-1.2-11-2.9-22-5.4-32.8-2.1-9.2-4.9-18.1-7-27.3-1.7-7.3-3.7-14.6-5.7-21.9-1.3-4.9-2.7-9.7-4.2-14.5-1-3.3-2-6.7-3.5-9.8-.3-.7-.7-1.5-1.4-1.9-1.5-.7-4.6 0-6.3.1-4.7.2-9.4.2-14.2.2-11.8 0-23.6-.3-35.4-.3-26.2 0-52.3.3-78.5.6-4.8.1-9.5 0-14.3-.2-3.3-.1-6.6-.9-8.3 2.5-1.5 3-2.5 6.4-3.5 9.6-1.5 4.8-2.9 9.6-4.2 14.5-2 7.3-4 14.5-5.7 21.9-2.1 9.1-4.9 18.1-7 27.2-6.2 26.6-7.9 54-6.6 81.3 1 21.6 5.2 42.8 8.7 64.1 2.8 16.3 5.4 32.7 7.8 49.1 1.8 11.7 3.7 23.5 4.9 35.3 1 10.1.9 20.3 1.1 30.5.1 6.4.3 12.7-.3 19-.6 5.7-1.5 11.3-2.2 17-1.6 12.8-2.9 26-2.1 38.9.5 8 1.5 16 2.6 23.9 2.8 21.4 6.2 42.7 9.8 63.9 1.3 8.1 2.7 16.2 4.1 24.3.4 2.3.8 4.5 1.2 6.8.2.9.1 1.8.8 2.4 1.9 1.6 6.3 1.4 8.5 1.4 3.8.1 7.7 0 11.4-.7 3.8-.8 7.4-2.2 11-3.5.6-.2 1.3-.6 1.3-1.3.4-30.5 3.3-60.7 6.6-91 1.1-10.4 1.3-20.8 1.6-31.3.2-10-.3-19.9-.1-29.9.1-6 1.6-11.9 2.9-17.7 1.3-5.9 2.4-11.9 3.3-17.9.9-6.4 2.1-12.8 2.3-19.3.4-13.1-.6-26.2-.2-39.2.5-16.6 1.9-33.2 4-49.7 1-7.8 2.1-15.6 3.3-23.4 1.2-8.2 2-16.4 3.5-24.6 1-5.8 2.4-11.5 3.8-17.3.5-2.1 1-4.2 1.4-6.3.3-1.6.6-3.3 1.2-4.9.1-.3 1.2-2.2 1.2-2.2s-1.7 0-.4.1c1.7.1 3.5 0 5.2 0-.4-.1-.7-.2-1.1-.3.9 1.1 1.5 2 2 2.9.7 1 4.8-.3 4-1.6-.9-1.4-1.3-2.8-3-2.9-1.8-.1-3.8-.1-5.6 0-6.5.4-6.8 7.5-7.9 12.5-1.2 5.2-2.6 10.3-3.7 15.5-1.7 8.4-2.5 16.9-3.8 25.3-4.7 32.1-8.5 64-7.9 96.5.1 6.8.3 13.6.2 20.4-.2 7-1.5 13.9-2.5 20.8-1.4 9.4-3.9 18.6-5.4 28-1.3 8.4-.5 17.2-.3 25.6.2 11.2 0 22.6-.9 33.8-1 11.4-2.4 22.7-3.5 34.1-1.7 16.9-2.9 33.9-3.5 50.8-.2 4.8-.3 9.6-.3 14.5l1.3-1.3c-4 1.4-7.9 3.1-12.2 3.4-3.3.3-6.8.4-10.1-.1-1.1-.2-2.4-.3-3.4-.8-.3-.2.2.5.1-.1-.6-4.1-1.4-8.2-2.1-12.2-3.2-18.7-6.3-37.4-9.1-56.1-2.7-17.4-5.7-35-6.7-52.6-.8-12.9.6-26 2.2-38.8.7-5.4 1.5-10.7 2.1-16 .6-5.4.5-10.7.5-16.1-.2-11-.2-22.2-1.1-33.2-.8-9.9-2.6-19.8-4-29.6-4.3-29.2-9.5-58.3-14.2-87.5-3.5-21.9-4.7-44.3-3.4-66.5 1.2-21.1 5-41.4 10.5-61.7 4.5-16.5 8.1-33.3 13.3-49.6.6-1.8 1.1-3.5 1.8-5.2.4-1.2 1.2-2.4 1.5-3.5.1-.6.9-.9-.7 0-1.4.8-.4.4.5.4.7 0 1.4.1 2.1.1 2.3.1 4.6.1 6.9.2 9.8.1 19.5-.3 29.3-.4 12.8-.2 25.6 0 38.4-.1 13.9-.1 27.8-.1 41.6.1 9.3.1 18.6.2 27.8-.1.7 0 2.8-.4 3.2-.2-.4-.2 0 .1.2.4.6 1 1 2.1 1.4 3.2 1.4 3.7 2.5 7.5 3.7 11.3 5.1 17.2 9.1 34.7 13.8 52.1 5.7 21.1 8.4 43 8.8 64.8.5 21-1.4 41.7-4.9 62.3-5 29.8-10 59.6-14.4 89.5-1.2 8.1-2.5 16.3-3 24.5-.7 12.7-1.2 25.6-1 38.3.2 10.7 2.5 21.3 3.6 31.9 1.1 11.2 1.9 22.7 1 34-1.5 18.6-4.6 37-7.4 55.4-2.8 17.8-5.7 35.7-8.8 53.5-.5 2.9-1 5.9-1.5 8.8.3-.3.6-.5.8-.8-.2.1.4 0 0 0 .1 0-.7.2-1.2.3-2.8.6-5.7.5-8.5.4-4.8-.2-9-1.3-13.5-2.9-1.3-.5-1.7-.5-1.9-2-.1-1.2 0-2.5-.1-3.7 0-2.4-.1-4.8-.2-7.2-.6-17.6-1.8-35.1-3.5-52.6-1.1-11.4-2.6-22.8-3.6-34.3-1-11.5-1.1-23.3-.9-34.8.1-8.3.9-16.9-.5-25.1-1.7-9.9-4.1-19.6-5.6-29.6-1-6.7-2.1-13.4-2.2-20.2-.1-7 .1-13.9.2-20.9.3-16.6-.5-33.2-2.1-49.7-1.6-16.7-4.4-33.2-6.6-49.8-1.6-11.8-3.2-23.5-6-35.1-.8-3.2-1.7-6.7-4-9.2-1-1.2-5 .3-4.1 1.4z"/><path fill="none" stroke="#6D6E71" stroke-width=".725" stroke-miterlimit="10" stroke-dasharray="3.6896,1.8441,3.6882,1.8441" d="M275.3 132.9s116.7 1.3 132.3-.5M413.6 130.3c-19.8 1.6-147.1 0-147.1 0"/><path fill="none" stroke="#6D6E71" stroke-width="1.46" stroke-miterlimit="10" d="M417.4 129.7c-82.3 23.9-154.8.5-154.8.5"/><path fill="#6D6E71" d="M337.8 275.1l7.5-2.4 12-3.9c.9-.3 1.8-.6 2.8-.9.3-.1 2.6-1.4 2.5-1.5-.5-1.7-3.2-1-4.3-.8-3.1.7-6.1 2-9 3.3-3.6 1.5-7.2 3.1-10.8 4.6-3.6 1.5-7.3 2.6-10.7 4.5-3.3 1.8-6.5 3.8-9.4 6.2.3-.3.9-.5 1.3-.7.4-.2.9-.4 1.3-.7.6-.5 1.2-1 1.9-1.5s1.5-1.1 2.2-1.6c.4-.3.8-.5 1.2-.7.1-.1.2-.1.3-.2.7-.5-.9.5-.8.5.3-.1.6-.3.8-.4 1.7-.9 3.5-1.5 5.3-2.1 1.7-.6 3.3-1.3 4.9-2 3.4-1.4 6.7-2.9 10.1-4.3 2.8-1.2 5.6-2.4 8.6-3.1 1.2-.3 4.2-1.1 4.7.7.8-.5 1.7-1 2.5-1.5l-7.5 2.4-12 3.9c-.9.3-1.8.6-2.8.9-.4.1-.9.5-1.3.7-.5.1-.9.5-1.3.6z"/><path fill="none" stroke="#6D6E71" stroke-width="2" stroke-miterlimit="10" d="M340 187.5l-.3 85.2"/><g fill="none"><path d="M415.691 131.689l3.174-.902.52 1.827-3.174.903z"/><path stroke="#7F8083" stroke-width=".29" d="M416.2 133.6c-.5-1.9 3.4.3 2.8-1.9-.6-2-2.8 1.8-3.4-.1M418.4 131l.5 1.8M416.3 131.5l.5 1.9"/></g><g fill="none"><path d="M416.305 133.687l3.175-.898.517 1.828-3.175.898z"/><path stroke="#7F8083" stroke-width=".29" d="M416.8 135.6c-.5-1.9 3.4.3 2.8-1.9-.6-2-2.8 1.8-3.4-.1M418.9 132.9l.5 1.8M416.9 133.5l.5 1.8"/></g><g fill="none"><path d="M416.809 135.588l3.177-.894.514 1.83-3.177.893z"/><path stroke="#7F8083" stroke-width=".29" d="M417.3 137.5c-.5-1.9 3.4.3 2.8-1.9-.5-2-2.8 1.8-3.4-.1M419.5 134.9l.5 1.8M417.4 135.4l.5 1.9"/></g><g fill="none"><path d="M417.405 137.574l3.178-.89.512 1.83-3.178.89z"/><path stroke="#7F8083" stroke-width=".29" d="M417.9 139.5c-.5-1.9 3.4.3 2.8-1.9-.5-2-2.8 1.8-3.4-.1M420 136.8l.5 1.8M418 137.4l.5 1.8"/></g><g fill="none"><path d="M417.907 139.484l3.179-.887.51 1.83-3.178.887z"/><path stroke="#7F8083" stroke-width=".29" d="M418.4 141.4c-.5-1.9 3.4.3 2.8-1.9-.5-2-2.8 1.8-3.4-.1M420.6 138.8l.5 1.8M418.5 139.3l.5 1.9"/></g><g fill="none"><path d="M418.393 141.474l3.18-.882.507 1.831-3.18.882z"/><path stroke="#7F8083" stroke-width=".29" d="M419 143.3c-.5-1.9 3.4.3 2.8-1.9-.5-2-2.8 1.8-3.4-.1M421.1 140.7l.5 1.8M419.1 141.3l.5 1.8"/></g><g fill="none"><path d="M418.98 143.349l3.18-.88.507 1.831-3.18.88z"/><path stroke="#7F8083" stroke-width=".29" d="M419.5 145.3c-.5-1.9 3.4.3 2.8-1.9-.5-2-2.8 1.8-3.4-.1M421.7 142.7l.5 1.8M419.6 143.2l.5 1.9"/></g><g fill="none"><path d="M419.518 145.393l3.182-.874.504 1.832-3.183.874z"/><path stroke="#7F8083" stroke-width=".29" d="M420 147.3c-.5-1.9 3.4.3 2.8-1.9-.5-2-2.8 1.8-3.4-.1M422.2 144.6l.5 1.9M420.1 145.2l.5 1.8"/></g><g fill="none"><path d="M420.114 147.255l3.183-.871.502 1.832-3.183.871z"/><path stroke="#7F8083" stroke-width=".29" d="M420.6 149.2c-.5-1.9 3.4.3 2.9-1.9-.5-2-2.8 1.8-3.4-.1M422.7 146.6l.5 1.8M420.7 147.1l.5 1.9"/></g><g fill="none"><path d="M420.603 149.245l3.184-.865.498 1.833-3.184.865z"/><path stroke="#7F8083" stroke-width=".29" d="M421.1 151.2c-.5-1.9 3.4.3 2.9-1.9-.5-2-2.8 1.8-3.4-.1M423.3 148.5l.5 1.9M421.2 149.1l.5 1.8"/></g><g fill="none"><path d="M421.105 151.243l3.186-.861.495 1.834-3.185.86z"/><path stroke="#7F8083" stroke-width=".29" d="M421.6 153.1c-.5-1.9 3.4.3 2.9-1.9-.5-2-2.8 1.8-3.4-.1M423.8 150.5l.5 1.8M421.7 151l.5 1.9"/></g><g fill="none"><path d="M421.596 153.153l3.188-.854.491 1.835-3.187.854z"/><path stroke="#7F8083" stroke-width=".29" d="M422.2 155.1c-.5-1.9 3.4.3 2.9-1.8-.5-2-2.9 1.8-3.4-.1M424.3 152.5l.5 1.8M422.3 153l.5 1.8"/></g><g fill="none"><path d="M422.227 155.135l3.189-.85.49 1.837-3.19.85z"/><path stroke="#7F8083" stroke-width=".29" d="M422.7 157c-.5-1.9 3.4.3 2.9-1.8-.5-2-2.9 1.8-3.4-.1M424.9 154.4l.4 1.8M422.8 154.9l.5 1.9"/></g><g fill="none"><path d="M422.703 157.065l3.191-.84.483 1.838-3.191.84z"/><path stroke="#7F8083" stroke-width=".29" d="M423.2 159c-.5-1.9 3.4.3 2.9-1.8-.5-2-2.9 1.8-3.4-.1M425.4 156.4l.5 1.8M423.3 156.9l.5 1.8"/></g><g fill="none"><path d="M423.2 159l.5 1.9 3.1-.9-.4-1.8z"/><path stroke="#7F8083" stroke-width=".29" d="M423.7 160.9c-.5-1.9 3.4.3 2.9-1.8-.5-2-2.9 1.8-3.4-.1M425.9 158.3l.5 1.9M423.8 158.8l.5 1.9"/></g><g fill="none"><path d="M423.7 161l.5 1.8 3.1-.8-.4-1.8z"/><path stroke="#7F8083" stroke-width=".29" d="M424.2 162.9c-.5-1.9 3.4.3 2.9-1.8-.5-2-2.9 1.8-3.4-.1M426.4 160.3l.5 1.8M424.3 160.8l.5 1.9"/></g><g fill="none"><path d="M424.2 162.9l.5 1.9 3.1-.8-.4-1.9z"/><path stroke="#7F8083" stroke-width=".29" d="M424.7 164.8c-.5-1.9 3.4.4 2.9-1.8-.5-2-2.9 1.8-3.4-.2M426.9 162.3l.5 1.8M424.8 162.7l.5 1.9"/></g><g fill="none"><path d="M424.7 164.9l.5 1.8 3.1-.7-.4-1.9z"/><path stroke="#7F8083" stroke-width=".29" d="M425.2 166.8c-.5-1.9 3.4.4 2.9-1.8-.5-2-2.9 1.7-3.4-.2M427.4 164.2l.5 1.9M425.3 164.7l.5 1.9"/></g><g fill="none"><path d="M425.2 166.9l.5 1.8 3.1-.8-.4-1.8z"/><path stroke="#7F8083" stroke-width=".29" d="M425.7 168.8c-.4-1.9 3.4.4 2.9-1.8-.5-2-2.9 1.7-3.4-.2M427.9 166.2l.4 1.9M425.8 166.7l.5 1.8"/></g><g fill="none"><path d="M425.7 168.8l.4 1.9 3.2-.8-.5-1.8z"/><path stroke="#7F8083" stroke-width=".29" d="M426.1 170.7c-.4-1.9 3.4.4 2.9-1.7-.5-2-2.9 1.7-3.4-.2M428.4 168.2l.4 1.8M426.3 168.6l.4 1.9"/></g><g fill="none"><path d="M426.1 170.8l.4 1.8 3.2-.7-.4-1.8z"/><path stroke="#7F8083" stroke-width=".29" d="M426.5 172.7c-.4-1.9 3.4.5 2.9-1.7-.4-2-2.9 1.7-3.4-.3M428.8 170.2l.5 1.8M426.8 170.6l.4 1.9"/></g><g fill="none"><path d="M426.6 172.7c.1.6.2 1.2.4 1.8l3.2-.5c-.1-.7-.2-1.3-.4-1.9l-3.2.6z"/><path stroke="#7F8083" stroke-width=".29" d="M426.9 174.6c-.2-.9.7-.8 1.5-.7.8.1 1.7.2 1.5-.9-.4-2-2.9 1.6-3.4-.3M429.3 172.2c.1.6.3 1.3.4 1.9M427.2 172.6c.1.6.2 1.3.4 1.9"/></g><g fill="none"><path d="M426.9 174.7c.1.6.2 1.1.2 1.7h3.3c-.1-.8-.1-1.6-.3-2.2l-3.2.5z"/><path stroke="#7F8083" stroke-width=".29" d="M427.2 176.4c-.1-.8.7-.7 1.6-.4.8.2 1.7.5 1.5-.9-.2-1.1-.9-.7-1.7-.3-.7.4-1.5.7-1.7-.2M429.7 174.2c.1.6.2 1.4.3 2.1M427.6 174.5c.1.6.2 1.2.2 1.8"/></g><path opacity=".37" fill="#FFF" d="M264 130.5s10.5 8 76.4 10.7c0 0 58.8-2.8 73-10.7 0 0-124.7-2.4-149.4 0z"/><g><path fill="#6D6E71" d="M368 481.3c1 10.8 3.1 21.5 5.3 32.1 1.4 6.8 2.9 13.6 4.6 20.4-.2-.8 0-1.9 0-2.7 0-.9.2-1.9 0-2.7-3.9-16.4-7.5-33.1-9.6-49.8l-.3-2.7c.1 1.7-.2 3.6 0 5.4z"/></g><path fill="none" stroke="#6D6E71" stroke-width="2" stroke-miterlimit="10" d="M250.6 175.1s68.1 29.2 177.9 1.1"/><g><g fill="none"><path d="M260.905 133.368l.52-1.828 3.174.903-.52 1.827z"/><path stroke="#7F8083" stroke-width=".29" d="M260.9 133.5c.5-1.9 2.8 2 3.4-.1.6-1.9-3.4.1-2.8-1.8M264.1 132.3l-.5 1.9M262 131.7l-.5 1.9"/></g><g fill="none"><path d="M260.288 135.343l.516-1.828 3.176.897-.517 1.829z"/><path stroke="#7F8083" stroke-width=".29" d="M260.3 135.4c.5-1.9 2.8 2 3.4-.1.6-1.9-3.4.1-2.8-1.8M263.5 134.3l-.5 1.8M261.5 133.7l-.5 1.8"/></g><g fill="none"><path d="M259.809 137.256l.514-1.83 3.177.894-.514 1.83z"/><path stroke="#7F8083" stroke-width=".29" d="M259.8 137.4c.5-1.9 2.8 2 3.4-.1.5-2-3.4.1-2.8-1.8M263 136.2l-.5 1.8M260.9 135.6l-.5 1.9"/></g><g fill="none"><path d="M259.198 139.255l.512-1.83 3.178.89-.512 1.83z"/><path stroke="#7F8083" stroke-width=".29" d="M259.2 139.3c.5-1.9 2.8 2 3.4-.1.5-1.9-3.4.1-2.8-1.8M262.4 138.2l-.5 1.8M260.4 137.6l-.5 1.8"/></g><g fill="none"><path d="M258.72 141.169l.511-1.83 3.179.887-.511 1.83z"/><path stroke="#7F8083" stroke-width=".29" d="M258.7 141.3c.5-1.9 2.8 2 3.4-.1.5-1.9-3.4.1-2.8-1.8M261.9 140.1l-.5 1.8M259.8 139.5l-.5 1.9"/></g><g fill="none"><path d="M258.102 143.184l.508-1.831 3.18.882-.508 1.83z"/><path stroke="#7F8083" stroke-width=".29" d="M258.1 143.2c.5-1.9 2.8 2 3.4-.1.5-2-3.4.1-2.8-1.8M261.3 142.1l-.5 1.8M259.3 141.5l-.5 1.8"/></g><g fill="none"><path d="M257.628 145.113l.506-1.831 3.18.88-.506 1.83z"/><path stroke="#7F8083" stroke-width=".29" d="M257.6 145.2c.5-1.9 2.8 2 3.4-.1.5-2-3.4.1-2.8-1.8M260.8 144l-.5 1.8M258.8 143.4l-.6 1.9"/></g><g fill="none"><path d="M257.047 146.992l.503-1.832 3.183.874-.504 1.832z"/><path stroke="#7F8083" stroke-width=".29" d="M257.1 147.1c.5-1.9 2.8 2 3.4-.1.5-2-3.4.1-2.8-1.8M260.3 146l-.5 1.8M258.2 145.4l-.5 1.8"/></g><g fill="none"><path d="M256.557 149.024l.501-1.832 3.184.87-.502 1.833z"/><path stroke="#7F8083" stroke-width=".29" d="M256.5 149.1c.5-1.9 2.8 2 3.4-.2.5-2-3.4.1-2.8-1.8M259.7 147.9l-.5 1.8M257.7 147.3l-.5 1.9"/></g><g fill="none"><path d="M256.07 150.98l.498-1.833 3.184.865-.498 1.834z"/><path stroke="#7F8083" stroke-width=".29" d="M256 151c.5-1.9 2.8 2 3.4-.2.5-2-3.4.1-2.8-1.8M259.2 149.9l-.5 1.8M257.1 149.3l-.5 1.8"/></g><g fill="none"><path d="M255.494 152.9l.496-1.835 3.186.861-.496 1.834z"/><path stroke="#7F8083" stroke-width=".29" d="M255.5 153c.5-1.9 2.8 2 3.4-.2.5-2-3.4.1-2.9-1.8M258.7 151.8l-.5 1.8M256.6 151.2l-.5 1.9"/></g><g fill="none"><path d="M254.994 154.942l.492-1.836 3.187.854-.492 1.836z"/><path stroke="#7F8083" stroke-width=".29" d="M254.9 154.9c.5-1.9 2.8 2 3.4-.2.5-2-3.4.1-2.9-1.8M258.1 153.8l-.5 1.8M256.1 153.2l-.5 1.8"/></g><g fill="none"><path d="M254.433 156.847l.489-1.836 3.189.85-.49 1.835z"/><path stroke="#7F8083" stroke-width=".29" d="M254.4 156.9c.5-1.9 2.8 2 3.4-.2.5-2-3.4.1-2.9-1.8M257.6 155.7l-.5 1.9M255.6 155.1l-.5 1.9"/></g><g fill="none"><path d="M253.948 158.796l.484-1.838 3.191.84-.483 1.837z"/><path stroke="#7F8083" stroke-width=".29" d="M253.9 158.9c.5-1.9 2.8 2 3.4-.2.5-2-3.4.1-2.9-1.8M257.1 157.7l-.5 1.8M255 157.1l-.5 1.9"/></g><g fill="none"><path d="M253.9 158.9l-.5 1.9 3.2.8.4-1.9z"/><path stroke="#7F8083" stroke-width=".29" d="M253.4 160.8c.5-1.9 2.8 2 3.4-.2.5-2-3.4.2-2.9-1.8M256.6 159.6l-.5 1.9M254.5 159.1l-.5 1.8"/></g><g fill="none"><path d="M253.4 160.9l-.5 1.8 3.2.8.4-1.8z"/><path stroke="#7F8083" stroke-width=".29" d="M252.9 162.8c.5-1.9 2.8 1.9 3.4-.2.5-2-3.4.2-2.9-1.8M256.1 161.6l-.5 1.8M254 161l-.5 1.9"/></g><g fill="none"><path d="M252.9 162.9l-.5 1.8 3.2.8.4-1.8z"/><path stroke="#7F8083" stroke-width=".29" d="M252.4 164.8c.5-1.9 2.9 1.9 3.4-.2.5-2-3.4.2-2.9-1.7M255.6 163.5l-.5 1.9M253.5 163l-.5 1.9"/></g><g fill="none"><path d="M252.4 164.8l-.5 1.9 3.2.7.4-1.8z"/><path stroke="#7F8083" stroke-width=".29" d="M251.9 166.7c.5-1.9 2.9 1.9 3.4-.2.5-2-3.4.2-2.9-1.7M255.1 165.5l-.5 1.8M253 164.9l-.5 1.9"/></g><g fill="none"><path d="M251.9 166.8l-.5 1.9 3.2.7.5-1.8z"/><path stroke="#7F8083" stroke-width=".29" d="M251.4 168.7c.4-1.9 2.9 1.9 3.4-.3.5-2-3.4.2-2.9-1.7M254.6 167.5l-.5 1.8M252.5 166.9l-.4 1.9"/></g><g fill="none"><path d="M251.4 168.8l-.4 1.8 3.1.8.5-1.9z"/><path stroke="#7F8083" stroke-width=".29" d="M251 170.7c.4-1.9 2.9 1.9 3.4-.3.5-2-3.4.2-2.9-1.7M254.1 169.4l-.4 1.8M252 168.9l-.4 1.9"/></g><g fill="none"><path d="M250.9 170.8l-.4 1.8 3.2.7.4-1.8z"/><path stroke="#7F8083" stroke-width=".29" d="M250.5 172.7c.4-1.9 2.9 1.8 3.4-.3.4-2-3.4.3-2.9-1.7M253.6 171.4l-.3 1.8M251.6 170.9l-.4 1.9"/></g><g fill="none"><path d="M250.5 172.8c-.1.6-.3 1.3-.4 1.9l3.2.5.3-1.8-3.1-.6z"/><path stroke="#7F8083" stroke-width=".29" d="M250.1 174.7c.2-1 .9-.5 1.7-.1.8.4 1.5.7 1.7-.3.4-1.9-3.4.3-3-1.6M253.2 173.3l-.3 1.8M251.1 172.8c-.1.6-.3 1.3-.4 1.9"/></g><g fill="none"><path d="M250.1 174.8c-.1.6-.2 1.4-.3 2.1h3.3c.1-.5.1-.9.2-1.6l-3.2-.5z"/><path stroke="#7F8083" stroke-width=".29" d="M249.9 176.9c.1-1.1.9-.7 1.7-.4.8.3 1.6.4 1.7-.4.1-.9-.7-.8-1.5-.7-.8.1-1.7.3-1.5-.7M252.9 175.3c-.1.6-.2 1.1-.2 1.6M250.8 174.9c-.1.6-.2 1.3-.3 2"/></g></g><g><path fill="#6D6E71" d="M312.9 470.2c-1 10.8-3.1 21.5-5.3 32.1-1.4 6.8-2.9 13.6-4.6 20.4-.2.8 0 1.9 0 2.7 0 .8.2 1.9 0 2.7 3.9-16.4 7.5-33.1 9.6-49.8l.3-2.7c.1-1.7-.2-3.6 0-5.4z"/></g><path fill="none" stroke="#6D6E71" stroke-miterlimit="10" d="M339.5 272.3c-4 .6-8.1 4.3-11.5 9.3-1.7 2.5-6.5 27.2-7.4 35.4-1.4 7.9-2.1 13.7-3.2 22-4.1 28.8-3.5 62.6-4.3 88.4 0 0 0 19.6-8 72.4-3.4 22.3 1.8 22.5-4.3 87.8 0 0-4.5 49.9-3.9 69.5"/><g><path fill="#6D6E71" d="M367.3 475.7c1 10.8 3.1 21.5 5.3 32.1 1.4 6.8 2.9 13.6 4.6 20.4-.2-.8 0-1.9 0-2.7 0-.9.2-1.9 0-2.7-3.9-16.4-7.5-33.1-9.6-49.8l-.3-2.7c.1 1.7-.2 3.6 0 5.4z"/></g><path fill="none" stroke="#6D6E71" stroke-miterlimit="10" d="M339.8 273.4c4 .6 8.1 4.3 11.5 9.3 1.7 2.5 6.5 27.2 7.4 35.4 1.4 7.9 2.1 13.7 3.2 22 4.1 28.8 3.5 62.6 4.3 88.4 0 0 0 19.6 8 72.4 3.4 22.3-1.8 22.5 4.3 87.8 0 0 4.5 49.9 3.9 69.5"/><linearGradient id="a" gradientUnits="userSpaceOnUse" x1="325.806" y1="461.432" x2="325.806" y2="461.432"><stop offset=".012" stop-color="#f6f7f7"/><stop offset=".044" stop-color="#fff"/><stop offset=".155" stop-color="#fff"/><stop offset=".634"/></linearGradient><g><g fill="none"><path d="M270.5 652.4c.7.2 1.3.4 2 .5l.7-3.2c-.5-.1-1.2-.3-1.6-.4l-1.1 3.1z"/><path stroke="#7F8083" stroke-width=".29" d="M272.5 653c-1-.2-.5-.9 0-1.7.4-.7.8-1.5-.2-1.7-.8-.2-.9.6-.9 1.4 0 .8.1 1.7-1 1.4M271.4 649.8c.5.2 1.1.3 1.6.4M270.7 651.8c.7.2 1.3.4 1.9.5"/></g><g fill="none"><path d="M272.6 653c.6.1 1.3.3 1.9.4l.5-3.2c-.6-.1-1.2-.2-1.7-.3l-.7 3.1z"/><path stroke="#7F8083" stroke-width=".29" d="M274.6 653.3c-1-.2-.5-.9-.1-1.7.4-.8.7-1.5-.3-1.7-.9-.2-.9.6-.8 1.5.1.8.2 1.7-.8 1.5M273.2 650.3l1.8.3M272.7 652.4c.6.1 1.3.3 1.9.4"/></g><g fill="none"><path d="M274.6 653.4c.6.1 1.3.2 1.9.2l.3-3.2c-.6-.1-1.2-.1-1.8-.2l-.4 3.2z"/><path stroke="#7F8083" stroke-width=".29" d="M276.6 653.6c-1-.1-.6-.9-.2-1.7.3-.8.6-1.6-.4-1.7-.9-.1-.8.7-.7 1.5.1.8.3 1.7-.7 1.5M275.1 650.6c.6.1 1.2.2 1.8.2M274.7 652.7c.6.1 1.3.2 1.9.3"/></g><g fill="none"><path d="M276.7 653.6l1.9.2.2-3.3-1.8-.1z"/><path stroke="#7F8083" stroke-width=".29" d="M278.7 653.8c-1-.1-.6-.9-.3-1.6.3-.8.6-1.6-.5-1.7-1-.1-.8.7-.6 1.6.2.8.4 1.6-.6 1.6M277 650.9l1.8.1M276.7 653l2 .1"/></g><g fill="none"><path d="M278.8 653.8h1.9v-3.2l-1.8-.1z"/><path stroke="#7F8083" stroke-width=".29" d="M280.7 653.8c-1 0-.7-.8-.4-1.6.3-.8.5-1.6-.6-1.6-1 0-.8.8-.6 1.6.2.8.5 1.6-.6 1.6M278.9 651l1.8.1M278.8 653.1l1.9.1"/></g><g fill="none"><path d="M280.8 653.8h1.9v-3.2h-1.8z"/><path stroke="#7F8083" stroke-width=".29" d="M282.8 653.8c-1 0-.7-.8-.4-1.6.2-.8.4-1.6-.6-1.6s-.7.8-.5 1.6c.2.8.5 1.6-.5 1.6M280.9 651.1h1.8M280.8 653.2h1.9"/></g><g fill="none"><path d="M282.9 653.8l1.9-.1-.2-3.2-1.8.1z"/><path stroke="#7F8083" stroke-width=".29" d="M284.8 653.7c-1 0-.7-.8-.5-1.6.2-.8.4-1.6-.7-1.6-1 0-.7.8-.4 1.6.3.8.6 1.6-.4 1.6M282.8 651.1l1.8-.1M282.8 653.2l1.9-.1"/></g><g fill="none"><path d="M284.9 653.7c.6 0 1.3-.1 1.9-.2l-.3-3.2c-.6 0-1.2.1-1.8.1l.2 3.3z"/><path stroke="#7F8083" stroke-width=".29" d="M286.9 653.6c-1.9.2.9-3.3-1.3-3.1-1 .1-.7.8-.4 1.6.3.8.6 1.6-.4 1.6M284.7 651c.6 0 1.2-.1 1.8-.1M284.8 653.1c.6 0 1.3-.1 1.9-.2"/></g><g fill="none"><path d="M286.9 653.6c.6-.1 1.3-.1 1.9-.2l-.4-3.2c-.6.1-1.2.1-1.8.2l.3 3.2z"/><path stroke="#7F8083" stroke-width=".29" d="M288.9 653.4c-1.9.3.8-3.4-1.4-3.1-2 .2 1.3 3.1-.6 3.3M286.7 650.8c.6-.1 1.2-.1 1.8-.2M286.9 652.9c.6-.1 1.3-.1 1.9-.2"/></g><g fill="none"><path d="M289 653.3l1.9-.2-.5-3.2-1.8.2z"/><path stroke="#7F8083" stroke-width=".29" d="M290.9 653.1c-1.9.3.7-3.4-1.5-3.1-2 .3 1.4 3.1-.5 3.3M288.6 650.6l1.9-.3M288.9 652.7l1.9-.2"/></g><g fill="none"><path d="M291 653.1l1.9-.4-.6-3.2-1.8.4z"/><path stroke="#7F8083" stroke-width=".29" d="M292.9 652.7c-1.9.3.6-3.4-1.6-3-1.9.3 1.5 3-.4 3.3M290.6 650.3l1.8-.3M290.9 652.4l1.9-.3"/></g><g fill="none"><path d="M293 652.7c.6-.1 1.3-.2 1.9-.4l-.7-3.2c-.6.1-1.2.3-1.8.4l.6 3.2z"/><path stroke="#7F8083" stroke-width=".29" d="M294.9 652.3c-1.9.4.5-3.4-1.7-3-1.9.3 1.6 3-.3 3.3M292.5 650c.6-.1 1.2-.2 1.8-.4M292.9 652.1c.6-.1 1.3-.2 1.9-.4"/></g><g fill="none"><path d="M295 652.3l1.9-.4-.8-3.2-1.8.4z"/><path stroke="#7F8083" stroke-width=".29" d="M296.9 651.9c-1.9.4.4-3.4-1.7-2.9-1.9.4 1.7 2.9-.2 3.4M294.4 649.6l1.8-.4M294.8 651.7l1.9-.4"/></g><g fill="none"><path d="M297 651.9c.6-.1 1.2-.3 1.8-.5l-.8-3.1c-.6.2-1.2.3-1.8.5l.8 3.1z"/><path stroke="#7F8083" stroke-width=".29" d="M298.9 651.4c-1.9.5.3-3.4-1.8-2.9-1.9.5 1.7 2.9-.2 3.4M296.4 649.2c.6-.1 1.2-.3 1.8-.5M296.8 651.3c.6-.1 1.2-.3 1.9-.5"/></g><g fill="none"><path d="M299 651.3l1.8-.5-.9-3.1-1.8.5z"/><path stroke="#7F8083" stroke-width=".29" d="M300.9 650.8c-1.9.5.2-3.4-1.9-2.8-1.9.5 1.8 2.8-.1 3.4M298.3 648.7l1.7-.5M298.8 650.7l1.8-.5"/></g></g><g><g fill="none"><path d="M408.8 650.1c-.5.2-1.1.3-1.7.5l.7 3.2c.7-.2 1.3-.3 2-.6l-1-3.1z"/><path stroke="#7F8083" stroke-width=".29" d="M407.1 650.5c.9-.2.8.6.8 1.5-.1.8-.1 1.7 1 1.4 1.1-.3.6-1 .1-1.7s-.9-1.4-.1-1.7M409.7 652.7c-.7.2-1.3.4-2 .5M409 650.7c-.5.2-1.2.3-1.8.5"/></g><g fill="none"><path d="M407 650.5l-1.8.3.5 3.2c.7-.1 1.3-.2 2-.4l-.7-3.1z"/><path stroke="#7F8083" stroke-width=".29" d="M405.2 650.9c.9-.1.8.7.7 1.5-.1.8-.2 1.7.9 1.5 1.1-.2.6-.9.2-1.7-.4-.7-.8-1.5.1-1.7M407.6 653.2c-.6.1-1.3.3-1.9.4M407.2 651.2l-1.8.3"/></g><g fill="none"><path d="M405.1 650.9c-.6.1-1.2.2-1.8.2l.3 3.2c.7-.1 1.3-.1 2-.3l-.5-3.1z"/><path stroke="#7F8083" stroke-width=".29" d="M403.2 651.1c.9-.1.7.7.6 1.6-.2.8-.3 1.7.8 1.5 1.1-.1.7-.9.3-1.7-.4-.8-.7-1.5.2-1.7M405.5 653.6c-.6.1-1.3.2-1.9.2M405.2 651.5c-.6.1-1.2.2-1.9.2"/></g><g fill="none"><path d="M403.2 651.1l-1.8.2.1 3.2 2-.1z"/><path stroke="#7F8083" stroke-width=".29" d="M401.3 651.3c.9-.1.7.8.5 1.6-.2.8-.4 1.7.8 1.6 1-.1.7-.9.4-1.6-.3-.8-.6-1.6.3-1.6M403.5 653.9l-2 .1M403.3 651.8l-1.9.1"/></g><g fill="none"><path d="M401.2 651.3h-1.8l.1 3.3 1.9-.1z"/><path stroke="#7F8083" stroke-width=".29" d="M399.4 651.3c.9 0 .7.8.4 1.6-.2.8-.5 1.6.7 1.6 1 0 .7-.8.4-1.6-.3-.8-.6-1.6.4-1.6M401.4 654l-1.9.1M401.3 651.9l-1.9.1"/></g><g fill="none"><path d="M399.3 651.3h-1.8l-.1 3.3h1.9z"/><path stroke="#7F8083" stroke-width=".29" d="M397.4 651.3c.9 0 .6.8.4 1.6-.3.8-.5 1.6.6 1.6 1 0 .8-.8.5-1.6-.3-.8-.5-1.6.4-1.6M399.3 654.1h-1.9M399.3 652h-1.9"/></g><g fill="none"><path d="M397.3 651.3l-1.8-.1-.2 3.3 2 .1z"/><path stroke="#7F8083" stroke-width=".29" d="M395.4 651.2c.9 0 .6.8.3 1.6s-.6 1.6.6 1.6c1 0 .8-.8.6-1.6-.2-.8-.4-1.6.5-1.6M397.3 654.1l-2-.1M397.4 652l-1.9-.1"/></g><g fill="none"><path d="M395.4 651.2c-.6 0-1.2-.1-1.8-.1l-.3 3.2c.6.1 1.3.1 1.9.2l.2-3.3z"/><path stroke="#7F8083" stroke-width=".29" d="M393.5 651.1c1.9.2-1.5 3.1.8 3.3 1 .1.8-.8.6-1.6-.2-.8-.4-1.6.6-1.6M395.2 654c-.6 0-1.3-.1-1.9-.2M395.4 651.9c-.6 0-1.3-.1-1.9-.2"/></g><g fill="none"><path d="M393.4 651.1c-.6-.1-1.2-.1-1.8-.2l-.4 3.2c.6.1 1.3.2 1.9.2l.3-3.2z"/><path stroke="#7F8083" stroke-width=".29" d="M391.5 650.9c1.9.3-1.6 3.1.7 3.4 2 .2-.6-3.3 1.3-3.1M393.2 653.8c-.6-.1-1.3-.1-1.9-.2M393.4 651.7c-.6-.1-1.3-.1-1.9-.2"/></g><g fill="none"><path d="M391.5 650.9l-1.9-.3-.5 3.2 2 .3z"/><path stroke="#7F8083" stroke-width=".29" d="M389.6 650.6c1.9.3-1.7 3 .6 3.3 2 .3-.5-3.3 1.4-3.1M391.1 653.6l-1.9-.2M391.4 651.5l-1.9-.3"/></g><g fill="none"><path d="M389.5 650.6l-1.8-.3-.6 3.2 1.9.3z"/><path stroke="#7F8083" stroke-width=".29" d="M387.6 650.3c1.9.3-1.8 3 .5 3.4 2 .4-.4-3.3 1.5-3M389.1 653.3l-1.9-.3M389.5 651.2l-1.9-.3"/></g><g fill="none"><path d="M387.6 650.3c-.6-.1-1.2-.2-1.8-.4l-.7 3.2c.6.2 1.3.3 1.9.4l.6-3.2z"/><path stroke="#7F8083" stroke-width=".29" d="M385.7 649.9c1.9.4-1.8 2.9.4 3.4 2 .4-.4-3.3 1.6-3M387.1 653c-.6-.1-1.3-.2-1.9-.4M387.5 650.9c-.6-.1-1.2-.2-1.9-.4"/></g><g fill="none"><path d="M385.7 649.9l-1.9-.4-.7 3.1 1.9.4z"/><path stroke="#7F8083" stroke-width=".29" d="M383.8 649.4c1.9.4-1.9 2.9.3 3.4 2 .4-.3-3.4 1.6-2.9M385.1 652.6l-1.9-.4M385.6 650.5l-1.9-.4"/></g><g fill="none"><path d="M383.7 649.4c-.6-.1-1.2-.3-1.8-.5l-.8 3.1c.6.2 1.2.4 1.9.5l.7-3.1z"/><path stroke="#7F8083" stroke-width=".29" d="M381.9 648.9c1.8.5-2 2.8.2 3.4 2 .5-.2-3.4 1.7-2.9M383.1 652.1c-.6-.1-1.2-.3-1.8-.5M383.6 650.1c-.6-.1-1.2-.3-1.8-.5"/></g><g fill="none"><path d="M381.8 648.9l-1.8-.5-.9 3.2 1.9.5z"/><path stroke="#7F8083" stroke-width=".29" d="M380 648.4c1.8.5-2.1 2.8.1 3.4 2 .5-.1-3.4 1.8-2.8M381.1 651.6l-1.9-.5M381.7 649.6l-1.8-.5"/></g></g></svg>