<?xml version="1.0" encoding="utf-8"?>
<!-- Generator: Adobe Illustrator 25.0.0, SVG Export Plug-In . SVG Version: 6.00 Build 0)  -->
<svg version="1.1" id="Layer_1" xmlns="http://www.w3.org/2000/svg" xmlns:xlink="http://www.w3.org/1999/xlink" x="0px" y="0px"
	 viewBox="0 0 220 544" enable-background="new 0 0 220 544" xml:space="preserve">
<path fill="#F495B5" d="M114.6,161.7c2,1.9,3.4,6.2,4.3,10.8c1.4,6.9,3.6,13.6,5.5,32.8c4.4,29.9,7.8,51.1,8.8,83.6
	c0.4,13.8-0.9,36.3,0.1,43.8c1.7,12.9,2.9,21.4,4.3,28c2,9.5,1.6,7,2.7,12.9c1.6,8.4,1.2,7.6,0.8,31.4c0,0,0.3,13.4,0.7,25.8
	c0.3,12.3,7.1,54.7,7.7,104.4c3.6,1.3,8.5,3.3,12.4,3.6c12.9,1.1,16.2-1.1,16.2-1.1s18.1-103.5,18.1-125.2c0-30.4-5.1-48-4.9-59.9
	c0.3-23.9,0.9-38.4,1.3-41.3c1.3-12.3,7.1-50.8,12.1-80.3c7.5-45,8.6-47.1,9.7-74.7c1.6-40.8-6.5-72.9-7.7-78
	c-1.1-4.6-4.8-17.4-6.1-23.4c-0.7-3.4-12.1-48.1-14.6-48c-21.4,1.1-32.6-0.3-73.2,0.3h-5.4C66.8,6.7,55.5,8.5,34.1,7.3
	c-2.4-0.1-13.8,44.2-14.5,47.6c-1.2,6-4.9,18.8-6.1,23.4c-1.2,5-9.3,37.2-7.7,78C6.9,183.9,8,186,15.5,231
	c4.9,29.5,10.7,68.1,12.1,80.3c0.3,2.9,1,17.4,1.3,41.3c0.1,12-4.9,29.6-4.9,59.9c0,21.8,18.1,125.2,18.1,125.2s3.3,2.2,16.2,1.1
	c3.9-0.3,8.7-2.3,12.4-3.6c0.5-49.7,7.3-92.1,7.7-104.4c0.3-12.4,0.7-25.8,0.7-25.8c-0.3-23.8-0.7-23.1,0.8-31.4
	c1.1-5.9,0.7-3.4,2.7-12.9c1.4-6.5,2.6-15.1,4.3-28c1-7.5-0.3-30,0.1-43.8c1-32.5,4.4-53.7,8.8-83.6c1.9-19.1,5.6-30,7-37
	c0.9-4.6,1.4-8.5,4.5-9.3h5.9L114.6,161.7L114.6,161.7z"/>
<path fill="#6D6E71" d="M112.6,162.5c3.7,3.9,4.1,10.4,5.2,15.4c1,4.6,2,9.1,2.7,13.7c1.2,7.8,2,15.7,3.1,23.6
	c1.1,7.5,2.2,15.1,3.2,22.6c2.1,15.8,3.5,31.6,4.1,47.5c0.5,13.4-0.2,26.8-0.1,40.1c0.1,6,0.9,11.8,1.7,17.7c0.8,6,1.7,12.1,3,18
	c1.4,6.6,3.3,13.3,3.7,20c0.6,8.8-0.3,17.6-0.1,26.4c0.3,10.7,0.2,21.5,1.2,32.2c2.7,27.5,5.8,54.8,6.7,82.5l0.3,13.5
	c0.1,0.2,0.2,0.3,0.4,0.4c3.8,1.4,7.6,2.9,11.5,3.6c3.6,0.6,7.4,0.6,11.1,0.4c2.7-0.1,6.5-0.3,8.9-1.9c1.1-0.7,1-1.6,1.2-2.8
	c0.4-2.3,0.8-4.5,1.2-6.8c3.2-18.8,6.3-37.6,9.2-56.4c2.8-18.5,6.1-37.1,7.2-55.8c0.8-12.9-0.5-26.1-2.1-38.9
	c-0.7-5.7-1.6-11.3-2.2-17c-0.7-6.1-0.5-12.2-0.4-18.4c0.2-10.3,0.1-20.8,1.1-31.1c1.2-11.8,3.2-23.6,4.9-35.3
	c4.4-29.1,9.9-58,14.1-87.1c3.6-24.5,3.9-49.8,1.3-74.4c-1.2-11-2.9-22-5.4-32.8c-2.1-9.2-4.9-18.1-7-27.3
	c-1.7-7.3-3.7-14.6-5.7-21.9c-1.3-4.9-2.7-9.7-4.2-14.5c-1-3.3-2-6.7-3.5-9.8c-0.3-0.7-0.7-1.5-1.4-1.9c-1.5-0.7-4.6,0-6.3,0.1
	c-4.7,0.2-9.4,0.2-14.2,0.2c-11.8,0-23.6-0.3-35.4-0.3c-26.2,0-52.3,0.3-78.5,0.6c-4.8,0.1-9.5,0-14.3-0.2c-3.3-0.1-6.6-0.9-8.3,2.5
	c-1.5,3-2.5,6.4-3.5,9.6c-1.5,4.8-2.9,9.6-4.2,14.5c-2,7.3-4,14.5-5.7,21.9C15,64,12.2,73,10.1,82.1c-6.2,26.6-7.9,54-6.6,81.3
	c1,21.6,5.2,42.8,8.7,64.1c2.8,16.3,5.4,32.7,7.8,49.1c1.8,11.7,3.7,23.5,4.9,35.3c1,10.1,0.9,20.3,1.1,30.5
	c0.1,6.4,0.3,12.7-0.3,19c-0.6,5.7-1.5,11.3-2.2,17c-1.6,12.8-2.9,26-2.1,38.9c0.5,8,1.5,16,2.6,23.9c2.8,21.4,6.2,42.7,9.8,63.9
	c1.3,8.1,2.7,16.2,4.1,24.3c0.4,2.3,0.8,4.5,1.2,6.8c0.2,0.9,0.1,1.8,0.8,2.4c1.9,1.6,6.3,1.4,8.5,1.4c3.8,0.1,7.7,0,11.4-0.7
	c3.8-0.8,7.4-2.2,11-3.5c0.6-0.2,1.3-0.6,1.3-1.3c0.4-30.5,3.3-60.7,6.6-91c1.1-10.4,1.3-20.8,1.6-31.3c0.2-10-0.3-19.9-0.1-29.9
	c0.1-6,1.6-11.9,2.9-17.7c1.3-5.9,2.4-11.9,3.3-17.9c0.9-6.4,2.1-12.8,2.3-19.3c0.4-13.1-0.6-26.2-0.2-39.2
	c0.5-16.6,1.9-33.2,4-49.7c1-7.8,2.1-15.6,3.3-23.4c1.2-8.2,2-16.4,3.5-24.6c1-5.8,2.4-11.5,3.8-17.3c0.5-2.1,1-4.2,1.4-6.3
	c0.3-1.6,0.6-3.3,1.2-4.9c0.1-0.3,1.2-2.2,1.2-2.2s-1.7,0-0.4,0.1c1.7,0.1,3.5,0,5.2,0c-0.4-0.1-0.7-0.2-1.1-0.3
	C111.5,160.7,112.1,161.6,112.6,162.5c0.7,1,4.8-0.3,4-1.6c-0.9-1.4-1.3-2.8-3-2.9c-1.8-0.1-3.8-0.1-5.6,0
	c-6.5,0.4-6.8,7.5-7.9,12.5c-1.2,5.2-2.6,10.3-3.7,15.5c-1.7,8.4-2.5,16.9-3.8,25.3c-4.7,32.1-8.5,64-7.9,96.5
	c0.1,6.8,0.3,13.6,0.2,20.4c-0.2,7-1.5,13.9-2.5,20.8c-1.4,9.4-3.9,18.6-5.4,28c-1.3,8.4-0.5,17.2-0.3,25.6
	c0.2,11.2,0,22.6-0.9,33.8c-1,11.4-2.4,22.7-3.5,34.1c-1.7,16.9-2.9,33.9-3.5,50.8c-0.2,4.8-0.3,9.6-0.3,14.5l1.3-1.3
	c-4,1.4-7.9,3.1-12.2,3.4c-3.3,0.3-6.8,0.4-10.1-0.1c-1.1-0.2-2.4-0.3-3.4-0.8c-0.3-0.2,0.2,0.5,0.1-0.1c-0.6-4.1-1.4-8.2-2.1-12.2
	c-3.2-18.7-6.3-37.4-9.1-56.1c-2.7-17.4-5.7-35-6.7-52.6c-0.8-12.9,0.6-26,2.2-38.8c0.7-5.4,1.5-10.7,2.1-16
	c0.6-5.4,0.5-10.7,0.5-16.1c-0.2-11-0.2-22.2-1.1-33.2c-0.8-9.9-2.6-19.8-4-29.6c-4.3-29.2-9.5-58.3-14.2-87.5
	c-3.5-21.9-4.7-44.3-3.4-66.5c1.2-21.1,5-41.4,10.5-61.7C23.4,50.1,27,33.3,32.2,17c0.6-1.8,1.1-3.5,1.8-5.2
	c0.4-1.2,1.2-2.4,1.5-3.5c0.1-0.6,0.9-0.9-0.7,0c-1.4,0.8-0.4,0.4,0.5,0.4c0.7,0,1.4,0.1,2.1,0.1C39.7,8.9,42,8.9,44.3,9
	c9.8,0.1,19.5-0.3,29.3-0.4c12.8-0.2,25.6,0,38.4-0.1c13.9-0.1,27.8-0.1,41.6,0.1c9.3,0.1,18.6,0.2,27.8-0.1c0.7,0,2.8-0.4,3.2-0.2
	c-0.4-0.2,0,0.1,0.2,0.4c0.6,1,1,2.1,1.4,3.2c1.4,3.7,2.5,7.5,3.7,11.3c5.1,17.2,9.1,34.7,13.8,52.1c5.7,21.1,8.4,43,8.8,64.8
	c0.5,21-1.4,41.7-4.9,62.3c-5,29.8-10,59.6-14.4,89.5c-1.2,8.1-2.5,16.3-3,24.5c-0.7,12.7-1.2,25.6-1,38.3
	c0.2,10.7,2.5,21.3,3.6,31.9c1.1,11.2,1.9,22.7,1,34c-1.5,18.6-4.6,37-7.4,55.4c-2.8,17.8-5.7,35.7-8.8,53.5c-0.5,2.9-1,5.9-1.5,8.8
	c0.3-0.3,0.6-0.5,0.8-0.8c-0.2,0.1,0.4,0,0,0c0.1,0-0.7,0.2-1.2,0.3c-2.8,0.6-5.7,0.5-8.5,0.4c-4.8-0.2-9-1.3-13.5-2.9
	c-1.3-0.5-1.7-0.5-1.9-2c-0.1-1.2,0-2.5-0.1-3.7c0-2.4-0.1-4.8-0.2-7.2c-0.6-17.6-1.8-35.1-3.5-52.6c-1.1-11.4-2.6-22.8-3.6-34.3
	s-1.1-23.3-0.9-34.8c0.1-8.3,0.9-16.9-0.5-25.1c-1.7-9.9-4.1-19.6-5.6-29.6c-1-6.7-2.1-13.4-2.2-20.2c-0.1-7,0.1-13.9,0.2-20.9
	c0.3-16.6-0.5-33.2-2.1-49.7c-1.6-16.7-4.4-33.2-6.6-49.8c-1.6-11.8-3.2-23.5-6-35.1c-0.8-3.2-1.7-6.7-4-9.2
	C115.7,159.9,111.7,161.4,112.6,162.5L112.6,162.5z"/>
<path fill="none" stroke="#6D6E71" stroke-width="0.725" stroke-miterlimit="10" stroke-dasharray="3.6896,1.8441,3.6882,1.8441" d="
	M45.3,10.9c0,0,116.7,1.3,132.3-0.5 M183.6,8.3c-19.8,1.6-147.1,0-147.1,0"/>
<path fill="none" stroke="#6D6E71" stroke-width="1.46" stroke-miterlimit="10" d="M187.4,7.7C105.1,31.6,32.6,8.2,32.6,8.2"/>
<path fill="#6D6E71" d="M107.8,153.1l7.5-2.4l12-3.9c0.9-0.3,1.8-0.6,2.8-0.9c0.3-0.1,2.6-1.4,2.5-1.5c-0.5-1.7-3.2-1-4.3-0.8
	c-3.1,0.7-6.1,2-9,3.3c-3.6,1.5-7.2,3.1-10.8,4.6c-3.6,1.5-7.3,2.6-10.7,4.5c-3.3,1.8-6.5,3.8-9.4,6.2c0.3-0.3,0.9-0.5,1.3-0.7
	s0.9-0.4,1.3-0.7c0.6-0.5,1.2-1,1.9-1.5s1.5-1.1,2.2-1.6c0.4-0.3,0.8-0.5,1.2-0.7c0.1-0.1,0.2-0.1,0.3-0.2c0.7-0.5-0.9,0.5-0.8,0.5
	c0.3-0.1,0.6-0.3,0.8-0.4c1.7-0.9,3.5-1.5,5.3-2.1c1.7-0.6,3.3-1.3,4.9-2c3.4-1.4,6.7-2.9,10.1-4.3c2.8-1.2,5.6-2.4,8.6-3.1
	c1.2-0.3,4.2-1.1,4.7,0.7c0.8-0.5,1.7-1,2.5-1.5l-7.5,2.4l-12,3.9c-0.9,0.3-1.8,0.6-2.8,0.9c-0.4,0.1-0.9,0.5-1.3,0.7
	C108.6,152.6,108.2,153,107.8,153.1L107.8,153.1z"/>
<path fill="none" stroke="#6D6E71" stroke-width="2" stroke-miterlimit="10" d="M110,65.5l-0.3,85.2"/>
<g>
	<path fill="none" d="M185.7,9.7l3.2-0.9l0.5,1.8l-3.2,0.9L185.7,9.7z"/>
	<path fill="none" stroke="#7F8083" stroke-width="0.29" d="M186.2,11.6c-0.5-1.9,3.4,0.3,2.8-1.9c-0.6-2-2.8,1.8-3.4-0.1 M188.4,9
		l0.5,1.8 M186.3,9.5l0.5,1.9"/>
</g>
<g>
	<path fill="none" d="M186.3,11.7l3.2-0.9l0.5,1.8l-3.2,0.9L186.3,11.7z"/>
	<path fill="none" stroke="#7F8083" stroke-width="0.29" d="M186.8,13.6c-0.5-1.9,3.4,0.3,2.8-1.9c-0.6-2-2.8,1.8-3.4-0.1
		 M188.9,10.9l0.5,1.8 M186.9,11.5l0.5,1.8"/>
</g>
<g>
	<path fill="none" d="M186.8,13.6l3.2-0.9l0.5,1.8l-3.2,0.9L186.8,13.6z"/>
	<path fill="none" stroke="#7F8083" stroke-width="0.29" d="M187.3,15.5c-0.5-1.9,3.4,0.3,2.8-1.9c-0.5-2-2.8,1.8-3.4-0.1
		 M189.5,12.9l0.5,1.8 M187.4,13.4l0.5,1.9"/>
</g>
<g>
	<path fill="none" d="M187.4,15.6l3.2-0.9l0.5,1.8l-3.2,0.9L187.4,15.6z"/>
	<path fill="none" stroke="#7F8083" stroke-width="0.29" d="M187.9,17.5c-0.5-1.9,3.4,0.3,2.8-1.9c-0.5-2-2.8,1.8-3.4-0.1 M190,14.8
		l0.5,1.8 M188,15.4l0.5,1.8"/>
</g>
<g>
	<path fill="none" d="M187.9,17.5l3.2-0.9l0.5,1.8l-3.2,0.9L187.9,17.5z"/>
	<path fill="none" stroke="#7F8083" stroke-width="0.29" d="M188.4,19.4c-0.5-1.9,3.4,0.3,2.8-1.9c-0.5-2-2.8,1.8-3.4-0.1
		 M190.6,16.8l0.5,1.8 M188.5,17.3l0.5,1.9"/>
</g>
<g>
	<path fill="none" d="M188.4,19.5l3.2-0.9l0.5,1.8l-3.2,0.9L188.4,19.5z"/>
	<path fill="none" stroke="#7F8083" stroke-width="0.29" d="M189,21.3c-0.5-1.9,3.4,0.3,2.8-1.9c-0.5-2-2.8,1.8-3.4-0.1 M191.1,18.7
		l0.5,1.8 M189.1,19.3l0.5,1.8"/>
</g>
<g>
	<path fill="none" d="M189,21.3l3.2-0.9l0.5,1.8l-3.2,0.9L189,21.3z"/>
	<path fill="none" stroke="#7F8083" stroke-width="0.29" d="M189.5,23.3c-0.5-1.9,3.4,0.3,2.8-1.9c-0.5-2-2.8,1.8-3.4-0.1
		 M191.7,20.7l0.5,1.8 M189.6,21.2l0.5,1.9"/>
</g>
<g>
	<path fill="none" d="M189.5,23.4l3.2-0.9l0.5,1.8l-3.2,0.9L189.5,23.4z"/>
	<path fill="none" stroke="#7F8083" stroke-width="0.29" d="M190,25.3c-0.5-1.9,3.4,0.3,2.8-1.9c-0.5-2-2.8,1.8-3.4-0.1 M192.2,22.6
		l0.5,1.9 M190.1,23.2l0.5,1.8"/>
</g>
<g>
	<path fill="none" d="M190.1,25.3l3.2-0.9l0.5,1.8l-3.2,0.9L190.1,25.3z"/>
	<path fill="none" stroke="#7F8083" stroke-width="0.29" d="M190.6,27.2c-0.5-1.9,3.4,0.3,2.9-1.9c-0.5-2-2.8,1.8-3.4-0.1
		 M192.7,24.6l0.5,1.8 M190.7,25.1l0.5,1.9"/>
</g>
<g>
	<path fill="none" d="M190.6,27.2l3.2-0.9l0.5,1.8l-3.2,0.9L190.6,27.2z"/>
	<path fill="none" stroke="#7F8083" stroke-width="0.29" d="M191.1,29.2c-0.5-1.9,3.4,0.3,2.9-1.9c-0.5-2-2.8,1.8-3.4-0.1
		 M193.3,26.5l0.5,1.9 M191.2,27.1l0.5,1.8"/>
</g>
<g>
	<path fill="none" d="M191.1,29.2l3.2-0.9l0.5,1.8l-3.2,0.9L191.1,29.2z"/>
	<path fill="none" stroke="#7F8083" stroke-width="0.29" d="M191.6,31.1c-0.5-1.9,3.4,0.3,2.9-1.9c-0.5-2-2.8,1.8-3.4-0.1
		 M193.8,28.5l0.5,1.8 M191.7,29l0.5,1.9"/>
</g>
<g>
	<path fill="none" d="M191.6,31.2l3.2-0.9l0.5,1.8l-3.2,0.9L191.6,31.2z"/>
	<path fill="none" stroke="#7F8083" stroke-width="0.29" d="M192.2,33.1c-0.5-1.9,3.4,0.3,2.9-1.8c-0.5-2-2.9,1.8-3.4-0.1
		 M194.3,30.5l0.5,1.8 M192.3,31l0.5,1.8"/>
</g>
<g>
	<path fill="none" d="M192.2,33.1l3.2-0.9l0.5,1.8l-3.2,0.9L192.2,33.1z"/>
	<path fill="none" stroke="#7F8083" stroke-width="0.29" d="M192.7,35c-0.5-1.9,3.4,0.3,2.9-1.8c-0.5-2-2.9,1.8-3.4-0.1 M194.9,32.4
		l0.4,1.8 M192.8,32.9l0.5,1.9"/>
</g>
<g>
	<path fill="none" d="M192.7,35.1l3.2-0.8l0.5,1.8l-3.2,0.8L192.7,35.1z"/>
	<path fill="none" stroke="#7F8083" stroke-width="0.29" d="M193.2,37c-0.5-1.9,3.4,0.3,2.9-1.8c-0.5-2-2.9,1.8-3.4-0.1 M195.4,34.4
		l0.5,1.8 M193.3,34.9l0.5,1.8"/>
</g>
<g>
	<path fill="none" d="M193.2,37l0.5,1.9l3.1-0.9l-0.4-1.8L193.2,37z"/>
	<path fill="none" stroke="#7F8083" stroke-width="0.29" d="M193.7,38.9c-0.5-1.9,3.4,0.3,2.9-1.8c-0.5-2-2.9,1.8-3.4-0.1
		 M195.9,36.3l0.5,1.9 M193.8,36.8l0.5,1.9"/>
</g>
<g>
	<path fill="none" d="M193.7,39l0.5,1.8l3.1-0.8l-0.4-1.8L193.7,39z"/>
	<path fill="none" stroke="#7F8083" stroke-width="0.29" d="M194.2,40.9c-0.5-1.9,3.4,0.3,2.9-1.8c-0.5-2-2.9,1.8-3.4-0.1
		 M196.4,38.3l0.5,1.8 M194.3,38.8l0.5,1.9"/>
</g>
<g>
	<path fill="none" d="M194.2,40.9l0.5,1.9l3.1-0.8l-0.4-1.9L194.2,40.9z"/>
	<path fill="none" stroke="#7F8083" stroke-width="0.29" d="M194.7,42.8c-0.5-1.9,3.4,0.4,2.9-1.8c-0.5-2-2.9,1.8-3.4-0.2
		 M196.9,40.3l0.5,1.8 M194.8,40.7l0.5,1.9"/>
</g>
<g>
	<path fill="none" d="M194.7,42.9l0.5,1.8l3.1-0.7l-0.4-1.9L194.7,42.9z"/>
	<path fill="none" stroke="#7F8083" stroke-width="0.29" d="M195.2,44.8c-0.5-1.9,3.4,0.4,2.9-1.8c-0.5-2-2.9,1.7-3.4-0.2
		 M197.4,42.2l0.5,1.9 M195.3,42.7l0.5,1.9"/>
</g>
<g>
	<path fill="none" d="M195.2,44.9l0.5,1.8l3.1-0.8l-0.4-1.8L195.2,44.9z"/>
	<path fill="none" stroke="#7F8083" stroke-width="0.29" d="M195.7,46.8c-0.4-1.9,3.4,0.4,2.9-1.8c-0.5-2-2.9,1.7-3.4-0.2
		 M197.9,44.2l0.4,1.9 M195.8,44.7l0.5,1.8"/>
</g>
<g>
	<path fill="none" d="M195.7,46.8l0.4,1.9l3.2-0.8l-0.5-1.8L195.7,46.8z"/>
	<path fill="none" stroke="#7F8083" stroke-width="0.29" d="M196.1,48.7c-0.4-1.9,3.4,0.4,2.9-1.7c-0.5-2-2.9,1.7-3.4-0.2
		 M198.4,46.2l0.4,1.8 M196.3,46.6l0.4,1.9"/>
</g>
<g>
	<path fill="none" d="M196.1,48.8l0.4,1.8l3.2-0.7l-0.4-1.8L196.1,48.8z"/>
	<path fill="none" stroke="#7F8083" stroke-width="0.29" d="M196.5,50.7c-0.4-1.9,3.4,0.5,2.9-1.7c-0.4-2-2.9,1.7-3.4-0.3
		 M198.8,48.2l0.5,1.8 M196.8,48.6l0.4,1.9"/>
</g>
<g>
	<path fill="none" d="M196.6,50.7c0.1,0.6,0.2,1.2,0.4,1.8l3.2-0.5c-0.1-0.7-0.2-1.3-0.4-1.9L196.6,50.7L196.6,50.7z"/>
	<path fill="none" stroke="#7F8083" stroke-width="0.29" d="M196.9,52.6c-0.2-0.9,0.7-0.8,1.5-0.7s1.7,0.2,1.5-0.9
		c-0.4-2-2.9,1.6-3.4-0.3 M199.3,50.2c0.1,0.6,0.3,1.3,0.4,1.9 M197.2,50.6c0.1,0.6,0.2,1.3,0.4,1.9"/>
</g>
<g>
	<path fill="none" d="M196.9,52.7c0.1,0.6,0.2,1.1,0.2,1.7h3.3c-0.1-0.8-0.1-1.6-0.3-2.2L196.9,52.7z"/>
	<path fill="none" stroke="#7F8083" stroke-width="0.29" d="M197.2,54.4c-0.1-0.8,0.7-0.7,1.6-0.4c0.8,0.2,1.7,0.5,1.5-0.9
		c-0.2-1.1-0.9-0.7-1.7-0.3c-0.7,0.4-1.5,0.7-1.7-0.2 M199.7,52.2c0.1,0.6,0.2,1.4,0.3,2.1 M197.6,52.5c0.1,0.6,0.2,1.2,0.2,1.8"/>
</g>
<path opacity="0.37" fill="#FFFFFF" enable-background="new    " d="M34,8.5c0,0,10.5,8,76.4,10.7c0,0,58.8-2.8,73-10.7
	C183.4,8.5,58.7,6.1,34,8.5z"/>
<g>
	<path fill="#6D6E71" d="M138,359.3c1,10.8,3.1,21.5,5.3,32.1c1.4,6.8,2.9,13.6,4.6,20.4c-0.2-0.8,0-1.9,0-2.7c0-0.9,0.2-1.9,0-2.7
		c-3.9-16.4-7.5-33.1-9.6-49.8l-0.3-2.7C138.1,355.6,137.8,357.5,138,359.3L138,359.3z"/>
</g>
<path fill="none" stroke="#6D6E71" stroke-width="2" stroke-miterlimit="10" d="M20.6,53.1c0,0,68.1,29.2,177.9,1.1"/>
<g>
	<g>
		<path fill="none" d="M30.9,11.4l0.5-1.8l3.2,0.9l-0.5,1.8L30.9,11.4z"/>
		<path fill="none" stroke="#7F8083" stroke-width="0.29" d="M30.9,11.5c0.5-1.9,2.8,2,3.4-0.1c0.6-1.9-3.4,0.1-2.8-1.8 M34.1,10.3
			l-0.5,1.9 M32,9.7l-0.5,1.9"/>
	</g>
	<g>
		<path fill="none" d="M30.3,13.3l0.5-1.8l3.2,0.9l-0.5,1.8L30.3,13.3z"/>
		<path fill="none" stroke="#7F8083" stroke-width="0.29" d="M30.3,13.4c0.5-1.9,2.8,2,3.4-0.1c0.6-1.9-3.4,0.1-2.8-1.8 M33.5,12.3
			L33,14.1 M31.5,11.7L31,13.5"/>
	</g>
	<g>
		<path fill="none" d="M29.8,15.3l0.5-1.8l3.2,0.9L33,16.1L29.8,15.3z"/>
		<path fill="none" stroke="#7F8083" stroke-width="0.29" d="M29.8,15.4c0.5-1.9,2.8,2,3.4-0.1c0.5-2-3.4,0.1-2.8-1.8 M33,14.2
			L32.5,16 M30.9,13.6l-0.5,1.9"/>
	</g>
	<g>
		<path fill="none" d="M29.2,17.3l0.5-1.8l3.2,0.9l-0.5,1.8L29.2,17.3z"/>
		<path fill="none" stroke="#7F8083" stroke-width="0.29" d="M29.2,17.3c0.5-1.9,2.8,2,3.4-0.1c0.5-1.9-3.4,0.1-2.8-1.8 M32.4,16.2
			L31.9,18 M30.4,15.6l-0.5,1.8"/>
	</g>
	<g>
		<path fill="none" d="M28.7,19.2l0.5-1.8l3.2,0.9l-0.5,1.8L28.7,19.2z"/>
		<path fill="none" stroke="#7F8083" stroke-width="0.29" d="M28.7,19.3c0.5-1.9,2.8,2,3.4-0.1c0.5-1.9-3.4,0.1-2.8-1.8 M31.9,18.1
			l-0.5,1.8 M29.8,17.5l-0.5,1.9"/>
	</g>
	<g>
		<path fill="none" d="M28.1,21.2l0.5-1.8l3.2,0.9l-0.5,1.8L28.1,21.2z"/>
		<path fill="none" stroke="#7F8083" stroke-width="0.29" d="M28.1,21.2c0.5-1.9,2.8,2,3.4-0.1c0.5-2-3.4,0.1-2.8-1.8 M31.3,20.1
			l-0.5,1.8 M29.3,19.5l-0.5,1.8"/>
	</g>
	<g>
		<path fill="none" d="M27.6,23.1l0.5-1.8l3.2,0.9L30.8,24L27.6,23.1z"/>
		<path fill="none" stroke="#7F8083" stroke-width="0.29" d="M27.6,23.2c0.5-1.9,2.8,2,3.4-0.1c0.5-2-3.4,0.1-2.8-1.8 M30.8,22
			l-0.5,1.8 M28.8,21.4l-0.6,1.9"/>
	</g>
	<g>
		<path fill="none" d="M27,25l0.5-1.8l3.2,0.9l-0.5,1.8L27,25z"/>
		<path fill="none" stroke="#7F8083" stroke-width="0.29" d="M27.1,25.1c0.5-1.9,2.8,2,3.4-0.1c0.5-2-3.4,0.1-2.8-1.8 M30.3,24
			l-0.5,1.8 M28.2,23.4l-0.5,1.8"/>
	</g>
	<g>
		<path fill="none" d="M26.6,27l0.5-1.8l3.2,0.9l-0.5,1.8L26.6,27z"/>
		<path fill="none" stroke="#7F8083" stroke-width="0.29" d="M26.5,27.1c0.5-1.9,2.8,2,3.4-0.2c0.5-2-3.4,0.1-2.8-1.8 M29.7,25.9
			l-0.5,1.8 M27.7,25.3l-0.5,1.9"/>
	</g>
	<g>
		<path fill="none" d="M26.1,29l0.5-1.8l3.2,0.9l-0.5,1.8L26.1,29z"/>
		<path fill="none" stroke="#7F8083" stroke-width="0.29" d="M26,29c0.5-1.9,2.8,2,3.4-0.2c0.5-2-3.4,0.1-2.8-1.8 M29.2,27.9
			l-0.5,1.8 M27.1,27.3l-0.5,1.8"/>
	</g>
	<g>
		<path fill="none" d="M25.5,30.9l0.5-1.8l3.2,0.9l-0.5,1.8L25.5,30.9z"/>
		<path fill="none" stroke="#7F8083" stroke-width="0.29" d="M25.5,31c0.5-1.9,2.8,2,3.4-0.2c0.5-2-3.4,0.1-2.9-1.8 M28.7,29.8
			l-0.5,1.8 M26.6,29.2l-0.5,1.9"/>
	</g>
	<g>
		<path fill="none" d="M25,32.9l0.5-1.8l3.2,0.9l-0.5,1.8L25,32.9z"/>
		<path fill="none" stroke="#7F8083" stroke-width="0.29" d="M24.9,32.9c0.5-1.9,2.8,2,3.4-0.2c0.5-2-3.4,0.1-2.9-1.8 M28.1,31.8
			l-0.5,1.8 M26.1,31.2L25.6,33"/>
	</g>
	<g>
		<path fill="none" d="M24.4,34.8l0.5-1.8l3.2,0.9l-0.5,1.8L24.4,34.8z"/>
		<path fill="none" stroke="#7F8083" stroke-width="0.29" d="M24.4,34.9c0.5-1.9,2.8,2,3.4-0.2c0.5-2-3.4,0.1-2.9-1.8 M27.6,33.7
			l-0.5,1.9 M25.6,33.1L25.1,35"/>
	</g>
	<g>
		<path fill="none" d="M23.9,36.8l0.5-1.8l3.2,0.8l-0.5,1.8L23.9,36.8z"/>
		<path fill="none" stroke="#7F8083" stroke-width="0.29" d="M23.9,36.9c0.5-1.9,2.8,2,3.4-0.2c0.5-2-3.4,0.1-2.9-1.8 M27.1,35.7
			l-0.5,1.8 M25,35.1L24.5,37"/>
	</g>
	<g>
		<path fill="none" d="M23.9,36.9l-0.5,1.9l3.2,0.8l0.4-1.9L23.9,36.9z"/>
		<path fill="none" stroke="#7F8083" stroke-width="0.29" d="M23.4,38.8c0.5-1.9,2.8,2,3.4-0.2c0.5-2-3.4,0.2-2.9-1.8 M26.6,37.6
			l-0.5,1.9 M24.5,37.1L24,38.9"/>
	</g>
	<g>
		<path fill="none" d="M23.4,38.9l-0.5,1.8l3.2,0.8l0.4-1.8L23.4,38.9z"/>
		<path fill="none" stroke="#7F8083" stroke-width="0.29" d="M22.9,40.8c0.5-1.9,2.8,1.9,3.4-0.2c0.5-2-3.4,0.2-2.9-1.8 M26.1,39.6
			l-0.5,1.8 M24,39l-0.5,1.9"/>
	</g>
	<g>
		<path fill="none" d="M22.9,40.9l-0.5,1.8l3.2,0.8l0.4-1.8L22.9,40.9z"/>
		<path fill="none" stroke="#7F8083" stroke-width="0.29" d="M22.4,42.8c0.5-1.9,2.9,1.9,3.4-0.2c0.5-2-3.4,0.2-2.9-1.7 M25.6,41.5
			l-0.5,1.9 M23.5,41L23,42.9"/>
	</g>
	<g>
		<path fill="none" d="M22.4,42.8l-0.5,1.9l3.2,0.7l0.4-1.8L22.4,42.8z"/>
		<path fill="none" stroke="#7F8083" stroke-width="0.29" d="M21.9,44.7c0.5-1.9,2.9,1.9,3.4-0.2c0.5-2-3.4,0.2-2.9-1.7 M25.1,43.5
			l-0.5,1.8 M23,42.9l-0.5,1.9"/>
	</g>
	<g>
		<path fill="none" d="M21.9,44.8l-0.5,1.9l3.2,0.7l0.5-1.8L21.9,44.8z"/>
		<path fill="none" stroke="#7F8083" stroke-width="0.29" d="M21.4,46.7c0.4-1.9,2.9,1.9,3.4-0.3c0.5-2-3.4,0.2-2.9-1.7 M24.6,45.5
			l-0.5,1.8 M22.5,44.9l-0.4,1.9"/>
	</g>
	<g>
		<path fill="none" d="M21.4,46.8L21,48.6l3.1,0.8l0.5-1.9L21.4,46.8z"/>
		<path fill="none" stroke="#7F8083" stroke-width="0.29" d="M21,48.7c0.4-1.9,2.9,1.9,3.4-0.3c0.5-2-3.4,0.2-2.9-1.7 M24.1,47.4
			l-0.4,1.8 M22,46.9l-0.4,1.9"/>
	</g>
	<g>
		<path fill="none" d="M20.9,48.8l-0.4,1.8l3.2,0.7l0.4-1.8L20.9,48.8z"/>
		<path fill="none" stroke="#7F8083" stroke-width="0.29" d="M20.5,50.7c0.4-1.9,2.9,1.8,3.4-0.3c0.4-2-3.4,0.3-2.9-1.7 M23.6,49.4
			l-0.3,1.8 M21.6,48.9l-0.4,1.9"/>
	</g>
	<g>
		<path fill="none" d="M20.5,50.8c-0.1,0.6-0.3,1.3-0.4,1.9l3.2,0.5l0.3-1.8L20.5,50.8L20.5,50.8z"/>
		<path fill="none" stroke="#7F8083" stroke-width="0.29" d="M20.1,52.7c0.2-1,0.9-0.5,1.7-0.1s1.5,0.7,1.7-0.3
			c0.4-1.9-3.4,0.3-3-1.6 M23.2,51.3l-0.3,1.8 M21.1,50.8c-0.1,0.6-0.3,1.3-0.4,1.9"/>
	</g>
	<g>
		<path fill="none" d="M20.1,52.8c-0.1,0.6-0.2,1.4-0.3,2.1h3.3c0.1-0.5,0.1-0.9,0.2-1.6L20.1,52.8z"/>
		<path fill="none" stroke="#7F8083" stroke-width="0.29" d="M19.9,54.9c0.1-1.1,0.9-0.7,1.7-0.4s1.6,0.4,1.7-0.4
			c0.1-0.9-0.7-0.8-1.5-0.7s-1.7,0.3-1.5-0.7 M22.9,53.3c-0.1,0.6-0.2,1.1-0.2,1.6 M20.8,52.9c-0.1,0.6-0.2,1.3-0.3,2"/>
	</g>
</g>
<g>
	<path fill="#6D6E71" d="M82.9,348.2c-1,10.8-3.1,21.5-5.3,32.1c-1.4,6.8-2.9,13.6-4.6,20.4c-0.2,0.8,0,1.9,0,2.7s0.2,1.9,0,2.7
		c3.9-16.4,7.5-33.1,9.6-49.8l0.3-2.7C83,351.9,82.7,350,82.9,348.2L82.9,348.2z"/>
</g>
<path fill="none" stroke="#6D6E71" stroke-miterlimit="10" d="M109.5,150.3c-4,0.6-8.1,4.3-11.5,9.3c-1.7,2.5-6.5,27.2-7.4,35.4
	c-1.4,7.9-2.1,13.7-3.2,22c-4.1,28.8-3.5,62.6-4.3,88.4c0,0,0,19.6-8,72.4c-3.4,22.3,1.8,22.5-4.3,87.8c0,0-4.5,49.9-3.9,69.5"/>
<g>
	<path fill="#6D6E71" d="M137.3,353.7c1,10.8,3.1,21.5,5.3,32.1c1.4,6.8,2.9,13.6,4.6,20.4c-0.2-0.8,0-1.9,0-2.7
		c0-0.9,0.2-1.9,0-2.7c-3.9-16.4-7.5-33.1-9.6-49.8l-0.3-2.7C137.4,350,137.1,351.9,137.3,353.7L137.3,353.7z"/>
</g>
<path fill="none" stroke="#6D6E71" stroke-miterlimit="10" d="M109.8,151.4c4,0.6,8.1,4.3,11.5,9.3c1.7,2.5,6.5,27.2,7.4,35.4
	c1.4,7.9,2.1,13.7,3.2,22c4.1,28.8,3.5,62.6,4.3,88.4c0,0,0,19.6,8,72.4c3.4,22.3-1.8,22.5,4.3,87.8c0,0,4.5,49.9,3.9,69.5"/>
<g>
	<g>
		<path fill="none" d="M40.5,530.4c0.7,0.2,1.3,0.4,2,0.5l0.7-3.2c-0.5-0.1-1.2-0.3-1.6-0.4L40.5,530.4L40.5,530.4z"/>
		<path fill="none" stroke="#7F8083" stroke-width="0.29" d="M42.5,531c-1-0.2-0.5-0.9,0-1.7c0.4-0.7,0.8-1.5-0.2-1.7
			c-0.8-0.2-0.9,0.6-0.9,1.4c0,0.8,0.1,1.7-1,1.4 M41.4,527.8c0.5,0.2,1.1,0.3,1.6,0.4 M40.7,529.8c0.7,0.2,1.3,0.4,1.9,0.5"/>
	</g>
	<g>
		<path fill="none" d="M42.6,531c0.6,0.1,1.3,0.3,1.9,0.4l0.5-3.2c-0.6-0.1-1.2-0.2-1.7-0.3L42.6,531L42.6,531z"/>
		<path fill="none" stroke="#7F8083" stroke-width="0.29" d="M44.6,531.3c-1-0.2-0.5-0.9-0.1-1.7s0.7-1.5-0.3-1.7
			c-0.9-0.2-0.9,0.6-0.8,1.5c0.1,0.8,0.2,1.7-0.8,1.5 M43.2,528.3l1.8,0.3 M42.7,530.4c0.6,0.1,1.3,0.3,1.9,0.4"/>
	</g>
	<g>
		<path fill="none" d="M44.6,531.4c0.6,0.1,1.3,0.2,1.9,0.2l0.3-3.2c-0.6-0.1-1.2-0.1-1.8-0.2L44.6,531.4z"/>
		<path fill="none" stroke="#7F8083" stroke-width="0.29" d="M46.6,531.6c-1-0.1-0.6-0.9-0.2-1.7c0.3-0.8,0.6-1.6-0.4-1.7
			c-0.9-0.1-0.8,0.7-0.7,1.5c0.1,0.8,0.3,1.7-0.7,1.5 M45.1,528.6c0.6,0.1,1.2,0.2,1.8,0.2 M44.7,530.7c0.6,0.1,1.3,0.2,1.9,0.3"/>
	</g>
	<g>
		<path fill="none" d="M46.7,531.6l1.9,0.2l0.2-3.3l-1.8-0.1L46.7,531.6z"/>
		<path fill="none" stroke="#7F8083" stroke-width="0.29" d="M48.7,531.8c-1-0.1-0.6-0.9-0.3-1.6c0.3-0.8,0.6-1.6-0.5-1.7
			c-1-0.1-0.8,0.7-0.6,1.6c0.2,0.8,0.4,1.6-0.6,1.6 M47,528.9l1.8,0.1 M46.7,531l2,0.1"/>
	</g>
	<g>
		<path fill="none" d="M48.8,531.8h1.9v-3.2l-1.8-0.1L48.8,531.8z"/>
		<path fill="none" stroke="#7F8083" stroke-width="0.29" d="M50.7,531.8c-1,0-0.7-0.8-0.4-1.6c0.3-0.8,0.5-1.6-0.6-1.6
			c-1,0-0.8,0.8-0.6,1.6c0.2,0.8,0.5,1.6-0.6,1.6 M48.9,529l1.8,0.1 M48.8,531.1l1.9,0.1"/>
	</g>
	<g>
		<path fill="none" d="M50.8,531.8h1.9v-3.2h-1.8L50.8,531.8z"/>
		<path fill="none" stroke="#7F8083" stroke-width="0.29" d="M52.8,531.8c-1,0-0.7-0.8-0.4-1.6c0.2-0.8,0.4-1.6-0.6-1.6
			s-0.7,0.8-0.5,1.6s0.5,1.6-0.5,1.6 M50.9,529.1h1.8 M50.8,531.2h1.9"/>
	</g>
	<g>
		<path fill="none" d="M52.9,531.8l1.9-0.1l-0.2-3.2l-1.8,0.1L52.9,531.8z"/>
		<path fill="none" stroke="#7F8083" stroke-width="0.29" d="M54.8,531.7c-1,0-0.7-0.8-0.5-1.6s0.4-1.6-0.7-1.6
			c-1,0-0.7,0.8-0.4,1.6c0.3,0.8,0.6,1.6-0.4,1.6 M52.8,529.1l1.8-0.1 M52.8,531.2l1.9-0.1"/>
	</g>
	<g>
		<path fill="none" d="M54.9,531.7c0.6,0,1.3-0.1,1.9-0.2l-0.3-3.2c-0.6,0-1.2,0.1-1.8,0.1L54.9,531.7L54.9,531.7z"/>
		<path fill="none" stroke="#7F8083" stroke-width="0.29" d="M56.9,531.6c-1.9,0.2,0.9-3.3-1.3-3.1c-1,0.1-0.7,0.8-0.4,1.6
			c0.3,0.8,0.6,1.6-0.4,1.6 M54.7,529c0.6,0,1.2-0.1,1.8-0.1 M54.8,531.1c0.6,0,1.3-0.1,1.9-0.2"/>
	</g>
	<g>
		<path fill="none" d="M56.9,531.6c0.6-0.1,1.3-0.1,1.9-0.2l-0.4-3.2c-0.6,0.1-1.2,0.1-1.8,0.2L56.9,531.6z"/>
		<path fill="none" stroke="#7F8083" stroke-width="0.29" d="M58.9,531.4c-1.9,0.3,0.8-3.4-1.4-3.1c-2,0.2,1.3,3.1-0.6,3.3
			 M56.7,528.8c0.6-0.1,1.2-0.1,1.8-0.2 M56.9,530.9c0.6-0.1,1.3-0.1,1.9-0.2"/>
	</g>
	<g>
		<path fill="none" d="M59,531.3l1.9-0.2l-0.5-3.2l-1.8,0.2L59,531.3z"/>
		<path fill="none" stroke="#7F8083" stroke-width="0.29" d="M60.9,531.1c-1.9,0.3,0.7-3.4-1.5-3.1c-2,0.3,1.4,3.1-0.5,3.3
			 M58.6,528.6l1.9-0.3 M58.9,530.7l1.9-0.2"/>
	</g>
	<g>
		<path fill="none" d="M61,531.1l1.9-0.4l-0.6-3.2l-1.8,0.4L61,531.1z"/>
		<path fill="none" stroke="#7F8083" stroke-width="0.29" d="M62.9,530.7c-1.9,0.3,0.6-3.4-1.6-3c-1.9,0.3,1.5,3-0.4,3.3
			 M60.6,528.3l1.8-0.3 M60.9,530.4l1.9-0.3"/>
	</g>
	<g>
		<path fill="none" d="M63,530.7c0.6-0.1,1.3-0.2,1.9-0.4l-0.7-3.2c-0.6,0.1-1.2,0.3-1.8,0.4L63,530.7z"/>
		<path fill="none" stroke="#7F8083" stroke-width="0.29" d="M64.9,530.3c-1.9,0.4,0.5-3.4-1.7-3c-1.9,0.3,1.6,3-0.3,3.3 M62.5,528
			c0.6-0.1,1.2-0.2,1.8-0.4 M62.9,530.1c0.6-0.1,1.3-0.2,1.9-0.4"/>
	</g>
	<g>
		<path fill="none" d="M65,530.3l1.9-0.4l-0.8-3.2l-1.8,0.4L65,530.3z"/>
		<path fill="none" stroke="#7F8083" stroke-width="0.29" d="M66.9,529.9c-1.9,0.4,0.4-3.4-1.7-2.9c-1.9,0.4,1.7,2.9-0.2,3.4
			 M64.4,527.6l1.8-0.4 M64.8,529.7l1.9-0.4"/>
	</g>
	<g>
		<path fill="none" d="M67,529.9c0.6-0.1,1.2-0.3,1.8-0.5l-0.8-3.1c-0.6,0.2-1.2,0.3-1.8,0.5L67,529.9z"/>
		<path fill="none" stroke="#7F8083" stroke-width="0.29" d="M68.9,529.4c-1.9,0.5,0.3-3.4-1.8-2.9c-1.9,0.5,1.7,2.9-0.2,3.4
			 M66.4,527.2c0.6-0.1,1.2-0.3,1.8-0.5 M66.8,529.3c0.6-0.1,1.2-0.3,1.9-0.5"/>
	</g>
	<g>
		<path fill="none" d="M69,529.3l1.8-0.5l-0.9-3.1l-1.8,0.5L69,529.3z"/>
		<path fill="none" stroke="#7F8083" stroke-width="0.29" d="M70.9,528.8c-1.9,0.5,0.2-3.4-1.9-2.8c-1.9,0.5,1.8,2.8-0.1,3.4
			 M68.3,526.7l1.7-0.5 M68.8,528.7l1.8-0.5"/>
	</g>
</g>
<g>
	<g>
		<path fill="none" d="M178.8,528.1c-0.5,0.2-1.1,0.3-1.7,0.5l0.7,3.2c0.7-0.2,1.3-0.3,2-0.6L178.8,528.1L178.8,528.1z"/>
		<path fill="none" stroke="#7F8083" stroke-width="0.29" d="M177.1,528.5c0.9-0.2,0.8,0.6,0.8,1.5c-0.1,0.8-0.1,1.7,1,1.4
			s0.6-1,0.1-1.7s-0.9-1.4-0.1-1.7 M179.7,530.7c-0.7,0.2-1.3,0.4-2,0.5 M179,528.7c-0.5,0.2-1.2,0.3-1.8,0.5"/>
	</g>
	<g>
		<path fill="none" d="M177,528.5l-1.8,0.3l0.5,3.2c0.7-0.1,1.3-0.2,2-0.4L177,528.5z"/>
		<path fill="none" stroke="#7F8083" stroke-width="0.29" d="M175.2,528.9c0.9-0.1,0.8,0.7,0.7,1.5c-0.1,0.8-0.2,1.7,0.9,1.5
			s0.6-0.9,0.2-1.7c-0.4-0.7-0.8-1.5,0.1-1.7 M177.6,531.2c-0.6,0.1-1.3,0.3-1.9,0.4 M177.2,529.2l-1.8,0.3"/>
	</g>
	<g>
		<path fill="none" d="M175.1,528.9c-0.6,0.1-1.2,0.2-1.8,0.2l0.3,3.2c0.7-0.1,1.3-0.1,2-0.3L175.1,528.9L175.1,528.9z"/>
		<path fill="none" stroke="#7F8083" stroke-width="0.29" d="M173.2,529.1c0.9-0.1,0.7,0.7,0.6,1.6c-0.2,0.8-0.3,1.7,0.8,1.5
			c1.1-0.1,0.7-0.9,0.3-1.7c-0.4-0.8-0.7-1.5,0.2-1.7 M175.5,531.6c-0.6,0.1-1.3,0.2-1.9,0.2 M175.2,529.5c-0.6,0.1-1.2,0.2-1.9,0.2
			"/>
	</g>
	<g>
		<path fill="none" d="M173.2,529.1l-1.8,0.2l0.1,3.2l2-0.1L173.2,529.1z"/>
		<path fill="none" stroke="#7F8083" stroke-width="0.29" d="M171.3,529.3c0.9-0.1,0.7,0.8,0.5,1.6s-0.4,1.7,0.8,1.6
			c1-0.1,0.7-0.9,0.4-1.6c-0.3-0.8-0.6-1.6,0.3-1.6 M173.5,531.9l-2,0.1 M173.3,529.8l-1.9,0.1"/>
	</g>
	<g>
		<path fill="none" d="M171.2,529.3h-1.8l0.1,3.3l1.9-0.1L171.2,529.3z"/>
		<path fill="none" stroke="#7F8083" stroke-width="0.29" d="M169.4,529.3c0.9,0,0.7,0.8,0.4,1.6c-0.2,0.8-0.5,1.6,0.7,1.6
			c1,0,0.7-0.8,0.4-1.6c-0.3-0.8-0.6-1.6,0.4-1.6 M171.4,532l-1.9,0.1 M171.3,529.9l-1.9,0.1"/>
	</g>
	<g>
		<path fill="none" d="M169.3,529.3h-1.8l-0.1,3.3h1.9V529.3z"/>
		<path fill="none" stroke="#7F8083" stroke-width="0.29" d="M167.4,529.3c0.9,0,0.6,0.8,0.4,1.6c-0.3,0.8-0.5,1.6,0.6,1.6
			c1,0,0.8-0.8,0.5-1.6s-0.5-1.6,0.4-1.6 M169.3,532.1h-1.9 M169.3,530h-1.9"/>
	</g>
	<g>
		<path fill="none" d="M167.3,529.3l-1.8-0.1l-0.2,3.3l2,0.1V529.3z"/>
		<path fill="none" stroke="#7F8083" stroke-width="0.29" d="M165.4,529.2c0.9,0,0.6,0.8,0.3,1.6s-0.6,1.6,0.6,1.6
			c1,0,0.8-0.8,0.6-1.6c-0.2-0.8-0.4-1.6,0.5-1.6 M167.3,532.1l-2-0.1 M167.4,530l-1.9-0.1"/>
	</g>
	<g>
		<path fill="none" d="M165.4,529.2c-0.6,0-1.2-0.1-1.8-0.1l-0.3,3.2c0.6,0.1,1.3,0.1,1.9,0.2L165.4,529.2L165.4,529.2z"/>
		<path fill="none" stroke="#7F8083" stroke-width="0.29" d="M163.5,529.1c1.9,0.2-1.5,3.1,0.8,3.3c1,0.1,0.8-0.8,0.6-1.6
			c-0.2-0.8-0.4-1.6,0.6-1.6 M165.2,532c-0.6,0-1.3-0.1-1.9-0.2 M165.4,529.9c-0.6,0-1.3-0.1-1.9-0.2"/>
	</g>
	<g>
		<path fill="none" d="M163.4,529.1c-0.6-0.1-1.2-0.1-1.8-0.2l-0.4,3.2c0.6,0.1,1.3,0.2,1.9,0.2L163.4,529.1z"/>
		<path fill="none" stroke="#7F8083" stroke-width="0.29" d="M161.5,528.9c1.9,0.3-1.6,3.1,0.7,3.4c2,0.2-0.6-3.3,1.3-3.1
			 M163.2,531.8c-0.6-0.1-1.3-0.1-1.9-0.2 M163.4,529.7c-0.6-0.1-1.3-0.1-1.9-0.2"/>
	</g>
	<g>
		<path fill="none" d="M161.5,528.9l-1.9-0.3l-0.5,3.2l2,0.3L161.5,528.9z"/>
		<path fill="none" stroke="#7F8083" stroke-width="0.29" d="M159.6,528.6c1.9,0.3-1.7,3,0.6,3.3c2,0.3-0.5-3.3,1.4-3.1
			 M161.1,531.6l-1.9-0.2 M161.4,529.5l-1.9-0.3"/>
	</g>
	<g>
		<path fill="none" d="M159.5,528.6l-1.8-0.3l-0.6,3.2l1.9,0.3L159.5,528.6z"/>
		<path fill="none" stroke="#7F8083" stroke-width="0.29" d="M157.6,528.3c1.9,0.3-1.8,3,0.5,3.4c2,0.4-0.4-3.3,1.5-3 M159.1,531.3
			l-1.9-0.3 M159.5,529.2l-1.9-0.3"/>
	</g>
	<g>
		<path fill="none" d="M157.6,528.3c-0.6-0.1-1.2-0.2-1.8-0.4l-0.7,3.2c0.6,0.2,1.3,0.3,1.9,0.4L157.6,528.3z"/>
		<path fill="none" stroke="#7F8083" stroke-width="0.29" d="M155.7,527.9c1.9,0.4-1.8,2.9,0.4,3.4c2,0.4-0.4-3.3,1.6-3 M157.1,531
			c-0.6-0.1-1.3-0.2-1.9-0.4 M157.5,528.9c-0.6-0.1-1.2-0.2-1.9-0.4"/>
	</g>
	<g>
		<path fill="none" d="M155.7,527.9l-1.9-0.4l-0.7,3.1l1.9,0.4L155.7,527.9z"/>
		<path fill="none" stroke="#7F8083" stroke-width="0.29" d="M153.8,527.4c1.9,0.4-1.9,2.9,0.3,3.4c2,0.4-0.3-3.4,1.6-2.9
			 M155.1,530.6l-1.9-0.4 M155.6,528.5l-1.9-0.4"/>
	</g>
	<g>
		<path fill="none" d="M153.7,527.4c-0.6-0.1-1.2-0.3-1.8-0.5l-0.8,3.1c0.6,0.2,1.2,0.4,1.9,0.5L153.7,527.4L153.7,527.4z"/>
		<path fill="none" stroke="#7F8083" stroke-width="0.29" d="M151.9,526.9c1.8,0.5-2,2.8,0.2,3.4c2,0.5-0.2-3.4,1.7-2.9
			 M153.1,530.1c-0.6-0.1-1.2-0.3-1.8-0.5 M153.6,528.1c-0.6-0.1-1.2-0.3-1.8-0.5"/>
	</g>
	<g>
		<path fill="none" d="M151.8,526.9l-1.8-0.5l-0.9,3.2l1.9,0.5L151.8,526.9z"/>
		<path fill="none" stroke="#7F8083" stroke-width="0.29" d="M150,526.4c1.8,0.5-2.1,2.8,0.1,3.4c2,0.5-0.1-3.4,1.8-2.8
			 M151.1,529.6l-1.9-0.5 M151.7,527.6l-1.8-0.5"/>
	</g>
</g>
</svg>
