<?xml version="1.0" encoding="utf-8"?>
<!-- Generator: Adobe Illustrator 25.0.0, SVG Export Plug-In . SVG Version: 6.00 Build 0)  -->
<svg version="1.1" id="Layer_1" xmlns="http://www.w3.org/2000/svg" xmlns:xlink="http://www.w3.org/1999/xlink" x="0px" y="0px"
	 viewBox="0 0 223 564" enable-background="new 0 0 223 564" xml:space="preserve">
<path fill="#0083CA" d="M116.6,178.7c2,1.9,3.4,6.2,4.3,10.8c1.4,6.9,3.6,13.6,5.5,32.8c4.4,29.9,7.8,51.1,8.8,83.6
	c0.4,13.8-0.9,36.3,0.1,43.8c1.7,12.9,2.9,21.4,4.3,28c2,9.5,1.6,7,2.7,12.9c1.6,8.4,1.2,7.6,0.8,31.4c0,0,0.3,13.4,0.7,25.8
	c0.3,12.3,7.1,54.7,7.7,104.4c3.6,1.3,8.5,3.3,12.4,3.6c12.9,1.1,16.2-1.1,16.2-1.1s18.1-103.5,18.1-125.2c0-30.4-5.1-48-4.9-59.9
	c0.3-23.9,0.9-38.4,1.3-41.3c1.3-12.3,7.1-50.8,12.1-80.3c7.5-45,8.6-47.1,9.7-74.7c1.6-40.8-6.5-72.9-7.7-78
	c-1.1-4.6-4.8-17.4-6.1-23.4c-0.7-3.4-12.1-48.1-14.6-48c-21.4,1.1-32.6-0.3-73.2,0.3h-5.4c-40.6-0.5-51.9,1.3-73.3,0.1
	c-2.4-0.1-13.8,44.2-14.5,47.6c-1.2,6-4.9,18.8-6.1,23.4c-1.2,5-9.3,37.2-7.7,78C8.9,200.9,10,203,17.5,248
	c4.9,29.5,10.7,68.1,12.1,80.3c0.3,2.9,1,17.4,1.3,41.3c0.1,12-4.9,29.6-4.9,59.9c0,21.8,18.1,125.2,18.1,125.2s3.3,2.2,16.2,1.1
	c3.9-0.3,8.7-2.3,12.4-3.6c0.5-49.7,7.3-92.1,7.7-104.4c0.3-12.4,0.7-25.8,0.7-25.8c-0.3-23.8-0.7-23.1,0.8-31.4
	c1.1-5.9,0.7-3.4,2.7-12.9c1.4-6.5,2.6-15.1,4.3-28c1-7.5-0.3-30,0.1-43.8c1-32.5,4.4-53.7,8.8-83.6c1.9-19.1,5.6-30,7-37
	c0.9-4.6,1.4-8.5,4.5-9.3h5.9L116.6,178.7L116.6,178.7z"/>
<path fill="#6D6E71" d="M114.6,179.5c3.7,3.9,4.1,10.4,5.2,15.4c1,4.6,2,9.1,2.7,13.7c1.2,7.8,2,15.7,3.1,23.6
	c1.1,7.5,2.2,15.1,3.2,22.6c2.1,15.8,3.5,31.6,4.1,47.5c0.5,13.4-0.2,26.8-0.1,40.1c0.1,6,0.9,11.8,1.7,17.7c0.8,6,1.7,12.1,3,18
	c1.4,6.6,3.3,13.3,3.7,20c0.6,8.8-0.3,17.6-0.1,26.4c0.3,10.7,0.2,21.5,1.2,32.2c2.7,27.5,5.8,54.8,6.7,82.5l0.3,13.5
	c0.1,0.2,0.2,0.3,0.4,0.4c3.8,1.4,7.6,2.9,11.5,3.6c3.6,0.6,7.4,0.6,11.1,0.4c2.7-0.1,6.5-0.3,8.9-1.9c1.1-0.7,1-1.6,1.2-2.8
	c0.4-2.3,0.8-4.5,1.2-6.8c3.2-18.8,6.3-37.6,9.2-56.4c2.8-18.5,6.1-37.1,7.2-55.8c0.8-12.9-0.5-26.1-2.1-38.9
	c-0.7-5.7-1.6-11.3-2.2-17c-0.7-6.1-0.5-12.2-0.4-18.4c0.2-10.3,0.1-20.8,1.1-31.1c1.2-11.8,3.2-23.6,4.9-35.3
	c4.4-29.1,9.9-58,14.1-87.1c3.6-24.5,3.9-49.8,1.3-74.4c-1.2-11-2.9-22-5.4-32.8c-2.1-9.2-4.9-18.1-7-27.3
	c-1.7-7.3-3.7-14.6-5.7-21.9c-1.3-4.9-2.7-9.7-4.2-14.5c-1-3.3-2-6.7-3.5-9.8c-0.3-0.7-0.7-1.5-1.4-1.9c-1.5-0.7-4.6,0-6.3,0.1
	c-4.7,0.2-9.4,0.2-14.2,0.2c-11.8,0-23.6-0.3-35.4-0.3c-26.2,0-52.3,0.3-78.5,0.6c-4.8,0.1-9.5,0-14.3-0.2c-3.3-0.1-6.6-0.9-8.3,2.5
	c-1.5,3-2.5,6.4-3.5,9.6c-1.5,4.8-2.9,9.6-4.2,14.5c-2,7.3-4,14.5-5.7,21.9C17,81,14.2,90,12.1,99.1c-6.2,26.6-7.9,54-6.6,81.3
	c1,21.6,5.2,42.8,8.7,64.1c2.8,16.3,5.4,32.7,7.8,49.1c1.8,11.7,3.7,23.5,4.9,35.3c1,10.1,0.9,20.3,1.1,30.5
	c0.1,6.4,0.3,12.7-0.3,19c-0.6,5.7-1.5,11.3-2.2,17c-1.6,12.8-2.9,26-2.1,38.9c0.5,8,1.5,16,2.6,23.9c2.8,21.4,6.2,42.7,9.8,63.9
	c1.3,8.1,2.7,16.2,4.1,24.3c0.4,2.3,0.8,4.5,1.2,6.8c0.2,0.9,0.1,1.8,0.8,2.4c1.9,1.6,6.3,1.4,8.5,1.4c3.8,0.1,7.7,0,11.4-0.7
	c3.8-0.8,7.4-2.2,11-3.5c0.6-0.2,1.3-0.6,1.3-1.3c0.4-30.5,3.3-60.7,6.6-91c1.1-10.4,1.3-20.8,1.6-31.3c0.2-10-0.3-19.9-0.1-29.9
	c0.1-6,1.6-11.9,2.9-17.7c1.3-5.9,2.4-11.9,3.3-17.9c0.9-6.4,2.1-12.8,2.3-19.3c0.4-13.1-0.6-26.2-0.2-39.2
	c0.5-16.6,1.9-33.2,4-49.7c1-7.8,2.1-15.6,3.3-23.4c1.2-8.2,2-16.4,3.5-24.6c1-5.8,2.4-11.5,3.8-17.3c0.5-2.1,1-4.2,1.4-6.3
	c0.3-1.6,0.6-3.3,1.2-4.9c0.1-0.3,1.2-2.2,1.2-2.2s-1.7,0-0.4,0.1c1.7,0.1,3.5,0,5.2,0c-0.4-0.1-0.7-0.2-1.1-0.3
	C113.5,177.7,114.1,178.6,114.6,179.5c0.7,1,4.8-0.3,4-1.6c-0.9-1.4-1.3-2.8-3-2.9c-1.8-0.1-3.8-0.1-5.6,0
	c-6.5,0.4-6.8,7.5-7.9,12.5c-1.2,5.2-2.6,10.3-3.7,15.5c-1.7,8.4-2.5,16.9-3.8,25.3c-4.7,32.1-8.5,64-7.9,96.5
	c0.1,6.8,0.3,13.6,0.2,20.4c-0.2,7-1.5,13.9-2.5,20.8c-1.4,9.4-3.9,18.6-5.4,28c-1.3,8.4-0.5,17.2-0.3,25.6
	c0.2,11.2,0,22.6-0.9,33.8c-1,11.4-2.4,22.7-3.5,34.1c-1.7,16.9-2.9,33.9-3.5,50.8c-0.2,4.8-0.3,9.6-0.3,14.5l1.3-1.3
	c-4,1.4-7.9,3.1-12.2,3.4c-3.3,0.3-6.8,0.4-10.1-0.1c-1.1-0.2-2.4-0.3-3.4-0.8c-0.3-0.2,0.2,0.5,0.1-0.1c-0.6-4.1-1.4-8.2-2.1-12.2
	c-3.2-18.7-6.3-37.4-9.1-56.1c-2.7-17.4-5.7-35-6.7-52.6c-0.8-12.9,0.6-26,2.2-38.8c0.7-5.4,1.5-10.7,2.1-16
	c0.6-5.4,0.5-10.7,0.5-16.1c-0.2-11-0.2-22.2-1.1-33.2c-0.8-9.9-2.6-19.8-4-29.6c-4.3-29.2-9.5-58.3-14.2-87.5
	c-3.5-21.9-4.7-44.3-3.4-66.5c1.2-21.1,5-41.4,10.5-61.7C25.4,67.1,29,50.3,34.2,34c0.6-1.8,1.1-3.5,1.8-5.2
	c0.4-1.2,1.2-2.4,1.5-3.5c0.1-0.6,0.9-0.9-0.7,0c-1.4,0.8-0.4,0.4,0.5,0.4c0.7,0,1.4,0.1,2.1,0.1c2.3,0.1,4.6,0.1,6.9,0.2
	c9.8,0.1,19.5-0.3,29.3-0.4c12.8-0.2,25.6,0,38.4-0.1c13.9-0.1,27.8-0.1,41.6,0.1c9.3,0.1,18.6,0.2,27.8-0.1c0.7,0,2.8-0.4,3.2-0.2
	c-0.4-0.2,0,0.1,0.2,0.4c0.6,1,1,2.1,1.4,3.2c1.4,3.7,2.5,7.5,3.7,11.3c5.1,17.2,9.1,34.7,13.8,52.1c5.7,21.1,8.4,43,8.8,64.8
	c0.5,21-1.4,41.7-4.9,62.3c-5,29.8-10,59.6-14.4,89.5c-1.2,8.1-2.5,16.3-3,24.5c-0.7,12.7-1.2,25.6-1,38.3
	c0.2,10.7,2.5,21.3,3.6,31.9c1.1,11.2,1.9,22.7,1,34c-1.5,18.6-4.6,37-7.4,55.4c-2.8,17.8-5.7,35.7-8.8,53.5c-0.5,2.9-1,5.9-1.5,8.8
	c0.3-0.3,0.6-0.5,0.8-0.8c-0.2,0.1,0.4,0,0,0c0.1,0-0.7,0.2-1.2,0.3c-2.8,0.6-5.7,0.5-8.5,0.4c-4.8-0.2-9-1.3-13.5-2.9
	c-1.3-0.5-1.7-0.5-1.9-2c-0.1-1.2,0-2.5-0.1-3.7c0-2.4-0.1-4.8-0.2-7.2c-0.6-17.6-1.8-35.1-3.5-52.6c-1.1-11.4-2.6-22.8-3.6-34.3
	s-1.1-23.3-0.9-34.8c0.1-8.3,0.9-16.9-0.5-25.1c-1.7-9.9-4.1-19.6-5.6-29.6c-1-6.7-2.1-13.4-2.2-20.2c-0.1-7,0.1-13.9,0.2-20.9
	c0.3-16.6-0.5-33.2-2.1-49.7c-1.6-16.7-4.4-33.2-6.6-49.8c-1.6-11.8-3.2-23.5-6-35.1c-0.8-3.2-1.7-6.7-4-9.2
	C117.7,176.9,113.7,178.4,114.6,179.5L114.6,179.5z"/>
<path fill="none" stroke="#6D6E71" stroke-width="0.725" stroke-miterlimit="10" stroke-dasharray="3.6896,1.8441,3.6882,1.8441" d="
	M47.3,27.9c0,0,116.7,1.3,132.3-0.5 M185.6,25.3c-19.8,1.6-147.1,0-147.1,0"/>
<path fill="none" stroke="#6D6E71" stroke-width="1.46" stroke-miterlimit="10" d="M189.4,24.7c-82.3,23.9-154.8,0.5-154.8,0.5"/>
<path fill="#6D6E71" d="M109.8,170.1l7.5-2.4l12-3.9c0.9-0.3,1.8-0.6,2.8-0.9c0.3-0.1,2.6-1.4,2.5-1.5c-0.5-1.7-3.2-1-4.3-0.8
	c-3.1,0.7-6.1,2-9,3.3c-3.6,1.5-7.2,3.1-10.8,4.6c-3.6,1.5-7.3,2.6-10.7,4.5c-3.3,1.8-6.5,3.8-9.4,6.2c0.3-0.3,0.9-0.5,1.3-0.7
	s0.9-0.4,1.3-0.7c0.6-0.5,1.2-1,1.9-1.5s1.5-1.1,2.2-1.6c0.4-0.3,0.8-0.5,1.2-0.7c0.1-0.1,0.2-0.1,0.3-0.2c0.7-0.5-0.9,0.5-0.8,0.5
	c0.3-0.1,0.6-0.3,0.8-0.4c1.7-0.9,3.5-1.5,5.3-2.1c1.7-0.6,3.3-1.3,4.9-2c3.4-1.4,6.7-2.9,10.1-4.3c2.8-1.2,5.6-2.4,8.6-3.1
	c1.2-0.3,4.2-1.1,4.7,0.7c0.8-0.5,1.7-1,2.5-1.5l-7.5,2.4l-12,3.9c-0.9,0.3-1.8,0.6-2.8,0.9c-0.4,0.1-0.9,0.5-1.3,0.7
	C110.6,169.6,110.2,170,109.8,170.1L109.8,170.1z"/>
<path fill="none" stroke="#6D6E71" stroke-width="2" stroke-miterlimit="10" d="M112,82.5l-0.3,85.2"/>
<g>
	<path fill="none" d="M187.7,26.7l3.2-0.9l0.5,1.8l-3.2,0.9L187.7,26.7z"/>
	<path fill="none" stroke="#7F8083" stroke-width="0.29" d="M188.2,28.6c-0.5-1.9,3.4,0.3,2.8-1.9c-0.6-2-2.8,1.8-3.4-0.1 M190.4,26
		l0.5,1.8 M188.3,26.5l0.5,1.9"/>
</g>
<g>
	<path fill="none" d="M188.3,28.7l3.2-0.9l0.5,1.8l-3.2,0.9L188.3,28.7z"/>
	<path fill="none" stroke="#7F8083" stroke-width="0.29" d="M188.8,30.6c-0.5-1.9,3.4,0.3,2.8-1.9c-0.6-2-2.8,1.8-3.4-0.1
		 M190.9,27.9l0.5,1.8 M188.9,28.5l0.5,1.8"/>
</g>
<g>
	<path fill="none" d="M188.8,30.6l3.2-0.9l0.5,1.8l-3.2,0.9L188.8,30.6z"/>
	<path fill="none" stroke="#7F8083" stroke-width="0.29" d="M189.3,32.5c-0.5-1.9,3.4,0.3,2.8-1.9c-0.5-2-2.8,1.8-3.4-0.1
		 M191.5,29.9l0.5,1.8 M189.4,30.4l0.5,1.9"/>
</g>
<g>
	<path fill="none" d="M189.4,32.6l3.2-0.9l0.5,1.8l-3.2,0.9L189.4,32.6z"/>
	<path fill="none" stroke="#7F8083" stroke-width="0.29" d="M189.9,34.5c-0.5-1.9,3.4,0.3,2.8-1.9c-0.5-2-2.8,1.8-3.4-0.1 M192,31.8
		l0.5,1.8 M190,32.4l0.5,1.8"/>
</g>
<g>
	<path fill="none" d="M189.9,34.5l3.2-0.9l0.5,1.8l-3.2,0.9L189.9,34.5z"/>
	<path fill="none" stroke="#7F8083" stroke-width="0.29" d="M190.4,36.4c-0.5-1.9,3.4,0.3,2.8-1.9c-0.5-2-2.8,1.8-3.4-0.1
		 M192.6,33.8l0.5,1.8 M190.5,34.3l0.5,1.9"/>
</g>
<g>
	<path fill="none" d="M190.4,36.5l3.2-0.9l0.5,1.8l-3.2,0.9L190.4,36.5z"/>
	<path fill="none" stroke="#7F8083" stroke-width="0.29" d="M191,38.3c-0.5-1.9,3.4,0.3,2.8-1.9c-0.5-2-2.8,1.8-3.4-0.1 M193.1,35.7
		l0.5,1.8 M191.1,36.3l0.5,1.8"/>
</g>
<g>
	<path fill="none" d="M191,38.3l3.2-0.9l0.5,1.8l-3.2,0.9L191,38.3z"/>
	<path fill="none" stroke="#7F8083" stroke-width="0.29" d="M191.5,40.3c-0.5-1.9,3.4,0.3,2.8-1.9c-0.5-2-2.8,1.8-3.4-0.1
		 M193.7,37.7l0.5,1.8 M191.6,38.2l0.5,1.9"/>
</g>
<g>
	<path fill="none" d="M191.5,40.4l3.2-0.9l0.5,1.8l-3.2,0.9L191.5,40.4z"/>
	<path fill="none" stroke="#7F8083" stroke-width="0.29" d="M192,42.3c-0.5-1.9,3.4,0.3,2.8-1.9c-0.5-2-2.8,1.8-3.4-0.1 M194.2,39.6
		l0.5,1.9 M192.1,40.2l0.5,1.8"/>
</g>
<g>
	<path fill="none" d="M192.1,42.3l3.2-0.9l0.5,1.8l-3.2,0.9L192.1,42.3z"/>
	<path fill="none" stroke="#7F8083" stroke-width="0.29" d="M192.6,44.2c-0.5-1.9,3.4,0.3,2.9-1.9c-0.5-2-2.8,1.8-3.4-0.1
		 M194.7,41.6l0.5,1.8 M192.7,42.1l0.5,1.9"/>
</g>
<g>
	<path fill="none" d="M192.6,44.2l3.2-0.9l0.5,1.8l-3.2,0.9L192.6,44.2z"/>
	<path fill="none" stroke="#7F8083" stroke-width="0.29" d="M193.1,46.2c-0.5-1.9,3.4,0.3,2.9-1.9c-0.5-2-2.8,1.8-3.4-0.1
		 M195.3,43.5l0.5,1.9 M193.2,44.1l0.5,1.8"/>
</g>
<g>
	<path fill="none" d="M193.1,46.2l3.2-0.9l0.5,1.8l-3.2,0.9L193.1,46.2z"/>
	<path fill="none" stroke="#7F8083" stroke-width="0.29" d="M193.6,48.1c-0.5-1.9,3.4,0.3,2.9-1.9c-0.5-2-2.8,1.8-3.4-0.1
		 M195.8,45.5l0.5,1.8 M193.7,46l0.5,1.9"/>
</g>
<g>
	<path fill="none" d="M193.6,48.2l3.2-0.9l0.5,1.8l-3.2,0.9L193.6,48.2z"/>
	<path fill="none" stroke="#7F8083" stroke-width="0.29" d="M194.2,50.1c-0.5-1.9,3.4,0.3,2.9-1.8c-0.5-2-2.9,1.8-3.4-0.1
		 M196.3,47.5l0.5,1.8 M194.3,48l0.5,1.8"/>
</g>
<g>
	<path fill="none" d="M194.2,50.1l3.2-0.9l0.5,1.8l-3.2,0.9L194.2,50.1z"/>
	<path fill="none" stroke="#7F8083" stroke-width="0.29" d="M194.7,52c-0.5-1.9,3.4,0.3,2.9-1.8c-0.5-2-2.9,1.8-3.4-0.1 M196.9,49.4
		l0.4,1.8 M194.8,49.9l0.5,1.9"/>
</g>
<g>
	<path fill="none" d="M194.7,52.1l3.2-0.8l0.5,1.8l-3.2,0.8L194.7,52.1z"/>
	<path fill="none" stroke="#7F8083" stroke-width="0.29" d="M195.2,54c-0.5-1.9,3.4,0.3,2.9-1.8c-0.5-2-2.9,1.8-3.4-0.1 M197.4,51.4
		l0.5,1.8 M195.3,51.9l0.5,1.8"/>
</g>
<g>
	<path fill="none" d="M195.2,54l0.5,1.9l3.1-0.9l-0.4-1.8L195.2,54z"/>
	<path fill="none" stroke="#7F8083" stroke-width="0.29" d="M195.7,55.9c-0.5-1.9,3.4,0.3,2.9-1.8c-0.5-2-2.9,1.8-3.4-0.1
		 M197.9,53.3l0.5,1.9 M195.8,53.8l0.5,1.9"/>
</g>
<g>
	<path fill="none" d="M195.7,56l0.5,1.8l3.1-0.8l-0.4-1.8L195.7,56z"/>
	<path fill="none" stroke="#7F8083" stroke-width="0.29" d="M196.2,57.9c-0.5-1.9,3.4,0.3,2.9-1.8c-0.5-2-2.9,1.8-3.4-0.1
		 M198.4,55.3l0.5,1.8 M196.3,55.8l0.5,1.9"/>
</g>
<g>
	<path fill="none" d="M196.2,57.9l0.5,1.9l3.1-0.8l-0.4-1.9L196.2,57.9z"/>
	<path fill="none" stroke="#7F8083" stroke-width="0.29" d="M196.7,59.8c-0.5-1.9,3.4,0.4,2.9-1.8c-0.5-2-2.9,1.8-3.4-0.2
		 M198.9,57.3l0.5,1.8 M196.8,57.7l0.5,1.9"/>
</g>
<g>
	<path fill="none" d="M196.7,59.9l0.5,1.8l3.1-0.7l-0.4-1.9L196.7,59.9z"/>
	<path fill="none" stroke="#7F8083" stroke-width="0.29" d="M197.2,61.8c-0.5-1.9,3.4,0.4,2.9-1.8c-0.5-2-2.9,1.7-3.4-0.2
		 M199.4,59.2l0.5,1.9 M197.3,59.7l0.5,1.9"/>
</g>
<g>
	<path fill="none" d="M197.2,61.9l0.5,1.8l3.1-0.8l-0.4-1.8L197.2,61.9z"/>
	<path fill="none" stroke="#7F8083" stroke-width="0.29" d="M197.7,63.8c-0.4-1.9,3.4,0.4,2.9-1.8c-0.5-2-2.9,1.7-3.4-0.2
		 M199.9,61.2l0.4,1.9 M197.8,61.7l0.5,1.8"/>
</g>
<g>
	<path fill="none" d="M197.7,63.8l0.4,1.9l3.2-0.8l-0.5-1.8L197.7,63.8z"/>
	<path fill="none" stroke="#7F8083" stroke-width="0.29" d="M198.1,65.7c-0.4-1.9,3.4,0.4,2.9-1.7c-0.5-2-2.9,1.7-3.4-0.2
		 M200.4,63.2l0.4,1.8 M198.3,63.6l0.4,1.9"/>
</g>
<g>
	<path fill="none" d="M198.1,65.8l0.4,1.8l3.2-0.7l-0.4-1.8L198.1,65.8z"/>
	<path fill="none" stroke="#7F8083" stroke-width="0.29" d="M198.5,67.7c-0.4-1.9,3.4,0.5,2.9-1.7c-0.4-2-2.9,1.7-3.4-0.3
		 M200.8,65.2l0.5,1.8 M198.8,65.6l0.4,1.9"/>
</g>
<g>
	<path fill="none" d="M198.6,67.7c0.1,0.6,0.2,1.2,0.4,1.8l3.2-0.5c-0.1-0.7-0.2-1.3-0.4-1.9L198.6,67.7L198.6,67.7z"/>
	<path fill="none" stroke="#7F8083" stroke-width="0.29" d="M198.9,69.6c-0.2-0.9,0.7-0.8,1.5-0.7s1.7,0.2,1.5-0.9
		c-0.4-2-2.9,1.6-3.4-0.3 M201.3,67.2c0.1,0.6,0.3,1.3,0.4,1.9 M199.2,67.6c0.1,0.6,0.2,1.3,0.4,1.9"/>
</g>
<g>
	<path fill="none" d="M198.9,69.7c0.1,0.6,0.2,1.1,0.2,1.7h3.3c-0.1-0.8-0.1-1.6-0.3-2.2L198.9,69.7z"/>
	<path fill="none" stroke="#7F8083" stroke-width="0.29" d="M199.2,71.4c-0.1-0.8,0.7-0.7,1.6-0.4c0.8,0.2,1.7,0.5,1.5-0.9
		c-0.2-1.1-0.9-0.7-1.7-0.3c-0.7,0.4-1.5,0.7-1.7-0.2 M201.7,69.2c0.1,0.6,0.2,1.4,0.3,2.1 M199.6,69.5c0.1,0.6,0.2,1.2,0.2,1.8"/>
</g>
<path opacity="0.37" fill="#FFFFFF" enable-background="new    " d="M36,25.5c0,0,10.5,8,76.4,10.7c0,0,58.8-2.8,73-10.7
	C185.4,25.5,60.7,23.1,36,25.5z"/>
<g>
	<path fill="#6D6E71" d="M140,376.3c1,10.8,3.1,21.5,5.3,32.1c1.4,6.8,2.9,13.6,4.6,20.4c-0.2-0.8,0-1.9,0-2.7c0-0.9,0.2-1.9,0-2.7
		c-3.9-16.4-7.5-33.1-9.6-49.8l-0.3-2.7C140.1,372.6,139.8,374.5,140,376.3L140,376.3z"/>
</g>
<path fill="none" stroke="#6D6E71" stroke-width="2" stroke-miterlimit="10" d="M22.6,70.1c0,0,68.1,29.2,177.9,1.1"/>
<g>
	<g>
		<path fill="none" d="M32.9,28.4l0.5-1.8l3.2,0.9l-0.5,1.8L32.9,28.4z"/>
		<path fill="none" stroke="#7F8083" stroke-width="0.29" d="M32.9,28.5c0.5-1.9,2.8,2,3.4-0.1c0.6-1.9-3.4,0.1-2.8-1.8 M36.1,27.3
			l-0.5,1.9 M34,26.7l-0.5,1.9"/>
	</g>
	<g>
		<path fill="none" d="M32.3,30.3l0.5-1.8l3.2,0.9l-0.5,1.8L32.3,30.3z"/>
		<path fill="none" stroke="#7F8083" stroke-width="0.29" d="M32.3,30.4c0.5-1.9,2.8,2,3.4-0.1c0.6-1.9-3.4,0.1-2.8-1.8 M35.5,29.3
			L35,31.1 M33.5,28.7L33,30.5"/>
	</g>
	<g>
		<path fill="none" d="M31.8,32.3l0.5-1.8l3.2,0.9L35,33.1L31.8,32.3z"/>
		<path fill="none" stroke="#7F8083" stroke-width="0.29" d="M31.8,32.4c0.5-1.9,2.8,2,3.4-0.1c0.5-2-3.4,0.1-2.8-1.8 M35,31.2
			L34.5,33 M32.9,30.6l-0.5,1.9"/>
	</g>
	<g>
		<path fill="none" d="M31.2,34.3l0.5-1.8l3.2,0.9l-0.5,1.8L31.2,34.3z"/>
		<path fill="none" stroke="#7F8083" stroke-width="0.29" d="M31.2,34.3c0.5-1.9,2.8,2,3.4-0.1c0.5-1.9-3.4,0.1-2.8-1.8 M34.4,33.2
			L33.9,35 M32.4,32.6l-0.5,1.8"/>
	</g>
	<g>
		<path fill="none" d="M30.7,36.2l0.5-1.8l3.2,0.9l-0.5,1.8L30.7,36.2z"/>
		<path fill="none" stroke="#7F8083" stroke-width="0.29" d="M30.7,36.3c0.5-1.9,2.8,2,3.4-0.1c0.5-1.9-3.4,0.1-2.8-1.8 M33.9,35.1
			l-0.5,1.8 M31.8,34.5l-0.5,1.9"/>
	</g>
	<g>
		<path fill="none" d="M30.1,38.2l0.5-1.8l3.2,0.9l-0.5,1.8L30.1,38.2z"/>
		<path fill="none" stroke="#7F8083" stroke-width="0.29" d="M30.1,38.2c0.5-1.9,2.8,2,3.4-0.1c0.5-2-3.4,0.1-2.8-1.8 M33.3,37.1
			l-0.5,1.8 M31.3,36.5l-0.5,1.8"/>
	</g>
	<g>
		<path fill="none" d="M29.6,40.1l0.5-1.8l3.2,0.9L32.8,41L29.6,40.1z"/>
		<path fill="none" stroke="#7F8083" stroke-width="0.29" d="M29.6,40.2c0.5-1.9,2.8,2,3.4-0.1c0.5-2-3.4,0.1-2.8-1.8 M32.8,39
			l-0.5,1.8 M30.8,38.4l-0.6,1.9"/>
	</g>
	<g>
		<path fill="none" d="M29,42l0.5-1.8l3.2,0.9l-0.5,1.8L29,42z"/>
		<path fill="none" stroke="#7F8083" stroke-width="0.29" d="M29.1,42.1c0.5-1.9,2.8,2,3.4-0.1c0.5-2-3.4,0.1-2.8-1.8 M32.3,41
			l-0.5,1.8 M30.2,40.4l-0.5,1.8"/>
	</g>
	<g>
		<path fill="none" d="M28.6,44l0.5-1.8l3.2,0.9l-0.5,1.8L28.6,44z"/>
		<path fill="none" stroke="#7F8083" stroke-width="0.29" d="M28.5,44.1c0.5-1.9,2.8,2,3.4-0.2c0.5-2-3.4,0.1-2.8-1.8 M31.7,42.9
			l-0.5,1.8 M29.7,42.3l-0.5,1.9"/>
	</g>
	<g>
		<path fill="none" d="M28.1,46l0.5-1.8l3.2,0.9l-0.5,1.8L28.1,46z"/>
		<path fill="none" stroke="#7F8083" stroke-width="0.29" d="M28,46c0.5-1.9,2.8,2,3.4-0.2c0.5-2-3.4,0.1-2.8-1.8 M31.2,44.9
			l-0.5,1.8 M29.1,44.3l-0.5,1.8"/>
	</g>
	<g>
		<path fill="none" d="M27.5,47.9l0.5-1.8l3.2,0.9l-0.5,1.8L27.5,47.9z"/>
		<path fill="none" stroke="#7F8083" stroke-width="0.29" d="M27.5,48c0.5-1.9,2.8,2,3.4-0.2c0.5-2-3.4,0.1-2.9-1.8 M30.7,46.8
			l-0.5,1.8 M28.6,46.2l-0.5,1.9"/>
	</g>
	<g>
		<path fill="none" d="M27,49.9l0.5-1.8l3.2,0.9l-0.5,1.8L27,49.9z"/>
		<path fill="none" stroke="#7F8083" stroke-width="0.29" d="M26.9,49.9c0.5-1.9,2.8,2,3.4-0.2c0.5-2-3.4,0.1-2.9-1.8 M30.1,48.8
			l-0.5,1.8 M28.1,48.2L27.6,50"/>
	</g>
	<g>
		<path fill="none" d="M26.4,51.8l0.5-1.8l3.2,0.9l-0.5,1.8L26.4,51.8z"/>
		<path fill="none" stroke="#7F8083" stroke-width="0.29" d="M26.4,51.9c0.5-1.9,2.8,2,3.4-0.2c0.5-2-3.4,0.1-2.9-1.8 M29.6,50.7
			l-0.5,1.9 M27.6,50.1L27.1,52"/>
	</g>
	<g>
		<path fill="none" d="M25.9,53.8l0.5-1.8l3.2,0.8l-0.5,1.8L25.9,53.8z"/>
		<path fill="none" stroke="#7F8083" stroke-width="0.29" d="M25.9,53.9c0.5-1.9,2.8,2,3.4-0.2c0.5-2-3.4,0.1-2.9-1.8 M29.1,52.7
			l-0.5,1.8 M27,52.1L26.5,54"/>
	</g>
	<g>
		<path fill="none" d="M25.9,53.9l-0.5,1.9l3.2,0.8l0.4-1.9L25.9,53.9z"/>
		<path fill="none" stroke="#7F8083" stroke-width="0.29" d="M25.4,55.8c0.5-1.9,2.8,2,3.4-0.2c0.5-2-3.4,0.2-2.9-1.8 M28.6,54.6
			l-0.5,1.9 M26.5,54.1L26,55.9"/>
	</g>
	<g>
		<path fill="none" d="M25.4,55.9l-0.5,1.8l3.2,0.8l0.4-1.8L25.4,55.9z"/>
		<path fill="none" stroke="#7F8083" stroke-width="0.29" d="M24.9,57.8c0.5-1.9,2.8,1.9,3.4-0.2c0.5-2-3.4,0.2-2.9-1.8 M28.1,56.6
			l-0.5,1.8 M26,56l-0.5,1.9"/>
	</g>
	<g>
		<path fill="none" d="M24.9,57.9l-0.5,1.8l3.2,0.8l0.4-1.8L24.9,57.9z"/>
		<path fill="none" stroke="#7F8083" stroke-width="0.29" d="M24.4,59.8c0.5-1.9,2.9,1.9,3.4-0.2c0.5-2-3.4,0.2-2.9-1.7 M27.6,58.5
			l-0.5,1.9 M25.5,58L25,59.9"/>
	</g>
	<g>
		<path fill="none" d="M24.4,59.8l-0.5,1.9l3.2,0.7l0.4-1.8L24.4,59.8z"/>
		<path fill="none" stroke="#7F8083" stroke-width="0.29" d="M23.9,61.7c0.5-1.9,2.9,1.9,3.4-0.2c0.5-2-3.4,0.2-2.9-1.7 M27.1,60.5
			l-0.5,1.8 M25,59.9l-0.5,1.9"/>
	</g>
	<g>
		<path fill="none" d="M23.9,61.8l-0.5,1.9l3.2,0.7l0.5-1.8L23.9,61.8z"/>
		<path fill="none" stroke="#7F8083" stroke-width="0.29" d="M23.4,63.7c0.4-1.9,2.9,1.9,3.4-0.3c0.5-2-3.4,0.2-2.9-1.7 M26.6,62.5
			l-0.5,1.8 M24.5,61.9l-0.4,1.9"/>
	</g>
	<g>
		<path fill="none" d="M23.4,63.8L23,65.6l3.1,0.8l0.5-1.9L23.4,63.8z"/>
		<path fill="none" stroke="#7F8083" stroke-width="0.29" d="M23,65.7c0.4-1.9,2.9,1.9,3.4-0.3c0.5-2-3.4,0.2-2.9-1.7 M26.1,64.4
			l-0.4,1.8 M24,63.9l-0.4,1.9"/>
	</g>
	<g>
		<path fill="none" d="M22.9,65.8l-0.4,1.8l3.2,0.7l0.4-1.8L22.9,65.8z"/>
		<path fill="none" stroke="#7F8083" stroke-width="0.29" d="M22.5,67.7c0.4-1.9,2.9,1.8,3.4-0.3c0.4-2-3.4,0.3-2.9-1.7 M25.6,66.4
			l-0.3,1.8 M23.6,65.9l-0.4,1.9"/>
	</g>
	<g>
		<path fill="none" d="M22.5,67.8c-0.1,0.6-0.3,1.3-0.4,1.9l3.2,0.5l0.3-1.8L22.5,67.8L22.5,67.8z"/>
		<path fill="none" stroke="#7F8083" stroke-width="0.29" d="M22.1,69.7c0.2-1,0.9-0.5,1.7-0.1s1.5,0.7,1.7-0.3
			c0.4-1.9-3.4,0.3-3-1.6 M25.2,68.3l-0.3,1.8 M23.1,67.8c-0.1,0.6-0.3,1.3-0.4,1.9"/>
	</g>
	<g>
		<path fill="none" d="M22.1,69.8c-0.1,0.6-0.2,1.4-0.3,2.1h3.3c0.1-0.5,0.1-0.9,0.2-1.6L22.1,69.8z"/>
		<path fill="none" stroke="#7F8083" stroke-width="0.29" d="M21.9,71.9c0.1-1.1,0.9-0.7,1.7-0.4s1.6,0.4,1.7-0.4
			c0.1-0.9-0.7-0.8-1.5-0.7s-1.7,0.3-1.5-0.7 M24.9,70.3c-0.1,0.6-0.2,1.1-0.2,1.6 M22.8,69.9c-0.1,0.6-0.2,1.3-0.3,2"/>
	</g>
</g>
<g>
	<path fill="#6D6E71" d="M84.9,365.2c-1,10.8-3.1,21.5-5.3,32.1c-1.4,6.8-2.9,13.6-4.6,20.4c-0.2,0.8,0,1.9,0,2.7s0.2,1.9,0,2.7
		c3.9-16.4,7.5-33.1,9.6-49.8l0.3-2.7C85,368.9,84.7,367,84.9,365.2L84.9,365.2z"/>
</g>
<path fill="none" stroke="#6D6E71" stroke-miterlimit="10" d="M111.5,167.3c-4,0.6-8.1,4.3-11.5,9.3c-1.7,2.5-6.5,27.2-7.4,35.4
	c-1.4,7.9-2.1,13.7-3.2,22c-4.1,28.8-3.5,62.6-4.3,88.4c0,0,0,19.6-8,72.4c-3.4,22.3,1.8,22.5-4.3,87.8c0,0-4.5,49.9-3.9,69.5"/>
<g>
	<path fill="#6D6E71" d="M139.3,370.7c1,10.8,3.1,21.5,5.3,32.1c1.4,6.8,2.9,13.6,4.6,20.4c-0.2-0.8,0-1.9,0-2.7
		c0-0.9,0.2-1.9,0-2.7c-3.9-16.4-7.5-33.1-9.6-49.8l-0.3-2.7C139.4,367,139.1,368.9,139.3,370.7L139.3,370.7z"/>
</g>
<path fill="none" stroke="#6D6E71" stroke-miterlimit="10" d="M111.8,168.4c4,0.6,8.1,4.3,11.5,9.3c1.7,2.5,6.5,27.2,7.4,35.4
	c1.4,7.9,2.1,13.7,3.2,22c4.1,28.8,3.5,62.6,4.3,88.4c0,0,0,19.6,8,72.4c3.4,22.3-1.8,22.5,4.3,87.8c0,0,4.5,49.9,3.9,69.5"/>
<g>
	<g>
		<path fill="none" d="M42.5,547.4c0.7,0.2,1.3,0.4,2,0.5l0.7-3.2c-0.5-0.1-1.2-0.3-1.6-0.4L42.5,547.4L42.5,547.4z"/>
		<path fill="none" stroke="#7F8083" stroke-width="0.29" d="M44.5,548c-1-0.2-0.5-0.9,0-1.7c0.4-0.7,0.8-1.5-0.2-1.7
			c-0.8-0.2-0.9,0.6-0.9,1.4c0,0.8,0.1,1.7-1,1.4 M43.4,544.8c0.5,0.2,1.1,0.3,1.6,0.4 M42.7,546.8c0.7,0.2,1.3,0.4,1.9,0.5"/>
	</g>
	<g>
		<path fill="none" d="M44.6,548c0.6,0.1,1.3,0.3,1.9,0.4l0.5-3.2c-0.6-0.1-1.2-0.2-1.7-0.3L44.6,548L44.6,548z"/>
		<path fill="none" stroke="#7F8083" stroke-width="0.29" d="M46.6,548.3c-1-0.2-0.5-0.9-0.1-1.7s0.7-1.5-0.3-1.7
			c-0.9-0.2-0.9,0.6-0.8,1.5c0.1,0.8,0.2,1.7-0.8,1.5 M45.2,545.3l1.8,0.3 M44.7,547.4c0.6,0.1,1.3,0.3,1.9,0.4"/>
	</g>
	<g>
		<path fill="none" d="M46.6,548.4c0.6,0.1,1.3,0.2,1.9,0.2l0.3-3.2c-0.6-0.1-1.2-0.1-1.8-0.2L46.6,548.4z"/>
		<path fill="none" stroke="#7F8083" stroke-width="0.29" d="M48.6,548.6c-1-0.1-0.6-0.9-0.2-1.7c0.3-0.8,0.6-1.6-0.4-1.7
			c-0.9-0.1-0.8,0.7-0.7,1.5c0.1,0.8,0.3,1.7-0.7,1.5 M47.1,545.6c0.6,0.1,1.2,0.2,1.8,0.2 M46.7,547.7c0.6,0.1,1.3,0.2,1.9,0.3"/>
	</g>
	<g>
		<path fill="none" d="M48.7,548.6l1.9,0.2l0.2-3.3l-1.8-0.1L48.7,548.6z"/>
		<path fill="none" stroke="#7F8083" stroke-width="0.29" d="M50.7,548.8c-1-0.1-0.6-0.9-0.3-1.6c0.3-0.8,0.6-1.6-0.5-1.7
			c-1-0.1-0.8,0.7-0.6,1.6c0.2,0.8,0.4,1.6-0.6,1.6 M49,545.9l1.8,0.1 M48.7,548l2,0.1"/>
	</g>
	<g>
		<path fill="none" d="M50.8,548.8h1.9v-3.2l-1.8-0.1L50.8,548.8z"/>
		<path fill="none" stroke="#7F8083" stroke-width="0.29" d="M52.7,548.8c-1,0-0.7-0.8-0.4-1.6c0.3-0.8,0.5-1.6-0.6-1.6
			c-1,0-0.8,0.8-0.6,1.6c0.2,0.8,0.5,1.6-0.6,1.6 M50.9,546l1.8,0.1 M50.8,548.1l1.9,0.1"/>
	</g>
	<g>
		<path fill="none" d="M52.8,548.8h1.9v-3.2h-1.8L52.8,548.8z"/>
		<path fill="none" stroke="#7F8083" stroke-width="0.29" d="M54.8,548.8c-1,0-0.7-0.8-0.4-1.6c0.2-0.8,0.4-1.6-0.6-1.6
			s-0.7,0.8-0.5,1.6s0.5,1.6-0.5,1.6 M52.9,546.1h1.8 M52.8,548.2h1.9"/>
	</g>
	<g>
		<path fill="none" d="M54.9,548.8l1.9-0.1l-0.2-3.2l-1.8,0.1L54.9,548.8z"/>
		<path fill="none" stroke="#7F8083" stroke-width="0.29" d="M56.8,548.7c-1,0-0.7-0.8-0.5-1.6s0.4-1.6-0.7-1.6
			c-1,0-0.7,0.8-0.4,1.6c0.3,0.8,0.6,1.6-0.4,1.6 M54.8,546.1l1.8-0.1 M54.8,548.2l1.9-0.1"/>
	</g>
	<g>
		<path fill="none" d="M56.9,548.7c0.6,0,1.3-0.1,1.9-0.2l-0.3-3.2c-0.6,0-1.2,0.1-1.8,0.1L56.9,548.7L56.9,548.7z"/>
		<path fill="none" stroke="#7F8083" stroke-width="0.29" d="M58.9,548.6c-1.9,0.2,0.9-3.3-1.3-3.1c-1,0.1-0.7,0.8-0.4,1.6
			c0.3,0.8,0.6,1.6-0.4,1.6 M56.7,546c0.6,0,1.2-0.1,1.8-0.1 M56.8,548.1c0.6,0,1.3-0.1,1.9-0.2"/>
	</g>
	<g>
		<path fill="none" d="M58.9,548.6c0.6-0.1,1.3-0.1,1.9-0.2l-0.4-3.2c-0.6,0.1-1.2,0.1-1.8,0.2L58.9,548.6z"/>
		<path fill="none" stroke="#7F8083" stroke-width="0.29" d="M60.9,548.4c-1.9,0.3,0.8-3.4-1.4-3.1c-2,0.2,1.3,3.1-0.6,3.3
			 M58.7,545.8c0.6-0.1,1.2-0.1,1.8-0.2 M58.9,547.9c0.6-0.1,1.3-0.1,1.9-0.2"/>
	</g>
	<g>
		<path fill="none" d="M61,548.3l1.9-0.2l-0.5-3.2l-1.8,0.2L61,548.3z"/>
		<path fill="none" stroke="#7F8083" stroke-width="0.29" d="M62.9,548.1c-1.9,0.3,0.7-3.4-1.5-3.1c-2,0.3,1.4,3.1-0.5,3.3
			 M60.6,545.6l1.9-0.3 M60.9,547.7l1.9-0.2"/>
	</g>
	<g>
		<path fill="none" d="M63,548.1l1.9-0.4l-0.6-3.2l-1.8,0.4L63,548.1z"/>
		<path fill="none" stroke="#7F8083" stroke-width="0.29" d="M64.9,547.7c-1.9,0.3,0.6-3.4-1.6-3c-1.9,0.3,1.5,3-0.4,3.3
			 M62.6,545.3l1.8-0.3 M62.9,547.4l1.9-0.3"/>
	</g>
	<g>
		<path fill="none" d="M65,547.7c0.6-0.1,1.3-0.2,1.9-0.4l-0.7-3.2c-0.6,0.1-1.2,0.3-1.8,0.4L65,547.7z"/>
		<path fill="none" stroke="#7F8083" stroke-width="0.29" d="M66.9,547.3c-1.9,0.4,0.5-3.4-1.7-3c-1.9,0.3,1.6,3-0.3,3.3 M64.5,545
			c0.6-0.1,1.2-0.2,1.8-0.4 M64.9,547.1c0.6-0.1,1.3-0.2,1.9-0.4"/>
	</g>
	<g>
		<path fill="none" d="M67,547.3l1.9-0.4l-0.8-3.2l-1.8,0.4L67,547.3z"/>
		<path fill="none" stroke="#7F8083" stroke-width="0.29" d="M68.9,546.9c-1.9,0.4,0.4-3.4-1.7-2.9c-1.9,0.4,1.7,2.9-0.2,3.4
			 M66.4,544.6l1.8-0.4 M66.8,546.7l1.9-0.4"/>
	</g>
	<g>
		<path fill="none" d="M69,546.9c0.6-0.1,1.2-0.3,1.8-0.5l-0.8-3.1c-0.6,0.2-1.2,0.3-1.8,0.5L69,546.9z"/>
		<path fill="none" stroke="#7F8083" stroke-width="0.29" d="M70.9,546.4c-1.9,0.5,0.3-3.4-1.8-2.9c-1.9,0.5,1.7,2.9-0.2,3.4
			 M68.4,544.2c0.6-0.1,1.2-0.3,1.8-0.5 M68.8,546.3c0.6-0.1,1.2-0.3,1.9-0.5"/>
	</g>
	<g>
		<path fill="none" d="M71,546.3l1.8-0.5l-0.9-3.1l-1.8,0.5L71,546.3z"/>
		<path fill="none" stroke="#7F8083" stroke-width="0.29" d="M72.9,545.8c-1.9,0.5,0.2-3.4-1.9-2.8c-1.9,0.5,1.8,2.8-0.1,3.4
			 M70.3,543.7l1.7-0.5 M70.8,545.7l1.8-0.5"/>
	</g>
</g>
<g>
	<g>
		<path fill="none" d="M180.8,545.1c-0.5,0.2-1.1,0.3-1.7,0.5l0.7,3.2c0.7-0.2,1.3-0.3,2-0.6L180.8,545.1L180.8,545.1z"/>
		<path fill="none" stroke="#7F8083" stroke-width="0.29" d="M179.1,545.5c0.9-0.2,0.8,0.6,0.8,1.5c-0.1,0.8-0.1,1.7,1,1.4
			s0.6-1,0.1-1.7s-0.9-1.4-0.1-1.7 M181.7,547.7c-0.7,0.2-1.3,0.4-2,0.5 M181,545.7c-0.5,0.2-1.2,0.3-1.8,0.5"/>
	</g>
	<g>
		<path fill="none" d="M179,545.5l-1.8,0.3l0.5,3.2c0.7-0.1,1.3-0.2,2-0.4L179,545.5z"/>
		<path fill="none" stroke="#7F8083" stroke-width="0.29" d="M177.2,545.9c0.9-0.1,0.8,0.7,0.7,1.5c-0.1,0.8-0.2,1.7,0.9,1.5
			s0.6-0.9,0.2-1.7c-0.4-0.7-0.8-1.5,0.1-1.7 M179.6,548.2c-0.6,0.1-1.3,0.3-1.9,0.4 M179.2,546.2l-1.8,0.3"/>
	</g>
	<g>
		<path fill="none" d="M177.1,545.9c-0.6,0.1-1.2,0.2-1.8,0.2l0.3,3.2c0.7-0.1,1.3-0.1,2-0.3L177.1,545.9L177.1,545.9z"/>
		<path fill="none" stroke="#7F8083" stroke-width="0.29" d="M175.2,546.1c0.9-0.1,0.7,0.7,0.6,1.6c-0.2,0.8-0.3,1.7,0.8,1.5
			c1.1-0.1,0.7-0.9,0.3-1.7c-0.4-0.8-0.7-1.5,0.2-1.7 M177.5,548.6c-0.6,0.1-1.3,0.2-1.9,0.2 M177.2,546.5c-0.6,0.1-1.2,0.2-1.9,0.2
			"/>
	</g>
	<g>
		<path fill="none" d="M175.2,546.1l-1.8,0.2l0.1,3.2l2-0.1L175.2,546.1z"/>
		<path fill="none" stroke="#7F8083" stroke-width="0.29" d="M173.3,546.3c0.9-0.1,0.7,0.8,0.5,1.6s-0.4,1.7,0.8,1.6
			c1-0.1,0.7-0.9,0.4-1.6c-0.3-0.8-0.6-1.6,0.3-1.6 M175.5,548.9l-2,0.1 M175.3,546.8l-1.9,0.1"/>
	</g>
	<g>
		<path fill="none" d="M173.2,546.3h-1.8l0.1,3.3l1.9-0.1L173.2,546.3z"/>
		<path fill="none" stroke="#7F8083" stroke-width="0.29" d="M171.4,546.3c0.9,0,0.7,0.8,0.4,1.6c-0.2,0.8-0.5,1.6,0.7,1.6
			c1,0,0.7-0.8,0.4-1.6c-0.3-0.8-0.6-1.6,0.4-1.6 M173.4,549l-1.9,0.1 M173.3,546.9l-1.9,0.1"/>
	</g>
	<g>
		<path fill="none" d="M171.3,546.3h-1.8l-0.1,3.3h1.9V546.3z"/>
		<path fill="none" stroke="#7F8083" stroke-width="0.29" d="M169.4,546.3c0.9,0,0.6,0.8,0.4,1.6c-0.3,0.8-0.5,1.6,0.6,1.6
			c1,0,0.8-0.8,0.5-1.6s-0.5-1.6,0.4-1.6 M171.3,549.1h-1.9 M171.3,547h-1.9"/>
	</g>
	<g>
		<path fill="none" d="M169.3,546.3l-1.8-0.1l-0.2,3.3l2,0.1V546.3z"/>
		<path fill="none" stroke="#7F8083" stroke-width="0.29" d="M167.4,546.2c0.9,0,0.6,0.8,0.3,1.6s-0.6,1.6,0.6,1.6
			c1,0,0.8-0.8,0.6-1.6c-0.2-0.8-0.4-1.6,0.5-1.6 M169.3,549.1l-2-0.1 M169.4,547l-1.9-0.1"/>
	</g>
	<g>
		<path fill="none" d="M167.4,546.2c-0.6,0-1.2-0.1-1.8-0.1l-0.3,3.2c0.6,0.1,1.3,0.1,1.9,0.2L167.4,546.2L167.4,546.2z"/>
		<path fill="none" stroke="#7F8083" stroke-width="0.29" d="M165.5,546.1c1.9,0.2-1.5,3.1,0.8,3.3c1,0.1,0.8-0.8,0.6-1.6
			c-0.2-0.8-0.4-1.6,0.6-1.6 M167.2,549c-0.6,0-1.3-0.1-1.9-0.2 M167.4,546.9c-0.6,0-1.3-0.1-1.9-0.2"/>
	</g>
	<g>
		<path fill="none" d="M165.4,546.1c-0.6-0.1-1.2-0.1-1.8-0.2l-0.4,3.2c0.6,0.1,1.3,0.2,1.9,0.2L165.4,546.1z"/>
		<path fill="none" stroke="#7F8083" stroke-width="0.29" d="M163.5,545.9c1.9,0.3-1.6,3.1,0.7,3.4c2,0.2-0.6-3.3,1.3-3.1
			 M165.2,548.8c-0.6-0.1-1.3-0.1-1.9-0.2 M165.4,546.7c-0.6-0.1-1.3-0.1-1.9-0.2"/>
	</g>
	<g>
		<path fill="none" d="M163.5,545.9l-1.9-0.3l-0.5,3.2l2,0.3L163.5,545.9z"/>
		<path fill="none" stroke="#7F8083" stroke-width="0.29" d="M161.6,545.6c1.9,0.3-1.7,3,0.6,3.3c2,0.3-0.5-3.3,1.4-3.1
			 M163.1,548.6l-1.9-0.2 M163.4,546.5l-1.9-0.3"/>
	</g>
	<g>
		<path fill="none" d="M161.5,545.6l-1.8-0.3l-0.6,3.2l1.9,0.3L161.5,545.6z"/>
		<path fill="none" stroke="#7F8083" stroke-width="0.29" d="M159.6,545.3c1.9,0.3-1.8,3,0.5,3.4c2,0.4-0.4-3.3,1.5-3 M161.1,548.3
			l-1.9-0.3 M161.5,546.2l-1.9-0.3"/>
	</g>
	<g>
		<path fill="none" d="M159.6,545.3c-0.6-0.1-1.2-0.2-1.8-0.4l-0.7,3.2c0.6,0.2,1.3,0.3,1.9,0.4L159.6,545.3z"/>
		<path fill="none" stroke="#7F8083" stroke-width="0.29" d="M157.7,544.9c1.9,0.4-1.8,2.9,0.4,3.4c2,0.4-0.4-3.3,1.6-3 M159.1,548
			c-0.6-0.1-1.3-0.2-1.9-0.4 M159.5,545.9c-0.6-0.1-1.2-0.2-1.9-0.4"/>
	</g>
	<g>
		<path fill="none" d="M157.7,544.9l-1.9-0.4l-0.7,3.1l1.9,0.4L157.7,544.9z"/>
		<path fill="none" stroke="#7F8083" stroke-width="0.29" d="M155.8,544.4c1.9,0.4-1.9,2.9,0.3,3.4c2,0.4-0.3-3.4,1.6-2.9
			 M157.1,547.6l-1.9-0.4 M157.6,545.5l-1.9-0.4"/>
	</g>
	<g>
		<path fill="none" d="M155.7,544.4c-0.6-0.1-1.2-0.3-1.8-0.5l-0.8,3.1c0.6,0.2,1.2,0.4,1.9,0.5L155.7,544.4L155.7,544.4z"/>
		<path fill="none" stroke="#7F8083" stroke-width="0.29" d="M153.9,543.9c1.8,0.5-2,2.8,0.2,3.4c2,0.5-0.2-3.4,1.7-2.9
			 M155.1,547.1c-0.6-0.1-1.2-0.3-1.8-0.5 M155.6,545.1c-0.6-0.1-1.2-0.3-1.8-0.5"/>
	</g>
	<g>
		<path fill="none" d="M153.8,543.9l-1.8-0.5l-0.9,3.2l1.9,0.5L153.8,543.9z"/>
		<path fill="none" stroke="#7F8083" stroke-width="0.29" d="M152,543.4c1.8,0.5-2.1,2.8,0.1,3.4c2,0.5-0.1-3.4,1.8-2.8
			 M153.1,546.6l-1.9-0.5 M153.7,544.6l-1.8-0.5"/>
	</g>
</g>
</svg>
