<?xml version="1.0" encoding="utf-8"?>
<!-- Generator: Adobe Illustrator 25.0.0, SVG Export Plug-In . SVG Version: 6.00 Build 0)  -->
<svg version="1.1" id="Layer_1" xmlns="http://www.w3.org/2000/svg" xmlns:xlink="http://www.w3.org/1999/xlink" x="0px" y="0px"
	 viewBox="0 0 222 546" enable-background="new 0 0 222 546" xml:space="preserve">
<path fill="#FFC63E" d="M117.6,161.7c2,1.9,3.4,6.2,4.3,10.8c1.4,6.9,3.6,13.6,5.5,32.8c4.4,29.9,7.8,51.1,8.8,83.6
	c0.4,13.8-0.9,36.3,0.1,43.8c1.7,12.9,2.9,21.4,4.3,28c2,9.5,1.6,7,2.7,12.9c1.6,8.4,1.2,7.6,0.8,31.4c0,0,0.3,13.4,0.7,25.8
	c0.3,12.3,7.1,54.7,7.7,104.4c3.6,1.3,8.5,3.3,12.4,3.6c12.9,1.1,16.2-1.1,16.2-1.1s18.1-103.5,18.1-125.2c0-30.4-5.1-48-4.9-59.9
	c0.3-23.9,0.9-38.4,1.3-41.3c1.3-12.3,7.1-50.8,12.1-80.3c7.5-45,8.6-47.1,9.7-74.7c1.6-40.8-6.5-72.9-7.7-78
	c-1.1-4.6-4.8-17.4-6.1-23.4c-0.7-3.4-12.1-48.1-14.6-48c-21.4,1.1-32.6-0.3-73.2,0.3h-5.4C69.8,6.7,58.5,8.5,37.1,7.3
	c-2.4-0.1-13.8,44.2-14.5,47.6c-1.2,6-4.9,18.8-6.1,23.4c-1.2,5-9.3,37.2-7.7,78C9.9,183.9,11,186,18.5,231
	c4.9,29.5,10.7,68.1,12.1,80.3c0.3,2.9,1,17.4,1.3,41.3c0.1,12-4.9,29.6-4.9,59.9c0,21.8,18.1,125.2,18.1,125.2s3.3,2.2,16.2,1.1
	c3.9-0.3,8.7-2.3,12.4-3.6c0.5-49.7,7.3-92.1,7.7-104.4c0.3-12.4,0.7-25.8,0.7-25.8c-0.3-23.8-0.7-23.1,0.8-31.4
	c1.1-5.9,0.7-3.4,2.7-12.9c1.4-6.5,2.6-15.1,4.3-28c1-7.5-0.3-30,0.1-43.8c1-32.5,4.4-53.7,8.8-83.6c1.9-19.1,5.6-30,7-37
	c0.9-4.6,1.4-8.5,4.5-9.3h5.9L117.6,161.7L117.6,161.7z"/>
<path fill="#6D6E71" d="M115.6,162.5c3.7,3.9,4.1,10.4,5.2,15.4c1,4.6,2,9.1,2.7,13.7c1.2,7.8,2,15.7,3.1,23.6
	c1.1,7.5,2.2,15.1,3.2,22.6c2.1,15.8,3.5,31.6,4.1,47.5c0.5,13.4-0.2,26.8-0.1,40.1c0.1,6,0.9,11.8,1.7,17.7c0.8,6,1.7,12.1,3,18
	c1.4,6.6,3.3,13.3,3.7,20c0.6,8.8-0.3,17.6-0.1,26.4c0.3,10.7,0.2,21.5,1.2,32.2c2.7,27.5,5.8,54.8,6.7,82.5l0.3,13.5
	c0.1,0.2,0.2,0.3,0.4,0.4c3.8,1.4,7.6,2.9,11.5,3.6c3.6,0.6,7.4,0.6,11.1,0.4c2.7-0.1,6.5-0.3,8.9-1.9c1.1-0.7,1-1.6,1.2-2.8
	c0.4-2.3,0.8-4.5,1.2-6.8c3.2-18.8,6.3-37.6,9.2-56.4c2.8-18.5,6.1-37.1,7.2-55.8c0.8-12.9-0.5-26.1-2.1-38.9
	c-0.7-5.7-1.6-11.3-2.2-17c-0.7-6.1-0.5-12.2-0.4-18.4c0.2-10.3,0.1-20.8,1.1-31.1c1.2-11.8,3.2-23.6,4.9-35.3
	c4.4-29.1,9.9-58,14.1-87.1c3.6-24.5,3.9-49.8,1.3-74.4c-1.2-11-2.9-22-5.4-32.8c-2.1-9.2-4.9-18.1-7-27.3
	c-1.7-7.3-3.7-14.6-5.7-21.9c-1.3-4.9-2.7-9.7-4.2-14.5c-1-3.3-2-6.7-3.5-9.8c-0.3-0.7-0.7-1.5-1.4-1.9c-1.5-0.7-4.6,0-6.3,0.1
	c-4.7,0.2-9.4,0.2-14.2,0.2c-11.8,0-23.6-0.3-35.4-0.3c-26.2,0-52.3,0.3-78.5,0.6c-4.8,0.1-9.5,0-14.3-0.2c-3.3-0.1-6.6-0.9-8.3,2.5
	c-1.5,3-2.5,6.4-3.5,9.6c-1.5,4.8-2.9,9.6-4.2,14.5c-2,7.3-4,14.5-5.7,21.9C18,64,15.2,73,13.1,82.1c-6.2,26.6-7.9,54-6.6,81.3
	c1,21.6,5.2,42.8,8.7,64.1c2.8,16.3,5.4,32.7,7.8,49.1c1.8,11.7,3.7,23.5,4.9,35.3c1,10.1,0.9,20.3,1.1,30.5
	c0.1,6.4,0.3,12.7-0.3,19c-0.6,5.7-1.5,11.3-2.2,17c-1.6,12.8-2.9,26-2.1,38.9c0.5,8,1.5,16,2.6,23.9c2.8,21.4,6.2,42.7,9.8,63.9
	c1.3,8.1,2.7,16.2,4.1,24.3c0.4,2.3,0.8,4.5,1.2,6.8c0.2,0.9,0.1,1.8,0.8,2.4c1.9,1.6,6.3,1.4,8.5,1.4c3.8,0.1,7.7,0,11.4-0.7
	c3.8-0.8,7.4-2.2,11-3.5c0.6-0.2,1.3-0.6,1.3-1.3c0.4-30.5,3.3-60.7,6.6-91c1.1-10.4,1.3-20.8,1.6-31.3c0.2-10-0.3-19.9-0.1-29.9
	c0.1-6,1.6-11.9,2.9-17.7c1.3-5.9,2.4-11.9,3.3-17.9c0.9-6.4,2.1-12.8,2.3-19.3c0.4-13.1-0.6-26.2-0.2-39.2
	c0.5-16.6,1.9-33.2,4-49.7c1-7.8,2.1-15.6,3.3-23.4c1.2-8.2,2-16.4,3.5-24.6c1-5.8,2.4-11.5,3.8-17.3c0.5-2.1,1-4.2,1.4-6.3
	c0.3-1.6,0.6-3.3,1.2-4.9c0.1-0.3,1.2-2.2,1.2-2.2s-1.7,0-0.4,0.1c1.7,0.1,3.5,0,5.2,0c-0.4-0.1-0.7-0.2-1.1-0.3
	C114.5,160.7,115.1,161.6,115.6,162.5c0.7,1,4.8-0.3,4-1.6c-0.9-1.4-1.3-2.8-3-2.9c-1.8-0.1-3.8-0.1-5.6,0
	c-6.5,0.4-6.8,7.5-7.9,12.5c-1.2,5.2-2.6,10.3-3.7,15.5c-1.7,8.4-2.5,16.9-3.8,25.3c-4.7,32.1-8.5,64-7.9,96.5
	c0.1,6.8,0.3,13.6,0.2,20.4c-0.2,7-1.5,13.9-2.5,20.8c-1.4,9.4-3.9,18.6-5.4,28c-1.3,8.4-0.5,17.2-0.3,25.6
	c0.2,11.2,0,22.6-0.9,33.8c-1,11.4-2.4,22.7-3.5,34.1c-1.7,16.9-2.9,33.9-3.5,50.8c-0.2,4.8-0.3,9.6-0.3,14.5l1.3-1.3
	c-4,1.4-7.9,3.1-12.2,3.4c-3.3,0.3-6.8,0.4-10.1-0.1c-1.1-0.2-2.4-0.3-3.4-0.8c-0.3-0.2,0.2,0.5,0.1-0.1c-0.6-4.1-1.4-8.2-2.1-12.2
	c-3.2-18.7-6.3-37.4-9.1-56.1c-2.7-17.4-5.7-35-6.7-52.6c-0.8-12.9,0.6-26,2.2-38.8c0.7-5.4,1.5-10.7,2.1-16
	c0.6-5.4,0.5-10.7,0.5-16.1c-0.2-11-0.2-22.2-1.1-33.2c-0.8-9.9-2.6-19.8-4-29.6c-4.3-29.2-9.5-58.3-14.2-87.5
	c-3.5-21.9-4.7-44.3-3.4-66.5c1.2-21.1,5-41.4,10.5-61.7C26.4,50.1,30,33.3,35.2,17c0.6-1.8,1.1-3.5,1.8-5.2
	c0.4-1.2,1.2-2.4,1.5-3.5c0.1-0.6,0.9-0.9-0.7,0c-1.4,0.8-0.4,0.4,0.5,0.4c0.7,0,1.4,0.1,2.1,0.1C42.7,8.9,45,8.9,47.3,9
	c9.8,0.1,19.5-0.3,29.3-0.4c12.8-0.2,25.6,0,38.4-0.1c13.9-0.1,27.8-0.1,41.6,0.1c9.3,0.1,18.6,0.2,27.8-0.1c0.7,0,2.8-0.4,3.2-0.2
	c-0.4-0.2,0,0.1,0.2,0.4c0.6,1,1,2.1,1.4,3.2c1.4,3.7,2.5,7.5,3.7,11.3c5.1,17.2,9.1,34.7,13.8,52.1c5.7,21.1,8.4,43,8.8,64.8
	c0.5,21-1.4,41.7-4.9,62.3c-5,29.8-10,59.6-14.4,89.5c-1.2,8.1-2.5,16.3-3,24.5c-0.7,12.7-1.2,25.6-1,38.3
	c0.2,10.7,2.5,21.3,3.6,31.9c1.1,11.2,1.9,22.7,1,34c-1.5,18.6-4.6,37-7.4,55.4c-2.8,17.8-5.7,35.7-8.8,53.5c-0.5,2.9-1,5.9-1.5,8.8
	c0.3-0.3,0.6-0.5,0.8-0.8c-0.2,0.1,0.4,0,0,0c0.1,0-0.7,0.2-1.2,0.3c-2.8,0.6-5.7,0.5-8.5,0.4c-4.8-0.2-9-1.3-13.5-2.9
	c-1.3-0.5-1.7-0.5-1.9-2c-0.1-1.2,0-2.5-0.1-3.7c0-2.4-0.1-4.8-0.2-7.2c-0.6-17.6-1.8-35.1-3.5-52.6c-1.1-11.4-2.6-22.8-3.6-34.3
	s-1.1-23.3-0.9-34.8c0.1-8.3,0.9-16.9-0.5-25.1c-1.7-9.9-4.1-19.6-5.6-29.6c-1-6.7-2.1-13.4-2.2-20.2c-0.1-7,0.1-13.9,0.2-20.9
	c0.3-16.6-0.5-33.2-2.1-49.7c-1.6-16.7-4.4-33.2-6.6-49.8c-1.6-11.8-3.2-23.5-6-35.1c-0.8-3.2-1.7-6.7-4-9.2
	C118.7,159.9,114.7,161.4,115.6,162.5L115.6,162.5z"/>
<path fill="none" stroke="#6D6E71" stroke-width="0.725" stroke-miterlimit="10" stroke-dasharray="3.6896,1.8441,3.6882,1.8441" d="
	M48.3,10.9c0,0,116.7,1.3,132.3-0.5 M186.6,8.3c-19.8,1.6-147.1,0-147.1,0"/>
<path fill="none" stroke="#6D6E71" stroke-width="1.46" stroke-miterlimit="10" d="M190.4,7.7C108.1,31.6,35.6,8.2,35.6,8.2"/>
<path fill="#6D6E71" d="M110.8,153.1l7.5-2.4l12-3.9c0.9-0.3,1.8-0.6,2.8-0.9c0.3-0.1,2.6-1.4,2.5-1.5c-0.5-1.7-3.2-1-4.3-0.8
	c-3.1,0.7-6.1,2-9,3.3c-3.6,1.5-7.2,3.1-10.8,4.6c-3.6,1.5-7.3,2.6-10.7,4.5c-3.3,1.8-6.5,3.8-9.4,6.2c0.3-0.3,0.9-0.5,1.3-0.7
	s0.9-0.4,1.3-0.7c0.6-0.5,1.2-1,1.9-1.5s1.5-1.1,2.2-1.6c0.4-0.3,0.8-0.5,1.2-0.7c0.1-0.1,0.2-0.1,0.3-0.2c0.7-0.5-0.9,0.5-0.8,0.5
	c0.3-0.1,0.6-0.3,0.8-0.4c1.7-0.9,3.5-1.5,5.3-2.1c1.7-0.6,3.3-1.3,4.9-2c3.4-1.4,6.7-2.9,10.1-4.3c2.8-1.2,5.6-2.4,8.6-3.1
	c1.2-0.3,4.2-1.1,4.7,0.7c0.8-0.5,1.7-1,2.5-1.5l-7.5,2.4l-12,3.9c-0.9,0.3-1.8,0.6-2.8,0.9c-0.4,0.1-0.9,0.5-1.3,0.7
	C111.6,152.6,111.2,153,110.8,153.1L110.8,153.1z"/>
<path fill="none" stroke="#6D6E71" stroke-width="2" stroke-miterlimit="10" d="M113,65.5l-0.3,85.2"/>
<g>
	<path fill="none" d="M188.7,9.7l3.2-0.9l0.5,1.8l-3.2,0.9L188.7,9.7z"/>
	<path fill="none" stroke="#7F8083" stroke-width="0.29" d="M189.2,11.6c-0.5-1.9,3.4,0.3,2.8-1.9c-0.6-2-2.8,1.8-3.4-0.1 M191.4,9
		l0.5,1.8 M189.3,9.5l0.5,1.9"/>
</g>
<g>
	<path fill="none" d="M189.3,11.7l3.2-0.9l0.5,1.8l-3.2,0.9L189.3,11.7z"/>
	<path fill="none" stroke="#7F8083" stroke-width="0.29" d="M189.8,13.6c-0.5-1.9,3.4,0.3,2.8-1.9c-0.6-2-2.8,1.8-3.4-0.1
		 M191.9,10.9l0.5,1.8 M189.9,11.5l0.5,1.8"/>
</g>
<g>
	<path fill="none" d="M189.8,13.6l3.2-0.9l0.5,1.8l-3.2,0.9L189.8,13.6z"/>
	<path fill="none" stroke="#7F8083" stroke-width="0.29" d="M190.3,15.5c-0.5-1.9,3.4,0.3,2.8-1.9c-0.5-2-2.8,1.8-3.4-0.1
		 M192.5,12.9l0.5,1.8 M190.4,13.4l0.5,1.9"/>
</g>
<g>
	<path fill="none" d="M190.4,15.6l3.2-0.9l0.5,1.8l-3.2,0.9L190.4,15.6z"/>
	<path fill="none" stroke="#7F8083" stroke-width="0.29" d="M190.9,17.5c-0.5-1.9,3.4,0.3,2.8-1.9c-0.5-2-2.8,1.8-3.4-0.1 M193,14.8
		l0.5,1.8 M191,15.4l0.5,1.8"/>
</g>
<g>
	<path fill="none" d="M190.9,17.5l3.2-0.9l0.5,1.8l-3.2,0.9L190.9,17.5z"/>
	<path fill="none" stroke="#7F8083" stroke-width="0.29" d="M191.4,19.4c-0.5-1.9,3.4,0.3,2.8-1.9c-0.5-2-2.8,1.8-3.4-0.1
		 M193.6,16.8l0.5,1.8 M191.5,17.3l0.5,1.9"/>
</g>
<g>
	<path fill="none" d="M191.4,19.5l3.2-0.9l0.5,1.8l-3.2,0.9L191.4,19.5z"/>
	<path fill="none" stroke="#7F8083" stroke-width="0.29" d="M192,21.3c-0.5-1.9,3.4,0.3,2.8-1.9c-0.5-2-2.8,1.8-3.4-0.1 M194.1,18.7
		l0.5,1.8 M192.1,19.3l0.5,1.8"/>
</g>
<g>
	<path fill="none" d="M192,21.3l3.2-0.9l0.5,1.8l-3.2,0.9L192,21.3z"/>
	<path fill="none" stroke="#7F8083" stroke-width="0.29" d="M192.5,23.3c-0.5-1.9,3.4,0.3,2.8-1.9c-0.5-2-2.8,1.8-3.4-0.1
		 M194.7,20.7l0.5,1.8 M192.6,21.2l0.5,1.9"/>
</g>
<g>
	<path fill="none" d="M192.5,23.4l3.2-0.9l0.5,1.8l-3.2,0.9L192.5,23.4z"/>
	<path fill="none" stroke="#7F8083" stroke-width="0.29" d="M193,25.3c-0.5-1.9,3.4,0.3,2.8-1.9c-0.5-2-2.8,1.8-3.4-0.1 M195.2,22.6
		l0.5,1.9 M193.1,23.2l0.5,1.8"/>
</g>
<g>
	<path fill="none" d="M193.1,25.3l3.2-0.9l0.5,1.8l-3.2,0.9L193.1,25.3z"/>
	<path fill="none" stroke="#7F8083" stroke-width="0.29" d="M193.6,27.2c-0.5-1.9,3.4,0.3,2.9-1.9c-0.5-2-2.8,1.8-3.4-0.1
		 M195.7,24.6l0.5,1.8 M193.7,25.1l0.5,1.9"/>
</g>
<g>
	<path fill="none" d="M193.6,27.2l3.2-0.9l0.5,1.8l-3.2,0.9L193.6,27.2z"/>
	<path fill="none" stroke="#7F8083" stroke-width="0.29" d="M194.1,29.2c-0.5-1.9,3.4,0.3,2.9-1.9c-0.5-2-2.8,1.8-3.4-0.1
		 M196.3,26.5l0.5,1.9 M194.2,27.1l0.5,1.8"/>
</g>
<g>
	<path fill="none" d="M194.1,29.2l3.2-0.9l0.5,1.8l-3.2,0.9L194.1,29.2z"/>
	<path fill="none" stroke="#7F8083" stroke-width="0.29" d="M194.6,31.1c-0.5-1.9,3.4,0.3,2.9-1.9c-0.5-2-2.8,1.8-3.4-0.1
		 M196.8,28.5l0.5,1.8 M194.7,29l0.5,1.9"/>
</g>
<g>
	<path fill="none" d="M194.6,31.2l3.2-0.9l0.5,1.8l-3.2,0.9L194.6,31.2z"/>
	<path fill="none" stroke="#7F8083" stroke-width="0.29" d="M195.2,33.1c-0.5-1.9,3.4,0.3,2.9-1.8c-0.5-2-2.9,1.8-3.4-0.1
		 M197.3,30.5l0.5,1.8 M195.3,31l0.5,1.8"/>
</g>
<g>
	<path fill="none" d="M195.2,33.1l3.2-0.9l0.5,1.8l-3.2,0.9L195.2,33.1z"/>
	<path fill="none" stroke="#7F8083" stroke-width="0.29" d="M195.7,35c-0.5-1.9,3.4,0.3,2.9-1.8c-0.5-2-2.9,1.8-3.4-0.1 M197.9,32.4
		l0.4,1.8 M195.8,32.9l0.5,1.9"/>
</g>
<g>
	<path fill="none" d="M195.7,35.1l3.2-0.8l0.5,1.8l-3.2,0.8L195.7,35.1z"/>
	<path fill="none" stroke="#7F8083" stroke-width="0.29" d="M196.2,37c-0.5-1.9,3.4,0.3,2.9-1.8c-0.5-2-2.9,1.8-3.4-0.1 M198.4,34.4
		l0.5,1.8 M196.3,34.9l0.5,1.8"/>
</g>
<g>
	<path fill="none" d="M196.2,37l0.5,1.9l3.1-0.9l-0.4-1.8L196.2,37z"/>
	<path fill="none" stroke="#7F8083" stroke-width="0.29" d="M196.7,38.9c-0.5-1.9,3.4,0.3,2.9-1.8c-0.5-2-2.9,1.8-3.4-0.1
		 M198.9,36.3l0.5,1.9 M196.8,36.8l0.5,1.9"/>
</g>
<g>
	<path fill="none" d="M196.7,39l0.5,1.8l3.1-0.8l-0.4-1.8L196.7,39z"/>
	<path fill="none" stroke="#7F8083" stroke-width="0.29" d="M197.2,40.9c-0.5-1.9,3.4,0.3,2.9-1.8c-0.5-2-2.9,1.8-3.4-0.1
		 M199.4,38.3l0.5,1.8 M197.3,38.8l0.5,1.9"/>
</g>
<g>
	<path fill="none" d="M197.2,40.9l0.5,1.9l3.1-0.8l-0.4-1.9L197.2,40.9z"/>
	<path fill="none" stroke="#7F8083" stroke-width="0.29" d="M197.7,42.8c-0.5-1.9,3.4,0.4,2.9-1.8c-0.5-2-2.9,1.8-3.4-0.2
		 M199.9,40.3l0.5,1.8 M197.8,40.7l0.5,1.9"/>
</g>
<g>
	<path fill="none" d="M197.7,42.9l0.5,1.8l3.1-0.7l-0.4-1.9L197.7,42.9z"/>
	<path fill="none" stroke="#7F8083" stroke-width="0.29" d="M198.2,44.8c-0.5-1.9,3.4,0.4,2.9-1.8c-0.5-2-2.9,1.7-3.4-0.2
		 M200.4,42.2l0.5,1.9 M198.3,42.7l0.5,1.9"/>
</g>
<g>
	<path fill="none" d="M198.2,44.9l0.5,1.8l3.1-0.8l-0.4-1.8L198.2,44.9z"/>
	<path fill="none" stroke="#7F8083" stroke-width="0.29" d="M198.7,46.8c-0.4-1.9,3.4,0.4,2.9-1.8c-0.5-2-2.9,1.7-3.4-0.2
		 M200.9,44.2l0.4,1.9 M198.8,44.7l0.5,1.8"/>
</g>
<g>
	<path fill="none" d="M198.7,46.8l0.4,1.9l3.2-0.8l-0.5-1.8L198.7,46.8z"/>
	<path fill="none" stroke="#7F8083" stroke-width="0.29" d="M199.1,48.7c-0.4-1.9,3.4,0.4,2.9-1.7c-0.5-2-2.9,1.7-3.4-0.2
		 M201.4,46.2l0.4,1.8 M199.3,46.6l0.4,1.9"/>
</g>
<g>
	<path fill="none" d="M199.1,48.8l0.4,1.8l3.2-0.7l-0.4-1.8L199.1,48.8z"/>
	<path fill="none" stroke="#7F8083" stroke-width="0.29" d="M199.5,50.7c-0.4-1.9,3.4,0.5,2.9-1.7c-0.4-2-2.9,1.7-3.4-0.3
		 M201.8,48.2l0.5,1.8 M199.8,48.6l0.4,1.9"/>
</g>
<g>
	<path fill="none" d="M199.6,50.7c0.1,0.6,0.2,1.2,0.4,1.8l3.2-0.5c-0.1-0.7-0.2-1.3-0.4-1.9L199.6,50.7L199.6,50.7z"/>
	<path fill="none" stroke="#7F8083" stroke-width="0.29" d="M199.9,52.6c-0.2-0.9,0.7-0.8,1.5-0.7s1.7,0.2,1.5-0.9
		c-0.4-2-2.9,1.6-3.4-0.3 M202.3,50.2c0.1,0.6,0.3,1.3,0.4,1.9 M200.2,50.6c0.1,0.6,0.2,1.3,0.4,1.9"/>
</g>
<g>
	<path fill="none" d="M199.9,52.7c0.1,0.6,0.2,1.1,0.2,1.7h3.3c-0.1-0.8-0.1-1.6-0.3-2.2L199.9,52.7z"/>
	<path fill="none" stroke="#7F8083" stroke-width="0.29" d="M200.2,54.4c-0.1-0.8,0.7-0.7,1.6-0.4c0.8,0.2,1.7,0.5,1.5-0.9
		c-0.2-1.1-0.9-0.7-1.7-0.3c-0.7,0.4-1.5,0.7-1.7-0.2 M202.7,52.2c0.1,0.6,0.2,1.4,0.3,2.1 M200.6,52.5c0.1,0.6,0.2,1.2,0.2,1.8"/>
</g>
<path opacity="0.37" fill="#FFFFFF" enable-background="new    " d="M37,8.5c0,0,10.5,8,76.4,10.7c0,0,58.8-2.8,73-10.7
	C186.4,8.5,61.7,6.1,37,8.5z"/>
<g>
	<path fill="#6D6E71" d="M141,359.3c1,10.8,3.1,21.5,5.3,32.1c1.4,6.8,2.9,13.6,4.6,20.4c-0.2-0.8,0-1.9,0-2.7c0-0.9,0.2-1.9,0-2.7
		c-3.9-16.4-7.5-33.1-9.6-49.8l-0.3-2.7C141.1,355.6,140.8,357.5,141,359.3L141,359.3z"/>
</g>
<path fill="none" stroke="#6D6E71" stroke-width="2" stroke-miterlimit="10" d="M23.6,53.1c0,0,68.1,29.2,177.9,1.1"/>
<g>
	<g>
		<path fill="none" d="M33.9,11.4l0.5-1.8l3.2,0.9l-0.5,1.8L33.9,11.4z"/>
		<path fill="none" stroke="#7F8083" stroke-width="0.29" d="M33.9,11.5c0.5-1.9,2.8,2,3.4-0.1c0.6-1.9-3.4,0.1-2.8-1.8 M37.1,10.3
			l-0.5,1.9 M35,9.7l-0.5,1.9"/>
	</g>
	<g>
		<path fill="none" d="M33.3,13.3l0.5-1.8l3.2,0.9l-0.5,1.8L33.3,13.3z"/>
		<path fill="none" stroke="#7F8083" stroke-width="0.29" d="M33.3,13.4c0.5-1.9,2.8,2,3.4-0.1c0.6-1.9-3.4,0.1-2.8-1.8 M36.5,12.3
			L36,14.1 M34.5,11.7L34,13.5"/>
	</g>
	<g>
		<path fill="none" d="M32.8,15.3l0.5-1.8l3.2,0.9L36,16.1L32.8,15.3z"/>
		<path fill="none" stroke="#7F8083" stroke-width="0.29" d="M32.8,15.4c0.5-1.9,2.8,2,3.4-0.1c0.5-2-3.4,0.1-2.8-1.8 M36,14.2
			L35.5,16 M33.9,13.6l-0.5,1.9"/>
	</g>
	<g>
		<path fill="none" d="M32.2,17.3l0.5-1.8l3.2,0.9l-0.5,1.8L32.2,17.3z"/>
		<path fill="none" stroke="#7F8083" stroke-width="0.29" d="M32.2,17.3c0.5-1.9,2.8,2,3.4-0.1c0.5-1.9-3.4,0.1-2.8-1.8 M35.4,16.2
			L34.9,18 M33.4,15.6l-0.5,1.8"/>
	</g>
	<g>
		<path fill="none" d="M31.7,19.2l0.5-1.8l3.2,0.9l-0.5,1.8L31.7,19.2z"/>
		<path fill="none" stroke="#7F8083" stroke-width="0.29" d="M31.7,19.3c0.5-1.9,2.8,2,3.4-0.1c0.5-1.9-3.4,0.1-2.8-1.8 M34.9,18.1
			l-0.5,1.8 M32.8,17.5l-0.5,1.9"/>
	</g>
	<g>
		<path fill="none" d="M31.1,21.2l0.5-1.8l3.2,0.9l-0.5,1.8L31.1,21.2z"/>
		<path fill="none" stroke="#7F8083" stroke-width="0.29" d="M31.1,21.2c0.5-1.9,2.8,2,3.4-0.1c0.5-2-3.4,0.1-2.8-1.8 M34.3,20.1
			l-0.5,1.8 M32.3,19.5l-0.5,1.8"/>
	</g>
	<g>
		<path fill="none" d="M30.6,23.1l0.5-1.8l3.2,0.9L33.8,24L30.6,23.1z"/>
		<path fill="none" stroke="#7F8083" stroke-width="0.29" d="M30.6,23.2c0.5-1.9,2.8,2,3.4-0.1c0.5-2-3.4,0.1-2.8-1.8 M33.8,22
			l-0.5,1.8 M31.8,21.4l-0.6,1.9"/>
	</g>
	<g>
		<path fill="none" d="M30,25l0.5-1.8l3.2,0.9l-0.5,1.8L30,25z"/>
		<path fill="none" stroke="#7F8083" stroke-width="0.29" d="M30.1,25.1c0.5-1.9,2.8,2,3.4-0.1c0.5-2-3.4,0.1-2.8-1.8 M33.3,24
			l-0.5,1.8 M31.2,23.4l-0.5,1.8"/>
	</g>
	<g>
		<path fill="none" d="M29.6,27l0.5-1.8l3.2,0.9l-0.5,1.8L29.6,27z"/>
		<path fill="none" stroke="#7F8083" stroke-width="0.29" d="M29.5,27.1c0.5-1.9,2.8,2,3.4-0.2c0.5-2-3.4,0.1-2.8-1.8 M32.7,25.9
			l-0.5,1.8 M30.7,25.3l-0.5,1.9"/>
	</g>
	<g>
		<path fill="none" d="M29.1,29l0.5-1.8l3.2,0.9l-0.5,1.8L29.1,29z"/>
		<path fill="none" stroke="#7F8083" stroke-width="0.29" d="M29,29c0.5-1.9,2.8,2,3.4-0.2c0.5-2-3.4,0.1-2.8-1.8 M32.2,27.9
			l-0.5,1.8 M30.1,27.3l-0.5,1.8"/>
	</g>
	<g>
		<path fill="none" d="M28.5,30.9l0.5-1.8l3.2,0.9l-0.5,1.8L28.5,30.9z"/>
		<path fill="none" stroke="#7F8083" stroke-width="0.29" d="M28.5,31c0.5-1.9,2.8,2,3.4-0.2c0.5-2-3.4,0.1-2.9-1.8 M31.7,29.8
			l-0.5,1.8 M29.6,29.2l-0.5,1.9"/>
	</g>
	<g>
		<path fill="none" d="M28,32.9l0.5-1.8l3.2,0.9l-0.5,1.8L28,32.9z"/>
		<path fill="none" stroke="#7F8083" stroke-width="0.29" d="M27.9,32.9c0.5-1.9,2.8,2,3.4-0.2c0.5-2-3.4,0.1-2.9-1.8 M31.1,31.8
			l-0.5,1.8 M29.1,31.2L28.6,33"/>
	</g>
	<g>
		<path fill="none" d="M27.4,34.8l0.5-1.8l3.2,0.9l-0.5,1.8L27.4,34.8z"/>
		<path fill="none" stroke="#7F8083" stroke-width="0.29" d="M27.4,34.9c0.5-1.9,2.8,2,3.4-0.2c0.5-2-3.4,0.1-2.9-1.8 M30.6,33.7
			l-0.5,1.9 M28.6,33.1L28.1,35"/>
	</g>
	<g>
		<path fill="none" d="M26.9,36.8l0.5-1.8l3.2,0.8l-0.5,1.8L26.9,36.8z"/>
		<path fill="none" stroke="#7F8083" stroke-width="0.29" d="M26.9,36.9c0.5-1.9,2.8,2,3.4-0.2c0.5-2-3.4,0.1-2.9-1.8 M30.1,35.7
			l-0.5,1.8 M28,35.1L27.5,37"/>
	</g>
	<g>
		<path fill="none" d="M26.9,36.9l-0.5,1.9l3.2,0.8l0.4-1.9L26.9,36.9z"/>
		<path fill="none" stroke="#7F8083" stroke-width="0.29" d="M26.4,38.8c0.5-1.9,2.8,2,3.4-0.2c0.5-2-3.4,0.2-2.9-1.8 M29.6,37.6
			l-0.5,1.9 M27.5,37.1L27,38.9"/>
	</g>
	<g>
		<path fill="none" d="M26.4,38.9l-0.5,1.8l3.2,0.8l0.4-1.8L26.4,38.9z"/>
		<path fill="none" stroke="#7F8083" stroke-width="0.29" d="M25.9,40.8c0.5-1.9,2.8,1.9,3.4-0.2c0.5-2-3.4,0.2-2.9-1.8 M29.1,39.6
			l-0.5,1.8 M27,39l-0.5,1.9"/>
	</g>
	<g>
		<path fill="none" d="M25.9,40.9l-0.5,1.8l3.2,0.8l0.4-1.8L25.9,40.9z"/>
		<path fill="none" stroke="#7F8083" stroke-width="0.29" d="M25.4,42.8c0.5-1.9,2.9,1.9,3.4-0.2c0.5-2-3.4,0.2-2.9-1.7 M28.6,41.5
			l-0.5,1.9 M26.5,41L26,42.9"/>
	</g>
	<g>
		<path fill="none" d="M25.4,42.8l-0.5,1.9l3.2,0.7l0.4-1.8L25.4,42.8z"/>
		<path fill="none" stroke="#7F8083" stroke-width="0.29" d="M24.9,44.7c0.5-1.9,2.9,1.9,3.4-0.2c0.5-2-3.4,0.2-2.9-1.7 M28.1,43.5
			l-0.5,1.8 M26,42.9l-0.5,1.9"/>
	</g>
	<g>
		<path fill="none" d="M24.9,44.8l-0.5,1.9l3.2,0.7l0.5-1.8L24.9,44.8z"/>
		<path fill="none" stroke="#7F8083" stroke-width="0.29" d="M24.4,46.7c0.4-1.9,2.9,1.9,3.4-0.3c0.5-2-3.4,0.2-2.9-1.7 M27.6,45.5
			l-0.5,1.8 M25.5,44.9l-0.4,1.9"/>
	</g>
	<g>
		<path fill="none" d="M24.4,46.8L24,48.6l3.1,0.8l0.5-1.9L24.4,46.8z"/>
		<path fill="none" stroke="#7F8083" stroke-width="0.29" d="M24,48.7c0.4-1.9,2.9,1.9,3.4-0.3c0.5-2-3.4,0.2-2.9-1.7 M27.1,47.4
			l-0.4,1.8 M25,46.9l-0.4,1.9"/>
	</g>
	<g>
		<path fill="none" d="M23.9,48.8l-0.4,1.8l3.2,0.7l0.4-1.8L23.9,48.8z"/>
		<path fill="none" stroke="#7F8083" stroke-width="0.29" d="M23.5,50.7c0.4-1.9,2.9,1.8,3.4-0.3c0.4-2-3.4,0.3-2.9-1.7 M26.6,49.4
			l-0.3,1.8 M24.6,48.9l-0.4,1.9"/>
	</g>
	<g>
		<path fill="none" d="M23.5,50.8c-0.1,0.6-0.3,1.3-0.4,1.9l3.2,0.5l0.3-1.8L23.5,50.8L23.5,50.8z"/>
		<path fill="none" stroke="#7F8083" stroke-width="0.29" d="M23.1,52.7c0.2-1,0.9-0.5,1.7-0.1s1.5,0.7,1.7-0.3
			c0.4-1.9-3.4,0.3-3-1.6 M26.2,51.3l-0.3,1.8 M24.1,50.8c-0.1,0.6-0.3,1.3-0.4,1.9"/>
	</g>
	<g>
		<path fill="none" d="M23.1,52.8c-0.1,0.6-0.2,1.4-0.3,2.1h3.3c0.1-0.5,0.1-0.9,0.2-1.6L23.1,52.8z"/>
		<path fill="none" stroke="#7F8083" stroke-width="0.29" d="M22.9,54.9c0.1-1.1,0.9-0.7,1.7-0.4s1.6,0.4,1.7-0.4
			c0.1-0.9-0.7-0.8-1.5-0.7s-1.7,0.3-1.5-0.7 M25.9,53.3c-0.1,0.6-0.2,1.1-0.2,1.6 M23.8,52.9c-0.1,0.6-0.2,1.3-0.3,2"/>
	</g>
</g>
<g>
	<path fill="#6D6E71" d="M85.9,348.2c-1,10.8-3.1,21.5-5.3,32.1c-1.4,6.8-2.9,13.6-4.6,20.4c-0.2,0.8,0,1.9,0,2.7s0.2,1.9,0,2.7
		c3.9-16.4,7.5-33.1,9.6-49.8l0.3-2.7C86,351.9,85.7,350,85.9,348.2L85.9,348.2z"/>
</g>
<path fill="none" stroke="#6D6E71" stroke-miterlimit="10" d="M112.5,150.3c-4,0.6-8.1,4.3-11.5,9.3c-1.7,2.5-6.5,27.2-7.4,35.4
	c-1.4,7.9-2.1,13.7-3.2,22c-4.1,28.8-3.5,62.6-4.3,88.4c0,0,0,19.6-8,72.4c-3.4,22.3,1.8,22.5-4.3,87.8c0,0-4.5,49.9-3.9,69.5"/>
<g>
	<path fill="#6D6E71" d="M140.3,353.7c1,10.8,3.1,21.5,5.3,32.1c1.4,6.8,2.9,13.6,4.6,20.4c-0.2-0.8,0-1.9,0-2.7
		c0-0.9,0.2-1.9,0-2.7c-3.9-16.4-7.5-33.1-9.6-49.8l-0.3-2.7C140.4,350,140.1,351.9,140.3,353.7L140.3,353.7z"/>
</g>
<path fill="none" stroke="#6D6E71" stroke-miterlimit="10" d="M112.8,151.4c4,0.6,8.1,4.3,11.5,9.3c1.7,2.5,6.5,27.2,7.4,35.4
	c1.4,7.9,2.1,13.7,3.2,22c4.1,28.8,3.5,62.6,4.3,88.4c0,0,0,19.6,8,72.4c3.4,22.3-1.8,22.5,4.3,87.8c0,0,4.5,49.9,3.9,69.5"/>
<g>
	<g>
		<path fill="none" d="M43.5,530.4c0.7,0.2,1.3,0.4,2,0.5l0.7-3.2c-0.5-0.1-1.2-0.3-1.6-0.4L43.5,530.4L43.5,530.4z"/>
		<path fill="none" stroke="#7F8083" stroke-width="0.29" d="M45.5,531c-1-0.2-0.5-0.9,0-1.7c0.4-0.7,0.8-1.5-0.2-1.7
			c-0.8-0.2-0.9,0.6-0.9,1.4c0,0.8,0.1,1.7-1,1.4 M44.4,527.8c0.5,0.2,1.1,0.3,1.6,0.4 M43.7,529.8c0.7,0.2,1.3,0.4,1.9,0.5"/>
	</g>
	<g>
		<path fill="none" d="M45.6,531c0.6,0.1,1.3,0.3,1.9,0.4l0.5-3.2c-0.6-0.1-1.2-0.2-1.7-0.3L45.6,531L45.6,531z"/>
		<path fill="none" stroke="#7F8083" stroke-width="0.29" d="M47.6,531.3c-1-0.2-0.5-0.9-0.1-1.7s0.7-1.5-0.3-1.7
			c-0.9-0.2-0.9,0.6-0.8,1.5c0.1,0.8,0.2,1.7-0.8,1.5 M46.2,528.3l1.8,0.3 M45.7,530.4c0.6,0.1,1.3,0.3,1.9,0.4"/>
	</g>
	<g>
		<path fill="none" d="M47.6,531.4c0.6,0.1,1.3,0.2,1.9,0.2l0.3-3.2c-0.6-0.1-1.2-0.1-1.8-0.2L47.6,531.4z"/>
		<path fill="none" stroke="#7F8083" stroke-width="0.29" d="M49.6,531.6c-1-0.1-0.6-0.9-0.2-1.7c0.3-0.8,0.6-1.6-0.4-1.7
			c-0.9-0.1-0.8,0.7-0.7,1.5c0.1,0.8,0.3,1.7-0.7,1.5 M48.1,528.6c0.6,0.1,1.2,0.2,1.8,0.2 M47.7,530.7c0.6,0.1,1.3,0.2,1.9,0.3"/>
	</g>
	<g>
		<path fill="none" d="M49.7,531.6l1.9,0.2l0.2-3.3l-1.8-0.1L49.7,531.6z"/>
		<path fill="none" stroke="#7F8083" stroke-width="0.29" d="M51.7,531.8c-1-0.1-0.6-0.9-0.3-1.6c0.3-0.8,0.6-1.6-0.5-1.7
			c-1-0.1-0.8,0.7-0.6,1.6c0.2,0.8,0.4,1.6-0.6,1.6 M50,528.9l1.8,0.1 M49.7,531l2,0.1"/>
	</g>
	<g>
		<path fill="none" d="M51.8,531.8h1.9v-3.2l-1.8-0.1L51.8,531.8z"/>
		<path fill="none" stroke="#7F8083" stroke-width="0.29" d="M53.7,531.8c-1,0-0.7-0.8-0.4-1.6c0.3-0.8,0.5-1.6-0.6-1.6
			c-1,0-0.8,0.8-0.6,1.6c0.2,0.8,0.5,1.6-0.6,1.6 M51.9,529l1.8,0.1 M51.8,531.1l1.9,0.1"/>
	</g>
	<g>
		<path fill="none" d="M53.8,531.8h1.9v-3.2h-1.8L53.8,531.8z"/>
		<path fill="none" stroke="#7F8083" stroke-width="0.29" d="M55.8,531.8c-1,0-0.7-0.8-0.4-1.6c0.2-0.8,0.4-1.6-0.6-1.6
			s-0.7,0.8-0.5,1.6s0.5,1.6-0.5,1.6 M53.9,529.1h1.8 M53.8,531.2h1.9"/>
	</g>
	<g>
		<path fill="none" d="M55.9,531.8l1.9-0.1l-0.2-3.2l-1.8,0.1L55.9,531.8z"/>
		<path fill="none" stroke="#7F8083" stroke-width="0.29" d="M57.8,531.7c-1,0-0.7-0.8-0.5-1.6s0.4-1.6-0.7-1.6
			c-1,0-0.7,0.8-0.4,1.6c0.3,0.8,0.6,1.6-0.4,1.6 M55.8,529.1l1.8-0.1 M55.8,531.2l1.9-0.1"/>
	</g>
	<g>
		<path fill="none" d="M57.9,531.7c0.6,0,1.3-0.1,1.9-0.2l-0.3-3.2c-0.6,0-1.2,0.1-1.8,0.1L57.9,531.7L57.9,531.7z"/>
		<path fill="none" stroke="#7F8083" stroke-width="0.29" d="M59.9,531.6c-1.9,0.2,0.9-3.3-1.3-3.1c-1,0.1-0.7,0.8-0.4,1.6
			c0.3,0.8,0.6,1.6-0.4,1.6 M57.7,529c0.6,0,1.2-0.1,1.8-0.1 M57.8,531.1c0.6,0,1.3-0.1,1.9-0.2"/>
	</g>
	<g>
		<path fill="none" d="M59.9,531.6c0.6-0.1,1.3-0.1,1.9-0.2l-0.4-3.2c-0.6,0.1-1.2,0.1-1.8,0.2L59.9,531.6z"/>
		<path fill="none" stroke="#7F8083" stroke-width="0.29" d="M61.9,531.4c-1.9,0.3,0.8-3.4-1.4-3.1c-2,0.2,1.3,3.1-0.6,3.3
			 M59.7,528.8c0.6-0.1,1.2-0.1,1.8-0.2 M59.9,530.9c0.6-0.1,1.3-0.1,1.9-0.2"/>
	</g>
	<g>
		<path fill="none" d="M62,531.3l1.9-0.2l-0.5-3.2l-1.8,0.2L62,531.3z"/>
		<path fill="none" stroke="#7F8083" stroke-width="0.29" d="M63.9,531.1c-1.9,0.3,0.7-3.4-1.5-3.1c-2,0.3,1.4,3.1-0.5,3.3
			 M61.6,528.6l1.9-0.3 M61.9,530.7l1.9-0.2"/>
	</g>
	<g>
		<path fill="none" d="M64,531.1l1.9-0.4l-0.6-3.2l-1.8,0.4L64,531.1z"/>
		<path fill="none" stroke="#7F8083" stroke-width="0.29" d="M65.9,530.7c-1.9,0.3,0.6-3.4-1.6-3c-1.9,0.3,1.5,3-0.4,3.3
			 M63.6,528.3l1.8-0.3 M63.9,530.4l1.9-0.3"/>
	</g>
	<g>
		<path fill="none" d="M66,530.7c0.6-0.1,1.3-0.2,1.9-0.4l-0.7-3.2c-0.6,0.1-1.2,0.3-1.8,0.4L66,530.7z"/>
		<path fill="none" stroke="#7F8083" stroke-width="0.29" d="M67.9,530.3c-1.9,0.4,0.5-3.4-1.7-3c-1.9,0.3,1.6,3-0.3,3.3 M65.5,528
			c0.6-0.1,1.2-0.2,1.8-0.4 M65.9,530.1c0.6-0.1,1.3-0.2,1.9-0.4"/>
	</g>
	<g>
		<path fill="none" d="M68,530.3l1.9-0.4l-0.8-3.2l-1.8,0.4L68,530.3z"/>
		<path fill="none" stroke="#7F8083" stroke-width="0.29" d="M69.9,529.9c-1.9,0.4,0.4-3.4-1.7-2.9c-1.9,0.4,1.7,2.9-0.2,3.4
			 M67.4,527.6l1.8-0.4 M67.8,529.7l1.9-0.4"/>
	</g>
	<g>
		<path fill="none" d="M70,529.9c0.6-0.1,1.2-0.3,1.8-0.5l-0.8-3.1c-0.6,0.2-1.2,0.3-1.8,0.5L70,529.9z"/>
		<path fill="none" stroke="#7F8083" stroke-width="0.29" d="M71.9,529.4c-1.9,0.5,0.3-3.4-1.8-2.9c-1.9,0.5,1.7,2.9-0.2,3.4
			 M69.4,527.2c0.6-0.1,1.2-0.3,1.8-0.5 M69.8,529.3c0.6-0.1,1.2-0.3,1.9-0.5"/>
	</g>
	<g>
		<path fill="none" d="M72,529.3l1.8-0.5l-0.9-3.1l-1.8,0.5L72,529.3z"/>
		<path fill="none" stroke="#7F8083" stroke-width="0.29" d="M73.9,528.8c-1.9,0.5,0.2-3.4-1.9-2.8c-1.9,0.5,1.8,2.8-0.1,3.4
			 M71.3,526.7l1.7-0.5 M71.8,528.7l1.8-0.5"/>
	</g>
</g>
<g>
	<g>
		<path fill="none" d="M181.8,528.1c-0.5,0.2-1.1,0.3-1.7,0.5l0.7,3.2c0.7-0.2,1.3-0.3,2-0.6L181.8,528.1L181.8,528.1z"/>
		<path fill="none" stroke="#7F8083" stroke-width="0.29" d="M180.1,528.5c0.9-0.2,0.8,0.6,0.8,1.5c-0.1,0.8-0.1,1.7,1,1.4
			s0.6-1,0.1-1.7s-0.9-1.4-0.1-1.7 M182.7,530.7c-0.7,0.2-1.3,0.4-2,0.5 M182,528.7c-0.5,0.2-1.2,0.3-1.8,0.5"/>
	</g>
	<g>
		<path fill="none" d="M180,528.5l-1.8,0.3l0.5,3.2c0.7-0.1,1.3-0.2,2-0.4L180,528.5z"/>
		<path fill="none" stroke="#7F8083" stroke-width="0.29" d="M178.2,528.9c0.9-0.1,0.8,0.7,0.7,1.5c-0.1,0.8-0.2,1.7,0.9,1.5
			s0.6-0.9,0.2-1.7c-0.4-0.7-0.8-1.5,0.1-1.7 M180.6,531.2c-0.6,0.1-1.3,0.3-1.9,0.4 M180.2,529.2l-1.8,0.3"/>
	</g>
	<g>
		<path fill="none" d="M178.1,528.9c-0.6,0.1-1.2,0.2-1.8,0.2l0.3,3.2c0.7-0.1,1.3-0.1,2-0.3L178.1,528.9L178.1,528.9z"/>
		<path fill="none" stroke="#7F8083" stroke-width="0.29" d="M176.2,529.1c0.9-0.1,0.7,0.7,0.6,1.6c-0.2,0.8-0.3,1.7,0.8,1.5
			c1.1-0.1,0.7-0.9,0.3-1.7c-0.4-0.8-0.7-1.5,0.2-1.7 M178.5,531.6c-0.6,0.1-1.3,0.2-1.9,0.2 M178.2,529.5c-0.6,0.1-1.2,0.2-1.9,0.2
			"/>
	</g>
	<g>
		<path fill="none" d="M176.2,529.1l-1.8,0.2l0.1,3.2l2-0.1L176.2,529.1z"/>
		<path fill="none" stroke="#7F8083" stroke-width="0.29" d="M174.3,529.3c0.9-0.1,0.7,0.8,0.5,1.6s-0.4,1.7,0.8,1.6
			c1-0.1,0.7-0.9,0.4-1.6c-0.3-0.8-0.6-1.6,0.3-1.6 M176.5,531.9l-2,0.1 M176.3,529.8l-1.9,0.1"/>
	</g>
	<g>
		<path fill="none" d="M174.2,529.3h-1.8l0.1,3.3l1.9-0.1L174.2,529.3z"/>
		<path fill="none" stroke="#7F8083" stroke-width="0.29" d="M172.4,529.3c0.9,0,0.7,0.8,0.4,1.6c-0.2,0.8-0.5,1.6,0.7,1.6
			c1,0,0.7-0.8,0.4-1.6c-0.3-0.8-0.6-1.6,0.4-1.6 M174.4,532l-1.9,0.1 M174.3,529.9l-1.9,0.1"/>
	</g>
	<g>
		<path fill="none" d="M172.3,529.3h-1.8l-0.1,3.3h1.9V529.3z"/>
		<path fill="none" stroke="#7F8083" stroke-width="0.29" d="M170.4,529.3c0.9,0,0.6,0.8,0.4,1.6c-0.3,0.8-0.5,1.6,0.6,1.6
			c1,0,0.8-0.8,0.5-1.6s-0.5-1.6,0.4-1.6 M172.3,532.1h-1.9 M172.3,530h-1.9"/>
	</g>
	<g>
		<path fill="none" d="M170.3,529.3l-1.8-0.1l-0.2,3.3l2,0.1V529.3z"/>
		<path fill="none" stroke="#7F8083" stroke-width="0.29" d="M168.4,529.2c0.9,0,0.6,0.8,0.3,1.6s-0.6,1.6,0.6,1.6
			c1,0,0.8-0.8,0.6-1.6c-0.2-0.8-0.4-1.6,0.5-1.6 M170.3,532.1l-2-0.1 M170.4,530l-1.9-0.1"/>
	</g>
	<g>
		<path fill="none" d="M168.4,529.2c-0.6,0-1.2-0.1-1.8-0.1l-0.3,3.2c0.6,0.1,1.3,0.1,1.9,0.2L168.4,529.2L168.4,529.2z"/>
		<path fill="none" stroke="#7F8083" stroke-width="0.29" d="M166.5,529.1c1.9,0.2-1.5,3.1,0.8,3.3c1,0.1,0.8-0.8,0.6-1.6
			c-0.2-0.8-0.4-1.6,0.6-1.6 M168.2,532c-0.6,0-1.3-0.1-1.9-0.2 M168.4,529.9c-0.6,0-1.3-0.1-1.9-0.2"/>
	</g>
	<g>
		<path fill="none" d="M166.4,529.1c-0.6-0.1-1.2-0.1-1.8-0.2l-0.4,3.2c0.6,0.1,1.3,0.2,1.9,0.2L166.4,529.1z"/>
		<path fill="none" stroke="#7F8083" stroke-width="0.29" d="M164.5,528.9c1.9,0.3-1.6,3.1,0.7,3.4c2,0.2-0.6-3.3,1.3-3.1
			 M166.2,531.8c-0.6-0.1-1.3-0.1-1.9-0.2 M166.4,529.7c-0.6-0.1-1.3-0.1-1.9-0.2"/>
	</g>
	<g>
		<path fill="none" d="M164.5,528.9l-1.9-0.3l-0.5,3.2l2,0.3L164.5,528.9z"/>
		<path fill="none" stroke="#7F8083" stroke-width="0.29" d="M162.6,528.6c1.9,0.3-1.7,3,0.6,3.3c2,0.3-0.5-3.3,1.4-3.1
			 M164.1,531.6l-1.9-0.2 M164.4,529.5l-1.9-0.3"/>
	</g>
	<g>
		<path fill="none" d="M162.5,528.6l-1.8-0.3l-0.6,3.2l1.9,0.3L162.5,528.6z"/>
		<path fill="none" stroke="#7F8083" stroke-width="0.29" d="M160.6,528.3c1.9,0.3-1.8,3,0.5,3.4c2,0.4-0.4-3.3,1.5-3 M162.1,531.3
			l-1.9-0.3 M162.5,529.2l-1.9-0.3"/>
	</g>
	<g>
		<path fill="none" d="M160.6,528.3c-0.6-0.1-1.2-0.2-1.8-0.4l-0.7,3.2c0.6,0.2,1.3,0.3,1.9,0.4L160.6,528.3z"/>
		<path fill="none" stroke="#7F8083" stroke-width="0.29" d="M158.7,527.9c1.9,0.4-1.8,2.9,0.4,3.4c2,0.4-0.4-3.3,1.6-3 M160.1,531
			c-0.6-0.1-1.3-0.2-1.9-0.4 M160.5,528.9c-0.6-0.1-1.2-0.2-1.9-0.4"/>
	</g>
	<g>
		<path fill="none" d="M158.7,527.9l-1.9-0.4l-0.7,3.1l1.9,0.4L158.7,527.9z"/>
		<path fill="none" stroke="#7F8083" stroke-width="0.29" d="M156.8,527.4c1.9,0.4-1.9,2.9,0.3,3.4c2,0.4-0.3-3.4,1.6-2.9
			 M158.1,530.6l-1.9-0.4 M158.6,528.5l-1.9-0.4"/>
	</g>
	<g>
		<path fill="none" d="M156.7,527.4c-0.6-0.1-1.2-0.3-1.8-0.5l-0.8,3.1c0.6,0.2,1.2,0.4,1.9,0.5L156.7,527.4L156.7,527.4z"/>
		<path fill="none" stroke="#7F8083" stroke-width="0.29" d="M154.9,526.9c1.8,0.5-2,2.8,0.2,3.4c2,0.5-0.2-3.4,1.7-2.9
			 M156.1,530.1c-0.6-0.1-1.2-0.3-1.8-0.5 M156.6,528.1c-0.6-0.1-1.2-0.3-1.8-0.5"/>
	</g>
	<g>
		<path fill="none" d="M154.8,526.9l-1.8-0.5l-0.9,3.2l1.9,0.5L154.8,526.9z"/>
		<path fill="none" stroke="#7F8083" stroke-width="0.29" d="M153,526.4c1.8,0.5-2.1,2.8,0.1,3.4c2,0.5-0.1-3.4,1.8-2.8
			 M154.1,529.6l-1.9-0.5 M154.7,527.6l-1.8-0.5"/>
	</g>
</g>
</svg>
