<?xml version="1.0" encoding="utf-8"?>
<!-- Generator: Adobe Illustrator 25.0.0, SVG Export Plug-In . SVG Version: 6.00 Build 0)  -->
<svg version="1.1" id="Layer_1" xmlns="http://www.w3.org/2000/svg" xmlns:xlink="http://www.w3.org/1999/xlink" x="0px" y="0px"
	 viewBox="0 0 225 509" enable-background="new 0 0 225 509" xml:space="preserve">
<pattern  x="-225" y="651" width="1.7" height="22.1" patternUnits="userSpaceOnUse" id="b" viewBox="0.1 -22.6 1.7 22.1" overflow="visible">
	<g>
		<rect x="0.1" y="-22.6" fill="none" width="1.7" height="22.1"/>
		<g>
			<path fill="none" d="M0.1-0.5h1.7v-22.1H0.1V-0.5z"/>
			<path fill="none" stroke="#808184" stroke-width="0.25" stroke-miterlimit="10" d="M0.1,0v-23.4 M0.9,0v-23.4"/>
			<path fill="none" d="M1.1-0.7h1.1v-22H1.1V-0.7z"/>
		</g>
	</g>
</pattern>
<pattern  x="-225" y="651" width="1.7" height="22.1" patternUnits="userSpaceOnUse" id="c" viewBox="0.1 -22.6 1.7 22.1" overflow="visible">
	<g>
		<rect x="0.1" y="-22.6" fill="none" width="1.7" height="22.1"/>
		<g>
			<path fill="none" d="M0.1-0.5h1.7v-22.1H0.1V-0.5z"/>
			<path fill="none" stroke="#808184" stroke-width="0.25" stroke-miterlimit="10" d="M0.1,0v-23.4 M0.9,0v-23.4"/>
			<path fill="none" d="M1.1-0.7h1.1v-22H1.1V-0.7z"/>
		</g>
	</g>
</pattern>
<path fill="#808080" d="M21.3,271.5c0.1,0,0.1-8.7,0-8.7C21.2,262.7,21.2,271.5,21.3,271.5z"/>
<path fill="#2AA872" d="M116.9,5.8h-3.1h0.4C93.7,5.6,64.5,5.5,27.6,7c-0.4,1-1.1,3.9-1.3,5.9c-0.5,3.7,0.3,4.6-0.4,7.5
	c-0.6,2.3-1.3,2.2-2.2,5.1c-0.6,2.1-0.7,3.4-0.9,5.1c-0.3,2.1-0.8,5.2-2.2,8.9c0,0-11.2,33.4-9.8,103.7c0.1,8,4.5,148.6,4.5,148.6
	c7,102,6.5,136.4,8.8,145.1c-0.6,5.9,4.8,24.2,9.1,36.2c1.1,4.3,6.6,25.1,7.1,29.1c5.5,0,31.9-1.1,39.4-1.1
	c0.9-2.8,3.4-35.2,4.8-38.6c7.8-30.4,8.4-51,9.6-75.7l4.6-73c0,0,3.7-149.5,16.6-165.6l-0.4,0.3l0.2-0.3l0.4,0.3h-0.1l0.4-0.3
	l0.2,0.3l-0.4-0.3C128,164.5,131.7,314,131.7,314l4.6,73c1.2,24.8,1.8,45.3,9.6,75.7c1.3,3.4,3.9,35.8,4.8,38.6
	c7.5,0,33.9,1.1,39.4,1.1c0.4-4,6-24.9,7.1-29.1c4.3-12,9.7-30.3,9.1-36.2c2.3-8.8,1.9-43.2,8.8-145.1c0,0,4.4-140.6,4.5-148.6
	c1.3-70.3-9.8-103.7-9.8-103.7c-1.4-3.8-2-6.8-2.2-8.9c-0.2-1.7-0.2-3-0.9-5.1c-0.9-2.9-1.6-2.8-2.2-5.1c-0.8-2.9,0.1-3.8-0.4-7.5
	c-0.3-2-1-5-1.3-5.9c-36.9-1.5-66.1-1.4-86.6-1.2h0.4h-3.1"/>
<path fill="#6D6E70" d="M117.5,5.1h-3.1c-0.9,0-3.1,1.4-1.2,1.4h0.4c0.9,0,3.1-1.3,1.2-1.4c-28.9-0.3-57.7,0-86.6,1.2
	c-0.5,0-1.8,0.3-2,0.9c-0.9,2.6-1.5,5.6-1.5,8.4c0,2.8,0,5-1.4,7.6c-1.5,2.9-1.7,5.9-2.2,9.1c-0.4,2.6-1.2,5.1-2.1,7.6
	c-0.8,2.4-1.4,4.8-2,7.3c-4.2,17.8-6.1,36.2-7.2,54.4c-1,17.7-1,35.3-0.5,53c0.4,15.1,0.9,30.3,1.4,45.4c0.6,18.2,1.1,36.4,1.7,54.5
	c0.4,11.7,0.7,23.5,1.1,35.2c0.2,7.5,0.9,15,1.4,22.4c0.9,14.6,1.8,29.2,2.6,43.7c1,18.7,1.9,37.5,2.8,56.2
	c0.4,7.9,0.3,16.2,1.8,24.1c0.5,2.5,0.4,5.2,0.8,7.7c1.1,6.4,3,12.6,4.9,18.8c1.5,4.9,3.3,9.6,4.6,14.5c1.3,4.8,2.5,9.6,3.7,14.5
	c0.9,3.6,2,7.3,2.4,11.1c0,0.3,0.7,0.3,0.8,0.3c13.1,0,26.3-1.1,39.4-1.1c0.5,0,1.9-0.3,2-0.9c0.5-1.7,0.6-3.6,0.8-5.4
	c0.4-3.4,0.7-6.8,1.1-10.2c0.7-6.7,1.2-13.4,2.3-20c0.5-3.2,1.5-6.4,2.2-9.6c1.4-6,2.6-12,3.6-18.1c1.7-10.7,2.8-21.5,3.4-32.3
	c1.4-23.8,2.8-47.7,4.3-71.5c0.8-12.2,1.4-24.4,1.8-36.6c0.9-26.4,2.2-52.8,4.3-79.1c1.1-13.5,2.3-27,4.2-40.4
	c1.2-8.8,2.3-18.2,5.8-26.4c0.5-1.1,1-2.1,1.7-3.1c0.8-1-2.1-0.3-2.5-0.1c-0.1,0.1-0.3,0.2-0.4,0.3c0.9,0,1.7-0.1,2.6-0.1
	c0.1-0.1,0.1-0.2,0.2-0.3c-0.9,0.2-1.9,0.5-2.8,0.7c0.1,0.1,0.3,0.2,0.4,0.3c0.7-0.4,1.3-0.8,2-1.2h-0.1c0.2,0.3,0.4,0.5,0.5,0.8
	c0.1-0.1,0.3-0.2,0.4-0.3c-0.9,0.1-1.7,0.2-2.6,0.3c0.1,0.1,0.1,0.2,0.2,0.3c0.9-0.3,1.9-0.6,2.8-0.9c-0.1-0.1-0.3-0.2-0.4-0.3
	c-0.6-0.4-3.3,0.3-2.7,1c1.8,2.3,2.6,5.3,3.4,8c1.2,4.4,2.1,8.9,2.9,13.4c2.1,12.7,3.4,25.5,4.6,38.3c2.4,27.3,3.8,54.6,4.9,81.9
	c0.5,11.8,0.8,23.5,1.5,35.3c1.4,21.5,3,43,4,64.6c1.1,22.4,2.8,44.6,7.9,66.5c0.7,3.1,1.7,6.2,2.2,9.4c0.5,3,0.8,6,1.1,9.1
	c0.8,7,1.4,14,2.2,21c0.2,1.7,0.3,3.6,0.8,5.2c0.1,0.3,0.6,0.3,0.8,0.3c13.1,0,26.3,1.1,39.4,1.1c0.4,0,2-0.3,2-0.9
	c0.4-3.8,1.6-7.6,2.5-11.4c1.2-4.8,2.4-9.6,3.7-14.4c2.9-11.2,7.5-21.9,9.4-33.4c0.4-2.5,0.3-5,0.8-7.5c0.2-1.2,0.4-2.4,0.5-3.6
	c0.4-3.9,0.6-7.9,0.9-11.8c0.9-15.7,1.5-31.3,2.3-47c0.6-12.7,1.4-25.3,2.1-38c0.9-14.6,2.1-29.1,2.8-43.7
	c0.4-8.6,0.5-17.2,0.8-25.8c0.5-17.4,1.1-34.9,1.6-52.3l1.5-50.4c0.4-13.1,0.8-26.3,0.6-39.4c-0.3-22.9-1.8-46-6.2-68.5
	c-0.9-4.6-1.9-9.2-3.2-13.8c-0.2-0.6-0.4-1.3-0.6-1.9c-0.9-2.7-1.7-5.3-2.1-8.2c-0.5-3.1-0.7-5.9-2.2-8.7c-1.3-2.4-1.3-4.6-1.3-7.2
	c0-2.8-0.6-5.9-1.5-8.6c-0.1-0.2-0.4-0.3-0.5-0.3c-29-1.2-57.9-1.5-86.9-1.2c-0.9,0-3.1,1.4-1.2,1.4h0.4c0.9,0,3.1-1.3,1.2-1.4h-3.1
	c-0.9,0-3.1,1.3-1.2,1.4h3.1c0.4-0.5,0.8-0.9,1.2-1.4h-0.4c-0.4,0.5-0.8,0.9-1.2,1.4c13.6-0.2,27.1-0.2,40.7,0
	c8.5,0.1,17,0.3,25.5,0.5c4.9,0.1,9.8,0.3,14.7,0.5c1.1,0,2.3,0.1,3.4,0.1c1.3,0.1,1.5-0.1,1.8,1.1c0.4,1.6,0.8,3.3,1,5
	c0.4,3.2-0.3,6.1,1.2,9c1.6,3.1,2,6,2.5,9.4c0.5,3,1.5,5.8,2.3,8.7c1.3,4.2,2.2,8.5,3.1,12.8c5,24.6,6.5,50,6.6,75.1
	c0.1,13.6-0.4,27.1-0.8,40.7c-0.6,19.3-1.2,38.6-1.8,58c-0.5,17.3-1.1,34.6-1.6,52c-0.5,16.7-1.8,33.4-2.8,50.1
	c-1.5,24.5-2.8,48.9-3.9,73.4c-0.5,10.5-0.5,21.3-2,31.7c-0.2,1.4-0.5,2.6-0.5,4c0.1,6.1-2.1,12.5-3.7,18.2
	c-1.8,6.2-4.2,12.3-5.8,18.5c-1.3,5-2.6,9.9-3.8,14.9c-1,4.1-2.3,8.3-2.8,12.5c0.7-0.3,1.4-0.6,2-0.9c-13.1,0-26.3-1.1-39.4-1.1
	c0.3,0.1,0.6,0.2,0.8,0.3c-0.5-1.7-0.6-3.6-0.8-5.4c-0.4-3.4-0.7-6.8-1.1-10.2c-0.7-6.7-1.2-13.4-2.3-20c-0.5-3.4-1.6-6.7-2.3-10
	c-1.4-6.1-2.6-12.3-3.6-18.5c-1.7-10.6-2.7-21.3-3.3-32c-1.4-23.9-2.8-47.8-4.3-71.6c-0.8-12.2-1.3-24.3-1.8-36.6
	c-0.9-26.3-2.2-52.7-4.3-79c-1.1-13.5-2.3-27.1-4.2-40.5c-1.2-8.6-2.3-18.1-5.9-26.2c-0.5-1.1-1-2.1-1.7-3c-0.9,0.3-1.8,0.7-2.7,1
	c0.1,0.1,0.3,0.2,0.4,0.3c0.5,0.3,3.2-0.2,2.8-0.9c-0.1-0.1-0.1-0.2-0.2-0.3c-0.4-0.7-2.1-0.1-2.6,0.3c-0.1,0.1-0.3,0.2-0.4,0.3
	c-0.7,0.5,0,0.8,0.5,0.8h0.1c0.3,0,2.7-0.7,2-1.2c-0.1-0.1-0.3-0.2-0.4-0.3c-0.7-0.5-2.4,0-2.8,0.7c-0.1,0.1-0.1,0.2-0.2,0.3
	c-0.4,0.8,2.3,0.1,2.6-0.1c0.1-0.1,0.3-0.2,0.4-0.3c-0.8,0-1.6,0-2.5-0.1c-1.8,2.2-2.7,5.1-3.4,7.8c-1.3,4.3-2.1,8.7-2.9,13.2
	c-2.2,12.6-3.5,25.3-4.6,38c-2.4,27.4-3.9,54.9-4.9,82.3c-0.5,11.8-0.8,23.7-1.5,35.5c-1.3,21.2-3,42.4-4,63.6
	c-1.1,22.7-2.7,45.2-7.9,67.4c-0.8,3.2-1.7,6.4-2.3,9.7c-0.5,3.1-0.8,6.1-1.1,9.2c-0.8,7-1.4,14-2.2,21c-0.2,1.7-0.3,3.6-0.8,5.2
	c0.7-0.3,1.4-0.6,2-0.9c-13.1,0-26.3,1.1-39.4,1.1c0.3,0.1,0.6,0.2,0.8,0.3c-0.4-3.8-1.6-7.6-2.5-11.4c-1.2-4.8-2.4-9.6-3.7-14.4
	c-2.9-11.2-7.5-21.9-9.4-33.4c-0.4-2.5-0.3-5-0.8-7.5c-0.2-1.2-0.4-2.4-0.5-3.6c-0.4-3.9-0.6-7.8-0.9-11.8
	c-0.9-15.7-1.5-31.4-2.3-47.1c-0.6-12.7-1.4-25.4-2.1-38.1c-0.9-14.4-2.1-28.8-2.8-43.3c-0.4-8.6-0.5-17.2-0.8-25.8
	c-0.5-17.4-1.1-34.9-1.6-52.3l-1.5-50.3c-0.4-13.1-0.8-26.1-0.6-39.2c0.3-23.1,1.8-46.3,6.2-69c0.9-4.6,1.9-9.1,3.1-13.6
	c0.2-0.6,0.4-1.3,0.6-1.9c0.9-2.7,1.7-5.3,2.1-8.2c0.5-3.1,0.7-5.9,2.2-8.7c1.2-2.3,1.4-4.3,1.3-6.8c-0.1-3,0.5-6.2,1.5-9
	c-0.7,0.3-1.4,0.6-2,0.9C55.6,6,84.4,5.7,113.3,6c0.4-0.5,0.8-0.9,1.2-1.4h-0.4c-0.4,0.5-0.8,0.9-1.2,1.4h3.1
	C117.2,6.4,119.4,5.1,117.5,5.1L117.5,5.1z"/>
<pattern  id="SVGID_1_" xlink:href="#b" patternTransform="matrix(1.9252 0 0 -1.6991 14369.7344 -29573.9414)">
</pattern>
<path fill="url(#SVGID_1_)" d="M34.6,473.4c0,0,37.2-1.2,47-2.2c0.3,9-0.6,13.3-2.7,24.1c-0.4,2.3-1,4.5-1.5,6.6
	c-12.4,0.3-24.9,0.5-37.3,0.8L34.6,473.4L34.6,473.4z"/>
<path fill="none" d="M32.2,472.8c0,0,34.2,0.3,50.3-2.1"/>
<pattern  id="SVGID_2_" xlink:href="#c" patternTransform="matrix(-1.9252 0 0 -1.6991 -45481.2695 -29573.4668)">
</pattern>
<path fill="url(#SVGID_2_)" d="M195.2,473c0,0-37.2-1.2-47-2.2c-0.3,9,0.6,13.3,2.7,24.1c0.4,2.3,1,4.5,1.5,6.6
	c12.4,0.3,24.9,0.5,37.3,0.8L195.2,473L195.2,473z"/>
<path fill="none" d="M197.6,472.4c0,0-34.2,0.3-50.3-2.1"/>
<path fill="#7F8082" stroke="#7F8082" stroke-width="3.300000e-02" d="M125.2,142.6c0.9-0.3,1.8-0.6,2.6-0.6c0.7,0,1.1,0.4,1.3,1
	l0.3-0.7c-12,5.9-18.4,9.6-18.4,9.6s8.8-3.9,11.9-5.3c2.8-1.3,6-2.7,7.1-3.2l0.5-0.2l-0.1-0.5c-0.1-0.5-0.4-0.9-0.7-1.3
	c-0.4-0.4-0.8-0.5-1.2-0.6c-0.8-0.1-1.4,0-1.8,0.1c-1,0.2-1.5,0.4-1.9,0.6c-2.3,0.9-4.3,2.2-6.3,3.4c-2,1.2-4,2.5-6,3.8l-11.7,8
	l0.7,1.1l11.8-8c2-1.3,4-2.6,6-3.8C121.1,144.7,123.1,143.5,125.2,142.6L125.2,142.6z"/>
<path fill="#808080" d="M31.5,402.7c0.1,0,0.1-8.7,0-8.7C31.4,393.9,31.4,402.7,31.5,402.7z"/>
<path fill="none" stroke="#6D6E70" stroke-width="0.96" stroke-miterlimit="10" d="M112.6,47.3l1.8,101.5"/>
<path fill="none" stroke="#6D6E70" stroke-width="2" stroke-miterlimit="10" d="M20.4,37.4c0,0,94.6,21.6,187.3-0.5"/>
<path fill="#6D6E70" d="M25.4,20.9c3.2,0.7,6.5,1.3,9.8,1.9c8.8,1.6,17.6,2.8,26.4,3.8c12.8,1.5,25.7,2.5,38.5,2.9
	c15.5,0.6,31,0.4,46.4-0.8c16.9-1.2,33.7-3.5,50.2-7.3c2.1-0.5,4.1-1,6.2-1.5c0.5-0.1,1.4-0.6,1.2-1.2c-0.2-0.7-1.2-0.6-1.7-0.5
	c-16.3,4.1-33,6.7-49.8,8.1c-15.5,1.4-31.1,1.7-46.7,1.3c-13.1-0.3-26.1-1.2-39.1-2.6c-9.3-1-18.5-2.2-27.7-3.8
	c-4-0.7-7.9-1.6-11.8-2.3h-0.2c-0.7-0.2-1.6,0-2,0.5C24.6,20.1,24.7,20.7,25.4,20.9L25.4,20.9z"/>
<path fill="#6D6E70" d="M22.4,26.1c2.9,0.8,5.9,1.4,8.9,2c8.2,1.7,16.5,3,24.8,4.1c12.6,1.6,25.3,2.6,38,3.1
	c16,0.6,32.1,0.3,48.1-0.9c18.9-1.4,37.7-4.1,56.2-8c2.4-0.5,4.8-1,7.2-1.6c0.3-0.1,1.4-0.4,1.3-0.9s-1.3-0.2-1.6-0.1
	c-18.5,4.3-37.3,7.2-56.2,8.9c-16.2,1.4-32.5,1.9-48.7,1.5c-12.9-0.3-25.8-1.2-38.7-2.8c-8.7-1-17.4-2.4-26-4.1
	c-3.6-0.7-7.1-1.7-10.7-2.4h-0.1c-0.6-0.2-1.5,0.1-2,0.4C22.4,25.5,21.7,26,22.4,26.1L22.4,26.1z"/>
<path fill="#7F8082" stroke="#7F8082" stroke-width="4.400000e-02" d="M25.1,323.7c3.8,18.8,7,33.6,9,43.8c1,5.1,1.8,9,2.2,11.7
	c0.5,2.7,0.7,4,0.7,4s-0.2-1.4-0.5-3.6s-0.7-5.2-1.2-8.4s-1.1-6.7-1.6-9.9c-0.6-3.2-1-6-1.4-7.9c-2.2-12.3-5-26.5-5.8-30.5
	c-4.2-21.4-8-43-8.8-64.9l-1.7,0.1C17,280.3,20.8,302.1,25.1,323.7L25.1,323.7z M197.2,382.6c-3.7,18.8-6.6,33.7-8.2,44
	c-0.8,5.1-1.4,9.1-1.6,11.8c-0.3,2.7-0.5,4.1-0.5,4.1s0.2-1.4,0.6-3.6c0.3-2.2,0.9-5.2,1.5-8.4s1.3-6.7,1.9-9.8
	c0.7-3.1,1.2-5.9,1.6-7.9c2.6-12.2,5.6-26.4,6.4-30.4c4.2-21.5,8-43.2,8.8-65.1l-1.7-0.1C205.2,339.2,201.4,361,197.2,382.6
	L197.2,382.6z"/>
<path fill="none" stroke="#6D6E70" stroke-width="0.96" stroke-miterlimit="10" d="M26.7,8.3c0,0,32.7,8.7,84.2,8.3
	c0,0,65.4,0,91.3-9.9"/>
<path opacity="0.34" fill="#231F20" enable-background="new    " d="M110,6.6c0,0-78.8-1.2-83.7,2c0,0,35.4,8.7,85.5,7.5
	c0,0,62.2,0,85.1-8.3C196.8,7.8,157.4,6.2,110,6.6z"/>
<g>
	<path fill="#7F8082" stroke="#7F8082" stroke-width="5.000000e-02" d="M57.1,473.9c5.1-0.2,9.6-1.4,13.3-2.6l0.2-0.1l0.1-0.1
		c2.6-2.4,4.9-4.6,7-6.4c0.5-0.5,1-0.9,1.5-1.3c0.2-0.2,0.5-0.4,0.7-0.5H80l0,0l0,0h-0.1c-0.1,0-0.2,0-0.2-0.1
		c-0.1,0-0.2-0.2-0.2-0.3v-0.1l0,0l0,0c-0.1,0.1-0.1,0.2-0.2,0.3c-0.7,0.9-1.4,1.7-2,2.4c-2.5,2.8-3.8,4.3-3.8,4.3s0.6-0.6,1.5-1.4
		c0.9-0.9,2.2-2.1,3.6-3.5c0.3-0.3,0.7-0.7,1-1.1c0.2-0.2,0.3-0.4,0.5-0.6c0-0.1,0.1-0.1,0.1-0.3c0,0,0-0.3-0.1-0.4
		c-0.1-0.1-0.3-0.1-0.3-0.1c-0.1,0-0.2,0-0.2,0.1c-0.2,0.1-0.3,0.1-0.4,0.2c-0.9,0.6-1.6,1.2-2.4,1.7c-1.5,1.2-2.8,2.2-3.7,3
		c-1.4,1.2-2.9,2.4-3.5,2.9l0.3-0.2c-6.3,1.9-11.4,2.2-13.2,2.2c-3.2,0.1-6.6-0.1-9.6-0.8l0.3,0.1c-3.9-2.7-7.9-5.3-11.9-7.9
		c-0.5-0.3-1-0.6-1.6-0.9c-0.3-0.2-0.5-0.3-0.9-0.5c-0.1,0-0.2-0.1-0.3-0.1c0,0-0.2-0.1-0.4-0.1c0,0-0.2,0-0.4,0.1s-0.3,0.2-0.4,0.4
		s-0.2,0.4-0.2,0.6c0,0.3,0,0.2,0.1,0.3c0,0.1,0.1,0.2,0.1,0.3l0.1,0.1c0.1,0.1,0.1,0.1,0.1,0.2l0.2,0.2c0.9,0.9,1.8,1.6,2.8,2.4
		c1.9,1.5,3.7,3,5.6,4.4l1.2-1.6c-1.9-1.4-3.7-2.9-5.6-4.4c-0.9-0.7-1.9-1.5-2.6-2.2l-0.1-0.1l0,0l0,0c0,0,0.1,0.1,0.1,0.2v0.2
		c0,0.2-0.1,0.4-0.1,0.5c-0.1,0.1-0.2,0.3-0.4,0.3c-0.2,0.1-0.4,0.1-0.4,0.1h-0.2h0.1c0.2,0.1,0.5,0.2,0.7,0.4l1.5,0.9
		c4,2.5,7.9,5.2,11.9,7.8l0.1,0.1h0.1C50.1,473.9,53.6,474,57.1,473.9L57.1,473.9z"/>
</g>
<g>
	<path fill="#7F8082" stroke="#7F8082" stroke-width="5.000000e-02" d="M169.5,469.9c-3.4-1-6.4-2.4-8.7-3.6l0.2,0.1
		c-3.6-3.3-6.8-6.1-9.7-8.5c-0.4-0.3-0.7-0.6-1.2-0.8c-0.1-0.1-0.2-0.1-0.4-0.2c-0.1,0-0.2,0-0.2-0.1c-0.1,0-0.2,0-0.4,0.1
		c-0.1,0-0.2,0.1-0.3,0.3c0,0.1-0.1,0.2-0.1,0.2v0.3c0,0.1,0,0.1,0.1,0.2c0.2,0.3,0.3,0.5,0.4,0.7c0.5,0.7,1.1,1.3,1.6,1.9
		c1.1,1.2,2,2.2,2.9,3.1c3.6,3.7,5.5,5.5,5.5,5.5s-2.4-2.8-5.1-6c-1.4-1.6-2.9-3.4-4-5.1c-0.1-0.1-0.1-0.2-0.2-0.3
		c0-0.1,0-0.1-0.1-0.1l0,0h-0.1c-0.1,0.1-0.3,0-0.3,0l0,0v0.2c0,0.1,0,0.2-0.1,0.2l0,0l0,0c0.1,0,0.2,0.1,0.3,0.2
		c0.4,0.3,0.7,0.6,1.1,0.9c0.7,0.6,1.2,1.1,1.7,1.5c3,2.8,6.3,6,7.4,7.1l0.1,0.1l0.1,0.1c2.6,1.4,4.6,2.3,6.1,2.9
		c1.5,0.6,2.6,0.9,3.2,1.1c2.9,0.8,5.8,1.3,8.8,1.5c1.5,0.1,3,0.1,4.5,0s2.9-0.2,4.5-0.6h0.2l0.2-0.1c3.5-2.5,7-4.9,10.5-7.2
		c0.4-0.3,0.9-0.5,1.3-0.8l0.6-0.3l0,0l0,0c0,0,0-0.2-0.1-0.2v-0.3v-0.2c0-0.1,0-0.2,0.1-0.2l0,0h-0.2c-0.1,0-0.3-0.1-0.4-0.2
		l-0.1-0.1h-0.1l0,0l0,0l0,0c-0.2,0.3-0.6,0.7-0.9,1.1l-1.1,1.1c-1.5,1.5-3.1,2.9-4.7,4.3l1.3,1.5c1.6-1.4,3.2-2.8,4.8-4.3l1.2-1.2
		c0.4-0.4,0.8-0.8,1.2-1.4c0.1-0.1,0.1-0.2,0.2-0.3v-0.3v-0.3c0-0.2-0.1-0.4-0.2-0.6c-0.1-0.1-0.3-0.3-0.5-0.3h-0.6
		c-0.2,0-0.2,0.1-0.4,0.1c-0.4,0.1-0.6,0.3-0.9,0.4c-0.5,0.3-1,0.5-1.4,0.8c-3.7,2.3-7.1,4.8-10.6,7.2l0.3-0.1
		c-2.7,0.6-5.7,0.7-8.5,0.5C175.1,471.2,172.2,470.7,169.5,469.9L169.5,469.9z"/>
</g>
<g>
	<g>
		<path fill="none" d="M32.6,474.3c0.8,0.1,1.6,0.3,2.3,0.4l0.6-3.9c-0.7-0.1-1.5-0.2-2.2-0.3L32.6,474.3L32.6,474.3z"/>
		<path fill="none" stroke="#7F8082" stroke-width="0.35" d="M35.1,474.7c-1.2-0.2-0.7-1.1-0.2-2s0.8-1.8-0.4-2
			c-1.2-0.2-1,0.8-0.9,1.8s0.3,2-0.9,1.8 M33.3,471.1c0.7,0.1,1.5,0.2,2.2,0.3 M32.7,473.6c0.8,0.1,1.6,0.3,2.3,0.4"/>
	</g>
	<g>
		<path fill="none" d="M35.1,474.7c0.8,0.1,1.5,0.2,2.3,0.3l0.5-3.9c-0.8-0.1-1.5-0.2-2.2-0.3L35.1,474.7L35.1,474.7z"/>
		<path fill="none" stroke="#7F8082" stroke-width="0.35" d="M37.5,475c-2.3-0.3,1.9-3.7-0.8-4c-2.4-0.3,0.7,4-1.7,3.7 M35.6,471.4
			c0.7,0.1,1.5,0.2,2.2,0.3 M35.2,474c0.8,0.1,1.6,0.2,2.3,0.3"/>
	</g>
	<g>
		<path fill="none" d="M37.6,475.1c0.8,0.1,1.5,0.2,2.3,0.3l0.4-3.9c-0.8-0.1-1.5-0.2-2.3-0.2L37.6,475.1L37.6,475.1z"/>
		<path fill="none" stroke="#7F8082" stroke-width="0.35" d="M40,475.3c-2.3-0.2,1.8-3.7-0.8-4c-2.4-0.3,0.8,4-1.6,3.7 M38,471.7
			c0.7,0.1,1.5,0.2,2.3,0.2 M37.6,474.3c0.8,0.1,1.6,0.2,2.3,0.3"/>
	</g>
	<g>
		<path fill="none" d="M40.1,475.3c0.8,0.1,1.5,0.2,2.3,0.2l0.3-3.9c-0.8-0.1-1.5-0.1-2.3-0.2L40.1,475.3z"/>
		<path fill="none" stroke="#7F8082" stroke-width="0.35" d="M42.5,475.5c-2.3-0.2,1.8-3.8-0.9-4c-2.4-0.2,0.8,4-1.6,3.7 M40.4,472
			c0.8,0.1,1.5,0.1,2.3,0.2 M40.1,474.6c0.8,0.1,1.6,0.2,2.3,0.2"/>
	</g>
	<g>
		<path fill="none" d="M42.5,475.5c0.8,0.1,1.6,0.1,2.3,0.2l0.3-3.9c-0.8,0-1.5-0.1-2.3-0.2L42.5,475.5z"/>
		<path fill="none" stroke="#7F8082" stroke-width="0.35" d="M44.9,475.7c-2.3-0.1,1.7-3.8-1-4c-2.4-0.2,0.9,4-1.5,3.8 M42.8,472.2
			c0.8,0.1,1.5,0.1,2.3,0.2 M42.6,474.8c0.8,0.1,1.6,0.1,2.4,0.2"/>
	</g>
	<g>
		<path fill="none" d="M45,475.7l2.4,0.2l0.2-3.9l-2.3-0.2L45,475.7z"/>
		<path fill="none" stroke="#7F8082" stroke-width="0.35" d="M47.4,475.9c-2.3-0.1,1.6-3.8-1.1-4c-2.4-0.2,1,3.9-1.4,3.8
			 M45.3,472.4l2.2,0.1 M45,475l2.4,0.1"/>
	</g>
	<g>
		<path fill="none" d="M47.5,475.9l2.3,0.1l0.2-3.9l-2.3-0.1L47.5,475.9z"/>
		<path fill="none" stroke="#7F8082" stroke-width="0.35" d="M49.9,476c-2.3-0.1,1.6-3.8-1.1-4c-2.4-0.1,1,3.9-1.4,3.8 M47.7,472.5
			l2.3,0.1 M47.5,475.1l2.4,0.1"/>
	</g>
	<g>
		<path fill="none" d="M50,476c0.8,0,1.6,0,2.3,0.1l0.1-3.9c-0.8,0-1.5,0-2.3-0.1L50,476z"/>
		<path fill="none" stroke="#7F8082" stroke-width="0.35" d="M52.4,476c-2.4,0,1.5-3.9-1.2-3.9c-2.4-0.1,1.1,3.9-1.3,3.8
			 M50.1,472.6c0.8,0,1.5,0,2.3,0.1 M50,475.2c0.8,0,1.6,0,2.4,0.1"/>
	</g>
	<g>
		<path fill="none" d="M52.5,476l2.3,0.1v-3.9l-2.3-0.1V476z"/>
		<path fill="none" stroke="#7F8082" stroke-width="0.35" d="M54.9,476.1c-2.4,0,1.4-3.9-1.2-3.9c-2.4,0,1.2,3.9-1.2,3.9
			 M52.5,472.7h2.3 M52.4,475.3h2.4"/>
	</g>
	<g>
		<path fill="none" d="M54.9,476.1h2.4l-0.1-4H55L54.9,476.1z"/>
		<path fill="none" stroke="#7F8082" stroke-width="0.35" d="M57.4,476.1c-2.4,0,1.4-3.9-1.3-3.9c-2.4,0,1.2,3.9-1.2,3.9 M55,472.7
			h2.2 M54.9,475.3h2.4"/>
	</g>
	<g>
		<path fill="none" d="M57.4,476.1h2.3l-0.1-3.9h-2.3L57.4,476.1z"/>
		<path fill="none" stroke="#7F8082" stroke-width="0.35" d="M59.8,476c-2.4,0.1,1.3-4-1.4-3.9c-2.4,0,1.3,3.9-1.1,3.9 M57.4,472.7
			h2.3 M57.4,475.3h2.4"/>
	</g>
	<g>
		<path fill="none" d="M59.9,476l2.3-0.1l-0.1-3.9l-2.3,0.1L59.9,476z"/>
		<path fill="none" stroke="#7F8082" stroke-width="0.35" d="M62.3,475.9c-2.4,0.1,1.3-4-1.4-3.9c-2.4,0.1,1.3,3.8-1.1,3.9
			 M59.8,472.7l2.3-0.1 M59.8,475.2h2.4"/>
	</g>
	<g>
		<path fill="none" d="M62.4,475.9c0.8,0,1.6-0.1,2.3-0.1l-0.2-3.9c-0.8,0-1.5,0.1-2.3,0.1L62.4,475.9z"/>
		<path fill="none" stroke="#7F8082" stroke-width="0.35" d="M64.8,475.8c-2.3,0.1,1.2-4-1.5-3.8c-2.4,0.1,1.4,3.8-1,3.9
			 M62.3,472.6c0.8,0,1.5-0.1,2.3-0.1 M62.3,475.2c0.8,0,1.6-0.1,2.4-0.1"/>
	</g>
	<g>
		<path fill="none" d="M64.9,475.8l2.3-0.2l-0.3-3.9l-2.3,0.2L64.9,475.8z"/>
		<path fill="none" stroke="#7F8082" stroke-width="0.35" d="M67.3,475.6c-2.3,0.1,1.1-4-1.5-3.8c-2.4,0.1,1.5,3.8-0.9,3.9
			 M64.7,472.4l2.2-0.1 M64.8,475l2.3-0.1"/>
	</g>
	<g>
		<path fill="none" d="M67.3,475.6l2.4-0.2l-0.4-3.9l-2.2,0.2L67.3,475.6z"/>
		<path fill="none" stroke="#7F8082" stroke-width="0.35" d="M69.7,475.4c-2.3,0.2,1.1-4-1.6-3.8c-2.4,0.2,1.5,3.8-0.9,4
			 M67.1,472.3l2.3-0.2 M67.2,474.9l2.4-0.2"/>
	</g>
	<g>
		<path fill="none" d="M69.8,475.4l2.3-0.2l-0.4-3.9l-2.2,0.2L69.8,475.4z"/>
		<path fill="none" stroke="#7F8082" stroke-width="0.35" d="M72.2,475.2c-2.3,0.2,1-4-1.7-3.8c-2.4,0.2,1.6,3.8-0.8,4 M69.5,472.1
			l2.3-0.2 M69.7,474.6l2.4-0.2"/>
	</g>
	<g>
		<path fill="none" d="M72.3,475.2l2.3-0.3l-0.5-3.9l-2.2,0.3L72.3,475.2z"/>
		<path fill="none" stroke="#7F8082" stroke-width="0.35" d="M74.7,474.9c-2.3,0.3,0.9-4.1-1.7-3.7c-2.4,0.3,1.6,3.7-0.7,4
			 M71.9,471.9l2.3-0.3 M72.2,474.4l2.3-0.3"/>
	</g>
	<g>
		<path fill="none" d="M74.8,474.9l2.3-0.3l-0.6-3.9l-2.2,0.3L74.8,474.9z"/>
		<path fill="none" stroke="#7F8082" stroke-width="0.35" d="M77.1,474.6c-2.3,0.3,0.9-4-1.8-3.7c-2.4,0.3,1.7,3.7-0.7,4
			 M74.4,471.6l2.2-0.3 M74.6,474.1l2.4-0.3"/>
	</g>
	<g>
		<path fill="none" d="M77.2,474.6l2.3-0.4l-0.6-3.9l-2.2,0.4L77.2,474.6z"/>
		<path fill="none" stroke="#7F8082" stroke-width="0.35" d="M79.6,474.2c-2.3,0.4,0.8-4.1-1.8-3.7c-2.4,0.4,1.8,3.6-0.6,4
			 M76.8,471.3l2.2-0.4 M77.1,473.8l2.3-0.4"/>
	</g>
	<g>
		<path fill="none" d="M79.7,474.2l2.3-0.4l-0.7-3.9l-2.2,0.4L79.7,474.2z"/>
		<path fill="none" stroke="#7F8082" stroke-width="0.35" d="M82.1,473.8c-2.3,0.4,0.7-4.1-1.9-3.7c-2.4,0.4,1.8,3.6-0.5,4
			 M79.2,470.9l2.2-0.4 M79.5,473.4l2.3-0.3"/>
	</g>
</g>
<g>
	<g>
		<path fill="none" d="M146.1,472.8l2.2,0.3l0.6-3.9l-2.1-0.3L146.1,472.8z"/>
		<path fill="none" stroke="#909090" stroke-width="0.35" d="M148.4,473.1c-2.2-0.3,1.9-3.7-0.6-4c-1.1-0.2-1,0.8-0.9,1.8
			s0.3,2-0.9,1.8 M146.7,469.5l2.1,0.3 M146.2,472l2.2,0.4"/>
	</g>
	<g>
		<path fill="none" d="M148.5,473.1l2.2,0.3l0.5-3.8l-2.2-0.3L148.5,473.1z"/>
		<path fill="none" stroke="#909090" stroke-width="0.35" d="M150.8,473.5c-2.2-0.3,1.9-3.7-0.7-4c-2.3-0.3,0.6,4-1.7,3.7
			 M149,469.8l2.1,0.3 M148.5,472.4l2.3,0.3"/>
	</g>
	<g>
		<path fill="none" d="M150.8,473.5l2.3,0.2l0.4-3.9l-2.2-0.2L150.8,473.5z"/>
		<path fill="none" stroke="#909090" stroke-width="0.35" d="M153.1,473.7c-2.2-0.3,1.8-3.7-0.7-4c-2.3-0.3,0.7,4-1.6,3.7
			 M151.3,470.1l2.1,0.3 M150.9,472.7l2.2,0.3"/>
	</g>
	<g>
		<path fill="none" d="M153.2,473.8l2.2,0.2l0.4-3.9l-2.1-0.2L153.2,473.8z"/>
		<path fill="none" stroke="#909090" stroke-width="0.35" d="M155.5,474c-2.3-0.2,1.8-3.7-0.8-4c-2.3-0.3,0.7,4-1.6,3.7
			 M153.6,470.4l2.2,0.3 M153.2,473l2.3,0.2"/>
	</g>
	<g>
		<path fill="none" d="M155.6,474l2.2,0.2l0.4-3.9l-2.2-0.2L155.6,474z"/>
		<path fill="none" stroke="#909090" stroke-width="0.35" d="M157.9,474.3c-2.3-0.2,1.7-3.8-0.8-4c-2.3-0.2,0.8,4-1.5,3.7
			 M155.9,470.7l2.2,0.2 M155.6,473.2l2.3,0.3"/>
	</g>
	<g>
		<path fill="none" d="M157.9,474.3l2.3,0.1l0.3-3.9l-2.2-0.2L157.9,474.3z"/>
		<path fill="none" stroke="#909090" stroke-width="0.35" d="M160.2,474.5c-2.3-0.2,1.7-3.8-0.9-4c-2.3-0.2,0.8,4-1.5,3.8
			 M158.3,470.9l2.1,0.2 M158,473.5l2.2,0.2"/>
	</g>
	<g>
		<path fill="none" d="M160.3,474.5c0.7,0.1,1.5,0.1,2.2,0.2l0.3-3.9c-0.7,0-1.5-0.1-2.2-0.2L160.3,474.5z"/>
		<path fill="none" stroke="#909090" stroke-width="0.35" d="M162.6,474.6c-2.3-0.2,1.7-3.8-0.9-4c-2.3-0.2,0.9,4-1.4,3.8
			 M160.6,471.1c0.7,0.1,1.5,0.1,2.2,0.2 M160.3,473.7c0.8,0.1,1.5,0.1,2.3,0.2"/>
	</g>
	<g>
		<path fill="none" d="M162.7,474.6l2.2,0.2l0.3-3.9l-2.2-0.2L162.7,474.6z"/>
		<path fill="none" stroke="#909090" stroke-width="0.35" d="M165,474.8c-2.3-0.2,1.6-3.8-1-4c-2.3-0.2,0.9,4-1.4,3.8 M162.9,471.3
			l2.2,0.2 M162.7,473.9l2.3,0.1"/>
	</g>
	<g>
		<path fill="none" d="M165.1,474.8l2.2,0.1l0.2-3.9l-2.2-0.1L165.1,474.8z"/>
		<path fill="none" stroke="#909090" stroke-width="0.35" d="M167.4,474.9c-2.3-0.1,1.6-3.8-1-4c-2.4-0.1,0.9,3.9-1.4,3.8
			 M165.3,471.5l2.2,0.1 M165.1,474l2.2,0.1"/>
	</g>
	<g>
		<path fill="none" d="M167.5,474.9c0.7,0,1.5,0.1,2.2,0.1l0.2-3.9c-0.7,0-1.5-0.1-2.2-0.1L167.5,474.9z"/>
		<path fill="none" stroke="#909090" stroke-width="0.35" d="M169.8,475c-2.3-0.1,1.5-3.8-1.1-4c-2.4-0.1,1,3.9-1.3,3.8
			 M167.6,471.6c0.7,0,1.5,0.1,2.2,0.1 M167.4,474.2c0.8,0,1.5,0.1,2.3,0.1"/>
	</g>
	<g>
		<path fill="none" d="M169.8,475l2.3,0.1l0.1-3.9l-2.2-0.1L169.8,475z"/>
		<path fill="none" stroke="#909090" stroke-width="0.35" d="M172.1,475.1c-2.3-0.1,1.5-3.9-1.1-3.9c-2.4-0.1,1,3.9-1.3,3.8
			 M170,471.7l2.2,0.1 M169.8,474.3h2.3"/>
	</g>
	<g>
		<path fill="none" d="M172.2,475.1c0.7,0,1.5,0,2.2,0.1l0.1-3.9c-0.7,0-1.5,0-2.2-0.1L172.2,475.1z"/>
		<path fill="none" stroke="#909090" stroke-width="0.35" d="M174.5,475.2c-2.3,0,1.5-3.9-1.1-3.9c-2.4-0.1,1.1,3.9-1.2,3.8
			 M172.3,471.8c0.7,0,1.5,0,2.2,0.1 M172.2,474.3c0.8,0,1.5,0.1,2.3,0.1"/>
	</g>
	<g>
		<path fill="none" d="M174.6,475.2h2.2l0.1-3.9l-2.2-0.1L174.6,475.2z"/>
		<path fill="none" stroke="#909090" stroke-width="0.35" d="M176.9,475.2c-2.3,0,1.4-3.9-1.2-3.9c-2.4,0,1.1,3.9-1.2,3.9
			 M174.7,471.8l2.2,0.1 M174.6,474.4h2.2"/>
	</g>
	<g>
		<path fill="none" d="M177,475.2h2.2v-3.9H177V475.2z"/>
		<path fill="none" stroke="#909090" stroke-width="0.35" d="M179.3,475.2c-2.3,0,1.4-3.9-1.2-3.9c-2.4,0,1.2,3.9-1.2,3.9
			 M177,471.9h2.2 M176.9,474.4h2.3"/>
	</g>
	<g>
		<path fill="none" d="M179.4,475.2h2.2v-3.9h-2.2V475.2z"/>
		<path fill="none" stroke="#909090" stroke-width="0.35" d="M181.7,475.2c-2.3,0,1.3-3.9-1.3-3.9c-2.4,0,1.2,3.9-1.1,3.9
			 M179.4,471.9l2.2-0.1 M179.3,474.4h2.3"/>
	</g>
	<g>
		<path fill="none" d="M181.7,475.2h2.2l-0.1-3.9h-2.2L181.7,475.2z"/>
		<path fill="none" stroke="#909090" stroke-width="0.35" d="M184.1,475.2c-2.3,0.1,1.3-3.9-1.3-3.9c-2.4,0,1.2,3.9-1.1,3.9
			 M181.7,471.8h2.2 M181.7,474.4h2.3"/>
	</g>
	<g>
		<path fill="none" d="M184.1,475.1h2.3l-0.2-3.9H184L184.1,475.1z"/>
		<path fill="none" stroke="#909090" stroke-width="0.35" d="M186.4,475.1c-2.3,0.1,1.2-3.9-1.3-3.9c-2.4,0.1,1.3,3.8-1,3.9
			 M184.1,471.8l2.2-0.1 M184.1,474.4l2.2-0.1"/>
	</g>
	<g>
		<path fill="none" d="M186.5,475.1c0.7,0,1.5,0,2.2-0.1l-0.2-3.9c-0.7,0-1.5,0.1-2.2,0.1L186.5,475.1z"/>
		<path fill="none" stroke="#909090" stroke-width="0.35" d="M188.8,475c-2.3,0.1,1.2-4-1.4-3.8c-2.4,0.1,1.3,3.8-1,3.9
			 M186.4,471.7c0.7,0,1.5,0,2.2-0.1 M186.4,474.3c0.8,0,1.5,0,2.3-0.1"/>
	</g>
	<g>
		<path fill="none" d="M188.9,475l2.2-0.1l-0.2-4l-2.2,0.2L188.9,475z"/>
		<path fill="none" stroke="#909090" stroke-width="0.35" d="M191.2,474.9c-2.3,0.1,1.2-4-1.4-3.8c-2.4,0.1,1.4,3.8-1,3.9
			 M188.8,471.6l2.1-0.1 M188.8,474.2l2.3-0.1"/>
	</g>
	<g>
		<path fill="none" d="M191.3,474.9c0.7,0,1.5-0.1,2.2-0.1l-0.3-3.9c-0.7,0.1-1.5,0.1-2.2,0.1L191.3,474.9z"/>
		<path fill="none" stroke="#909090" stroke-width="0.35" d="M193.6,474.7c-2.3,0.2,1.1-4-1.5-3.8c-2.4,0.1,1.4,3.8-0.9,3.9
			 M191.1,471.5c0.7,0,1.5-0.1,2.2-0.1 M191.2,474.1c0.8,0,1.5-0.1,2.3-0.1"/>
	</g>
	<g>
		<path fill="none" d="M193.7,474.7l2.2-0.2l-0.3-3.9l-2.2,0.2L193.7,474.7z"/>
		<path fill="none" stroke="#909090" stroke-width="0.35" d="M196,474.5c-2.3,0.2,1.1-4-1.5-3.8c-2.3,0.2,1.4,3.8-0.9,4
			 M193.4,471.4l2.2-0.2 M193.6,473.9l2.2-0.1"/>
	</g>
	<g>
		<path fill="none" d="M196,474.5l2.3-0.1l-0.4-4l-2.2,0.2L196,474.5z"/>
		<path fill="none" stroke="#909090" stroke-width="0.35" d="M198.3,474.3c-2.3,0.2,1-4-1.6-3.8c-2.3,0.2,1.5,3.8-0.8,4
			 M195.8,471.2l2.2-0.2 M195.9,473.8l2.3-0.2"/>
	</g>
</g>
<g>
	<path fill="#2AA872" d="M102.6,48.4c0,3.3,0,6.6-0.1,9.9c0.2-4,0.4-8,0.7-12"/>
	<path fill="#6D6E70" d="M102.5,45.9c0,3.3,0,6.6-0.1,9.9v7.4c0.2-4,0.4-8,0.7-12c0.1-2,0-4.1,0-6.2v-3v-0.5c-0.2,4-0.4,8-0.7,12
		c0,2.4,0,4.9,0.1,7.3c0-3.3,0-6.6,0.1-9.9v-6.8v-0.5C102.5,44.4,102.6,45.2,102.5,45.9L102.5,45.9z"/>
	<ellipse fill="#2AA872" stroke="#6D6E70" stroke-width="2" stroke-miterlimit="10" cx="100.3" cy="31.8" rx="4.2" ry="3.6"/>
	<ellipse fill="#2AA872" stroke="#6D6E70" stroke-width="2" stroke-miterlimit="10" cx="125.6" cy="31.9" rx="4.2" ry="3.6"/>
	<path fill="#2AA872" d="M101.2,30.3c0,0,17.1,3.7,26.5-0.2c2.4-0.2,3.5,7.4-26.9,4C100.8,34,97.4,29.8,101.2,30.3z"/>
	<path fill="#6D6E70" d="M100.3,30.8c4.2,0.9,8.6,1.4,12.9,1.5c3.4,0.1,7,0,10.3-0.7c0.8-0.2,1.5-0.4,2.3-0.6
		c0.4-0.1,0.7-0.4,1.1-0.4c0.2,0,0.4,0.1,0.5,0.2c1.1,0.8-0.2,2-0.9,2.5c-0.5,0.4,1.9-1,1.1-0.6c-0.1,0.1-0.3,0.1-0.4,0.2
		c-0.3,0.1-0.6,0.3-0.9,0.4c-0.8,0.3-1.6,0.5-2.4,0.6c-2.5,0.5-5,0.6-7.5,0.7c-3.9,0.1-7.9-0.2-11.8-0.6c-0.5-0.1-1.1-0.1-1.6-0.2
		c-0.4,0-1.1,0-1.4-0.2c-0.2-0.1-0.4-0.5-0.5-0.7c-0.4-0.6-1.2-1.8-0.8-2.6c0-0.1,0.1-0.1,0.1-0.2l0.1-0.1c-0.5,0.3-1,0.6-1.5,0.8
		c0.1,0,0.1,0,0.2-0.1C99.6,30.7,99.9,30.7,100.3,30.8c0.2,0,0.7-0.4,0.9-0.5c0.2-0.1,0.7-0.5,0.9-0.5c-0.8-0.1-1.3,0.1-2,0.5
		c-0.5,0.3-1.3,0.5-1.5,1.2c-0.2,0.9,0.6,2,1.1,2.7c0.3,0.5,0.4,0.4,1,0.5c1.2,0.1,2.5,0.3,3.8,0.4c2.2,0.2,4.3,0.3,6.5,0.4
		c3.1,0.1,6.3,0.1,9.4-0.3c1.8-0.2,3.6-0.5,5.2-1.2c0.9-0.4,1.8-1,2.7-1.5c0.4-0.2,0.7-0.5,1-0.8c0.3-0.4,0.6-0.9,0.4-1.4
		c-0.1-0.4-0.5-0.6-0.9-0.6c-0.2,0-0.4,0.1-0.6,0.2c-0.4,0.1-0.8,0.3-1.2,0.4c-0.8,0.2-1.7,0.4-2.5,0.6c-1.8,0.3-3.6,0.5-5.4,0.5
		c-5.5,0.2-11.1-0.4-16.6-1.5c-0.1,0-0.2,0-0.3-0.1c-0.2,0-0.7,0.4-0.9,0.5C101,30.3,100.5,30.8,100.3,30.8L100.3,30.8z"/>
	<path fill="#2AA872" d="M110,40.6c0,0-2.7,20.3-8.9,23.2L99,67.5c0,0,0.9,3.4,6.8-5c0,0,5.7-20.5,6.9-27.6l-1.7,2.5L110,40.6
		L110,40.6z"/>
	<path fill="#6D6E70" d="M109.1,41.1c-0.5,4-1.4,7.9-2.5,11.8c-0.8,2.8-1.7,5.6-3.2,8.1c-0.6,1-1.3,1.9-2.2,2.7
		c-0.1,0.1-0.2,0.2-0.3,0.2c-0.8,0.6,1.6-0.9,1-0.6c-0.5,0.3-1,0.6-1.5,0.8c-0.3,0.2-0.4,0.5-0.6,0.8c-0.3,0.6-0.7,1.2-1,1.7
		c-0.1,0.2-0.3,0.5-0.4,0.7c-0.1,0.1-0.3,0.3-0.3,0.5s0.1,0.3,0.2,0.4c0.3,0.3,0.7,0.3,1.1,0.2c0.6-0.2,1.1-0.6,1.7-0.9
		c0.5-0.3,1-0.6,1.5-1c1.5-1.2,2.7-2.8,3.8-4.4c0.3-0.4,0.3-0.8,0.5-1.3l1.8-6.6c1.6-6.1,3.3-12.3,4.5-18.5c0.1-0.5,0.2-1.1,0.3-1.6
		c0,0.1-0.8,0.4-0.9,0.5c-0.2,0.1-0.7,0.3-0.9,0.5c-0.3,0.5-0.6,0.9-0.9,1.4c-0.3,0.4-0.6,0.8-0.8,1.2c-0.2,0.5-0.3,1.1-0.5,1.7
		C109.4,40,109.3,40.5,109.1,41.1c0-0.1,0.7-0.4,0.9-0.5c0.2-0.1,0.8-0.3,0.9-0.5c0.1-0.5,0.3-1,0.4-1.5c0.2-0.6,0.3-1.2,0.5-1.7
		c0.2-0.4,0.5-0.8,0.8-1.1c0.3-0.5,0.7-0.9,1-1.4c-0.6,0.3-1.2,0.7-1.7,1c-0.6,3.4-1.4,6.7-2.2,10c-1,3.8-2,7.7-3,11.5
		c-0.4,1.4-0.7,2.8-1.1,4.2c-0.2,0.6-0.3,1.3-0.5,1.9c-0.1,0.3-0.3,0.5-0.5,0.7c-0.4,0.6-0.9,1.2-1.3,1.7c-0.6,0.8-1.3,1.6-2.1,2.2
		c-0.3,0.2-0.5,0.4-0.8,0.6c2.9-2,1.8-1,1.3-0.8c-0.1,0-0.1,0-0.2,0.1c-0.1,0-0.2,0.1-0.3,0.1c-0.2,0.1-0.5,0.1-0.7-0.1
		c-0.2-0.1-0.5-0.4-0.4-0.7c0-0.2,0.3-0.6,0.4-0.8c0.2-0.4,0.4-0.8,0.6-1.1c0.3-0.6,0.6-1.1,0.9-1.7c-0.6,0.3-1.2,0.7-1.7,1
		c1.8-0.8,3.3-1.9,4.4-3.5c1.2-1.7,2-3.7,2.7-5.6c1.4-4,2.4-8.1,3.1-12.2c0.2-0.9,0.3-1.9,0.4-2.8c0,0.1-0.8,0.4-0.9,0.5
		C109.8,40.6,109.1,40.9,109.1,41.1L109.1,41.1z"/>
	<path fill="#2AA872" d="M112.7,31.6c0,0,0.3,0.3,0.3,1.3c0,0-0.8,1.7-2,4.4c-4.1,8.9-11.3,27.1-10.1,31.2c0,0-2.7,3.9-4.7,1.3
		C96.1,69.8,99.1,49,112.7,31.6L112.7,31.6z"/>
	<path fill="#6D6E70" d="M111.8,32.1c0.3,0.3,0.4,1,0.3,1.3c-0.1,0.4-0.3,0.7-0.5,1c-0.8,1.6-1.5,3.2-2.2,4.8c-1.3,3-2.6,6-3.8,9.1
		c-1.3,3.2-2.5,6.5-3.5,9.8c-0.9,2.6-1.7,5.3-2.1,8c-0.1,0.8-0.2,1.7-0.1,2.5c0.1,0.3,0.1,0.3-0.2,0.6c-0.3,0.4-0.7,0.8-1.1,1.1
		c-0.1,0.1-0.2,0.2-0.4,0.3c-0.6,0.5,1.8-0.9,1.2-0.7c-0.1,0-0.1,0.1-0.2,0.1c-0.3,0.1-0.6,0.1-0.9,0.1c-0.4-0.1-1.3-0.4-1.4-0.9
		C96.8,69,97,68.6,97,68.4c0.8-4.5,2.1-8.9,3.6-13.2c2.7-7.6,6.2-14.9,10.9-21.4c0.7-0.9,1.3-1.8,2-2.7c-0.2,0.2-0.6,0.4-0.9,0.5
		C112.4,31.7,112,31.9,111.8,32.1c-5.2,6.7-9.3,14.3-12.2,22.3c-1.8,4.8-3.2,9.7-4.2,14.7c-0.1,0.3-0.2,0.8-0.2,1.1
		c0,0.2,0.3,0.4,0.5,0.6c0.5,0.4,1.1,0.5,1.8,0.3c0.8-0.3,1.5-0.8,2.2-1.2c0.5-0.3,0.9-0.7,1.3-1.1c0.2-0.2,0.6-0.5,0.6-0.8
		c0.1-0.2-0.1-0.7-0.1-0.9c-0.1-2.3,0.7-4.8,1.3-7c1-3.3,2.1-6.6,3.3-9.8c1.2-3.3,2.5-6.5,3.9-9.7c0.6-1.4,1.2-2.8,1.9-4.2
		c0.4-0.9,0.9-1.8,1.3-2.8c0.2-0.4,0.5-0.8,0.6-1.2c0.1-0.3,0-1.1-0.3-1.3C113.4,31,111.9,32.2,111.8,32.1L111.8,32.1z"/>
	<g>
		<path fill="#2AA872" d="M114.6,39.9c0,0,2.3,18.7,7.7,21.4l1.8,3.4c0,0-0.8,3.2-5.9-4.6c0,0-4.9-19-5.9-25.5l1.5,2.3L114.6,39.9
			L114.6,39.9z"/>
		<path fill="#6D6E70" d="M113.8,40.4c0.4,3.5,1.1,7,2,10.3c0.7,2.5,1.4,5.1,2.6,7.4c0.5,0.9,1,1.8,1.8,2.6c0.3,0.3,0.6,0.6,1,0.8
			c0.3,0.2,0.4,0.3,0.6,0.6c0.3,0.5,0.5,1,0.8,1.5c0.2,0.4,0.5,0.9,0.7,1.3c0.1,0.2,0.1,0.3-0.1,0.5l-0.1,0.1
			c-0.3,0.2,0,0.1,0.8-0.4c0.3-0.2,0.5-0.3,0.8-0.5H124c-0.8-0.2-1.5-1-2.1-1.6c-0.6-0.7-1.1-1.4-1.6-2.1c-0.3-0.5-0.8-1-1-1.5
			c-0.2-0.4-0.2-0.9-0.3-1.3c-0.5-2.1-1.1-4.3-1.6-6.4c-1.3-5.5-2.7-10.9-3.7-16.4c-0.1-0.5-0.2-0.9-0.2-1.4c-0.6,0.3-1.2,0.7-1.7,1
			c0.3,0.4,0.6,0.9,0.8,1.3c0.2,0.3,0.5,0.7,0.7,1.1c0.2,0.5,0.3,1,0.4,1.5C113.5,39.4,113.6,39.9,113.8,40.4c0-0.2,1.8-0.8,1.7-1
			c-0.1-0.5-0.2-0.9-0.4-1.4c-0.1-0.5-0.2-1.1-0.4-1.6c-0.2-0.4-0.4-0.7-0.7-1c-0.3-0.4-0.6-0.9-0.9-1.3c0,0-1.7,0.9-1.7,1
			c0.9,5.5,2.3,10.9,3.6,16.3l1.8,7.2c0.2,0.6,0.3,1.2,0.5,1.8c0,0.1,0,0.2,0.1,0.3c0.2,0.4,0.6,0.9,0.8,1.2l0.9,1.2
			c0.7,0.9,1.5,2,2.6,2.5c0.4,0.2,0.8,0.3,1.3,0.1c0.6-0.3,1.3-0.6,1.7-1c0.1-0.1,0.2-0.2,0.2-0.3c0.1-0.3-0.2-0.7-0.4-1
			c-0.3-0.5-0.6-1.1-0.9-1.6c-0.1-0.3-0.3-0.7-0.5-1c-0.3-0.3-0.7-0.4-1-0.7c-0.4-0.3-0.7-0.7-1-1.1c-1.5-2-2.3-4.5-3.1-6.8
			c-0.8-2.6-1.4-5.2-1.9-7.8c-0.3-1.6-0.5-3.2-0.8-4.7v-0.2c0,0-0.8,0.4-0.9,0.5C114.5,39.9,113.7,40.3,113.8,40.4L113.8,40.4z"/>
		<g>
			<path fill="#2AA872" d="M112.3,31.6c0,0-0.3,0.2-0.3,1.2c0,0,0.7,1.6,1.8,4c3.5,8.2,8.8,24.3,7.8,28c0,0,2.4,1.8,4.4,0.4
				C126,65.3,124.2,47.7,112.3,31.6L112.3,31.6z"/>
			<path fill="#6D6E70" d="M111.5,32.1c-0.2,0.2-0.3,0.9-0.3,1.2c0.1,0.3,0.3,0.7,0.5,1c0.7,1.5,1.3,3,2,4.5
				c1.2,2.9,2.3,5.9,3.3,8.9c1,3.1,2,6.2,2.8,9.4c0.6,2.3,1.2,4.6,1.2,7v0.6c0,0.1-0.1,0.4-0.1,0.5c0.1,0.3,0.7,0.5,1,0.6
				c0.8,0.3,1.6,0.5,2.4,0.3c1-0.2,1.9-0.9,2.7-1.4c-0.3-2.3-0.8-4.7-1.3-7c-1.4-5.6-3.4-11-5.9-16.1c-1.8-3.7-4-7.3-6.4-10.6
				C113.1,31,111.5,32.1,111.5,32.1c6.7,9.2,11.4,20.1,13.3,31.3c0.1,0.6,0.2,1.2,0.3,1.7c0.1,1-0.1,0.7,1.4-0.1c0,0,0.1,0,0.1-0.1
				c-1.3,0.6-2.7,0.3-3.8-0.4c-0.3-0.2-0.2-0.2-0.2-0.6v-1.1c-0.1-2.3-0.6-4.6-1.2-6.8c-1.5-6-3.5-11.9-5.8-17.6
				c-0.7-1.6-1.3-3.2-2.1-4.8c-0.2-0.4-0.5-0.9-0.6-1.3c-0.1-0.3,0-1,0.2-1.3C112.7,31.6,111.9,31.6,111.5,32.1L111.5,32.1z"/>
		</g>
	</g>
	<g>
		<path fill="#2AA872" d="M110.9,32.1c0,0,4-0.4,4.4,0.4l-0.7,3.2c0,0-2.9,0.2-3.8-0.4S110.9,32.1,110.9,32.1z"/>
		<path fill="#6D6E70" d="M110,32.6c1.1-0.1,2.2-0.2,3.3,0c0.3,0,0.6,0.1,0.8,0.2c0.1,0.1,0.3,0.1,0.3,0.3s-0.1,0.4-0.1,0.6
			c-0.1,0.3-0.1,0.6-0.2,1c-0.1,0.5-0.2,1.1-0.3,1.6c0.6-0.3,1.2-0.7,1.7-1c-0.9,0.1-1.9,0.1-2.8-0.1c-0.5-0.1-1-0.2-1.2-0.7
			s-0.1-1.1,0-1.6l0.3-1.2c0,0-0.3,0.2-0.3,0.1c-0.2,0.1-0.4,0.2-0.6,0.4s-0.4,0.2-0.6,0.4C110.2,32.4,110,32.5,110,32.6
			c-0.1,0.3-0.2,0.6-0.3,1c-0.1,0.5-0.2,1.1-0.1,1.7c0.1,0.5,0.6,0.7,1.1,0.8c0.6,0.1,1.2,0.2,1.8,0.2h1.2c0.1,0,0.2-0.1,0.3-0.1
			c0.2-0.1,0.4-0.2,0.6-0.4c0.2-0.1,0.4-0.2,0.6-0.4c0,0,0.2-0.1,0.3-0.2l0.6-3c0-0.1,0-0.2-0.1-0.3c-0.2-0.1-0.5-0.2-0.7-0.2
			c-0.7-0.1-1.4-0.1-2.1-0.1c-0.5,0-0.9,0-1.4,0.1c-0.1,0-0.2,0.1-0.3,0.1c-0.2,0.1-0.4,0.2-0.6,0.4s-0.4,0.2-0.6,0.4
			C110.2,32.4,110.1,32.6,110,32.6L110,32.6z"/>
	</g>
	<g>
		<path fill="#2AA872" d="M112,40c0.1,0.2,0.5,0.6,0.6,1.1c1.2,5.8,1.6,14.8,0.2,29.5c-0.9,9.2-0.9,7.6-1.8,21.1
			c-0.2,3-1.1,5.4-1.5,7.1c0.5,0.9,0.6,1.6,0.3,1.8c-0.1,0-0.2,0.1-0.6,0c0,0-2.7,0-2.7,1c-0.1,0.1-0.2,0.3-0.3,0.3
			c-1-0.1,0.9-14.5,1.8-21.6C109.3,70.8,110.8,57.3,112,40L112,40z"/>
		<path fill="#6D6E70" d="M112,45c0.9,1.2,0.9,2.9,1.1,4.4c0.2,1.7,0.3,3.4,0.4,5.1c0,0.5,0,0.9,0.1,1.4v-3.4v-0.4v0.8
			c0,0.7,0,1.4-0.1,2.1c-0.1,2.9-0.3,5.7-0.6,8.6c-0.5,6.4-1.3,12.7-1.7,19.1c-0.2,3.1-0.4,6.2-1.3,9.3c-0.2,0.6-0.4,1.1-0.5,1.7
			c-0.2,1.2-0.1,2.6-0.1,3.8v5.6c0,0.8,0.4,1.3,0.5,2v-9.8c0,0.6-0.8,0.3-1.2,0.4c-0.7,0.1-1.6,0.1-2.1,0.7
			c-0.2,0.3-0.2,0.8-0.5,0.4c-0.1-0.1-0.1-0.3-0.1-0.4c-0.7-3.4-0.2,11.7,0,8c0.2-4.1,0.7-8.1,1.2-12.2c1.1-8.9,2.2-17.8,3.1-26.8
			c0.7-6.8,1.2-13.6,1.7-20.5c0.1-2,0-4.1,0-6.2v-3v-0.5c-0.9,12.6-2.1,25.3-3.7,37.9c-0.6,4.9-1.2,9.7-1.8,14.6
			c-0.2,2.2-0.5,4.4-0.6,6.6c-0.1,1.6-0.1,3.2-0.1,4.9c0,2.3-0.1,4.7,0.1,7.1c0,0.5,0,1,0.5,0.5c0.3-0.3,0.2-0.5,0.7-0.7
			c0.4-0.2,1-0.3,1.5-0.3c0.2,0,0.8,0.1,1,0c0.4-0.2,0.3-0.9,0.3-1.3c0.1-2.6,0-5.2,0-7.9c0-1.1,0-1.8-0.5-2.8v10
			c0.6-2.4,1.3-4.8,1.5-7.3c0.2-2.6,0.4-5.1,0.6-7.7c0.2-2.7,0.5-5.3,0.7-8c1.2-11.5,1.7-23,1.3-34.6c-0.1-2-0.2-4-0.4-6
			c-0.2-1.7-0.2-3.8-1.2-5.2c0.1,0.1,0,1.5,0,1.5v7C112,43.9,111.9,44.8,112,45L112,45z"/>
	</g>
	<g>
		<path fill="#2AA872" d="M106.2,107.7l0-7.4l3.3,0l0,7.4L106.2,107.7z"/>
		<path fill="#6D6E70" d="M110.4,99.9h-3.3c-0.1,0-0.2,0.1-0.3,0.1c-0.2,0.1-0.4,0.2-0.6,0.4c-0.2,0.1-0.4,0.2-0.6,0.4
			c0,0-0.3,0.1-0.3,0.2v6.9c0,0.1-0.1,0.4,0,0.5s0.5,0,0.6,0h2.6c0.1,0,0.2-0.1,0.3-0.1c0.2-0.1,0.4-0.2,0.6-0.4
			c0.2-0.1,0.4-0.2,0.6-0.4c0,0,0.3-0.1,0.3-0.2v-6.5C110.4,100.5,110.4,100.2,110.4,99.9c0,0.1-0.8,0.4-0.9,0.5
			c-0.2,0.1-0.4,0.2-0.6,0.4c0,0-0.3,0.1-0.3,0.2v7.4c0.6-0.3,1.2-0.7,1.7-1h-3.2v-0.3v-5.3V100c-0.6,0.3-1.2,0.7-1.7,1h3.3
			c0.1,0,0.2-0.1,0.3-0.1c0.2-0.1,0.4-0.2,0.6-0.4c0.2-0.1,0.4-0.2,0.6-0.4C110.2,100,110.3,99.9,110.4,99.9L110.4,99.9z"/>
	</g>
	<g>
		<path fill="#2AA872" d="M112.8,35.6c-0.1,0.2-0.4,0.5-0.4,1c-0.9,5.7-0.8,11.9,0.2,26.4c0.6,9.1,0.2,10.1,0.8,23.3
			c0.1,2.9,0.8,5.3,1.1,7c-0.4,0.9-0.5,1.6-0.2,1.8c0.1,0,0.2,0.1,0.4,0c0,0,2,0,2,1c0.1,0.1,0.1,0.3,0.2,0.3
			c0.7-0.1-0.6-14.2-1.2-21.2C114.7,65.8,113.7,52.5,112.8,35.6z"/>
		<path fill="#6D6E70" d="M112.8,30.6c-0.7,1.3-0.7,2.9-0.8,4.3c-0.1,1.6-0.2,3.1-0.2,4.7c-0.1,6.1-0.1,12.3,0.2,18.4
			c0.2,4.8,0.6,9.7,0.8,14.5c0.1,3,0.1,6,0.2,9.2c0.1,2.8,0.2,5.5,0.3,8.3c0.1,2.9,0.6,5.6,1.1,8.4v-10c-0.3,0.7-0.4,1.4-0.4,2.1
			v8.6c0,0,0,0.8,0.1,0.9c0.2,0.3,0.4,0.1,0.8,0.2c0.4,0,0.8,0.1,1.2,0.3c0.4,0.2,0.3,0.5,0.6,0.8c0.4,0.4,0.3,0.1,0.4-0.3
			c0.1-1.1,0.1-2.3,0.1-3.5v-8.3c-0.1-2-0.2-4-0.4-6.1c-0.7-9.8-1.7-19.5-2.4-29.3c-0.5-7.6-1-15.2-1.4-22.8v3.5c0,2-0.1,4.1,0,6.2
			c0.5,10.7,1.2,21.5,2.1,32.2c0.6,7.9,1.5,15.7,2,23.6c0,0.7,0.1,2,0.1,2.3v-8v0.4c0,0,0,0.3-0.1,0.3c-0.3,0.1-0.2-0.3-0.3-0.4
			c-0.3-0.4-0.5-0.6-1-0.7c-0.5-0.2-1.4,0.1-1.5-0.5v9.8c0-0.7,0.4-1.3,0.4-2v-4.3c0-2.1,0.1-4.1-0.3-6.1c-0.5-2.7-0.8-5.3-0.9-8
			c-0.2-3.7-0.2-7.3-0.3-11c-0.1-8.2-0.9-16.3-1.1-24.4c-0.1-2.8,0,4.2,0,4.9v-1c0-0.8,0.1-1.6,0.1-2.4c0.1-1.5,0.1-3.2,0.9-4.6
			c0.1-0.2,0-1.3,0-1.5v-3.5v-3.5C112.9,31.7,112.7,30.8,112.8,30.6L112.8,30.6z"/>
		<g>
			<path fill="#2AA872" d="M114.4,102l0-7.2l2.4,0l0,7.2L114.4,102z"/>
			<path fill="#6D6E70" d="M113.5,95.3h2.1c0.2,0,0.3,0,0.3,0.1c0.1,0.1,0,0.4,0,0.6v6.6c0.6-0.3,1.2-0.7,1.7-1h-2.1
				c-0.2,0-0.3,0-0.3-0.1c-0.1-0.1,0-0.4,0-0.6v-5.1v-1.5c0,0.1-0.8,0.4-0.9,0.5c-0.2,0.1-0.4,0.2-0.6,0.4
				C113.7,95.1,113.5,95.2,113.5,95.3v7.1c0,0.2,0,0.1,0.1,0.2c0.7,0.1,1.5,0,2.3,0c0.1,0,0.2-0.1,0.3-0.1c0.2-0.1,0.4-0.2,0.6-0.4
				c0.2-0.1,0.4-0.2,0.6-0.4c0,0,0.3-0.1,0.3-0.2v-3.9v-2.5v-0.7c0-0.2,0-0.1-0.1-0.2c-0.7-0.1-1.5,0-2.3,0c-0.1,0-0.2,0.1-0.3,0.1
				c-0.2,0.1-0.4,0.2-0.6,0.4c-0.2,0.1-0.4,0.2-0.6,0.4C113.7,95.1,113.6,95.3,113.5,95.3z"/>
		</g>
	</g>
</g>
</svg>
