<svg xmlns="http://www.w3.org/2000/svg" xmlns:xlink="http://www.w3.org/1999/xlink" viewBox="0 0 612 792"><pattern y="792" width="1.7" height="22.1" patternUnits="userSpaceOnUse" id="a" viewBox="0.1 -22.9 1.7 22.1" overflow="visible"><g fill="none"><path d="M.1-22.9h1.7V-.8H.1z"/><path stroke="#808184" stroke-width=".25" stroke-miterlimit="10" d="M.1-23.4V0M.9-23.4V0"/><path d="M1.1-22.7h1.1v22H1.1z"/></g></pattern><path fill="gray" d="M246.3 412.5c.1 0 .1-8.7 0-8.7-.1-.1-.1 8.7 0 8.7z"/><path fill="#FFC63E" d="M341.9 146.8h-3.1.4c-20.5-.2-49.7-.3-86.6 1.2-.4 1-1.1 3.9-1.3 5.9-.5 3.7.3 4.6-.4 7.5-.6 2.3-1.3 2.2-2.2 5.1-.6 2.1-.7 3.4-.9 5.1-.3 2.1-.8 5.2-2.2 8.9 0 0-11.2 33.4-9.8 103.7.1 8 4.5 148.6 4.5 148.6 7 102 6.5 136.4 8.8 145.1-.6 5.9 4.8 24.2 9.1 36.2 1.1 4.3 6.6 25.1 7.1 29.1 5.5 0 31.9-1.1 39.4-1.1.9-2.8 3.4-35.2 4.8-38.6 7.8-30.4 8.4-51 9.6-75.7l4.6-73s3.7-149.5 16.6-165.6l-.4.3.2-.3.4.3h-.1l.4-.3.2.3-.4-.3C353 305.5 356.7 455 356.7 455l4.6 73c1.2 24.8 1.8 45.3 9.6 75.7 1.3 3.4 3.9 35.8 4.8 38.6 7.5 0 33.9 1.1 39.4 1.1.4-4 6-24.9 7.1-29.1 4.3-12 9.7-30.3 9.1-36.2 2.3-8.8 1.9-43.2 8.8-145.1 0 0 4.4-140.6 4.5-148.6 1.3-70.3-9.8-103.7-9.8-103.7-1.4-3.8-2-6.8-2.2-8.9-.2-1.7-.2-3-.9-5.1-.9-2.9-1.6-2.8-2.2-5.1-.8-2.9.1-3.8-.4-7.5-.3-2-1-5-1.3-5.9-36.9-1.5-66.1-1.4-86.6-1.2h.4-3.1"/><path fill="#6D6E70" d="M342.5 146.1h-3.1c-.9 0-3.1 1.4-1.2 1.4h.4c.9 0 3.1-1.3 1.2-1.4-28.9-.3-57.7 0-86.6 1.2-.5 0-1.8.3-2 .9-.9 2.6-1.5 5.6-1.5 8.4 0 2.8 0 5-1.4 7.6-1.5 2.9-1.7 5.9-2.2 9.1-.4 2.6-1.2 5.1-2.1 7.6-.8 2.4-1.4 4.8-2 7.3-4.2 17.8-6.1 36.2-7.2 54.4-1 17.7-1 35.3-.5 53 .4 15.1.9 30.3 1.4 45.4.6 18.2 1.1 36.4 1.7 54.5.4 11.7.7 23.5 1.1 35.2.2 7.5.9 15 1.4 22.4.9 14.6 1.8 29.2 2.6 43.7 1 18.7 1.9 37.5 2.8 56.2.4 7.9.3 16.2 1.8 24.1.5 2.5.4 5.2.8 7.7 1.1 6.4 3 12.6 4.9 18.8 1.5 4.9 3.3 9.6 4.6 14.5 1.3 4.8 2.5 9.6 3.7 14.5.9 3.6 2 7.3 2.4 11.1 0 .3.7.3.8.3 13.1 0 26.3-1.1 39.4-1.1.5 0 1.9-.3 2-.9.5-1.7.6-3.6.8-5.4.4-3.4.7-6.8 1.1-10.2.7-6.7 1.2-13.4 2.3-20 .5-3.2 1.5-6.4 2.2-9.6 1.4-6 2.6-12 3.6-18.1 1.7-10.7 2.8-21.5 3.4-32.3 1.4-23.8 2.8-47.7 4.3-71.5.8-12.2 1.4-24.4 1.8-36.6.9-26.4 2.2-52.8 4.3-79.1 1.1-13.5 2.3-27 4.2-40.4 1.2-8.8 2.3-18.2 5.8-26.4.5-1.1 1-2.1 1.7-3.1.8-1-2.1-.3-2.5-.1-.1.1-.3.2-.4.3.9 0 1.7-.1 2.6-.1.1-.1.1-.2.2-.3-.9.2-1.9.5-2.8.7.1.1.3.2.4.3.7-.4 1.3-.8 2-1.2h-.1c.2.3.4.5.5.8.1-.1.3-.2.4-.3-.9.1-1.7.2-2.6.3.1.1.1.2.2.3.9-.3 1.9-.6 2.8-.9-.1-.1-.3-.2-.4-.3-.6-.4-3.3.3-2.7 1 1.8 2.3 2.6 5.3 3.4 8 1.2 4.4 2.1 8.9 2.9 13.4 2.1 12.7 3.4 25.5 4.6 38.3 2.4 27.3 3.8 54.6 4.9 81.9.5 11.8.8 23.5 1.5 35.3 1.4 21.5 3 43 4 64.6 1.1 22.4 2.8 44.6 7.9 66.5.7 3.1 1.7 6.2 2.2 9.4.5 3 .8 6 1.1 9.1.8 7 1.4 14 2.2 21 .2 1.7.3 3.6.8 5.2.1.3.6.3.8.3 13.1 0 26.3 1.1 39.4 1.1.4 0 2-.3 2-.9.4-3.8 1.6-7.6 2.5-11.4 1.2-4.8 2.4-9.6 3.7-14.4 2.9-11.2 7.5-21.9 9.4-33.4.4-2.5.3-5 .8-7.5.2-1.2.4-2.4.5-3.6.4-3.9.6-7.9.9-11.8.9-15.7 1.5-31.3 2.3-47 .6-12.7 1.4-25.3 2.1-38 .9-14.6 2.1-29.1 2.8-43.7.4-8.6.5-17.2.8-25.8.5-17.4 1.1-34.9 1.6-52.3l1.5-50.4c.4-13.1.8-26.3.6-39.4-.3-22.9-1.8-46-6.2-68.5-.9-4.6-1.9-9.2-3.2-13.8-.2-.6-.4-1.3-.6-1.9-.9-2.7-1.7-5.3-2.1-8.2-.5-3.1-.7-5.9-2.2-8.7-1.3-2.4-1.3-4.6-1.3-7.2 0-2.8-.6-5.9-1.5-8.6-.1-.2-.4-.3-.5-.3-29-1.2-57.9-1.5-86.9-1.2-.9 0-3.1 1.4-1.2 1.4h.4c.9 0 3.1-1.3 1.2-1.4h-3.1c-.9 0-3.1 1.3-1.2 1.4h3.1c.4-.5.8-.9 1.2-1.4h-.4c-.4.5-.8.9-1.2 1.4 13.6-.2 27.1-.2 40.7 0 8.5.1 17 .3 25.5.5 4.9.1 9.8.3 14.7.5 1.1 0 2.3.1 3.4.1 1.3.1 1.5-.1 1.8 1.1.4 1.6.8 3.3 1 5 .4 3.2-.3 6.1 1.2 9 1.6 3.1 2 6 2.5 9.4.5 3 1.5 5.8 2.3 8.7 1.3 4.2 2.2 8.5 3.1 12.8 5 24.6 6.5 50 6.6 75.1.1 13.6-.4 27.1-.8 40.7-.6 19.3-1.2 38.6-1.8 58-.5 17.3-1.1 34.6-1.6 52-.5 16.7-1.8 33.4-2.8 50.1-1.5 24.5-2.8 48.9-3.9 73.4-.5 10.5-.5 21.3-2 31.7-.2 1.4-.5 2.6-.5 4 .1 6.1-2.1 12.5-3.7 18.2-1.8 6.2-4.2 12.3-5.8 18.5-1.3 5-2.6 9.9-3.8 14.9-1 4.1-2.3 8.3-2.8 12.5.7-.3 1.4-.6 2-.9-13.1 0-26.3-1.1-39.4-1.1.3.1.6.2.8.3-.5-1.7-.6-3.6-.8-5.4-.4-3.4-.7-6.8-1.1-10.2-.7-6.7-1.2-13.4-2.3-20-.5-3.4-1.6-6.7-2.3-10-1.4-6.1-2.6-12.3-3.6-18.5-1.7-10.6-2.7-21.3-3.3-32-1.4-23.9-2.8-47.8-4.3-71.6-.8-12.2-1.3-24.3-1.8-36.6-.9-26.3-2.2-52.7-4.3-79-1.1-13.5-2.3-27.1-4.2-40.5-1.2-8.6-2.3-18.1-5.9-26.2-.5-1.1-1-2.1-1.7-3-.9.3-1.8.7-2.7 1 .1.1.3.2.4.3.5.3 3.2-.2 2.8-.9-.1-.1-.1-.2-.2-.3-.4-.7-2.1-.1-2.6.3-.1.1-.3.2-.4.3-.7.5 0 .8.5.8h.1c.3 0 2.7-.7 2-1.2-.1-.1-.3-.2-.4-.3-.7-.5-2.4 0-2.8.7-.1.1-.1.2-.2.3-.4.8 2.3.1 2.6-.1.1-.1.3-.2.4-.3-.8 0-1.6 0-2.5-.1-1.8 2.2-2.7 5.1-3.4 7.8-1.3 4.3-2.1 8.7-2.9 13.2-2.2 12.6-3.5 25.3-4.6 38-2.4 27.4-3.9 54.9-4.9 82.3-.5 11.8-.8 23.7-1.5 35.5-1.3 21.2-3 42.4-4 63.6-1.1 22.7-2.7 45.2-7.9 67.4-.8 3.2-1.7 6.4-2.3 9.7-.5 3.1-.8 6.1-1.1 9.2-.8 7-1.4 14-2.2 21-.2 1.7-.3 3.6-.8 5.2.7-.3 1.4-.6 2-.9-13.1 0-26.3 1.1-39.4 1.1.3.1.6.2.8.3-.4-3.8-1.6-7.6-2.5-11.4-1.2-4.8-2.4-9.6-3.7-14.4-2.9-11.2-7.5-21.9-9.4-33.4-.4-2.5-.3-5-.8-7.5-.2-1.2-.4-2.4-.5-3.6-.4-3.9-.6-7.8-.9-11.8-.9-15.7-1.5-31.4-2.3-47.1-.6-12.7-1.4-25.4-2.1-38.1-.9-14.4-2.1-28.8-2.8-43.3-.4-8.6-.5-17.2-.8-25.8-.5-17.4-1.1-34.9-1.6-52.3l-1.5-50.3c-.4-13.1-.8-26.1-.6-39.2.3-23.1 1.8-46.3 6.2-69 .9-4.6 1.9-9.1 3.1-13.6.2-.6.4-1.3.6-1.9.9-2.7 1.7-5.3 2.1-8.2.5-3.1.7-5.9 2.2-8.7 1.2-2.3 1.4-4.3 1.3-6.8-.1-3 .5-6.2 1.5-9-.7.3-1.4.6-2 .9 28.9-1.2 57.7-1.5 86.6-1.2.4-.5.8-.9 1.2-1.4h-.4c-.4.5-.8.9-1.2 1.4h3.1c1.2.4 3.4-.9 1.5-.9z"/><pattern id="b" xlink:href="#a" patternTransform="matrix(1.9252 0 0 1.6991 7281.993 5926.899)"/><path fill="url(#b)" d="M259.6 614.4s37.2-1.2 47-2.2c.3 9-.6 13.3-2.7 24.1-.4 2.3-1 4.5-1.5 6.6-12.4.3-24.9.5-37.3.8l-5.5-29.3z"/><path fill="none" d="M257.2 613.8s34.2.3 50.3-2.1"/><pattern id="c" xlink:href="#a" patternTransform="matrix(-1.9252 0 0 1.6991 -23071.58 5926.425)"/><path fill="url(#c)" d="M420.2 614s-37.2-1.2-47-2.2c-.3 9 .6 13.3 2.7 24.1.4 2.3 1 4.5 1.5 6.6 12.4.3 24.9.5 37.3.8l5.5-29.3z"/><path fill="none" d="M422.6 613.4s-34.2.3-50.3-2.1"/><path fill="#7F8082" stroke="#7F8082" stroke-width=".033" d="M350.2 283.6c.9-.3 1.8-.6 2.6-.6.7 0 1.1.4 1.3 1l.3-.7c-12 5.9-18.4 9.6-18.4 9.6s8.8-3.9 11.9-5.3c2.8-1.3 6-2.7 7.1-3.2l.5-.2-.1-.5c-.1-.5-.4-.9-.7-1.3-.4-.4-.8-.5-1.2-.6-.8-.1-1.4 0-1.8.1-1 .2-1.5.4-1.9.6-2.3.9-4.3 2.2-6.3 3.4-2 1.2-4 2.5-6 3.8l-11.7 8 .7 1.1 11.8-8c2-1.3 4-2.6 6-3.8 1.8-1.3 3.8-2.5 5.9-3.4z"/><path fill="gray" d="M256.5 543.7c.1 0 .1-8.7 0-8.7-.1-.1-.1 8.7 0 8.7z"/><path fill="none" stroke="#6D6E70" stroke-width=".96" stroke-miterlimit="10" d="M337.6 188.3l1.8 101.5"/><path fill="none" stroke="#6D6E70" stroke-width="2" stroke-miterlimit="10" d="M245.4 178.4s94.6 21.6 187.3-.5"/><path fill="#6D6E70" d="M250.1 161.6c3.3.7 6.6 1.4 9.9 1.9 8.7 1.5 17.5 2.8 26.3 3.8 12.9 1.5 25.8 2.5 38.7 2.9 15.5.6 31 .3 46.5-.8 16.8-1.2 33.5-3.5 49.9-7.2 2.1-.5 4.3-1 6.4-1.5.3-.1 1.4-.4 1.3-1-.1-.5-1.3-.3-1.6-.2-16.3 4.1-32.9 6.6-49.7 8.1-15.5 1.3-31.1 1.7-46.7 1.3-13.1-.3-26.2-1.2-39.2-2.6-9.3-1-18.5-2.3-27.7-3.8l-8.1-1.5c-.8-.2-1.7-.3-2.5-.5-.3-.1-.5-.1-.8-.2-.3-.1.2 0 0 0h-.4c-.7-.2-1.4 0-2 .3-.3.3-1 .9-.3 1z"/><path fill="#6D6E70" d="M247.4 167.1c2.9.8 5.9 1.4 8.9 2 8.2 1.7 16.5 3 24.8 4.1 12.6 1.6 25.3 2.6 38 3.1 16 .6 32.1.3 48.1-.9 18.9-1.4 37.7-4.1 56.2-8 2.4-.5 4.8-1 7.2-1.6.3-.1 1.4-.4 1.3-.9-.1-.5-1.3-.2-1.6-.1-18.5 4.3-37.3 7.2-56.2 8.9-16.2 1.4-32.5 1.9-48.7 1.5-12.9-.3-25.8-1.2-38.7-2.8-8.7-1-17.4-2.4-26-4.1-3.6-.7-7.1-1.7-10.7-2.4h-.1c-.6-.2-1.5.1-2 .4-.5.2-1.2.7-.5.8z"/><path fill="#7F8082" stroke="#7F8082" stroke-width=".044" d="M250.1 464.7c3.8 18.8 7 33.6 9 43.8 1 5.1 1.8 9 2.2 11.7.5 2.7.7 4 .7 4s-.2-1.4-.5-3.6-.7-5.2-1.2-8.4-1.1-6.7-1.6-9.9c-.6-3.2-1-6-1.4-7.9-2.2-12.3-5-26.5-5.8-30.5-4.2-21.4-8-43-8.8-64.9l-1.7.1c1 22.2 4.8 44 9.1 65.6zM422.2 523.6c-3.7 18.8-6.6 33.7-8.2 44-.8 5.1-1.4 9.1-1.6 11.8-.3 2.7-.5 4.1-.5 4.1s.2-1.4.6-3.6c.3-2.2.9-5.2 1.5-8.4s1.3-6.7 1.9-9.8c.7-3.1 1.2-5.9 1.6-7.9 2.6-12.2 5.6-26.4 6.4-30.4 4.2-21.5 8-43.2 8.8-65.1l-1.7-.1c-.8 22-4.6 43.8-8.8 65.4z"/><path fill="none" stroke="#6D6E70" stroke-width=".96" stroke-miterlimit="10" d="M251.7 149.3s32.7 8.7 84.2 8.3c0 0 65.4 0 91.3-9.9"/><path opacity=".34" fill="#231F20" d="M335 147.6s-78.8-1.2-83.7 2c0 0 35.4 8.7 85.5 7.5 0 0 62.2 0 85.1-8.3-.1 0-39.5-1.6-86.9-1.2z"/><g><path fill="#7F8082" stroke="#7F8082" stroke-width=".05" d="M282.1 614.9c5.1-.2 9.6-1.4 13.3-2.6l.2-.1.1-.1c2.6-2.4 4.9-4.6 7-6.4.5-.5 1-.9 1.5-1.3.2-.2.5-.4.7-.5h.1s0 0 0 0h0-.1c-.1 0-.2 0-.2-.1-.1 0-.2-.2-.2-.3v-.1s0 0 0 0 0 0 0 0c-.1.1-.1.2-.2.3-.7.9-1.4 1.7-2 2.4-2.5 2.8-3.8 4.3-3.8 4.3s.6-.6 1.5-1.4c.9-.9 2.2-2.1 3.6-3.5.3-.3.7-.7 1-1.1.2-.2.3-.4.5-.6 0-.1.1-.1.1-.3 0 0 0-.3-.1-.4-.1-.1-.3-.1-.3-.1-.1 0-.2 0-.2.1-.2.1-.3.1-.4.2-.9.6-1.6 1.2-2.4 1.7-1.5 1.2-2.8 2.2-3.7 3-1.4 1.2-2.9 2.4-3.5 2.9l.3-.2c-6.3 1.9-11.4 2.2-13.2 2.2-3.2.1-6.6-.1-9.6-.8l.3.1c-3.9-2.7-7.9-5.3-11.9-7.9-.5-.3-1-.6-1.6-.9-.3-.2-.5-.3-.9-.5-.1 0-.2-.1-.3-.1 0 0-.2-.1-.4-.1 0 0-.2 0-.4.1s-.3.2-.4.4c-.1.2-.2.4-.2.6 0 .3 0 .2.1.3 0 .1.1.2.1.3l.1.1c.1.1.1.1.1.2l.2.2c.9.9 1.8 1.6 2.8 2.4 1.9 1.5 3.7 3 5.6 4.4l1.2-1.6c-1.9-1.4-3.7-2.9-5.6-4.4-.9-.7-1.9-1.5-2.6-2.2l-.1-.1s0 0 0 0h0s.1.1.1.2v.2c0 .2-.1.4-.1.5-.1.1-.2.3-.4.3-.2.1-.4.1-.4.1h-.2.1c.2.1.5.2.7.4l1.5.9c4 2.5 7.9 5.2 11.9 7.8l.1.1h.1c3.5 1 7 1.1 10.5 1z"/></g><g><path fill="#7F8082" stroke="#7F8082" stroke-width=".05" d="M394.5 610.9c-3.4-1-6.4-2.4-8.7-3.6l.2.1c-3.6-3.3-6.8-6.1-9.7-8.5-.4-.3-.7-.6-1.2-.8-.1-.1-.2-.1-.4-.2-.1 0-.2 0-.2-.1-.1 0-.2 0-.4.1-.1 0-.2.1-.3.3 0 .1-.1.2-.1.2V598.7c0 .1 0 .1.1.2.2.3.3.5.4.7.5.7 1.1 1.3 1.6 1.9 1.1 1.2 2 2.2 2.9 3.1 3.6 3.7 5.5 5.5 5.5 5.5s-2.4-2.8-5.1-6c-1.4-1.6-2.9-3.4-4-5.1-.1-.1-.1-.2-.2-.3 0-.1 0-.1-.1-.1 0 0 0 0 0 0h-.1c-.1.1-.3 0-.3 0s0 0 0 0v.2c0 .1 0 .2-.1.2 0 0 0 0 0 0h0c.1 0 .2.1.3.2.4.3.7.6 1.1.9.7.6 1.2 1.1 1.7 1.5 3 2.8 6.3 6 7.4 7.1l.1.1.1.1c2.6 1.4 4.6 2.3 6.1 2.9 1.5.6 2.6.9 3.2 1.1 2.9.8 5.8 1.3 8.8 1.5 1.5.1 3 .1 4.5 0s2.9-.2 4.5-.6h.2l.2-.1c3.5-2.5 7-4.9 10.5-7.2.4-.3.9-.5 1.3-.8l.6-.3h0s0 0 0 0 0-.2-.1-.2v-.3-.2c0-.1 0-.2.1-.2 0 0 0 0 0 0h-.2c-.1 0-.3-.1-.4-.2l-.1-.1h-.1s0 0 0 0h0s0 0 0 0c-.2.3-.6.7-.9 1.1l-1.1 1.1c-1.5 1.5-3.1 2.9-4.7 4.3l1.3 1.5c1.6-1.4 3.2-2.8 4.8-4.3l1.2-1.2c.4-.4.8-.8 1.2-1.4.1-.1.1-.2.2-.3V604.7v-.3c0-.2-.1-.4-.2-.6-.1-.1-.3-.3-.5-.3h-.6c-.2 0-.2.1-.4.1-.4.1-.6.3-.9.4-.5.3-1 .5-1.4.8-3.7 2.3-7.1 4.8-10.6 7.2l.3-.1c-2.7.6-5.7.7-8.5.5-3.2-.2-6.1-.7-8.8-1.5z"/></g><g><g fill="none"><path d="M257.6 615.3c.8.1 1.6.3 2.3.4l.6-3.9c-.7-.1-1.5-.2-2.2-.3l-.7 3.8z"/><path stroke="#7F8082" stroke-width=".35" d="M260.1 615.7c-1.2-.2-.7-1.1-.2-2 .5-.9.8-1.8-.4-2-1.2-.2-1 .8-.9 1.8.1 1 .3 2-.9 1.8M258.3 612.1c.7.1 1.5.2 2.2.3M257.7 614.6c.8.1 1.6.3 2.3.4"/></g><g fill="none"><path d="M260.1 615.7c.8.1 1.5.2 2.3.3l.5-3.9c-.8-.1-1.5-.2-2.2-.3l-.6 3.9z"/><path stroke="#7F8082" stroke-width=".35" d="M262.5 616c-2.3-.3 1.9-3.7-.8-4-2.4-.3.7 4-1.7 3.7M260.6 612.4c.7.1 1.5.2 2.2.3M260.2 615c.8.1 1.6.2 2.3.3"/></g><g fill="none"><path d="M262.6 616.1c.8.1 1.5.2 2.3.3l.4-3.9c-.8-.1-1.5-.2-2.3-.2l-.4 3.8z"/><path stroke="#7F8082" stroke-width=".35" d="M265 616.3c-2.3-.2 1.8-3.7-.8-4-2.4-.3.8 4-1.6 3.7M263 612.7c.7.1 1.5.2 2.3.2M262.6 615.3c.8.1 1.6.2 2.3.3"/></g><g fill="none"><path d="M265.1 616.3c.8.1 1.5.2 2.3.2l.3-3.9c-.8-.1-1.5-.1-2.3-.2l-.3 3.9z"/><path stroke="#7F8082" stroke-width=".35" d="M267.5 616.5c-2.3-.2 1.8-3.8-.9-4-2.4-.2.8 4-1.6 3.7M265.4 613c.8.1 1.5.1 2.3.2M265.1 615.6c.8.1 1.6.2 2.3.2"/></g><g fill="none"><path d="M267.5 616.5c.8.1 1.6.1 2.3.2l.3-3.9c-.8 0-1.5-.1-2.3-.2l-.3 3.9z"/><path stroke="#7F8082" stroke-width=".35" d="M269.9 616.7c-2.3-.1 1.7-3.8-1-4-2.4-.2.9 4-1.5 3.8M267.8 613.2c.8.1 1.5.1 2.3.2M267.6 615.8c.8.1 1.6.1 2.4.2"/></g><g fill="none"><path d="M270 616.7l2.4.2.2-3.9-2.3-.2z"/><path stroke="#7F8082" stroke-width=".35" d="M272.4 616.9c-2.3-.1 1.6-3.8-1.1-4-2.4-.2 1 3.9-1.4 3.8M270.3 613.4l2.2.1M270 616l2.4.1"/></g><g fill="none"><path d="M272.5 616.9l2.3.1.2-3.9-2.3-.1z"/><path stroke="#7F8082" stroke-width=".35" d="M274.9 617c-2.3-.1 1.6-3.8-1.1-4-2.4-.1 1 3.9-1.4 3.8M272.7 613.5l2.3.1M272.5 616.1l2.4.1"/></g><g fill="none"><path d="M275 617c.8 0 1.6 0 2.3.1l.1-3.9c-.8 0-1.5 0-2.3-.1l-.1 3.9z"/><path stroke="#7F8082" stroke-width=".35" d="M277.4 617c-2.4 0 1.5-3.9-1.2-3.9-2.4-.1 1.1 3.9-1.3 3.8M275.1 613.6c.8 0 1.5 0 2.3.1M275 616.2c.8 0 1.6 0 2.4.1"/></g><g fill="none"><path d="M277.5 617l2.3.1v-3.9l-2.3-.1z"/><path stroke="#7F8082" stroke-width=".35" d="M279.9 617.1c-2.4 0 1.4-3.9-1.2-3.9-2.4 0 1.2 3.9-1.2 3.9M277.5 613.7h2.3M277.4 616.3h2.4"/></g><g fill="none"><path d="M279.9 617.1h2.4l-.1-4H280z"/><path stroke="#7F8082" stroke-width=".35" d="M282.4 617.1c-2.4 0 1.4-3.9-1.3-3.9-2.4 0 1.2 3.9-1.2 3.9M280 613.7h2.2M279.9 616.3h2.4"/></g><g fill="none"><path d="M282.4 617.1h2.3l-.1-3.9h-2.3l.1 3.9z"/><path stroke="#7F8082" stroke-width=".35" d="M284.8 617c-2.4.1 1.3-4-1.4-3.9-2.4 0 1.3 3.9-1.1 3.9M282.4 613.7h2.3M282.4 616.3h2.4"/></g><g fill="none"><path d="M284.9 617l2.3-.1-.1-3.9-2.3.1z"/><path stroke="#7F8082" stroke-width=".35" d="M287.3 616.9c-2.4.1 1.3-4-1.4-3.9-2.4.1 1.3 3.8-1.1 3.9M284.8 613.7l2.3-.1M284.8 616.2h2.4"/></g><g fill="none"><path d="M287.4 616.9c.8 0 1.6-.1 2.3-.1l-.2-3.9c-.8 0-1.5.1-2.3.1l.2 3.9z"/><path stroke="#7F8082" stroke-width=".35" d="M289.8 616.8c-2.3.1 1.2-4-1.5-3.8-2.4.1 1.4 3.8-1 3.9M287.3 613.6c.8 0 1.5-.1 2.3-.1M287.3 616.2c.8 0 1.6-.1 2.4-.1"/></g><g fill="none"><path d="M289.9 616.8l2.3-.2-.3-3.9-2.3.2z"/><path stroke="#7F8082" stroke-width=".35" d="M292.3 616.6c-2.3.1 1.1-4-1.5-3.8-2.4.1 1.5 3.8-.9 3.9M289.7 613.4l2.2-.1M289.8 616l2.3-.1"/></g><g fill="none"><path d="M292.3 616.6l2.4-.2-.4-3.9-2.2.2z"/><path stroke="#7F8082" stroke-width=".35" d="M294.7 616.4c-2.3.2 1.1-4-1.6-3.8-2.4.2 1.5 3.8-.9 4M292.1 613.3l2.3-.2M292.2 615.9l2.4-.2"/></g><g fill="none"><path d="M294.8 616.4l2.3-.2-.4-3.9-2.2.2z"/><path stroke="#7F8082" stroke-width=".35" d="M297.2 616.2c-2.3.2 1-4-1.7-3.8-2.4.2 1.6 3.8-.8 4M294.5 613.1l2.3-.2M294.7 615.6l2.4-.2"/></g><g fill="none"><path d="M297.3 616.2l2.3-.3-.5-3.9-2.2.3z"/><path stroke="#7F8082" stroke-width=".35" d="M299.7 615.9c-2.3.3.9-4.1-1.7-3.7-2.4.3 1.6 3.7-.7 4M296.9 612.9l2.3-.3M297.2 615.4l2.3-.3"/></g><g fill="none"><path d="M299.8 615.9l2.3-.3-.6-3.9-2.2.3z"/><path stroke="#7F8082" stroke-width=".35" d="M302.1 615.6c-2.3.3.9-4-1.8-3.7-2.4.3 1.7 3.7-.7 4M299.4 612.6l2.2-.3M299.6 615.1l2.4-.3"/></g><g fill="none"><path d="M302.2 615.6l2.3-.4-.6-3.9-2.2.4z"/><path stroke="#7F8082" stroke-width=".35" d="M304.6 615.2c-2.3.4.8-4.1-1.8-3.7-2.4.4 1.8 3.6-.6 4M301.8 612.3l2.2-.4M302.1 614.8l2.3-.4"/></g><g fill="none"><path d="M304.7 615.2l2.3-.4-.7-3.9-2.2.4z"/><path stroke="#7F8082" stroke-width=".35" d="M307.1 614.8c-2.3.4.7-4.1-1.9-3.7-2.4.4 1.8 3.6-.5 4M304.2 611.9l2.2-.4M304.5 614.4l2.3-.3"/></g></g><g><g fill="none"><path d="M371.1 613.8l2.2.3.6-3.9-2.1-.3z"/><path stroke="#909090" stroke-width=".35" d="M373.4 614.1c-2.2-.3 1.9-3.7-.6-4-1.1-.2-1 .8-.9 1.8.1 1 .3 2-.9 1.8M371.7 610.5l2.1.3M371.2 613l2.2.4"/></g><g fill="none"><path d="M373.5 614.1l2.2.3.5-3.8-2.2-.3z"/><path stroke="#909090" stroke-width=".35" d="M375.8 614.5c-2.2-.3 1.9-3.7-.7-4-2.3-.3.6 4-1.7 3.7M374 610.8l2.1.3M373.5 613.4l2.3.3"/></g><g fill="none"><path d="M375.8 614.5l2.3.2.4-3.9-2.2-.2z"/><path stroke="#909090" stroke-width=".35" d="M378.1 614.7c-2.2-.3 1.8-3.7-.7-4-2.3-.3.7 4-1.6 3.7M376.3 611.1l2.1.3M375.9 613.7l2.2.3"/></g><g fill="none"><path d="M378.2 614.8l2.2.2.4-3.9-2.1-.2z"/><path stroke="#909090" stroke-width=".35" d="M380.5 615c-2.3-.2 1.8-3.7-.8-4-2.3-.3.7 4-1.6 3.7M378.6 611.4l2.2.3M378.2 614l2.3.2"/></g><g fill="none"><path d="M380.6 615l2.2.2.4-3.9-2.2-.2z"/><path stroke="#909090" stroke-width=".35" d="M382.9 615.3c-2.3-.2 1.7-3.8-.8-4-2.3-.2.8 4-1.5 3.7M380.9 611.7l2.2.2M380.6 614.2l2.3.3"/></g><g fill="none"><path d="M382.9 615.3l2.3.1.3-3.9-2.2-.2z"/><path stroke="#909090" stroke-width=".35" d="M385.2 615.5c-2.3-.2 1.7-3.8-.9-4-2.3-.2.8 4-1.5 3.8M383.3 611.9l2.1.2M383 614.5l2.2.2"/></g><g fill="none"><path d="M385.3 615.5c.7.1 1.5.1 2.2.2l.3-3.9c-.7 0-1.5-.1-2.2-.2l-.3 3.9z"/><path stroke="#909090" stroke-width=".35" d="M387.6 615.6c-2.3-.2 1.7-3.8-.9-4-2.3-.2.9 4-1.4 3.8M385.6 612.1c.7.1 1.5.1 2.2.2M385.3 614.7c.8.1 1.5.1 2.3.2"/></g><g fill="none"><path d="M387.7 615.6l2.2.2.3-3.9-2.2-.2z"/><path stroke="#909090" stroke-width=".35" d="M390 615.8c-2.3-.2 1.6-3.8-1-4-2.3-.2.9 4-1.4 3.8M387.9 612.3l2.2.2M387.7 614.9l2.3.1"/></g><g fill="none"><path d="M390.1 615.8l2.2.1.2-3.9-2.2-.1z"/><path stroke="#909090" stroke-width=".35" d="M392.4 615.9c-2.3-.1 1.6-3.8-1-4-2.4-.1.9 3.9-1.4 3.8M390.3 612.5l2.2.1M390.1 615l2.2.1"/></g><g fill="none"><path d="M392.5 615.9c.7 0 1.5.1 2.2.1l.2-3.9c-.7 0-1.5-.1-2.2-.1l-.2 3.9z"/><path stroke="#909090" stroke-width=".35" d="M394.8 616c-2.3-.1 1.5-3.8-1.1-4-2.4-.1 1 3.9-1.3 3.8M392.6 612.6c.7 0 1.5.1 2.2.1M392.4 615.2c.8 0 1.5.1 2.3.1"/></g><g fill="none"><path d="M394.8 616l2.3.1.1-3.9-2.2-.1z"/><path stroke="#909090" stroke-width=".35" d="M397.1 616.1c-2.3-.1 1.5-3.9-1.1-3.9-2.4-.1 1 3.9-1.3 3.8M395 612.7l2.2.1M394.8 615.3h2.3"/></g><g fill="none"><path d="M397.2 616.1c.7 0 1.5 0 2.2.1l.1-3.9c-.7 0-1.5 0-2.2-.1l-.1 3.9z"/><path stroke="#909090" stroke-width=".35" d="M399.5 616.2c-2.3 0 1.5-3.9-1.1-3.9-2.4-.1 1.1 3.9-1.2 3.8M397.3 612.8c.7 0 1.5 0 2.2.1M397.2 615.3c.8 0 1.5.1 2.3.1"/></g><g fill="none"><path d="M399.6 616.2h2.2l.1-3.9-2.2-.1z"/><path stroke="#909090" stroke-width=".35" d="M401.9 616.2c-2.3 0 1.4-3.9-1.2-3.9-2.4 0 1.1 3.9-1.2 3.9M399.7 612.8l2.2.1M399.6 615.4h2.2"/></g><g fill="none"><path d="M402 616.2h2.2v-3.9H402v3.9z"/><path stroke="#909090" stroke-width=".35" d="M404.3 616.2c-2.3 0 1.4-3.9-1.2-3.9-2.4 0 1.2 3.9-1.2 3.9M402 612.9h2.2M401.9 615.4h2.3"/></g><g fill="none"><path d="M404.4 616.2h2.2v-3.9h-2.2z"/><path stroke="#909090" stroke-width=".35" d="M406.7 616.2c-2.3 0 1.3-3.9-1.3-3.9-2.4 0 1.2 3.9-1.1 3.9M404.4 612.9l2.2-.1M404.3 615.4h2.3"/></g><g fill="none"><path d="M406.7 616.2h2.2l-.1-3.9h-2.2l.1 3.9z"/><path stroke="#909090" stroke-width=".35" d="M409.1 616.2c-2.3.1 1.3-3.9-1.3-3.9-2.4 0 1.2 3.9-1.1 3.9M406.7 612.8h2.2M406.7 615.4h2.3"/></g><g fill="none"><path d="M409.1 616.1h2.3l-.2-3.9H409z"/><path stroke="#909090" stroke-width=".35" d="M411.4 616.1c-2.3.1 1.2-3.9-1.3-3.9-2.4.1 1.3 3.8-1 3.9M409.1 612.8l2.2-.1M409.1 615.4l2.2-.1"/></g><g fill="none"><path d="M411.5 616.1c.7 0 1.5 0 2.2-.1l-.2-3.9c-.7 0-1.5.1-2.2.1l.2 3.9z"/><path stroke="#909090" stroke-width=".35" d="M413.8 616c-2.3.1 1.2-4-1.4-3.8-2.4.1 1.3 3.8-1 3.9M411.4 612.7c.7 0 1.5 0 2.2-.1M411.4 615.3c.8 0 1.5 0 2.3-.1"/></g><g fill="none"><path d="M413.9 616l2.2-.1-.2-4-2.2.2z"/><path stroke="#909090" stroke-width=".35" d="M416.2 615.9c-2.3.1 1.2-4-1.4-3.8-2.4.1 1.4 3.8-1 3.9M413.8 612.6l2.1-.1M413.8 615.2l2.3-.1"/></g><g fill="none"><path d="M416.3 615.9c.7 0 1.5-.1 2.2-.1l-.3-3.9c-.7.1-1.5.1-2.2.1l.3 3.9z"/><path stroke="#909090" stroke-width=".35" d="M418.6 615.7c-2.3.2 1.1-4-1.5-3.8-2.4.1 1.4 3.8-.9 3.9M416.1 612.5c.7 0 1.5-.1 2.2-.1M416.2 615.1c.8 0 1.5-.1 2.3-.1"/></g><g fill="none"><path d="M418.7 615.7l2.2-.2-.3-3.9-2.2.2z"/><path stroke="#909090" stroke-width=".35" d="M421 615.5c-2.3.2 1.1-4-1.5-3.8-2.3.2 1.4 3.8-.9 4M418.4 612.4l2.2-.2M418.6 614.9l2.2-.1"/></g><g fill="none"><path d="M421 615.5l2.3-.1-.4-4-2.2.2z"/><path stroke="#909090" stroke-width=".35" d="M423.3 615.3c-2.3.2 1-4-1.6-3.8-2.3.2 1.5 3.8-.8 4M420.8 612.2l2.2-.2M420.9 614.8l2.3-.2"/></g></g><g><path fill="#FFC63E" d="M327.6 189.4c0 3.3 0 6.6-.1 9.9.2-4 .4-8 .7-12"/><path fill="#6D6E70" d="M327.5 186.9c0 3.3 0 6.6-.1 9.9V204.2c.2-4 .4-8 .7-12 .1-2 0-4.1 0-6.2v-3-.5c-.2 4-.4 8-.7 12 0 2.4 0 4.9.1 7.3 0-3.3 0-6.6.1-9.9v-6.8-.5c-.1.8 0 1.6-.1 2.3z"/><ellipse fill="#FFC63E" stroke="#6D6E70" stroke-width="2" stroke-miterlimit="10" cx="325.3" cy="172.8" rx="4.2" ry="3.6"/><ellipse fill="#FFC63E" stroke="#6D6E70" stroke-width="2" stroke-miterlimit="10" cx="350.6" cy="172.9" rx="4.2" ry="3.6"/><path fill="#FFC63E" d="M326.2 171.3s17.1 3.7 26.5-.2c2.4-.2 3.5 7.4-26.9 4 0-.1-3.4-4.3.4-3.8z"/><path fill="#6D6E70" d="M325.3 171.8c4.2.9 8.6 1.4 12.9 1.5 3.4.1 7 0 10.3-.7.8-.2 1.5-.4 2.3-.6.4-.1.7-.4 1.1-.4.2 0 .4.1.5.2 1.1.8-.2 2-.9 2.5-.5.4 1.9-1 1.1-.6-.1.1-.3.1-.4.2-.3.1-.6.3-.9.4-.8.3-1.6.5-2.4.6-2.5.5-5 .6-7.5.7-3.9.1-7.9-.2-11.8-.6-.5-.1-1.1-.1-1.6-.2-.4 0-1.1 0-1.4-.2-.2-.1-.4-.5-.5-.7-.4-.6-1.2-1.8-.8-2.6 0-.1.1-.1.1-.2l.1-.1c-.5.3-1 .6-1.5.8.1 0 .1 0 .2-.1.4 0 .7 0 1.1.1.2 0 .7-.4.9-.5.2-.1.7-.5.9-.5-.8-.1-1.3.1-2 .5-.5.3-1.3.5-1.5 1.2-.2.9.6 2 1.1 2.7.3.5.4.4 1 .5 1.2.1 2.5.3 3.8.4 2.2.2 4.3.3 6.5.4 3.1.1 6.3.1 9.4-.3 1.8-.2 3.6-.5 5.2-1.2.9-.4 1.8-1 2.7-1.5.4-.2.7-.5 1-.8.3-.4.6-.9.4-1.4-.1-.4-.5-.6-.9-.6-.2 0-.4.1-.6.2-.4.1-.8.3-1.2.4-.8.2-1.7.4-2.5.6-1.8.3-3.6.5-5.4.5-5.5.2-11.1-.4-16.6-1.5-.1 0-.2 0-.3-.1-.2 0-.7.4-.9.5-.3 0-.8.5-1 .5z"/><path fill="#FFC63E" d="M335 181.6s-2.7 20.3-8.9 23.2l-2.1 3.7s.9 3.4 6.8-5c0 0 5.7-20.5 6.9-27.6l-1.7 2.5-1 3.2z"/><path fill="#6D6E70" d="M334.1 182.1c-.5 4-1.4 7.9-2.5 11.8-.8 2.8-1.7 5.6-3.2 8.1-.6 1-1.3 1.9-2.2 2.7-.1.1-.2.2-.3.2-.8.6 1.6-.9 1-.6-.5.3-1 .6-1.5.8-.3.2-.4.5-.6.8-.3.6-.7 1.2-1 1.7-.1.2-.3.5-.4.7-.1.1-.3.3-.3.5s.1.3.2.4c.3.3.7.3 1.1.2.6-.2 1.1-.6 1.7-.9.5-.3 1-.6 1.5-1 1.5-1.2 2.7-2.8 3.8-4.4.3-.4.3-.8.5-1.3l1.8-6.6c1.6-6.1 3.3-12.3 4.5-18.5.1-.5.2-1.1.3-1.6 0 .1-.8.4-.9.5-.2.1-.7.3-.9.5-.3.5-.6.9-.9 1.4-.3.4-.6.8-.8 1.2-.2.5-.3 1.1-.5 1.7-.1.6-.2 1.1-.4 1.7 0-.1.7-.4.9-.5.2-.1.8-.3.9-.5.1-.5.3-1 .4-1.5.2-.6.3-1.2.5-1.7.2-.4.5-.8.8-1.1.3-.5.7-.9 1-1.4-.6.3-1.2.7-1.7 1-.6 3.4-1.4 6.7-2.2 10-1 3.8-2 7.7-3 11.5-.4 1.4-.7 2.8-1.1 4.2-.2.6-.3 1.3-.5 1.9-.1.3-.3.5-.5.7-.4.6-.9 1.2-1.3 1.7-.6.8-1.3 1.6-2.1 2.2-.3.2-.5.4-.8.6 2.9-2 1.8-1 1.3-.8-.1 0-.1 0-.2.1-.1 0-.2.1-.3.1-.2.1-.5.1-.7-.1-.2-.1-.5-.4-.4-.7 0-.2.3-.6.4-.8.2-.4.4-.8.6-1.1.3-.6.6-1.1.9-1.7-.6.3-1.2.7-1.7 1 1.8-.8 3.3-1.9 4.4-3.5 1.2-1.7 2-3.7 2.7-5.6 1.4-4 2.4-8.1 3.1-12.2.2-.9.3-1.9.4-2.8 0 .1-.8.4-.9.5-.2 0-.9.3-.9.5z"/><path fill="#FFC63E" d="M337.7 172.6s.3.3.3 1.3c0 0-.8 1.7-2 4.4-4.1 8.9-11.3 27.1-10.1 31.2 0 0-2.7 3.9-4.7 1.3-.1 0 2.9-20.8 16.5-38.2z"/><path fill="#6D6E70" d="M336.8 173.1c.3.3.4 1 .3 1.3-.1.4-.3.7-.5 1-.8 1.6-1.5 3.2-2.2 4.8-1.3 3-2.6 6-3.8 9.1-1.3 3.2-2.5 6.5-3.5 9.8-.9 2.6-1.7 5.3-2.1 8-.1.8-.2 1.7-.1 2.5.1.3.1.3-.2.6-.3.4-.7.8-1.1 1.1-.1.1-.2.2-.4.3-.6.5 1.8-.9 1.2-.7-.1 0-.1.1-.2.1-.3.1-.6.1-.9.1-.4-.1-1.3-.4-1.4-.9-.1-.2.1-.6.1-.8.8-4.5 2.1-8.9 3.6-13.2 2.7-7.6 6.2-14.9 10.9-21.4.7-.9 1.3-1.8 2-2.7-.2.2-.6.4-.9.5-.2.1-.6.3-.8.5-5.2 6.7-9.3 14.3-12.2 22.3-1.8 4.8-3.2 9.7-4.2 14.7-.1.3-.2.8-.2 1.1 0 .2.3.4.5.6.5.4 1.1.5 1.8.3.8-.3 1.5-.8 2.2-1.2.5-.3.9-.7 1.3-1.1.2-.2.6-.5.6-.8.1-.2-.1-.7-.1-.9-.1-2.3.7-4.8 1.3-7 1-3.3 2.1-6.6 3.3-9.8 1.2-3.3 2.5-6.5 3.9-9.7.6-1.4 1.2-2.8 1.9-4.2.4-.9.9-1.8 1.3-2.8.2-.4.5-.8.6-1.2.1-.3 0-1.1-.3-1.3-.1-.1-1.6 1.1-1.7 1z"/><g><path fill="#FFC63E" d="M339.6 180.9s2.3 18.7 7.7 21.4l1.8 3.4s-.8 3.2-5.9-4.6c0 0-4.9-19-5.9-25.5l1.5 2.3.8 3z"/><path fill="#6D6E70" d="M338.8 181.4c.4 3.5 1.1 7 2 10.3.7 2.5 1.4 5.1 2.6 7.4.5.9 1 1.8 1.8 2.6.3.3.6.6 1 .8.3.2.4.3.6.6.3.5.5 1 .8 1.5.2.4.5.9.7 1.3.1.2.1.3-.1.5l-.1.1c-.3.2 0 .1.8-.4.3-.2.5-.3.8-.5h-.7c-.8-.2-1.5-1-2.1-1.6-.6-.7-1.1-1.4-1.6-2.1-.3-.5-.8-1-1-1.5-.2-.4-.2-.9-.3-1.3-.5-2.1-1.1-4.3-1.6-6.4-1.3-5.5-2.7-10.9-3.7-16.4-.1-.5-.2-.9-.2-1.4-.6.3-1.2.7-1.7 1 .3.4.6.9.8 1.3.2.3.5.7.7 1.1.2.5.3 1 .4 1.5-.2.6-.1 1.1.1 1.6 0-.2 1.8-.8 1.7-1-.1-.5-.2-.9-.4-1.4-.1-.5-.2-1.1-.4-1.6-.2-.4-.4-.7-.7-1-.3-.4-.6-.9-.9-1.3 0 0-1.7.9-1.7 1 .9 5.5 2.3 10.9 3.6 16.3l1.8 7.2c.2.6.3 1.2.5 1.8 0 .1 0 .2.1.3.2.4.6.9.8 1.2l.9 1.2c.7.9 1.5 2 2.6 2.5.4.2.8.3 1.3.1.6-.3 1.3-.6 1.7-1 .1-.1.2-.2.2-.3.1-.3-.2-.7-.4-1-.3-.5-.6-1.1-.9-1.6-.1-.3-.3-.7-.5-1-.3-.3-.7-.4-1-.7-.4-.3-.7-.7-1-1.1-1.5-2-2.3-4.5-3.1-6.8-.8-2.6-1.4-5.2-1.9-7.8-.3-1.6-.5-3.2-.8-4.7v-.2s-.8.4-.9.5c.1-.1-.7.3-.6.4z"/><g><path fill="#FFC63E" d="M337.3 172.6s-.3.2-.3 1.2c0 0 .7 1.6 1.8 4 3.5 8.2 8.8 24.3 7.8 28 0 0 2.4 1.8 4.4.4 0 .1-1.8-17.5-13.7-33.6z"/><path fill="#6D6E70" d="M336.5 173.1c-.2.2-.3.9-.3 1.2.1.3.3.7.5 1 .7 1.5 1.3 3 2 4.5 1.2 2.9 2.3 5.9 3.3 8.9 1 3.1 2 6.2 2.8 9.4.6 2.3 1.2 4.6 1.2 7v.6c0 .1-.1.4-.1.5.1.3.7.5 1 .6.8.3 1.6.5 2.4.3 1-.2 1.9-.9 2.7-1.4-.3-2.3-.8-4.7-1.3-7-1.4-5.6-3.4-11-5.9-16.1-1.8-3.7-4-7.3-6.4-10.6-.3 0-1.9 1.1-1.9 1.1 6.7 9.2 11.4 20.1 13.3 31.3.1.6.2 1.2.3 1.7.1 1-.1.7 1.4-.1 0 0 .1 0 .1-.1-1.3.6-2.7.3-3.8-.4-.3-.2-.2-.2-.2-.6v-1.1c-.1-2.3-.6-4.6-1.2-6.8-1.5-6-3.5-11.9-5.8-17.6-.7-1.6-1.3-3.2-2.1-4.8-.2-.4-.5-.9-.6-1.3-.1-.3 0-1 .2-1.3-.4.6-1.2.6-1.6 1.1z"/></g></g><g><path fill="#FFC63E" d="M335.9 173.1s4-.4 4.4.4l-.7 3.2s-2.9.2-3.8-.4.1-3.2.1-3.2z"/><path fill="#6D6E70" d="M335 173.6c1.1-.1 2.2-.2 3.3 0 .3 0 .6.1.8.2.1.1.3.1.3.3 0 .2-.1.4-.1.6-.1.3-.1.6-.2 1-.1.5-.2 1.1-.3 1.6.6-.3 1.2-.7 1.7-1-.9.1-1.9.1-2.8-.1-.5-.1-1-.2-1.2-.7-.2-.5-.1-1.1 0-1.6l.3-1.2s-.3.2-.3.1c-.2.1-.4.2-.6.4s-.4.2-.6.4c-.1-.2-.3-.1-.3 0-.1.3-.2.6-.3 1-.1.5-.2 1.1-.1 1.7.1.5.6.7 1.1.8.6.1 1.2.2 1.8.2h1.2c.1 0 .2-.1.3-.1.2-.1.4-.2.6-.4.2-.1.4-.2.6-.4 0 0 .2-.1.3-.2l.6-3c0-.1 0-.2-.1-.3-.2-.1-.5-.2-.7-.2-.7-.1-1.4-.1-2.1-.1-.5 0-.9 0-1.4.1-.1 0-.2.1-.3.1-.2.1-.4.2-.6.4s-.4.2-.6.4c-.1-.2-.2 0-.3 0z"/></g><g><path fill="#FFC63E" d="M337 181c.1.2.5.6.6 1.1 1.2 5.8 1.6 14.8.2 29.5-.9 9.2-.9 7.6-1.8 21.1-.2 3-1.1 5.4-1.5 7.1.5.9.6 1.6.3 1.8-.1 0-.2.1-.6 0 0 0-2.7 0-2.7 1-.1.1-.2.3-.3.3-1-.1.9-14.5 1.8-21.6 1.3-9.5 2.8-23 4-40.3z"/><path fill="#6D6E70" d="M337 186c.9 1.2.9 2.9 1.1 4.4.2 1.7.3 3.4.4 5.1 0 .5 0 .9.1 1.4V193.5v-.4.8c0 .7 0 1.4-.1 2.1-.1 2.9-.3 5.7-.6 8.6-.5 6.4-1.3 12.7-1.7 19.1-.2 3.1-.4 6.2-1.3 9.3-.2.6-.4 1.1-.5 1.7-.2 1.2-.1 2.6-.1 3.8v5.6c0 .8.4 1.3.5 2v-9.8c0 .6-.8.3-1.2.4-.7.1-1.6.1-2.1.7-.2.3-.2.8-.5.4-.1-.1-.1-.3-.1-.4-.7-3.4-.2 11.7 0 8 .2-4.1.7-8.1 1.2-12.2 1.1-8.9 2.2-17.8 3.1-26.8.7-6.8 1.2-13.6 1.7-20.5.1-2 0-4.1 0-6.2v-3-.5c-.9 12.6-2.1 25.3-3.7 37.9-.6 4.9-1.2 9.7-1.8 14.6-.2 2.2-.5 4.4-.6 6.6-.1 1.6-.1 3.2-.1 4.9 0 2.3-.1 4.7.1 7.1 0 .5 0 1 .5.5.3-.3.2-.5.7-.7.4-.2 1-.3 1.5-.3.2 0 .8.1 1 0 .4-.2.3-.9.3-1.3.1-2.6 0-5.2 0-7.9 0-1.1 0-1.8-.5-2.8v10c.6-2.4 1.3-4.8 1.5-7.3.2-2.6.4-5.1.6-7.7.2-2.7.5-5.3.7-8 1.2-11.5 1.7-23 1.3-34.6-.1-2-.2-4-.4-6-.2-1.7-.2-3.8-1.2-5.2.1.1 0 1.5 0 1.5v7c.2.4.1 1.3.2 1.5z"/></g><g><path fill="#FFC63E" d="M331.241 248.713l.017-7.4 3.3.008-.017 7.4z"/><path fill="#6D6E70" d="M335.4 240.9h-3.3c-.1 0-.2.1-.3.1-.2.1-.4.2-.6.4-.2.1-.4.2-.6.4 0 0-.3.1-.3.2v6.9c0 .1-.1.4 0 .5.1.1.5 0 .6 0h2.6c.1 0 .2-.1.3-.1.2-.1.4-.2.6-.4.2-.1.4-.2.6-.4 0 0 .3-.1.3-.2v-6.5c.1-.3.1-.6.1-.9 0 .1-.8.4-.9.5-.2.1-.4.2-.6.4 0 0-.3.1-.3.2v7.4c.6-.3 1.2-.7 1.7-1H332.1v-.3-5.3-1.8c-.6.3-1.2.7-1.7 1h3.3c.1 0 .2-.1.3-.1.2-.1.4-.2.6-.4.2-.1.4-.2.6-.4 0-.1.1-.2.2-.2z"/></g><g><path fill="#FFC63E" d="M337.8 176.6c-.1.2-.4.5-.4 1-.9 5.7-.8 11.9.2 26.4.6 9.1.2 10.1.8 23.3.1 2.9.8 5.3 1.1 7-.4.9-.5 1.6-.2 1.8.1 0 .2.1.4 0 0 0 2 0 2 1 .1.1.1.3.2.3.7-.1-.6-14.2-1.2-21.2-1-9.4-2-22.7-2.9-39.6z"/><path fill="#6D6E70" d="M337.8 171.6c-.7 1.3-.7 2.9-.8 4.3-.1 1.6-.2 3.1-.2 4.7-.1 6.1-.1 12.3.2 18.4.2 4.8.6 9.7.8 14.5.1 3 .1 6 .2 9.2.1 2.8.2 5.5.3 8.3.1 2.9.6 5.6 1.1 8.4v-10c-.3.7-.4 1.4-.4 2.1v8.6s0 .8.1.9c.2.3.4.1.8.2.4 0 .8.1 1.2.3.4.2.3.5.6.8.4.4.3.1.4-.3.1-1.1.1-2.3.1-3.5v-8.3c-.1-2-.2-4-.4-6.1-.7-9.8-1.7-19.5-2.4-29.3-.5-7.6-1-15.2-1.4-22.8v3.5c0 2-.1 4.1 0 6.2.5 10.7 1.2 21.5 2.1 32.2.6 7.9 1.5 15.7 2 23.6 0 .7.1 2 .1 2.3v-8 .4s0 .3-.1.3c-.3.1-.2-.3-.3-.4-.3-.4-.5-.6-1-.7-.5-.2-1.4.1-1.5-.5v9.8c0-.7.4-1.3.4-2v-4.3c0-2.1.1-4.1-.3-6.1-.5-2.7-.8-5.3-.9-8-.2-3.7-.2-7.3-.3-11-.1-8.2-.9-16.3-1.1-24.4-.1-2.8 0 4.2 0 4.9v-1c0-.8.1-1.6.1-2.4.1-1.5.1-3.2.9-4.6.1-.2 0-1.3 0-1.5v-3.5-3.5c-.2-.6-.4-1.5-.3-1.7z"/><g><path fill="#FFC63E" d="M339.389 242.974l.017-7.2 2.4.006-.017 7.2z"/><path fill="#6D6E70" d="M338.5 236.3h2.1c.2 0 .3 0 .3.1.1.1 0 .4 0 .6v6.6c.6-.3 1.2-.7 1.7-1h-2.1c-.2 0-.3 0-.3-.1-.1-.1 0-.4 0-.6v-5.1-1.5c0 .1-.8.4-.9.5-.2.1-.4.2-.6.4 0-.1-.2 0-.2.1V243.4c0 .2 0 .1.1.2.7.1 1.5 0 2.3 0 .1 0 .2-.1.3-.1.2-.1.4-.2.6-.4.2-.1.4-.2.6-.4 0 0 .3-.1.3-.2v-3.9-2.5-.7c0-.2 0-.1-.1-.2-.7-.1-1.5 0-2.3 0-.1 0-.2.1-.3.1-.2.1-.4.2-.6.4-.2.1-.4.2-.6.4-.1 0-.2.2-.3.2z"/></g></g></g></svg>