<?xml version="1.0" encoding="utf-8"?>
<!-- Generator: Adobe Illustrator 25.0.0, SVG Export Plug-In . SVG Version: 6.00 Build 0)  -->
<svg version="1.1" id="Layer_1" xmlns="http://www.w3.org/2000/svg" xmlns:xlink="http://www.w3.org/1999/xlink" x="0px" y="0px"
	 viewBox="0 0 222 510" enable-background="new 0 0 222 510" xml:space="preserve">
<pattern  x="-229" y="652" width="1.7" height="22.1" patternUnits="userSpaceOnUse" id="b" viewBox="0.1 -22.6 1.7 22.1" overflow="visible">
	<g>
		<rect x="0.1" y="-22.6" fill="none" width="1.7" height="22.1"/>
		<g>
			<path fill="none" d="M0.1-0.5h1.7v-22.1H0.1V-0.5z"/>
			<path fill="none" stroke="#808184" stroke-width="0.25" stroke-miterlimit="10" d="M0.1,0v-23.4 M0.9,0v-23.4"/>
			<path fill="none" d="M1.1-0.7h1.1v-22H1.1V-0.7z"/>
		</g>
	</g>
</pattern>
<pattern  x="-229" y="652" width="1.7" height="22.1" patternUnits="userSpaceOnUse" id="c" viewBox="0.1 -22.6 1.7 22.1" overflow="visible">
	<g>
		<rect x="0.1" y="-22.6" fill="none" width="1.7" height="22.1"/>
		<g>
			<path fill="none" d="M0.1-0.5h1.7v-22.1H0.1V-0.5z"/>
			<path fill="none" stroke="#808184" stroke-width="0.25" stroke-miterlimit="10" d="M0.1,0v-23.4 M0.9,0v-23.4"/>
			<path fill="none" d="M1.1-0.7h1.1v-22H1.1V-0.7z"/>
		</g>
	</g>
</pattern>
<path fill="#808080" d="M17.3,272.5c0.1,0,0.1-8.7,0-8.7C17.2,263.7,17.2,272.5,17.3,272.5z"/>
<path fill="#F495B5" d="M112.9,6.8h-3.1h0.4C89.7,6.6,60.5,6.5,23.6,8c-0.4,1-1.1,3.9-1.3,5.9c-0.5,3.7,0.3,4.6-0.4,7.5
	c-0.6,2.3-1.3,2.2-2.2,5.1c-0.6,2.1-0.7,3.4-0.9,5.1c-0.3,2.1-0.8,5.2-2.2,8.9c0,0-11.2,33.4-9.8,103.7c0.1,8,4.5,148.6,4.5,148.6
	c7,102,6.5,136.4,8.8,145.1c-0.6,5.9,4.8,24.2,9.1,36.2c1.1,4.3,6.6,25.1,7.1,29.1c5.5,0,31.9-1.1,39.4-1.1
	c0.9-2.8,3.4-35.2,4.8-38.6c7.8-30.4,8.4-51,9.6-75.7l4.6-73c0,0,3.7-149.5,16.6-165.6l-0.4,0.3l0.2-0.3l0.4,0.3h-0.1l0.4-0.3
	l0.2,0.3l-0.4-0.3C124,165.5,127.7,315,127.7,315l4.6,73c1.2,24.8,1.8,45.3,9.6,75.7c1.3,3.4,3.9,35.8,4.8,38.6
	c7.5,0,33.9,1.1,39.4,1.1c0.4-4,6-24.9,7.1-29.1c4.3-12,9.7-30.3,9.1-36.2c2.3-8.8,1.9-43.2,8.8-145.1c0,0,4.4-140.6,4.5-148.6
	c1.3-70.3-9.8-103.7-9.8-103.7c-1.4-3.8-2-6.8-2.2-8.9c-0.2-1.7-0.2-3-0.9-5.1c-0.9-2.9-1.6-2.8-2.2-5.1c-0.8-2.9,0.1-3.8-0.4-7.5
	c-0.3-2-1-5-1.3-5.9c-36.9-1.5-66.1-1.4-86.6-1.2h0.4h-3.1"/>
<path fill="#6D6E70" d="M113.5,6.1h-3.1c-0.9,0-3.1,1.4-1.2,1.4h0.4c0.9,0,3.1-1.3,1.2-1.4c-28.9-0.3-57.7,0-86.6,1.2
	c-0.5,0-1.8,0.3-2,0.9c-0.9,2.6-1.5,5.6-1.5,8.4c0,2.8,0,5-1.4,7.6c-1.5,2.9-1.7,5.9-2.2,9.1c-0.4,2.6-1.2,5.1-2.1,7.6
	c-0.8,2.4-1.4,4.8-2,7.3C8.8,66,6.9,84.4,5.8,102.6c-1,17.7-1,35.3-0.5,53c0.4,15.1,0.9,30.3,1.4,45.4c0.6,18.2,1.1,36.4,1.7,54.5
	c0.4,11.7,0.7,23.5,1.1,35.2c0.2,7.5,0.9,15,1.4,22.4c0.9,14.6,1.8,29.2,2.6,43.7c1,18.7,1.9,37.5,2.8,56.2
	c0.4,7.9,0.3,16.2,1.8,24.1c0.5,2.5,0.4,5.2,0.8,7.7c1.1,6.4,3,12.6,4.9,18.8c1.5,4.9,3.3,9.6,4.6,14.5c1.3,4.8,2.5,9.6,3.7,14.5
	c0.9,3.6,2,7.3,2.4,11.1c0,0.3,0.7,0.3,0.8,0.3c13.1,0,26.3-1.1,39.4-1.1c0.5,0,1.9-0.3,2-0.9c0.5-1.7,0.6-3.6,0.8-5.4
	c0.4-3.4,0.7-6.8,1.1-10.2c0.7-6.7,1.2-13.4,2.3-20c0.5-3.2,1.5-6.4,2.2-9.6c1.4-6,2.6-12,3.6-18.1c1.7-10.7,2.8-21.5,3.4-32.3
	c1.4-23.8,2.8-47.7,4.3-71.5c0.8-12.2,1.4-24.4,1.8-36.6c0.9-26.4,2.2-52.8,4.3-79.1c1.1-13.5,2.3-27,4.2-40.4
	c1.2-8.8,2.3-18.2,5.8-26.4c0.5-1.1,1-2.1,1.7-3.1c0.8-1-2.1-0.3-2.5-0.1c-0.1,0.1-0.3,0.2-0.4,0.3c0.9,0,1.7-0.1,2.6-0.1
	c0.1-0.1,0.1-0.2,0.2-0.3c-0.9,0.2-1.9,0.5-2.8,0.7c0.1,0.1,0.3,0.2,0.4,0.3c0.7-0.4,1.3-0.8,2-1.2h-0.1c0.2,0.3,0.4,0.5,0.5,0.8
	c0.1-0.1,0.3-0.2,0.4-0.3c-0.9,0.1-1.7,0.2-2.6,0.3c0.1,0.1,0.1,0.2,0.2,0.3c0.9-0.3,1.9-0.6,2.8-0.9c-0.1-0.1-0.3-0.2-0.4-0.3
	c-0.6-0.4-3.3,0.3-2.7,1c1.8,2.3,2.6,5.3,3.4,8c1.2,4.4,2.1,8.9,2.9,13.4c2.1,12.7,3.4,25.5,4.6,38.3c2.4,27.3,3.8,54.6,4.9,81.9
	c0.5,11.8,0.8,23.5,1.5,35.3c1.4,21.5,3,43,4,64.6c1.1,22.4,2.8,44.6,7.9,66.5c0.7,3.1,1.7,6.2,2.2,9.4c0.5,3,0.8,6,1.1,9.1
	c0.8,7,1.4,14,2.2,21c0.2,1.7,0.3,3.6,0.8,5.2c0.1,0.3,0.6,0.3,0.8,0.3c13.1,0,26.3,1.1,39.4,1.1c0.4,0,2-0.3,2-0.9
	c0.4-3.8,1.6-7.6,2.5-11.4c1.2-4.8,2.4-9.6,3.7-14.4c2.9-11.2,7.5-21.9,9.4-33.4c0.4-2.5,0.3-5,0.8-7.5c0.2-1.2,0.4-2.4,0.5-3.6
	c0.4-3.9,0.6-7.9,0.9-11.8c0.9-15.7,1.5-31.3,2.3-47c0.6-12.7,1.4-25.3,2.1-38c0.9-14.6,2.1-29.1,2.8-43.7
	c0.4-8.6,0.5-17.2,0.8-25.8c0.5-17.4,1.1-34.9,1.6-52.3l1.5-50.4c0.4-13.1,0.8-26.3,0.6-39.4c-0.3-22.9-1.8-46-6.2-68.5
	c-0.9-4.6-1.9-9.2-3.2-13.8c-0.2-0.6-0.4-1.3-0.6-1.9c-0.9-2.7-1.7-5.3-2.1-8.2c-0.5-3.1-0.7-5.9-2.2-8.7c-1.3-2.4-1.3-4.6-1.3-7.2
	c0-2.8-0.6-5.9-1.5-8.6c-0.1-0.2-0.4-0.3-0.5-0.3c-29-1.2-57.9-1.5-86.9-1.2c-0.9,0-3.1,1.4-1.2,1.4h0.4c0.9,0,3.1-1.3,1.2-1.4h-3.1
	c-0.9,0-3.1,1.3-1.2,1.4h3.1c0.4-0.5,0.8-0.9,1.2-1.4h-0.4c-0.4,0.5-0.8,0.9-1.2,1.4c13.6-0.2,27.1-0.2,40.7,0
	c8.5,0.1,17,0.3,25.5,0.5c4.9,0.1,9.8,0.3,14.7,0.5c1.1,0,2.3,0.1,3.4,0.1c1.3,0.1,1.5-0.1,1.8,1.1c0.4,1.6,0.8,3.3,1,5
	c0.4,3.2-0.3,6.1,1.2,9c1.6,3.1,2,6,2.5,9.4c0.5,3,1.5,5.8,2.3,8.7c1.3,4.2,2.2,8.5,3.1,12.8c5,24.6,6.5,50,6.6,75.1
	c0.1,13.6-0.4,27.1-0.8,40.7c-0.6,19.3-1.2,38.6-1.8,58c-0.5,17.3-1.1,34.6-1.6,52c-0.5,16.7-1.8,33.4-2.8,50.1
	c-1.5,24.5-2.8,48.9-3.9,73.4c-0.5,10.5-0.5,21.3-2,31.7c-0.2,1.4-0.5,2.6-0.5,4c0.1,6.1-2.1,12.5-3.7,18.2
	c-1.8,6.2-4.2,12.3-5.8,18.5c-1.3,5-2.6,9.9-3.8,14.9c-1,4.1-2.3,8.3-2.8,12.5c0.7-0.3,1.4-0.6,2-0.9c-13.1,0-26.3-1.1-39.4-1.1
	c0.3,0.1,0.6,0.2,0.8,0.3c-0.5-1.7-0.6-3.6-0.8-5.4c-0.4-3.4-0.7-6.8-1.1-10.2c-0.7-6.7-1.2-13.4-2.3-20c-0.5-3.4-1.6-6.7-2.3-10
	c-1.4-6.1-2.6-12.3-3.6-18.5c-1.7-10.6-2.7-21.3-3.3-32c-1.4-23.9-2.8-47.8-4.3-71.6c-0.8-12.2-1.3-24.3-1.8-36.6
	c-0.9-26.3-2.2-52.7-4.3-79c-1.1-13.5-2.3-27.1-4.2-40.5c-1.2-8.6-2.3-18.1-5.9-26.2c-0.5-1.1-1-2.1-1.7-3c-0.9,0.3-1.8,0.7-2.7,1
	c0.1,0.1,0.3,0.2,0.4,0.3c0.5,0.3,3.2-0.2,2.8-0.9c-0.1-0.1-0.1-0.2-0.2-0.3c-0.4-0.7-2.1-0.1-2.6,0.3c-0.1,0.1-0.3,0.2-0.4,0.3
	c-0.7,0.5,0,0.8,0.5,0.8h0.1c0.3,0,2.7-0.7,2-1.2c-0.1-0.1-0.3-0.2-0.4-0.3c-0.7-0.5-2.4,0-2.8,0.7c-0.1,0.1-0.1,0.2-0.2,0.3
	c-0.4,0.8,2.3,0.1,2.6-0.1c0.1-0.1,0.3-0.2,0.4-0.3c-0.8,0-1.6,0-2.5-0.1c-1.8,2.2-2.7,5.1-3.4,7.8c-1.3,4.3-2.1,8.7-2.9,13.2
	c-2.2,12.6-3.5,25.3-4.6,38c-2.4,27.4-3.9,54.9-4.9,82.3c-0.5,11.8-0.8,23.7-1.5,35.5c-1.3,21.2-3,42.4-4,63.6
	c-1.1,22.7-2.7,45.2-7.9,67.4c-0.8,3.2-1.7,6.4-2.3,9.7c-0.5,3.1-0.8,6.1-1.1,9.2c-0.8,7-1.4,14-2.2,21c-0.2,1.7-0.3,3.6-0.8,5.2
	c0.7-0.3,1.4-0.6,2-0.9c-13.1,0-26.3,1.1-39.4,1.1c0.3,0.1,0.6,0.2,0.8,0.3c-0.4-3.8-1.6-7.6-2.5-11.4c-1.2-4.8-2.4-9.6-3.7-14.4
	c-2.9-11.2-7.5-21.9-9.4-33.4c-0.4-2.5-0.3-5-0.8-7.5c-0.2-1.2-0.4-2.4-0.5-3.6c-0.4-3.9-0.6-7.8-0.9-11.8
	c-0.9-15.7-1.5-31.4-2.3-47.1c-0.6-12.7-1.4-25.4-2.1-38.1c-0.9-14.4-2.1-28.8-2.8-43.3c-0.4-8.6-0.5-17.2-0.8-25.8
	c-0.5-17.4-1.1-34.9-1.6-52.3l-1.5-50.3c-0.4-13.1-0.8-26.1-0.6-39.2c0.3-23.1,1.8-46.3,6.2-69c0.9-4.6,1.9-9.1,3.1-13.6
	c0.2-0.6,0.4-1.3,0.6-1.9c0.9-2.7,1.7-5.3,2.1-8.2c0.5-3.1,0.7-5.9,2.2-8.7c1.2-2.3,1.4-4.3,1.3-6.8c-0.1-3,0.5-6.2,1.5-9
	c-0.7,0.3-1.4,0.6-2,0.9C51.6,7,80.4,6.7,109.3,7c0.4-0.5,0.8-0.9,1.2-1.4h-0.4c-0.4,0.5-0.8,0.9-1.2,1.4h3.1
	C113.2,7.4,115.4,6.1,113.5,6.1L113.5,6.1z"/>
<pattern  id="SVGID_1_" xlink:href="#b" patternTransform="matrix(1.9252 0 0 -1.6991 14372.4805 -29536.3242)">
</pattern>
<path fill="url(#SVGID_1_)" d="M30.6,474.4c0,0,37.2-1.2,47-2.2c0.3,9-0.6,13.3-2.7,24.1c-0.4,2.3-1,4.5-1.5,6.6
	c-12.4,0.3-24.9,0.5-37.3,0.8L30.6,474.4L30.6,474.4z"/>
<path fill="none" d="M28.2,473.8c0,0,34.2,0.3,50.3-2.1"/>
<pattern  id="SVGID_2_" xlink:href="#c" patternTransform="matrix(-1.9252 0 0 -1.6991 -45463.125 -29535.8496)">
</pattern>
<path fill="url(#SVGID_2_)" d="M191.2,474c0,0-37.2-1.2-47-2.2c-0.3,9,0.6,13.3,2.7,24.1c0.4,2.3,1,4.5,1.5,6.6
	c12.4,0.3,24.9,0.5,37.3,0.8L191.2,474L191.2,474z"/>
<path fill="none" d="M193.6,473.4c0,0-34.2,0.3-50.3-2.1"/>
<path fill="#7F8082" stroke="#7F8082" stroke-width="3.300000e-02" d="M121.2,143.6c0.9-0.3,1.8-0.6,2.6-0.6c0.7,0,1.1,0.4,1.3,1
	l0.3-0.7c-12,5.9-18.4,9.6-18.4,9.6s8.8-3.9,11.9-5.3c2.8-1.3,6-2.7,7.1-3.2l0.5-0.2l-0.1-0.5c-0.1-0.5-0.4-0.9-0.7-1.3
	c-0.4-0.4-0.8-0.5-1.2-0.6c-0.8-0.1-1.4,0-1.8,0.1c-1,0.2-1.5,0.4-1.9,0.6c-2.3,0.9-4.3,2.2-6.3,3.4c-2,1.2-4,2.5-6,3.8l-11.7,8
	l0.7,1.1l11.8-8c2-1.3,4-2.6,6-3.8C117.1,145.7,119.1,144.5,121.2,143.6L121.2,143.6z"/>
<path fill="#808080" d="M27.5,403.7c0.1,0,0.1-8.7,0-8.7C27.4,394.9,27.4,403.7,27.5,403.7z"/>
<path fill="none" stroke="#6D6E70" stroke-width="0.96" stroke-miterlimit="10" d="M108.6,48.3l1.8,101.5"/>
<path fill="none" stroke="#6D6E70" stroke-width="2" stroke-miterlimit="10" d="M16.4,38.4c0,0,94.6,21.6,187.3-0.5"/>
<path fill="#6D6E70" d="M21.4,21.9c3.3,0.7,6.6,1.3,9.9,1.9c8.7,1.5,17.5,2.8,26.2,3.8c12.8,1.5,25.7,2.5,38.5,2.9
	c15.5,0.6,31,0.4,46.4-0.7c16.9-1.2,33.7-3.5,50.2-7.3c2.1-0.5,4.1-1,6.2-1.5c1.8-0.4,1.3-2.3-0.5-1.9c-16.3,4.1-33,6.7-49.8,8.1
	c-15.5,1.4-31.1,1.8-46.7,1.4c-13.1-0.3-26.1-1.2-39.1-2.6c-9.3-1-18.6-2.3-27.8-3.8c-2.8-0.5-5.5-1-8.2-1.5
	c-0.5-0.1-0.9-0.2-1.4-0.3c-0.4-0.1,0.1,0-0.3-0.1c-0.2,0-0.3-0.1-0.5-0.1c-0.4-0.1-0.8-0.2-1.3-0.3H23c-0.7-0.2-1.6,0-2,0.5
	C20.6,21.1,20.7,21.8,21.4,21.9L21.4,21.9z"/>
<path fill="#6D6E70" d="M18.4,27.1c2.9,0.8,5.9,1.4,8.9,2c8.2,1.7,16.5,3,24.8,4.1c12.6,1.6,25.3,2.6,38,3.1
	c16,0.6,32.1,0.3,48.1-0.9c18.9-1.4,37.7-4.1,56.2-8c2.4-0.5,4.8-1,7.2-1.6c0.3-0.1,1.4-0.4,1.3-0.9s-1.3-0.2-1.6-0.1
	c-18.5,4.3-37.3,7.2-56.2,8.9c-16.2,1.4-32.5,1.9-48.7,1.5c-12.9-0.3-25.8-1.2-38.7-2.8c-8.7-1-17.4-2.4-26-4.1
	c-3.6-0.7-7.1-1.7-10.7-2.4h-0.1c-0.6-0.2-1.5,0.1-2,0.4C18.4,26.5,17.7,27,18.4,27.1L18.4,27.1z"/>
<path fill="#7F8082" stroke="#7F8082" stroke-width="4.400000e-02" d="M21.1,324.7c3.8,18.8,7,33.6,9,43.8c1,5.1,1.8,9,2.2,11.7
	c0.5,2.7,0.7,4,0.7,4s-0.2-1.4-0.5-3.6s-0.7-5.2-1.2-8.4s-1.1-6.7-1.6-9.9c-0.6-3.2-1-6-1.4-7.9c-2.2-12.3-5-26.5-5.8-30.5
	c-4.2-21.4-8-43-8.8-64.9l-1.7,0.1C13,281.3,16.8,303.1,21.1,324.7L21.1,324.7z M193.2,383.6c-3.7,18.8-6.6,33.7-8.2,44
	c-0.8,5.1-1.4,9.1-1.6,11.8c-0.3,2.7-0.5,4.1-0.5,4.1s0.2-1.4,0.6-3.6c0.3-2.2,0.9-5.2,1.5-8.4s1.3-6.7,1.9-9.8
	c0.7-3.1,1.2-5.9,1.6-7.9c2.6-12.2,5.6-26.4,6.4-30.4c4.2-21.5,8-43.2,8.8-65.1l-1.7-0.1C201.2,340.2,197.4,362,193.2,383.6
	L193.2,383.6z"/>
<path fill="none" stroke="#6D6E70" stroke-width="0.96" stroke-miterlimit="10" d="M22.7,9.3c0,0,32.7,8.7,84.2,8.3
	c0,0,65.4,0,91.3-9.9"/>
<path opacity="0.34" fill="#231F20" enable-background="new    " d="M106,7.6c0,0-78.8-1.2-83.7,2c0,0,35.4,8.7,85.5,7.5
	c0,0,62.2,0,85.1-8.3C192.8,8.8,153.4,7.2,106,7.6z"/>
<g>
	<path fill="#7F8082" stroke="#7F8082" stroke-width="5.000000e-02" d="M53.1,474.9c5.1-0.2,9.6-1.4,13.3-2.6l0.2-0.1l0.1-0.1
		c2.6-2.4,4.9-4.6,7-6.4c0.5-0.5,1-0.9,1.5-1.3c0.2-0.2,0.5-0.4,0.7-0.5H76l0,0l0,0h-0.1c-0.1,0-0.2,0-0.2-0.1
		c-0.1,0-0.2-0.2-0.2-0.3v-0.1l0,0l0,0c-0.1,0.1-0.1,0.2-0.2,0.3c-0.7,0.9-1.4,1.7-2,2.4c-2.5,2.8-3.8,4.3-3.8,4.3s0.6-0.6,1.5-1.4
		c0.9-0.9,2.2-2.1,3.6-3.5c0.3-0.3,0.7-0.7,1-1.1c0.2-0.2,0.3-0.4,0.5-0.6c0-0.1,0.1-0.1,0.1-0.3c0,0,0-0.3-0.1-0.4
		c-0.1-0.1-0.3-0.1-0.3-0.1c-0.1,0-0.2,0-0.2,0.1c-0.2,0.1-0.3,0.1-0.4,0.2c-0.9,0.6-1.6,1.2-2.4,1.7c-1.5,1.2-2.8,2.2-3.7,3
		c-1.4,1.2-2.9,2.4-3.5,2.9l0.3-0.2c-6.3,1.9-11.4,2.2-13.2,2.2c-3.2,0.1-6.6-0.1-9.6-0.8l0.3,0.1c-3.9-2.7-7.9-5.3-11.9-7.9
		c-0.5-0.3-1-0.6-1.6-0.9c-0.3-0.2-0.5-0.3-0.9-0.5c-0.1,0-0.2-0.1-0.3-0.1c0,0-0.2-0.1-0.4-0.1c0,0-0.2,0-0.4,0.1s-0.3,0.2-0.4,0.4
		s-0.2,0.4-0.2,0.6c0,0.3,0,0.2,0.1,0.3c0,0.1,0.1,0.2,0.1,0.3l0.1,0.1c0.1,0.1,0.1,0.1,0.1,0.2l0.2,0.2c0.9,0.9,1.8,1.6,2.8,2.4
		c1.9,1.5,3.7,3,5.6,4.4l1.2-1.6c-1.9-1.4-3.7-2.9-5.6-4.4c-0.9-0.7-1.9-1.5-2.6-2.2l-0.1-0.1l0,0l0,0c0,0,0.1,0.1,0.1,0.2v0.2
		c0,0.2-0.1,0.4-0.1,0.5c-0.1,0.1-0.2,0.3-0.4,0.3c-0.2,0.1-0.4,0.1-0.4,0.1h-0.2h0.1c0.2,0.1,0.5,0.2,0.7,0.4l1.5,0.9
		c4,2.5,7.9,5.2,11.9,7.8l0.1,0.1h0.1C46.1,474.9,49.6,475,53.1,474.9L53.1,474.9z"/>
</g>
<g>
	<path fill="#7F8082" stroke="#7F8082" stroke-width="5.000000e-02" d="M165.5,470.9c-3.4-1-6.4-2.4-8.7-3.6l0.2,0.1
		c-3.6-3.3-6.8-6.1-9.7-8.5c-0.4-0.3-0.7-0.6-1.2-0.8c-0.1-0.1-0.2-0.1-0.4-0.2c-0.1,0-0.2,0-0.2-0.1c-0.1,0-0.2,0-0.4,0.1
		c-0.1,0-0.2,0.1-0.3,0.3c0,0.1-0.1,0.2-0.1,0.2v0.3c0,0.1,0,0.1,0.1,0.2c0.2,0.3,0.3,0.5,0.4,0.7c0.5,0.7,1.1,1.3,1.6,1.9
		c1.1,1.2,2,2.2,2.9,3.1c3.6,3.7,5.5,5.5,5.5,5.5s-2.4-2.8-5.1-6c-1.4-1.6-2.9-3.4-4-5.1c-0.1-0.1-0.1-0.2-0.2-0.3
		c0-0.1,0-0.1-0.1-0.1l0,0h-0.1c-0.1,0.1-0.3,0-0.3,0l0,0v0.2c0,0.1,0,0.2-0.1,0.2l0,0l0,0c0.1,0,0.2,0.1,0.3,0.2
		c0.4,0.3,0.7,0.6,1.1,0.9c0.7,0.6,1.2,1.1,1.7,1.5c3,2.8,6.3,6,7.4,7.1l0.1,0.1l0.1,0.1c2.6,1.4,4.6,2.3,6.1,2.9
		c1.5,0.6,2.6,0.9,3.2,1.1c2.9,0.8,5.8,1.3,8.8,1.5c1.5,0.1,3,0.1,4.5,0s2.9-0.2,4.5-0.6h0.2l0.2-0.1c3.5-2.5,7-4.9,10.5-7.2
		c0.4-0.3,0.9-0.5,1.3-0.8l0.6-0.3l0,0l0,0c0,0,0-0.2-0.1-0.2v-0.3v-0.2c0-0.1,0-0.2,0.1-0.2l0,0h-0.2c-0.1,0-0.3-0.1-0.4-0.2
		l-0.1-0.1h-0.1l0,0l0,0l0,0c-0.2,0.3-0.6,0.7-0.9,1.1l-1.1,1.1c-1.5,1.5-3.1,2.9-4.7,4.3l1.3,1.5c1.6-1.4,3.2-2.8,4.8-4.3l1.2-1.2
		c0.4-0.4,0.8-0.8,1.2-1.4c0.1-0.1,0.1-0.2,0.2-0.3v-0.3v-0.3c0-0.2-0.1-0.4-0.2-0.6c-0.1-0.1-0.3-0.3-0.5-0.3h-0.6
		c-0.2,0-0.2,0.1-0.4,0.1c-0.4,0.1-0.6,0.3-0.9,0.4c-0.5,0.3-1,0.5-1.4,0.8c-3.7,2.3-7.1,4.8-10.6,7.2l0.3-0.1
		c-2.7,0.6-5.7,0.7-8.5,0.5C171.1,472.2,168.2,471.7,165.5,470.9L165.5,470.9z"/>
</g>
<g>
	<g>
		<path fill="none" d="M28.6,475.3c0.8,0.1,1.6,0.3,2.3,0.4l0.6-3.9c-0.7-0.1-1.5-0.2-2.2-0.3L28.6,475.3L28.6,475.3z"/>
		<path fill="none" stroke="#7F8082" stroke-width="0.35" d="M31.1,475.7c-1.2-0.2-0.7-1.1-0.2-2s0.8-1.8-0.4-2
			c-1.2-0.2-1,0.8-0.9,1.8s0.3,2-0.9,1.8 M29.3,472.1c0.7,0.1,1.5,0.2,2.2,0.3 M28.7,474.6c0.8,0.1,1.6,0.3,2.3,0.4"/>
	</g>
	<g>
		<path fill="none" d="M31.1,475.7c0.8,0.1,1.5,0.2,2.3,0.3l0.5-3.9c-0.8-0.1-1.5-0.2-2.2-0.3L31.1,475.7L31.1,475.7z"/>
		<path fill="none" stroke="#7F8082" stroke-width="0.35" d="M33.5,476c-2.3-0.3,1.9-3.7-0.8-4c-2.4-0.3,0.7,4-1.7,3.7 M31.6,472.4
			c0.7,0.1,1.5,0.2,2.2,0.3 M31.2,475c0.8,0.1,1.6,0.2,2.3,0.3"/>
	</g>
	<g>
		<path fill="none" d="M33.6,476.1c0.8,0.1,1.5,0.2,2.3,0.3l0.4-3.9c-0.8-0.1-1.5-0.2-2.3-0.2L33.6,476.1L33.6,476.1z"/>
		<path fill="none" stroke="#7F8082" stroke-width="0.35" d="M36,476.3c-2.3-0.2,1.8-3.7-0.8-4c-2.4-0.3,0.8,4-1.6,3.7 M34,472.7
			c0.7,0.1,1.5,0.2,2.3,0.2 M33.6,475.3c0.8,0.1,1.6,0.2,2.3,0.3"/>
	</g>
	<g>
		<path fill="none" d="M36.1,476.3c0.8,0.1,1.5,0.2,2.3,0.2l0.3-3.9c-0.8-0.1-1.5-0.1-2.3-0.2L36.1,476.3z"/>
		<path fill="none" stroke="#7F8082" stroke-width="0.35" d="M38.5,476.5c-2.3-0.2,1.8-3.8-0.9-4c-2.4-0.2,0.8,4-1.6,3.7 M36.4,473
			c0.8,0.1,1.5,0.1,2.3,0.2 M36.1,475.6c0.8,0.1,1.6,0.2,2.3,0.2"/>
	</g>
	<g>
		<path fill="none" d="M38.5,476.5c0.8,0.1,1.6,0.1,2.3,0.2l0.3-3.9c-0.8,0-1.5-0.1-2.3-0.2L38.5,476.5z"/>
		<path fill="none" stroke="#7F8082" stroke-width="0.35" d="M40.9,476.7c-2.3-0.1,1.7-3.8-1-4c-2.4-0.2,0.9,4-1.5,3.8 M38.8,473.2
			c0.8,0.1,1.5,0.1,2.3,0.2 M38.6,475.8c0.8,0.1,1.6,0.1,2.4,0.2"/>
	</g>
	<g>
		<path fill="none" d="M41,476.7l2.4,0.2l0.2-3.9l-2.3-0.2L41,476.7z"/>
		<path fill="none" stroke="#7F8082" stroke-width="0.35" d="M43.4,476.9c-2.3-0.1,1.6-3.8-1.1-4c-2.4-0.2,1,3.9-1.4,3.8
			 M41.3,473.4l2.2,0.1 M41,476l2.4,0.1"/>
	</g>
	<g>
		<path fill="none" d="M43.5,476.9l2.3,0.1l0.2-3.9l-2.3-0.1L43.5,476.9z"/>
		<path fill="none" stroke="#7F8082" stroke-width="0.35" d="M45.9,477c-2.3-0.1,1.6-3.8-1.1-4c-2.4-0.1,1,3.9-1.4,3.8 M43.7,473.5
			l2.3,0.1 M43.5,476.1l2.4,0.1"/>
	</g>
	<g>
		<path fill="none" d="M46,477c0.8,0,1.6,0,2.3,0.1l0.1-3.9c-0.8,0-1.5,0-2.3-0.1L46,477z"/>
		<path fill="none" stroke="#7F8082" stroke-width="0.35" d="M48.4,477c-2.4,0,1.5-3.9-1.2-3.9c-2.4-0.1,1.1,3.9-1.3,3.8
			 M46.1,473.6c0.8,0,1.5,0,2.3,0.1 M46,476.2c0.8,0,1.6,0,2.4,0.1"/>
	</g>
	<g>
		<path fill="none" d="M48.5,477l2.3,0.1v-3.9l-2.3-0.1V477z"/>
		<path fill="none" stroke="#7F8082" stroke-width="0.35" d="M50.9,477.1c-2.4,0,1.4-3.9-1.2-3.9c-2.4,0,1.2,3.9-1.2,3.9
			 M48.5,473.7h2.3 M48.4,476.3h2.4"/>
	</g>
	<g>
		<path fill="none" d="M50.9,477.1h2.4l-0.1-4H51L50.9,477.1z"/>
		<path fill="none" stroke="#7F8082" stroke-width="0.35" d="M53.4,477.1c-2.4,0,1.4-3.9-1.3-3.9c-2.4,0,1.2,3.9-1.2,3.9 M51,473.7
			h2.2 M50.9,476.3h2.4"/>
	</g>
	<g>
		<path fill="none" d="M53.4,477.1h2.3l-0.1-3.9h-2.3L53.4,477.1z"/>
		<path fill="none" stroke="#7F8082" stroke-width="0.35" d="M55.8,477c-2.4,0.1,1.3-4-1.4-3.9c-2.4,0,1.3,3.9-1.1,3.9 M53.4,473.7
			h2.3 M53.4,476.3h2.4"/>
	</g>
	<g>
		<path fill="none" d="M55.9,477l2.3-0.1l-0.1-3.9l-2.3,0.1L55.9,477z"/>
		<path fill="none" stroke="#7F8082" stroke-width="0.35" d="M58.3,476.9c-2.4,0.1,1.3-4-1.4-3.9c-2.4,0.1,1.3,3.8-1.1,3.9
			 M55.8,473.7l2.3-0.1 M55.8,476.2h2.4"/>
	</g>
	<g>
		<path fill="none" d="M58.4,476.9c0.8,0,1.6-0.1,2.3-0.1l-0.2-3.9c-0.8,0-1.5,0.1-2.3,0.1L58.4,476.9z"/>
		<path fill="none" stroke="#7F8082" stroke-width="0.35" d="M60.8,476.8c-2.3,0.1,1.2-4-1.5-3.8c-2.4,0.1,1.4,3.8-1,3.9
			 M58.3,473.6c0.8,0,1.5-0.1,2.3-0.1 M58.3,476.2c0.8,0,1.6-0.1,2.4-0.1"/>
	</g>
	<g>
		<path fill="none" d="M60.9,476.8l2.3-0.2l-0.3-3.9l-2.3,0.2L60.9,476.8z"/>
		<path fill="none" stroke="#7F8082" stroke-width="0.35" d="M63.3,476.6c-2.3,0.1,1.1-4-1.5-3.8c-2.4,0.1,1.5,3.8-0.9,3.9
			 M60.7,473.4l2.2-0.1 M60.8,476l2.3-0.1"/>
	</g>
	<g>
		<path fill="none" d="M63.3,476.6l2.4-0.2l-0.4-3.9l-2.2,0.2L63.3,476.6z"/>
		<path fill="none" stroke="#7F8082" stroke-width="0.35" d="M65.7,476.4c-2.3,0.2,1.1-4-1.6-3.8c-2.4,0.2,1.5,3.8-0.9,4
			 M63.1,473.3l2.3-0.2 M63.2,475.9l2.4-0.2"/>
	</g>
	<g>
		<path fill="none" d="M65.8,476.4l2.3-0.2l-0.4-3.9l-2.2,0.2L65.8,476.4z"/>
		<path fill="none" stroke="#7F8082" stroke-width="0.35" d="M68.2,476.2c-2.3,0.2,1-4-1.7-3.8c-2.4,0.2,1.6,3.8-0.8,4 M65.5,473.1
			l2.3-0.2 M65.7,475.6l2.4-0.2"/>
	</g>
	<g>
		<path fill="none" d="M68.3,476.2l2.3-0.3l-0.5-3.9l-2.2,0.3L68.3,476.2z"/>
		<path fill="none" stroke="#7F8082" stroke-width="0.35" d="M70.7,475.9c-2.3,0.3,0.9-4.1-1.7-3.7c-2.4,0.3,1.6,3.7-0.7,4
			 M67.9,472.9l2.3-0.3 M68.2,475.4l2.3-0.3"/>
	</g>
	<g>
		<path fill="none" d="M70.8,475.9l2.3-0.3l-0.6-3.9l-2.2,0.3L70.8,475.9z"/>
		<path fill="none" stroke="#7F8082" stroke-width="0.35" d="M73.1,475.6c-2.3,0.3,0.9-4-1.8-3.7c-2.4,0.3,1.7,3.7-0.7,4
			 M70.4,472.6l2.2-0.3 M70.6,475.1l2.4-0.3"/>
	</g>
	<g>
		<path fill="none" d="M73.2,475.6l2.3-0.4l-0.6-3.9l-2.2,0.4L73.2,475.6z"/>
		<path fill="none" stroke="#7F8082" stroke-width="0.35" d="M75.6,475.2c-2.3,0.4,0.8-4.1-1.8-3.7c-2.4,0.4,1.8,3.6-0.6,4
			 M72.8,472.3l2.2-0.4 M73.1,474.8l2.3-0.4"/>
	</g>
	<g>
		<path fill="none" d="M75.7,475.2l2.3-0.4l-0.7-3.9l-2.2,0.4L75.7,475.2z"/>
		<path fill="none" stroke="#7F8082" stroke-width="0.35" d="M78.1,474.8c-2.3,0.4,0.7-4.1-1.9-3.7c-2.4,0.4,1.8,3.6-0.5,4
			 M75.2,471.9l2.2-0.4 M75.5,474.4l2.3-0.3"/>
	</g>
</g>
<g>
	<g>
		<path fill="none" d="M142.1,473.8l2.2,0.3l0.6-3.9l-2.1-0.3L142.1,473.8z"/>
		<path fill="none" stroke="#909090" stroke-width="0.35" d="M144.4,474.1c-2.2-0.3,1.9-3.7-0.6-4c-1.1-0.2-1,0.8-0.9,1.8
			s0.3,2-0.9,1.8 M142.7,470.5l2.1,0.3 M142.2,473l2.2,0.4"/>
	</g>
	<g>
		<path fill="none" d="M144.5,474.1l2.2,0.3l0.5-3.8l-2.2-0.3L144.5,474.1z"/>
		<path fill="none" stroke="#909090" stroke-width="0.35" d="M146.8,474.5c-2.2-0.3,1.9-3.7-0.7-4c-2.3-0.3,0.6,4-1.7,3.7
			 M145,470.8l2.1,0.3 M144.5,473.4l2.3,0.3"/>
	</g>
	<g>
		<path fill="none" d="M146.8,474.5l2.3,0.2l0.4-3.9l-2.2-0.2L146.8,474.5z"/>
		<path fill="none" stroke="#909090" stroke-width="0.35" d="M149.1,474.7c-2.2-0.3,1.8-3.7-0.7-4c-2.3-0.3,0.7,4-1.6,3.7
			 M147.3,471.1l2.1,0.3 M146.9,473.7l2.2,0.3"/>
	</g>
	<g>
		<path fill="none" d="M149.2,474.8l2.2,0.2l0.4-3.9l-2.1-0.2L149.2,474.8z"/>
		<path fill="none" stroke="#909090" stroke-width="0.35" d="M151.5,475c-2.3-0.2,1.8-3.7-0.8-4c-2.3-0.3,0.7,4-1.6,3.7
			 M149.6,471.4l2.2,0.3 M149.2,474l2.3,0.2"/>
	</g>
	<g>
		<path fill="none" d="M151.6,475l2.2,0.2l0.4-3.9l-2.2-0.2L151.6,475z"/>
		<path fill="none" stroke="#909090" stroke-width="0.35" d="M153.9,475.3c-2.3-0.2,1.7-3.8-0.8-4c-2.3-0.2,0.8,4-1.5,3.7
			 M151.9,471.7l2.2,0.2 M151.6,474.2l2.3,0.3"/>
	</g>
	<g>
		<path fill="none" d="M153.9,475.3l2.3,0.1l0.3-3.9l-2.2-0.2L153.9,475.3z"/>
		<path fill="none" stroke="#909090" stroke-width="0.35" d="M156.2,475.5c-2.3-0.2,1.7-3.8-0.9-4c-2.3-0.2,0.8,4-1.5,3.8
			 M154.3,471.9l2.1,0.2 M154,474.5l2.2,0.2"/>
	</g>
	<g>
		<path fill="none" d="M156.3,475.5c0.7,0.1,1.5,0.1,2.2,0.2l0.3-3.9c-0.7,0-1.5-0.1-2.2-0.2L156.3,475.5z"/>
		<path fill="none" stroke="#909090" stroke-width="0.35" d="M158.6,475.6c-2.3-0.2,1.7-3.8-0.9-4c-2.3-0.2,0.9,4-1.4,3.8
			 M156.6,472.1c0.7,0.1,1.5,0.1,2.2,0.2 M156.3,474.7c0.8,0.1,1.5,0.1,2.3,0.2"/>
	</g>
	<g>
		<path fill="none" d="M158.7,475.6l2.2,0.2l0.3-3.9l-2.2-0.2L158.7,475.6z"/>
		<path fill="none" stroke="#909090" stroke-width="0.35" d="M161,475.8c-2.3-0.2,1.6-3.8-1-4c-2.3-0.2,0.9,4-1.4,3.8 M158.9,472.3
			l2.2,0.2 M158.7,474.9l2.3,0.1"/>
	</g>
	<g>
		<path fill="none" d="M161.1,475.8l2.2,0.1l0.2-3.9l-2.2-0.1L161.1,475.8z"/>
		<path fill="none" stroke="#909090" stroke-width="0.35" d="M163.4,475.9c-2.3-0.1,1.6-3.8-1-4c-2.4-0.1,0.9,3.9-1.4,3.8
			 M161.3,472.5l2.2,0.1 M161.1,475l2.2,0.1"/>
	</g>
	<g>
		<path fill="none" d="M163.5,475.9c0.7,0,1.5,0.1,2.2,0.1l0.2-3.9c-0.7,0-1.5-0.1-2.2-0.1L163.5,475.9z"/>
		<path fill="none" stroke="#909090" stroke-width="0.35" d="M165.8,476c-2.3-0.1,1.5-3.8-1.1-4c-2.4-0.1,1,3.9-1.3,3.8
			 M163.6,472.6c0.7,0,1.5,0.1,2.2,0.1 M163.4,475.2c0.8,0,1.5,0.1,2.3,0.1"/>
	</g>
	<g>
		<path fill="none" d="M165.8,476l2.3,0.1l0.1-3.9l-2.2-0.1L165.8,476z"/>
		<path fill="none" stroke="#909090" stroke-width="0.35" d="M168.1,476.1c-2.3-0.1,1.5-3.9-1.1-3.9c-2.4-0.1,1,3.9-1.3,3.8
			 M166,472.7l2.2,0.1 M165.8,475.3h2.3"/>
	</g>
	<g>
		<path fill="none" d="M168.2,476.1c0.7,0,1.5,0,2.2,0.1l0.1-3.9c-0.7,0-1.5,0-2.2-0.1L168.2,476.1z"/>
		<path fill="none" stroke="#909090" stroke-width="0.35" d="M170.5,476.2c-2.3,0,1.5-3.9-1.1-3.9c-2.4-0.1,1.1,3.9-1.2,3.8
			 M168.3,472.8c0.7,0,1.5,0,2.2,0.1 M168.2,475.3c0.8,0,1.5,0.1,2.3,0.1"/>
	</g>
	<g>
		<path fill="none" d="M170.6,476.2h2.2l0.1-3.9l-2.2-0.1L170.6,476.2z"/>
		<path fill="none" stroke="#909090" stroke-width="0.35" d="M172.9,476.2c-2.3,0,1.4-3.9-1.2-3.9c-2.4,0,1.1,3.9-1.2,3.9
			 M170.7,472.8l2.2,0.1 M170.6,475.4h2.2"/>
	</g>
	<g>
		<path fill="none" d="M173,476.2h2.2v-3.9H173V476.2z"/>
		<path fill="none" stroke="#909090" stroke-width="0.35" d="M175.3,476.2c-2.3,0,1.4-3.9-1.2-3.9c-2.4,0,1.2,3.9-1.2,3.9
			 M173,472.9h2.2 M172.9,475.4h2.3"/>
	</g>
	<g>
		<path fill="none" d="M175.4,476.2h2.2v-3.9h-2.2V476.2z"/>
		<path fill="none" stroke="#909090" stroke-width="0.35" d="M177.7,476.2c-2.3,0,1.3-3.9-1.3-3.9c-2.4,0,1.2,3.9-1.1,3.9
			 M175.4,472.9l2.2-0.1 M175.3,475.4h2.3"/>
	</g>
	<g>
		<path fill="none" d="M177.7,476.2h2.2l-0.1-3.9h-2.2L177.7,476.2z"/>
		<path fill="none" stroke="#909090" stroke-width="0.35" d="M180.1,476.2c-2.3,0.1,1.3-3.9-1.3-3.9c-2.4,0,1.2,3.9-1.1,3.9
			 M177.7,472.8h2.2 M177.7,475.4h2.3"/>
	</g>
	<g>
		<path fill="none" d="M180.1,476.1h2.3l-0.2-3.9H180L180.1,476.1z"/>
		<path fill="none" stroke="#909090" stroke-width="0.35" d="M182.4,476.1c-2.3,0.1,1.2-3.9-1.3-3.9c-2.4,0.1,1.3,3.8-1,3.9
			 M180.1,472.8l2.2-0.1 M180.1,475.4l2.2-0.1"/>
	</g>
	<g>
		<path fill="none" d="M182.5,476.1c0.7,0,1.5,0,2.2-0.1l-0.2-3.9c-0.7,0-1.5,0.1-2.2,0.1L182.5,476.1z"/>
		<path fill="none" stroke="#909090" stroke-width="0.35" d="M184.8,476c-2.3,0.1,1.2-4-1.4-3.8c-2.4,0.1,1.3,3.8-1,3.9
			 M182.4,472.7c0.7,0,1.5,0,2.2-0.1 M182.4,475.3c0.8,0,1.5,0,2.3-0.1"/>
	</g>
	<g>
		<path fill="none" d="M184.9,476l2.2-0.1l-0.2-4l-2.2,0.2L184.9,476z"/>
		<path fill="none" stroke="#909090" stroke-width="0.35" d="M187.2,475.9c-2.3,0.1,1.2-4-1.4-3.8c-2.4,0.1,1.4,3.8-1,3.9
			 M184.8,472.6l2.1-0.1 M184.8,475.2l2.3-0.1"/>
	</g>
	<g>
		<path fill="none" d="M187.3,475.9c0.7,0,1.5-0.1,2.2-0.1l-0.3-3.9c-0.7,0.1-1.5,0.1-2.2,0.1L187.3,475.9z"/>
		<path fill="none" stroke="#909090" stroke-width="0.35" d="M189.6,475.7c-2.3,0.2,1.1-4-1.5-3.8c-2.4,0.1,1.4,3.8-0.9,3.9
			 M187.1,472.5c0.7,0,1.5-0.1,2.2-0.1 M187.2,475.1c0.8,0,1.5-0.1,2.3-0.1"/>
	</g>
	<g>
		<path fill="none" d="M189.7,475.7l2.2-0.2l-0.3-3.9l-2.2,0.2L189.7,475.7z"/>
		<path fill="none" stroke="#909090" stroke-width="0.35" d="M192,475.5c-2.3,0.2,1.1-4-1.5-3.8c-2.3,0.2,1.4,3.8-0.9,4
			 M189.4,472.4l2.2-0.2 M189.6,474.9l2.2-0.1"/>
	</g>
	<g>
		<path fill="none" d="M192,475.5l2.3-0.1l-0.4-4l-2.2,0.2L192,475.5z"/>
		<path fill="none" stroke="#909090" stroke-width="0.35" d="M194.3,475.3c-2.3,0.2,1-4-1.6-3.8c-2.3,0.2,1.5,3.8-0.8,4
			 M191.8,472.2l2.2-0.2 M191.9,474.8l2.3-0.2"/>
	</g>
</g>
<g>
	<path fill="#F495B5" d="M98.6,49.4c0,3.3,0,6.6-0.1,9.9c0.2-4,0.4-8,0.7-12"/>
	<path fill="#6D6E70" d="M98.5,46.9c0,3.3,0,6.6-0.1,9.9v7.4c0.2-4,0.4-8,0.7-12c0.1-2,0-4.1,0-6.2v-3v-0.5c-0.2,4-0.4,8-0.7,12
		c0,2.4,0,4.9,0.1,7.3c0-3.3,0-6.6,0.1-9.9v-6.8v-0.5C98.5,45.4,98.6,46.2,98.5,46.9L98.5,46.9z"/>
	<ellipse fill="#F495B5" stroke="#6D6E70" stroke-width="2" stroke-miterlimit="10" cx="96.3" cy="32.8" rx="4.2" ry="3.6"/>
	<ellipse fill="#F495B5" stroke="#6D6E70" stroke-width="2" stroke-miterlimit="10" cx="121.6" cy="32.9" rx="4.2" ry="3.6"/>
	<path fill="#F495B5" d="M97.2,31.3c0,0,17.1,3.7,26.5-0.2c2.4-0.2,3.5,7.4-26.9,4C96.8,35,93.4,30.8,97.2,31.3z"/>
	<path fill="#6D6E70" d="M96.3,31.8c4.2,0.9,8.6,1.4,12.9,1.5c3.4,0.1,7,0,10.3-0.7c0.8-0.2,1.5-0.4,2.3-0.6
		c0.4-0.1,0.7-0.4,1.1-0.4c0.2,0,0.4,0.1,0.5,0.2c1.1,0.8-0.2,2-0.9,2.5c-0.5,0.4,1.9-1,1.1-0.6c-0.1,0.1-0.3,0.1-0.4,0.2
		c-0.3,0.1-0.6,0.3-0.9,0.4c-0.8,0.3-1.6,0.5-2.4,0.6c-2.5,0.5-5,0.6-7.5,0.7c-3.9,0.1-7.9-0.2-11.8-0.6c-0.5-0.1-1.1-0.1-1.6-0.2
		c-0.4,0-1.1,0-1.4-0.2c-0.2-0.1-0.4-0.5-0.5-0.7c-0.4-0.6-1.2-1.8-0.8-2.6c0-0.1,0.1-0.1,0.1-0.2l0.1-0.1c-0.5,0.3-1,0.6-1.5,0.8
		c0.1,0,0.1,0,0.2-0.1C95.6,31.7,95.9,31.7,96.3,31.8c0.2,0,0.7-0.4,0.9-0.5c0.2-0.1,0.7-0.5,0.9-0.5c-0.8-0.1-1.3,0.1-2,0.5
		c-0.5,0.3-1.3,0.5-1.5,1.2c-0.2,0.9,0.6,2,1.1,2.7c0.3,0.5,0.4,0.4,1,0.5c1.2,0.1,2.5,0.3,3.8,0.4c2.2,0.2,4.3,0.3,6.5,0.4
		c3.1,0.1,6.3,0.1,9.4-0.3c1.8-0.2,3.6-0.5,5.2-1.2c0.9-0.4,1.8-1,2.7-1.5c0.4-0.2,0.7-0.5,1-0.8c0.3-0.4,0.6-0.9,0.4-1.4
		c-0.1-0.4-0.5-0.6-0.9-0.6c-0.2,0-0.4,0.1-0.6,0.2c-0.4,0.1-0.8,0.3-1.2,0.4c-0.8,0.2-1.7,0.4-2.5,0.6c-1.8,0.3-3.6,0.5-5.4,0.5
		c-5.5,0.2-11.1-0.4-16.6-1.5c-0.1,0-0.2,0-0.3-0.1c-0.2,0-0.7,0.4-0.9,0.5C97,31.3,96.5,31.8,96.3,31.8L96.3,31.8z"/>
	<path fill="#F495B5" d="M106,41.6c0,0-2.7,20.3-8.9,23.2L95,68.5c0,0,0.9,3.4,6.8-5c0,0,5.7-20.5,6.9-27.6l-1.7,2.5L106,41.6
		L106,41.6z"/>
	<path fill="#6D6E70" d="M105.1,42.1c-0.5,4-1.4,7.9-2.5,11.8c-0.8,2.8-1.7,5.6-3.2,8.1c-0.6,1-1.3,1.9-2.2,2.7
		c-0.1,0.1-0.2,0.2-0.3,0.2c-0.8,0.6,1.6-0.9,1-0.6c-0.5,0.3-1,0.6-1.5,0.8c-0.3,0.2-0.4,0.5-0.6,0.8c-0.3,0.6-0.7,1.2-1,1.7
		c-0.1,0.2-0.3,0.5-0.4,0.7c-0.1,0.1-0.3,0.3-0.3,0.5s0.1,0.3,0.2,0.4c0.3,0.3,0.7,0.3,1.1,0.2c0.6-0.2,1.1-0.6,1.7-0.9
		c0.5-0.3,1-0.6,1.5-1c1.5-1.2,2.7-2.8,3.8-4.4c0.3-0.4,0.3-0.8,0.5-1.3l1.8-6.6c1.6-6.1,3.3-12.3,4.5-18.5c0.1-0.5,0.2-1.1,0.3-1.6
		c0,0.1-0.8,0.4-0.9,0.5c-0.2,0.1-0.7,0.3-0.9,0.5c-0.3,0.5-0.6,0.9-0.9,1.4c-0.3,0.4-0.6,0.8-0.8,1.2c-0.2,0.5-0.3,1.1-0.5,1.7
		C105.4,41,105.3,41.5,105.1,42.1c0-0.1,0.7-0.4,0.9-0.5c0.2-0.1,0.8-0.3,0.9-0.5c0.1-0.5,0.3-1,0.4-1.5c0.2-0.6,0.3-1.2,0.5-1.7
		c0.2-0.4,0.5-0.8,0.8-1.1c0.3-0.5,0.7-0.9,1-1.4c-0.6,0.3-1.2,0.7-1.7,1c-0.6,3.4-1.4,6.7-2.2,10c-1,3.8-2,7.7-3,11.5
		c-0.4,1.4-0.7,2.8-1.1,4.2c-0.2,0.6-0.3,1.3-0.5,1.9c-0.1,0.3-0.3,0.5-0.5,0.7c-0.4,0.6-0.9,1.2-1.3,1.7c-0.6,0.8-1.3,1.6-2.1,2.2
		c-0.3,0.2-0.5,0.4-0.8,0.6c2.9-2,1.8-1,1.3-0.8c-0.1,0-0.1,0-0.2,0.1c-0.1,0-0.2,0.1-0.3,0.1c-0.2,0.1-0.5,0.1-0.7-0.1
		c-0.2-0.1-0.5-0.4-0.4-0.7c0-0.2,0.3-0.6,0.4-0.8c0.2-0.4,0.4-0.8,0.6-1.1c0.3-0.6,0.6-1.1,0.9-1.7c-0.6,0.3-1.2,0.7-1.7,1
		c1.8-0.8,3.3-1.9,4.4-3.5c1.2-1.7,2-3.7,2.7-5.6c1.4-4,2.4-8.1,3.1-12.2c0.2-0.9,0.3-1.9,0.4-2.8c0,0.1-0.8,0.4-0.9,0.5
		C105.8,41.6,105.1,41.9,105.1,42.1L105.1,42.1z"/>
	<path fill="#F495B5" d="M108.7,32.6c0,0,0.3,0.3,0.3,1.3c0,0-0.8,1.7-2,4.4c-4.1,8.9-11.3,27.1-10.1,31.2c0,0-2.7,3.9-4.7,1.3
		C92.1,70.8,95.1,50,108.7,32.6L108.7,32.6z"/>
	<path fill="#6D6E70" d="M107.8,33.1c0.3,0.3,0.4,1,0.3,1.3c-0.1,0.4-0.3,0.7-0.5,1c-0.8,1.6-1.5,3.2-2.2,4.8c-1.3,3-2.6,6-3.8,9.1
		c-1.3,3.2-2.5,6.5-3.5,9.8c-0.9,2.6-1.7,5.3-2.1,8c-0.1,0.8-0.2,1.7-0.1,2.5c0.1,0.3,0.1,0.3-0.2,0.6c-0.3,0.4-0.7,0.8-1.1,1.1
		c-0.1,0.1-0.2,0.2-0.4,0.3c-0.6,0.5,1.8-0.9,1.2-0.7c-0.1,0-0.1,0.1-0.2,0.1c-0.3,0.1-0.6,0.1-0.9,0.1c-0.4-0.1-1.3-0.4-1.4-0.9
		C92.8,70,93,69.6,93,69.4c0.8-4.5,2.1-8.9,3.6-13.2c2.7-7.6,6.2-14.9,10.9-21.4c0.7-0.9,1.3-1.8,2-2.7c-0.2,0.2-0.6,0.4-0.9,0.5
		C108.4,32.7,108,32.9,107.8,33.1c-5.2,6.7-9.3,14.3-12.2,22.3c-1.8,4.8-3.2,9.7-4.2,14.7c-0.1,0.3-0.2,0.8-0.2,1.1
		c0,0.2,0.3,0.4,0.5,0.6c0.5,0.4,1.1,0.5,1.8,0.3c0.8-0.3,1.5-0.8,2.2-1.2c0.5-0.3,0.9-0.7,1.3-1.1c0.2-0.2,0.6-0.5,0.6-0.8
		c0.1-0.2-0.1-0.7-0.1-0.9c-0.1-2.3,0.7-4.8,1.3-7c1-3.3,2.1-6.6,3.3-9.8c1.2-3.3,2.5-6.5,3.9-9.7c0.6-1.4,1.2-2.8,1.9-4.2
		c0.4-0.9,0.9-1.8,1.3-2.8c0.2-0.4,0.5-0.8,0.6-1.2c0.1-0.3,0-1.1-0.3-1.3C109.4,32,107.9,33.2,107.8,33.1L107.8,33.1z"/>
	<g>
		<path fill="#F495B5" d="M110.6,40.9c0,0,2.3,18.7,7.7,21.4l1.8,3.4c0,0-0.8,3.2-5.9-4.6c0,0-4.9-19-5.9-25.5l1.5,2.3L110.6,40.9
			L110.6,40.9z"/>
		<path fill="#6D6E70" d="M109.8,41.4c0.4,3.5,1.1,7,2,10.3c0.7,2.5,1.4,5.1,2.6,7.4c0.5,0.9,1,1.8,1.8,2.6c0.3,0.3,0.6,0.6,1,0.8
			c0.3,0.2,0.4,0.3,0.6,0.6c0.3,0.5,0.5,1,0.8,1.5c0.2,0.4,0.5,0.9,0.7,1.3c0.1,0.2,0.1,0.3-0.1,0.5l-0.1,0.1
			c-0.3,0.2,0,0.1,0.8-0.4c0.3-0.2,0.5-0.3,0.8-0.5H120c-0.8-0.2-1.5-1-2.1-1.6c-0.6-0.7-1.1-1.4-1.6-2.1c-0.3-0.5-0.8-1-1-1.5
			c-0.2-0.4-0.2-0.9-0.3-1.3c-0.5-2.1-1.1-4.3-1.6-6.4c-1.3-5.5-2.7-10.9-3.7-16.4c-0.1-0.5-0.2-0.9-0.2-1.4c-0.6,0.3-1.2,0.7-1.7,1
			c0.3,0.4,0.6,0.9,0.8,1.3c0.2,0.3,0.5,0.7,0.7,1.1c0.2,0.5,0.3,1,0.4,1.5C109.5,40.4,109.6,40.9,109.8,41.4c0-0.2,1.8-0.8,1.7-1
			c-0.1-0.5-0.2-0.9-0.4-1.4c-0.1-0.5-0.2-1.1-0.4-1.6c-0.2-0.4-0.4-0.7-0.7-1c-0.3-0.4-0.6-0.9-0.9-1.3c0,0-1.7,0.9-1.7,1
			c0.9,5.5,2.3,10.9,3.6,16.3l1.8,7.2c0.2,0.6,0.3,1.2,0.5,1.8c0,0.1,0,0.2,0.1,0.3c0.2,0.4,0.6,0.9,0.8,1.2l0.9,1.2
			c0.7,0.9,1.5,2,2.6,2.5c0.4,0.2,0.8,0.3,1.3,0.1c0.6-0.3,1.3-0.6,1.7-1c0.1-0.1,0.2-0.2,0.2-0.3c0.1-0.3-0.2-0.7-0.4-1
			c-0.3-0.5-0.6-1.1-0.9-1.6c-0.1-0.3-0.3-0.7-0.5-1c-0.3-0.3-0.7-0.4-1-0.7c-0.4-0.3-0.7-0.7-1-1.1c-1.5-2-2.3-4.5-3.1-6.8
			c-0.8-2.6-1.4-5.2-1.9-7.8c-0.3-1.6-0.5-3.2-0.8-4.7v-0.2c0,0-0.8,0.4-0.9,0.5C110.5,40.9,109.7,41.3,109.8,41.4L109.8,41.4z"/>
		<g>
			<path fill="#F495B5" d="M108.3,32.6c0,0-0.3,0.2-0.3,1.2c0,0,0.7,1.6,1.8,4c3.5,8.2,8.8,24.3,7.8,28c0,0,2.4,1.8,4.4,0.4
				C122,66.3,120.2,48.7,108.3,32.6L108.3,32.6z"/>
			<path fill="#6D6E70" d="M107.5,33.1c-0.2,0.2-0.3,0.9-0.3,1.2c0.1,0.3,0.3,0.7,0.5,1c0.7,1.5,1.3,3,2,4.5
				c1.2,2.9,2.3,5.9,3.3,8.9c1,3.1,2,6.2,2.8,9.4c0.6,2.3,1.2,4.6,1.2,7v0.6c0,0.1-0.1,0.4-0.1,0.5c0.1,0.3,0.7,0.5,1,0.6
				c0.8,0.3,1.6,0.5,2.4,0.3c1-0.2,1.9-0.9,2.7-1.4c-0.3-2.3-0.8-4.7-1.3-7c-1.4-5.6-3.4-11-5.9-16.1c-1.8-3.7-4-7.3-6.4-10.6
				C109.1,32,107.5,33.1,107.5,33.1c6.7,9.2,11.4,20.1,13.3,31.3c0.1,0.6,0.2,1.2,0.3,1.7c0.1,1-0.1,0.7,1.4-0.1c0,0,0.1,0,0.1-0.1
				c-1.3,0.6-2.7,0.3-3.8-0.4c-0.3-0.2-0.2-0.2-0.2-0.6v-1.1c-0.1-2.3-0.6-4.6-1.2-6.8c-1.5-6-3.5-11.9-5.8-17.6
				c-0.7-1.6-1.3-3.2-2.1-4.8c-0.2-0.4-0.5-0.9-0.6-1.3c-0.1-0.3,0-1,0.2-1.3C108.7,32.6,107.9,32.6,107.5,33.1L107.5,33.1z"/>
		</g>
	</g>
	<g>
		<path fill="#F495B5" d="M106.9,33.1c0,0,4-0.4,4.4,0.4l-0.7,3.2c0,0-2.9,0.2-3.8-0.4S106.9,33.1,106.9,33.1z"/>
		<path fill="#6D6E70" d="M106,33.6c1.1-0.1,2.2-0.2,3.3,0c0.3,0,0.6,0.1,0.8,0.2c0.1,0.1,0.3,0.1,0.3,0.3s-0.1,0.4-0.1,0.6
			c-0.1,0.3-0.1,0.6-0.2,1c-0.1,0.5-0.2,1.1-0.3,1.6c0.6-0.3,1.2-0.7,1.7-1c-0.9,0.1-1.9,0.1-2.8-0.1c-0.5-0.1-1-0.2-1.2-0.7
			s-0.1-1.1,0-1.6l0.3-1.2c0,0-0.3,0.2-0.3,0.1c-0.2,0.1-0.4,0.2-0.6,0.4s-0.4,0.2-0.6,0.4C106.2,33.4,106,33.5,106,33.6
			c-0.1,0.3-0.2,0.6-0.3,1c-0.1,0.5-0.2,1.1-0.1,1.7c0.1,0.5,0.6,0.7,1.1,0.8c0.6,0.1,1.2,0.2,1.8,0.2h1.2c0.1,0,0.2-0.1,0.3-0.1
			c0.2-0.1,0.4-0.2,0.6-0.4c0.2-0.1,0.4-0.2,0.6-0.4c0,0,0.2-0.1,0.3-0.2l0.6-3c0-0.1,0-0.2-0.1-0.3c-0.2-0.1-0.5-0.2-0.7-0.2
			c-0.7-0.1-1.4-0.1-2.1-0.1c-0.5,0-0.9,0-1.4,0.1c-0.1,0-0.2,0.1-0.3,0.1c-0.2,0.1-0.4,0.2-0.6,0.4s-0.4,0.2-0.6,0.4
			C106.2,33.4,106.1,33.6,106,33.6L106,33.6z"/>
	</g>
	<g>
		<path fill="#F495B5" d="M108,41c0.1,0.2,0.5,0.6,0.6,1.1c1.2,5.8,1.6,14.8,0.2,29.5c-0.9,9.2-0.9,7.6-1.8,21.1
			c-0.2,3-1.1,5.4-1.5,7.1c0.5,0.9,0.6,1.6,0.3,1.8c-0.1,0-0.2,0.1-0.6,0c0,0-2.7,0-2.7,1c-0.1,0.1-0.2,0.3-0.3,0.3
			c-1-0.1,0.9-14.5,1.8-21.6C105.3,71.8,106.8,58.3,108,41L108,41z"/>
		<path fill="#6D6E70" d="M108,46c0.9,1.2,0.9,2.9,1.1,4.4c0.2,1.7,0.3,3.4,0.4,5.1c0,0.5,0,0.9,0.1,1.4v-3.4v-0.4v0.8
			c0,0.7,0,1.4-0.1,2.1c-0.1,2.9-0.3,5.7-0.6,8.6c-0.5,6.4-1.3,12.7-1.7,19.1c-0.2,3.1-0.4,6.2-1.3,9.3c-0.2,0.6-0.4,1.1-0.5,1.7
			c-0.2,1.2-0.1,2.6-0.1,3.8v5.6c0,0.8,0.4,1.3,0.5,2v-9.8c0,0.6-0.8,0.3-1.2,0.4c-0.7,0.1-1.6,0.1-2.1,0.7
			c-0.2,0.3-0.2,0.8-0.5,0.4c-0.1-0.1-0.1-0.3-0.1-0.4c-0.7-3.4-0.2,11.7,0,8c0.2-4.1,0.7-8.1,1.2-12.2c1.1-8.9,2.2-17.8,3.1-26.8
			c0.7-6.8,1.2-13.6,1.7-20.5c0.1-2,0-4.1,0-6.2v-3v-0.5c-0.9,12.6-2.1,25.3-3.7,37.9c-0.6,4.9-1.2,9.7-1.8,14.6
			c-0.2,2.2-0.5,4.4-0.6,6.6c-0.1,1.6-0.1,3.2-0.1,4.9c0,2.3-0.1,4.7,0.1,7.1c0,0.5,0,1,0.5,0.5c0.3-0.3,0.2-0.5,0.7-0.7
			c0.4-0.2,1-0.3,1.5-0.3c0.2,0,0.8,0.1,1,0c0.4-0.2,0.3-0.9,0.3-1.3c0.1-2.6,0-5.2,0-7.9c0-1.1,0-1.8-0.5-2.8v10
			c0.6-2.4,1.3-4.8,1.5-7.3c0.2-2.6,0.4-5.1,0.6-7.7c0.2-2.7,0.5-5.3,0.7-8c1.2-11.5,1.7-23,1.3-34.6c-0.1-2-0.2-4-0.4-6
			c-0.2-1.7-0.2-3.8-1.2-5.2c0.1,0.1,0,1.5,0,1.5v7C108,44.9,107.9,45.8,108,46L108,46z"/>
	</g>
	<g>
		<path fill="#F495B5" d="M102.2,108.7l0-7.4l3.3,0l0,7.4L102.2,108.7z"/>
		<path fill="#6D6E70" d="M106.4,100.9h-3.3c-0.1,0-0.2,0.1-0.3,0.1c-0.2,0.1-0.4,0.2-0.6,0.4c-0.2,0.1-0.4,0.2-0.6,0.4
			c0,0-0.3,0.1-0.3,0.2v6.9c0,0.1-0.1,0.4,0,0.5s0.5,0,0.6,0h2.6c0.1,0,0.2-0.1,0.3-0.1c0.2-0.1,0.4-0.2,0.6-0.4
			c0.2-0.1,0.4-0.2,0.6-0.4c0,0,0.3-0.1,0.3-0.2v-6.5C106.4,101.5,106.4,101.2,106.4,100.9c0,0.1-0.8,0.4-0.9,0.5
			c-0.2,0.1-0.4,0.2-0.6,0.4c0,0-0.3,0.1-0.3,0.2v7.4c0.6-0.3,1.2-0.7,1.7-1h-3.2v-0.3v-5.3V101c-0.6,0.3-1.2,0.7-1.7,1h3.3
			c0.1,0,0.2-0.1,0.3-0.1c0.2-0.1,0.4-0.2,0.6-0.4c0.2-0.1,0.4-0.2,0.6-0.4C106.2,101,106.3,100.9,106.4,100.9L106.4,100.9z"/>
	</g>
	<g>
		<path fill="#F495B5" d="M108.8,36.6c-0.1,0.2-0.4,0.5-0.4,1c-0.9,5.7-0.8,11.9,0.2,26.4c0.6,9.1,0.2,10.1,0.8,23.3
			c0.1,2.9,0.8,5.3,1.1,7c-0.4,0.9-0.5,1.6-0.2,1.8c0.1,0,0.2,0.1,0.4,0c0,0,2,0,2,1c0.1,0.1,0.1,0.3,0.2,0.3
			c0.7-0.1-0.6-14.2-1.2-21.2C110.7,66.8,109.7,53.5,108.8,36.6z"/>
		<path fill="#6D6E70" d="M108.8,31.6c-0.7,1.3-0.7,2.9-0.8,4.3c-0.1,1.6-0.2,3.1-0.2,4.7c-0.1,6.1-0.1,12.3,0.2,18.4
			c0.2,4.8,0.6,9.7,0.8,14.5c0.1,3,0.1,6,0.2,9.2c0.1,2.8,0.2,5.5,0.3,8.3c0.1,2.9,0.6,5.6,1.1,8.4v-10c-0.3,0.7-0.4,1.4-0.4,2.1
			v8.6c0,0,0,0.8,0.1,0.9c0.2,0.3,0.4,0.1,0.8,0.2c0.4,0,0.8,0.1,1.2,0.3c0.4,0.2,0.3,0.5,0.6,0.8c0.4,0.4,0.3,0.1,0.4-0.3
			c0.1-1.1,0.1-2.3,0.1-3.5v-8.3c-0.1-2-0.2-4-0.4-6.1c-0.7-9.8-1.7-19.5-2.4-29.3c-0.5-7.6-1-15.2-1.4-22.8v3.5c0,2-0.1,4.1,0,6.2
			c0.5,10.7,1.2,21.5,2.1,32.2c0.6,7.9,1.5,15.7,2,23.6c0,0.7,0.1,2,0.1,2.3v-8v0.4c0,0,0,0.3-0.1,0.3c-0.3,0.1-0.2-0.3-0.3-0.4
			c-0.3-0.4-0.5-0.6-1-0.7c-0.5-0.2-1.4,0.1-1.5-0.5v9.8c0-0.7,0.4-1.3,0.4-2v-4.3c0-2.1,0.1-4.1-0.3-6.1c-0.5-2.7-0.8-5.3-0.9-8
			c-0.2-3.7-0.2-7.3-0.3-11c-0.1-8.2-0.9-16.3-1.1-24.4c-0.1-2.8,0,4.2,0,4.9v-1c0-0.8,0.1-1.6,0.1-2.4c0.1-1.5,0.1-3.2,0.9-4.6
			c0.1-0.2,0-1.3,0-1.5v-3.5v-3.5C108.9,32.7,108.7,31.8,108.8,31.6L108.8,31.6z"/>
		<g>
			<path fill="#F495B5" d="M110.4,103l0-7.2l2.4,0l0,7.2L110.4,103z"/>
			<path fill="#6D6E70" d="M109.5,96.3h2.1c0.2,0,0.3,0,0.3,0.1c0.1,0.1,0,0.4,0,0.6v6.6c0.6-0.3,1.2-0.7,1.7-1h-2.1
				c-0.2,0-0.3,0-0.3-0.1c-0.1-0.1,0-0.4,0-0.6v-5.1v-1.5c0,0.1-0.8,0.4-0.9,0.5c-0.2,0.1-0.4,0.2-0.6,0.4
				C109.7,96.1,109.5,96.2,109.5,96.3v7.1c0,0.2,0,0.1,0.1,0.2c0.7,0.1,1.5,0,2.3,0c0.1,0,0.2-0.1,0.3-0.1c0.2-0.1,0.4-0.2,0.6-0.4
				c0.2-0.1,0.4-0.2,0.6-0.4c0,0,0.3-0.1,0.3-0.2v-3.9v-2.5v-0.7c0-0.2,0-0.1-0.1-0.2c-0.7-0.1-1.5,0-2.3,0c-0.1,0-0.2,0.1-0.3,0.1
				c-0.2,0.1-0.4,0.2-0.6,0.4c-0.2,0.1-0.4,0.2-0.6,0.4C109.7,96.1,109.6,96.3,109.5,96.3z"/>
		</g>
	</g>
</g>
</svg>
