<?xml version="1.0" encoding="utf-8"?>
<!-- Generator: Adobe Illustrator 25.0.0, SVG Export Plug-In . SVG Version: 6.00 Build 0)  -->
<svg version="1.1" id="Layer_1" xmlns="http://www.w3.org/2000/svg" xmlns:xlink="http://www.w3.org/1999/xlink" x="0px" y="0px"
	 viewBox="0 0 299 379" enable-background="new 0 0 299 379" xml:space="preserve">
<path fill="#F495B5" d="M154,20.3c0,0-47.7,0-51.9-12.6L63.6,20.3c0,0-26.8,7.5-29.3,18.4c0,0-5.6,7.3-10.6,55.8
	c0,0-10.3,74-8.7,83.2c0,0-2.5,24.3-2.5,31.8c0,0-4.2,64.5-4.2,77c0,0-2.5,34.3,0,40.2c0,0,1.7,15.9,7.5,19.3c0,0,2.5,20.9,1.7,24.3
	c0,0,15.9,7.5,31,0.8c0,0,0.8-21.8,3.3-26c0,0,6.3-14.5,7.4-33.6c0.2-2.9,0.2-6,0.1-9.1c0,0,3.3-0.8,4.5,10.3c0,0-3.3,14-2.2,15.6
	c1.1,1.7,34,5.6,41.3,2.8c0,0,17.9-4.5,24-3.3c0,0,17.3,0.6,26.2,0"/>
<path fill="#6D6E71" d="M154.5,19.4c-5.3,0-10.6-0.3-15.8-0.7c-9-0.7-18.5-1.7-27-5c-3.1-1.2-6.9-3-8.1-6.4
	c-0.2-0.6-1.2-0.6-1.7-0.5c-12.1,4-24.3,7.9-36.4,11.9c-3.9,1.3-7.9,2.5-11.8,4c-4.3,1.7-8.5,3.7-12.3,6.2c-3.2,2.1-6.7,4.8-8.2,8.6
	c-0.6,1.6-1.4,3.3-2,5c-2,5.7-3.2,11.8-4.3,17.8c-2.9,15.6-4.3,31.4-6.4,47.2c-2.3,17-4.5,34.1-6.1,51.2c-0.6,5.9-1.3,12-1,17.9
	c0.1,1.6,0,2.8-0.2,4.8c-0.4,4.5-0.9,9-1.2,13.5c-1,12.2-1.5,24.4-2.3,36.7c-1,17.1-2.2,34.3-2.7,51.4c-0.4,13.3-2.1,26.8-0.9,40.1
	c0.2,2.1,0.7,4.1,1.1,6.1c0.6,4.2,1.6,8.5,3.4,12.4c0.8,1.7,1.8,3.8,3.5,4.8c0.2,0.1,0.6,0.6,0.4,0.2v0.3c0.1,0.5,0.1,1,0.2,1.5
	c0.5,4,0.9,8.1,1.2,12.1c0.3,3.2,1,6.9,0.2,10.1c-0.1,0.2,0.1,0.5,0.3,0.6c10,4.7,22.6,5.2,32.7,0.8c0.3-0.1,0.8-0.5,0.9-0.9
	c0.3-7.3,0.6-14.7,2.1-21.9c0.4-2.2,1.3-4.1,2.1-6.2c1.7-4.6,3-9.3,4.1-14c1.9-8.7,2.9-17.6,2.6-26.6c-0.4,0.3-0.8,0.7-1.2,1
	l-0.6,0.1c0.1-0.1,0-0.1,0,0c0-0.1,0.6,0.4,0.8,0.7c1.5,1.7,1.9,4.5,2.2,6.6c0.3,1.9,0.1,2.9-0.3,4.7c-0.5,2.2-0.9,4.4-1.3,6.6
	c-0.4,2.1-1.8,6.7,0.9,7.7c3,1.1,6.5,1.4,9.7,1.8c5,0.7,10,1.1,15,1.4c4.5,0.2,9.1,0.5,13.6-0.1c0.8-0.1,1.5-0.2,2.3-0.4
	c0.3-0.1,0.6-0.2,0.8-0.2c0.7-0.2,0.1,0,0.4-0.1l3.9-0.9c5-1.1,10-2.1,15.1-2.5c3.6-0.2,7.4,0.2,11.1,0.3c6.5,0.1,13.1,0.2,19.7-0.2
	c1.5-0.1,2.3-1.9,0.3-1.8c-9.1,0.5-18.8,0.1-27.7-0.2c-7.9-0.3-16.4,2-23.9,3.9c-3.7,1-7.9,0.7-11.8,0.5c-5.2-0.2-10.4-0.6-15.6-1.3
	c-3.6-0.4-7.3-0.8-10.7-1.8c-0.4-0.1-0.6-0.1-0.8-0.3c0.1,0.2,0-1,0-1.2c0-2.1,0.5-4.3,0.9-6.3c0.4-2.2,0.9-4.5,1.4-6.7
	s-0.2-4.8-0.8-6.9c-0.7-2.3-2.1-5.6-5.1-4.9c-0.4,0.1-1.2,0.5-1.2,1c0.4,13.4-1.8,26.9-6.3,39.5c-0.7,2-1.7,3.9-2.2,5.9
	c-1.1,4.3-1.4,8.9-1.8,13.3c-0.3,3.3-0.5,6.6-0.6,9.8l0.9-0.9c-9,3.9-20.4,3.3-29.2-0.9l0.3,0.6c0.7-3.2,0-7-0.2-10.2
	c-0.3-4.1-0.7-8.1-1.2-12.2c-0.1-0.6,0-1.7-0.3-2.3c-0.3-0.6-1.4-1.1-1.9-1.7c-0.7-0.8-1.3-1.8-1.8-2.8c-1.9-3.9-2.9-8.3-3.5-12.5
	c-0.3-2.1-0.9-4-1.1-6.1c-0.4-4-0.4-8.1-0.3-12.2c0.1-7.6,0.5-15.2,1-22.7c0.3-4.9,0.3-9.8,0.5-14.7c0.4-9.1,0.9-18.1,1.5-27.1
	c0.5-8.5,1-17,1.6-25.6c0.2-3.8,0.6-7.6,0.7-11.5c0.2-9,1.2-17.9,2.1-26.8c0.2-1.8,0.4-3.5,0.3-5.3c-0.2-2.2,0-4.4,0.1-6.6
	c0.9-16.6,3.2-33.2,5.3-49.8c1.7-13.4,3.4-26.8,5.1-40.1c1.3-9.9,2.7-19.9,5-29.7c0.8-3.6,1.7-7.3,3.3-10.5c0.2-0.3,0.4-0.6,0.5-0.9
	c0.7-1.6,1.2-3,2.4-4.4c1.4-1.6,3.1-2.9,4.9-4.1c6.2-4.1,13.3-6.8,20.4-9c11.6-3.5,23.1-7.5,34.7-11.3c1.4-0.5,2.9-0.9,4.3-1.4
	c-0.6-0.2-1.1-0.3-1.7-0.5c1.1,3.1,4,5,6.8,6.3c4,1.9,8.3,2.9,12.5,3.8c8.9,1.8,18.1,2.5,27.2,2.9c2.1,0.1,4.2,0.1,6.2,0.1
	c0.6,0,1.6-0.2,1.9-0.8C155.6,19.8,155.1,19.4,154.5,19.4L154.5,19.4z"/>
<path fill="#F495B5" d="M149.5,20.3c0,0,47.7,0,51.9-12.6l38.5,12.6c0,0,26.8,7.5,29.3,18.4c0,0,5.6,7.3,10.6,55.8
	c0,0,10.3,74,8.7,83.2c0,0,2.5,24.3,2.5,31.8c0,0,4.2,64.5,4.2,77c0,0,2.5,34.3,0,40.2c0,0-1.7,15.9-7.5,19.3c0,0-2.5,20.9-1.7,24.3
	c0,0-15.9,7.5-31,0.8c0,0-0.8-21.8-3.3-26c0,0-6.3-14.5-7.4-33.6c-0.2-2.9-0.2-6-0.1-9.1c0,0-3.3-0.8-4.5,10.3c0,0,3.3,14,2.2,15.6
	s-34,5.6-41.3,2.8c0,0-17.9-4.5-24-3.3c0,0-17.3,0.6-26.2,0"/>
<path fill="#6D6E71" d="M149,21.2c5.8,0,11.6-0.3,17.4-0.8c9.4-0.8,19.4-1.9,28.2-5.6c3.4-1.4,7-3.6,8.3-7.2c-0.8,0.3-1.5,0.7-2.3,1
	c12.1,3.9,24.1,7.9,36.2,11.8c3.9,1.3,7.8,2.5,11.6,4c4.2,1.7,8.4,3.6,12.1,6.2c1.7,1.2,3.4,2.5,4.8,4.1c1.3,1.5,1.8,2.9,2.6,4.7
	c0.2,0.5,0.2,0.4,0.4,0.7c0.5,1.1,1,2.3,1.4,3.5c2.1,6.1,3.3,12.6,4.4,18.9c2.7,15.3,4.2,30.9,6.2,46.3c2.3,17,4.4,34.1,6,51.2
	c0.5,5.6,1.4,11.4,0.9,17c-0.2,1.8,0.2,3.6,0.3,5.4c0.4,4.6,0.9,9.1,1.2,13.7c1,12.1,1.5,24.2,2.2,36.3c1,16.9,2.2,33.9,2.7,50.9
	c0.1,4.8,0.5,9.5,0.7,14.3c0.4,8.5,1,17.2,0.1,25.7c-0.2,2.1-0.8,4.1-1.1,6.1c-0.7,4.3-1.6,8.8-3.7,12.7c-0.4,0.8-0.9,1.6-1.6,2.3
	c-0.6,0.6-1.6,1.1-1.9,1.8c-0.3,0.7-0.2,1.7-0.3,2.4c-0.5,4.1-0.9,8.2-1.2,12.3c-0.2,3.1-0.9,6.7-0.2,9.8c0.3-0.4,0.6-0.7,0.8-1.1
	c-5.4,2.5-11.7,3.6-17.6,3.4c-2.6-0.1-5.1-0.5-7.6-1.1c-0.6-0.2-1.2-0.4-1.9-0.6c-0.3-0.1-1.9-0.6-1.9-0.5c-0.1-0.1,0-0.3,0-0.5
	c-0.2-0.6-0.1-1.4-0.1-2c-0.1-1.3-0.1-2.6-0.2-3.9c-0.4-5.9-0.6-12.2-2.3-17.9c-0.4-1.2-0.8-1.9-1.2-3.1c-1-2.4-1.8-4.9-2.5-7.5
	c-3.2-10.9-4.8-22.3-4.5-33.7c0-0.4-0.2-0.6-0.6-0.7c-2.3-0.5-4.1,1.4-5,3.3c-1.1,2.3-2,5.7-1.8,8.3c0.1,1.2,0.5,2.4,0.8,3.5
	c0.5,2.3,1,4.6,1.3,7c0.2,1.3,0.2,3.6,0.4,4.5c0-0.2,0.4-0.2-0.1,0c-0.6,0.2-1.2,0.3-1.9,0.5c-1.9,0.4-3.8,0.7-5.6,0.9
	c-4.9,0.7-9.9,1.2-14.9,1.5c-4.6,0.3-9.3,0.5-13.8,0c-2.5-0.3-4.9-1.1-7.4-1.7c-5-1.1-10.1-2.1-15.2-2.5c-3.6-0.3-7.4,0.2-11,0.2
	c-6.6,0.1-13.3,0.2-19.9-0.2c-1.2-0.1-3,1.7-1.1,1.8c5.9,0.4,11.9,0.3,17.8,0.2c3.3-0.1,6.6-0.1,9.8-0.3c4.9-0.4,10.1,0.8,14.9,1.8
	c2.8,0.6,5.6,1.3,8.4,2c3.8,0.9,8,0.8,11.9,0.7c5.2-0.1,10.5-0.6,15.7-1.2c3.9-0.4,7.8-0.9,11.6-1.8c0.9-0.2,2-0.4,2.8-1
	c1.1-0.9,0.9-2.5,0.8-3.7c-0.2-2.5-0.7-5.1-1.2-7.6c-0.3-1.7-1-3.5-1.1-5.2c-0.1-1.4,0.4-3.1,0.7-4.5c0.3-1.3,0.6-2.6,1.3-3.7
	c0.2-0.3,0.3-0.5,0.5-0.8s0.3-0.3,0.3-0.3s-0.4,0.1-0.7,0c-0.2-0.2-0.4-0.5-0.6-0.7c-0.4,13.4,1.8,27,6.3,39.6
	c0.7,2,1.7,3.9,2.2,5.9c1.1,4.3,1.4,8.9,1.8,13.3c0.3,3.3,0.5,6.7,0.6,10c0.1,0.2,0.2,0.3,0.3,0.4c10.1,4.4,22.7,3.8,32.7-0.9
	c0.4-0.2,1-0.6,0.8-1.1c-0.4-1.7-0.2-3.6-0.1-5.3c0.1-2.7,0.4-5.4,0.6-8c0.3-3.6,0.7-7.1,1.1-10.7c-0.2,0.2-0.4,0.5-0.5,0.7
	c3.4-2.1,5-6.4,6.1-10c0.9-3.2,1.4-6.4,2-9.7c0.3-1.8,0.9-4.5,1-6.8c0.2-4.1,0.2-8.1,0.1-12.2c-0.2-6.9-0.5-13.8-1-20.7
	c-0.3-4.3-0.3-9.4-0.5-14c-0.8-16.8-1.8-33.6-2.9-50.4c-0.7-11.8-1.3-23.6-2.4-35.4c-0.3-3.1-0.6-6.3-0.9-9.4
	c-0.1-0.7,0-0.5,0.1-1.3c0.1-0.9,0.1-1.7,0.1-2.6c0-6.2-0.7-12.4-1.3-18.5c-1.6-16.2-3.7-32.4-5.8-48.5c-1.9-14.5-3.3-29.2-5.8-43.6
	c-1.1-6.5-2.3-13.1-4.3-19.5c-0.6-2-1.5-3.8-2.3-5.7s-1.6-3.7-3.1-5.3c-2.9-3-6.6-5.2-10.3-7.1c-5.3-2.7-10.8-4.7-16.4-6.4
	c-11.6-3.6-23.1-7.5-34.6-11.3c-1.3-0.4-2.6-0.8-3.9-1.3c-0.8-0.3-2,0.2-2.3,1c-1,2.8-4.1,4.4-6.6,5.5c-3.9,1.7-8.2,2.6-12.4,3.4
	c-8.4,1.5-16.9,2.2-25.5,2.5c-1.9,0.1-3.6,0.1-5.5,0.1c-0.6,0-1.6,0.2-1.9,0.8C147.9,20.8,148.3,21.2,149,21.2L149,21.2z"/>
<path fill="#FFFFFF" stroke="#58595B" stroke-miterlimit="10" d="M61.6,302.7c0,0,4.5,5.6,2.8,12.3l-2.2,12.8c0,0,23.4,5,36.8,2.8
	c0,0,18.4-3.9,22.9-3.9c0,0,25.7,1.1,29.6,0c0,0,30.1,1.1,34,1.1c0,0,11.7,2.4,15.1,2.4c0,0,32.9,3.2,40.7-3c0,0-5.2-21.8,0.9-26.8
	c0,0-27.5,5.2-38,2.2c0,0-26-3-32.7-0.7c0,0-9.3,1.1-31.3,2.2c0,0-13-1.5-29.8-1.1c0,0-13.8,0.2-21.6,0.2
	C89,303.3,66.1,309.4,61.6,302.7L61.6,302.7z"/>
<path fill="#FFFFFF" stroke="#58595B" stroke-width="1.017" stroke-miterlimit="10" d="M16,346c0,0,2-0.4,6.3-0.7
	c0,0,9.8-0.4,16.9,1.1c0,0,8.2,0.7,12.9-1.8c0,0-2.7,5.8-2.7,12.8L49,371.6c0,0-16.5,4.7-30.6-1.5C18.4,370.1,18.8,355.5,16,346z"/>
<path fill="#FFFFFF" stroke="#58595B" stroke-width="1.041" stroke-miterlimit="10" d="M288,343.6c0,0-2.1-0.4-6.7-0.8
	c0,0-10.4-0.4-17.9,1.2c0,0-8.7,0.8-13.7-1.9c0,0,2.9,6.2,2.9,13.6l0.4,15.1c0,0,17.5,5,32.5-1.5C285.5,369.2,285.1,353.7,288,343.6
	L288,343.6z"/>
<path fill="#6D6E71" d="M25.8,65.6c3.3,1.5,7.1,4.3,10.2,6.8c7.2,5.9,13.1,13.3,16.7,21.8c1.7,4.1,3,8.4,3.6,12.8
	c0.3,2.3,0.5,4.7,0.7,7c1.1,10.8,1.8,21.6,2.2,32.5c0.2,6.6,0.3,13.1,0.1,19.7c-0.1,2.3-0.1,4.6-0.4,6.9c-0.7,4.9-1.3,9.8-1.9,14.8
	c-2.2,18.6-4,37.3-5,56.1c-0.5,9.4-0.8,18.9-0.4,28.3c0.1,3.2,0.7,6.4,0.7,9.6c0,4.5,0.6,8.9,1.8,13.3c0.9,3.5,2.2,7,3.8,10.2
	c0.4,0.8,3.2-0.2,2.9-0.8c-3-6-4.8-12.5-5.4-19.1c-0.1-1.5-0.2-3-0.2-4.5c0-1.3-0.2-2.6-0.3-4c-0.7-8.9-0.6-17.9-0.3-26.8
	c0.7-19.5,2.5-38.9,4.8-58.2c0.7-5.9,1.4-11.8,2.2-17.7c0.9-6.7,0.8-13.4,0.8-20.2c-0.1-11.9-0.8-23.7-1.9-35.5
	c-0.5-6.1-0.9-12.4-2.5-18.4c-4-15-15.2-28.2-28.9-35.4c-0.3-0.2-0.6-0.3-0.9-0.4C27.5,64,24.8,65.1,25.8,65.6L25.8,65.6z
	 M272.4,56.6c-4,1.9-7.7,4.5-11.1,7.3c-7.4,6.1-13.4,13.7-17.1,22.6c-1.7,4-2.9,8.3-3.5,12.7c-0.3,2.6-0.6,5.3-0.8,7.9
	c-1.1,11.4-1.9,22.9-2.2,34.4c-0.2,6.8-0.2,13.6,0.1,20.4c0.1,1.5,0.2,2.9,0.4,4.3c0.8,5.6,1.4,11.3,2.1,17c1.1,9.3,2,18.7,2.9,28.1
	c0.9,10.5,1.7,21.1,2.1,31.7c0.3,9.2,0.5,18.5-0.3,27.7c-0.1,1.2-0.4,2.3-0.2,3.5c0.2,1.5,0.3,2.9,0.3,4.4c0.2,5.5,0,11-1.2,16.4
	c-0.6,3-1.6,5.9-2.9,8.6c-0.3,0.6,1,0.5,1.2,0.5c0.6-0.1,1.4-0.3,1.7-0.9c4.4-8.9,4.9-19.8,3.8-29.5c-0.1-1.1,0.1-2.2,0.2-3.3
	c0.2-2,0.3-4,0.4-6c0.2-4.6,0.2-9.1,0.2-13.7c-0.1-10.3-0.7-20.7-1.5-31c-0.8-9.9-1.7-19.9-2.8-29.8c-0.8-7-1.6-13.9-2.5-20.9
	c-0.2-1.6-0.4-3.3-0.6-4.9c-0.5-3.5-0.4-7.1-0.4-10.7c-0.2-12.8,0.5-25.5,1.5-38.2c0.3-4.2,0.7-8.4,1.2-12.7c0.2-2,0.4-4,0.8-6
	c2-10.4,7.2-19.9,14.6-27.5c4.2-4.3,9-8.1,14.4-10.9c0.2-0.1,1.3-0.6,0.5-0.3c0.4-0.2,1.1-0.5,0.8-1C274,56.2,272.7,56.5,272.4,56.6
	L272.4,56.6z"/>
<path fill="none" stroke="#FFFFFF" stroke-miterlimit="10" d="M151.8,45.6c-50.6-3-50.6-38.1-50.6-38.1l-12.3,3.9
	c0,0,8.6,44.3,62.5,43.2"/>
<path fill="#FFFFFF" d="M151,20.3c-45-0.6-48.3-11.7-48.3-11.7l-12.6,3.9c0,0,12.1,17.3,61.5,16.2"/>
<path fill="#6D6E71" d="M151.1,19.3c-11.7-0.2-23.9-0.7-35.2-4.1c-2.7-0.8-5.3-1.8-7.7-3.2c-0.8-0.4-1.5-0.9-2.2-1.5
	c-0.5-0.4-0.6-0.5-1.2-1.1c-0.3-0.3-0.5-0.6-0.7-1L104,8.2c-0.2-0.7-1.2-0.8-1.7-0.6l-12.6,3.9c-0.6,0.2-1.6,0.8-1.1,1.6
	c1.8,2.5,4.7,4.5,7.3,6c8.3,5,18.1,7.6,27.6,9c9.2,1.4,18.5,1.7,27.7,1.5c1.6,0,2.2-2.1,0.3-2.1c-14,0.3-28.4-0.6-41.7-4.9
	c-6-2-12-4.6-16.8-8.9l-0.3-0.3L92.3,13c-0.2-0.2-0.4-0.4-0.6-0.7c-0.2-0.2-0.3-0.4-0.5-0.6c-0.4,0.5-0.7,1.1-1.1,1.6l12.6-3.9
	c-0.6-0.2-1.1-0.4-1.7-0.6c0.6,1.8,2.6,3.3,4.1,4.3c6.2,3.9,13.9,5.4,21,6.4c8.1,1.2,16.3,1.6,24.5,1.7
	C152.5,21.4,153.1,19.3,151.1,19.3L151.1,19.3z"/>
<path fill="#FFFFFF" d="M151.6,20.3c45-0.6,48.3-11.7,48.3-11.7l12.6,3.9c0,0-12.1,17.3-61.5,16.2"/>
<path fill="#6D6E71" d="M151.4,21.4c12.2-0.2,24.8-0.8,36.5-4.3c4.3-1.3,9.3-3.1,12.3-6.7c0.5-0.6,0.9-1.2,1.1-1.9
	c-0.8,0.4-1.5,0.7-2.3,1.1l12.6,3.9c-0.1-0.5-0.2-0.9-0.4-1.4c-0.4,0.6-1,1.1-1.5,1.7l-0.2,0.2c-0.1,0.1,0.2-0.2,0,0
	c-0.2,0.1-0.3,0.3-0.5,0.4c-0.4,0.3-0.8,0.7-1.2,1c-1,0.8-2.1,1.5-3.2,2.2c-7.6,4.7-17.2,7.2-26.1,8.5c-8.9,1.4-18,1.7-27,1.5
	c-0.7,0-1.6,0.2-1.9,0.9c-0.3,0.6,0.2,1.2,0.9,1.2c14.4,0.3,29.3-0.6,43.1-5.1c6.3-2.1,12.8-4.9,17.8-9.4c0.8-0.7,1.7-1.5,2.3-2.4
	c0.4-0.5,0.3-1.2-0.4-1.4l-12.6-3.9c-0.9-0.3-2,0.1-2.3,1.1c0.2-0.5,0-0.1,0,0c-0.1,0.1-0.1,0.2-0.2,0.3c-0.1,0.2,0.2-0.3,0,0
	c-0.1,0.1-0.1,0.2-0.2,0.2c-0.2,0.2-0.3,0.4-0.5,0.6l-0.3,0.3l-0.2,0.2c-0.6,0.5-1.3,1-2,1.5c-0.5,0.3-0.5,0.3-1.2,0.7
	c-0.5,0.3-1.1,0.5-1.6,0.8c-1.4,0.6-2.6,1.1-4,1.5c-4.2,1.4-8.6,2.2-13,2.9c-7.8,1.1-15.7,1.5-23.6,1.6
	C150,19.3,149.4,21.4,151.4,21.4L151.4,21.4z"/>
<path fill="#FFFFFF" d="M152,45.6c-50.5-3-50.5-38.1-50.5-38.1l-12.2,3.9c0,0,8.5,44.3,62.3,43.1"/>
<path fill="#6D6E71" d="M152.6,44.7c-13.7-0.8-28.2-4.2-38.4-14c-5.4-5.2-9.2-11.9-10.6-19.2c-0.2-1-0.4-2.1-0.5-3.2
	c0-0.3,0-0.6-0.1-0.9V7.3c0-0.8-1.1-0.9-1.7-0.7c-4.1,1.3-8.2,2.6-12.2,3.9c-0.5,0.2-1.4,0.5-1.2,1.2c1,5.3,3.5,10.6,6.3,15.2
	c6.3,10.6,15.9,18.9,27.3,23.5c9.4,3.8,19.6,5.1,29.7,5c0.6,0,1.6-0.2,1.9-0.8s-0.2-1-0.8-1c-15.8,0.3-31.9-3.5-44-14.1
	c-7.1-6.2-12.6-14.3-15.8-23.2c-0.6-1.7-1.2-3.5-1.6-5.4l-1.2,1.2c4.1-1.3,8.2-2.6,12.2-3.9c-0.6-0.2-1.1-0.5-1.7-0.7
	c0,4.2,1.3,8.6,3.1,12.4c4.2,9.4,12.2,16.4,21.5,20.5c8.4,3.8,17.6,5.4,26.8,5.9c0.6,0,1.6-0.2,1.9-0.8
	C153.7,45.1,153.1,44.7,152.6,44.7z"/>
<path fill="#FFFFFF" d="M150.2,45.6c51.6-0.7,50.5-38.1,50.5-38.1l12.2,3.9c0,0-8.5,44.3-62.3,43.1"/>
<path fill="#6D6E71" d="M149.2,46.2c14.5-0.2,30.3-3.2,41.2-13.4c5.9-5.5,9.8-12.9,11.2-20.8c0.3-1.6,0.5-3.2,0.4-4.8
	c-0.9,0.3-1.8,0.6-2.6,1c4.1,1.3,8.2,2.6,12.2,3.9c-0.1-0.1-0.2-0.2-0.2-0.3c-1,5-3.3,10-5.8,14.4c-5.9,10.3-14.9,18.4-25.8,23.1
	c-8.9,3.8-18.7,5-28.3,4.8c-0.6,0-1.5,0.1-2,0.5c-0.4,0.3-0.5,0.6,0.2,0.6c16.4,0.3,33.2-3.6,46-14.2c7.7-6.3,13.5-14.8,17-24.2
	c0.7-1.8,1.3-3.7,1.7-5.6c0-0.2,0-0.2-0.2-0.3C210.1,9.6,206,8.3,202,7c-0.5-0.2-2.7,0.2-2.6,1c0.1,4.1-1,8.4-2.5,12.2
	c-3.6,9.1-10.8,16.1-19.7,20c-8.1,3.6-17.1,4.8-25.8,4.9c-0.6,0-1.5,0.1-2,0.5C148.7,45.8,148.6,46.2,149.2,46.2L149.2,46.2z"/>
<path opacity="0.33" stroke="#6D6E71" stroke-miterlimit="10" enable-background="new    " d="M107.9,22.9c0,0,4.8,18.6,43.2,21.2
	c0,0,32,2.2,44.3-21.2c0,0-13,7.4-43.9,7.1C151.5,30,117.6,30,107.9,22.9z"/>
<path fill="#6D6E71" d="M152,205.7c7,0.1,14,0.3,21.1,0.4c11.5,0.2,22.9,0.5,34.4,0.8c2.1,0.1,4.2,0.1,6.2,0.2
	c0.6,0,1.3,0.1,1.9,0.1c0.2,0,0.4,0,0.7,0.1h0.1c-0.2-0.1-0.4-0.3-0.6-0.4c1.5,9.8,3.5,19.5,5.8,29.1c2,8.5,4.4,16.9,7.2,25.2
	c2.6,7.5,5.7,15,9.9,21.8c1.9,3,4,5.9,6.7,8.2c0.5,0.4,0.5,0.3,0.5,1c0,0.9-0.1,1.8-0.2,2.8c-0.4,3.1-1.6,6-3.6,8.4
	c0.3-0.2,0.5-0.4,0.8-0.6c-0.1,0.1-0.3,0.1-0.5,0.2c-0.4,0.1,0.2-0.1-0.2,0.1l-0.9,0.3c-1.7,0.5-3.4,0.7-5.2,0.9
	c-2.9,0.3-5.8,0.2-8.7,0c-2-0.2-3.9-0.4-5.8-0.8c-1.6-0.3-3.3-0.9-5-1c-2.5-0.2-5.1-0.2-7.6-0.3c-4.9-0.2-9.9-0.3-14.8-0.4
	c-4.3-0.1-8.7-0.3-13.1,0.1c0.4,0.1,0.8,0.2,1.1,0.2c-0.5-0.6-2-0.7-2.7-0.7c-4.4-0.5-8.8-0.3-13.2-0.1c-5.2,0.3-10.4,0.7-15.6,1.1
	c-0.4,0-2.2,0.7-1.5,1.4l0.2,0.2c0.4-0.4,0.8-0.9,1.2-1.3c-3.7,0.8-7.8,0.6-11.6,0.5c-4-0.1-8-0.4-12-0.8c-4.6-0.4-9.6-0.5-14.5-0.5
	c-7.2,0.1-14.3,0.3-21.5,0.6c-0.8,0-1.6,0.1-2.4,0.1c-1.8,0.1-3.6,0.7-5.3,1c-5.2,1-10.5,1.4-15.8,0.9c-1.7-0.1-3.3-0.4-4.9-0.7
	c-0.5-0.1-1-0.2-1.5-0.4c-0.2,0-0.4-0.1-0.5-0.2c0.2,0.1,0,0.1-0.1,0c-0.7-0.6-1.4-1.8-1.9-2.6c-0.8-1.3-1.4-2.6-1.9-4
	s-0.9-2.8-1-4.3c-0.2,0.3-0.4,0.5-0.6,0.8c4.3-3,7.1-8.1,9.4-12.7c3.4-6.8,6.1-13.9,8.6-21.1c4.9-14.2,9-28.6,12.6-43.2
	c0.8-3.2,1.6-6.4,2.3-9.6c-0.5,0.3-1.1,0.7-1.6,1c0.3-0.1,0.5-0.1,0.8-0.1h0.7h0.7c1.7-0.1,3.4-0.1,5.1-0.2
	c5.2-0.2,10.4-0.3,15.7-0.4c11.3-0.3,22.5-0.5,33.8-0.7c2.5,0,5.1-0.1,7.6-0.1c0.6,0,1.6-0.2,1.9-0.8c0.3-0.6-0.2-0.8-0.8-0.8
	c-7.1,0.1-14.2,0.3-21.3,0.4c-11.5,0.2-23,0.5-34.4,0.8c-2.1,0.1-4.1,0.1-6.2,0.2c-1,0-2.1,0-3.2,0.2c-0.5,0.1-1.5,0.3-1.6,1
	c-2,8.7-4.2,17.3-6.6,25.9c-4.2,15.2-8.8,30.5-15.4,44.8c-1.5,3.1-3,6.2-4.9,9.1c-1.3,2-3.1,4.3-4.8,5.5c-0.3,0.2-0.6,0.4-0.6,0.8
	c0.4,3.8,2.2,7.7,4.6,10.7c1.2,1.4,3.5,1.6,5.2,1.9c4.4,0.7,8.9,0.8,13.3,0.4c3.3-0.3,6.5-0.8,9.7-1.5c0.3-0.1,0.6-0.1,0.9-0.2
	c0,0,1.6-0.4,0.7-0.2h0.9c6.7-0.2,13.4-0.5,20.1-0.6c3.6-0.1,7.3-0.1,10.9-0.1c0.6,0,1.3,0,1.9,0.1h0.7c0.1,0,0.9,0.1,0.4,0
	c0.7,0.1,1.5,0.2,2.2,0.2c4.2,0.4,8.5,0.7,12.7,0.9c4.6,0.2,9.4,0.3,14-0.6c0.3-0.1,1.7-0.7,1.2-1.3l-0.2-0.2
	c-0.5,0.5-1,0.9-1.5,1.4c8.7-0.8,17.7-1.8,26.5-1.2c0.8,0.1,0.9,0.1,1.8,0.2c0.2,0,0.4,0.1,0.6,0.1c0.4,0.1,0,0,0.2,0
	c0.1,0,0.5,0.2,0.1,0c1,0.4,1.6,0.2,2.5,0.2c7.7-0.3,15.4,0.1,23.1,0.3l9,0.3c0.5,0,1,0.1,1.5,0.1c3.3,0.6,6.5,1.4,9.9,1.7
	c4.5,0.4,9.1,0.4,13.5-0.4c1.7-0.3,3.8-0.6,5.3-1.5c1.1-0.7,1.9-2.2,2.4-3.3c0.6-1.2,1.1-2.4,1.4-3.7c0.5-1.8,0.7-3.6,0.6-5.5
	c0-1.1-1.1-1.6-1.9-2.4c-1.1-1.1-2.1-2.2-3-3.4c-4.6-6-7.7-13.1-10.4-20.1c-3.1-8.1-5.6-16.5-7.8-24.9c-2.9-11.1-5.3-22.4-7.1-33.7
	c0-0.2-0.1-0.4-0.1-0.6s-0.4-0.4-0.6-0.4c-2.5-0.5-5.2-0.3-7.7-0.4c-5.2-0.2-10.4-0.3-15.7-0.4c-11.3-0.3-22.6-0.5-34-0.7
	c-2.6,0-5.2-0.1-7.7-0.1c-0.6,0-1.6,0.2-1.9,0.8C150.9,205.4,151.5,205.7,152,205.7L152,205.7z"/>
<path fill="#6D6E71" d="M87.2,208.1c0.8,1,1.7,1.9,2.5,2.9c0.5,0.6,1.1,1.2,1.6,1.9c0.2,0.2,0.3,0.5,0.5,0.6
	c0.5,0.3-0.2,0.2,0.1-0.2c-0.3,0.4-0.3,1.8-0.4,2.3c-0.8,4.9-1.8,9.9-2.9,14.8c-3.7,16.3-8.5,32.7-16.3,47.6
	c-4.1,7.9-9.2,15.7-16.2,21.3c-0.5,0.4-0.3,1,0.3,1.1c0.7,0.2,1.6-0.1,2.1-0.6c6.4-5.1,11.2-11.9,15.1-19
	c4.3-7.8,7.7-16.1,10.6-24.6c4.4-13,7.8-26.4,10.1-40c0.2-1,0.6-2.2,0.5-3.3c-0.1-0.9-1.4-2-2-2.6c-1-1.1-2-2.3-3-3.4
	C89.3,206,86.4,207.1,87.2,208.1L87.2,208.1z M213.3,207.7c-0.6,1.2-1.2,2.5-1.8,3.7c-0.2,0.4-0.4,0.7-0.4,1.1c0,1,0.3,2.2,0.5,3.2
	c0.9,5.3,1.9,10.5,3,15.7c3.5,16,8,32,15.2,46.7c3.7,7.6,8.3,15.1,14.8,20.6c0.6,0.5,3.1-0.6,2.7-1c-5.8-4.9-10-11.5-13.5-18.1
	c-3.9-7.5-7-15.4-9.6-23.4c-4.2-13-7.3-26.4-9.6-39.9c-0.2-1.5-0.4-2.9-0.7-4.4c-0.1-0.5-0.1-0.3,0.1-0.6c0.7-1.4,1.4-2.8,2.1-4.1
	c0.2-0.4-1-0.3-1.1-0.2C214.5,207,213.5,207.2,213.3,207.7L213.3,207.7z"/>
<path fill="#6D6E71" d="M94,212.5c10.2,0.4,20.5,0.7,30.7,0.9c19.4,0.4,38.7,0.7,58.1,0.2c8.7-0.2,17.5-0.5,26.1-1.5
	c0.5-0.1,1.6-0.2,1.9-0.7s-0.2-0.5-0.7-0.5c-7.6,0.9-15.2,1.2-22.8,1.5c-9.6,0.3-19.2,0.3-28.9,0.3c-17.3-0.1-34.6-0.4-51.8-1
	c-3.6-0.1-7.2-0.2-10.8-0.4c-0.6,0-1.5,0.1-2,0.5C93.4,212.2,93.3,212.5,94,212.5L94,212.5z"/>
<path fill="#FFFFFF" d="M229.6,249.1c0,0-0.1,8.1-8.9,7.1c0,0,5.7,17.2,6.2,18.2c0,0,6.7,0.4,9.1-6.4L229.6,249.1L229.6,249.1z"/>
<path fill="#6D6E71" d="M228.2,249.5v0.2c0,0.3-0.1,0.5-0.1,0.8c-0.1,0.8-0.4,1.5-0.7,2.2c-1.2,2.4-3.2,3-5.7,2.8
	c-0.5,0-2.6,0.3-2.4,1.1c1,2.9,1.9,5.8,2.9,8.7c0.7,2.1,1.4,4.1,2.1,6.2c0.4,1.1,0.7,2.3,1.2,3.3c0.2,0.3,0.5,0.3,0.9,0.3
	c2,0.1,4.1-0.5,5.8-1.4c1.4-0.7,2.7-1.7,3.7-3c0.6-0.8,1.7-2.3,1.5-3.3c-0.1-0.6-0.5-1.3-0.7-2c-0.4-1.1-0.8-2.3-1.1-3.4
	c-0.9-2.7-1.8-5.5-2.8-8.2c-0.6-1.7-1.1-3.4-1.7-5.1C230.8,247.9,227.9,248.7,228.2,249.5c1.2,3.6,2.4,7.2,3.6,10.9
	c0.7,2.2,1.5,4.4,2.2,6.6c0.1,0.4,0.5,1,0.5,1.4s-0.5,1.1-0.7,1.5c-0.4,0.8-1,1.5-1.6,2.1c-1.4,1.3-3.2,1.9-4.7,1.8l0.9,0.3
	c-0.5-1-0.8-2.2-1.2-3.3l-2.1-6.3c-1-2.9-1.9-5.8-2.9-8.7c-0.8,0.4-1.6,0.7-2.4,1.1c3.5,0.4,7.6-0.4,9.8-3.5c0.9-1.4,1.5-3,1.5-4.7
	C231.1,248,228.2,248.5,228.2,249.5L228.2,249.5z"/>
<path opacity="0.4" enable-background="new    " d="M43.7,80.6c0,0,15.2,12.9,18,37.1c0,0,2.9,36.6,2.9,47.8c0,0-6.5,28.7-5.8,37.7
	c0,0-7.2,53.5-4.3,62.5c0,0-2.9,28.7,5.1,37.1c0,0,3.6,5.6-1.4,15.8c0,0-17.3-13.5-8.7-54c0,0,12.3-107.5,7.2-127.7
	C56.7,136.9,55.3,93.5,43.7,80.6z M255.8,70c0,0-11.7,13.5-14,38.6c0,0-2.2,38-2.2,49.7c0,0,5,29.8,4.5,39.2c0,0,5.6,55.6,3.3,65
	c0,0,2.2,29.8-3.9,38.6c0,0-2.8,5.9,1.1,16.4c0,0,13.4-14,6.7-56.2c0,0-9.5-111.8-5.6-132.8C245.8,128.5,246.9,83.4,255.8,70
	L255.8,70z"/>
<path opacity="0.3" enable-background="new    " d="M93.4,293.2c0,0-10-8.9-9.5-4.5c0,0,3.9,6.7,3.9,8.9s1.7,5.6,1.7,5.6l13.4-1.1
	L93.4,293.2L93.4,293.2z M22.6,339.7c0,0-7.2-4.7-6.8-2.4c0,0,2.8,3.6,2.8,4.7c0,1.2,1.2,3,1.2,3l9.5-0.6L22.6,339.7z M258.1,338.7
	c0,0-7.2-4.7-6.8-2.4c0,0,2.8,3.6,2.8,4.7s1.2,3,1.2,3l9.5-0.6L258.1,338.7z M193.9,295.6c0,0-7.4-7.8-6.7-4.6c0,0,0.1,6.2,0.1,7.8
	c0,0.3,0,0.5-0.1,0.8c-0.3,1.3,0.8,2.6,2.2,2.6L205,302L193.9,295.6L193.9,295.6z M281.6,338c0,0,6.3-5.7,5.7-3.4
	c0,0-0.1,4.5-0.1,5.7c0,0.2,0,0.4,0.1,0.6c0.2,1-0.7,1.9-1.9,1.9l-13.4-0.1L281.6,338L281.6,338z M47.3,341.4c0,0,6.3-5.7,5.7-3.4
	c0,0-0.1,4.5-0.1,5.7c0,0.2,0,0.4,0.1,0.6c0.2,1-0.7,1.9-1.9,1.9l-13.4-0.1L47.3,341.4L47.3,341.4z M84.5,209.5
	c0,0-16.7,72.6-28.5,79.8l-0.6-8.4C55.5,281,83.9,219.6,84.5,209.5z"/>
<path opacity="0.26" enable-background="new    " d="M220.7,206.7c0,0,6.1,38.5,7.8,42.4l2.8-0.6L238,268l-1.1,3.9
	c0,0,5.6,15.1,8.9,15.1s-16.2-52.5-17.9-62.5L220.7,206.7L220.7,206.7z"/>
<path opacity="0.3" enable-background="new    " d="M96.2,211.9c0,0,32.2,0.9,37.4-0.3c5.2-1.2,63.8,1.8,70.7,0.3s4.6-3.5,4.6-3.5
	s-38.5-0.3-43.7,0.3C165.2,208.6,99.7,209.8,96.2,211.9L96.2,211.9z"/>
<path opacity="0.31" enable-background="new    " d="M56.9,200.3c0,0-5,38-17.3,46.9s12.8-25.7,11.7-40.2 M244.1,211.5
	c0,0,5,38,17.3,46.9s-12.8-25.7-11.7-40.2"/>
<g>
	<g>
		<path fill="#FFFFFF" d="M105.5,159.5l6.7,16.3h0.1l6.8-16.3h7.9v2.9l-1.3,0.1c-0.8,0.1-1.2,0.5-1.2,1.3l1,16.5l2.5,0.1v3.1h-9.6
			v-2.9l1.4-0.1c0.7,0,1.1-0.4,1-0.9l-0.8-12.7l-6.1,14.4h-3.8l-6-14.2H104l-0.8,13.4l2.6,0.1v3.1h-9.4v-2.9l1.4-0.1
			c0.6,0,0.9-0.4,1-1l1.1-16.7l-2.4-0.1v-3.1h8V159.5L105.5,159.5z M144.6,182.8V180c-1.5,1.9-3.6,2.8-6.4,2.8
			c-4.1,0-6.1-2.1-6.1-6.2v-7.2c0-0.6-0.3-1-1-1l-1.3-0.1v-3h7v10.3c0,1.3,0.2,2.2,0.6,2.9c0.4,0.6,1.2,1,2.5,1c1.2,0,2.2-0.3,3-1
			s1.1-1.5,1.1-2.5v-6.5c0-0.4-0.1-0.7-0.2-0.8s-0.4-0.2-0.8-0.2l-1.3-0.1v-3h7v17.4c0,2.9-0.8,5-2.3,6.4c-1.5,1.3-3.9,2-7,2
			s-5.6-0.4-7.3-1.2v-5l3.8-0.3v1.7c0,0.6,0.3,1.1,1,1.3c0.7,0.2,1.6,0.3,2.7,0.3C142.9,188.1,144.6,186.3,144.6,182.8L144.6,182.8z
			 M168.9,180.2c3.2,0,4.8-1.2,4.8-3.5c0-1.2-0.7-2.1-2.1-2.7c-0.7-0.3-1.7-0.6-2.9-0.9c-1.2-0.3-2.2-0.6-2.9-0.9
			c-0.8-0.3-1.6-0.7-2.4-1.2c-1.6-1.1-2.3-2.7-2.3-4.9s0.8-3.9,2.5-5.2c1.7-1.3,3.9-1.9,6.6-1.9s5.2,0.5,7.6,1.5v5.4l-4,0.3v-2.1
			c0-0.4-0.1-0.6-0.2-0.8c-0.3-0.5-1.2-0.7-2.8-0.7c-1.6,0-2.7,0.3-3.5,0.8s-1.1,1.3-1.1,2.3c0,0.8,0.3,1.4,1,2
			c0.4,0.4,1.1,0.7,1.9,1s1.7,0.5,2.7,0.8c0.9,0.3,1.8,0.6,2.5,0.9s1.5,0.7,2.3,1.3c1.6,1.1,2.4,2.7,2.4,5s-0.9,4-2.7,5.3
			c-1.8,1.3-4.1,1.9-7.1,1.9s-5.5-0.5-7.9-1.5v-5.7l4-0.3v2.2c0,0.4,0.1,0.6,0.2,0.8s0.4,0.3,1,0.5
			C166.9,180.1,167.8,180.2,168.9,180.2L168.9,180.2z M204.8,171.5c0,3.1-0.7,5.6-2.2,7.6c-1.4,2-3.5,3.3-6.2,4v0.1
			c2,0.1,4,0.6,5.8,1.7c1.3,0.7,2.9,1.1,4.6,1.1c0.4,0,0.8,0,1.2-0.1l-0.5,3.5h-1.1l-3.9-0.6c-1.7-0.5-3.3-1.1-4.9-1.8
			c-1.8-0.8-3.5-1.2-5-1.2c-0.7,0-1.5,0.1-2.2,0.2l0.6-2.6c-6.3-0.7-9.4-4.7-9.4-12c0-2.2,0.4-4.1,1.1-5.8c0.7-1.7,1.7-3,2.9-3.9
			c2.3-1.8,5.1-2.8,8.2-2.8s5.8,1,7.9,3C203.7,164.1,204.8,167.3,204.8,171.5L204.8,171.5z M186.6,171.4c0,6,2.3,8.9,6.8,8.9
			c2.4,0,4.2-0.9,5.2-2.7c0.9-1.6,1.3-3.6,1.3-5.9c0-2.1-0.4-4-1.2-5.8c-0.4-1-1.1-1.7-2-2.3c-0.9-0.6-2.1-0.8-3.5-0.8
			c-1.5,0-2.7,0.4-3.7,1.3s-1.8,1.9-2.2,3.1C186.8,168.4,186.6,169.8,186.6,171.4L186.6,171.4z M226.5,183.5h-18.8v-2.9l1.3-0.1
			c0.8-0.1,1.2-0.4,1.2-1v-16.7l-2.3-0.1v-3.1h9.6v2.9l-1.3,0.1c-0.8,0.1-1.1,0.5-1.1,1.2v16.1h6.6c0.4,0,0.6-0.1,0.7-0.3
			c0.1-0.2,0.2-0.5,0.2-0.9v-2.5l4,0.3v7H226.5L226.5,183.5z"/>
	</g>
	<g>
		<ellipse fill="none" stroke="#FFFFFF" stroke-width="3.314" stroke-miterlimit="10" cx="153.1" cy="107.9" rx="23.1" ry="8.3"/>
		<path fill="none" stroke="#FFFFFF" stroke-width="3.314" stroke-miterlimit="10" d="M128.8,107.6v35.1c0,0,29.7,15.2,49.3-2.5
			l1.2-32.7C179.3,107.6,159,90.9,128.8,107.6L128.8,107.6z"/>
		<path fill="none" stroke="#FFFFFF" stroke-width="3.759" stroke-miterlimit="10" d="M129.4,121.9c0,0,18.9,13.8,49.3-0.7
			 M129.4,131.7c0,0,18.9,13.8,49.3-0.7"/>
	</g>
</g>
</svg>
