<svg xmlns="http://www.w3.org/2000/svg" viewBox="0 0 612 792"><path fill="#FFC63E" d="M307.7 223s-47.7 0-51.9-12.6L217.3 223s-26.8 7.5-29.3 18.4c0 0-5.6 7.3-10.6 55.8 0 0-10.3 74-8.7 83.2 0 0-2.5 24.3-2.5 31.8 0 0-4.2 64.5-4.2 77 0 0-2.5 34.3 0 40.2 0 0 1.7 15.9 7.5 19.3 0 0 2.5 20.9 1.7 24.3 0 0 15.9 7.5 31 .8 0 0 .8-21.8 3.3-26 0 0 6.3-14.5 7.4-33.6.2-2.9.2-6 .1-9.1 0 0 3.3-.8 4.5 10.3 0 0-3.3 14-2.2 15.6 1.1 1.7 34 5.6 41.3 2.8 0 0 17.9-4.5 24-3.3 0 0 17.3.6 26.2 0"/><path fill="#6D6E70" d="M308.3 222.1c-5.3 0-10.6-.3-15.8-.7-9-.7-18.5-1.7-27-5-3.1-1.2-6.9-3-8.1-6.4-.2-.6-1.2-.6-1.7-.5-12.1 4-24.3 7.9-36.4 11.9-3.9 1.3-7.9 2.5-11.8 4-4.3 1.7-8.5 3.7-12.3 6.2-3.2 2.1-6.7 4.8-8.2 8.6-.6 1.6-1.4 3.3-2 5-2 5.7-3.2 11.8-4.3 17.8-2.9 15.6-4.3 31.4-6.4 47.2-2.3 17-4.5 34.1-6.1 51.2-.6 5.9-1.3 12-1 17.9.1 1.6 0 2.8-.2 4.8-.4 4.5-.9 9-1.2 13.5-1 12.2-1.5 24.4-2.3 36.7-1 17.1-2.2 34.3-2.7 51.4-.4 13.3-2.1 26.8-.9 40.1.2 2.1.7 4.1 1.1 6.1.6 4.2 1.6 8.5 3.4 12.4.8 1.7 1.8 3.8 3.5 4.8.2.1.6.6.4.2v.3c.1.5.1 1 .2 1.5.5 4 .9 8.1 1.2 12.1.3 3.2 1 6.9.2 10.1-.1.2.1.5.3.6 10 4.7 22.6 5.2 32.7.8.3-.1.8-.5.9-.9.3-7.3.6-14.7 2.1-21.9.4-2.2 1.3-4.1 2.1-6.2 1.7-4.6 3-9.3 4.1-14 1.9-8.7 2.9-17.6 2.6-26.6-.4.3-.8.7-1.2 1l-.6.1c.1-.1 0-.1 0 0 0-.1.6.4.8.7 1.5 1.7 1.9 4.5 2.2 6.6.3 1.9.1 2.9-.3 4.7-.5 2.2-.9 4.4-1.3 6.6-.4 2.1-1.8 6.7.9 7.7 3 1.1 6.5 1.4 9.7 1.8 5 .7 10 1.1 15 1.4 4.5.2 9.1.5 13.6-.1.8-.1 1.5-.2 2.3-.4.3-.1.6-.2.8-.2.7-.2.1 0 .4-.1l3.9-.9c5-1.1 10-2.1 15.1-2.5 3.6-.2 7.4.2 11.1.3 6.5.1 13.1.2 19.7-.2 1.5-.1 2.3-1.9.3-1.8-9.1.5-18.8.1-27.7-.2-7.9-.3-16.4 2-23.9 3.9-3.7 1-7.9.7-11.8.5-5.2-.2-10.4-.6-15.6-1.3-3.6-.4-7.3-.8-10.7-1.8-.4-.1-.6-.1-.8-.3.1.2 0-1 0-1.2 0-2.1.5-4.3.9-6.3.4-2.2.9-4.5 1.4-6.7.5-2.2-.2-4.8-.8-6.9-.7-2.3-2.1-5.6-5.1-4.9-.4.1-1.2.5-1.2 1 .4 13.4-1.8 26.9-6.3 39.5-.7 2-1.7 3.9-2.2 5.9-1.1 4.3-1.4 8.9-1.8 13.3-.3 3.3-.5 6.6-.6 9.8l.9-.9c-9 3.9-20.4 3.3-29.2-.9l.3.6c.7-3.2 0-7-.2-10.2-.3-4.1-.7-8.1-1.2-12.2-.1-.6 0-1.7-.3-2.3-.3-.6-1.4-1.1-1.9-1.7-.7-.8-1.3-1.8-1.8-2.8-1.9-3.9-2.9-8.3-3.5-12.5-.3-2.1-.9-4-1.1-6.1-.4-4-.4-8.1-.3-12.2.1-7.6.5-15.2 1-22.7.3-4.9.3-9.8.5-14.7.4-9.1.9-18.1 1.5-27.1.5-8.5 1-17 1.6-25.6.2-3.8.6-7.6.7-11.5.2-9 1.2-17.9 2.1-26.8.2-1.8.4-3.5.3-5.3-.2-2.2 0-4.4.1-6.6.9-16.6 3.2-33.2 5.3-49.8 1.7-13.4 3.4-26.8 5.1-40.1 1.3-9.9 2.7-19.9 5-29.7.8-3.6 1.7-7.3 3.3-10.5.2-.3.4-.6.5-.9.7-1.6 1.2-3 2.4-4.4 1.4-1.6 3.1-2.9 4.9-4.1 6.2-4.1 13.3-6.8 20.4-9 11.6-3.5 23.1-7.5 34.7-11.3 1.4-.5 2.9-.9 4.3-1.4-.6-.2-1.1-.3-1.7-.5 1.1 3.1 4 5 6.8 6.3 4 1.9 8.3 2.9 12.5 3.8 8.9 1.8 18.1 2.5 27.2 2.9 2.1.1 4.2.1 6.2.1.6 0 1.6-.2 1.9-.8.1-.7-.3-1.1-.9-1.1z"/><path fill="#FFC63E" d="M303.3 223s47.7 0 51.9-12.6l38.5 12.6s26.8 7.5 29.3 18.4c0 0 5.6 7.3 10.6 55.8 0 0 10.3 74 8.7 83.2 0 0 2.5 24.3 2.5 31.8 0 0 4.2 64.5 4.2 77 0 0 2.5 34.3 0 40.2 0 0-1.7 15.9-7.5 19.3 0 0-2.5 20.9-1.7 24.3 0 0-15.9 7.5-31 .8 0 0-.8-21.8-3.3-26 0 0-6.3-14.5-7.4-33.6-.2-2.9-.2-6-.1-9.1 0 0-3.3-.8-4.5 10.3 0 0 3.3 14 2.2 15.6s-34 5.6-41.3 2.8c0 0-17.9-4.5-24-3.3 0 0-17.3.6-26.2 0"/><path fill="#6D6E70" d="M302.7 223.9c5.8 0 11.6-.3 17.4-.8 9.4-.8 19.4-1.9 28.2-5.6 3.4-1.4 7-3.6 8.3-7.2-.8.3-1.5.7-2.3 1 12.1 3.9 24.1 7.9 36.2 11.8 3.9 1.3 7.8 2.5 11.6 4 4.2 1.7 8.4 3.6 12.1 6.2 1.7 1.2 3.4 2.5 4.8 4.1 1.3 1.5 1.8 2.9 2.6 4.7.2.5.2.4.4.7.5 1.1 1 2.3 1.4 3.5 2.1 6.1 3.3 12.6 4.4 18.9 2.7 15.3 4.2 30.9 6.2 46.3 2.3 17 4.4 34.1 6 51.2.5 5.6 1.4 11.4.9 17-.2 1.8.2 3.6.3 5.4.4 4.6.9 9.1 1.2 13.7 1 12.1 1.5 24.2 2.2 36.3 1 16.9 2.2 33.9 2.7 50.9.1 4.8.5 9.5.7 14.3.4 8.5 1 17.2.1 25.7-.2 2.1-.8 4.1-1.1 6.1-.7 4.3-1.6 8.8-3.7 12.7-.4.8-.9 1.6-1.6 2.3-.6.6-1.6 1.1-1.9 1.8-.3.7-.2 1.7-.3 2.4-.5 4.1-.9 8.2-1.2 12.3-.2 3.1-.9 6.7-.2 9.8.3-.4.6-.7.8-1.1-5.4 2.5-11.7 3.6-17.6 3.4-2.6-.1-5.1-.5-7.6-1.1-.6-.2-1.2-.4-1.9-.6-.3-.1-1.9-.6-1.9-.5-.1-.1 0-.3 0-.5-.2-.6-.1-1.4-.1-2-.1-1.3-.1-2.6-.2-3.9-.4-5.9-.6-12.2-2.3-17.9-.4-1.2-.8-1.9-1.2-3.1-1-2.4-1.8-4.9-2.5-7.5-3.2-10.9-4.8-22.3-4.5-33.7 0-.4-.2-.6-.6-.7-2.3-.5-4.1 1.4-5 3.3-1.1 2.3-2 5.7-1.8 8.3.1 1.2.5 2.4.8 3.5.5 2.3 1 4.6 1.3 7 .2 1.3.2 3.6.4 4.5 0-.2.4-.2-.1 0-.6.2-1.2.3-1.9.5-1.9.4-3.8.7-5.6.9-4.9.7-9.9 1.2-14.9 1.5-4.6.3-9.3.5-13.8 0-2.5-.3-4.9-1.1-7.4-1.7-5-1.1-10.1-2.1-15.2-2.5-3.6-.3-7.4.2-11 .2-6.6.1-13.3.2-19.9-.2-1.2-.1-3 1.7-1.1 1.8 5.9.4 11.9.3 17.8.2 3.3-.1 6.6-.1 9.8-.3 4.9-.4 10.1.8 14.9 1.8 2.8.6 5.6 1.3 8.4 2 3.8.9 8 .8 11.9.7 5.2-.1 10.5-.6 15.7-1.2 3.9-.4 7.8-.9 11.6-1.8.9-.2 2-.4 2.8-1 1.1-.9.9-2.5.8-3.7-.2-2.5-.7-5.1-1.2-7.6-.3-1.7-1-3.5-1.1-5.2-.1-1.4.4-3.1.7-4.5.3-1.3.6-2.6 1.3-3.7.2-.3.3-.5.5-.8.2-.3.3-.3.3-.3s-.4.1-.7 0c-.2-.2-.4-.5-.6-.7-.4 13.4 1.8 27 6.3 39.6.7 2 1.7 3.9 2.2 5.9 1.1 4.3 1.4 8.9 1.8 13.3.3 3.3.5 6.7.6 10 .1.2.2.3.3.4 10.1 4.4 22.7 3.8 32.7-.9.4-.2 1-.6.8-1.1-.4-1.7-.2-3.6-.1-5.3.1-2.7.4-5.4.6-8 .3-3.6.7-7.1 1.1-10.7-.2.2-.4.5-.5.7 3.4-2.1 5-6.4 6.1-10 .9-3.2 1.4-6.4 2-9.7.3-1.8.9-4.5 1-6.8.2-4.1.2-8.1.1-12.2-.2-6.9-.5-13.8-1-20.7-.3-4.3-.3-9.4-.5-14-.8-16.8-1.8-33.6-2.9-50.4-.7-11.8-1.3-23.6-2.4-35.4-.3-3.1-.6-6.3-.9-9.4-.1-.7 0-.5.1-1.3.1-.9.1-1.7.1-2.6 0-6.2-.7-12.4-1.3-18.5-1.6-16.2-3.7-32.4-5.8-48.5-1.9-14.5-3.3-29.2-5.8-43.6-1.1-6.5-2.3-13.1-4.3-19.5-.6-2-1.5-3.8-2.3-5.7-.8-1.9-1.6-3.7-3.1-5.3-2.9-3-6.6-5.2-10.3-7.1-5.3-2.7-10.8-4.7-16.4-6.4-11.6-3.6-23.1-7.5-34.6-11.3-1.3-.4-2.6-.8-3.9-1.3-.8-.3-2 .2-2.3 1-1 2.8-4.1 4.4-6.6 5.5-3.9 1.7-8.2 2.6-12.4 3.4-8.4 1.5-16.9 2.2-25.5 2.5-1.9.1-3.6.1-5.5.1-.6 0-1.6.2-1.9.8 0 .8.4 1.2 1 1.2z"/><path fill="#FFF" stroke="#58595B" stroke-miterlimit="10" d="M215.4 505.4s4.5 5.6 2.8 12.3l-2.2 12.8s23.4 5 36.8 2.8c0 0 18.4-3.9 22.9-3.9 0 0 25.7 1.1 29.6 0 0 0 30.1 1.1 34 1.1 0 0 11.7 2.4 15.1 2.4 0 0 32.9 3.2 40.7-3 0 0-5.2-21.8.9-26.8 0 0-27.5 5.2-38 2.2 0 0-26-3-32.7-.7 0 0-9.3 1.1-31.3 2.2 0 0-13-1.5-29.8-1.1 0 0-13.8.2-21.6.2.1.1-22.8 6.2-27.2-.5z"/><path fill="#FFF" stroke="#58595B" stroke-width="1.017" stroke-miterlimit="10" d="M169.8 548.8s2-.4 6.3-.7c0 0 9.8-.4 16.9 1.1 0 0 8.2.7 12.9-1.8 0 0-2.7 5.8-2.7 12.8l-.4 14.2s-16.5 4.7-30.6-1.5c-.1-.1.3-14.7-2.4-24.1z"/><path fill="#FFF" stroke="#58595B" stroke-width="1.041" stroke-miterlimit="10" d="M441.8 546.3s-2.1-.4-6.7-.8c0 0-10.4-.4-17.9 1.2 0 0-8.7.8-13.7-1.9 0 0 2.9 6.2 2.9 13.6l.4 15.1s17.5 5 32.5-1.5c0-.1-.4-15.6 2.5-25.7z"/><path fill="#6D6E70" d="M179.6 268.5c3.7 1.7 7.1 4.2 10.2 6.7 7.1 5.8 13 13.2 16.6 21.7 1.7 4.1 3 8.4 3.6 12.8.3 2.3.5 4.7.7 7 1.1 10.8 1.8 21.7 2.2 32.6.2 6.6.3 13.1.1 19.7-.1 2.2-.1 4.5-.4 6.7-.7 4.9-1.3 9.8-1.9 14.8-2.2 18.7-4.1 37.4-5 56.2-.5 9.4-.8 18.8-.4 28.3.1 2 .2 4 .4 6.1.1 1.2.3 2.3.3 3.4 0 4.5.7 9.1 1.8 13.4.9 3.5 2.2 7 3.8 10.2.6 1.2 3.4.3 2.9-.8-3-6-4.8-12.5-5.4-19.1-.1-1.4-.2-2.9-.2-4.3s-.2-2.8-.4-4.1c-.7-8.9-.6-17.9-.2-26.9.7-19.4 2.6-38.8 4.8-58.1.7-5.9 1.4-11.8 2.2-17.7.9-6.7.8-13.6.7-20.4-.1-11.8-.8-23.6-1.9-35.4-.5-6.1-.9-12.4-2.5-18.4-4.1-15.1-15.2-28.4-29.1-35.6-.3-.1-.5-.3-.8-.4-.7-.3-1.5-.2-2.1.2-.2.3-.6 1.1 0 1.4zM425.9 259.6c-3.9 1.8-7.6 4.5-10.9 7.3-7.4 6.1-13.4 13.8-17.1 22.7-1.6 3.9-2.9 8.2-3.3 12.4-.3 2.7-.6 5.3-.8 8-1.1 11.5-1.9 22.9-2.2 34.4-.2 6.8-.2 13.6.2 20.4.1 1.4.2 2.8.4 4.2.8 5.7 1.4 11.4 2.1 17 1.1 9.4 2 18.7 2.9 28.1.9 10.5 1.7 21.1 2.1 31.7.3 9.2.5 18.4-.3 27.6-.1 1.2-.4 2.3-.2 3.5.2 1.5.3 2.9.3 4.4.2 5.5 0 11-1.2 16.4-.6 3-1.6 5.9-2.9 8.6-.3.5 1 .4 1.2.4.6-.1 1.4-.3 1.7-.9 4.4-8.9 4.9-19.8 3.8-29.5-.1-1.1.1-2.1.2-3.2.2-2 .3-3.9.4-5.9.2-4.6.2-9.2.2-13.8-.1-10.4-.8-20.8-1.6-31.2-.8-9.9-1.7-19.8-2.8-29.7-.8-7-1.6-13.9-2.5-20.8-.2-1.6-.4-3.2-.6-4.9-.5-3.6-.4-7.3-.4-10.8-.2-12.8.5-25.6 1.5-38.4.5-6.2.8-12.5 2-18.6 2-10.5 7.3-20 14.7-27.6 4.2-4.3 9-8.1 14.2-10.8.3-.1.5-.3.8-.4.4-.2.8-.6.3-.9-.7-.4-1.8 0-2.2.3z"/><path fill="none" stroke="#FFF" stroke-miterlimit="10" d="M305.6 248.3c-50.6-3-50.6-38.1-50.6-38.1l-12.3 3.9s8.6 44.3 62.5 43.2"/><path fill="#FFF" d="M304.8 223c-45-.6-48.3-11.7-48.3-11.7l-12.6 3.9s12.1 17.3 61.5 16.2"/><path fill="#6D6E70" d="M305.7 222.5c-11.9-.2-24.2-.7-35.6-4.2-3.9-1.2-8.6-2.8-11.3-6-.3-.4-.7-.9-.9-1.4-.1-.5-1.7 0-1.9.1l-12.6 3.9c-.1 0-1.1.4-1 .7 1.7 2.5 4.6 4.3 7.1 5.9 8.2 5 17.9 7.5 27.3 8.9 9.1 1.4 18.4 1.8 27.6 1.6.6 0 1.5-.1 2-.5.4-.3.5-.6-.1-.6-14.1.3-28.6-.6-42.1-5-6-2-12.2-4.7-16.9-9-.7-.7-1.4-1.3-2-2.1-.3.2-.6.4-1 .7l12.6-3.9c-.6 0-1.3.1-1.9.1.5 1.7 2.5 3 3.9 3.9 6.1 3.9 13.8 5.3 20.7 6.3 8 1.2 16.1 1.6 24.2 1.7.6 0 1.5-.2 2-.5.4-.4.5-.6-.1-.6z"/><path fill="#FFF" d="M305.3 223c45-.6 48.3-11.7 48.3-11.7l12.6 3.9s-12.1 17.3-61.5 16.2"/><path fill="#6D6E70" d="M304.7 223.8c12.2-.2 25-.8 36.8-4.3 4.4-1.3 9.4-3.1 12.5-6.7.4-.5.8-1 1-1.6-.9.3-1.7.6-2.6.9L365 216c-.1-.2-.1-.4-.2-.7-.1.2-.2.3-.4.4-.1.2-.3.3-.5.5l-.6.6c-1.6 1.5-3.3 2.8-5.1 3.9-7.8 4.8-17.1 7.2-26.1 8.5-8.9 1.4-18 1.7-27 1.5-.6 0-1.6.2-1.9.8-.3.6.3.7.8.7 14.4.3 29.3-.6 43.1-5.1 6.4-2.1 13-4.9 18.1-9.5.8-.7 1.6-1.5 2.2-2.3.2-.2.2-.6-.2-.7l-12.6-3.9c-.7-.2-2.3 0-2.6.9 0 .1-.1.2-.1.3-.1.2.1-.2 0 0 0 .1-.1.1-.1.2-.1.1-.2.3-.3.4-.1.2-.3.4-.5.6l-.1.1c-.1.1-.2.2-.4.3-.3.2-.6.5-.9.7-.4.3-.6.4-.9.6-5.6 3.5-12.8 4.9-19.5 5.9-7.8 1.1-15.7 1.5-23.6 1.6-.6 0-1.6.2-1.9.8 0 .5.5.7 1 .7z"/><path fill="#FFF" d="M305.8 248.3c-50.5-3-50.5-38.1-50.5-38.1l-12.2 3.9s8.5 44.3 62.3 43.1"/><path fill="#6D6E70" d="M306.7 247.7c-13.8-.8-28.5-4.4-38.7-14.2-5.4-5.2-9.2-12-10.7-19.4-.3-1.4-.5-2.9-.5-4.3 0-.5-1.8 0-1.9.1-4.1 1.3-8.2 2.6-12.2 3.9-.2.1-1 .4-.9.7 1 5.3 3.5 10.5 6.2 15.1 6.3 10.6 15.8 18.8 27.3 23.4 9.3 3.7 19.4 5 29.4 4.8.6 0 1.5-.1 2-.5.4-.3.5-.6-.2-.6-15.9.3-32-3.6-44.2-14.1-7.2-6.3-12.8-14.5-16-23.4-.6-1.7-1.2-3.5-1.6-5.4-.3.2-.6.5-.9.7 4.1-1.3 8.2-2.6 12.2-3.9-.6 0-1.3 0-1.9.1 0 4.1 1.4 8.5 3.1 12.2 4.2 9.3 12.1 16.2 21.3 20.2 8.4 3.7 17.5 5.3 26.6 5.9.6 0 1.6-.1 2-.5.2-.5.2-.7-.4-.8z"/><path fill="#FFF" d="M303.9 248.3c51.6-.7 50.5-38.1 50.5-38.1l12.2 3.9s-8.5 44.3-62.3 43.1"/><path fill="#6D6E70" d="M303.3 248.9c14.4-.2 30.2-3.3 41.1-13.6 5.8-5.5 9.7-12.8 11-20.7.3-1.6.5-3.2.4-4.9-.9.3-1.8.6-2.6 1 4.1 1.3 8.2 2.6 12.2 3.9-.1-.1-.2-.2-.2-.3-1 5-3.3 10-5.8 14.4-5.9 10.2-14.9 18.4-25.8 23-9 3.8-18.7 5-28.4 4.9-.6 0-1.5.1-2 .5-.4.3-.5.7.2.7 16.4.3 33.2-3.6 46-14.2 7.7-6.3 13.5-14.8 17-24.2.7-1.8 1.3-3.7 1.7-5.6 0-.2-.1-.3-.2-.3-4.1-1.3-8.2-2.6-12.2-3.9-.5-.2-2.7.2-2.6 1 .1 4.1-1 8.5-2.6 12.3-3.6 9.1-10.9 16-19.8 20-8.1 3.6-17.2 4.7-26 4.9-.5 0-1.7.2-1.9.7-.5.4.1.4.5.4z"/><path opacity=".33" fill="#231F20" stroke="#6D6E70" stroke-miterlimit="10" d="M261.7 225.6s4.8 18.6 43.2 21.2c0 0 32 2.2 44.3-21.2 0 0-13 7.4-43.9 7.1-.1 0-33.9 0-43.6-7.1z"/><path fill="#6D6E70" d="M305.4 408.2l13.2.3 26.9.6c7.2.2 14.5.3 21.7.6.8 0 1.6.1 2.4.1.8.1-.1-.1 0-.2v.3c-.1.5.2 1.2.3 1.7.2 1 .3 2.1.5 3.1 1.3 7.6 2.9 15.1 4.7 22.6 2.4 9.9 5.1 19.8 8.6 29.4 3 8.3 6.6 16.9 12.4 23.7.6.7 1.2 1.4 1.8 2 .3.3.6.6.9.8.2.2.8.5.9.8.2.3 0 1.1 0 1.5 0 1.2-.2 2.4-.5 3.6-.3 1.5-.8 2.9-1.5 4.2-.2.4-.4.7-.6 1.1-.2.3-.7.8-.8 1.1-.1.5-.1-.2.1.1 0 0 .5-.2.2-.1-.1.1-.2.1-.3.1-.1 0-.6.2-.4.2.1 0-.4.1-.6.2-.4.1-.7.2-1.1.3-5 1.1-10.7.9-15.9.2-2.1-.3-4.3-.7-6.4-1.2-.4-.1-.9-.2-1.3-.2-1.1-.1-2.3-.1-3.4-.1-9.1-.3-18.2-.7-27.3-.6-1.5 0-2.9 0-4.4.2.2 0 .5.1.7.1-.5-.6-2.1-.6-2.7-.6-4.2-.5-8.6-.2-12.9 0-5.2.2-10.4.7-15.6 1.1-.3 0-2.5.5-2 1.1l.2.2c.5-.4 1.1-.7 1.6-1.1-3.8.8-7.8.6-11.7.5-4-.1-8-.4-12-.8-4.9-.4-9.7-.5-14.6-.5-7.2.1-14.5.3-21.7.6-.8 0-1.6 0-2.4.1-1.8.1-3.6.7-5.3 1.1-5.1.9-10.4 1.3-15.6.9-1.7-.1-3.4-.4-5-.7-.6-.1-1.6-.2-2.2-.6-.2-.1-.3-.4-.5-.6-.5-.7-1.1-1.5-1.6-2.2-.7-1.2-1.3-2.5-1.8-3.9s-.9-2.8-1-4.3c-.1.2-.2.3-.3.5 4.2-2.9 6.9-8 9.1-12.5 3.4-6.8 6.2-14 8.7-21.2 4.9-14.1 9-28.6 12.6-43.1.8-3.2 1.6-6.3 2.3-9.5-.6.3-1.1.5-1.7.8.4-.1-.4 0 0 0h.5c.5 0 1.1-.1 1.6-.1 1.7-.1 3.4-.1 5.1-.2 5.2-.2 10.4-.3 15.7-.4 11.3-.3 22.5-.5 33.8-.7 2.5 0 5.1-.1 7.6-.1.5 0 1.7-.2 1.9-.7.3-.5-.3-.5-.7-.5-7.1.1-14.2.3-21.3.4-11.5.2-23 .5-34.4.8-3 .1-6.3-.1-9.3.5-.4.1-1.6.3-1.7.8-2 8.7-4.3 17.4-6.7 26-4.2 15.1-8.8 30.4-15.4 44.7-1.5 3.2-3.1 6.4-5 9.3-1.3 2-2.9 4.2-4.9 5.6-.1.1-.4.3-.3.5.4 3.8 2.2 7.7 4.5 10.6 1.1 1.4 3.5 1.5 5.1 1.7 4.4.7 8.9.8 13.3.4 3.1-.3 6.2-.7 9.3-1.4.4-.1.9-.2 1.3-.3 0 0 1.6-.3.7-.2h.9l19.8-.6c5.4-.1 10.7-.3 16.1.3 4.2.4 8.5.7 12.7.9 4.6.2 9.4.4 13.9-.6.2 0 2.2-.5 1.6-1.1l-.2-.2c-.7.4-1.3.7-2 1.1 6-.5 11.9-1 17.9-1.2 2.9-.1 5.8-.2 8.7 0 1.2.1 1.8.1 2.9.4.2.1-.1 0 .1.1.7.2 1.5.1 2.3 0 7.6-.3 15.3.1 22.9.3l9 .3c.6 0 1.1 0 1.6.1 3.3.6 6.5 1.4 9.8 1.7 4.6.4 9.3.4 13.8-.5 1.7-.3 3.7-.7 5.3-1.5 1-.5 1.8-1.9 2.3-2.9.7-1.2 1.2-2.5 1.5-3.8.5-1.8.7-3.6.7-5.4 0-.3 0-.6-.1-.9-.3-.5-1.2-1-1.6-1.4-1.1-1.1-2.1-2.2-3-3.4-4.6-6-7.8-13.2-10.5-20.3-3.1-8-5.5-16.3-7.7-24.6-2.9-11.2-5.3-22.6-7.1-34 0-.2-.1-.4-.1-.6-.1-.1-.1-.2-.3-.2-2.5-.5-5.1-.3-7.6-.4-5.2-.2-10.4-.3-15.7-.4-11.3-.3-22.6-.5-34-.7-2.6 0-5.2-.1-7.7-.1-.6 0-1.5.1-2 .5-.1.2-.2.6.4.6z"/><path fill="#6D6E70" d="M240.9 410.8c.8 1 1.7 1.9 2.5 2.9.5.6 1.1 1.2 1.6 1.9.2.2.3.5.5.6.5.3-.2.2.1-.2-.3.4-.3 1.8-.4 2.3-.8 4.9-1.8 9.9-2.9 14.8-3.7 16.3-8.5 32.7-16.3 47.6-4.1 7.9-9.2 15.7-16.2 21.3-.5.4-.3 1 .3 1.1.7.2 1.6-.1 2.1-.6 6.4-5.1 11.2-11.9 15.1-19 4.3-7.8 7.7-16.1 10.6-24.6 4.4-13 7.8-26.4 10.1-40 .2-1 .6-2.2.5-3.3-.1-.9-1.4-2-2-2.6-1-1.1-2-2.3-3-3.4-.5-.9-3.4.2-2.6 1.2zM367 410.4c-.6 1.2-1.2 2.5-1.8 3.7-.2.4-.4.7-.4 1.1 0 1 .3 2.2.5 3.2.9 5.3 1.9 10.5 3 15.7 3.5 16 8 32 15.2 46.7 3.7 7.6 8.3 15.1 14.8 20.6.6.5 3.1-.6 2.7-1-5.8-4.9-10-11.5-13.5-18.1-3.9-7.5-7-15.4-9.6-23.4-4.2-13-7.3-26.4-9.6-39.9-.2-1.5-.4-2.9-.7-4.4-.1-.5-.1-.3.1-.6.7-1.4 1.4-2.8 2.1-4.1.2-.4-1-.3-1.1-.2-.4.1-1.4.3-1.7.7z"/><path fill="#6D6E70" d="M247.7 415.2c10.2.4 20.5.7 30.7.9 19.4.4 38.7.7 58.1.2 8.7-.2 17.5-.5 26.1-1.5.5-.1 1.6-.2 1.9-.7.3-.5-.2-.5-.7-.5-7.6.9-15.2 1.2-22.8 1.5-9.6.3-19.2.3-28.9.3-17.3-.1-34.6-.4-51.8-1-3.6-.1-7.2-.2-10.8-.4-.6 0-1.5.1-2 .5-.3.4-.4.7.2.7z"/><path fill="#FFF" d="M383.4 451.9s-.1 8.1-8.9 7.1c0 0 5.7 17.2 6.2 18.2 0 0 6.7.4 9.1-6.4l-6.4-18.9z"/><path fill="#6D6E70" d="M381.9 452.2v.2c0 .3-.1.5-.1.8-.1.8-.4 1.5-.7 2.2-1.2 2.4-3.2 3-5.7 2.8-.5 0-2.6.3-2.4 1.1 1 2.9 1.9 5.8 2.9 8.7.7 2.1 1.4 4.1 2.1 6.2.4 1.1.7 2.3 1.2 3.3.2.3.5.3.9.3 2 .1 4.1-.5 5.8-1.4 1.4-.7 2.7-1.7 3.7-3 .6-.8 1.7-2.3 1.5-3.3-.1-.6-.5-1.3-.7-2-.4-1.1-.8-2.3-1.1-3.4-.9-2.7-1.8-5.5-2.8-8.2-.6-1.7-1.1-3.4-1.7-5.1-.3-.8-3.2 0-2.9.8 1.2 3.6 2.4 7.2 3.6 10.9.7 2.2 1.5 4.4 2.2 6.6.1.4.5 1 .5 1.4 0 .4-.5 1.1-.7 1.5-.4.8-1 1.5-1.6 2.1-1.4 1.3-3.2 1.9-4.7 1.8l.9.3c-.5-1-.8-2.2-1.2-3.3l-2.1-6.3c-1-2.9-1.9-5.8-2.9-8.7-.8.4-1.6.7-2.4 1.1 3.5.4 7.6-.4 9.8-3.5.9-1.4 1.5-3 1.5-4.7 0-.6-2.9-.2-2.9.8z"/><path opacity=".4" fill="#231F20" d="M197.5 283.3s15.2 12.9 18 37.1c0 0 2.9 36.6 2.9 47.8 0 0-6.5 28.7-5.8 37.7 0 0-7.2 53.5-4.3 62.5 0 0-2.9 28.7 5.1 37.1 0 0 3.6 5.6-1.4 15.8 0 0-17.3-13.5-8.7-54 0 0 12.3-107.5 7.2-127.7 0 0-1.5-43.4-13-56.3zM409.6 272.7s-11.7 13.5-14 38.6c0 0-2.2 38-2.2 49.7 0 0 5 29.8 4.5 39.2 0 0 5.6 55.6 3.3 65 0 0 2.2 29.8-3.9 38.6 0 0-2.8 5.9 1.1 16.4 0 0 13.4-14 6.7-56.2 0 0-9.5-111.8-5.6-132.8 0 0 1.2-45 10.1-58.5z"/><path opacity=".3" fill="#231F20" d="M247.2 495.9s-10-8.9-9.5-4.5c0 0 3.9 6.7 3.9 8.9s1.7 5.6 1.7 5.6l13.4-1.1-9.5-8.9zM176.4 542.4s-7.2-4.7-6.8-2.4c0 0 2.8 3.6 2.8 4.7s1.2 3 1.2 3l9.5-.6-6.7-4.7zM411.8 541.4s-7.2-4.7-6.8-2.4c0 0 2.8 3.6 2.8 4.7s1.2 3 1.2 3l9.5-.6-6.7-4.7zM347.6 498.3s-7.4-7.8-6.7-4.6c0 0 .1 6.2.1 7.8 0 .3 0 .5-.1.8-.3 1.3.8 2.6 2.2 2.6l15.6-.2-11.1-6.4zM435.3 540.7s6.3-5.7 5.7-3.4c0 0-.1 4.5-.1 5.7 0 .2 0 .4.1.6.2 1-.7 1.9-1.9 1.9l-13.4-.1 9.6-4.7zM201.1 544.1s6.3-5.7 5.7-3.4c0 0-.1 4.5-.1 5.7 0 .2 0 .4.1.6.2 1-.7 1.9-1.9 1.9l-13.4-.1 9.6-4.7zM238.2 412.2s-16.7 72.6-28.5 79.8l-.6-8.4c.1.1 28.6-61.3 29.1-71.4z"/><path opacity=".26" fill="#231F20" d="M374.4 409.4s6.1 38.5 7.8 42.4l2.8-.6 6.7 19.5-1.1 3.9s5.6 15.1 8.9 15.1c3.3 0-16.2-52.5-17.9-62.5l-7.2-17.8z"/><path opacity=".3" fill="#231F20" d="M250 414.6s32.2.9 37.4-.3c5.2-1.2 63.8 1.8 70.7.3 6.9-1.5 4.6-3.5 4.6-3.5s-38.5-.3-43.7.3c0-.1-65.6 1.1-69 3.2z"/><path opacity=".31" fill="#231F20" d="M210.6 403s-5 38-17.3 46.9c-12.3 8.9 12.8-25.7 11.7-40.2M397.8 414.2s5 38 17.3 46.9c12.3 8.9-12.8-25.7-11.7-40.2"/><g fill="#FFF"><path d="M236.8 356.5c-.2.2-.4.4-.4.7s-.1.6-.2.9-.2.5-.4.7-.5.3-.9.3c-.1.1-.1.2-.1.2s.1.1.2.3c-.3 0-.6 0-.7.1s-.3.2-.5.2c-.5-.2-1-.5-1.4-.9s-.7-.9-.9-1.4-.5-1-.7-1.6-.4-1-.6-1.4c0-.1 0-.1.1-.1h.2c-.1-.2-.2-.5-.3-.8s-.2-.5-.3-.7c.7-1.5 1.4-3 2.2-4.6s1.6-3.2 2.3-4.8 1.6-3.3 2.4-4.9 1.5-3.3 2.3-4.9c.7.2 1.3.5 1.9.8s1.2.7 1.7 1.1 1 .9 1.3 1.5.6 1.2.7 1.9c0 .1-.1.2-.2.1s-.1 0-.2.1c.1.1.2.2.2.3v.4c0 .1.1.2.2.4-.1 0-.2 0-.2.1s-.1.1-.2 0c.1.3.2.6.1.8s-.1.4-.2.5-.2.3-.2.5 0 .4.1.7c-.1 0-.2 0-.2.1s-.1.1-.1.1l-.1.1h-.2c.1.6.1 1.2.1 1.8s0 1.3-.1 1.9 0 1.3 0 2 .1 1.4.3 2.1c1-.6 1.8-1.3 2.4-2.3s1.1-2 1.5-3.1.6-2.4.8-3.7.4-2.6.6-4c.3-.3.5-.6.6-.9s.3-.8.4-1.2l.3-1.2c.1-.4.3-.8.4-1.1.4 0 .8.2 1.1.4s.6.4.8.7.5.5.8.7.6.4 1.1.4c.3.5.6.9.9 1.4s.5.9.6 1.5c-.1.2-.2.5-.3.8s-.1.6-.2.8-.2.5-.3.8-.3.4-.6.6c-.1.7-.2 1.4-.3 2s-.3 1.2-.4 1.8l-.3 1.8c-.1.6-.1 1.3-.1 2.1-.2.7-.4 1.4-.7 2.1s-.4 1.4-.6 2c-.4.4-.8.8-1.1 1.3s-.5 1-.8 1.5c-.1.1-.2.1-.2.1s-.1-.1-.3-.1c0 .2 0 .3-.1.4s-.1.2 0 .5c-.4.2-.8.4-1.1.7s-.6.6-1 .8-.8.4-1.3.5-1.1 0-1.9-.3c-1.1-.8-2.2-1.8-3.1-2.9s-1.6-2.4-2.2-3.9c-.2.1-.4.2-.5.5s-.2.5-.3.7-.2.5-.3.7-.2.3-.4.3c0 .2-.1.4-.3.6s-.3.4-.4.5-.2.4-.3.6 0 .2.1.5zM263.5 359.9c-1 .1-2 .1-2.8-.1s-1.6-.6-2.3-1.1-1.2-1.1-1.7-1.8-.9-1.4-1.2-2.2c-.2-1.6-.2-3 .2-4.3s.8-2.5 1.4-3.6 1.4-2.1 2.2-3.1 1.6-1.9 2.3-2.8c.2.1.3.1.4 0l.3-.3c.1-.1.2-.2.3-.4s.2-.2.4-.2c.1-.2.2-.4.4-.5s.3-.3.5-.4.3-.3.5-.4.3-.3.4-.5c.2 0 .4-.1.6-.2s.3-.2.5-.4.3-.3.5-.4l.6-.3v-.5c.5-.2.9-.5 1.1-.8s.5-.6.8-1.1h.6c.1 0 .4 0 .7-.1.2-.4.4-.7.6-.9s.5-.4.8-.6c.4.2.7.3 1.1.3s.8.2 1.1.5c0 .3.1.5.2.7s.3.3.5.4.3.3.5.4.3.3.3.6c.1 0 .2 0 .2-.1s.1-.1.2 0c0 .2.1.3.1.5s.1.2.2.3.1.2.2.3.1.3.2.4l-.3.9c-.1.3-.3.5-.6.7 0 .2.1.3.2.3s.2.1.2.3c0 .2 0 .4-.1.5.7 1.1 1.3 2.3 1.8 3.5s1.1 2.4 1.8 3.5c0 .3 0 .7.1 1l.3.9c.1.3.3.6.4.9s.2.6.2.9v1.3c0 .5-.1.9-.3 1.3s-.3.8-.6 1.2-.5.6-.8.8c-.4.5-.8.8-1.4 1.1s-1.1.6-1.5 1c-.3.2-.7.3-1.1.4l-1.2.3c-.3.2-.7.4-1.1.5s-.9.3-1.3.5-.9.3-1.3.3-.8.1-1.2.1c-.8.3-1.7.5-2.5.6s-1.5.1-2.6-.1zm.5-12.8c-.2.5-.5 1-.8 1.5s-.6.9-.9 1.3-.6.9-.8 1.4-.3 1.1-.4 1.8c.5.4 1 .6 1.7.7s1.3.1 2 0 1.4-.1 2-.3 1.3-.2 1.8-.2c0-.2.1-.3.3-.3 1-.1 1.9-.4 2.7-.8s1.7-.9 2.6-1.4c.1-.3.3-.5.5-.7s.3-.5.3-.9c-.1-.2-.2-.4-.2-.5s-.1-.4-.1-.6c-.6-.8-1.1-1.8-1.6-2.8s-1-1.9-1.5-2.8c0 .1-.1.2-.3.4s-.3.1-.5-.1c-.1.2-.2.4-.3.5s-.3.1-.5.1-.4 0-.5-.1-.3-.2-.5-.3c-.8.7-1.6 1.3-2.4 1.9s-1.5 1.3-2.2 2.1c-.1.1-.2.1-.2.1h-.2zM285.3 360.1c-.7-.2-1.2-.4-1.6-.8s-.6-.8-.8-1.4-.3-1.1-.4-1.7-.1-1.3-.2-2c.1-.3.2-.6.4-.8s.2-.5.2-.9c.3-.8.5-1.5.7-2.2s.4-1.4.4-2.2c.1-.2.3-.4.4-.4.2-1.3.2-2.7.1-4.1s-.4-2.7-.7-3.9c0-.3.1-.5.1-.6v-.3c0-.2 0-.3.2-.3h.6c0-.4-.1-.8-.2-1.2s-.3-.9-.4-1.4c.2-.4.3-.8.4-1.2s.2-.8.4-1.1c.8.2 1.5.5 2.2.8l2.1.9c.7.3 1.4.6 2.1.8s1.3.5 2 .7c1 .7 2 1.4 3.1 2.2s2 1.5 2.9 2.4 1.6 1.8 2.2 2.9.9 2.4 1 3.9c0 .1-.1.3-.1.4s0 .2-.1.3 0 .2 0 .3v.5c-.8 1.5-1.9 2.7-3.2 3.7s-2.7 1.9-4.2 2.7-3.1 1.5-4.8 2.1-3.2 1.2-4.8 1.9zm3.5-19.9c-.2 0-.4 0-.5.1.3 1.1.5 2.1.6 3s.2 1.9.2 2.8 0 1.9-.2 2.9-.3 2.1-.5 3.2c.3 0 .6-.1.8-.2s.5-.2.7-.3.5-.2.8-.3.6-.2.9-.2c.1-.2.2-.3.4-.4s.3-.2.4-.3c.6-.2 1.2-.5 1.8-.7s1.1-.6 1.6-.9.9-.7 1.3-1.1.7-.9 1-1.5c-.2-.4-.4-.7-.7-.9s-.6-.5-.8-.7-.6-.5-.8-.8-.5-.6-.7-.9c-.4 0-.7-.1-1-.3s-.6-.3-.8-.5-.5-.3-.8-.4-.6-.2-1-.2c-.6-.3-1.2-.6-1.7-.7s-.8-.5-1-.7zM304.7 358.6c-.2-.2-.3-.4-.4-.7s-.3-.5-.6-.6c0-.4-.1-.8-.2-1.2s-.2-.9-.2-1.4-.1-1-.2-1.4 0-.9.1-1.3c0-.2.1-.4.2-.6s.2-.4.3-.5.2-.4.2-.5.1-.4 0-.6c.1 0 .2-.1.3-.2s.1-.2.3-.1c.2-.5.3-1 .5-1.4s.4-.9.6-1.3.4-.8.7-1.3.4-.9.6-1.5c-.4-.4-.7-.8-.9-1.2-.2-.4-.3-.9-.4-1.3s-.2-.9-.2-1.4-.1-.9-.3-1.4c.3-.4.6-.8 1-1 .4-.3.8-.5 1.3-.7s1-.3 1.6-.4 1.2-.2 1.8-.4c1.1-.4 2.1-.6 3-.8s1.8-.4 2.6-.5 1.7-.2 2.6-.4 2-.3 3.2-.5c0 .1.1.1.1.1h.2c.1.2.2.2.4.2v-.2-.2h.2c.1 0 .2 0 .2.1s.1 0 .2 0 .1-.1 0-.2c.3.5.6.9 1.1 1.2s.9.6 1.5.8v.5c0 .1 0 .2-.1.3s0 .2 0 .3 0 .3.1.4c-.4.6-.8 1.1-1.3 1.5s-1 .6-1.5.8-1.1.3-1.7.4l-1.8.3c-.6.1-1.2.3-1.9.4s-1.3.5-1.9.8c-.2-.1-.4-.1-.5-.1s-.3 0-.5.1-.3.1-.5.1h-.7c-.2.2-.4.3-.7.4s-.5.1-.8.2c.1.3.2.5.2.8s0 .5.1.7c1 .1 2.1.1 3.3 0s2.4-.2 3.5-.2v.2s-.1.1-.1.2c.2.1.4.3.6.5l.6.6c.2.2.4.4.6.5s.5.2.7.2c.1.2.2.5.2.7s0 .5-.1.8c-.5.3-.9.6-1.4.9s-.9.6-1.4.9-1 .5-1.6.6-1.2.2-1.8.2h-.3c-.1 0-.2 0-.3-.1-.2.1-.5.2-.9.1s-.7 0-1 .1c-.3-.1-.7-.2-1.1-.2s-.8-.1-1.1-.2c-.4.6-.8 1.2-1.2 1.9s-.7 1.4-1 2.1c1 .1 1.8.2 2.4.2s1.2-.1 1.8-.1 1.1-.1 1.7-.2 1.3-.1 2.2-.1c.6-.3 1.3-.5 2-.6s1.5-.3 2.1-.5c.2.1.4.2.6.4s.3.4.5.6.3.4.5.5.4.2.6.1c.1.1.2.3.2.4s.1.3.1.5.1.3.2.3.2.1.4.1c-.4.9-.9 1.6-1.5 2.1s-1.2.9-1.9 1.1-1.5.5-2.3.6-1.8.3-2.9.5h-.7c-.2 0-.4-.1-.5-.1-.7.1-1.4.2-2.3.4s-1.8.2-2.7.1-1.8-.1-2.6-.4c-.8.1-1.5-.3-2-.8zM330.4 355.6c0 .2.1.4.1.5s.1.3.1.5c-.1.2-.2.5-.2.7s-.1.4-.2.7c-.1.2-.1.3-.1.3v.5l-.1.4c-.1.2-.3.3-.4.4s-.3.2-.5.2c0 0-.1.1-.2.1s-.2.1-.2.1l-.1.4-.5.1c-.4.1-.7.1-1 .1h-.4c-.3-.3-.5-.5-.7-.6s-.3-.3-.5-.4c-.2-.3-.4-.6-.4-.7s-.1-.3-.1-.4c0-.3-.1-.5-.2-.6l-.5-.5.4-.3-.4-.7c.3-.2.5-.4.6-.5s.3-.2.4-.3.2-.2.3-.4.3-.4.6-.8l.3-.5.5.2c.1.1.3.1.6.2s.6.1.8.2c.4.1.8.2 1.1.3s.6.2.8.4l.1.4zM345 359.1c-.4 0-.7.1-1 .2s-.6.2-1 .2c-.1 0-.3.1-.4.1s-.3.1-.5.1c-.4-.1-.8-.2-1.2-.2s-.7-.1-1-.1l-.5-.1c-.3-.1-.5-.2-.6-.2s-.3-.1-.4-.1-.3-.1-.5-.1-.4-.1-.8-.1c-.4.2-.8.2-1.2.2-.3 0-.5 0-.8-.1s-.6-.2-.8-.5-.6-.6-.8-1-.5-1-.7-1.7c.1-.5.2-1 .2-1.4s.2-.7.3-.9l.3-.3c.4-.2.9-.2 1.4-.2.5 0 1 .1 1.5.2s1 .3 1.5.5c.2.1.4.2.5.2s.2.1.2.1H339.6c.1 0 .2 0 .3-.1h.4c.2.1.4.1.6.1.2 0 .3 0 .5-.1s.4-.1.5-.1c.2-.1.4-.1.5-.1s.3-.1.4-.1l.4-.3c.2-.1.4-.2.5-.3s.2-.3.3-.4.2-.3.3-.5.2-.3.3-.5c.1-.1.2-.3.3-.4s.2-.3.3-.4v-.4c.4-.9.7-1.7 1-2.6s.5-1.8.7-2.7.4-1.8.5-2.6.3-1.6.4-2.3h-2.1c-.4 0-.9.1-1.2.1s-.8.1-1.2.2-.9.2-1.6.3l-.6.1c-.4.2-.9.4-1.3.6s-.8.3-1.3.3c-.7 0-1.3-.3-1.8-.8-.5-.3-.8-.8-.9-1.4-.1-.2-.2-.4-.1-.6-.1-.3-.1-.6-.2-.9s0-.5 0-.8v-.6h.5l.3-.3c.1-.1.1-.2.1-.2l.1-.4h.4c.5-.1 1-.2 1.5-.2s1-.2 1.6-.3c.5-.1 1-.2 1.4-.2s.8-.1 1.1-.2.7-.1 1.1-.1h2.3c.1-.1.2-.2.3-.2h.2c.2 0 .3 0 .4.1s.1 0 .2.1c.8-.1 1.5-.2 2.2-.3s1.3-.1 1.8-.1H356.4c.1 0 .2 0 .4.1.4.1.8.1 1.1.2s.7.1 1 .1h.7l.1.4.3.5c.1.1.2.3.3.4l.4.4c.3.3.6.6.8 1s.4.9.3 1.7l-.3.4c-.1 0-.2.1-.3.2s-.2.2-.3.2l-.4.3c-.3 0-.6 0-.8.1s-.4 0-.7 0h-1.3c-.5 0-.9 0-1.4-.1h-2.9c0 .8-.1 1.4-.3 2s-.3 1.1-.5 1.7c-.4 2.3-1 4.5-1.6 6.5s-1.4 3.9-2.2 5.5l-2.1 2.1c-.6.6-1.4 1.1-2.3 1.3h.6z"/><path d="M358 343.9c.1-.4.1-.6.1-.9s-.1-.5-.2-.7c.1-.4.2-.7.2-.9s.1-.5 0-.9c.2-.6.5-1.1 1-1.5s.9-.8 1.4-1.1 1.1-.5 1.6-.7 1.1-.4 1.6-.5c0-.1 0-.1-.1-.1s-.1-.1-.1-.2c1.3-.2 2.5-.6 3.8-1l3.9-1.2c1.3-.4 2.7-.6 4.1-.7s2.9.1 4.4.5c.1.3.2.6.4.8s.3.5.5.8.3.5.5.7.2.5.2.7c.3.3.5.5.7.8s.2.7.1 1.2c-.3.2-.5.4-.8.6s-.6.4-.9.5c-1.1-.3-2.1-.4-3.2-.3s-2 .2-2.8.2c-.3-.3-.6-.4-.9-.4s-.7.1-1.1.2-.8.2-1.1.3-.7.1-1.1.1c-.3.2-.6.4-1 .5s-.9.1-1.3.2c0 .1 0 .2.1.2s.1.1 0 .3c.2.2.4.4.7.4s.6.2.9.2.6.2.8.3.4.3.5.6c.4 0 .8.1 1.1.3s.6.4.8.7.4.6.5.9.1.6.1.9c.1.2.2.3.3.3s.2 0 .4.2c.1.4.3.7.7 1.1s.6.8.8 1.2c0 .7.1 1.3.1 1.9s-.1 1.1-.3 1.7c-.4 1-1 2-1.7 2.8s-1.6 1.5-2.5 2.2-2 1.2-3 1.6-2.1.8-3.1 1.1h-.3c-.1 0-.2 0-.1-.2-.2.2-.5.3-.7.4s-.6.1-.9.1-.6 0-.9-.1-.6 0-.9 0c-.2-.2-.4-.4-.5-.6s-.3-.4-.4-.7c-.1 0-.2-.1-.2-.2s0-.2-.2-.2v-.2s0-.1.1-.1c.1-.1.1-.1.1-.2s0-.1-.1-.1-.1-.1-.2-.1-.1-.1-.1-.2c.1-.2.2-.5.1-.8s-.1-.6-.1-.9 0-.6.1-.9.3-.5.6-.7c1 .1 1.9 0 2.7-.1s1.7-.4 2.4-.8 1.5-.7 2.2-1.1 1.4-.7 2-1.1l.3-.6c.1-.2.3-.3.5-.5l.5-.5c.2-.2.2-.4.3-.7v-.2l-.1-.1-.1-.1s-.1-.1-.1-.2c-.1 0-.1 0-.2-.1s-.1 0-.2 0c-.6-.3-1.3-.6-1.9-.8s-1.3-.4-1.7-.7c-.3.2-.6.2-.8.1s-.6-.2-1-.3c-1 0-1.9-.1-2.8-.3s-1.7-.4-2.5-.7c0-.1-.1-.3-.2-.4s-.2-.1-.5-.1c-.2-.2-.3-.5-.5-.7s-.6.1-.8-.2z"/></g></svg>