<?xml version="1.0" encoding="utf-8"?>
<!-- Generator: Adobe Illustrator 25.0.0, SVG Export Plug-In . SVG Version: 6.00 Build 0)  -->
<svg version="1.1" id="Layer_1" xmlns="http://www.w3.org/2000/svg" xmlns:xlink="http://www.w3.org/1999/xlink" x="0px" y="0px"
	 viewBox="0 0 303 377" enable-background="new 0 0 303 377" xml:space="preserve">
<path fill="#0083CA" d="M154,16.6c0,0-47.7,0-51.9-12.6L63.6,16.6c0,0-26.8,7.5-29.3,18.4c0,0-5.6,7.3-10.6,55.8
	c0,0-10.3,74-8.6,83.2c0,0-2.5,24.3-2.5,31.8c0,0-4.2,64.5-4.2,77c0,0-2.5,34.3,0,40.2c0,0,1.7,15.9,7.5,19.3c0,0,2.5,20.9,1.7,24.3
	c0,0,15.9,7.5,31,0.8c0,0,0.8-21.8,3.4-26c0,0,6.3-14.5,7.4-33.6c0.2-2.9,0.2-6,0.1-9.1c0,0,3.4-0.8,4.5,10.3c0,0-3.4,14-2.2,15.6
	c1.1,1.7,34.1,5.6,41.3,2.8c0,0,17.9-4.5,24-3.4c0,0,17.3,0.6,26.2,0"/>
<path fill="#6D6E71" d="M154.6,15.7c-5.3,0-10.6-0.3-15.8-0.7c-9-0.7-18.5-1.7-27-5c-3.1-1.2-7-3-8.1-6.3c-0.2-0.6-1.2-0.6-1.7-0.4
	c-12.1,3.9-24.2,7.9-36.4,11.9c-3.9,1.3-7.9,2.5-11.8,4c-4.2,1.7-8.5,3.7-12.3,6.2c-3.2,2.1-6.7,4.8-8.2,8.6c-0.6,1.6-1.4,3.3-2,4.9
	c-2,5.7-3.2,11.8-4.3,17.8c-2.9,15.6-4.3,31.4-6.4,47.2c-2.3,17-4.5,34.1-6.1,51.2c-0.6,5.9-1.3,12-1,17.9c0.1,1.6,0,2.8-0.2,4.8
	c-0.4,4.5-0.9,9-1.2,13.5c-1,12.2-1.5,24.5-2.3,36.7c-1.1,17.1-2.2,34.3-2.8,51.4c-0.4,13.3-2.1,26.8-0.9,40.1
	c0.2,2.1,0.8,4.1,1.1,6.1c0.6,4.2,1.6,8.5,3.4,12.4c0.8,1.7,1.9,3.8,3.5,4.8c0.1,0.1,0.6,0.6,0.4,0.2v0.4c0.1,0.5,0.1,1,0.2,1.5
	c0.5,4,0.9,8.1,1.2,12.1c0.3,3.2,0.9,6.9,0.2,10.1c-0.1,0.2,0.1,0.5,0.3,0.6c10,4.7,22.6,5.1,32.7,0.8c0.3-0.1,0.8-0.5,0.9-0.9
	c0.3-7.3,0.6-14.7,2.1-21.9c0.4-2.2,1.3-4.1,2.1-6.2c1.7-4.6,3.1-9.3,4.1-14c1.9-8.7,2.9-17.6,2.6-26.5c-0.4,0.3-0.8,0.7-1.2,1
	c0.1,0-0.6,0.1-0.6,0.1c0.1-0.1,0-0.1,0,0c0,0,0.6,0.5,0.8,0.7c1.5,1.7,1.9,4.5,2.2,6.6c0.3,1.9,0.1,2.9-0.3,4.7
	c-0.5,2.2-0.9,4.4-1.3,6.6c-0.4,2.1-1.8,6.7,0.9,7.7c3,1.1,6.5,1.4,9.7,1.8c5,0.7,10,1.1,15,1.4c4.5,0.2,9.1,0.5,13.6-0.1
	c0.8-0.1,1.5-0.2,2.3-0.4c0.3-0.1,0.6-0.1,0.9-0.2c0.8-0.2,0.1,0,0.4-0.1c1.3-0.3,2.6-0.6,3.8-0.9c5-1.1,10-2.1,15.1-2.5
	c3.6-0.2,7.5,0.2,11.1,0.3c6.5,0.1,13.1,0.2,19.6-0.2c1.5-0.1,2.3-2,0.3-1.8c-9.1,0.5-18.8,0.1-27.6-0.2c-7.9-0.3-16.4,2-23.9,3.9
	c-3.7,1-7.9,0.7-11.8,0.5c-5.2-0.2-10.4-0.6-15.6-1.3c-3.6-0.4-7.3-0.8-10.7-1.8c-0.4-0.1-0.6-0.1-0.8-0.3c0.1,0.2,0-1,0-1.2
	c0-2.1,0.5-4.3,0.9-6.3c0.4-2.2,0.9-4.5,1.4-6.7s-0.2-4.8-0.8-6.9c-0.7-2.3-2.1-5.6-5.1-4.9c-0.4,0.1-1.2,0.5-1.2,1
	c0.4,13.4-1.8,26.9-6.3,39.5c-0.7,2-1.7,3.9-2.2,5.9c-1.1,4.3-1.4,8.9-1.8,13.4c-0.3,3.3-0.5,6.6-0.6,9.9l0.9-0.9
	c-9,3.9-20.4,3.3-29.2-0.9l0.3,0.6c0.7-3.2,0-7-0.2-10.1c-0.3-4.1-0.7-8.1-1.2-12.2c-0.1-0.6,0-1.7-0.3-2.3
	c-0.3-0.6-1.4-1.1-1.9-1.7c-0.7-0.8-1.3-1.8-1.8-2.8c-1.9-3.9-2.9-8.3-3.5-12.5c-0.3-2-0.9-4-1.1-6.1c-0.4-4-0.4-8.1-0.3-12.2
	c0.1-7.6,0.5-15.2,1-22.7c0.3-4.9,0.3-9.8,0.6-14.7c0.4-9,0.9-18.1,1.5-27.1c0.5-8.5,1-17,1.6-25.6c0.2-3.8,0.6-7.6,0.7-11.5
	c0.2-9,1.2-17.9,2.1-26.8c0.2-1.8,0.4-3.5,0.3-5.3c-0.2-2.2,0-4.4,0.1-6.6c0.9-16.6,3.2-33.2,5.3-49.8c1.7-13.4,3.4-26.8,5.1-40.1
	c1.3-9.9,2.7-19.9,5-29.7c0.9-3.6,1.7-7.3,3.3-10.5c0.1-0.3,0.4-0.6,0.5-0.9c0.7-1.6,1.2-3,2.4-4.4c1.4-1.6,3.1-2.9,4.9-4.1
	c6.2-4.1,13.3-6.8,20.4-9C75.2,14.8,86.7,10.8,98.3,7c1.4-0.5,2.9-0.9,4.3-1.4c-0.6-0.2-1.1-0.3-1.7-0.4c1.1,3.1,4.1,5,6.8,6.3
	c4,1.9,8.3,2.9,12.5,3.8c9,1.8,18.1,2.5,27.2,2.9c2.1,0.1,4.2,0.1,6.2,0.1c0.6,0,1.6-0.2,1.9-0.8C155.6,16.1,155.2,15.7,154.6,15.7
	L154.6,15.7z"/>
<path fill="#0083CA" d="M149.6,16.6c0,0,47.7,0,51.9-12.6L240,16.6c0,0,26.8,7.5,29.3,18.4c0,0,5.6,7.3,10.6,55.8
	c0,0,10.3,74,8.6,83.2c0,0,2.5,24.3,2.5,31.8c0,0,4.2,64.5,4.2,77c0,0,2.5,34.3,0,40.2c0,0-1.7,15.9-7.5,19.3c0,0-2.5,20.9-1.7,24.3
	c0,0-15.9,7.5-31,0.8c0,0-0.8-21.8-3.4-26c0,0-6.3-14.5-7.4-33.6c-0.2-2.9-0.2-6-0.1-9.1c0,0-3.4-0.8-4.5,10.3c0,0,3.4,14,2.2,15.6
	s-34,5.6-41.3,2.8c0,0-17.9-4.5-24-3.4c0,0-17.3,0.6-26.2,0"/>
<path fill="#6D6E71" d="M149,17.6c5.8,0,11.6-0.3,17.4-0.8c9.4-0.8,19.4-1.9,28.2-5.6c3.4-1.4,7-3.6,8.3-7.2c-0.8,0.3-1.5,0.7-2.3,1
	c12.1,3.9,24.1,7.9,36.2,11.8c3.9,1.3,7.8,2.5,11.6,4c4.2,1.7,8.4,3.7,12.1,6.2c1.7,1.2,3.4,2.5,4.8,4.1c1.3,1.4,1.8,2.9,2.6,4.7
	c0.2,0.5,0.2,0.4,0.4,0.7c0.5,1.1,1,2.3,1.4,3.5c2,6.1,3.3,12.6,4.4,18.9c2.7,15.3,4.2,30.9,6.2,46.3c2.2,17,4.5,34.1,6,51.2
	c0.5,5.6,1.4,11.4,0.9,17c-0.2,1.8,0.1,3.6,0.3,5.4c0.5,4.6,0.9,9.1,1.2,13.7c1,12.1,1.5,24.2,2.2,36.3c1,17,2.2,33.9,2.7,50.9
	c0.1,4.8,0.5,9.5,0.7,14.3c0.4,8.5,1,17.2,0.1,25.7c-0.2,2.1-0.8,4.1-1.1,6.1c-0.7,4.3-1.6,8.8-3.7,12.7c-0.4,0.8-0.9,1.6-1.6,2.3
	c-0.6,0.6-1.6,1.1-1.9,1.8c-0.3,0.7-0.2,1.7-0.3,2.4c-0.5,4.1-0.9,8.2-1.2,12.3c-0.2,3.1-0.9,6.7-0.2,9.8c0.3-0.4,0.6-0.7,0.9-1.1
	c-5.4,2.5-11.7,3.6-17.6,3.4c-2.6-0.1-5.1-0.5-7.6-1.1c-0.6-0.2-1.2-0.4-1.9-0.6c-0.3-0.1-2-0.6-1.9-0.5c-0.1-0.1,0-0.3,0-0.5
	c-0.2-0.6-0.1-1.4-0.1-2c-0.1-1.3-0.1-2.6-0.2-3.9c-0.4-5.9-0.6-12.2-2.3-17.9c-0.4-1.2-0.8-1.9-1.2-3c-1-2.5-1.8-5-2.5-7.5
	c-3.2-10.9-4.8-22.3-4.5-33.7c0-0.4-0.2-0.6-0.6-0.7c-2.3-0.5-4.1,1.4-5,3.3c-1.1,2.3-2,5.7-1.8,8.3c0.1,1.2,0.5,2.4,0.8,3.5
	c0.5,2.3,1,4.6,1.3,7c0.2,1.3,0.2,3.6,0.4,4.5c0-0.2,0.4-0.2-0.1,0c-0.6,0.2-1.2,0.3-1.9,0.5c-1.9,0.4-3.8,0.7-5.6,1
	c-4.9,0.7-9.9,1.2-14.9,1.5c-4.6,0.3-9.3,0.5-13.8,0c-2.5-0.3-4.9-1.1-7.4-1.7c-5-1.1-10.1-2.1-15.1-2.5c-3.6-0.3-7.4,0.2-11,0.2
	c-6.6,0.1-13.3,0.2-19.9-0.1c-1.2-0.1-3,1.7-1.1,1.8c5.9,0.4,11.9,0.3,17.8,0.2c3.3,0,6.6-0.1,9.9-0.3c4.9-0.4,10.1,0.8,14.9,1.8
	c2.8,0.6,5.6,1.3,8.4,2c3.8,0.9,8,0.8,11.9,0.6c5.2-0.1,10.5-0.6,15.7-1.2c3.9-0.5,7.8-0.9,11.6-1.8c0.9-0.2,2-0.5,2.8-1
	c1.1-0.9,0.9-2.5,0.8-3.7c-0.2-2.5-0.7-5.1-1.2-7.6c-0.4-1.7-1-3.5-1.1-5.2c-0.1-1.4,0.4-3.1,0.7-4.5c0.3-1.3,0.6-2.6,1.3-3.7
	c0.2-0.3,0.3-0.5,0.5-0.8s0.3-0.3,0.3-0.2c0,0-0.4,0.1-0.7,0c-0.2-0.2-0.4-0.5-0.6-0.7c-0.4,13.4,1.8,27,6.3,39.6
	c0.7,2,1.7,3.9,2.2,5.9c1.1,4.3,1.4,8.9,1.8,13.3c0.3,3.3,0.5,6.7,0.6,10c0,0.2,0.2,0.3,0.3,0.4c10.1,4.4,22.7,3.8,32.7-0.9
	c0.4-0.2,1-0.6,0.9-1.1c-0.4-1.7-0.1-3.6-0.1-5.3c0.1-2.7,0.4-5.4,0.6-8c0.3-3.6,0.7-7.1,1.1-10.7c-0.2,0.2-0.4,0.5-0.5,0.7
	c3.4-2.1,5-6.4,6.1-10c1-3.2,1.4-6.4,2-9.7c0.3-1.9,0.9-4.5,1-6.8c0.2-4.1,0.2-8.1,0.1-12.2c-0.2-6.9-0.5-13.8-1-20.7
	c-0.3-4.3-0.3-9.4-0.5-14c-0.8-16.8-1.8-33.6-2.9-50.4c-0.7-11.8-1.3-23.6-2.4-35.4c-0.3-3.1-0.6-6.3-0.9-9.4
	c-0.1-0.7,0-0.5,0.1-1.3c0.1-0.9,0.1-1.8,0.1-2.6c0-6.2-0.7-12.4-1.3-18.5c-1.6-16.2-3.7-32.4-5.8-48.5c-1.9-14.5-3.3-29.2-5.8-43.6
	c-1.1-6.5-2.3-13.1-4.3-19.5c-0.6-2-1.5-3.8-2.3-5.7s-1.6-3.6-3.1-5.3c-2.9-3-6.6-5.2-10.3-7.1c-5.3-2.7-10.8-4.7-16.4-6.4
	c-11.6-3.6-23.1-7.5-34.6-11.3c-1.3-0.4-2.6-0.8-3.9-1.3c-0.8-0.3-2,0.2-2.3,1c-1,2.8-4.1,4.4-6.6,5.5c-3.9,1.7-8.2,2.7-12.4,3.4
	c-8.4,1.5-17,2.2-25.5,2.5c-1.9,0.1-3.6,0.1-5.5,0.1c-0.6,0-1.6,0.2-1.9,0.8C148,17.2,148.4,17.6,149,17.6L149,17.6z"/>
<path fill="#FFFFFF" stroke="#58595B" stroke-miterlimit="10" d="M61.6,299.1c0,0,4.5,5.6,2.8,12.3l-2.2,12.8c0,0,23.4,5,36.8,2.8
	c0,0,18.4-3.9,22.9-3.9c0,0,25.7,1.1,29.6,0c0,0,30.1,1.1,34,1.1c0,0,11.7,2.4,15.1,2.4c0,0,32.9,3.2,40.7-3c0,0-5.2-21.8,0.9-26.8
	c0,0-27.5,5.2-38,2.2c0,0-26-3-32.7-0.7c0,0-9.3,1.1-31.3,2.2c0,0-13-1.5-29.8-1.1c0,0-13.8,0.2-21.6,0.2
	C89,299.6,66.1,305.8,61.6,299.1L61.6,299.1z"/>
<path fill="#FFFFFF" stroke="#58595B" stroke-width="1.017" stroke-miterlimit="10" d="M16.1,342.4c0,0,2-0.4,6.3-0.7
	c0,0,9.8-0.4,16.9,1.1c0,0,8.2,0.7,12.9-1.8c0,0-2.8,5.8-2.8,12.8L49,368c0,0-16.5,4.8-30.6-1.5C18.4,366.5,18.8,351.9,16.1,342.4
	L16.1,342.4z"/>
<path fill="#FFFFFF" stroke="#58595B" stroke-width="1.041" stroke-miterlimit="10" d="M288.1,340c0,0-2.1-0.4-6.7-0.8
	c0,0-10.4-0.4-17.9,1.2c0,0-8.8,0.8-13.8-1.9c0,0,2.9,6.2,2.9,13.6l0.4,15.1c0,0,17.5,5,32.5-1.5C285.6,365.5,285.1,350,288.1,340
	L288.1,340z"/>
<path fill="#6D6E71" d="M25.7,61.8c3.7,1.7,7.1,4.2,10.2,6.7C43,74.3,49,81.7,52.6,90.2c1.8,4.1,3.1,8.6,3.7,13.1
	c0.3,2.3,0.5,4.6,0.7,6.9c1.1,10.7,1.8,21.5,2.2,32.3c0.2,6.6,0.3,13.1,0.1,19.7c-0.1,2.5-0.1,4.9-0.4,7.4
	c-0.6,4.8-1.2,9.6-1.8,14.5c-2.2,18.7-4.1,37.5-5,56.4c-0.5,9.4-0.8,18.9-0.4,28.3c0.1,3.2,0.7,6.5,0.7,9.6c0,4.5,0.6,8.9,1.8,13.3
	c0.9,3.5,2.2,7,3.8,10.2c0.3,0.7,3.1-0.3,2.9-0.8c-2.9-6-4.8-12.5-5.4-19.1c-0.1-1.5-0.2-3-0.2-4.5c0-1.3-0.2-2.6-0.3-4
	c-0.7-8.9-0.6-17.9-0.3-26.8c0.7-19.4,2.5-38.8,4.7-58.1c0.7-5.9,1.4-11.8,2.2-17.8c0.9-6.6,0.8-13.2,0.8-19.8
	c-0.1-11.9-0.8-23.9-1.9-35.8C60,109,59.6,102.7,58,96.7c-4-14.9-15.1-28.1-28.8-35.3c-0.2-0.1-0.5-0.3-0.8-0.4
	c-0.5-0.2-1.3,0-1.9,0.2C26.4,61,25.2,61.6,25.7,61.8L25.7,61.8z M272.4,52.7c-3.9,1.9-7.6,4.5-11,7.3c-7.4,6.1-13.5,13.9-17.2,22.8
	c-1.6,4-2.9,8.3-3.4,12.6c-0.3,2.6-0.6,5.2-0.8,7.8c-1.1,11.5-1.9,23-2.2,34.5c-0.2,6.8-0.2,13.5,0.1,20.3c0.1,1.5,0.2,3,0.4,4.5
	c0.8,5.6,1.4,11.3,2.1,16.9c1.1,9.3,2,18.7,2.9,28c0.9,10.5,1.7,21.1,2.1,31.7c0.3,9.2,0.5,18.4-0.3,27.5c-0.1,1.2-0.4,2.5-0.2,3.7
	c0.1,1.4,0.3,2.8,0.3,4.2c0.2,5.4,0,10.9-1.1,16.2c-0.6,3-1.5,6-2.9,8.8c-0.7,1.4,2.2,1.2,2.7,0.2c4.4-9,4.9-19.9,3.9-29.8
	c-0.1-1.1,0.1-1.9,0.2-3c0.2-2,0.3-4,0.4-6c0.2-4.6,0.2-9.2,0.2-13.8c-0.1-10.4-0.8-20.7-1.5-31.1c-0.8-10-1.7-19.9-2.8-29.8
	c-0.8-7-1.6-14-2.5-21c-0.2-1.6-0.4-3.3-0.6-5c-0.5-3.5-0.4-7.1-0.4-10.6c-0.2-12.8,0.5-25.5,1.5-38.2c0.5-6.1,0.8-12.4,1.9-18.5
	c2-10.5,7.2-20,14.6-27.6c2.6-2.7,5.5-5.2,8.6-7.3c1.1-0.8,2.2-1.5,3.4-2.2c0.4-0.3,0.9-0.5,1.3-0.8c-0.2,0.1,0.1-0.1,0.3-0.1
	c0.2-0.1,0.3-0.2,0.5-0.3c0.3-0.1,0.5-0.3,0.8-0.4c0.5-0.2,1.1-0.8,0.7-1.4C273.9,52.3,272.9,52.5,272.4,52.7L272.4,52.7z"/>
<path fill="none" stroke="#FFFFFF" stroke-miterlimit="10" d="M151.9,41.9c-50.6-3-50.6-38.1-50.6-38.1L89,7.7
	c0,0,8.6,44.3,62.5,43.2"/>
<path fill="#FFFFFF" d="M151,16.6C106,16,102.7,4.9,102.7,4.9L90.1,8.8c0,0,12.1,17.3,61.5,16.2"/>
<path fill="#6D6E71" d="M151.6,15.8c-11.8-0.2-24-0.7-35.4-4.1c-3.9-1.2-8.5-2.8-11.3-6c-0.2-0.2-0.3-0.4-0.4-0.6
	c-0.1-0.1-0.1-0.2-0.1-0.2c-0.1-0.1,0.1,0.2,0-0.1c-0.1-0.1-0.1-0.2-0.2-0.4C104,3.8,103,4,102.6,4.1L90,8c-0.4,0.1-1.6,0.6-1.2,1.2
	c1.8,2.5,4.7,4.4,7.2,5.9c8.2,5,17.9,7.5,27.4,8.9c9.1,1.4,18.4,1.8,27.7,1.6c0.6,0,1.6-0.2,1.9-0.8c0.3-0.6-0.2-0.8-0.8-0.8
	c-14,0.3-28.5-0.6-42-5c-6-2-12.1-4.6-16.8-8.9c-0.7-0.6-1.4-1.3-2-2.1l-1.2,1.2l12.6-3.9c-0.5-0.1-1.1-0.2-1.6-0.3
	c0.5,1.8,2.6,3.2,4,4.1c6,3.9,13.7,5.3,20.7,6.3c8.1,1.2,16.3,1.6,24.4,1.7c0.6,0,1.6-0.2,1.9-0.8C152.7,16.1,152.1,15.9,151.6,15.8
	L151.6,15.8z"/>
<path fill="#FFFFFF" d="M151.6,16.6c45-0.6,48.3-11.7,48.3-11.7l12.6,3.9c0,0-12.1,17.3-61.5,16.2"/>
<path fill="#6D6E71" d="M151,17.3c12.2-0.2,25-0.8,36.8-4.4c4.4-1.3,9.5-3.1,12.5-6.7c0.4-0.4,0.8-1,1-1.6c-0.9,0.3-1.7,0.6-2.6,0.8
	l12.6,3.9c0-0.2-0.1-0.4-0.2-0.6c-1.6,2.3-4.1,3.9-6.5,5.4c-7.9,4.8-17,7.2-26.1,8.5c-8.9,1.4-18,1.7-27,1.5c-0.5,0-1.6,0.2-1.9,0.7
	c-0.3,0.6,0.3,0.7,0.7,0.7c14.4,0.3,29.3-0.6,43.1-5.1c6.4-2.1,13-4.9,18.1-9.5c0.8-0.7,1.6-1.4,2.2-2.3c0.2-0.2,0.2-0.5-0.2-0.6
	l-12.6-3.9c-0.7-0.2-2.4,0-2.6,0.8c0,0.1-0.1,0.2-0.1,0.3c-0.1,0.3,0,0.1-0.1,0.2c-0.1,0.2-0.2,0.3-0.3,0.4
	c-0.8,1.1-1.6,1.7-2.9,2.5c0.2-0.1-0.3,0.2-0.4,0.3c-0.2,0.1-0.5,0.3-0.7,0.4c-0.5,0.2-1.1,0.6-1.5,0.8c-1.2,0.6-2.7,1.1-4.1,1.6
	c-4,1.3-8.3,2.2-12.6,2.8c-7.8,1.1-15.7,1.5-23.6,1.6c-0.5,0-1.6,0.2-1.9,0.7C150,17.2,150.5,17.4,151,17.3L151,17.3z"/>
<path fill="#FFFFFF" d="M152.1,41.9c-50.4-3-50.4-38.1-50.4-38.1L89.5,7.7c0,0,8.5,44.3,62.3,43.1"/>
<path fill="#6D6E71" d="M152.5,40.8c-13.7-0.8-28.2-4.2-38.4-13.9c-5.4-5.1-9.1-11.8-10.6-19.1c-0.2-1.1-0.4-2.1-0.5-3.2V3.8
	c0-0.9-1-1.2-1.8-1C97.1,4.1,93,5.4,89,6.7c-0.6,0.2-1.3,0.7-1.2,1.4c1,5.4,3.5,10.6,6.3,15.3c6.3,10.7,16,19,27.6,23.7
	c9.4,3.8,19.7,5.1,29.8,4.9c1.7,0,2.2-2.3,0.2-2.2c-15.7,0.3-31.6-3.5-43.6-14c-7.1-6.1-12.6-14.2-15.8-23.1
	c-0.6-1.7-1.2-3.5-1.6-5.4c-0.4,0.5-0.8,1-1.2,1.4c4.1-1.3,8.2-2.6,12.2-3.9c-0.6-0.3-1.2-0.6-1.8-1c0,4.2,1.4,8.7,3.1,12.5
	c4.3,9.4,12.2,16.4,21.5,20.7c8.4,3.8,17.7,5.4,26.8,6c0.7,0,1.6-0.2,1.9-0.9C153.7,41.5,153.2,40.9,152.5,40.8L152.5,40.8z"/>
<path fill="#FFFFFF" d="M150.2,41.9c51.6-0.7,50.5-38.1,50.5-38.1l12.2,3.9c0,0-8.5,44.3-62.3,43.1"/>
<path fill="#6D6E71" d="M149.7,42.8c14.5-0.2,30.2-3.3,41-13.6c5.8-5.5,9.7-12.9,11-20.8c0.3-1.6,0.5-3.3,0.4-4.9
	c-0.8,0.4-1.5,0.8-2.3,1.2C203.9,6,208,7.3,212,8.6c-0.2-0.2-0.4-0.4-0.6-0.7c-1,5.1-3.3,10-5.8,14.4c-6,10.3-15,18.4-26,22.9
	c-9,3.7-18.8,5-28.5,4.8c-0.6,0-1.6,0.2-1.9,0.8s0.2,0.9,0.8,0.9c16.4,0.3,33.1-3.6,45.8-14.4c7.6-6.4,13.4-14.9,16.8-24.2
	c0.7-1.8,1.3-3.7,1.7-5.6c0.1-0.4-0.3-0.6-0.6-0.7c-4.1-1.3-8.2-2.6-12.2-3.9c-0.8-0.2-2.4,0.2-2.3,1.2V5c0,0.9-0.1,1.8-0.2,2.6
	c-0.4,3-1.2,5.9-2.3,8.8c-3.6,9-10.9,15.9-19.8,19.8c-8.2,3.6-17.2,4.8-26.1,4.9c-0.6,0-1.6,0.2-1.9,0.8
	C148.6,42.4,149.1,42.8,149.7,42.8z"/>
<path opacity="0.33" stroke="#6D6E71" stroke-miterlimit="10" enable-background="new    " d="M108,19.2c0,0,4.8,18.6,43.2,21.2
	c0,0,32,2.2,44.3-21.2c0,0-13,7.4-43.9,7.1C151.5,26.3,117.6,26.3,108,19.2z"/>
<path fill="#6D6E71" d="M152,202c7,0.1,14,0.3,21.1,0.4c11.5,0.2,22.9,0.5,34.4,0.8c2.1,0.1,4.2,0.1,6.2,0.2c0.6,0,1.3,0.1,1.9,0.1
	h0.4c0.3,0-0.2,0.1,0,0h0.4c-0.2-0.1-0.4-0.2-0.5-0.4c1.5,9.8,3.5,19.5,5.9,29.1c2,8.5,4.4,16.9,7.2,25.1c2.6,7.5,5.6,15,9.9,21.8
	c1.9,3,4,5.9,6.7,8.2c0.5,0.4,0.5,0.4,0.5,1c0,0.9-0.1,1.9-0.2,2.8c-0.4,3.1-1.6,6-3.6,8.4c0.3-0.2,0.5-0.4,0.8-0.5
	c-0.1,0.1-0.3,0.1-0.5,0.2c-0.1,0-0.1,0-0.2,0.1c-0.2,0.1,0.3-0.1,0,0l-0.9,0.3c-1.7,0.5-3.4,0.7-5.2,0.9c-2.9,0.3-5.9,0.2-8.8,0
	c-1.9-0.2-3.9-0.5-5.8-0.8c-1.6-0.3-3.3-0.9-5-1c-2.5-0.2-5.1-0.2-7.6-0.3c-4.9-0.2-9.9-0.3-14.8-0.4c-4.3-0.1-8.7-0.3-13.1,0.1
	c0.4,0.1,0.8,0.1,1.1,0.2c-0.5-0.6-2-0.6-2.7-0.7c-4.4-0.5-8.8-0.3-13.2,0c-5.2,0.3-10.4,0.7-15.6,1.1c-0.4,0-2.2,0.6-1.6,1.3
	l0.2,0.2l1.2-1.2c-3.8,0.8-7.8,0.6-11.6,0.5c-4-0.1-7.9-0.4-11.9-0.8c-4.9-0.4-9.7-0.5-14.6-0.5c-7.1,0.1-14.3,0.3-21.5,0.6
	c-0.8,0-1.6,0-2.4,0.1c-1.8,0.1-3.6,0.7-5.3,1c-5.2,1-10.5,1.4-15.7,0.9c-1.7-0.1-3.4-0.4-5-0.7c-0.8-0.2-1.6-0.2-2.1-0.5
	c-0.7-0.4-1.4-1.9-1.9-2.6c-0.8-1.3-1.4-2.6-1.9-4s-0.9-2.8-1-4.3c-0.2,0.3-0.4,0.5-0.6,0.8c4.4-3,7.1-8.1,9.4-12.7
	c3.4-6.8,6.1-13.9,8.6-21.1c4.9-14.1,9-28.6,12.6-43.1c0.8-3.2,1.6-6.4,2.3-9.6c-0.6,0.3-1.1,0.6-1.7,1c0.3,0,0.5-0.1,0.8-0.1h1.3
	c1.7-0.1,3.4-0.1,5.1-0.2c5.2-0.2,10.4-0.3,15.7-0.4c11.3-0.3,22.5-0.5,33.8-0.7c2.5,0,5.1-0.1,7.6-0.1c0.6,0,1.6-0.2,1.9-0.8
	c0.3-0.6-0.2-0.8-0.8-0.8c-7.1,0.1-14.2,0.3-21.3,0.4c-11.5,0.2-23,0.5-34.4,0.8c-2.1,0.1-4.1,0.1-6.2,0.2c-1,0-2.1,0-3.2,0.2
	c-0.5,0.1-1.5,0.3-1.7,1c-2,8.7-4.2,17.3-6.6,25.9c-4.2,15.2-8.8,30.5-15.4,44.9c-1.5,3.1-3,6.2-4.9,9.1c-1.3,2-3.1,4.3-4.8,5.5
	c-0.3,0.2-0.6,0.4-0.6,0.8c0.4,3.8,2.2,7.7,4.6,10.7c1.2,1.4,3.5,1.6,5.2,1.8c4.4,0.7,8.9,0.8,13.3,0.4c3.3-0.3,6.5-0.8,9.7-1.5
	c0.3-0.1,0.6-0.1,0.9-0.2c0,0,1.6-0.4,0.7-0.2h0.9c6.7-0.2,13.4-0.5,20.1-0.6c3.6-0.1,7.3-0.1,10.9-0.1c2,0,3.2,0.1,5.1,0.3
	c4.3,0.4,8.6,0.7,12.9,0.9c4.6,0.2,9.4,0.3,14-0.6c0.3-0.1,1.7-0.7,1.2-1.2l-0.2-0.2c-0.5,0.4-1,0.9-1.6,1.3
	c8.7-0.8,17.7-1.8,26.5-1.2c0.4,0,1.1,0.1,1.8,0.2c0.2,0,0.4,0.1,0.6,0.1c0.3,0.1-0.2,0,0.2,0c0.2,0,0.4,0.1,0.1,0
	c1,0.4,1.5,0.2,2.5,0.1c7.7-0.3,15.4,0.1,23.1,0.3l9,0.3c0.5,0,1,0,1.5,0.1c3.3,0.6,6.5,1.4,9.9,1.7c4.5,0.4,9,0.4,13.4-0.4
	c1.7-0.3,3.8-0.6,5.3-1.5c1.1-0.7,1.8-2.1,2.4-3.2c0.6-1.2,1.1-2.4,1.4-3.7c0.5-1.8,0.7-3.6,0.6-5.5c0-1.1-1.1-1.6-1.9-2.4
	c-1.1-1.1-2.1-2.2-3-3.5c-4.6-6-7.7-13.1-10.4-20.1c-3.1-8.1-5.6-16.5-7.8-24.9c-2.9-11.1-5.3-22.4-7.1-33.7c0-0.2-0.1-0.4-0.1-0.6
	s-0.4-0.3-0.5-0.4c-2.5-0.5-5.2-0.3-7.7-0.4c-5.2-0.2-10.4-0.3-15.7-0.4c-11.3-0.3-22.6-0.5-34-0.7c-2.6,0-5.2-0.1-7.7-0.1
	c-0.6,0-1.6,0.2-1.9,0.8C151,201.8,151.5,202,152,202L152,202z"/>
<path fill="#6D6E71" d="M87.2,204.4c0.8,1,1.7,1.9,2.5,2.9c0.5,0.6,1.1,1.2,1.6,1.9c0.2,0.2,0.3,0.5,0.5,0.6
	c0.4,0.3-0.2,0.2,0.1-0.2c-0.3,0.4-0.3,1.8-0.4,2.3c-0.8,4.9-1.8,9.9-2.9,14.8c-3.7,16.3-8.6,32.7-16.3,47.6
	c-4.1,7.9-9.2,15.7-16.2,21.3c-0.5,0.4-0.2,1,0.3,1.1c0.7,0.2,1.6-0.1,2.1-0.6c6.4-5,11.2-11.9,15.1-19c4.3-7.8,7.7-16.1,10.6-24.6
	c4.4-13,7.8-26.4,10.1-40c0.2-1,0.6-2.2,0.5-3.3c-0.1-0.9-1.4-2-2-2.6c-1-1.1-2-2.3-3-3.4C89.3,202.4,86.4,203.5,87.2,204.4
	L87.2,204.4z M213.3,204.1c-0.6,1.2-1.2,2.5-1.8,3.7c-0.2,0.4-0.4,0.7-0.4,1.1c0,1,0.3,2.2,0.5,3.2c0.9,5.3,1.9,10.5,3,15.7
	c3.5,16,8,32,15.2,46.7c3.7,7.5,8.3,15,14.8,20.6c0.6,0.5,3.1-0.6,2.7-1c-5.8-4.9-10-11.5-13.5-18.1c-3.9-7.5-7-15.4-9.6-23.4
	c-4.2-13-7.3-26.4-9.6-39.9c-0.2-1.5-0.4-2.9-0.7-4.4c-0.1-0.5-0.1-0.3,0.1-0.6c0.7-1.4,1.4-2.8,2.1-4.1c0.2-0.5-1-0.3-1.1-0.2
	C214.6,203.4,213.6,203.6,213.3,204.1L213.3,204.1z"/>
<path fill="#6D6E71" d="M94,208.9c10.2,0.4,20.5,0.7,30.7,0.9c19.4,0.4,38.7,0.7,58.1,0.2c8.7-0.2,17.5-0.5,26.1-1.5
	c0.5-0.1,1.6-0.2,1.9-0.7s-0.2-0.5-0.7-0.5c-7.6,0.9-15.2,1.2-22.8,1.5c-9.6,0.3-19.2,0.3-28.9,0.3c-17.3-0.1-34.5-0.5-51.8-1
	c-3.6-0.1-7.2-0.2-10.8-0.4c-0.6,0-1.6,0.1-2.1,0.5C93.5,208.5,93.4,208.8,94,208.9L94,208.9z"/>
<path fill="#FFFFFF" d="M229.6,245.5c0,0-0.1,8.1-8.9,7.1c0,0,5.6,17.2,6.2,18.2c0,0,6.7,0.4,9.1-6.4L229.6,245.5L229.6,245.5z"/>
<path fill="#6D6E71" d="M228.2,245.9v0.2c0,0.3-0.1,0.5-0.1,0.8c-0.1,0.8-0.4,1.5-0.7,2.2c-1.2,2.4-3.2,3-5.7,2.8
	c-0.5,0-2.6,0.2-2.4,1.1c1,2.9,1.9,5.8,2.9,8.7c0.7,2.1,1.4,4.1,2.1,6.2c0.4,1.1,0.7,2.3,1.2,3.4c0.2,0.3,0.5,0.3,0.9,0.3
	c2,0.1,4.1-0.5,5.8-1.4c1.4-0.7,2.7-1.7,3.7-3c0.6-0.8,1.7-2.3,1.5-3.3c-0.1-0.6-0.5-1.3-0.7-2c-0.4-1.1-0.8-2.3-1.1-3.4
	c-0.9-2.8-1.8-5.5-2.8-8.2c-0.6-1.7-1.1-3.4-1.7-5.1C230.8,244.2,227.9,245,228.2,245.9c1.2,3.6,2.4,7.2,3.6,10.9
	c0.7,2.2,1.5,4.4,2.2,6.6c0.1,0.4,0.5,1,0.5,1.4s-0.5,1.1-0.7,1.5c-0.4,0.8-1,1.5-1.6,2.1c-1.4,1.3-3.2,1.9-4.7,1.8l0.9,0.3
	c-0.5-1-0.8-2.2-1.2-3.2l-2.1-6.3c-1-2.9-1.9-5.8-2.9-8.7c-0.8,0.4-1.6,0.7-2.4,1.1c3.5,0.4,7.6-0.4,9.8-3.5c0.9-1.4,1.5-3,1.5-4.7
	C231.1,244.4,228.2,244.9,228.2,245.9L228.2,245.9z"/>
<path opacity="0.4" enable-background="new    " d="M43.8,76.9c0,0,15.2,12.9,18,37.1c0,0,2.9,36.6,2.9,47.8c0,0-6.5,28.7-5.8,37.7
	c0,0-7.2,53.5-4.3,62.5c0,0-2.9,28.7,5.1,37.1c0,0,3.6,5.6-1.4,15.8c0,0-17.3-13.5-8.7-54c0,0,12.3-107.5,7.2-127.8
	C56.8,133.2,55.3,89.9,43.8,76.9z M255.9,66.3c0,0-11.7,13.5-14,38.6c0,0-2.2,38-2.2,49.7c0,0,5,29.8,4.5,39.2c0,0,5.6,55.6,3.4,65
	c0,0,2.2,29.8-3.9,38.6c0,0-2.8,5.9,1.1,16.4c0,0,13.4-14,6.7-56.2c0,0-9.5-111.8-5.6-132.8C245.8,124.8,247,79.8,255.9,66.3
	L255.9,66.3z"/>
<path opacity="0.3" enable-background="new    " d="M93.5,289.6c0,0-10.1-8.9-9.5-4.5c0,0,3.9,6.7,3.9,8.9s1.7,5.6,1.7,5.6l13.4-1.1
	L93.5,289.6L93.5,289.6z M22.6,336c0,0-7.1-4.8-6.8-2.4c0,0,2.8,3.6,2.8,4.8s1.2,3,1.2,3l9.5-0.6L22.6,336z M258.1,335.1
	c0,0-7.1-4.8-6.8-2.4c0,0,2.8,3.6,2.8,4.8s1.2,3,1.2,3l9.5-0.6L258.1,335.1z M193.9,292c0,0-7.4-7.8-6.7-4.6c0,0,0.1,6.2,0.1,7.8
	c0,0.3,0,0.5-0.1,0.8c-0.3,1.3,0.8,2.6,2.2,2.5l15.6-0.2L193.9,292L193.9,292z M281.6,334.3c0,0,6.3-5.7,5.7-3.4
	c0,0-0.1,4.5-0.1,5.7c0,0.2,0,0.4,0.1,0.6c0.2,1-0.7,1.9-1.9,1.9L272,339L281.6,334.3L281.6,334.3z M47.4,337.8c0,0,6.3-5.7,5.7-3.4
	c0,0-0.1,4.5-0.1,5.7c0,0.2,0,0.4,0.1,0.6c0.2,1-0.7,1.9-1.9,1.9l-13.4-0.1L47.4,337.8L47.4,337.8z M84.5,205.9
	c0,0-16.7,72.6-28.5,79.8l-0.6-8.4C55.5,277.3,84,215.9,84.5,205.9L84.5,205.9z"/>
<path opacity="0.26" enable-background="new    " d="M220.7,203.1c0,0,6.1,38.5,7.8,42.4l2.8-0.6l6.7,19.5l-1.1,3.9
	c0,0,5.6,15.1,8.9,15.1S229.6,231,228,220.9L220.7,203.1z"/>
<path opacity="0.3" enable-background="new    " d="M96.2,208.2c0,0,32.2,0.9,37.4-0.3c5.2-1.2,63.8,1.8,70.8,0.3
	c6.9-1.5,4.6-3.5,4.6-3.5s-38.5-0.3-43.7,0.3C165.3,205,99.7,206.1,96.2,208.2L96.2,208.2z"/>
<path opacity="0.31" enable-background="new    " d="M56.9,196.6c0,0-5,38-17.3,46.9s12.8-25.7,11.7-40.2 M244.1,207.8
	c0,0,5,38,17.3,46.9s-12.8-25.7-11.7-40.2"/>
<g>
	<path fill="none" stroke="#FFFFFF" stroke-width="5.911" stroke-miterlimit="10" d="M205.1,107.1h-91.3l8.9,71.7l35.9,11.9
		l36.5-16.9L205.1,107.1z"/>
	<path fill="none" stroke="#FFFFFF" stroke-width="5.911" stroke-miterlimit="10" d="M182.5,125h-49.3l4.4,19.4H178l-4.5,20.9
		l-14.9,7.5l-18-8.9"/>
</g>
</svg>
