<?xml version="1.0" encoding="utf-8"?>
<!-- Generator: Adobe Illustrator 25.0.0, SVG Export Plug-In . SVG Version: 6.00 Build 0)  -->
<svg version="1.1" id="Layer_1" xmlns="http://www.w3.org/2000/svg" xmlns:xlink="http://www.w3.org/1999/xlink" x="0px" y="0px"
	 viewBox="0 0 301 380" enable-background="new 0 0 301 380" xml:space="preserve">
<path fill="#404041" d="M150.8,21.2c0,0-47.7,0-51.9-12.6L60.4,21.2c0,0-26.8,7.5-29.3,18.4c0,0-5.6,7.3-10.6,55.8
	c0,0-10.3,74-8.7,83.2c0,0-2.5,24.3-2.5,31.8c0,0-4.2,64.5-4.2,77c0,0-2.5,34.3,0,40.2c0,0,1.7,15.9,7.5,19.3c0,0,2.5,20.9,1.7,24.3
	c0,0,15.9,7.5,31,0.8c0,0,0.8-21.8,3.3-26c0,0,6.3-14.5,7.4-33.6c0.2-2.9,0.2-6,0.1-9.1c0,0,3.3-0.8,4.5,10.3c0,0-3.3,14-2.2,15.6
	c1.1,1.7,34,5.6,41.3,2.8c0,0,17.9-4.5,24-3.3c0,0,17.3,0.6,26.2,0"/>
<path fill="#6D6E70" d="M151.3,20.3c-5.3,0-10.6-0.3-15.8-0.7c-9-0.7-18.5-1.7-27-5c-3.1-1.2-6.9-3-8.1-6.4
	c-0.2-0.6-1.2-0.6-1.7-0.5c-12.1,4-24.3,7.9-36.4,11.9c-3.9,1.3-7.9,2.5-11.8,4c-4.3,1.7-8.5,3.7-12.3,6.2c-3.2,2.1-6.7,4.8-8.2,8.6
	c-0.6,1.6-1.4,3.3-2,5c-2,5.7-3.2,11.8-4.3,17.8c-2.9,15.6-4.3,31.4-6.4,47.2c-2.3,17-4.5,34.1-6.1,51.2c-0.6,5.9-1.3,12-1,17.9
	c0.1,1.6,0,2.8-0.2,4.8c-0.4,4.5-0.9,9-1.2,13.5c-1,12.2-1.5,24.4-2.3,36.7c-1,17.1-2.2,34.3-2.7,51.4c-0.4,13.3-2.1,26.8-0.9,40.1
	c0.2,2.1,0.7,4.1,1.1,6.1c0.6,4.2,1.6,8.5,3.4,12.4c0.8,1.7,1.8,3.8,3.5,4.8c0.2,0.1,0.6,0.6,0.4,0.2v0.3c0.1,0.5,0.1,1,0.2,1.5
	c0.5,4,0.9,8.1,1.2,12.1c0.3,3.2,1,6.9,0.2,10.1c-0.1,0.2,0.1,0.5,0.3,0.6c10,4.7,22.6,5.2,32.7,0.8c0.3-0.1,0.8-0.5,0.9-0.9
	c0.3-7.3,0.6-14.7,2.1-21.9c0.4-2.2,1.3-4.1,2.1-6.2c1.7-4.6,3-9.3,4.1-14c1.9-8.7,2.9-17.6,2.6-26.6c-0.4,0.3-0.8,0.7-1.2,1
	l-0.6,0.1c0.1-0.1,0-0.1,0,0c0-0.1,0.6,0.4,0.8,0.7c1.5,1.7,1.9,4.5,2.2,6.6c0.3,1.9,0.1,2.9-0.3,4.7c-0.5,2.2-0.9,4.4-1.3,6.6
	c-0.4,2.1-1.8,6.7,0.9,7.7c3,1.1,6.5,1.4,9.7,1.8c5,0.7,10,1.1,15,1.4c4.5,0.2,9.1,0.5,13.6-0.1c0.8-0.1,1.5-0.2,2.3-0.4
	c0.3-0.1,0.6-0.2,0.8-0.2c0.7-0.2,0.1,0,0.4-0.1l3.9-0.9c5-1.1,10-2.1,15.1-2.5c3.6-0.2,7.4,0.2,11.1,0.3c6.5,0.1,13.1,0.2,19.7-0.2
	c1.5-0.1,2.3-1.9,0.3-1.8c-9.1,0.5-18.8,0.1-27.7-0.2c-7.9-0.3-16.4,2-23.9,3.9c-3.7,1-7.9,0.7-11.8,0.5c-5.2-0.2-10.4-0.6-15.6-1.3
	c-3.6-0.4-7.3-0.8-10.7-1.8c-0.4-0.1-0.6-0.1-0.8-0.3c0.1,0.2,0-1,0-1.2c0-2.1,0.5-4.3,0.9-6.3c0.4-2.2,0.9-4.5,1.4-6.7
	s-0.2-4.8-0.8-6.9c-0.7-2.3-2.1-5.6-5.1-4.9c-0.4,0.1-1.2,0.5-1.2,1c0.4,13.4-1.8,26.9-6.3,39.5c-0.7,2-1.7,3.9-2.2,5.9
	c-1.1,4.3-1.4,8.9-1.8,13.3c-0.3,3.3-0.5,6.6-0.6,9.8l0.9-0.9c-9,3.9-20.4,3.3-29.2-0.9l0.3,0.6c0.7-3.2,0-7-0.2-10.2
	c-0.3-4.1-0.7-8.1-1.2-12.2c-0.1-0.6,0-1.7-0.3-2.3s-1.4-1.1-1.9-1.7c-0.7-0.8-1.3-1.8-1.8-2.8c-1.9-3.9-2.9-8.3-3.5-12.5
	c-0.3-2.1-0.9-4-1.1-6.1c-0.4-4-0.4-8.1-0.3-12.2c0.1-7.6,0.5-15.2,1-22.7c0.3-4.9,0.3-9.8,0.5-14.7c0.4-9.1,0.9-18.1,1.5-27.1
	c0.5-8.5,1-17,1.6-25.6c0.2-3.8,0.6-7.6,0.7-11.5c0.2-9,1.2-17.9,2.1-26.8c0.2-1.8,0.4-3.5,0.3-5.3c-0.2-2.2,0-4.4,0.1-6.6
	c0.9-16.6,3.2-33.2,5.3-49.8c1.7-13.4,3.4-26.8,5.1-40.1c1.3-9.9,2.7-19.9,5-29.7c0.8-3.6,1.7-7.3,3.3-10.5c0.2-0.3,0.4-0.6,0.5-0.9
	c0.7-1.6,1.2-3,2.4-4.4c1.4-1.6,3.1-2.9,4.9-4.1c6.2-4.1,13.3-6.8,20.4-9C71.9,18.8,83.4,14.8,95,11c1.4-0.5,2.9-0.9,4.3-1.4
	c-0.6-0.2-1.1-0.3-1.7-0.5c1.1,3.1,4,5,6.8,6.3c4,1.9,8.3,2.9,12.5,3.8c8.9,1.8,18.1,2.5,27.2,2.9c2.1,0.1,4.2,0.1,6.2,0.1
	c0.6,0,1.6-0.2,1.9-0.8C152.4,20.7,152,20.3,151.3,20.3L151.3,20.3z"/>
<path fill="#404041" d="M146.3,21.2c0,0,47.7,0,51.9-12.6l38.5,12.6c0,0,26.8,7.5,29.3,18.4c0,0,5.6,7.3,10.6,55.8
	c0,0,10.3,74,8.7,83.2c0,0,2.5,24.3,2.5,31.8c0,0,4.2,64.5,4.2,77c0,0,2.5,34.3,0,40.2c0,0-1.7,15.9-7.5,19.3c0,0-2.5,20.9-1.7,24.3
	c0,0-15.9,7.5-31,0.8c0,0-0.8-21.8-3.3-26c0,0-6.3-14.5-7.4-33.6c-0.2-2.9-0.2-6-0.1-9.1c0,0-3.3-0.8-4.5,10.3c0,0,3.3,14,2.2,15.6
	c-1.1,1.7-34,5.6-41.3,2.8c0,0-17.9-4.5-24-3.3c0,0-17.3,0.6-26.2,0"/>
<path fill="#6D6E70" d="M145.8,22.1c5.8,0,11.6-0.3,17.4-0.8c9.4-0.8,19.4-1.9,28.2-5.6c3.4-1.4,7-3.6,8.3-7.2
	c-0.8,0.3-1.5,0.7-2.3,1c12.1,3.9,24.1,7.9,36.2,11.8c3.9,1.3,7.8,2.5,11.6,4c4.2,1.7,8.4,3.6,12.1,6.2c1.7,1.2,3.4,2.5,4.8,4.1
	c1.3,1.5,1.8,2.9,2.6,4.7c0.2,0.5,0.2,0.4,0.4,0.7c0.5,1.1,1,2.3,1.4,3.5c2.1,6.1,3.3,12.6,4.4,18.9c2.7,15.3,4.2,30.9,6.2,46.3
	c2.3,17,4.4,34.1,6,51.2c0.5,5.6,1.4,11.4,0.9,17c-0.2,1.8,0.2,3.6,0.3,5.4c0.4,4.6,0.9,9.1,1.2,13.7c1,12.1,1.5,24.2,2.2,36.3
	c1,16.9,2.2,33.9,2.7,50.9c0.1,4.8,0.5,9.5,0.7,14.3c0.4,8.5,1,17.2,0.1,25.7c-0.2,2.1-0.8,4.1-1.1,6.1c-0.7,4.3-1.6,8.8-3.7,12.7
	c-0.4,0.8-0.9,1.6-1.6,2.3c-0.6,0.6-1.6,1.1-1.9,1.8s-0.2,1.7-0.3,2.4c-0.5,4.1-0.9,8.2-1.2,12.3c-0.2,3.1-0.9,6.7-0.2,9.8
	c0.3-0.4,0.6-0.7,0.8-1.1c-5.4,2.5-11.7,3.6-17.6,3.4c-2.6-0.1-5.1-0.5-7.6-1.1c-0.6-0.2-1.2-0.4-1.9-0.6c-0.3-0.1-1.9-0.6-1.9-0.5
	c-0.1-0.1,0-0.3,0-0.5c-0.2-0.6-0.1-1.4-0.1-2c-0.1-1.3-0.1-2.6-0.2-3.9c-0.4-5.9-0.6-12.2-2.3-17.9c-0.4-1.2-0.8-1.9-1.2-3.1
	c-1-2.4-1.8-4.9-2.5-7.5c-3.2-10.9-4.8-22.3-4.5-33.7c0-0.4-0.2-0.6-0.6-0.7c-2.3-0.5-4.1,1.4-5,3.3c-1.1,2.3-2,5.7-1.8,8.3
	c0.1,1.2,0.5,2.4,0.8,3.5c0.5,2.3,1,4.6,1.3,7c0.2,1.3,0.2,3.6,0.4,4.5c0-0.2,0.4-0.2-0.1,0c-0.6,0.2-1.2,0.3-1.9,0.5
	c-1.9,0.4-3.8,0.7-5.6,0.9c-4.9,0.7-9.9,1.2-14.9,1.5c-4.6,0.3-9.3,0.5-13.8,0c-2.5-0.3-4.9-1.1-7.4-1.7c-5-1.1-10.1-2.1-15.2-2.5
	c-3.6-0.3-7.4,0.2-11,0.2c-6.6,0.1-13.3,0.2-19.9-0.2c-1.2-0.1-3,1.7-1.1,1.8c5.9,0.4,11.9,0.3,17.8,0.2c3.3-0.1,6.6-0.1,9.8-0.3
	c4.9-0.4,10.1,0.8,14.9,1.8c2.8,0.6,5.6,1.3,8.4,2c3.8,0.9,8,0.8,11.9,0.7c5.2-0.1,10.5-0.6,15.7-1.2c3.9-0.4,7.8-0.9,11.6-1.8
	c0.9-0.2,2-0.4,2.8-1c1.1-0.9,0.9-2.5,0.8-3.7c-0.2-2.5-0.7-5.1-1.2-7.6c-0.3-1.7-1-3.5-1.1-5.2c-0.1-1.4,0.4-3.1,0.7-4.5
	c0.3-1.3,0.6-2.6,1.3-3.7c0.2-0.3,0.3-0.5,0.5-0.8s0.3-0.3,0.3-0.3s-0.4,0.1-0.7,0c-0.2-0.2-0.4-0.5-0.6-0.7
	c-0.4,13.4,1.8,27,6.3,39.6c0.7,2,1.7,3.9,2.2,5.9c1.1,4.3,1.4,8.9,1.8,13.3c0.3,3.3,0.5,6.7,0.6,10c0.1,0.2,0.2,0.3,0.3,0.4
	c10.1,4.4,22.7,3.8,32.7-0.9c0.4-0.2,1-0.6,0.8-1.1c-0.4-1.7-0.2-3.6-0.1-5.3c0.1-2.7,0.4-5.4,0.6-8c0.3-3.6,0.7-7.1,1.1-10.7
	c-0.2,0.2-0.4,0.5-0.5,0.7c3.4-2.1,5-6.4,6.1-10c0.9-3.2,1.4-6.4,2-9.7c0.3-1.8,0.9-4.5,1-6.8c0.2-4.1,0.2-8.1,0.1-12.2
	c-0.2-6.9-0.5-13.8-1-20.7c-0.3-4.3-0.3-9.4-0.5-14c-0.8-16.8-1.8-33.6-2.9-50.4c-0.7-11.8-1.3-23.6-2.4-35.4
	c-0.3-3.1-0.6-6.3-0.9-9.4c-0.1-0.7,0-0.5,0.1-1.3c0.1-0.9,0.1-1.7,0.1-2.6c0-6.2-0.7-12.4-1.3-18.5c-1.6-16.2-3.7-32.4-5.8-48.5
	c-1.9-14.5-3.3-29.2-5.8-43.6c-1.1-6.5-2.3-13.1-4.3-19.5c-0.6-2-1.5-3.8-2.3-5.7s-1.6-3.7-3.1-5.3c-2.9-3-6.6-5.2-10.3-7.1
	c-5.3-2.7-10.8-4.7-16.4-6.4c-11.6-3.6-23.1-7.5-34.6-11.3c-1.3-0.4-2.6-0.8-3.9-1.3c-0.8-0.3-2,0.2-2.3,1c-1,2.8-4.1,4.4-6.6,5.5
	c-3.9,1.7-8.2,2.6-12.4,3.4c-8.4,1.5-16.9,2.2-25.5,2.5c-1.9,0.1-3.6,0.1-5.5,0.1c-0.6,0-1.6,0.2-1.9,0.8
	C144.7,21.7,145.2,22.1,145.8,22.1L145.8,22.1z"/>
<path fill="#FFFFFF" stroke="#58595B" stroke-miterlimit="10" d="M58.4,303.6c0,0,4.5,5.6,2.8,12.3L59,328.7c0,0,23.4,5,36.8,2.8
	c0,0,18.4-3.9,22.9-3.9c0,0,25.7,1.1,29.6,0c0,0,30.1,1.1,34,1.1c0,0,11.7,2.4,15.1,2.4c0,0,32.9,3.2,40.7-3c0,0-5.2-21.8,0.9-26.8
	c0,0-27.5,5.2-38,2.2c0,0-26-3-32.7-0.7c0,0-9.3,1.1-31.3,2.2c0,0-13-1.5-29.8-1.1c0,0-13.8,0.2-21.6,0.2
	C85.8,304.2,62.9,310.3,58.4,303.6L58.4,303.6z"/>
<path fill="#FFFFFF" stroke="#58595B" stroke-width="1.017" stroke-miterlimit="10" d="M12.8,346.9c0,0,2-0.4,6.3-0.7
	c0,0,9.8-0.4,16.9,1.1c0,0,8.2,0.7,12.9-1.8c0,0-2.7,5.8-2.7,12.8l-0.4,14.2c0,0-16.5,4.7-30.6-1.5C15.2,371,15.6,356.4,12.8,346.9z
	"/>
<path fill="#FFFFFF" stroke="#58595B" stroke-width="1.041" stroke-miterlimit="10" d="M284.8,344.5c0,0-2.1-0.4-6.7-0.8
	c0,0-10.4-0.4-17.9,1.2c0,0-8.7,0.8-13.7-1.9c0,0,2.9,6.2,2.9,13.6l0.4,15.1c0,0,17.5,5,32.5-1.5
	C282.3,370.1,281.9,354.6,284.8,344.5L284.8,344.5z"/>
<path fill="#6D6E70" d="M22.7,66.5c3.7,1.7,7.1,4.2,10.2,6.8C40,79.2,46,86.6,49.6,95.1c1.7,4.1,3,8.4,3.6,12.8
	c0.3,2.3,0.5,4.7,0.7,7c1.1,10.8,1.8,21.6,2.2,32.5c0.2,6.6,0.3,13.3,0.1,19.9c-0.1,2.2-0.1,4.5-0.4,6.7c-0.7,4.9-1.3,9.8-1.9,14.8
	c-2.2,18.7-4.1,37.4-5,56.2c-0.5,9.4-0.8,18.8-0.4,28.2c0.1,2,0.2,4,0.4,6.1c0.1,1.2,0.3,2.4,0.3,3.6c-0.1,4.5,0.7,9,1.8,13.3
	c0.9,3.5,2.2,7,3.8,10.2c0.5,0.9,3.3,0,2.9-0.8c-3-6-4.8-12.5-5.4-19.1c-0.1-1.5-0.2-3-0.2-4.5c0-1-0.2-2.7-0.3-4
	c-0.7-8.9-0.6-18-0.3-26.9c0.7-19.4,2.6-38.8,4.8-58.1c0.7-5.9,1.4-11.8,2.2-17.7c0.9-6.7,0.8-13.5,0.8-20.2
	c-0.1-11.9-0.8-23.7-1.9-35.5c-0.5-6.1-0.9-12.4-2.5-18.4c-4.1-15.1-15.2-28.3-29-35.5c-0.3-0.1-0.5-0.3-0.8-0.4
	C24.2,64.8,21.5,66,22.7,66.5L22.7,66.5z M269.2,57.3c-3.9,1.9-7.6,4.5-11,7.3c-7.4,6.1-13.6,13.9-17.2,22.8
	c-1.6,4-2.9,8.3-3.4,12.6c-0.3,2.6-0.6,5.2-0.8,7.8c-1.1,11.5-1.9,23-2.2,34.5c-0.2,6.7-0.2,13.5,0.1,20.2c0.1,1.5,0.2,3,0.4,4.5
	c0.7,5.6,1.4,11.3,2.1,16.9c1.1,9.3,2,18.7,2.9,28c0.9,10.6,1.7,21.1,2.1,31.7c0.3,9.2,0.5,18.4-0.3,27.5c-0.1,1.2-0.4,2.5-0.2,3.7
	c0.2,1.4,0.3,2.8,0.3,4.2c0.2,5.4,0,10.9-1.1,16.2c-0.6,3-1.5,6-2.9,8.7c-0.7,1.4,2.2,1.2,2.7,0.2c4.4-9,4.9-19.9,3.9-29.8
	c-0.1-1.1,0.1-1.9,0.2-3c0.2-2,0.3-4,0.4-6c0.2-4.6,0.2-9.2,0.2-13.8c-0.1-10.4-0.7-20.7-1.5-31.1c-0.8-9.9-1.7-19.9-2.8-29.8
	c-0.8-7-1.6-14-2.5-21c-0.2-1.7-0.4-3.3-0.7-5c-0.5-3.5-0.4-7.1-0.4-10.7c-0.2-12.7,0.5-25.5,1.5-38.2c0.5-6.1,0.8-12.5,1.9-18.5
	c2-10.5,7.2-20,14.6-27.6c2.6-2.7,5.5-5.2,8.6-7.3c1.1-0.8,2.2-1.5,3.4-2.2c0.4-0.3,0.9-0.5,1.3-0.8c0.2-0.1,0,0,0,0
	c0.1,0,0.2-0.1,0.2-0.1c0.2-0.1,0.3-0.2,0.5-0.3c0.3-0.1,0.5-0.3,0.8-0.4c0.5-0.2,1.1-0.8,0.7-1.3C270.7,56.9,269.7,57,269.2,57.3
	L269.2,57.3z"/>
<path fill="none" stroke="#FFFFFF" stroke-miterlimit="10" d="M148.7,46.5c-50.6-3-50.6-38.1-50.6-38.1l-12.3,3.9
	c0,0,8.6,44.3,62.5,43.2"/>
<path fill="#FFFFFF" d="M147.8,21.2c-45-0.6-48.3-11.7-48.3-11.7l-12.6,3.9c0,0,12.1,17.3,61.5,16.2"/>
<path fill="#6D6E70" d="M148.4,20.4c-11.8-0.2-24-0.7-35.4-4.1c-3.9-1.2-8.5-2.8-11.2-6c-0.2-0.2-0.3-0.4-0.4-0.6
	c-0.1-0.1-0.1-0.2-0.2-0.2c-0.1-0.2,0.1,0.1,0,0s-0.1-0.2-0.2-0.4c-0.2-0.6-1.2-0.4-1.6-0.3l-12.6,3.9c-0.4,0.1-1.6,0.6-1.2,1.3
	c1.7,2.5,4.7,4.4,7.2,5.9c8.2,5,17.9,7.5,27.4,8.9c9.2,1.4,18.4,1.8,27.7,1.6c0.6,0,1.6-0.2,1.9-0.8s-0.2-0.8-0.8-0.8
	c-14,0.3-28.5-0.5-41.9-5c-6-2-12.1-4.6-16.8-8.9c-0.7-0.6-1.4-1.3-2-2.1c-0.4,0.4-0.8,0.8-1.2,1.3l12.6-3.9
	c-0.5-0.1-1.1-0.2-1.6-0.3c0.5,1.8,2.6,3.2,4,4.1c6,3.9,13.7,5.3,20.7,6.3c8.1,1.2,16.3,1.6,24.4,1.7c0.6,0,1.6-0.2,1.9-0.8
	C149.5,20.6,148.9,20.4,148.4,20.4L148.4,20.4z"/>
<path fill="#FFFFFF" d="M148.4,21.2c45-0.6,48.3-11.7,48.3-11.7l12.6,3.9c0,0-12.1,17.3-61.5,16.2"/>
<path fill="#6D6E70" d="M147.8,22.1c12.3-0.2,25-0.7,36.8-4.3c4.3-1.3,9.3-3.1,12.3-6.6c0.5-0.5,0.9-1.2,1.1-1.9
	c-0.8,0.3-1.5,0.7-2.3,1l12.6,3.9c-0.2-0.3-0.3-0.7-0.5-1c-0.1,0.2,0,0,0.1-0.1l-0.3,0.3l-1.2,1.2c-0.8,0.8-1.2,1.1-1.9,1.6
	c-1,0.8-2.1,1.5-3.2,2.2c-7.7,4.7-17.1,7.1-26.1,8.5c-8.9,1.4-18,1.7-27,1.5c-0.6,0-1.6,0.2-1.9,0.8s0.2,1,0.8,1
	c14.4,0.3,29.3-0.6,43.1-5.1c6.5-2.1,13-5,18.1-9.6c0.8-0.7,1.6-1.5,2.2-2.4c0.3-0.4-0.1-0.9-0.5-1l-12.6-3.9
	c-0.8-0.2-2.1,0.2-2.3,1c0-0.2,0.1-0.2,0,0.1c-0.1,0.1-0.1,0.2-0.2,0.3c-0.1,0.2-0.4,0.5-0.2,0.2c-0.3,0.4-0.7,0.8-1.1,1.2
	c-0.1,0.1-0.5,0.4-0.2,0.2c-0.2,0.1-0.3,0.3-0.5,0.4c-0.3,0.3-0.7,0.5-1.1,0.7c-1,0.6-1.5,0.9-2.7,1.5c-1.3,0.6-2.7,1.1-4,1.5
	c-4.1,1.4-8.4,2.2-12.8,2.8c-7.8,1.1-15.7,1.5-23.6,1.7c-0.6,0-1.6,0.2-1.9,0.8C146.7,21.7,147.2,22.1,147.8,22.1L147.8,22.1z"/>
<path fill="#FFFFFF" d="M148.8,46.5c-50.5-3-50.5-38.1-50.5-38.1l-12.2,3.9c0,0,8.5,44.3,62.3,43.1"/>
<path fill="#6D6E70" d="M149.4,45.5c-13.6-0.8-28.2-4.2-38.4-13.9c-5.4-5.2-9.2-11.9-10.6-19.2c-0.2-1-0.4-2.1-0.5-3.2V8.7V8.6V8.3
	c0-0.9-1.1-1-1.7-0.8C94.1,8.8,90,10.1,86,11.4c-0.6,0.2-1.3,0.6-1.2,1.3c1,5.3,3.5,10.6,6.3,15.3c6.3,10.7,16,19,27.6,23.6
	c9.4,3.8,19.7,5.1,29.8,4.9c1.6,0,2.3-2.1,0.3-2c-15.7,0.3-31.6-3.6-43.7-14C98,34.3,92.5,26.2,89.3,17.4c-0.6-1.7-1.2-3.5-1.6-5.4
	c-0.4,0.4-0.8,0.9-1.2,1.3c4.1-1.3,8.2-2.6,12.2-3.9c-0.6-0.3-1.1-0.5-1.7-0.8c0,4.2,1.3,8.6,3.1,12.5c4.3,9.4,12.2,16.4,21.5,20.6
	c8.4,3.8,17.7,5.4,26.8,6c0.7,0,1.6-0.2,1.9-0.9C150.5,46,150,45.5,149.4,45.5L149.4,45.5z"/>
<path fill="#FFFFFF" d="M147,46.5c51.6-0.7,50.5-38.1,50.5-38.1l12.2,3.9c0,0-8.5,44.3-62.3,43.1"/>
<path fill="#6D6E70" d="M146.4,47.1c14.5-0.2,30.2-3.3,41.1-13.6c5.8-5.5,9.7-12.8,11-20.7c0.3-1.6,0.5-3.2,0.4-4.9
	c-0.9,0.3-1.8,0.7-2.6,1c4.1,1.3,8.2,2.6,12.2,3.9c-0.1-0.1-0.2-0.2-0.3-0.4c-1,5-3.3,10-5.8,14.4c-5.9,10.2-14.9,18.4-25.8,23
	c-9,3.7-18.7,5.1-28.4,4.9c-0.6,0-1.5,0.1-2,0.5c-0.4,0.3-0.5,0.7,0.2,0.8c16.4,0.3,33.2-3.5,46-14.2c7.7-6.4,13.6-14.8,17-24.2
	c0.7-1.8,1.3-3.7,1.7-5.6c0-0.2-0.1-0.3-0.3-0.4c-4.1-1.3-8.2-2.6-12.2-3.9c-0.6-0.2-2.7,0.1-2.6,1c0.1,4.1-1,8.5-2.6,12.2
	c-3.6,9.1-10.8,16-19.8,19.9c-8.2,3.6-17.2,4.7-26.1,4.9c-0.5,0-1.6,0.2-1.9,0.7C145.4,47.1,145.9,47.1,146.4,47.1L146.4,47.1z"/>
<path opacity="0.33" fill="#231F20" stroke="#6D6E70" stroke-miterlimit="10" enable-background="new    " d="M104.7,23.8
	c0,0,4.8,18.6,43.2,21.2c0,0,32,2.2,44.3-21.2c0,0-13,7.4-43.9,7.1C148.3,30.9,114.4,30.9,104.7,23.8z"/>
<path fill="#6D6E70" d="M148.8,206.5c7,0.1,14,0.3,21.1,0.4c11.5,0.2,22.9,0.5,34.4,0.8c2.1,0.1,4.2,0.1,6.2,0.2
	c0.4,0,0.7,0,1.1,0.1h0.7c0.3,0,0.7,0,1,0.1c-0.2-0.1-0.4-0.2-0.5-0.3c1.5,9.8,3.5,19.5,5.8,29.1c2,8.5,4.4,16.9,7.2,25.2
	c2.6,7.5,5.6,15,9.9,21.8c1.9,3,4,5.9,6.7,8.2c0.5,0.4,0.5,0.4,0.5,1c0,0.9-0.1,1.9-0.2,2.8c-0.4,3.1-1.6,6-3.6,8.4
	c0.3-0.2,0.5-0.3,0.8-0.5c-0.1,0.1-0.3,0.1-0.5,0.2s-0.5,0.2-0.2,0.1l-0.9,0.3c-1.7,0.5-3.4,0.7-5.2,0.9c-2.9,0.3-5.9,0.2-8.8,0
	c-1.9-0.2-3.9-0.4-5.8-0.8c-1.6-0.3-3.3-0.9-5-1c-2.5-0.2-5.1-0.2-7.6-0.3c-4.9-0.2-9.9-0.3-14.8-0.4c-4.3-0.1-8.7-0.3-13.1,0.1
	c0.4,0.1,0.8,0.1,1.1,0.2c-0.5-0.6-2-0.6-2.7-0.7c-4.3-0.5-8.8-0.3-13.2,0c-5.2,0.3-10.4,0.7-15.6,1.1c-0.3,0-2.2,0.6-1.6,1.3
	l0.2,0.2l1.2-1.2c-3.7,0.8-7.8,0.6-11.6,0.4c-4-0.1-7.9-0.4-11.9-0.8c-4.9-0.4-9.7-0.5-14.6-0.5c-7.2,0.1-14.3,0.3-21.5,0.6
	c-0.8,0-1.6,0.1-2.4,0.1c-1.8,0.1-3.6,0.7-5.3,1.1c-5.2,1-10.5,1.4-15.7,0.9c-1.7-0.1-3.3-0.4-5-0.7c-0.6-0.1-1.5-0.2-2.1-0.6
	c-0.2-0.1-0.3-0.4-0.4-0.6c-0.5-0.7-1.1-1.4-1.5-2.2c-0.7-1.2-1.3-2.5-1.8-3.9s-0.9-2.8-1-4.3l-0.3,0.6c4.2-2.9,6.9-8.1,9.1-12.5
	c3.4-6.8,6.2-14,8.7-21.2c4.9-14.1,9-28.6,12.6-43.1c0.8-3.2,1.6-6.3,2.3-9.5c-0.6,0.3-1.1,0.6-1.7,0.9c0.1,0,0.2-0.1,0.3,0h0.2
	c0.1,0-0.4,0,0,0c0.5,0,1.1-0.1,1.6-0.1c1.7-0.1,3.4-0.1,5.1-0.2c5.2-0.2,10.4-0.3,15.7-0.4c11.3-0.3,22.5-0.5,33.8-0.7
	c2.5,0,5.1-0.1,7.6-0.1c0.6,0,1.6-0.2,1.9-0.8c0.3-0.6-0.2-0.7-0.8-0.7c-7.1,0.1-14.2,0.3-21.3,0.4c-11.5,0.2-23,0.5-34.4,0.8
	c-2.1,0.1-4.1,0.1-6.2,0.2c-1,0-2.1,0-3.2,0.2c-0.5,0.1-1.5,0.3-1.7,0.9c-2,8.7-4.3,17.4-6.7,26c-4.2,15.1-8.8,30.4-15.4,44.7
	c-1.5,3.2-3.1,6.3-5,9.3c-1.4,2.1-2.9,4.1-5,5.6c-0.2,0.1-0.3,0.3-0.3,0.6c0.4,3.8,2.2,7.7,4.6,10.7c1.1,1.4,3.5,1.5,5.2,1.8
	c4.4,0.7,8.9,0.8,13.3,0.4c3.3-0.3,6.5-0.8,9.7-1.5c0.3-0.1,0.6-0.1,0.9-0.2c0,0,1.6-0.4,0.7-0.2h0.9c6.7-0.2,13.4-0.5,20.1-0.6
	c5.4-0.1,10.8-0.2,16,0.3c4.3,0.4,8.6,0.7,12.9,0.9c4.6,0.2,9.4,0.3,14-0.6c0.3-0.1,1.7-0.6,1.2-1.2l-0.2-0.2
	c-0.5,0.4-1.1,0.8-1.6,1.3c5.9-0.5,11.9-1,17.8-1.2c2.8-0.1,6-0.2,8.5,0c0.7,0,1.4,0.1,2,0.2c0.2,0,0.4,0.1,0.6,0.1
	c-0.4-0.1,0.1,0,0.2,0.1c0.3,0.1,0.1,0,0.1,0c1,0.3,1.4,0.1,2.5,0.1c7.7-0.3,15.4,0.1,23.1,0.3l9,0.3c0.5,0,1,0.1,1.5,0.2
	c3.3,0.6,6.5,1.4,9.9,1.7c4.5,0.4,9,0.4,13.4-0.5c1.7-0.3,3.8-0.6,5.3-1.5c1.1-0.6,1.8-2.1,2.4-3.2c0.6-1.2,1.1-2.5,1.5-3.8
	c0.5-1.8,0.7-3.6,0.7-5.5c0-1.1-1.2-1.6-1.9-2.3c-1.1-1.1-2.1-2.2-3-3.4c-4.6-6-7.7-13.1-10.4-20.1c-3.1-8.1-5.6-16.5-7.8-24.9
	c-2.9-11.1-5.3-22.4-7.1-33.7c0-0.2-0.1-0.4-0.1-0.6s-0.4-0.3-0.5-0.3c-2.5-0.5-5.2-0.3-7.7-0.4c-5.2-0.2-10.4-0.3-15.7-0.4
	c-11.3-0.3-22.6-0.5-34-0.7c-2.6,0-5.2-0.1-7.7-0.1c-0.5,0-1.6,0.2-1.9,0.8C147.8,206.3,148.3,206.5,148.8,206.5L148.8,206.5z"/>
<path fill="#6D6E70" d="M84,208.9c0.8,1,1.7,1.9,2.5,2.9c0.5,0.6,1.1,1.2,1.6,1.9c0.2,0.2,0.3,0.5,0.5,0.6c0.5,0.3-0.2,0.2,0.1-0.2
	c-0.3,0.4-0.3,1.8-0.4,2.3c-0.8,4.9-1.8,9.9-2.9,14.8c-3.7,16.3-8.5,32.7-16.3,47.6c-4.1,7.9-9.2,15.7-16.2,21.3
	c-0.5,0.4-0.3,1,0.3,1.1c0.7,0.2,1.6-0.1,2.1-0.6c6.4-5.1,11.2-11.9,15.1-19c4.3-7.8,7.7-16.1,10.6-24.6c4.4-13,7.8-26.4,10.1-40
	c0.2-1,0.6-2.2,0.5-3.3c-0.1-0.9-1.4-2-2-2.6c-1-1.1-2-2.3-3-3.4C86.1,206.9,83.2,208,84,208.9L84,208.9z M210.1,208.6
	c-0.6,1.2-1.2,2.5-1.8,3.7c-0.2,0.4-0.4,0.7-0.4,1.1c0,1,0.3,2.2,0.5,3.2c0.9,5.3,1.9,10.5,3,15.7c3.5,16,8,32,15.2,46.7
	c3.7,7.6,8.3,15.1,14.8,20.6c0.6,0.5,3.1-0.6,2.7-1c-5.8-4.9-10-11.5-13.5-18.1c-3.9-7.5-7-15.4-9.6-23.4c-4.2-13-7.3-26.4-9.6-39.9
	c-0.2-1.5-0.4-2.9-0.7-4.4c-0.1-0.5-0.1-0.3,0.1-0.6c0.7-1.4,1.4-2.8,2.1-4.1c0.2-0.4-1-0.3-1.1-0.2
	C211.4,207.9,210.4,208.1,210.1,208.6L210.1,208.6z"/>
<path fill="#6D6E70" d="M90.8,213.4c10.2,0.4,20.5,0.7,30.7,0.9c19.4,0.4,38.7,0.7,58.1,0.2c8.7-0.2,17.5-0.5,26.1-1.5
	c0.5-0.1,1.6-0.2,1.9-0.7s-0.2-0.5-0.7-0.5c-7.6,0.9-15.2,1.2-22.8,1.5c-9.6,0.3-19.2,0.3-28.9,0.3c-17.3-0.1-34.6-0.4-51.8-1
	c-3.6-0.1-7.2-0.2-10.8-0.4c-0.6,0-1.5,0.1-2,0.5C90.2,213.1,90.2,213.4,90.8,213.4L90.8,213.4z"/>
<path fill="#FFFFFF" d="M226.4,250c0,0-0.1,8.1-8.9,7.1c0,0,5.7,17.2,6.2,18.2c0,0,6.7,0.4,9.1-6.4L226.4,250L226.4,250z"/>
<path fill="#6D6E70" d="M225,250.4v0.2c0,0.3-0.1,0.5-0.1,0.8c-0.1,0.8-0.4,1.5-0.7,2.2c-1.2,2.4-3.2,3-5.7,2.8
	c-0.5,0-2.6,0.3-2.4,1.1c1,2.9,1.9,5.8,2.9,8.7c0.7,2.1,1.4,4.1,2.1,6.2c0.4,1.1,0.7,2.3,1.2,3.3c0.2,0.3,0.5,0.3,0.9,0.3
	c2,0.1,4.1-0.5,5.8-1.4c1.4-0.7,2.7-1.7,3.7-3c0.6-0.8,1.7-2.3,1.5-3.3c-0.1-0.6-0.5-1.3-0.7-2c-0.4-1.1-0.8-2.3-1.1-3.4
	c-0.9-2.7-1.8-5.5-2.8-8.2c-0.6-1.7-1.1-3.4-1.7-5.1C227.6,248.8,224.7,249.6,225,250.4c1.2,3.6,2.4,7.2,3.6,10.9
	c0.7,2.2,1.5,4.4,2.2,6.6c0.1,0.4,0.5,1,0.5,1.4s-0.5,1.1-0.7,1.5c-0.4,0.8-1,1.5-1.6,2.1c-1.4,1.3-3.2,1.9-4.7,1.8l0.9,0.3
	c-0.5-1-0.8-2.2-1.2-3.3l-2.1-6.3c-1-2.9-1.9-5.8-2.9-8.7c-0.8,0.4-1.6,0.7-2.4,1.1c3.5,0.4,7.6-0.4,9.8-3.5c0.9-1.4,1.5-3,1.5-4.7
	C227.9,248.9,225,249.4,225,250.4L225,250.4z"/>
<path opacity="0.4" fill="#231F20" enable-background="new    " d="M40.6,81.5c0,0,15.2,12.9,18,37.1c0,0,2.9,36.6,2.9,47.8
	c0,0-6.5,28.7-5.8,37.7c0,0-7.2,53.5-4.3,62.5c0,0-2.9,28.7,5.1,37.1c0,0,3.6,5.6-1.4,15.8c0,0-17.3-13.5-8.7-54
	c0,0,12.3-107.5,7.2-127.7C53.6,137.7,52.1,94.4,40.6,81.5z M252.7,70.9c0,0-11.7,13.5-14,38.6c0,0-2.2,38-2.2,49.7
	c0,0,5,29.8,4.5,39.2c0,0,5.6,55.6,3.3,65c0,0,2.2,29.8-3.9,38.6c0,0-2.8,5.9,1.1,16.4c0,0,13.4-14,6.7-56.2
	c0,0-9.5-111.8-5.6-132.8C242.6,129.4,243.7,84.3,252.7,70.9L252.7,70.9z"/>
<path opacity="0.3" fill="#231F20" enable-background="new    " d="M90.2,294.1c0,0-10-8.9-9.5-4.5c0,0,3.9,6.7,3.9,8.9
	s1.7,5.6,1.7,5.6l13.4-1.1L90.2,294.1L90.2,294.1z M19.4,340.6c0,0-7.2-4.7-6.8-2.4c0,0,2.8,3.6,2.8,4.7s1.2,3,1.2,3l9.5-0.6
	L19.4,340.6z M254.9,339.6c0,0-7.2-4.7-6.8-2.4c0,0,2.8,3.6,2.8,4.7s1.2,3,1.2,3l9.5-0.6L254.9,339.6z M190.7,296.5
	c0,0-7.4-7.8-6.7-4.6c0,0,0.1,6.2,0.1,7.8c0,0.3,0,0.5-0.1,0.8c-0.3,1.3,0.8,2.6,2.2,2.6l15.6-0.2L190.7,296.5L190.7,296.5z
	 M278.4,338.8c0,0,6.3-5.7,5.7-3.4c0,0-0.1,4.5-0.1,5.7c0,0.2,0,0.4,0.1,0.6c0.2,1-0.7,1.9-1.9,1.9l-13.4-0.1L278.4,338.8
	L278.4,338.8z M44.1,342.3c0,0,6.3-5.7,5.7-3.4c0,0-0.1,4.5-0.1,5.7c0,0.2,0,0.4,0.1,0.6c0.2,1-0.7,1.9-1.9,1.9L34.5,347L44.1,342.3
	L44.1,342.3z M81.3,210.4c0,0-16.7,72.6-28.5,79.8l-0.6-8.4C52.3,281.8,80.7,220.4,81.3,210.4L81.3,210.4z"/>
<path opacity="0.26" fill="#231F20" enable-background="new    " d="M217.5,207.6c0,0,6.1,38.5,7.8,42.4l2.8-0.6l6.7,19.5l-1.1,3.9
	c0,0,5.6,15.1,8.9,15.1s-16.2-52.5-17.9-62.5L217.5,207.6L217.5,207.6z"/>
<path opacity="0.3" fill="#231F20" enable-background="new    " d="M93,212.7c0,0,32.2,0.9,37.4-0.3s63.8,1.8,70.7,0.3
	s4.6-3.5,4.6-3.5s-38.5-0.3-43.7,0.3C162,209.5,96.5,210.7,93,212.7L93,212.7z"/>
<path opacity="0.31" fill="#231F20" enable-background="new    " d="M53.7,201.2c0,0-5,38-17.3,46.9s12.8-25.7,11.7-40.2
	 M240.9,212.3c0,0,5,38,17.3,46.9s-12.8-25.7-11.7-40.2"/>
<g>
	<path fill="none" stroke="#FFFFFF" stroke-width="6.631" stroke-miterlimit="10" d="M195.7,95l-101,1l10.8,77.2l40.2,13.4l41.1-19
		L195.7,95z"/>
	<path fill="none" stroke="#FFFFFF" stroke-width="5.336" stroke-miterlimit="10" d="M114.8,112.1l24.1,1v47.1l-13.1-4l-3-11
		 M165.9,124.1l2-12l-20,1l2,22.1l14,1l-3,20l-11,8"/>
</g>
</svg>
