<svg xmlns="http://www.w3.org/2000/svg" viewBox="0 0 612 792"><path fill="#F495B5" d="M296 137.3s-47.7 0-51.9-12.6l-38.5 12.6s-26.8 7.5-29.3 18.4c0 0-5.6 7.3-10.6 55.8 0 0-10.3 74-8.7 83.2 0 0-2.5 24.3-2.5 31.8 0 0-4.2 64.5-4.2 77 0 0-2.5 34.3 0 40.2 0 0 1.7 15.9 7.5 19.3 0 0 2.5 20.9 1.7 24.3 0 0 15.9 7.5 31 .8 0 0 .8-21.8 3.3-26 0 0 6.3-14.5 7.4-33.6.2-2.9.2-6 .1-9.1 0 0 3.3-.8 4.5 10.3 0 0-3.3 14-2.2 15.6 1.1 1.7 34 5.6 41.3 2.8 0 0 17.9-4.5 24-3.3 0 0 17.3.6 26.2 0"/><path fill="#6D6E71" d="M296.5 136.4c-5.3 0-10.6-.3-15.8-.7-9-.7-18.5-1.7-27-5-3.1-1.2-6.9-3-8.1-6.4-.2-.6-1.2-.6-1.7-.5-12.1 4-24.3 7.9-36.4 11.9-3.9 1.3-7.9 2.5-11.8 4-4.3 1.7-8.5 3.7-12.3 6.2-3.2 2.1-6.7 4.8-8.2 8.6-.6 1.6-1.4 3.3-2 5-2 5.7-3.2 11.8-4.3 17.8-2.9 15.6-4.3 31.4-6.4 47.2-2.3 17-4.5 34.1-6.1 51.2-.6 5.9-1.3 12-1 17.9.1 1.6 0 2.8-.2 4.8-.4 4.5-.9 9-1.2 13.5-1 12.2-1.5 24.4-2.3 36.7-1 17.1-2.2 34.3-2.7 51.4-.4 13.3-2.1 26.8-.9 40.1.2 2.1.7 4.1 1.1 6.1.6 4.2 1.6 8.5 3.4 12.4.8 1.7 1.8 3.8 3.5 4.8.2.1.6.6.4.2v.3c.1.5.1 1 .2 1.5.5 4 .9 8.1 1.2 12.1.3 3.2 1 6.9.2 10.1-.1.2.1.5.3.6 10 4.7 22.6 5.2 32.7.8.3-.1.8-.5.9-.9.3-7.3.6-14.7 2.1-21.9.4-2.2 1.3-4.1 2.1-6.2 1.7-4.6 3-9.3 4.1-14 1.9-8.7 2.9-17.6 2.6-26.6-.4.3-.8.7-1.2 1l-.6.1c.1-.1 0-.1 0 0 0-.1.6.4.8.7 1.5 1.7 1.9 4.5 2.2 6.6.3 1.9.1 2.9-.3 4.7-.5 2.2-.9 4.4-1.3 6.6-.4 2.1-1.8 6.7.9 7.7 3 1.1 6.5 1.4 9.7 1.8 5 .7 10 1.1 15 1.4 4.5.2 9.1.5 13.6-.1.8-.1 1.5-.2 2.3-.4.3-.1.6-.2.8-.2.7-.2.1 0 .4-.1l3.9-.9c5-1.1 10-2.1 15.1-2.5 3.6-.2 7.4.2 11.1.3 6.5.1 13.1.2 19.7-.2 1.5-.1 2.3-1.9.3-1.8-9.1.5-18.8.1-27.7-.2-7.9-.3-16.4 2-23.9 3.9-3.7 1-7.9.7-11.8.5-5.2-.2-10.4-.6-15.6-1.3-3.6-.4-7.3-.8-10.7-1.8-.4-.1-.6-.1-.8-.3.1.2 0-1 0-1.2 0-2.1.5-4.3.9-6.3.4-2.2.9-4.5 1.4-6.7s-.2-4.8-.8-6.9c-.7-2.3-2.1-5.6-5.1-4.9-.4.1-1.2.5-1.2 1 .4 13.4-1.8 26.9-6.3 39.5-.7 2-1.7 3.9-2.2 5.9-1.1 4.3-1.4 8.9-1.8 13.3-.3 3.3-.5 6.6-.6 9.8l.9-.9c-9 3.9-20.4 3.3-29.2-.9l.3.6c.7-3.2 0-7-.2-10.2-.3-4.1-.7-8.1-1.2-12.2-.1-.6 0-1.7-.3-2.3-.3-.6-1.4-1.1-1.9-1.7-.7-.8-1.3-1.8-1.8-2.8-1.9-3.9-2.9-8.3-3.5-12.5-.3-2.1-.9-4-1.1-6.1-.4-4-.4-8.1-.3-12.2.1-7.6.5-15.2 1-22.7.3-4.9.3-9.8.5-14.7.4-9.1.9-18.1 1.5-27.1.5-8.5 1-17 1.6-25.6.2-3.8.6-7.6.7-11.5.2-9 1.2-17.9 2.1-26.8.2-1.8.4-3.5.3-5.3-.2-2.2 0-4.4.1-6.6.9-16.6 3.2-33.2 5.3-49.8 1.7-13.4 3.4-26.8 5.1-40.1 1.3-9.9 2.7-19.9 5-29.7.8-3.6 1.7-7.3 3.3-10.5.2-.3.4-.6.5-.9.7-1.6 1.2-3 2.4-4.4 1.4-1.6 3.1-2.9 4.9-4.1 6.2-4.1 13.3-6.8 20.4-9 11.6-3.5 23.1-7.5 34.7-11.3 1.4-.5 2.9-.9 4.3-1.4-.6-.2-1.1-.3-1.7-.5 1.1 3.1 4 5 6.8 6.3 4 1.9 8.3 2.9 12.5 3.8 8.9 1.8 18.1 2.5 27.2 2.9 2.1.1 4.2.1 6.2.1.6 0 1.6-.2 1.9-.8.2-.7-.3-1.1-.9-1.1z"/><path fill="#F495B5" d="M291.5 137.3s47.7 0 51.9-12.6l38.5 12.6s26.8 7.5 29.3 18.4c0 0 5.6 7.3 10.6 55.8 0 0 10.3 74 8.7 83.2 0 0 2.5 24.3 2.5 31.8 0 0 4.2 64.5 4.2 77 0 0 2.5 34.3 0 40.2 0 0-1.7 15.9-7.5 19.3 0 0-2.5 20.9-1.7 24.3 0 0-15.9 7.5-31 .8 0 0-.8-21.8-3.3-26 0 0-6.3-14.5-7.4-33.6-.2-2.9-.2-6-.1-9.1 0 0-3.3-.8-4.5 10.3 0 0 3.3 14 2.2 15.6s-34 5.6-41.3 2.8c0 0-17.9-4.5-24-3.3 0 0-17.3.6-26.2 0"/><path fill="#6D6E71" d="M291 138.2c5.8 0 11.6-.3 17.4-.8 9.4-.8 19.4-1.9 28.2-5.6 3.4-1.4 7-3.6 8.3-7.2-.8.3-1.5.7-2.3 1 12.1 3.9 24.1 7.9 36.2 11.8 3.9 1.3 7.8 2.5 11.6 4 4.2 1.7 8.4 3.6 12.1 6.2 1.7 1.2 3.4 2.5 4.8 4.1 1.3 1.5 1.8 2.9 2.6 4.7.2.5.2.4.4.7.5 1.1 1 2.3 1.4 3.5 2.1 6.1 3.3 12.6 4.4 18.9 2.7 15.3 4.2 30.9 6.2 46.3 2.3 17 4.4 34.1 6 51.2.5 5.6 1.4 11.4.9 17-.2 1.8.2 3.6.3 5.4.4 4.6.9 9.1 1.2 13.7 1 12.1 1.5 24.2 2.2 36.3 1 16.9 2.2 33.9 2.7 50.9.1 4.8.5 9.5.7 14.3.4 8.5 1 17.2.1 25.7-.2 2.1-.8 4.1-1.1 6.1-.7 4.3-1.6 8.8-3.7 12.7-.4.8-.9 1.6-1.6 2.3-.6.6-1.6 1.1-1.9 1.8-.3.7-.2 1.7-.3 2.4-.5 4.1-.9 8.2-1.2 12.3-.2 3.1-.9 6.7-.2 9.8.3-.4.6-.7.8-1.1-5.4 2.5-11.7 3.6-17.6 3.4-2.6-.1-5.1-.5-7.6-1.1-.6-.2-1.2-.4-1.9-.6-.3-.1-1.9-.6-1.9-.5-.1-.1 0-.3 0-.5-.2-.6-.1-1.4-.1-2-.1-1.3-.1-2.6-.2-3.9-.4-5.9-.6-12.2-2.3-17.9-.4-1.2-.8-1.9-1.2-3.1-1-2.4-1.8-4.9-2.5-7.5-3.2-10.9-4.8-22.3-4.5-33.7 0-.4-.2-.6-.6-.7-2.3-.5-4.1 1.4-5 3.3-1.1 2.3-2 5.7-1.8 8.3.1 1.2.5 2.4.8 3.5.5 2.3 1 4.6 1.3 7 .2 1.3.2 3.6.4 4.5 0-.2.4-.2-.1 0-.6.2-1.2.3-1.9.5-1.9.4-3.8.7-5.6.9-4.9.7-9.9 1.2-14.9 1.5-4.6.3-9.3.5-13.8 0-2.5-.3-4.9-1.1-7.4-1.7-5-1.1-10.1-2.1-15.2-2.5-3.6-.3-7.4.2-11 .2-6.6.1-13.3.2-19.9-.2-1.2-.1-3 1.7-1.1 1.8 5.9.4 11.9.3 17.8.2 3.3-.1 6.6-.1 9.8-.3 4.9-.4 10.1.8 14.9 1.8 2.8.6 5.6 1.3 8.4 2 3.8.9 8 .8 11.9.7 5.2-.1 10.5-.6 15.7-1.2 3.9-.4 7.8-.9 11.6-1.8.9-.2 2-.4 2.8-1 1.1-.9.9-2.5.8-3.7-.2-2.5-.7-5.1-1.2-7.6-.3-1.7-1-3.5-1.1-5.2-.1-1.4.4-3.1.7-4.5.3-1.3.6-2.6 1.3-3.7.2-.3.3-.5.5-.8s.3-.3.3-.3-.4.1-.7 0c-.2-.2-.4-.5-.6-.7-.4 13.4 1.8 27 6.3 39.6.7 2 1.7 3.9 2.2 5.9 1.1 4.3 1.4 8.9 1.8 13.3.3 3.3.5 6.7.6 10 .1.2.2.3.3.4 10.1 4.4 22.7 3.8 32.7-.9.4-.2 1-.6.8-1.1-.4-1.7-.2-3.6-.1-5.3.1-2.7.4-5.4.6-8 .3-3.6.7-7.1 1.1-10.7-.2.2-.4.5-.5.7 3.4-2.1 5-6.4 6.1-10 .9-3.2 1.4-6.4 2-9.7.3-1.8.9-4.5 1-6.8.2-4.1.2-8.1.1-12.2-.2-6.9-.5-13.8-1-20.7-.3-4.3-.3-9.4-.5-14-.8-16.8-1.8-33.6-2.9-50.4-.7-11.8-1.3-23.6-2.4-35.4-.3-3.1-.6-6.3-.9-9.4-.1-.7 0-.5.1-1.3.1-.9.1-1.7.1-2.6 0-6.2-.7-12.4-1.3-18.5-1.6-16.2-3.7-32.4-5.8-48.5-1.9-14.5-3.3-29.2-5.8-43.6-1.1-6.5-2.3-13.1-4.3-19.5-.6-2-1.5-3.8-2.3-5.7s-1.6-3.7-3.1-5.3c-2.9-3-6.6-5.2-10.3-7.1-5.3-2.7-10.8-4.7-16.4-6.4-11.6-3.6-23.1-7.5-34.6-11.3-1.3-.4-2.6-.8-3.9-1.3-.8-.3-2 .2-2.3 1-1 2.8-4.1 4.4-6.6 5.5-3.9 1.7-8.2 2.6-12.4 3.4-8.4 1.5-16.9 2.2-25.5 2.5-1.9.1-3.6.1-5.5.1-.6 0-1.6.2-1.9.8-.1.8.3 1.2 1 1.2z"/><path fill="#FFF" stroke="#58595B" stroke-miterlimit="10" d="M203.6 419.7s4.5 5.6 2.8 12.3l-2.2 12.8s23.4 5 36.8 2.8c0 0 18.4-3.9 22.9-3.9 0 0 25.7 1.1 29.6 0 0 0 30.1 1.1 34 1.1 0 0 11.7 2.4 15.1 2.4 0 0 32.9 3.2 40.7-3 0 0-5.2-21.8.9-26.8 0 0-27.5 5.2-38 2.2 0 0-26-3-32.7-.7 0 0-9.3 1.1-31.3 2.2 0 0-13-1.5-29.8-1.1 0 0-13.8.2-21.6.2.2.1-22.7 6.2-27.2-.5z"/><path fill="#FFF" stroke="#58595B" stroke-width="1.017" stroke-miterlimit="10" d="M158 463s2-.4 6.3-.7c0 0 9.8-.4 16.9 1.1 0 0 8.2.7 12.9-1.8 0 0-2.7 5.8-2.7 12.8l-.4 14.2s-16.5 4.7-30.6-1.5c0 0 .4-14.6-2.4-24.1z"/><path fill="#FFF" stroke="#58595B" stroke-width="1.041" stroke-miterlimit="10" d="M430 460.6s-2.1-.4-6.7-.8c0 0-10.4-.4-17.9 1.2 0 0-8.7.8-13.7-1.9 0 0 2.9 6.2 2.9 13.6l.4 15.1s17.5 5 32.5-1.5c0-.1-.4-15.6 2.5-25.7z"/><path fill="#6D6E71" d="M167.8 182.6c3.3 1.5 7.1 4.3 10.2 6.8 7.2 5.9 13.1 13.3 16.7 21.8 1.7 4.1 3 8.4 3.6 12.8.3 2.3.5 4.7.7 7 1.1 10.8 1.8 21.6 2.2 32.5.2 6.6.3 13.1.1 19.7-.1 2.3-.1 4.6-.4 6.9-.7 4.9-1.3 9.8-1.9 14.8-2.2 18.6-4 37.3-5 56.1-.5 9.4-.8 18.9-.4 28.3.1 3.2.7 6.4.7 9.6 0 4.5.6 8.9 1.8 13.3.9 3.5 2.2 7 3.8 10.2.4.8 3.2-.2 2.9-.8-3-6-4.8-12.5-5.4-19.1-.1-1.5-.2-3-.2-4.5 0-1.3-.2-2.6-.3-4-.7-8.9-.6-17.9-.3-26.8.7-19.5 2.5-38.9 4.8-58.2.7-5.9 1.4-11.8 2.2-17.7.9-6.7.8-13.4.8-20.2-.1-11.9-.8-23.7-1.9-35.5-.5-6.1-.9-12.4-2.5-18.4-4-15-15.2-28.2-28.9-35.4-.3-.2-.6-.3-.9-.4-.7-.4-3.4.7-2.4 1.2zM414.4 173.6c-4 1.9-7.7 4.5-11.1 7.3-7.4 6.1-13.4 13.7-17.1 22.6-1.7 4-2.9 8.3-3.5 12.7-.3 2.6-.6 5.3-.8 7.9-1.1 11.4-1.9 22.9-2.2 34.4-.2 6.8-.2 13.6.1 20.4.1 1.5.2 2.9.4 4.3.8 5.6 1.4 11.3 2.1 17 1.1 9.3 2 18.7 2.9 28.1.9 10.5 1.7 21.1 2.1 31.7.3 9.2.5 18.5-.3 27.7-.1 1.2-.4 2.3-.2 3.5.2 1.5.3 2.9.3 4.4.2 5.5 0 11-1.2 16.4-.6 3-1.6 5.9-2.9 8.6-.3.6 1 .5 1.2.5.6-.1 1.4-.3 1.7-.9 4.4-8.9 4.9-19.8 3.8-29.5-.1-1.1.1-2.2.2-3.3.2-2 .3-4 .4-6 .2-4.6.2-9.1.2-13.7-.1-10.3-.7-20.7-1.5-31-.8-9.9-1.7-19.9-2.8-29.8-.8-7-1.6-13.9-2.5-20.9-.2-1.6-.4-3.3-.6-4.9-.5-3.5-.4-7.1-.4-10.7-.2-12.8.5-25.5 1.5-38.2.3-4.2.7-8.4 1.2-12.7.2-2 .4-4 .8-6 2-10.4 7.2-19.9 14.6-27.5 4.2-4.3 9-8.1 14.4-10.9.2-.1 1.3-.6.5-.3.4-.2 1.1-.5.8-1-.5-.6-1.8-.3-2.1-.2z"/><path fill="none" stroke="#FFF" stroke-miterlimit="10" d="M293.8 162.6c-50.6-3-50.6-38.1-50.6-38.1l-12.3 3.9s8.6 44.3 62.5 43.2"/><path fill="#FFF" d="M293 137.3c-45-.6-48.3-11.7-48.3-11.7l-12.6 3.9s12.1 17.3 61.5 16.2"/><path fill="#6D6E71" d="M293.1 136.3c-11.7-.2-23.9-.7-35.2-4.1-2.7-.8-5.3-1.8-7.7-3.2-.8-.4-1.5-.9-2.2-1.5-.5-.4-.6-.5-1.2-1.1-.3-.3-.5-.6-.7-1l-.1-.2c-.2-.7-1.2-.8-1.7-.6l-12.6 3.9c-.6.2-1.6.8-1.1 1.6 1.8 2.5 4.7 4.5 7.3 6 8.3 5 18.1 7.6 27.6 9 9.2 1.4 18.5 1.7 27.7 1.5 1.6 0 2.2-2.1.3-2.1-14 .3-28.4-.6-41.7-4.9-6-2-12-4.6-16.8-8.9l-.3-.3-.4-.4c-.2-.2-.4-.4-.6-.7-.2-.2-.3-.4-.5-.6-.4.5-.7 1.1-1.1 1.6l12.6-3.9c-.6-.2-1.1-.4-1.7-.6.6 1.8 2.6 3.3 4.1 4.3 6.2 3.9 13.9 5.4 21 6.4 8.1 1.2 16.3 1.6 24.5 1.7 1.9.2 2.5-1.9.5-1.9z"/><path fill="#FFF" d="M293.6 137.3c45-.6 48.3-11.7 48.3-11.7l12.6 3.9s-12.1 17.3-61.5 16.2"/><path fill="#6D6E71" d="M293.4 138.4c12.2-.2 24.8-.8 36.5-4.3 4.3-1.3 9.3-3.1 12.3-6.7.5-.6.9-1.2 1.1-1.9-.8.4-1.5.7-2.3 1.1l12.6 3.9c-.1-.5-.2-.9-.4-1.4-.4.6-1 1.1-1.5 1.7l-.2.2c-.1.1.2-.2 0 0-.2.1-.3.3-.5.4-.4.3-.8.7-1.2 1-1 .8-2.1 1.5-3.2 2.2-7.6 4.7-17.2 7.2-26.1 8.5-8.9 1.4-18 1.7-27 1.5-.7 0-1.6.2-1.9.9-.3.6.2 1.2.9 1.2 14.4.3 29.3-.6 43.1-5.1 6.3-2.1 12.8-4.9 17.8-9.4.8-.7 1.7-1.5 2.3-2.4.4-.5.3-1.2-.4-1.4l-12.6-3.9c-.9-.3-2 .1-2.3 1.1.2-.5 0-.1 0 0-.1.1-.1.2-.2.3-.1.2.2-.3 0 0-.1.1-.1.2-.2.2-.2.2-.3.4-.5.6l-.3.3-.2.2c-.6.5-1.3 1-2 1.5-.5.3-.5.3-1.2.7-.5.3-1.1.5-1.6.8-1.4.6-2.6 1.1-4 1.5-4.2 1.4-8.6 2.2-13 2.9-7.8 1.1-15.7 1.5-23.6 1.6-1.6.1-2.2 2.2-.2 2.2z"/><path fill="#FFF" d="M294 162.6c-50.5-3-50.5-38.1-50.5-38.1l-12.2 3.9s8.5 44.3 62.3 43.1"/><path fill="#6D6E71" d="M294.6 161.7c-13.7-.8-28.2-4.2-38.4-14-5.4-5.2-9.2-11.9-10.6-19.2-.2-1-.4-2.1-.5-3.2 0-.3 0-.6-.1-.9v-.1c0-.8-1.1-.9-1.7-.7-4.1 1.3-8.2 2.6-12.2 3.9-.5.2-1.4.5-1.2 1.2 1 5.3 3.5 10.6 6.3 15.2 6.3 10.6 15.9 18.9 27.3 23.5 9.4 3.8 19.6 5.1 29.7 5 .6 0 1.6-.2 1.9-.8s-.2-1-.8-1c-15.8.3-31.9-3.5-44-14.1-7.1-6.2-12.6-14.3-15.8-23.2-.6-1.7-1.2-3.5-1.6-5.4l-1.2 1.2c4.1-1.3 8.2-2.6 12.2-3.9-.6-.2-1.1-.5-1.7-.7 0 4.2 1.3 8.6 3.1 12.4 4.2 9.4 12.2 16.4 21.5 20.5 8.4 3.8 17.6 5.4 26.8 5.9.6 0 1.6-.2 1.9-.8.2-.4-.4-.8-.9-.8z"/><path fill="#FFF" d="M292.2 162.6c51.6-.7 50.5-38.1 50.5-38.1l12.2 3.9s-8.5 44.3-62.3 43.1"/><path fill="#6D6E71" d="M291.2 163.2c14.5-.2 30.3-3.2 41.2-13.4 5.9-5.5 9.8-12.9 11.2-20.8.3-1.6.5-3.2.4-4.8-.9.3-1.8.6-2.6 1 4.1 1.3 8.2 2.6 12.2 3.9-.1-.1-.2-.2-.2-.3-1 5-3.3 10-5.8 14.4-5.9 10.3-14.9 18.4-25.8 23.1-8.9 3.8-18.7 5-28.3 4.8-.6 0-1.5.1-2 .5-.4.3-.5.6.2.6 16.4.3 33.2-3.6 46-14.2 7.7-6.3 13.5-14.8 17-24.2.7-1.8 1.3-3.7 1.7-5.6 0-.2 0-.2-.2-.3-4.1-1.3-8.2-2.6-12.2-3.9-.5-.2-2.7.2-2.6 1 .1 4.1-1 8.4-2.5 12.2-3.6 9.1-10.8 16.1-19.7 20-8.1 3.6-17.1 4.8-25.8 4.9-.6 0-1.5.1-2 .5-.7.2-.8.6-.2.6z"/><path opacity=".33" stroke="#6D6E71" stroke-miterlimit="10" d="M249.9 139.9s4.8 18.6 43.2 21.2c0 0 32 2.2 44.3-21.2 0 0-13 7.4-43.9 7.1 0 0-33.9 0-43.6-7.1z"/><path fill="#6D6E71" d="M294 322.7c7 .1 14 .3 21.1.4 11.5.2 22.9.5 34.4.8 2.1.1 4.2.1 6.2.2.6 0 1.3.1 1.9.1.2 0 .4 0 .7.1h.1c-.2-.1-.4-.3-.6-.4 1.5 9.8 3.5 19.5 5.8 29.1 2 8.5 4.4 16.9 7.2 25.2 2.6 7.5 5.7 15 9.9 21.8 1.9 3 4 5.9 6.7 8.2.5.4.5.3.5 1 0 .9-.1 1.8-.2 2.8-.4 3.1-1.6 6-3.6 8.4.3-.2.5-.4.8-.6-.1.1-.3.1-.5.2-.4.1.2-.1-.2.1l-.9.3c-1.7.5-3.4.7-5.2.9-2.9.3-5.8.2-8.7 0-2-.2-3.9-.4-5.8-.8-1.6-.3-3.3-.9-5-1-2.5-.2-5.1-.2-7.6-.3-4.9-.2-9.9-.3-14.8-.4-4.3-.1-8.7-.3-13.1.1.4.1.8.2 1.1.2-.5-.6-2-.7-2.7-.7-4.4-.5-8.8-.3-13.2-.1-5.2.3-10.4.7-15.6 1.1-.4 0-2.2.7-1.5 1.4l.2.2c.4-.4.8-.9 1.2-1.3-3.7.8-7.8.6-11.6.5-4-.1-8-.4-12-.8-4.6-.4-9.6-.5-14.5-.5-7.2.1-14.3.3-21.5.6-.8 0-1.6.1-2.4.1-1.8.1-3.6.7-5.3 1-5.2 1-10.5 1.4-15.8.9-1.7-.1-3.3-.4-4.9-.7-.5-.1-1-.2-1.5-.4-.2 0-.4-.1-.5-.2.2.1 0 .1-.1 0-.7-.6-1.4-1.8-1.9-2.6-.8-1.3-1.4-2.6-1.9-4s-.9-2.8-1-4.3c-.2.3-.4.5-.6.8 4.3-3 7.1-8.1 9.4-12.7 3.4-6.8 6.1-13.9 8.6-21.1 4.9-14.2 9-28.6 12.6-43.2.8-3.2 1.6-6.4 2.3-9.6-.5.3-1.1.7-1.6 1 .3-.1.5-.1.8-.1h.7.7c1.7-.1 3.4-.1 5.1-.2 5.2-.2 10.4-.3 15.7-.4 11.3-.3 22.5-.5 33.8-.7 2.5 0 5.1-.1 7.6-.1.6 0 1.6-.2 1.9-.8.3-.6-.2-.8-.8-.8-7.1.1-14.2.3-21.3.4-11.5.2-23 .5-34.4.8-2.1.1-4.1.1-6.2.2-1 0-2.1 0-3.2.2-.5.1-1.5.3-1.6 1-2 8.7-4.2 17.3-6.6 25.9-4.2 15.2-8.8 30.5-15.4 44.8-1.5 3.1-3 6.2-4.9 9.1-1.3 2-3.1 4.3-4.8 5.5-.3.2-.6.4-.6.8.4 3.8 2.2 7.7 4.6 10.7 1.2 1.4 3.5 1.6 5.2 1.9 4.4.7 8.9.8 13.3.4 3.3-.3 6.5-.8 9.7-1.5.3-.1.6-.1.9-.2 0 0 1.6-.4.7-.2h.9c6.7-.2 13.4-.5 20.1-.6 3.6-.1 7.3-.1 10.9-.1.6 0 1.3 0 1.9.1h.7c.1 0 .9.1.4 0 .7.1 1.5.2 2.2.2 4.2.4 8.5.7 12.7.9 4.6.2 9.4.3 14-.6.3-.1 1.7-.7 1.2-1.3l-.2-.2c-.5.5-1 .9-1.5 1.4 8.7-.8 17.7-1.8 26.5-1.2.8.1.9.1 1.8.2.2 0 .4.1.6.1.4.1 0 0 .2 0 .1 0 .5.2.1 0 1 .4 1.6.2 2.5.2 7.7-.3 15.4.1 23.1.3l9 .3c.5 0 1 .1 1.5.1 3.3.6 6.5 1.4 9.9 1.7 4.5.4 9.1.4 13.5-.4 1.7-.3 3.8-.6 5.3-1.5 1.1-.7 1.9-2.2 2.4-3.3.6-1.2 1.1-2.4 1.4-3.7.5-1.8.7-3.6.6-5.5 0-1.1-1.1-1.6-1.9-2.4-1.1-1.1-2.1-2.2-3-3.4-4.6-6-7.7-13.1-10.4-20.1-3.1-8.1-5.6-16.5-7.8-24.9-2.9-11.1-5.3-22.4-7.1-33.7 0-.2-.1-.4-.1-.6s-.4-.4-.6-.4c-2.5-.5-5.2-.3-7.7-.4-5.2-.2-10.4-.3-15.7-.4-11.3-.3-22.6-.5-34-.7-2.6 0-5.2-.1-7.7-.1-.6 0-1.6.2-1.9.8-.2.4.4.7.9.7z"/><path fill="#6D6E71" d="M229.2 325.1c.8 1 1.7 1.9 2.5 2.9.5.6 1.1 1.2 1.6 1.9.2.2.3.5.5.6.5.3-.2.2.1-.2-.3.4-.3 1.8-.4 2.3-.8 4.9-1.8 9.9-2.9 14.8-3.7 16.3-8.5 32.7-16.3 47.6-4.1 7.9-9.2 15.7-16.2 21.3-.5.4-.3 1 .3 1.1.7.2 1.6-.1 2.1-.6 6.4-5.1 11.2-11.9 15.1-19 4.3-7.8 7.7-16.1 10.6-24.6 4.4-13 7.8-26.4 10.1-40 .2-1 .6-2.2.5-3.3-.1-.9-1.4-2-2-2.6-1-1.1-2-2.3-3-3.4-.5-.9-3.4.2-2.6 1.2zM355.3 324.7c-.6 1.2-1.2 2.5-1.8 3.7-.2.4-.4.7-.4 1.1 0 1 .3 2.2.5 3.2.9 5.3 1.9 10.5 3 15.7 3.5 16 8 32 15.2 46.7 3.7 7.6 8.3 15.1 14.8 20.6.6.5 3.1-.6 2.7-1-5.8-4.9-10-11.5-13.5-18.1-3.9-7.5-7-15.4-9.6-23.4-4.2-13-7.3-26.4-9.6-39.9-.2-1.5-.4-2.9-.7-4.4-.1-.5-.1-.3.1-.6.7-1.4 1.4-2.8 2.1-4.1.2-.4-1-.3-1.1-.2-.5 0-1.5.2-1.7.7z"/><path fill="#6D6E71" d="M236 329.5c10.2.4 20.5.7 30.7.9 19.4.4 38.7.7 58.1.2 8.7-.2 17.5-.5 26.1-1.5.5-.1 1.6-.2 1.9-.7s-.2-.5-.7-.5c-7.6.9-15.2 1.2-22.8 1.5-9.6.3-19.2.3-28.9.3-17.3-.1-34.6-.4-51.8-1-3.6-.1-7.2-.2-10.8-.4-.6 0-1.5.1-2 .5-.4.4-.5.7.2.7z"/><path fill="#FFF" d="M371.6 366.1s-.1 8.1-8.9 7.1c0 0 5.7 17.2 6.2 18.2 0 0 6.7.4 9.1-6.4l-6.4-18.9z"/><path fill="#6D6E71" d="M370.2 366.5v.2c0 .3-.1.5-.1.8-.1.8-.4 1.5-.7 2.2-1.2 2.4-3.2 3-5.7 2.8-.5 0-2.6.3-2.4 1.1 1 2.9 1.9 5.8 2.9 8.7.7 2.1 1.4 4.1 2.1 6.2.4 1.1.7 2.3 1.2 3.3.2.3.5.3.9.3 2 .1 4.1-.5 5.8-1.4 1.4-.7 2.7-1.7 3.7-3 .6-.8 1.7-2.3 1.5-3.3-.1-.6-.5-1.3-.7-2-.4-1.1-.8-2.3-1.1-3.4-.9-2.7-1.8-5.5-2.8-8.2-.6-1.7-1.1-3.4-1.7-5.1-.3-.8-3.2 0-2.9.8 1.2 3.6 2.4 7.2 3.6 10.9.7 2.2 1.5 4.4 2.2 6.6.1.4.5 1 .5 1.4s-.5 1.1-.7 1.5c-.4.8-1 1.5-1.6 2.1-1.4 1.3-3.2 1.9-4.7 1.8l.9.3c-.5-1-.8-2.2-1.2-3.3l-2.1-6.3c-1-2.9-1.9-5.8-2.9-8.7-.8.4-1.6.7-2.4 1.1 3.5.4 7.6-.4 9.8-3.5.9-1.4 1.5-3 1.5-4.7 0-.7-2.9-.2-2.9.8z"/><path opacity=".4" d="M185.7 197.6s15.2 12.9 18 37.1c0 0 2.9 36.6 2.9 47.8 0 0-6.5 28.7-5.8 37.7 0 0-7.2 53.5-4.3 62.5 0 0-2.9 28.7 5.1 37.1 0 0 3.6 5.6-1.4 15.8 0 0-17.3-13.5-8.7-54 0 0 12.3-107.5 7.2-127.7 0 0-1.4-43.4-13-56.3zM397.8 187s-11.7 13.5-14 38.6c0 0-2.2 38-2.2 49.7 0 0 5 29.8 4.5 39.2 0 0 5.6 55.6 3.3 65 0 0 2.2 29.8-3.9 38.6 0 0-2.8 5.9 1.1 16.4 0 0 13.4-14 6.7-56.2 0 0-9.5-111.8-5.6-132.8.1 0 1.2-45.1 10.1-58.5z"/><path opacity=".3" d="M235.4 410.2s-10-8.9-9.5-4.5c0 0 3.9 6.7 3.9 8.9s1.7 5.6 1.7 5.6l13.4-1.1-9.5-8.9zM164.6 456.7s-7.2-4.7-6.8-2.4c0 0 2.8 3.6 2.8 4.7 0 1.2 1.2 3 1.2 3l9.5-.6-6.7-4.7zM400.1 455.7s-7.2-4.7-6.8-2.4c0 0 2.8 3.6 2.8 4.7s1.2 3 1.2 3l9.5-.6-6.7-4.7zM335.9 412.6s-7.4-7.8-6.7-4.6c0 0 .1 6.2.1 7.8 0 .3 0 .5-.1.8-.3 1.3.8 2.6 2.2 2.6l15.6-.2-11.1-6.4zM423.6 455s6.3-5.7 5.7-3.4c0 0-.1 4.5-.1 5.7 0 .2 0 .4.1.6.2 1-.7 1.9-1.9 1.9l-13.4-.1 9.6-4.7zM189.3 458.4s6.3-5.7 5.7-3.4c0 0-.1 4.5-.1 5.7 0 .2 0 .4.1.6.2 1-.7 1.9-1.9 1.9l-13.4-.1 9.6-4.7zM226.5 326.5s-16.7 72.6-28.5 79.8l-.6-8.4c.1.1 28.5-61.3 29.1-71.4z"/><path opacity=".26" d="M362.7 323.7s6.1 38.5 7.8 42.4l2.8-.6L380 385l-1.1 3.9s5.6 15.1 8.9 15.1-16.2-52.5-17.9-62.5l-7.2-17.8z"/><path opacity=".3" d="M238.2 328.9s32.2.9 37.4-.3c5.2-1.2 63.8 1.8 70.7.3s4.6-3.5 4.6-3.5-38.5-.3-43.7.3c0-.1-65.5 1.1-69 3.2z"/><path opacity=".31" d="M198.9 317.3s-5 38-17.3 46.9 12.8-25.7 11.7-40.2M386.1 328.5s5 38 17.3 46.9-12.8-25.7-11.7-40.2"/><g><g fill="#FFF"><path d="M247.5 276.5l6.7 16.3h.1l6.8-16.3h7.9v2.9l-1.3.1c-.8.1-1.2.5-1.2 1.3l1 16.5 2.5.1v3.1h-9.6v-2.9l1.4-.1c.7 0 1.1-.4 1-.9l-.8-12.7-6.1 14.4h-3.8l-6-14.2h-.1l-.8 13.4 2.6.1v3.1h-9.4v-2.9l1.4-.1c.6 0 .9-.4 1-1l1.1-16.7-2.4-.1v-3.1h8v-.3zM286.6 299.8V297c-1.5 1.9-3.6 2.8-6.4 2.8-4.1 0-6.1-2.1-6.1-6.2v-7.2c0-.6-.3-1-1-1l-1.3-.1v-3h7v10.3c0 1.3.2 2.2.6 2.9.4.6 1.2 1 2.5 1 1.2 0 2.2-.3 3-1s1.1-1.5 1.1-2.5v-6.5c0-.4-.1-.7-.2-.8s-.4-.2-.8-.2l-1.3-.1v-3h7v17.4c0 2.9-.8 5-2.3 6.4-1.5 1.3-3.9 2-7 2s-5.6-.4-7.3-1.2v-5l3.8-.3v1.7c0 .6.3 1.1 1 1.3.7.2 1.6.3 2.7.3 3.3.1 5-1.7 5-5.2zM310.9 297.2c3.2 0 4.8-1.2 4.8-3.5 0-1.2-.7-2.1-2.1-2.7-.7-.3-1.7-.6-2.9-.9-1.2-.3-2.2-.6-2.9-.9-.8-.3-1.6-.7-2.4-1.2-1.6-1.1-2.3-2.7-2.3-4.9s.8-3.9 2.5-5.2c1.7-1.3 3.9-1.9 6.6-1.9s5.2.5 7.6 1.5v5.4l-4 .3v-2.1c0-.4-.1-.6-.2-.8-.3-.5-1.2-.7-2.8-.7-1.6 0-2.7.3-3.5.8s-1.1 1.3-1.1 2.3c0 .8.3 1.4 1 2 .4.4 1.1.7 1.9 1s1.7.5 2.7.8c.9.3 1.8.6 2.5.9s1.5.7 2.3 1.3c1.6 1.1 2.4 2.7 2.4 5s-.9 4-2.7 5.3c-1.8 1.3-4.1 1.9-7.1 1.9s-5.5-.5-7.9-1.5v-5.7l4-.3v2.2c0 .4.1.6.2.8s.4.3 1 .5c.4.2 1.3.3 2.4.3zM346.8 288.5c0 3.1-.7 5.6-2.2 7.6-1.4 2-3.5 3.3-6.2 4v.1c2 .1 4 .6 5.8 1.7 1.3.7 2.9 1.1 4.6 1.1.4 0 .8 0 1.2-.1l-.5 3.5h-1.1l-3.9-.6c-1.7-.5-3.3-1.1-4.9-1.8-1.8-.8-3.5-1.2-5-1.2-.7 0-1.5.1-2.2.2l.6-2.6c-6.3-.7-9.4-4.7-9.4-12 0-2.2.4-4.1 1.1-5.8.7-1.7 1.7-3 2.9-3.9 2.3-1.8 5.1-2.8 8.2-2.8s5.8 1 7.9 3c2 2.2 3.1 5.4 3.1 9.6zm-18.2-.1c0 6 2.3 8.9 6.8 8.9 2.4 0 4.2-.9 5.2-2.7.9-1.6 1.3-3.6 1.3-5.9 0-2.1-.4-4-1.2-5.8-.4-1-1.1-1.7-2-2.3-.9-.6-2.1-.8-3.5-.8-1.5 0-2.7.4-3.7 1.3s-1.8 1.9-2.2 3.1c-.5 1.2-.7 2.6-.7 4.2zM368.5 300.5h-18.8v-2.9l1.3-.1c.8-.1 1.2-.4 1.2-1v-16.7l-2.3-.1v-3.1h9.6v2.9l-1.3.1c-.8.1-1.1.5-1.1 1.2v16.1h6.6c.4 0 .6-.1.7-.3.1-.2.2-.5.2-.9v-2.5l4 .3v7h-.1z"/></g><g fill="none" stroke="#FFF" stroke-miterlimit="10"><ellipse stroke-width="3.314" cx="295.1" cy="224.9" rx="23.1" ry="8.3"/><path stroke-width="3.314" d="M270.8 224.6v35.1s29.7 15.2 49.3-2.5l1.2-32.7c0 .1-20.3-16.6-50.5.1z"/><path stroke-width="3.759" d="M271.4 238.9s18.9 13.8 49.3-.7M271.4 248.7s18.9 13.8 49.3-.7"/></g></g></svg>