<?xml version="1.0" encoding="utf-8"?>
<!-- Generator: Adobe Illustrator 25.0.0, SVG Export Plug-In . SVG Version: 6.00 Build 0)  -->
<svg version="1.1" id="Layer_1" xmlns="http://www.w3.org/2000/svg" xmlns:xlink="http://www.w3.org/1999/xlink" x="0px" y="0px"
	 viewBox="0 0 297 375" enable-background="new 0 0 297 375" xml:space="preserve">
<path fill="#2AA872" d="M151.7,16.1c0,0-47.7,0-51.9-12.6L61.3,16.1c0,0-26.8,7.5-29.3,18.4c0,0-5.6,7.3-10.6,55.8
	c0,0-10.3,74-8.7,83.2c0,0-2.5,24.3-2.5,31.8c0,0-4.2,64.5-4.2,77c0,0-2.5,34.3,0,40.2c0,0,1.7,15.9,7.5,19.3c0,0,2.5,20.9,1.7,24.3
	c0,0,15.9,7.5,31,0.8c0,0,0.8-21.8,3.3-26c0,0,6.3-14.5,7.4-33.6c0.2-2.9,0.2-6,0.1-9.1c0,0,3.3-0.8,4.5,10.3c0,0-3.3,14-2.2,15.6
	c1.1,1.7,34,5.6,41.3,2.8c0,0,17.9-4.5,24-3.3c0,0,17.3,0.6,26.2,0"/>
<path fill="#6D6E70" d="M152.3,15.2c-5.3,0-10.6-0.3-15.8-0.7c-9-0.7-18.5-1.7-27-5c-3.1-1.2-6.9-3-8.1-6.4
	c-0.2-0.6-1.2-0.6-1.7-0.5c-12.1,4-24.3,7.9-36.4,11.9c-3.9,1.3-7.9,2.5-11.8,4c-4.3,1.7-8.5,3.7-12.3,6.2c-3.2,2.1-6.7,4.8-8.2,8.6
	c-0.6,1.6-1.4,3.3-2,5c-2,5.7-3.2,11.8-4.3,17.8c-2.9,15.6-4.3,31.4-6.4,47.2c-2.3,17-4.5,34.1-6.1,51.2c-0.6,5.9-1.3,12-1,17.9
	c0.1,1.6,0,2.8-0.2,4.8c-0.4,4.5-0.9,9-1.2,13.5c-1,12.2-1.5,24.4-2.3,36.7c-1,17.1-2.2,34.3-2.7,51.4c-0.4,13.3-2.1,26.8-0.9,40.1
	C4.1,321,4.6,323,5,325c0.6,4.2,1.6,8.5,3.4,12.4c0.8,1.7,1.8,3.8,3.5,4.8c0.2,0.1,0.6,0.6,0.4,0.2v0.3c0.1,0.5,0.1,1,0.2,1.5
	c0.5,4,0.9,8.1,1.2,12.1c0.3,3.2,1,6.9,0.2,10.1c-0.1,0.2,0.1,0.5,0.3,0.6c10,4.7,22.6,5.2,32.7,0.8c0.3-0.1,0.8-0.5,0.9-0.9
	c0.3-7.3,0.6-14.7,2.1-21.9c0.4-2.2,1.3-4.1,2.1-6.2c1.7-4.6,3-9.3,4.1-14c1.9-8.7,2.9-17.6,2.6-26.6c-0.4,0.3-0.8,0.7-1.2,1
	l-0.6,0.1c0.1-0.1,0-0.1,0,0c0-0.1,0.6,0.4,0.8,0.7c1.5,1.7,1.9,4.5,2.2,6.6c0.3,1.9,0.1,2.9-0.3,4.7c-0.5,2.2-0.9,4.4-1.3,6.6
	c-0.4,2.1-1.8,6.7,0.9,7.7c3,1.1,6.5,1.4,9.7,1.8c5,0.7,10,1.1,15,1.4c4.5,0.2,9.1,0.5,13.6-0.1c0.8-0.1,1.5-0.2,2.3-0.4
	c0.3-0.1,0.6-0.2,0.8-0.2c0.7-0.2,0.1,0,0.4-0.1l3.9-0.9c5-1.1,10-2.1,15.1-2.5c3.6-0.2,7.4,0.2,11.1,0.3c6.5,0.1,13.1,0.2,19.7-0.2
	c1.5-0.1,2.3-1.9,0.3-1.8c-9.1,0.5-18.8,0.1-27.7-0.2c-7.9-0.3-16.4,2-23.9,3.9c-3.7,1-7.9,0.7-11.8,0.5c-5.2-0.2-10.4-0.6-15.6-1.3
	c-3.6-0.4-7.3-0.8-10.7-1.8c-0.4-0.1-0.6-0.1-0.8-0.3c0.1,0.2,0-1,0-1.2c0-2.1,0.5-4.3,0.9-6.3c0.4-2.2,0.9-4.5,1.4-6.7
	s-0.2-4.8-0.8-6.9c-0.7-2.3-2.1-5.6-5.1-4.9c-0.4,0.1-1.2,0.5-1.2,1c0.4,13.4-1.8,26.9-6.3,39.5c-0.7,2-1.7,3.9-2.2,5.9
	c-1.1,4.3-1.4,8.9-1.8,13.3c-0.3,3.3-0.5,6.6-0.6,9.8l0.9-0.9c-9,3.9-20.4,3.3-29.2-0.9l0.3,0.6c0.7-3.2,0-7-0.2-10.2
	c-0.3-4.1-0.7-8.1-1.2-12.2c-0.1-0.6,0-1.7-0.3-2.3s-1.4-1.1-1.9-1.7c-0.7-0.8-1.3-1.8-1.8-2.8c-1.9-3.9-2.9-8.3-3.5-12.5
	c-0.3-2.1-0.9-4-1.1-6.1c-0.4-4-0.4-8.1-0.3-12.2c0.1-7.6,0.5-15.2,1-22.7c0.3-4.9,0.3-9.8,0.5-14.7c0.4-9.1,0.9-18.1,1.5-27.1
	c0.5-8.5,1-17,1.6-25.6c0.2-3.8,0.6-7.6,0.7-11.5c0.2-9,1.2-17.9,2.1-26.8c0.2-1.8,0.4-3.5,0.3-5.3c-0.2-2.2,0-4.4,0.1-6.6
	c0.9-16.6,3.2-33.2,5.3-49.8c1.7-13.4,3.4-26.8,5.1-40.1c1.3-9.9,2.7-19.9,5-29.7c0.8-3.6,1.7-7.3,3.3-10.5c0.2-0.3,0.4-0.6,0.5-0.9
	c0.7-1.6,1.2-3,2.4-4.4c1.4-1.6,3.1-2.9,4.9-4.1c6.2-4.1,13.3-6.8,20.4-9C72.9,13.7,84.4,9.7,96,5.9c1.4-0.5,2.9-0.9,4.3-1.4
	c-0.6-0.2-1.1-0.3-1.7-0.5c1.1,3.1,4,5,6.8,6.3c4,1.9,8.3,2.9,12.5,3.8c8.9,1.8,18.1,2.5,27.2,2.9c2.1,0.1,4.2,0.1,6.2,0.1
	c0.6,0,1.6-0.2,1.9-0.8C153.3,15.6,152.9,15.2,152.3,15.2L152.3,15.2z"/>
<path fill="#2AA872" d="M147.3,16.1c0,0,47.7,0,51.9-12.6l38.5,12.6c0,0,26.8,7.5,29.3,18.4c0,0,5.6,7.3,10.6,55.8
	c0,0,10.3,74,8.7,83.2c0,0,2.5,24.3,2.5,31.8c0,0,4.2,64.5,4.2,77c0,0,2.5,34.3,0,40.2c0,0-1.7,15.9-7.5,19.3c0,0-2.5,20.9-1.7,24.3
	c0,0-15.9,7.5-31,0.8c0,0-0.8-21.8-3.3-26c0,0-6.3-14.5-7.4-33.6c-0.2-2.9-0.2-6-0.1-9.1c0,0-3.3-0.8-4.5,10.3c0,0,3.3,14,2.2,15.6
	c-1.1,1.7-34,5.6-41.3,2.8c0,0-17.9-4.5-24-3.3c0,0-17.3,0.6-26.2,0"/>
<path fill="#6D6E70" d="M146.7,17c5.8,0,11.6-0.3,17.4-0.8c9.4-0.8,19.4-1.9,28.2-5.6c3.4-1.4,7-3.6,8.3-7.2c-0.8,0.3-1.5,0.7-2.3,1
	c12.1,3.9,24.1,7.9,36.2,11.8c3.9,1.3,7.8,2.5,11.6,4c4.2,1.7,8.4,3.6,12.1,6.2c1.7,1.2,3.4,2.5,4.8,4.1c1.3,1.5,1.8,2.9,2.6,4.7
	c0.2,0.5,0.2,0.4,0.4,0.7c0.5,1.1,1,2.3,1.4,3.5c2.1,6.1,3.3,12.6,4.4,18.9c2.7,15.3,4.2,30.9,6.2,46.3c2.3,17,4.4,34.1,6,51.2
	c0.5,5.6,1.4,11.4,0.9,17c-0.2,1.8,0.2,3.6,0.3,5.4c0.4,4.6,0.9,9.1,1.2,13.7c1,12.1,1.5,24.2,2.2,36.3c1,16.9,2.2,33.9,2.7,50.9
	c0.1,4.8,0.5,9.5,0.7,14.3c0.4,8.5,1,17.2,0.1,25.7c-0.2,2.1-0.8,4.1-1.1,6.1c-0.7,4.3-1.6,8.8-3.7,12.7c-0.4,0.8-0.9,1.6-1.6,2.3
	c-0.6,0.6-1.6,1.1-1.9,1.8s-0.2,1.7-0.3,2.4c-0.5,4.1-0.9,8.2-1.2,12.3c-0.2,3.1-0.9,6.7-0.2,9.8c0.3-0.4,0.6-0.7,0.8-1.1
	c-5.4,2.5-11.7,3.6-17.6,3.4c-2.6-0.1-5.1-0.5-7.6-1.1c-0.6-0.2-1.2-0.4-1.9-0.6c-0.3-0.1-1.9-0.6-1.9-0.5c-0.1-0.1,0-0.3,0-0.5
	c-0.2-0.6-0.1-1.4-0.1-2c-0.1-1.3-0.1-2.6-0.2-3.9c-0.4-5.9-0.6-12.2-2.3-17.9c-0.4-1.2-0.8-1.9-1.2-3.1c-1-2.4-1.8-4.9-2.5-7.5
	c-3.2-10.9-4.8-22.3-4.5-33.7c0-0.4-0.2-0.6-0.6-0.7c-2.3-0.5-4.1,1.4-5,3.3c-1.1,2.3-2,5.7-1.8,8.3c0.1,1.2,0.5,2.4,0.8,3.5
	c0.5,2.3,1,4.6,1.3,7c0.2,1.3,0.2,3.6,0.4,4.5c0-0.2,0.4-0.2-0.1,0c-0.6,0.2-1.2,0.3-1.9,0.5c-1.9,0.4-3.8,0.7-5.6,0.9
	c-4.9,0.7-9.9,1.2-14.9,1.5c-4.6,0.3-9.3,0.5-13.8,0c-2.5-0.3-4.9-1.1-7.4-1.7c-5-1.1-10.1-2.1-15.2-2.5c-3.6-0.3-7.4,0.2-11,0.2
	c-6.6,0.1-13.3,0.2-19.9-0.2c-1.2-0.1-3,1.7-1.1,1.8c5.9,0.4,11.9,0.3,17.8,0.2c3.3-0.1,6.6-0.1,9.8-0.3c4.9-0.4,10.1,0.8,14.9,1.8
	c2.8,0.6,5.6,1.3,8.4,2c3.8,0.9,8,0.8,11.9,0.7c5.2-0.1,10.5-0.6,15.7-1.2c3.9-0.4,7.8-0.9,11.6-1.8c0.9-0.2,2-0.4,2.8-1
	c1.1-0.9,0.9-2.5,0.8-3.7c-0.2-2.5-0.7-5.1-1.2-7.6c-0.3-1.7-1-3.5-1.1-5.2c-0.1-1.4,0.4-3.1,0.7-4.5c0.3-1.3,0.6-2.6,1.3-3.7
	c0.2-0.3,0.3-0.5,0.5-0.8s0.3-0.3,0.3-0.3s-0.4,0.1-0.7,0c-0.2-0.2-0.4-0.5-0.6-0.7c-0.4,13.4,1.8,27,6.3,39.6
	c0.7,2,1.7,3.9,2.2,5.9c1.1,4.3,1.4,8.9,1.8,13.3c0.3,3.3,0.5,6.7,0.6,10c0.1,0.2,0.2,0.3,0.3,0.4c10.1,4.4,22.7,3.8,32.7-0.9
	c0.4-0.2,1-0.6,0.8-1.1c-0.4-1.7-0.2-3.6-0.1-5.3c0.1-2.7,0.4-5.4,0.6-8c0.3-3.6,0.7-7.1,1.1-10.7c-0.2,0.2-0.4,0.5-0.5,0.7
	c3.4-2.1,5-6.4,6.1-10c0.9-3.2,1.4-6.4,2-9.7c0.3-1.8,0.9-4.5,1-6.8c0.2-4.1,0.2-8.1,0.1-12.2c-0.2-6.9-0.5-13.8-1-20.7
	c-0.3-4.3-0.3-9.4-0.5-14c-0.8-16.8-1.8-33.6-2.9-50.4c-0.7-11.8-1.3-23.6-2.4-35.4c-0.3-3.1-0.6-6.3-0.9-9.4
	c-0.1-0.7,0-0.5,0.1-1.3c0.1-0.9,0.1-1.7,0.1-2.6c0-6.2-0.7-12.4-1.3-18.5c-1.6-16.2-3.7-32.4-5.8-48.5c-1.9-14.5-3.3-29.2-5.8-43.6
	c-1.1-6.5-2.3-13.1-4.3-19.5c-0.6-2-1.5-3.8-2.3-5.7s-1.6-3.7-3.1-5.3c-2.9-3-6.6-5.2-10.3-7.1c-5.3-2.7-10.8-4.7-16.4-6.4
	c-11.6-3.6-23.1-7.5-34.6-11.3c-1.3-0.4-2.6-0.8-3.9-1.3c-0.8-0.3-2,0.2-2.3,1c-1,2.8-4.1,4.4-6.6,5.5c-3.9,1.7-8.2,2.6-12.4,3.4
	c-8.4,1.5-16.9,2.2-25.5,2.5c-1.9,0.1-3.6,0.1-5.5,0.1c-0.6,0-1.6,0.2-1.9,0.8C145.7,16.6,146.1,17,146.7,17z"/>
<path fill="#FFFFFF" stroke="#58595B" stroke-miterlimit="10" d="M59.4,298.5c0,0,4.5,5.6,2.8,12.3L60,323.6c0,0,23.4,5,36.8,2.8
	c0,0,18.4-3.9,22.9-3.9c0,0,25.7,1.1,29.6,0c0,0,30.1,1.1,34,1.1c0,0,11.7,2.4,15.1,2.4c0,0,32.9,3.2,40.7-3c0,0-5.2-21.8,0.9-26.8
	c0,0-27.5,5.2-38,2.2c0,0-26-3-32.7-0.7c0,0-9.3,1.1-31.3,2.2c0,0-13-1.5-29.8-1.1c0,0-13.8,0.2-21.6,0.2
	C86.7,299.1,63.8,305.2,59.4,298.5L59.4,298.5z"/>
<path fill="#FFFFFF" stroke="#58595B" stroke-width="1.017" stroke-miterlimit="10" d="M13.8,341.8c0,0,2-0.4,6.3-0.7
	c0,0,9.8-0.4,16.9,1.1c0,0,8.2,0.7,12.9-1.8c0,0-2.7,5.8-2.7,12.8l-0.4,14.2c0,0-16.5,4.7-30.6-1.5
	C16.1,365.9,16.5,351.3,13.8,341.8z"/>
<path fill="#FFFFFF" stroke="#58595B" stroke-width="1.041" stroke-miterlimit="10" d="M285.8,339.4c0,0-2.1-0.4-6.7-0.8
	c0,0-10.4-0.4-17.9,1.2c0,0-8.7,0.8-13.7-1.9c0,0,2.9,6.2,2.9,13.6l0.4,15.1c0,0,17.5,5,32.5-1.5C283.3,365,282.9,349.5,285.8,339.4
	L285.8,339.4z"/>
<path fill="#6D6E70" d="M23.4,61.3c3.7,1.7,7.1,4.2,10.2,6.7c7.1,5.8,13.1,13.2,16.7,21.7c1.8,4.1,3.1,8.6,3.7,13
	c0.3,2.3,0.5,4.6,0.7,6.9c1.1,10.7,1.8,21.5,2.2,32.3c0.2,6.6,0.3,13.1,0.1,19.7c-0.1,2.4-0.1,4.9-0.4,7.3
	c-0.7,4.9-1.3,9.7-1.8,14.6c-2.2,18.7-4.1,37.5-5,56.3c-0.5,9.4-0.8,18.9-0.4,28.3c0.1,3.2,0.7,6.4,0.7,9.6c0,4.5,0.6,8.9,1.8,13.3
	c0.9,3.5,2.2,7,3.8,10.2c0.4,0.8,3.2-0.2,2.9-0.8c-3-6-4.8-12.5-5.4-19.1c-0.1-1.5-0.2-3-0.2-4.5c0-1.3-0.2-2.6-0.3-4
	c-0.7-8.9-0.6-17.9-0.3-26.8c0.7-19.5,2.5-38.9,4.7-58.2c0.7-5.9,1.4-11.8,2.2-17.6c0.9-6.6,0.8-13.2,0.8-19.8
	c-0.1-11.9-0.8-23.9-1.9-35.8c-0.5-6.2-0.9-12.5-2.5-18.5c-4-15-15.1-28.1-28.8-35.3c-0.3-0.1-0.5-0.3-0.8-0.4
	c-0.6-0.3-1.3-0.1-1.9,0.1C24.1,60.4,22.9,61,23.4,61.3L23.4,61.3z M270.1,52.3c-4,1.9-7.7,4.5-11,7.3c-7.4,6.1-13.4,13.8-17.1,22.6
	c-1.7,4-2.9,8.3-3.5,12.6c-0.3,2.6-0.6,5.2-0.8,7.8c-1.1,11.5-1.9,23-2.2,34.5c-0.2,6.7-0.2,13.5,0.1,20.2c0.1,1.5,0.2,3,0.4,4.5
	c0.7,5.6,1.4,11.3,2.1,16.9c1.1,9.3,2,18.7,2.9,28c0.9,10.5,1.7,21.1,2.1,31.7c0.3,9.2,0.5,18.5-0.3,27.6c-0.1,1.2-0.4,2.5-0.2,3.7
	c0.1,1.4,0.3,2.8,0.3,4.2c0.3,5.4,0,10.9-1.1,16.2c-0.6,3-1.5,6-2.9,8.8c-0.6,1.3,2.3,1,2.7,0.1c4.4-9,4.9-19.9,3.9-29.7
	c-0.1-1.1,0.1-2,0.2-3.1c0.2-2,0.3-4,0.4-6c0.2-4.6,0.2-9.2,0.2-13.8c-0.1-10.4-0.7-20.7-1.5-31.1c-0.8-9.9-1.7-19.9-2.8-29.8
	c-0.8-7-1.6-14-2.5-21c-0.2-1.7-0.4-3.3-0.7-5c-0.5-3.5-0.4-7.1-0.4-10.7c-0.2-12.7,0.5-25.5,1.5-38.2c0.5-6.1,0.8-12.5,1.9-18.5
	c2-10.5,7.2-20.1,14.6-27.6c2.6-2.7,5.5-5.2,8.6-7.4c1.1-0.8,2.2-1.5,3.4-2.2c0.4-0.3,0.9-0.5,1.3-0.8c0.2-0.1,0.3-0.2,0.5-0.3
	c0.1-0.1,0.6-0.3,0.4-0.2c-0.2,0.1,0.3-0.2,0.5-0.2c0.1,0,0.1-0.1,0.2-0.1c0.4-0.2,1.2-0.7,0.8-1.2
	C271.7,51.9,270.6,52.1,270.1,52.3z"/>
<path fill="none" stroke="#FFFFFF" stroke-miterlimit="10" d="M149.6,41.4C99,38.4,99,3.3,99,3.3L86.7,7.2c0,0,8.6,44.3,62.5,43.2"
	/>
<path fill="#FFFFFF" d="M148.8,16.1c-45-0.6-48.3-11.7-48.3-11.7L87.9,8.3c0,0,12.1,17.3,61.5,16.2"/>
<path fill="#6D6E70" d="M149.3,15.2c-11.8-0.2-24-0.7-35.4-4.1c-3.9-1.2-8.6-2.9-11.2-5.9c-0.3-0.3-0.5-0.6-0.7-1
	c0.2,0.3,0,0-0.1-0.2c-0.2-0.6-1.2-0.6-1.7-0.4L87.6,7.5c-0.5,0.2-1.6,0.7-1.1,1.4c1.7,2.5,4.7,4.4,7.2,5.9c8.2,5,17.9,7.5,27.4,9
	c9.2,1.4,18.4,1.8,27.7,1.6c0.6,0,1.6-0.2,1.9-0.8s-0.2-1-0.8-1c-14.1,0.3-28.5-0.6-42-4.9C102,16.8,95.7,14,91.2,9.9
	c-0.7-0.6-1.4-1.3-2-2.1c-0.4,0.5-0.7,0.9-1.1,1.4l12.6-3.9C100.1,5.2,99.6,5,99,4.9c0.5,1.8,2.6,3.2,4.1,4.1
	c6.1,3.9,13.8,5.3,20.8,6.4c8.1,1.2,16.2,1.6,24.4,1.7c0.6,0,1.6-0.2,1.9-0.8C150.4,15.6,149.9,15.2,149.3,15.2L149.3,15.2z"/>
<path fill="#FFFFFF" d="M149.3,16.1c45-0.6,48.3-11.7,48.3-11.7l12.6,3.9c0,0-12.1,17.3-61.5,16.2"/>
<path fill="#6D6E70" d="M148.8,17c12.2-0.2,25-0.7,36.8-4.3c4.3-1.3,9.3-3.1,12.4-6.6c0.5-0.5,1-1.1,1.2-1.8c-0.8,0.3-1.6,0.7-2.3,1
	l12.6,3.9c-0.2-0.3-0.3-0.6-0.5-0.9c-0.1,0.2-0.2,0.3-0.4,0.4c0.3-0.4-0.2,0.2-0.3,0.3l-0.7,0.7c-1.7,1.6-3.1,2.6-5.1,3.8
	c-7.8,4.7-17.1,7.1-26.1,8.5c-8.9,1.4-18,1.7-27,1.5c-0.6,0-1.6,0.2-1.9,0.8s0.2,0.9,0.8,0.9c14.4,0.3,29.3-0.6,43.1-5.1
	c6.4-2.1,13-5,18.1-9.6c0.8-0.7,1.6-1.5,2.2-2.4c0.3-0.4-0.1-0.8-0.5-0.9l-12.6-3.9c-0.7-0.2-2.1,0.2-2.3,1c-0.1,0.3,0.1-0.2,0,0.1
	c-0.2,0.3-0.3,0.5-0.5,0.8c0,0.1-0.3,0.3-0.1,0.2c0.1-0.1-0.1,0.2-0.2,0.2l-0.6,0.6c-0.1,0.1-0.3,0.2-0.4,0.3s-0.5,0.4-0.3,0.2
	c-0.3,0.3-0.7,0.5-1.1,0.7c-1.1,0.7-1.7,1-2.7,1.5c-1.3,0.6-2.7,1.1-4,1.6c-4.1,1.4-8.4,2.2-12.8,2.8c-7.8,1.1-15.7,1.5-23.6,1.6
	c-0.6,0-1.6,0.2-1.9,0.8C147.7,16.6,148.2,17,148.8,17L148.8,17z"/>
<path fill="#FFFFFF" d="M149.8,41.4c-50.5-3-50.5-38.1-50.5-38.1L87.1,7.2c0,0,8.5,44.3,62.3,43.1"/>
<path fill="#6D6E70" d="M150.3,40.5c-13.7-0.8-28.2-4.3-38.4-14c-5.4-5.2-9.2-11.9-10.6-19.2c-0.2-1-0.4-2.1-0.5-3.2
	c0-0.3,0-0.6-0.1-0.9V3.1c0-0.8-1.1-0.8-1.7-0.6c-4.1,1.3-8.2,2.6-12.2,3.9c-0.5,0.1-1.4,0.5-1.2,1.2c1,5.3,3.5,10.6,6.3,15.2
	c6.3,10.6,15.9,18.9,27.3,23.5c9.4,3.8,19.6,5.1,29.7,4.9c0.6,0,1.6-0.2,1.9-0.8c0.3-0.6-0.2-0.9-0.8-0.9
	c-15.8,0.3-31.9-3.5-44-14.1c-7.1-6.2-12.6-14.3-15.8-23.2c-0.6-1.7-1.2-3.5-1.6-5.4L87.4,8c4.1-1.3,8.2-2.6,12.2-3.9
	c-0.6-0.2-1.1-0.4-1.7-0.6c0,4.2,1.3,8.6,3.1,12.4c4.2,9.4,12.2,16.3,21.5,20.5c8.4,3.7,17.6,5.4,26.8,5.9c0.6,0,1.6-0.2,1.9-0.8
	C151.4,40.8,150.9,40.6,150.3,40.5L150.3,40.5z"/>
<path fill="#FFFFFF" d="M147.9,41.4c51.6-0.7,50.5-38.1,50.5-38.1l12.2,3.9c0,0-8.5,44.3-62.3,43.1"/>
<path fill="#6D6E70" d="M147.3,42.2c14.4-0.2,30.2-3.3,41-13.6c5.8-5.5,9.7-12.9,11-20.8c0.3-1.6,0.5-3.3,0.4-4.9
	c-0.9,0.4-1.7,0.7-2.6,1.1c4.1,1.3,8.2,2.6,12.2,3.9c-0.1-0.2-0.2-0.3-0.3-0.5c-1,5.1-3.3,10-5.8,14.5c-6,10.3-15,18.4-26,23
	c-9,3.7-18.8,5-28.5,4.8c-0.6,0-1.6,0.2-1.9,0.8c-0.3,0.6,0.3,0.8,0.8,0.8c16.4,0.3,33.1-3.6,45.8-14.4c7.6-6.4,13.4-14.9,16.8-24.2
	c0.7-1.8,1.3-3.7,1.7-5.6c0-0.2-0.1-0.4-0.3-0.5c-4.1-1.3-8.2-2.6-12.2-3.9c-0.7-0.2-2.6,0-2.6,1.1v0.8c0,0.9-0.1,1.8-0.2,2.6
	c-0.4,3-1.2,5.9-2.3,8.8c-3.6,9-10.9,16-19.7,19.8c-8.2,3.6-17.2,4.8-26.1,4.9c-0.6,0-1.6,0.2-1.9,0.8
	C146.3,42,146.8,42.2,147.3,42.2L147.3,42.2z"/>
<path opacity="0.33" fill="#231F20" stroke="#6D6E70" stroke-miterlimit="10" enable-background="new    " d="M105.7,18.7
	c0,0,4.8,18.6,43.2,21.2c0,0,32,2.2,44.3-21.2c0,0-13,7.4-43.9,7.1C149.2,25.8,115.4,25.8,105.7,18.7z"/>
<path fill="#6D6E70" d="M149.8,201.5c7,0.1,14,0.3,21.1,0.4c11.5,0.2,22.9,0.5,34.4,0.8c2.1,0.1,4.2,0.1,6.2,0.2
	c0.6,0,1.3,0.1,1.9,0.1h0.3c0.4,0-0.1,0,0,0h0.4c-0.2-0.1-0.4-0.2-0.6-0.4c1.5,9.8,3.5,19.5,5.8,29.1c2,8.5,4.4,16.9,7.2,25.2
	c2.6,7.5,5.7,15,9.9,21.8c1.9,3,4,5.9,6.7,8.2c0.5,0.4,0.5,0.4,0.5,1c0,0.9-0.1,1.9-0.2,2.8c-0.4,3.1-1.6,6-3.6,8.4
	c0.3-0.2,0.5-0.4,0.8-0.5c-0.1,0.1-0.3,0.1-0.5,0.2c-0.1,0-0.1,0.1-0.2,0.1c-0.2,0.1,0.3-0.1,0,0l-0.9,0.3c-1.7,0.5-3.4,0.7-5.2,0.9
	c-2.9,0.3-5.8,0.2-8.7,0c-2-0.2-3.9-0.4-5.8-0.8c-1.6-0.3-3.3-0.9-5-1c-2.5-0.2-5.1-0.2-7.6-0.3c-4.9-0.2-9.9-0.3-14.8-0.4
	c-4.3-0.1-8.7-0.3-13.1,0.1c0.4,0.1,0.8,0.1,1.1,0.2c-0.5-0.6-2-0.7-2.7-0.7c-4.4-0.5-8.8-0.3-13.2-0.1c-5.2,0.3-10.4,0.7-15.6,1.1
	c-0.4,0-2.2,0.7-1.6,1.3l0.2,0.2l1.2-1.2c-3.7,0.8-7.8,0.6-11.6,0.5c-4-0.1-7.9-0.4-11.9-0.8c-4.9-0.4-9.7-0.5-14.6-0.5
	c-7.2,0.1-14.3,0.3-21.5,0.6c-0.8,0-1.6,0.1-2.4,0.1c-1.8,0.1-3.6,0.7-5.3,1c-5.2,1-10.5,1.4-15.8,0.9c-1.7-0.1-3.3-0.4-4.9-0.7
	c-0.7-0.2-1.7-0.3-2.1-0.5c-0.7-0.6-1.4-1.8-1.9-2.6c-0.8-1.3-1.4-2.6-1.9-4s-0.9-2.8-1-4.3c-0.2,0.3-0.4,0.5-0.6,0.8
	c4.4-3,7.1-8.1,9.4-12.7c3.4-6.8,6.1-13.9,8.6-21.1c4.9-14.2,9-28.6,12.6-43.2c0.8-3.2,1.6-6.4,2.3-9.6c-0.6,0.3-1.1,0.6-1.7,1
	c0.3-0.1,0.5-0.1,0.8-0.1H86c1.7-0.1,3.4-0.1,5.1-0.2c5.2-0.2,10.4-0.3,15.7-0.4c11.3-0.3,22.5-0.5,33.8-0.7c2.5,0,5.1-0.1,7.6-0.1
	c0.6,0,1.6-0.2,1.9-0.8c0.3-0.6-0.2-0.8-0.8-0.8c-7.1,0.1-14.2,0.3-21.3,0.4c-11.5,0.2-23,0.5-34.4,0.8c-2.1,0.1-4.1,0.1-6.2,0.2
	c-1,0-2.1,0-3.2,0.2c-0.5,0.1-1.5,0.3-1.7,1c-2,8.7-4.2,17.3-6.6,25.9c-4.2,15.2-8.8,30.5-15.4,44.8c-1.5,3.1-3,6.2-4.9,9.1
	c-1.3,2-3.1,4.3-4.8,5.5c-0.3,0.2-0.6,0.4-0.6,0.8c0.4,3.8,2.2,7.7,4.6,10.7c1.2,1.4,3.5,1.6,5.2,1.8c4.4,0.7,8.9,0.8,13.3,0.4
	c3.3-0.3,6.5-0.8,9.7-1.5c0.3-0.1,0.6-0.1,0.9-0.2c0,0,1.6-0.4,0.7-0.2h0.9c6.7-0.2,13.4-0.5,20.1-0.6c3.6-0.1,7.3-0.1,10.9-0.1
	c0.6,0,1.3,0,1.9,0.1h0.7c0.1,0,0.9,0.1,0.4,0c0.7,0.1,1.4,0.1,2.1,0.2c4.3,0.4,8.6,0.7,12.9,0.9c4.6,0.2,9.4,0.3,14-0.6
	c0.3-0.1,1.7-0.7,1.2-1.2l-0.2-0.2c-0.5,0.4-1,0.9-1.6,1.3c8.7-0.8,17.7-1.7,26.5-1.2c0.5,0,1.1,0.1,1.8,0.2c0.2,0,0.4,0.1,0.6,0.1
	c0.4,0.1-0.2,0,0.2,0.1c0.2,0,0.4,0.1,0.1,0c1,0.4,1.5,0.2,2.5,0.1c7.7-0.3,15.4,0.1,23.1,0.3l9,0.3c0.5,0,1,0.1,1.5,0.1
	c3.3,0.6,6.5,1.4,9.9,1.7c4.5,0.4,9,0.4,13.4-0.4c1.7-0.3,3.8-0.6,5.3-1.5c1.1-0.7,1.9-2.2,2.4-3.3c0.6-1.2,1.1-2.4,1.4-3.7
	c0.5-1.8,0.7-3.6,0.7-5.5c0-1.1-1.2-1.6-1.9-2.4c-1.1-1.1-2.1-2.2-3-3.4c-4.6-6-7.7-13.1-10.4-20.1c-3.1-8.1-5.6-16.5-7.8-24.9
	c-2.9-11.1-5.3-22.4-7.1-33.7c0-0.2-0.1-0.4-0.1-0.6s-0.4-0.3-0.6-0.4c-2.5-0.5-5.2-0.3-7.7-0.4c-5.2-0.2-10.4-0.3-15.7-0.4
	c-11.3-0.3-22.6-0.5-34-0.7c-2.6,0-5.2-0.1-7.7-0.1c-0.6,0-1.6,0.2-1.9,0.8C148.7,201.2,149.2,201.4,149.8,201.5L149.8,201.5z"/>
<path fill="#6D6E70" d="M84.9,203.9c0.8,1,1.7,1.9,2.5,2.9c0.5,0.6,1.1,1.2,1.6,1.9c0.2,0.2,0.3,0.5,0.5,0.6
	c0.5,0.3-0.2,0.2,0.1-0.2c-0.3,0.4-0.3,1.8-0.4,2.3c-0.8,4.9-1.8,9.9-2.9,14.8c-3.7,16.3-8.5,32.7-16.3,47.6
	c-4.1,7.9-9.2,15.7-16.2,21.3c-0.5,0.4-0.3,1,0.3,1.1c0.7,0.2,1.6-0.1,2.1-0.6c6.4-5.1,11.2-11.9,15.1-19
	c4.3-7.8,7.7-16.1,10.6-24.6c4.4-13,7.8-26.4,10.1-40c0.2-1,0.6-2.2,0.5-3.3c-0.1-0.9-1.4-2-2-2.6c-1-1.1-2-2.3-3-3.4
	C87,201.8,84.1,202.9,84.9,203.9L84.9,203.9z M211,203.5c-0.6,1.2-1.2,2.5-1.8,3.7c-0.2,0.4-0.4,0.7-0.4,1.1c0,1,0.3,2.2,0.5,3.2
	c0.9,5.3,1.9,10.5,3,15.7c3.5,16,8,32,15.2,46.7c3.7,7.6,8.3,15.1,14.8,20.6c0.6,0.5,3.1-0.6,2.7-1c-5.8-4.9-10-11.5-13.5-18.1
	c-3.9-7.5-7-15.4-9.6-23.4c-4.2-13-7.3-26.4-9.6-39.9c-0.2-1.5-0.4-2.9-0.7-4.4c-0.1-0.5-0.1-0.3,0.1-0.6c0.7-1.4,1.4-2.8,2.1-4.1
	c0.2-0.4-1-0.3-1.1-0.2C212.3,202.9,211.3,203,211,203.5L211,203.5z"/>
<path fill="#6D6E70" d="M91.7,208.3c10.2,0.4,20.5,0.7,30.7,0.9c19.4,0.4,38.7,0.7,58.1,0.2c8.7-0.2,17.5-0.5,26.1-1.5
	c0.5-0.1,1.6-0.2,1.9-0.7s-0.2-0.5-0.7-0.5c-7.6,0.9-15.2,1.2-22.8,1.5c-9.6,0.3-19.2,0.3-28.9,0.3c-17.3-0.1-34.6-0.4-51.8-1
	c-3.6-0.1-7.2-0.2-10.8-0.4c-0.6,0-1.5,0.1-2,0.5C91.2,208,91.1,208.3,91.7,208.3L91.7,208.3z"/>
<path fill="#FFFFFF" d="M227.4,244.9c0,0-0.1,8.1-8.9,7.1c0,0,5.7,17.2,6.2,18.2c0,0,6.7,0.4,9.1-6.4L227.4,244.9L227.4,244.9z"/>
<path fill="#6D6E70" d="M225.9,245.3v0.2c0,0.3-0.1,0.5-0.1,0.8c-0.1,0.8-0.4,1.5-0.7,2.2c-1.2,2.4-3.2,3-5.7,2.8
	c-0.5,0-2.6,0.3-2.4,1.1c1,2.9,1.9,5.8,2.9,8.7c0.7,2.1,1.4,4.1,2.1,6.2c0.4,1.1,0.7,2.3,1.2,3.3c0.2,0.3,0.5,0.3,0.9,0.3
	c2,0.1,4.1-0.5,5.8-1.4c1.4-0.7,2.7-1.7,3.7-3c0.6-0.8,1.7-2.3,1.5-3.3c-0.1-0.6-0.5-1.3-0.7-2c-0.4-1.1-0.8-2.3-1.1-3.4
	c-0.9-2.7-1.8-5.5-2.8-8.2c-0.6-1.7-1.1-3.4-1.7-5.1C228.5,243.7,225.6,244.5,225.9,245.3c1.2,3.6,2.4,7.2,3.6,10.9
	c0.7,2.2,1.5,4.4,2.2,6.6c0.1,0.4,0.5,1,0.5,1.4s-0.5,1.1-0.7,1.5c-0.4,0.8-1,1.5-1.6,2.1c-1.4,1.3-3.2,1.9-4.7,1.8l0.9,0.3
	c-0.5-1-0.8-2.2-1.2-3.3l-2.1-6.3c-1-2.9-1.9-5.8-2.9-8.7c-0.8,0.4-1.6,0.7-2.4,1.1c3.5,0.4,7.6-0.4,9.8-3.5c0.9-1.4,1.5-3,1.5-4.7
	C228.8,243.8,225.9,244.3,225.9,245.3L225.9,245.3z"/>
<path opacity="0.4" fill="#231F20" enable-background="new    " d="M41.5,76.4c0,0,15.2,12.9,18,37.1c0,0,2.9,36.6,2.9,47.8
	c0,0-6.5,28.7-5.8,37.7c0,0-7.2,53.5-4.3,62.5c0,0-2.9,28.7,5.1,37.1c0,0,3.6,5.6-1.4,15.8c0,0-17.3-13.5-8.7-54
	c0,0,12.3-107.5,7.2-127.7C54.5,132.7,53,89.3,41.5,76.4L41.5,76.4z M253.6,65.8c0,0-11.7,13.5-14,38.6c0,0-2.2,38-2.2,49.7
	c0,0,5,29.8,4.5,39.2c0,0,5.6,55.6,3.3,65c0,0,2.2,29.8-3.9,38.6c0,0-2.8,5.9,1.1,16.4c0,0,13.4-14,6.7-56.2
	c0,0-9.5-111.8-5.6-132.8C243.5,124.3,244.7,79.2,253.6,65.8L253.6,65.8z"/>
<path opacity="0.3" fill="#231F20" enable-background="new    " d="M91.2,289c0,0-10-8.9-9.5-4.5c0,0,3.9,6.7,3.9,8.9
	s1.7,5.6,1.7,5.6l13.4-1.1L91.2,289L91.2,289z M20.4,335.5c0,0-7.2-4.7-6.8-2.4c0,0,2.8,3.6,2.8,4.7s1.2,3,1.2,3l9.5-0.6L20.4,335.5
	z M255.8,334.5c0,0-7.2-4.7-6.8-2.4c0,0,2.8,3.6,2.8,4.7s1.2,3,1.2,3l9.5-0.6L255.8,334.5z M191.6,291.4c0,0-7.4-7.8-6.7-4.6
	c0,0,0.1,6.2,0.1,7.8c0,0.3,0,0.5-0.1,0.8c-0.3,1.3,0.8,2.6,2.2,2.6l15.6-0.2L191.6,291.4L191.6,291.4z M279.3,333.8
	c0,0,6.3-5.7,5.7-3.4c0,0-0.1,4.5-0.1,5.7c0,0.2,0,0.4,0.1,0.6c0.2,1-0.7,1.9-1.9,1.9l-13.4-0.1L279.3,333.8L279.3,333.8z
	 M45.1,337.2c0,0,6.3-5.7,5.7-3.4c0,0-0.1,4.5-0.1,5.7c0,0.2,0,0.4,0.1,0.6c0.2,1-0.7,1.9-1.9,1.9l-13.4-0.1L45.1,337.2L45.1,337.2z
	 M82.2,205.3c0,0-16.7,72.6-28.5,79.8l-0.6-8.4C53.2,276.8,81.7,215.4,82.2,205.3z"/>
<path opacity="0.26" fill="#231F20" enable-background="new    " d="M218.4,202.5c0,0,6.1,38.5,7.8,42.4l2.8-0.6l6.7,19.5l-1.1,3.9
	c0,0,5.6,15.1,8.9,15.1s-16.2-52.5-17.9-62.5L218.4,202.5L218.4,202.5z"/>
<path opacity="0.3" fill="#231F20" enable-background="new    " d="M94,207.7c0,0,32.2,0.9,37.4-0.3s63.8,1.8,70.7,0.3
	s4.6-3.5,4.6-3.5s-38.5-0.3-43.7,0.3C163,204.4,97.4,205.6,94,207.7L94,207.7z"/>
<path opacity="0.31" fill="#231F20" enable-background="new    " d="M54.6,196.1c0,0-5,38-17.3,46.9s12.8-25.7,11.7-40.2
	 M241.8,207.3c0,0,5,38,17.3,46.9s-12.8-25.7-11.7-40.2"/>
<g>
	<path fill="none" stroke="#FFFFFF" stroke-width="3.126" stroke-miterlimit="10" d="M202.8,135.6l0.6-15.9
		c0-11.5-9.4-20.8-20.8-20.8h-73.9c-11.5,0-20.8,9.4-20.8,20.8v49.2c0,11.5,9.4,20.8,20.8,20.8h73.9c16.1-0.6,21.1-17.6,21.1-29"/>
	<g>
		<path fill="#FFFFFF" d="M120.3,152.2c0,0.6,0,1.1-0.2,1.5s-0.4,0.7-0.8,1s-0.7,0.5-1.1,0.7s-0.8,0.3-1.2,0.5
			c-0.2-0.1-0.4-0.2-0.5-0.4s-0.4-0.2-0.6-0.3c-0.3-0.6-0.6-1.1-0.9-1.5s-0.4-0.9-0.4-1.5c0,0,0-0.2,0.1-0.4s0.1-0.5,0.1-0.8
			s0.1-0.5,0.1-0.8s0.1-0.4,0.1-0.4c-0.5,0-1.1,0.2-1.7,0.4s-1.2,0.4-1.7,0.7s-1.1,0.5-1.5,0.8s-0.9,0.5-1.2,0.7
			c0,0.1,0,0.2-0.1,0.5s-0.2,0.6-0.4,0.8s-0.3,0.6-0.5,0.8s-0.3,0.4-0.5,0.4c0,0.1,0.1,0.1,0.1,0.2v0.3c-0.3,0.1-0.6,0.2-0.9,0.4
			s-0.5,0.3-0.8,0.4s-0.6,0.2-0.9,0.2s-0.7-0.1-1.2-0.4c0-0.1-0.1-0.3-0.2-0.4s-0.2-0.2-0.4-0.3s-0.2-0.2-0.3-0.2s-0.1-0.1-0.1-0.2
			c-0.1,0-0.2-0.1-0.1-0.2s0.1-0.2,0.3-0.1c-0.3-0.3-0.4-0.6-0.5-0.9s-0.2-0.6-0.4-0.9c0,0,0.1-0.1,0.1-0.2s0.1-0.2,0.1-0.3
			s0.1-0.2,0.1-0.2h0.2v-0.5c0-0.1,0.1-0.3,0.1-0.4s0.1-0.2,0.1-0.4s0-0.2-0.1-0.4c0.4-0.5,0.6-1.1,0.7-1.7s0.2-1.1,0.2-1.6
			c0.2-0.2,0.3-0.4,0.4-0.7l0.3-0.9c0.1-0.3,0.1-0.6,0.1-0.9s-0.1-0.5-0.1-0.7c0-0.1,0.2-0.2,0.4-0.1c0.1-0.8,0.2-1.6,0.3-2.6
			s0.2-1.9,0.3-2.8s0.4-1.7,0.7-2.3s0.9-1.1,1.6-1.3c0.1,0.5,0.3,0.9,0.5,1.3s0.5,0.7,0.7,1.1s0.5,0.7,0.8,1s0.5,0.8,0.8,1.2
			c0,0.4-0.1,1-0.1,1.5s-0.2,1.2-0.3,1.8l-0.3,1.8c-0.1,0.6-0.2,1-0.3,1.4c0,0.1,0.1,0.2,0.2,0.2s0.1,0.1,0.1,0.3
			c0.6-0.1,1.1-0.3,1.8-0.4s1.2-0.2,1.8-0.4s1.2-0.3,1.8-0.5s1.1-0.4,1.6-0.7c0.1-0.9,0.3-1.8,0.5-2.7s0.2-1.9,0.1-2.8
			c0.1-0.1,0.2-0.2,0.3-0.4s0.2-0.2,0.4-0.3c-0.1-0.4-0.2-0.9-0.1-1.4s0.1-1,0.3-1.4s0.4-0.8,0.7-1.1s0.7-0.5,1.1-0.6
			c0.3,0.4,0.5,0.8,0.7,1.2s0.4,0.9,0.6,1.3l0.6,1.2c0.2,0.4,0.5,0.7,0.9,1c0.1,0.7,0.1,1.4,0.2,2.1s0.1,1.5,0.1,2.2
			c-0.2,0.9-0.4,1.8-0.6,2.6s-0.4,1.7-0.5,2.7c-0.2,0.2-0.3,0.4-0.4,0.6s-0.2,0.5-0.3,0.7s-0.2,0.5-0.3,0.7s-0.3,0.4-0.4,0.6
			c0.1,0.3,0.1,0.5,0.1,0.8S120.1,151.9,120.3,152.2L120.3,152.2z M143.3,138.7c-0.6,0-1.2,0-1.9,0.1s-1.3,0.2-2,0.3
			c-0.5,0.1-0.9,0.1-1.4,0.2s-0.8,0.1-1.2,0.1c-0.2,0.5-0.3,1-0.5,1.4s-0.3,0.8-0.5,1.2c-0.2,0.4-0.4,0.8-0.5,1.2s-0.3,0.8-0.4,1.3
			c-0.2,0.4-0.4,0.7-0.6,1s-0.3,0.7-0.4,1.1c-0.3,0.4-0.5,0.7-0.6,1.1s-0.2,0.7-0.3,1l-0.1,0.4c-0.1,0.1-0.2,0.3-0.2,0.3
			s-0.1,0.2-0.2,0.2c0,0.3-0.1,0.5-0.2,0.8c0,0.1-0.1,0.2-0.1,0.3v0.2c0,0.2-0.1,0.4-0.2,0.5v0.4c0,0.2,0,0.3-0.1,0.4
			c-0.1,0.3-0.1,0.5-0.1,0.7c0.1,0.1,0.1,0.2,0.2,0.2s0.1,0.2,0.1,0.3c0.1,0.1,0.2,0.2,0.3,0.2c0.1,0.1,0.2,0.2,0.4,0.2l0.3,0.4
			c0.1,0.7,0,1.2-0.3,1.6c-0.4,0.4-0.9,0.7-1.8,0.7h-0.4c-0.1-0.1-0.2-0.2-0.2-0.3c-0.2-0.1-0.3-0.1-0.5-0.2s-0.2-0.1-0.3-0.3
			c-0.3-0.1-0.6-0.3-0.7-0.4l-0.3-0.2v-0.4c-0.2-0.2-0.3-0.4-0.4-0.7s-0.1-0.5-0.2-0.8c0-0.2-0.1-0.4-0.2-0.6s-0.1-0.4-0.2-0.5
			c0-1.4,0.1-2.5,0.4-3.4l0.9-2.7c0.2-0.5,0.4-0.9,0.6-1.4s0.4-1,0.5-1.5l0.3-0.4c0.2-0.4,0.3-0.7,0.4-0.9s0.2-0.5,0.3-0.8
			c0.1-0.2,0.1-0.3,0.2-0.5s0.1-0.3,0.2-0.4H131c-0.1,0-0.2,0-0.4,0.1c-0.1,0-0.3,0-0.4,0.1s-0.2,0-0.4,0h-0.4
			c-0.3,0.1-0.5,0.2-0.8,0.2h-0.8c-0.2,0-0.4,0-0.6,0.1H126h-0.4c-0.2,0-0.3,0-0.5-0.1s-0.4-0.1-0.6-0.2c-0.3-0.4-0.5-0.6-0.6-0.6
			l-0.3-0.4c0-0.1-0.1-0.3-0.1-0.4s-0.1-0.3-0.1-0.4c-0.1-0.2-0.2-0.5-0.3-0.8s-0.1-0.6-0.1-1c0-0.2,0.1-0.3,0.1-0.4
			s0.1-0.2,0.2-0.2l0.1-0.5h1.5c0.8,0,1.5,0,2.3-0.1s1.6-0.1,2.4-0.2c0.5,0,0.9-0.1,1.4-0.1s1-0.1,1.5-0.1l0.3-0.6l0.4-0.2
			c0.4,0,0.7,0,0.9,0.2l0.4,0.4c0.5,0,1-0.1,1.6-0.2s1.1-0.1,1.6-0.2l2.4-0.3c0.8-0.1,1.6-0.1,2.3-0.1h0.9c0.3,0,0.6,0.1,0.8,0.1
			l0.4,0.2c0.1,0.1,0.2,0.3,0.3,0.4s0.3,0.2,0.4,0.4c0.3,0.3,0.6,0.6,0.8,0.9s0.4,0.9,0.3,1.5c-0.2,0.3-0.3,0.4-0.4,0.5l-0.3,0.4
			h-0.4c-0.1,0-0.3,0-0.4,0.1s-0.2,0.1-0.4,0.1c-0.1,0-0.2,0.1-0.3,0.1s-0.2,0.1-0.3,0.1h-0.5C143.2,138.9,143.4,138.7,143.3,138.7
			L143.3,138.7z"/>
		<path fill="#FFFFFF" d="M160.6,138.7c-0.6,0-1.2,0-1.9,0.1s-1.3,0.2-2,0.3c-0.5,0.1-0.9,0.1-1.4,0.2s-0.8,0.1-1.2,0.1
			c-0.2,0.5-0.3,1-0.5,1.4s-0.3,0.8-0.5,1.2c-0.2,0.4-0.4,0.8-0.5,1.2s-0.3,0.8-0.4,1.3c-0.2,0.4-0.4,0.7-0.6,1s-0.3,0.7-0.4,1.1
			c-0.3,0.4-0.5,0.7-0.6,1.1s-0.2,0.7-0.3,1l-0.1,0.4c-0.1,0.1-0.2,0.3-0.2,0.3s-0.1,0.2-0.2,0.2c0,0.3-0.1,0.5-0.2,0.8
			c0,0.1-0.1,0.2-0.1,0.3v0.2c0,0.2-0.1,0.4-0.2,0.5v0.4c0,0.2,0,0.3-0.1,0.4c-0.1,0.3-0.1,0.5-0.1,0.7c0.1,0.1,0.1,0.2,0.2,0.2
			s0.1,0.2,0.1,0.3c0.1,0.1,0.2,0.2,0.3,0.2c0.1,0.1,0.2,0.2,0.4,0.2l0.3,0.4c0.1,0.7,0,1.2-0.3,1.6c-0.4,0.4-0.9,0.7-1.8,0.7h-0.4
			c-0.1-0.1-0.2-0.2-0.2-0.3c-0.2-0.1-0.3-0.1-0.5-0.2s-0.2-0.1-0.3-0.3c-0.3-0.1-0.6-0.3-0.7-0.4l-0.3-0.2v-0.4
			c-0.2-0.2-0.3-0.4-0.4-0.7s-0.1-0.5-0.2-0.8c0-0.2-0.1-0.4-0.2-0.6s-0.1-0.4-0.2-0.5c0-1.4,0.1-2.5,0.4-3.4l0.9-2.7
			c0.2-0.5,0.4-0.9,0.6-1.4s0.4-1,0.5-1.5l0.3-0.4c0.2-0.4,0.3-0.7,0.4-0.9s0.2-0.5,0.3-0.8c0.1-0.2,0.1-0.3,0.2-0.5
			s0.1-0.3,0.2-0.4h-0.4c-0.1,0-0.2,0-0.4,0.1c-0.1,0-0.3,0-0.4,0.1s-0.2,0-0.4,0h-0.4c-0.3,0.1-0.5,0.2-0.8,0.2h-0.8
			c-0.2,0-0.4,0-0.6,0.1h-1.2h-0.4c-0.2,0-0.3,0-0.5-0.1s-0.4-0.1-0.6-0.2c-0.3-0.4-0.5-0.6-0.6-0.6l-0.3-0.4c0-0.1-0.1-0.3-0.1-0.4
			s-0.1-0.3-0.1-0.4c-0.1-0.2-0.2-0.5-0.3-0.8s-0.1-0.6-0.1-1c0-0.2,0.1-0.3,0.1-0.4s0.1-0.2,0.2-0.2l0.1-0.5h1.5
			c0.8,0,1.5,0,2.3-0.1s1.6-0.1,2.4-0.2c0.5,0,0.9-0.1,1.4-0.1s1-0.1,1.5-0.1l0.3-0.6l0.4-0.2c0.4,0,0.7,0,0.9,0.2l0.4,0.4
			c0.5,0,1-0.1,1.6-0.2s1.1-0.1,1.6-0.2l2.4-0.3c0.8-0.1,1.6-0.1,2.3-0.1h0.9c0.3,0,0.6,0.1,0.8,0.1l0.4,0.2
			c0.1,0.1,0.2,0.3,0.3,0.4s0.3,0.2,0.4,0.4c0.3,0.3,0.6,0.6,0.8,0.9s0.4,0.9,0.3,1.5c-0.2,0.3-0.3,0.4-0.4,0.5l-0.3,0.4h-0.4
			c-0.1,0-0.3,0-0.4,0.1s-0.2,0.1-0.4,0.1c-0.1,0-0.2,0.1-0.3,0.1s-0.2,0.1-0.3,0.1h-0.5C160.5,138.9,160.7,138.7,160.6,138.7
			L160.6,138.7z"/>
		<path fill="#FFFFFF" d="M171.1,133.8c1,0.1,1.9,0.3,2.6,0.6s1.4,0.7,2,1.1c0.4,0.6,0.7,1.2,1.1,1.9s0.6,1.4,0.8,2.1
			s0.3,1.5,0.2,2.3s-0.2,1.6-0.5,2.4c-0.7,0.8-1.5,1.5-2.5,2.1s-2,1-3.1,1.3s-2.3,0.6-3.5,0.8s-2.4,0.5-3.5,0.7v1.7
			c0,0.6-0.1,1.2-0.2,1.8s-0.3,1.2-0.5,1.7s-0.5,1.1-0.8,1.5c-0.4,0-0.8,0.1-1.2,0.2s-0.8,0.2-1.1,0.3c-0.2-0.1-0.3-0.2-0.4-0.3
			s-0.3-0.1-0.5-0.2c0-0.2,0-0.5-0.2-0.7s-0.3-0.5-0.5-0.8s-0.3-0.5-0.3-0.7s0.1-0.5,0.3-0.7c-0.2-0.2-0.2-0.4-0.2-0.6
			c0.2-0.3,0.3-0.7,0.4-1.2l0.3-1.5c0.1-0.5,0.1-0.9,0.1-1.3s-0.3-0.7-0.7-0.9l0.1-0.1h0.2c-0.2-0.1-0.3-0.3-0.3-0.6
			s-0.1-0.5-0.3-0.7c0-0.1,0.1-0.2,0.1-0.3s0.1-0.1,0.2-0.1c-0.1-0.4-0.1-0.8,0-1.2s0.2-0.7,0.4-1.1s0.4-0.7,0.6-1s0.5-0.7,0.7-1
			c0.2,0,0.3,0,0.3,0.1s0.1,0.1,0.2,0c0.3-0.2,0.5-0.5,0.6-0.7s0.2-0.6,0.2-0.9l0.6-1.5c0.2-0.5,0.5-1,0.8-1.4s0.6-0.8,0.9-1.1
			s0.7-0.6,1.1-0.7c0.3-0.2,0.6-0.5,1.1-0.7s0.9-0.4,1.4-0.5s1-0.2,1.5-0.2S170.6,133.7,171.1,133.8c0,0.1,0.1,0.1,0.1,0
			S171,133.8,171.1,133.8L171.1,133.8z M169.6,142.2c0.6-0.3,1.2-0.5,1.9-0.6s1.2-0.4,1.7-0.9c-0.3-0.3-0.7-0.5-1.2-0.7
			s-1.1-0.3-1.8-0.4s-1.3,0-1.9,0.2s-1.2,0.4-1.7,0.9c-0.1,0.4-0.3,0.8-0.4,1s-0.2,0.5-0.4,0.9c0,0.1,0.1,0.2,0.2,0.3
			s0.2,0.1,0.2,0.3c0.5-0.3,1.1-0.4,1.6-0.5S169.1,142.5,169.6,142.2L169.6,142.2z"/>
		<path fill="#FFFFFF" d="M177.3,139.8c0.2-0.5,0.4-0.9,0.8-1.3s0.8-0.7,1.2-0.9s0.9-0.5,1.4-0.6s0.9-0.3,1.3-0.4
			c0.9-0.4,1.9-0.8,3-1.1s2.2-0.7,3.3-1s2.3-0.5,3.4-0.5s2.4,0.1,3.7,0.4c0.1,0.2,0.2,0.5,0.3,0.7s0.3,0.4,0.4,0.6s0.3,0.4,0.4,0.6
			s0.2,0.4,0.2,0.6c0.2,0.2,0.4,0.4,0.6,0.7s0.2,0.6,0.1,1c-0.2,0.2-0.5,0.4-0.7,0.5s-0.5,0.3-0.7,0.4c-0.9-0.2-1.7-0.3-2.6-0.2
			s-1.7,0.1-2.4,0.2c-0.2-0.2-0.5-0.3-0.8-0.3s-0.6,0-0.9,0.1l-0.9,0.3c-0.3,0.1-0.6,0.1-0.9,0.1c-0.2,0.2-0.5,0.3-0.9,0.4
			s-0.7,0.1-1.1,0.2c0,0.1,0,0.2,0.1,0.2s0.1,0.1,0,0.2c0.1,0.2,0.3,0.3,0.5,0.4s0.5,0.1,0.7,0.2s0.5,0.2,0.7,0.3s0.3,0.3,0.4,0.5
			c0.4,0,0.7,0.1,0.9,0.2s0.5,0.4,0.6,0.6s0.3,0.5,0.4,0.8s0.1,0.5,0.1,0.7c0.1,0.2,0.2,0.3,0.2,0.2s0.2,0,0.3,0.1
			c0.1,0.3,0.2,0.6,0.5,0.9s0.5,0.7,0.7,1c0,0.6,0.1,1.1,0.1,1.6s-0.1,0.9-0.2,1.4c-0.4,0.9-0.8,1.6-1.5,2.3s-1.3,1.3-2.1,1.8
			s-1.6,1-2.5,1.4s-1.8,0.7-2.6,0.9h-0.3c-0.1,0-0.1,0-0.1-0.2c-0.2,0.2-0.4,0.3-0.6,0.3s-0.5,0.1-0.7,0.1s-0.5,0-0.8-0.1
			s-0.5,0-0.8,0c-0.2-0.2-0.3-0.3-0.4-0.5s-0.2-0.3-0.3-0.6c-0.1,0-0.2-0.1-0.2-0.2s0-0.2-0.1-0.2l0.2-0.4c0,0,0-0.1-0.1-0.1
			s-0.1-0.1-0.2-0.1s-0.1-0.1,0-0.2c0.1-0.2,0.1-0.4,0.1-0.7s0-0.5-0.1-0.8s0-0.5,0.1-0.7s0.2-0.4,0.5-0.6c0.8,0.1,1.6,0.1,2.3-0.1
			s1.4-0.4,2-0.7l1.8-0.9c0.6-0.3,1.1-0.6,1.7-0.9c0.1-0.2,0.2-0.4,0.3-0.5l0.4-0.4c0.1-0.1,0.3-0.2,0.4-0.4s0.2-0.3,0.2-0.5
			s0-0.3-0.1-0.3s-0.2-0.1-0.2-0.3l-0.4-0.1c-0.4-0.3-0.9-0.5-1.5-0.7s-1-0.4-1.4-0.6c-0.3,0.1-0.5,0.2-0.7,0.1s-0.5-0.1-0.9-0.2
			c-0.8,0-1.6-0.1-2.3-0.2s-1.4-0.3-2.1-0.6c0-0.1-0.1-0.2-0.2-0.3s-0.2-0.1-0.4-0.1c-0.1-0.2-0.3-0.4-0.4-0.5s-0.3-0.4-0.4-0.6
			c0-0.3,0.1-0.5,0.1-0.7s0-0.4-0.2-0.6c0.1-0.3,0.2-0.6,0.2-0.7S177.3,140.1,177.3,139.8L177.3,139.8z"/>
		<path fill="#FFFFFF" d="M198.5,151.5c0,0.2,0.1,0.4,0.1,0.5s0.1,0.3,0.1,0.5c-0.1,0.2-0.2,0.5-0.2,0.7s-0.1,0.4-0.2,0.7
			c-0.1,0.2-0.1,0.3-0.1,0.3v0.5l-0.1,0.4c-0.1,0.2-0.3,0.3-0.4,0.4s-0.3,0.2-0.5,0.2c0,0-0.1,0.1-0.2,0.1s-0.2,0.1-0.2,0.1
			l-0.1,0.4l-0.5,0.1c-0.4,0.1-0.7,0.1-1,0.1h-0.4c-0.3-0.3-0.5-0.5-0.7-0.6s-0.3-0.3-0.5-0.4c-0.2-0.3-0.4-0.6-0.4-0.7
			s-0.1-0.3-0.1-0.4c0-0.3-0.1-0.5-0.2-0.6l-0.5-0.5l0.4-0.3l-0.4-0.7c0.3-0.2,0.5-0.4,0.6-0.5s0.3-0.2,0.4-0.3s0.2-0.2,0.3-0.4
			s0.3-0.4,0.6-0.8l0.3-0.5l0.5,0.2c0.1,0.1,0.3,0.1,0.6,0.2s0.6,0.1,0.8,0.2c0.4,0.1,0.8,0.2,1.1,0.3s0.6,0.2,0.8,0.4L198.5,151.5
			L198.5,151.5z M200.5,141.6c0,0.4-0.1,0.6-0.1,0.8s-0.1,0.3-0.1,0.5s0,0.3,0.1,0.5s0.1,0.5,0.2,1l0.1,0.6l-0.5,0.1
			c-0.1,0-0.3,0.2-0.6,0.4s-0.5,0.3-0.7,0.5l-0.9,0.6c-0.3,0.2-0.6,0.3-0.9,0.4l-0.8-0.4c-0.2-0.1-0.3-0.2-0.4-0.3
			c-0.1-0.2-0.2-0.5-0.3-0.7l-0.3-0.6c-0.1-0.2-0.1-0.3-0.1-0.3s0-0.1-0.1-0.1s0,0-0.1-0.1l-0.2-0.2l-0.2-0.4c0-0.4,0-0.7,0.2-1.1
			c0-0.2,0.1-0.4,0.1-0.5l-0.2-0.4l0.3-0.4c0.2-0.2,0.3-0.4,0.4-0.5l0.3-0.3l0.3-0.3c0.4,0,0.7,0,0.9-0.1s0.5-0.1,0.7-0.1
			c0.4,0.1,0.7,0.2,0.8,0.3s0.3,0.2,0.4,0.3c0.3,0.2,0.4,0.3,0.6,0.3h0.7l-0.1,0.6L200.5,141.6L200.5,141.6z M212.3,135.9
			c0.4-0.3,0.9-0.8,1.4-1.5s1-1.4,1.6-2.1s1.1-1.3,1.7-1.8s1.2-0.7,1.7-0.7c0.4,0.8,0.6,1.7,0.6,2.5s-0.1,1.8-0.2,2.8
			c-0.2,0.3-0.5,0.6-0.9,1.1s-0.8,0.9-1.3,1.5s-1,1.1-1.5,1.7s-1,1.1-1.5,1.7s-0.9,1-1.2,1.5s-0.6,0.8-0.7,1.1
			c-0.3,0.4-0.8,0.8-1.3,1.5s-1.1,1.3-1.7,2s-1.2,1.4-1.7,2.1s-1,1.2-1.4,1.7c0,0.1,0,0.2,0.1,0.3s0.2,0.2,0.2,0.3
			c-0.3,0.2-0.4,0.5-0.5,0.7s-0.1,0.4,0,0.6s0.1,0.4,0.1,0.6s0.1,0.4,0,0.7c-0.2,0.1-0.3,0.3-0.4,0.5s-0.2,0.4-0.3,0.5
			s-0.2,0.3-0.4,0.5s-0.3,0.3-0.6,0.4c-0.5,0-0.9-0.1-1.2-0.2s-0.7-0.2-1.1-0.2c-0.4-0.3-0.7-0.7-0.8-1.2s-0.2-1-0.2-1.5
			s0.1-1,0.2-1.5s0.2-0.9,0.3-1.3c0.3-0.2,0.3-0.3,0-0.4c0.1-0.3,0.3-0.6,0.5-0.8s0.4-0.4,0.4-0.6c0.2-0.3,0.5-0.7,0.9-1.2
			s1-1.1,1.5-1.7s1.1-1.2,1.6-1.8s0.9-1,1.2-1.4c0.1-0.4,0.5-0.9,1-1.5s1-1.2,1.6-1.8s1.1-1.2,1.5-1.8S212.2,136.3,212.3,135.9
			L212.3,135.9z M226.7,135.9c0.4-0.3,0.9-0.8,1.4-1.5s1-1.4,1.6-2.1s1.1-1.3,1.7-1.8s1.2-0.7,1.7-0.7c0.4,0.8,0.6,1.7,0.6,2.5
			s-0.1,1.8-0.2,2.8c-0.2,0.3-0.5,0.6-0.9,1.1s-0.8,0.9-1.3,1.5s-1,1.1-1.5,1.7s-1,1.1-1.5,1.7s-0.9,1-1.2,1.5s-0.6,0.8-0.7,1.1
			c-0.3,0.4-0.8,0.8-1.3,1.5s-1.1,1.3-1.7,2s-1.2,1.4-1.7,2.1s-1,1.2-1.4,1.7c0,0.1,0,0.2,0.1,0.3s0.2,0.2,0.2,0.3
			c-0.3,0.2-0.4,0.5-0.5,0.7s-0.1,0.4,0,0.6s0.1,0.4,0.1,0.6s0.1,0.4,0,0.7c-0.2,0.1-0.3,0.3-0.4,0.5s-0.2,0.4-0.3,0.5
			s-0.2,0.3-0.4,0.5s-0.3,0.3-0.6,0.4c-0.5,0-0.9-0.1-1.2-0.2s-0.7-0.2-1.1-0.2c-0.4-0.3-0.7-0.7-0.8-1.2s-0.2-1-0.2-1.5
			s0.1-1,0.2-1.5s0.2-0.9,0.3-1.3c0.3-0.2,0.3-0.3,0-0.4c0.1-0.3,0.3-0.6,0.5-0.8s0.4-0.4,0.4-0.6c0.2-0.3,0.5-0.7,0.9-1.2
			s1-1.1,1.5-1.7s1.1-1.2,1.6-1.8s0.9-1,1.2-1.4c0.1-0.4,0.5-0.9,1-1.5s1-1.2,1.6-1.8s1.1-1.2,1.5-1.8S226.7,136.3,226.7,135.9
			L226.7,135.9z"/>
	</g>
	<path fill="none" stroke="#FFFFFF" stroke-width="3.107" stroke-miterlimit="10" d="M89.8,117.1h113"/>
	<ellipse fill="none" stroke="#FFFFFF" stroke-width="3.107" stroke-miterlimit="10" cx="100.7" cy="110.4" rx="2.9" ry="2.5"/>
	<ellipse fill="none" stroke="#FFFFFF" stroke-width="3.107" stroke-miterlimit="10" cx="110.7" cy="110.4" rx="2.9" ry="2.5"/>
	<ellipse fill="none" stroke="#FFFFFF" stroke-width="3.107" stroke-miterlimit="10" cx="121.7" cy="110.4" rx="2.9" ry="2.5"/>
</g>
</svg>
