<?xml version="1.0" encoding="utf-8"?>
<!-- Generator: Adobe Illustrator 25.0.0, SVG Export Plug-In . SVG Version: 6.00 Build 0)  -->
<svg version="1.1" id="Layer_1" xmlns="http://www.w3.org/2000/svg" xmlns:xlink="http://www.w3.org/1999/xlink" x="0px" y="0px"
	 viewBox="0 0 303 374" enable-background="new 0 0 303 374" xml:space="preserve">
<path fill="#FFC63E" d="M154.7,16c0,0-47.7,0-51.9-12.6L64.3,16c0,0-26.8,7.5-29.3,18.4c0,0-5.6,7.3-10.6,55.8c0,0-10.3,74-8.7,83.2
	c0,0-2.5,24.3-2.5,31.8c0,0-4.2,64.5-4.2,77c0,0-2.5,34.3,0,40.2c0,0,1.7,15.9,7.5,19.3c0,0,2.5,20.9,1.7,24.3c0,0,15.9,7.5,31,0.8
	c0,0,0.8-21.8,3.3-26c0,0,6.3-14.5,7.4-33.6c0.2-2.9,0.2-6,0.1-9.1c0,0,3.3-0.8,4.5,10.3c0,0-3.3,14-2.2,15.6
	c1.1,1.7,34,5.6,41.3,2.8c0,0,17.9-4.5,24-3.3c0,0,17.3,0.6,26.2,0"/>
<path fill="#6D6E70" d="M155.3,15.1c-5.3,0-10.6-0.3-15.8-0.7c-9-0.7-18.5-1.7-27-5c-3.1-1.2-6.9-3-8.1-6.4
	c-0.2-0.6-1.2-0.6-1.7-0.5c-12.1,4-24.3,7.9-36.4,11.9c-3.9,1.3-7.9,2.5-11.8,4c-4.3,1.7-8.5,3.7-12.3,6.2c-3.2,2.1-6.7,4.8-8.2,8.6
	c-0.6,1.6-1.4,3.3-2,5C30,43.9,28.8,50,27.7,56c-2.9,15.6-4.3,31.4-6.4,47.2c-2.3,17-4.5,34.1-6.1,51.2c-0.6,5.9-1.3,12-1,17.9
	c0.1,1.6,0,2.8-0.2,4.8c-0.4,4.5-0.9,9-1.2,13.5c-1,12.2-1.5,24.4-2.3,36.7c-1,17.1-2.2,34.3-2.7,51.4c-0.4,13.3-2.1,26.8-0.9,40.1
	c0.2,2.1,0.7,4.1,1.1,6.1c0.6,4.2,1.6,8.5,3.4,12.4c0.8,1.7,1.8,3.8,3.5,4.8c0.2,0.1,0.6,0.6,0.4,0.2v0.3c0.1,0.5,0.1,1,0.2,1.5
	c0.5,4,0.9,8.1,1.2,12.1c0.3,3.2,1,6.9,0.2,10.1c-0.1,0.2,0.1,0.5,0.3,0.6c10,4.7,22.6,5.2,32.7,0.8c0.3-0.1,0.8-0.5,0.9-0.9
	c0.3-7.3,0.6-14.7,2.1-21.9c0.4-2.2,1.3-4.1,2.1-6.2c1.7-4.6,3-9.3,4.1-14c1.9-8.7,2.9-17.6,2.6-26.6c-0.4,0.3-0.8,0.7-1.2,1
	l-0.6,0.1c0.1-0.1,0-0.1,0,0c0-0.1,0.6,0.4,0.8,0.7c1.5,1.7,1.9,4.5,2.2,6.6c0.3,1.9,0.1,2.9-0.3,4.7c-0.5,2.2-0.9,4.4-1.3,6.6
	c-0.4,2.1-1.8,6.7,0.9,7.7c3,1.1,6.5,1.4,9.7,1.8c5,0.7,10,1.1,15,1.4c4.5,0.2,9.1,0.5,13.6-0.1c0.8-0.1,1.5-0.2,2.3-0.4
	c0.3-0.1,0.6-0.2,0.8-0.2c0.7-0.2,0.1,0,0.4-0.1l3.9-0.9c5-1.1,10-2.1,15.1-2.5c3.6-0.2,7.4,0.2,11.1,0.3c6.5,0.1,13.1,0.2,19.7-0.2
	c1.5-0.1,2.3-1.9,0.3-1.8c-9.1,0.5-18.8,0.1-27.7-0.2c-7.9-0.3-16.4,2-23.9,3.9c-3.7,1-7.9,0.7-11.8,0.5c-5.2-0.2-10.4-0.6-15.6-1.3
	c-3.6-0.4-7.3-0.8-10.7-1.8c-0.4-0.1-0.6-0.1-0.8-0.3c0.1,0.2,0-1,0-1.2c0-2.1,0.5-4.3,0.9-6.3c0.4-2.2,0.9-4.5,1.4-6.7
	s-0.2-4.8-0.8-6.9c-0.7-2.3-2.1-5.6-5.1-4.9c-0.4,0.1-1.2,0.5-1.2,1c0.4,13.4-1.8,26.9-6.3,39.5c-0.7,2-1.7,3.9-2.2,5.9
	c-1.1,4.3-1.4,8.9-1.8,13.3c-0.3,3.3-0.5,6.6-0.6,9.8l0.9-0.9c-9,3.9-20.4,3.3-29.2-0.9l0.3,0.6c0.7-3.2,0-7-0.2-10.2
	c-0.3-4.1-0.7-8.1-1.2-12.2c-0.1-0.6,0-1.7-0.3-2.3s-1.4-1.1-1.9-1.7c-0.7-0.8-1.3-1.8-1.8-2.8c-1.9-3.9-2.9-8.3-3.5-12.5
	c-0.3-2.1-0.9-4-1.1-6.1c-0.4-4-0.4-8.1-0.3-12.2c0.1-7.6,0.5-15.2,1-22.7c0.3-4.9,0.3-9.8,0.5-14.7c0.4-9.1,0.9-18.1,1.5-27.1
	c0.5-8.5,1-17,1.6-25.6c0.2-3.8,0.6-7.6,0.7-11.5c0.2-9,1.2-17.9,2.1-26.8c0.2-1.8,0.4-3.5,0.3-5.3c-0.2-2.2,0-4.4,0.1-6.6
	c0.9-16.6,3.2-33.2,5.3-49.8c1.7-13.4,3.4-26.8,5.1-40.1c1.3-9.9,2.7-19.9,5-29.7c0.8-3.6,1.7-7.3,3.3-10.5c0.2-0.3,0.4-0.6,0.5-0.9
	c0.7-1.6,1.2-3,2.4-4.4c1.4-1.6,3.1-2.9,4.9-4.1c6.2-4.1,13.3-6.8,20.4-9C75.9,13.6,87.4,9.6,99,5.8c1.4-0.5,2.9-0.9,4.3-1.4
	c-0.6-0.2-1.1-0.3-1.7-0.5c1.1,3.1,4,5,6.8,6.3c4,1.9,8.3,2.9,12.5,3.8c8.9,1.8,18.1,2.5,27.2,2.9c2.1,0.1,4.2,0.1,6.2,0.1
	c0.6,0,1.6-0.2,1.9-0.8C156.3,15.5,155.9,15.1,155.3,15.1L155.3,15.1z"/>
<path fill="#FFC63E" d="M150.3,16c0,0,47.7,0,51.9-12.6L240.7,16c0,0,26.8,7.5,29.3,18.4c0,0,5.6,7.3,10.6,55.8
	c0,0,10.3,74,8.7,83.2c0,0,2.5,24.3,2.5,31.8c0,0,4.2,64.5,4.2,77c0,0,2.5,34.3,0,40.2c0,0-1.7,15.9-7.5,19.3c0,0-2.5,20.9-1.7,24.3
	c0,0-15.9,7.5-31,0.8c0,0-0.8-21.8-3.3-26c0,0-6.3-14.5-7.4-33.6c-0.2-2.9-0.2-6-0.1-9.1c0,0-3.3-0.8-4.5,10.3c0,0,3.3,14,2.2,15.6
	s-34,5.6-41.3,2.8c0,0-17.9-4.5-24-3.3c0,0-17.3,0.6-26.2,0"/>
<path fill="#6D6E70" d="M149.7,16.9c5.8,0,11.6-0.3,17.4-0.8c9.4-0.8,19.4-1.9,28.2-5.6c3.4-1.4,7-3.6,8.3-7.2
	c-0.8,0.3-1.5,0.7-2.3,1c12.1,3.9,24.1,7.9,36.2,11.8c3.9,1.3,7.8,2.5,11.6,4c4.2,1.7,8.4,3.6,12.1,6.2c1.7,1.2,3.4,2.5,4.8,4.1
	c1.3,1.5,1.8,2.9,2.6,4.7c0.2,0.5,0.2,0.4,0.4,0.7c0.5,1.1,1,2.3,1.4,3.5c2.1,6.1,3.3,12.6,4.4,18.9c2.7,15.3,4.2,30.9,6.2,46.3
	c2.3,17,4.4,34.1,6,51.2c0.5,5.6,1.4,11.4,0.9,17c-0.2,1.8,0.2,3.6,0.3,5.4c0.4,4.6,0.9,9.1,1.2,13.7c1,12.1,1.5,24.2,2.2,36.3
	c1,16.9,2.2,33.9,2.7,50.9c0.1,4.8,0.5,9.5,0.7,14.3c0.4,8.5,1,17.2,0.1,25.7c-0.2,2.1-0.8,4.1-1.1,6.1c-0.7,4.3-1.6,8.8-3.7,12.7
	c-0.4,0.8-0.9,1.6-1.6,2.3c-0.6,0.6-1.6,1.1-1.9,1.8s-0.2,1.7-0.3,2.4c-0.5,4.1-0.9,8.2-1.2,12.3c-0.2,3.1-0.9,6.7-0.2,9.8
	c0.3-0.4,0.6-0.7,0.8-1.1c-5.4,2.5-11.7,3.6-17.6,3.4c-2.6-0.1-5.1-0.5-7.6-1.1c-0.6-0.2-1.2-0.4-1.9-0.6c-0.3-0.1-1.9-0.6-1.9-0.5
	c-0.1-0.1,0-0.3,0-0.5c-0.2-0.6-0.1-1.4-0.1-2c-0.1-1.3-0.1-2.6-0.2-3.9c-0.4-5.9-0.6-12.2-2.3-17.9c-0.4-1.2-0.8-1.9-1.2-3.1
	c-1-2.4-1.8-4.9-2.5-7.5c-3.2-10.9-4.8-22.3-4.5-33.7c0-0.4-0.2-0.6-0.6-0.7c-2.3-0.5-4.1,1.4-5,3.3c-1.1,2.3-2,5.7-1.8,8.3
	c0.1,1.2,0.5,2.4,0.8,3.5c0.5,2.3,1,4.6,1.3,7c0.2,1.3,0.2,3.6,0.4,4.5c0-0.2,0.4-0.2-0.1,0c-0.6,0.2-1.2,0.3-1.9,0.5
	c-1.9,0.4-3.8,0.7-5.6,0.9c-4.9,0.7-9.9,1.2-14.9,1.5c-4.6,0.3-9.3,0.5-13.8,0c-2.5-0.3-4.9-1.1-7.4-1.7c-5-1.1-10.1-2.1-15.2-2.5
	c-3.6-0.3-7.4,0.2-11,0.2c-6.6,0.1-13.3,0.2-19.9-0.2c-1.2-0.1-3,1.7-1.1,1.8c5.9,0.4,11.9,0.3,17.8,0.2c3.3-0.1,6.6-0.1,9.8-0.3
	c4.9-0.4,10.1,0.8,14.9,1.8c2.8,0.6,5.6,1.3,8.4,2c3.8,0.9,8,0.8,11.9,0.7c5.2-0.1,10.5-0.6,15.7-1.2c3.9-0.4,7.8-0.9,11.6-1.8
	c0.9-0.2,2-0.4,2.8-1c1.1-0.9,0.9-2.5,0.8-3.7c-0.2-2.5-0.7-5.1-1.2-7.6c-0.3-1.7-1-3.5-1.1-5.2c-0.1-1.4,0.4-3.1,0.7-4.5
	c0.3-1.3,0.6-2.6,1.3-3.7c0.2-0.3,0.3-0.5,0.5-0.8s0.3-0.3,0.3-0.3s-0.4,0.1-0.7,0c-0.2-0.2-0.4-0.5-0.6-0.7
	c-0.4,13.4,1.8,27,6.3,39.6c0.7,2,1.7,3.9,2.2,5.9c1.1,4.3,1.4,8.9,1.8,13.3c0.3,3.3,0.5,6.7,0.6,10c0.1,0.2,0.2,0.3,0.3,0.4
	c10.1,4.4,22.7,3.8,32.7-0.9c0.4-0.2,1-0.6,0.8-1.1c-0.4-1.7-0.2-3.6-0.1-5.3c0.1-2.7,0.4-5.4,0.6-8c0.3-3.6,0.7-7.1,1.1-10.7
	c-0.2,0.2-0.4,0.5-0.5,0.7c3.4-2.1,5-6.4,6.1-10c0.9-3.2,1.4-6.4,2-9.7c0.3-1.8,0.9-4.5,1-6.8c0.2-4.1,0.2-8.1,0.1-12.2
	c-0.2-6.9-0.5-13.8-1-20.7c-0.3-4.3-0.3-9.4-0.5-14c-0.8-16.8-1.8-33.6-2.9-50.4c-0.7-11.8-1.3-23.6-2.4-35.4
	c-0.3-3.1-0.6-6.3-0.9-9.4c-0.1-0.7,0-0.5,0.1-1.3c0.1-0.9,0.1-1.7,0.1-2.6c0-6.2-0.7-12.4-1.3-18.5c-1.6-16.2-3.7-32.4-5.8-48.5
	c-1.9-14.5-3.3-29.2-5.8-43.6c-1.1-6.5-2.3-13.1-4.3-19.5c-0.6-2-1.5-3.8-2.3-5.7s-1.6-3.7-3.1-5.3c-2.9-3-6.6-5.2-10.3-7.1
	c-5.3-2.7-10.8-4.7-16.4-6.4c-11.6-3.6-23.1-7.5-34.6-11.3c-1.3-0.4-2.6-0.8-3.9-1.3c-0.8-0.3-2,0.2-2.3,1c-1,2.8-4.1,4.4-6.6,5.5
	c-3.9,1.7-8.2,2.6-12.4,3.4c-8.4,1.5-16.9,2.2-25.5,2.5c-1.9,0.1-3.6,0.1-5.5,0.1c-0.6,0-1.6,0.2-1.9,0.8
	C148.7,16.5,149.1,16.9,149.7,16.9L149.7,16.9z"/>
<path fill="#FFFFFF" stroke="#58595B" stroke-miterlimit="10" d="M62.4,298.4c0,0,4.5,5.6,2.8,12.3L63,323.5c0,0,23.4,5,36.8,2.8
	c0,0,18.4-3.9,22.9-3.9c0,0,25.7,1.1,29.6,0c0,0,30.1,1.1,34,1.1c0,0,11.7,2.4,15.1,2.4c0,0,32.9,3.2,40.7-3c0,0-5.2-21.8,0.9-26.8
	c0,0-27.5,5.2-38,2.2c0,0-26-3-32.7-0.7c0,0-9.3,1.1-31.3,2.2c0,0-13-1.5-29.8-1.1c0,0-13.8,0.2-21.6,0.2
	C89.7,299,66.8,305.1,62.4,298.4L62.4,298.4z"/>
<path fill="#FFFFFF" stroke="#58595B" stroke-width="1.017" stroke-miterlimit="10" d="M16.8,341.8c0,0,2-0.4,6.3-0.7
	c0,0,9.8-0.4,16.9,1.1c0,0,8.2,0.7,12.9-1.8c0,0-2.7,5.8-2.7,12.8l-0.4,14.2c0,0-16.5,4.7-30.6-1.5
	C19.1,365.8,19.5,351.2,16.8,341.8z"/>
<path fill="#FFFFFF" stroke="#58595B" stroke-width="1.041" stroke-miterlimit="10" d="M288.8,339.3c0,0-2.1-0.4-6.7-0.8
	c0,0-10.4-0.4-17.9,1.2c0,0-8.7,0.8-13.7-1.9c0,0,2.9,6.2,2.9,13.6l0.4,15.1c0,0,17.5,5,32.5-1.5
	C286.3,364.9,285.9,349.4,288.8,339.3L288.8,339.3z"/>
<path fill="#6D6E70" d="M26.6,61.5c3.7,1.7,7.1,4.2,10.2,6.7c7.1,5.8,13,13.2,16.6,21.7c1.7,4.1,3,8.4,3.6,12.8
	c0.3,2.3,0.5,4.7,0.7,7c1.1,10.8,1.8,21.7,2.2,32.6c0.2,6.6,0.3,13.1,0.1,19.7c-0.1,2.2-0.1,4.5-0.4,6.7c-0.7,4.9-1.3,9.8-1.9,14.8
	c-2.2,18.7-4.1,37.4-5,56.2c-0.5,9.4-0.8,18.8-0.4,28.3c0.1,2,0.2,4,0.4,6.1c0.1,1.2,0.3,2.3,0.3,3.4c0,4.5,0.7,9.1,1.8,13.4
	c0.9,3.5,2.2,7,3.8,10.2c0.6,1.2,3.4,0.3,2.9-0.8c-3-6-4.8-12.5-5.4-19.1c-0.1-1.4-0.2-2.9-0.2-4.3s-0.2-2.8-0.4-4.1
	c-0.7-8.9-0.6-17.9-0.2-26.9c0.7-19.4,2.6-38.8,4.8-58.1c0.7-5.9,1.4-11.8,2.2-17.7c0.9-6.7,0.8-13.6,0.7-20.4
	c-0.1-11.8-0.8-23.6-1.9-35.4c-0.5-6.1-0.9-12.4-2.5-18.4c-4.1-15.1-15.2-28.4-29.1-35.6c-0.3-0.1-0.5-0.3-0.8-0.4
	c-0.7-0.3-1.5-0.2-2.1,0.2C26.4,60.4,26,61.2,26.6,61.5L26.6,61.5z M272.9,52.6c-3.9,1.8-7.6,4.5-10.9,7.3
	c-7.4,6.1-13.4,13.8-17.1,22.7c-1.6,3.9-2.9,8.2-3.3,12.4c-0.3,2.7-0.6,5.3-0.8,8c-1.1,11.5-1.9,22.9-2.2,34.4
	c-0.2,6.8-0.2,13.6,0.2,20.4c0.1,1.4,0.2,2.8,0.4,4.2c0.8,5.7,1.4,11.4,2.1,17c1.1,9.4,2,18.7,2.9,28.1c0.9,10.5,1.7,21.1,2.1,31.7
	c0.3,9.2,0.5,18.4-0.3,27.6c-0.1,1.2-0.4,2.3-0.2,3.5c0.2,1.5,0.3,2.9,0.3,4.4c0.2,5.5,0,11-1.2,16.4c-0.6,3-1.6,5.9-2.9,8.6
	c-0.3,0.5,1,0.4,1.2,0.4c0.6-0.1,1.4-0.3,1.7-0.9c4.4-8.9,4.9-19.8,3.8-29.5c-0.1-1.1,0.1-2.1,0.2-3.2c0.2-2,0.3-3.9,0.4-5.9
	c0.2-4.6,0.2-9.2,0.2-13.8c-0.1-10.4-0.8-20.8-1.6-31.2c-0.8-9.9-1.7-19.8-2.8-29.7c-0.8-7-1.6-13.9-2.5-20.8
	c-0.2-1.6-0.4-3.2-0.6-4.9c-0.5-3.6-0.4-7.3-0.4-10.8c-0.2-12.8,0.5-25.6,1.5-38.4c0.5-6.2,0.8-12.5,2-18.6c2-10.5,7.3-20,14.7-27.6
	c4.2-4.3,9-8.1,14.2-10.8c0.3-0.1,0.5-0.3,0.8-0.4c0.4-0.2,0.8-0.6,0.3-0.9C274.4,51.9,273.3,52.3,272.9,52.6L272.9,52.6z"/>
<path fill="none" stroke="#FFFFFF" stroke-miterlimit="10" d="M152.6,41.3C102,38.3,102,3.2,102,3.2L89.7,7.1
	c0,0,8.6,44.3,62.5,43.2"/>
<path fill="#FFFFFF" d="M151.8,16c-45-0.6-48.3-11.7-48.3-11.7L90.9,8.2c0,0,12.1,17.3,61.5,16.2"/>
<path fill="#6D6E70" d="M152.7,15.5c-11.9-0.2-24.2-0.7-35.6-4.2c-3.9-1.2-8.6-2.8-11.3-6c-0.3-0.4-0.7-0.9-0.9-1.4
	c-0.1-0.5-1.7,0-1.9,0.1L90.4,7.9c-0.1,0-1.1,0.4-1,0.7c1.7,2.5,4.6,4.3,7.1,5.9c8.2,5,17.9,7.5,27.3,8.9c9.1,1.4,18.4,1.8,27.6,1.6
	c0.6,0,1.5-0.1,2-0.5c0.4-0.3,0.5-0.6-0.1-0.6c-14.1,0.3-28.6-0.6-42.1-5c-6-2-12.2-4.7-16.9-9c-0.7-0.7-1.4-1.3-2-2.1
	c-0.3,0.2-0.6,0.4-1,0.7l12.6-3.9c-0.6,0-1.3,0.1-1.9,0.1c0.5,1.7,2.5,3,3.9,3.9c6.1,3.9,13.8,5.3,20.7,6.3c8,1.2,16.1,1.6,24.2,1.7
	c0.6,0,1.5-0.2,2-0.5C153.2,15.7,153.3,15.5,152.7,15.5L152.7,15.5z"/>
<path fill="#FFFFFF" d="M152.3,16c45-0.6,48.3-11.7,48.3-11.7l12.6,3.9c0,0-12.1,17.3-61.5,16.2"/>
<path fill="#6D6E70" d="M151.7,16.8c12.2-0.2,25-0.8,36.8-4.3c4.4-1.3,9.4-3.1,12.5-6.7c0.4-0.5,0.8-1,1-1.6
	c-0.9,0.3-1.7,0.6-2.6,0.9L212,9c-0.1-0.2-0.1-0.4-0.2-0.7c-0.1,0.2-0.2,0.3-0.4,0.4c-0.1,0.2-0.3,0.3-0.5,0.5l-0.6,0.6
	c-1.6,1.5-3.3,2.8-5.1,3.9c-7.8,4.8-17.1,7.2-26.1,8.5c-8.9,1.4-18,1.7-27,1.5c-0.6,0-1.6,0.2-1.9,0.8s0.3,0.7,0.8,0.7
	c14.4,0.3,29.3-0.6,43.1-5.1c6.4-2.1,13-4.9,18.1-9.5c0.8-0.7,1.6-1.5,2.2-2.3c0.2-0.2,0.2-0.6-0.2-0.7l-12.6-3.9
	c-0.7-0.2-2.3,0-2.6,0.9c0,0.1-0.1,0.2-0.1,0.3c-0.1,0.2,0.1-0.2,0,0c0,0.1-0.1,0.1-0.1,0.2c-0.1,0.1-0.2,0.3-0.3,0.4
	c-0.1,0.2-0.3,0.4-0.5,0.6l-0.1,0.1c-0.1,0.1-0.2,0.2-0.4,0.3c-0.3,0.2-0.6,0.5-0.9,0.7c-0.4,0.3-0.6,0.4-0.9,0.6
	c-5.6,3.5-12.8,4.9-19.5,5.9c-7.8,1.1-15.7,1.5-23.6,1.6c-0.6,0-1.6,0.2-1.9,0.8C150.7,16.6,151.2,16.8,151.7,16.8L151.7,16.8z"/>
<path fill="#FFFFFF" d="M152.8,41.3c-50.5-3-50.5-38.1-50.5-38.1L90.1,7.1c0,0,8.5,44.3,62.3,43.1"/>
<path fill="#6D6E70" d="M153.7,40.7c-13.8-0.8-28.5-4.4-38.7-14.2c-5.4-5.2-9.2-12-10.7-19.4c-0.3-1.4-0.5-2.9-0.5-4.3
	c0-0.5-1.8,0-1.9,0.1c-4.1,1.3-8.2,2.6-12.2,3.9c-0.2,0.1-1,0.4-0.9,0.7c1,5.3,3.5,10.5,6.2,15.1c6.3,10.6,15.8,18.8,27.3,23.4
	c9.3,3.7,19.4,5,29.4,4.8c0.6,0,1.5-0.1,2-0.5c0.4-0.3,0.5-0.6-0.2-0.6c-15.9,0.3-32-3.6-44.2-14.1c-7.2-6.3-12.8-14.5-16-23.4
	c-0.6-1.7-1.2-3.5-1.6-5.4c-0.3,0.2-0.6,0.5-0.9,0.7C94.9,6.2,99,4.9,103,3.6c-0.6,0-1.3,0-1.9,0.1c0,4.1,1.4,8.5,3.1,12.2
	c4.2,9.3,12.1,16.2,21.3,20.2c8.4,3.7,17.5,5.3,26.6,5.9c0.6,0,1.6-0.1,2-0.5C154.3,41,154.3,40.8,153.7,40.7L153.7,40.7z"/>
<path fill="#FFFFFF" d="M150.9,41.3c51.6-0.7,50.5-38.1,50.5-38.1l12.2,3.9c0,0-8.5,44.3-62.3,43.1"/>
<path fill="#6D6E70" d="M150.3,41.9c14.4-0.2,30.2-3.3,41.1-13.6c5.8-5.5,9.7-12.8,11-20.7c0.3-1.6,0.5-3.2,0.4-4.9
	c-0.9,0.3-1.8,0.6-2.6,1c4.1,1.3,8.2,2.6,12.2,3.9c-0.1-0.1-0.2-0.2-0.2-0.3c-1,5-3.3,10-5.8,14.4c-5.9,10.2-14.9,18.4-25.8,23
	c-9,3.8-18.7,5-28.4,4.9c-0.6,0-1.5,0.1-2,0.5c-0.4,0.3-0.5,0.7,0.2,0.7c16.4,0.3,33.2-3.6,46-14.2c7.7-6.3,13.5-14.8,17-24.2
	c0.7-1.8,1.3-3.7,1.7-5.6c0-0.2-0.1-0.3-0.2-0.3c-4.1-1.3-8.2-2.6-12.2-3.9c-0.5-0.2-2.7,0.2-2.6,1c0.1,4.1-1,8.5-2.6,12.3
	c-3.6,9.1-10.9,16-19.8,20c-8.1,3.6-17.2,4.7-26,4.9c-0.5,0-1.7,0.2-1.9,0.7C149.3,41.9,149.9,41.9,150.3,41.9L150.3,41.9z"/>
<path opacity="0.33" fill="#231F20" stroke="#6D6E70" stroke-miterlimit="10" enable-background="new    " d="M108.7,18.6
	c0,0,4.8,18.6,43.2,21.2c0,0,32,2.2,44.3-21.2c0,0-13,7.4-43.9,7.1C152.2,25.7,118.4,25.7,108.7,18.6z"/>
<path fill="#6D6E70" d="M152.4,201.2l13.2,0.3l26.9,0.6c7.2,0.2,14.5,0.3,21.7,0.6c0.8,0,1.6,0.1,2.4,0.1c0.8,0.1-0.1-0.1,0-0.2v0.3
	c-0.1,0.5,0.2,1.2,0.3,1.7c0.2,1,0.3,2.1,0.5,3.1c1.3,7.6,2.9,15.1,4.7,22.6c2.4,9.9,5.1,19.8,8.6,29.4c3,8.3,6.6,16.9,12.4,23.7
	c0.6,0.7,1.2,1.4,1.8,2c0.3,0.3,0.6,0.6,0.9,0.8c0.2,0.2,0.8,0.5,0.9,0.8c0.2,0.3,0,1.1,0,1.5c0,1.2-0.2,2.4-0.5,3.6
	c-0.3,1.5-0.8,2.9-1.5,4.2c-0.2,0.4-0.4,0.7-0.6,1.1c-0.2,0.3-0.7,0.8-0.8,1.1c-0.1,0.5-0.1-0.2,0.1,0.1c0,0,0.5-0.2,0.2-0.1
	c-0.1,0.1-0.2,0.1-0.3,0.1c-0.1,0-0.6,0.2-0.4,0.2c0.1,0-0.4,0.1-0.6,0.2c-0.4,0.1-0.7,0.2-1.1,0.3c-5,1.1-10.7,0.9-15.9,0.2
	c-2.1-0.3-4.3-0.7-6.4-1.2c-0.4-0.1-0.9-0.2-1.3-0.2c-1.1-0.1-2.3-0.1-3.4-0.1c-9.1-0.3-18.2-0.7-27.3-0.6c-1.5,0-2.9,0-4.4,0.2
	c0.2,0,0.5,0.1,0.7,0.1c-0.5-0.6-2.1-0.6-2.7-0.6c-4.2-0.5-8.6-0.2-12.9,0c-5.2,0.2-10.4,0.7-15.6,1.1c-0.3,0-2.5,0.5-2,1.1l0.2,0.2
	c0.5-0.4,1.1-0.7,1.6-1.1c-3.8,0.8-7.8,0.6-11.7,0.5c-4-0.1-8-0.4-12-0.8c-4.9-0.4-9.7-0.5-14.6-0.5c-7.2,0.1-14.5,0.3-21.7,0.6
	c-0.8,0-1.6,0-2.4,0.1c-1.8,0.1-3.6,0.7-5.3,1.1c-5.1,0.9-10.4,1.3-15.6,0.9c-1.7-0.1-3.4-0.4-5-0.7c-0.6-0.1-1.6-0.2-2.2-0.6
	c-0.2-0.1-0.3-0.4-0.5-0.6c-0.5-0.7-1.1-1.5-1.6-2.2c-0.7-1.2-1.3-2.5-1.8-3.9s-0.9-2.8-1-4.3c-0.1,0.2-0.2,0.3-0.3,0.5
	c4.2-2.9,6.9-8,9.1-12.5c3.4-6.8,6.2-14,8.7-21.2c4.9-14.1,9-28.6,12.6-43.1c0.8-3.2,1.6-6.3,2.3-9.5c-0.6,0.3-1.1,0.5-1.7,0.8
	c0.4-0.1-0.4,0,0,0h0.5c0.5,0,1.1-0.1,1.6-0.1c1.7-0.1,3.4-0.1,5.1-0.2c5.2-0.2,10.4-0.3,15.7-0.4c11.3-0.3,22.5-0.5,33.8-0.7
	c2.5,0,5.1-0.1,7.6-0.1c0.5,0,1.7-0.2,1.9-0.7c0.3-0.5-0.3-0.5-0.7-0.5c-7.1,0.1-14.2,0.3-21.3,0.4c-11.5,0.2-23,0.5-34.4,0.8
	c-3,0.1-6.3-0.1-9.3,0.5c-0.4,0.1-1.6,0.3-1.7,0.8c-2,8.7-4.3,17.4-6.7,26c-4.2,15.1-8.8,30.4-15.4,44.7c-1.5,3.2-3.1,6.4-5,9.3
	c-1.3,2-2.9,4.2-4.9,5.6c-0.1,0.1-0.4,0.3-0.3,0.5c0.4,3.8,2.2,7.7,4.5,10.6c1.1,1.4,3.5,1.5,5.1,1.7c4.4,0.7,8.9,0.8,13.3,0.4
	c3.1-0.3,6.2-0.7,9.3-1.4c0.4-0.1,0.9-0.2,1.3-0.3c0,0,1.6-0.3,0.7-0.2h0.9l19.8-0.6c5.4-0.1,10.7-0.3,16.1,0.3
	c4.2,0.4,8.5,0.7,12.7,0.9c4.6,0.2,9.4,0.4,13.9-0.6c0.2,0,2.2-0.5,1.6-1.1l-0.2-0.2c-0.7,0.4-1.3,0.7-2,1.1c6-0.5,11.9-1,17.9-1.2
	c2.9-0.1,5.8-0.2,8.7,0c1.2,0.1,1.8,0.1,2.9,0.4c0.2,0.1-0.1,0,0.1,0.1c0.7,0.2,1.5,0.1,2.3,0c7.6-0.3,15.3,0.1,22.9,0.3l9,0.3
	c0.6,0,1.1,0,1.6,0.1c3.3,0.6,6.5,1.4,9.8,1.7c4.6,0.4,9.3,0.4,13.8-0.5c1.7-0.3,3.7-0.7,5.3-1.5c1-0.5,1.8-1.9,2.3-2.9
	c0.7-1.2,1.2-2.5,1.5-3.8c0.5-1.8,0.7-3.6,0.7-5.4c0-0.3,0-0.6-0.1-0.9c-0.3-0.5-1.2-1-1.6-1.4c-1.1-1.1-2.1-2.2-3-3.4
	c-4.6-6-7.8-13.2-10.5-20.3c-3.1-8-5.5-16.3-7.7-24.6c-2.9-11.2-5.3-22.6-7.1-34c0-0.2-0.1-0.4-0.1-0.6c-0.1-0.1-0.1-0.2-0.3-0.2
	c-2.5-0.5-5.1-0.3-7.6-0.4c-5.2-0.2-10.4-0.3-15.7-0.4c-11.3-0.3-22.6-0.5-34-0.7c-2.6,0-5.2-0.1-7.7-0.1c-0.6,0-1.5,0.1-2,0.5
	C151.9,200.8,151.8,201.2,152.4,201.2L152.4,201.2z"/>
<path fill="#6D6E70" d="M87.9,203.8c0.8,1,1.7,1.9,2.5,2.9c0.5,0.6,1.1,1.2,1.6,1.9c0.2,0.2,0.3,0.5,0.5,0.6
	c0.5,0.3-0.2,0.2,0.1-0.2c-0.3,0.4-0.3,1.8-0.4,2.3c-0.8,4.9-1.8,9.9-2.9,14.8c-3.7,16.3-8.5,32.7-16.3,47.6
	c-4.1,7.9-9.2,15.7-16.2,21.3c-0.5,0.4-0.3,1,0.3,1.1c0.7,0.2,1.6-0.1,2.1-0.6c6.4-5.1,11.2-11.9,15.1-19
	c4.3-7.8,7.7-16.1,10.6-24.6c4.4-13,7.8-26.4,10.1-40c0.2-1,0.6-2.2,0.5-3.3c-0.1-0.9-1.4-2-2-2.6c-1-1.1-2-2.3-3-3.4
	C90,201.7,87.1,202.8,87.9,203.8L87.9,203.8z M214,203.4c-0.6,1.2-1.2,2.5-1.8,3.7c-0.2,0.4-0.4,0.7-0.4,1.1c0,1,0.3,2.2,0.5,3.2
	c0.9,5.3,1.9,10.5,3,15.7c3.5,16,8,32,15.2,46.7c3.7,7.6,8.3,15.1,14.8,20.6c0.6,0.5,3.1-0.6,2.7-1c-5.8-4.9-10-11.5-13.5-18.1
	c-3.9-7.5-7-15.4-9.6-23.4c-4.2-13-7.3-26.4-9.6-39.9c-0.2-1.5-0.4-2.9-0.7-4.4c-0.1-0.5-0.1-0.3,0.1-0.6c0.7-1.4,1.4-2.8,2.1-4.1
	c0.2-0.4-1-0.3-1.1-0.2C215.3,202.8,214.3,203,214,203.4L214,203.4z"/>
<path fill="#6D6E70" d="M94.7,208.2c10.2,0.4,20.5,0.7,30.7,0.9c19.4,0.4,38.7,0.7,58.1,0.2c8.7-0.2,17.5-0.5,26.1-1.5
	c0.5-0.1,1.6-0.2,1.9-0.7s-0.2-0.5-0.7-0.5c-7.6,0.9-15.2,1.2-22.8,1.5c-9.6,0.3-19.2,0.3-28.9,0.3c-17.3-0.1-34.6-0.4-51.8-1
	c-3.6-0.1-7.2-0.2-10.8-0.4c-0.6,0-1.5,0.1-2,0.5C94.2,207.9,94.1,208.2,94.7,208.2L94.7,208.2z"/>
<path fill="#FFFFFF" d="M230.4,244.9c0,0-0.1,8.1-8.9,7.1c0,0,5.7,17.2,6.2,18.2c0,0,6.7,0.4,9.1-6.4L230.4,244.9L230.4,244.9z"/>
<path fill="#6D6E70" d="M228.9,245.2v0.2c0,0.3-0.1,0.5-0.1,0.8c-0.1,0.8-0.4,1.5-0.7,2.2c-1.2,2.4-3.2,3-5.7,2.8
	c-0.5,0-2.6,0.3-2.4,1.1c1,2.9,1.9,5.8,2.9,8.7c0.7,2.1,1.4,4.1,2.1,6.2c0.4,1.1,0.7,2.3,1.2,3.3c0.2,0.3,0.5,0.3,0.9,0.3
	c2,0.1,4.1-0.5,5.8-1.4c1.4-0.7,2.7-1.7,3.7-3c0.6-0.8,1.7-2.3,1.5-3.3c-0.1-0.6-0.5-1.3-0.7-2c-0.4-1.1-0.8-2.3-1.1-3.4
	c-0.9-2.7-1.8-5.5-2.8-8.2c-0.6-1.7-1.1-3.4-1.7-5.1C231.5,243.6,228.6,244.4,228.9,245.2c1.2,3.6,2.4,7.2,3.6,10.9
	c0.7,2.2,1.5,4.4,2.2,6.6c0.1,0.4,0.5,1,0.5,1.4s-0.5,1.1-0.7,1.5c-0.4,0.8-1,1.5-1.6,2.1c-1.4,1.3-3.2,1.9-4.7,1.8l0.9,0.3
	c-0.5-1-0.8-2.2-1.2-3.3l-2.1-6.3c-1-2.9-1.9-5.8-2.9-8.7c-0.8,0.4-1.6,0.7-2.4,1.1c3.5,0.4,7.6-0.4,9.8-3.5c0.9-1.4,1.5-3,1.5-4.7
	C231.8,243.8,228.9,244.2,228.9,245.2L228.9,245.2z"/>
<path opacity="0.4" fill="#231F20" enable-background="new    " d="M44.5,76.3c0,0,15.2,12.9,18,37.1c0,0,2.9,36.6,2.9,47.8
	c0,0-6.5,28.7-5.8,37.7c0,0-7.2,53.5-4.3,62.5c0,0-2.9,28.7,5.1,37.1c0,0,3.6,5.6-1.4,15.8c0,0-17.3-13.5-8.7-54
	c0,0,12.3-107.5,7.2-127.7C57.5,132.6,56,89.2,44.5,76.3z M256.6,65.7c0,0-11.7,13.5-14,38.6c0,0-2.2,38-2.2,49.7
	c0,0,5,29.8,4.5,39.2c0,0,5.6,55.6,3.3,65c0,0,2.2,29.8-3.9,38.6c0,0-2.8,5.9,1.1,16.4c0,0,13.4-14,6.7-56.2
	c0,0-9.5-111.8-5.6-132.8C246.5,124.2,247.7,79.2,256.6,65.7L256.6,65.7z"/>
<path opacity="0.3" fill="#231F20" enable-background="new    " d="M94.2,288.9c0,0-10-8.9-9.5-4.5c0,0,3.9,6.7,3.9,8.9
	s1.7,5.6,1.7,5.6l13.4-1.1L94.2,288.9L94.2,288.9z M23.4,335.4c0,0-7.2-4.7-6.8-2.4c0,0,2.8,3.6,2.8,4.7s1.2,3,1.2,3l9.5-0.6
	L23.4,335.4z M258.8,334.4c0,0-7.2-4.7-6.8-2.4c0,0,2.8,3.6,2.8,4.7s1.2,3,1.2,3l9.5-0.6L258.8,334.4z M194.6,291.3
	c0,0-7.4-7.8-6.7-4.6c0,0,0.1,6.2,0.1,7.8c0,0.3,0,0.5-0.1,0.8c-0.3,1.3,0.8,2.6,2.2,2.6l15.6-0.2L194.6,291.3L194.6,291.3z
	 M282.3,333.7c0,0,6.3-5.7,5.7-3.4c0,0-0.1,4.5-0.1,5.7c0,0.2,0,0.4,0.1,0.6c0.2,1-0.7,1.9-1.9,1.9l-13.4-0.1L282.3,333.7
	L282.3,333.7z M48.1,337.1c0,0,6.3-5.7,5.7-3.4c0,0-0.1,4.5-0.1,5.7c0,0.2,0,0.4,0.1,0.6c0.2,1-0.7,1.9-1.9,1.9l-13.4-0.1
	L48.1,337.1L48.1,337.1z M85.2,205.2c0,0-16.7,72.6-28.5,79.8l-0.6-8.4C56.2,276.7,84.7,215.3,85.2,205.2z"/>
<path opacity="0.26" fill="#231F20" enable-background="new    " d="M221.4,202.4c0,0,6.1,38.5,7.8,42.4l2.8-0.6l6.7,19.5l-1.1,3.9
	c0,0,5.6,15.1,8.9,15.1s-16.2-52.5-17.9-62.5L221.4,202.4L221.4,202.4z"/>
<path opacity="0.3" fill="#231F20" enable-background="new    " d="M97,207.6c0,0,32.2,0.9,37.4-0.3c5.2-1.2,63.8,1.8,70.7,0.3
	s4.6-3.5,4.6-3.5s-38.5-0.3-43.7,0.3C166,204.3,100.4,205.5,97,207.6L97,207.6z"/>
<path opacity="0.31" fill="#231F20" enable-background="new    " d="M57.6,196c0,0-5,38-17.3,46.9s12.8-25.7,11.7-40.2 M244.8,207.2
	c0,0,5,38,17.3,46.9s-12.8-25.7-11.7-40.2"/>
<g>
	<path fill="#FFFFFF" d="M83.8,149.5c-0.2,0.2-0.4,0.4-0.4,0.7s-0.1,0.6-0.2,0.9s-0.2,0.5-0.4,0.7s-0.5,0.3-0.9,0.3
		c-0.1,0.1-0.1,0.2-0.1,0.2s0.1,0.1,0.2,0.3c-0.3,0-0.6,0-0.7,0.1s-0.3,0.2-0.5,0.2c-0.5-0.2-1-0.5-1.4-0.9s-0.7-0.9-0.9-1.4
		s-0.5-1-0.7-1.6s-0.4-1-0.6-1.4c0-0.1,0-0.1,0.1-0.1h0.2c-0.1-0.2-0.2-0.5-0.3-0.8s-0.2-0.5-0.3-0.7c0.7-1.5,1.4-3,2.2-4.6
		s1.6-3.2,2.3-4.8s1.6-3.3,2.4-4.9s1.5-3.3,2.3-4.9c0.7,0.2,1.3,0.5,1.9,0.8s1.2,0.7,1.7,1.1s1,0.9,1.3,1.5s0.6,1.2,0.7,1.9
		c0,0.1-0.1,0.2-0.2,0.1s-0.1,0-0.2,0.1c0.1,0.1,0.2,0.2,0.2,0.3v0.4c0,0.1,0.1,0.2,0.2,0.4c-0.1,0-0.2,0-0.2,0.1s-0.1,0.1-0.2,0
		c0.1,0.3,0.2,0.6,0.1,0.8s-0.1,0.4-0.2,0.5s-0.2,0.3-0.2,0.5s0,0.4,0.1,0.7c-0.1,0-0.2,0-0.2,0.1s-0.1,0.1-0.1,0.1l-0.1,0.1h-0.2
		c0.1,0.6,0.1,1.2,0.1,1.8s0,1.3-0.1,1.9s0,1.3,0,2s0.1,1.4,0.3,2.1c1-0.6,1.8-1.3,2.4-2.3s1.1-2,1.5-3.1s0.6-2.4,0.8-3.7
		s0.4-2.6,0.6-4c0.3-0.3,0.5-0.6,0.6-0.9s0.3-0.8,0.4-1.2l0.3-1.2c0.1-0.4,0.3-0.8,0.4-1.1c0.4,0,0.8,0.2,1.1,0.4s0.6,0.4,0.8,0.7
		s0.5,0.5,0.8,0.7s0.6,0.4,1.1,0.4c0.3,0.5,0.6,0.9,0.9,1.4s0.5,0.9,0.6,1.5c-0.1,0.2-0.2,0.5-0.3,0.8s-0.1,0.6-0.2,0.8
		s-0.2,0.5-0.3,0.8s-0.3,0.4-0.6,0.6c-0.1,0.7-0.2,1.4-0.3,2s-0.3,1.2-0.4,1.8l-0.3,1.8c-0.1,0.6-0.1,1.3-0.1,2.1
		c-0.2,0.7-0.4,1.4-0.7,2.1s-0.4,1.4-0.6,2c-0.4,0.4-0.8,0.8-1.1,1.3s-0.5,1-0.8,1.5c-0.1,0.1-0.2,0.1-0.2,0.1s-0.1-0.1-0.3-0.1
		c0,0.2,0,0.3-0.1,0.4s-0.1,0.2,0,0.5c-0.4,0.2-0.8,0.4-1.1,0.7s-0.6,0.6-1,0.8s-0.8,0.4-1.3,0.5s-1.1,0-1.9-0.3
		c-1.1-0.8-2.2-1.8-3.1-2.9s-1.6-2.4-2.2-3.9c-0.2,0.1-0.4,0.2-0.5,0.5s-0.2,0.5-0.3,0.7s-0.2,0.5-0.3,0.7s-0.2,0.3-0.4,0.3
		c0,0.2-0.1,0.4-0.3,0.6s-0.3,0.4-0.4,0.5s-0.2,0.4-0.3,0.6S83.7,149.2,83.8,149.5z M110.5,152.9c-1,0.1-2,0.1-2.8-0.1
		s-1.6-0.6-2.3-1.1s-1.2-1.1-1.7-1.8s-0.9-1.4-1.2-2.2c-0.2-1.6-0.2-3,0.2-4.3s0.8-2.5,1.4-3.6s1.4-2.1,2.2-3.1s1.6-1.9,2.3-2.8
		c0.2,0.1,0.3,0.1,0.4,0l0.3-0.3c0.1-0.1,0.2-0.2,0.3-0.4s0.2-0.2,0.4-0.2c0.1-0.2,0.2-0.4,0.4-0.5s0.3-0.3,0.5-0.4s0.3-0.3,0.5-0.4
		s0.3-0.3,0.4-0.5c0.2,0,0.4-0.1,0.6-0.2s0.3-0.2,0.5-0.4s0.3-0.3,0.5-0.4l0.6-0.3v-0.5c0.5-0.2,0.9-0.5,1.1-0.8s0.5-0.6,0.8-1.1
		h0.6c0.1,0,0.4,0,0.7-0.1c0.2-0.4,0.4-0.7,0.6-0.9s0.5-0.4,0.8-0.6c0.4,0.2,0.7,0.3,1.1,0.3s0.8,0.2,1.1,0.5c0,0.3,0.1,0.5,0.2,0.7
		s0.3,0.3,0.5,0.4s0.3,0.3,0.5,0.4s0.3,0.3,0.3,0.6c0.1,0,0.2,0,0.2-0.1s0.1-0.1,0.2,0c0,0.2,0.1,0.3,0.1,0.5s0.1,0.2,0.2,0.3
		s0.1,0.2,0.2,0.3s0.1,0.3,0.2,0.4l-0.3,0.9c-0.1,0.3-0.3,0.5-0.6,0.7c0,0.2,0.1,0.3,0.2,0.3s0.2,0.1,0.2,0.3c0,0.2,0,0.4-0.1,0.5
		c0.7,1.1,1.3,2.3,1.8,3.5s1.1,2.4,1.8,3.5c0,0.3,0,0.7,0.1,1l0.3,0.9c0.1,0.3,0.3,0.6,0.4,0.9s0.2,0.6,0.2,0.9v1.3
		c0,0.5-0.1,0.9-0.3,1.3s-0.3,0.8-0.6,1.2s-0.5,0.6-0.8,0.8c-0.4,0.5-0.8,0.8-1.4,1.1s-1.1,0.6-1.5,1c-0.3,0.2-0.7,0.3-1.1,0.4
		l-1.2,0.3c-0.3,0.2-0.7,0.4-1.1,0.5s-0.9,0.3-1.3,0.5s-0.9,0.3-1.3,0.3s-0.8,0.1-1.2,0.1c-0.8,0.3-1.7,0.5-2.5,0.6
		S111.6,153.1,110.5,152.9L110.5,152.9z M111,140.1c-0.2,0.5-0.5,1-0.8,1.5s-0.6,0.9-0.9,1.3s-0.6,0.9-0.8,1.4s-0.3,1.1-0.4,1.8
		c0.5,0.4,1,0.6,1.7,0.7s1.3,0.1,2,0s1.4-0.1,2-0.3s1.3-0.2,1.8-0.2c0-0.2,0.1-0.3,0.3-0.3c1-0.1,1.9-0.4,2.7-0.8s1.7-0.9,2.6-1.4
		c0.1-0.3,0.3-0.5,0.5-0.7s0.3-0.5,0.3-0.9c-0.1-0.2-0.2-0.4-0.2-0.5s-0.1-0.4-0.1-0.6c-0.6-0.8-1.1-1.8-1.6-2.8s-1-1.9-1.5-2.8
		c0,0.1-0.1,0.2-0.3,0.4s-0.3,0.1-0.5-0.1c-0.1,0.2-0.2,0.4-0.3,0.5s-0.3,0.1-0.5,0.1s-0.4,0-0.5-0.1s-0.3-0.2-0.5-0.3
		c-0.8,0.7-1.6,1.3-2.4,1.9s-1.5,1.3-2.2,2.1c-0.1,0.1-0.2,0.1-0.2,0.1L111,140.1L111,140.1z M132.3,153.1c-0.7-0.2-1.2-0.4-1.6-0.8
		s-0.6-0.8-0.8-1.4s-0.3-1.1-0.4-1.7s-0.1-1.3-0.2-2c0.1-0.3,0.2-0.6,0.4-0.8s0.2-0.5,0.2-0.9c0.3-0.8,0.5-1.5,0.7-2.2
		s0.4-1.4,0.4-2.2c0.1-0.2,0.3-0.4,0.4-0.4c0.2-1.3,0.2-2.7,0.1-4.1s-0.4-2.7-0.7-3.9c0-0.3,0.1-0.5,0.1-0.6v-0.3
		c0-0.2,0-0.3,0.2-0.3h0.6c0-0.4-0.1-0.8-0.2-1.2s-0.3-0.9-0.4-1.4c0.2-0.4,0.3-0.8,0.4-1.2s0.2-0.8,0.4-1.1
		c0.8,0.2,1.5,0.5,2.2,0.8l2.1,0.9c0.7,0.3,1.4,0.6,2.1,0.8s1.3,0.5,2,0.7c1,0.7,2,1.4,3.1,2.2s2,1.5,2.9,2.4s1.6,1.8,2.2,2.9
		s0.9,2.4,1,3.9c0,0.1-0.1,0.3-0.1,0.4s0,0.2-0.1,0.3s0,0.2,0,0.3v0.5c-0.8,1.5-1.9,2.7-3.2,3.7s-2.7,1.9-4.2,2.7s-3.1,1.5-4.8,2.1
		S133.9,152.4,132.3,153.1L132.3,153.1z M135.8,133.2c-0.2,0-0.4,0-0.5,0.1c0.3,1.1,0.5,2.1,0.6,3s0.2,1.9,0.2,2.8s0,1.9-0.2,2.9
		s-0.3,2.1-0.5,3.2c0.3,0,0.6-0.1,0.8-0.2s0.5-0.2,0.7-0.3s0.5-0.2,0.8-0.3s0.6-0.2,0.9-0.2c0.1-0.2,0.2-0.3,0.4-0.4
		s0.3-0.2,0.4-0.3c0.6-0.2,1.2-0.5,1.8-0.7s1.1-0.6,1.6-0.9s0.9-0.7,1.3-1.1s0.7-0.9,1-1.5c-0.2-0.4-0.4-0.7-0.7-0.9
		s-0.6-0.5-0.8-0.7s-0.6-0.5-0.8-0.8s-0.5-0.6-0.7-0.9c-0.4,0-0.7-0.1-1-0.3s-0.6-0.3-0.8-0.5s-0.5-0.3-0.8-0.4s-0.6-0.2-1-0.2
		c-0.6-0.3-1.2-0.6-1.7-0.7S136,133.4,135.8,133.2L135.8,133.2z M151.7,151.6c-0.2-0.2-0.3-0.4-0.4-0.7s-0.3-0.5-0.6-0.6
		c0-0.4-0.1-0.8-0.2-1.2s-0.2-0.9-0.2-1.4s-0.1-1-0.2-1.4s0-0.9,0.1-1.3c0-0.2,0.1-0.4,0.2-0.6s0.2-0.4,0.3-0.5s0.2-0.4,0.2-0.5
		s0.1-0.4,0-0.6c0.1,0,0.2-0.1,0.3-0.2s0.1-0.2,0.3-0.1c0.2-0.5,0.3-1,0.5-1.4s0.4-0.9,0.6-1.3s0.4-0.8,0.7-1.3s0.4-0.9,0.6-1.5
		c-0.4-0.4-0.7-0.8-0.9-1.2c-0.2-0.4-0.3-0.9-0.4-1.3s-0.2-0.9-0.2-1.4s-0.1-0.9-0.3-1.4c0.3-0.4,0.6-0.8,1-1
		c0.4-0.3,0.8-0.5,1.3-0.7s1-0.3,1.6-0.4s1.2-0.2,1.8-0.4c1.1-0.4,2.1-0.6,3-0.8s1.8-0.4,2.6-0.5s1.7-0.2,2.6-0.4s2-0.3,3.2-0.5
		c0,0.1,0.1,0.1,0.1,0.1h0.2c0.1,0.2,0.2,0.2,0.4,0.2v-0.2v-0.2h0.2c0.1,0,0.2,0,0.2,0.1s0.1,0,0.2,0s0.1-0.1,0-0.2
		c0.3,0.5,0.6,0.9,1.1,1.2s0.9,0.6,1.5,0.8v0.5c0,0.1,0,0.2-0.1,0.3s0,0.2,0,0.3s0,0.3,0.1,0.4c-0.4,0.6-0.8,1.1-1.3,1.5
		s-1,0.6-1.5,0.8s-1.1,0.3-1.7,0.4l-1.8,0.3c-0.6,0.1-1.2,0.3-1.9,0.4s-1.3,0.5-1.9,0.8c-0.2-0.1-0.4-0.1-0.5-0.1s-0.3,0-0.5,0.1
		s-0.3,0.1-0.5,0.1h-0.7c-0.2,0.2-0.4,0.3-0.7,0.4s-0.5,0.1-0.8,0.2c0.1,0.3,0.2,0.5,0.2,0.8s0,0.5,0.1,0.7c1,0.1,2.1,0.1,3.3,0
		s2.4-0.2,3.5-0.2v0.2c0,0-0.1,0.1-0.1,0.2c0.2,0.1,0.4,0.3,0.6,0.5l0.6,0.6c0.2,0.2,0.4,0.4,0.6,0.5s0.5,0.2,0.7,0.2
		c0.1,0.2,0.2,0.5,0.2,0.7s0,0.5-0.1,0.8c-0.5,0.3-0.9,0.6-1.4,0.9s-0.9,0.6-1.4,0.9s-1,0.5-1.6,0.6s-1.2,0.2-1.8,0.2h-0.3
		c-0.1,0-0.2,0-0.3-0.1c-0.2,0.1-0.5,0.2-0.9,0.1s-0.7,0-1,0.1c-0.3-0.1-0.7-0.2-1.1-0.2s-0.8-0.1-1.1-0.2c-0.4,0.6-0.8,1.2-1.2,1.9
		s-0.7,1.4-1,2.1c1,0.1,1.8,0.2,2.4,0.2s1.2-0.1,1.8-0.1s1.1-0.1,1.7-0.2s1.3-0.1,2.2-0.1c0.6-0.3,1.3-0.5,2-0.6s1.5-0.3,2.1-0.5
		c0.2,0.1,0.4,0.2,0.6,0.4s0.3,0.4,0.5,0.6s0.3,0.4,0.5,0.5s0.4,0.2,0.6,0.1c0.1,0.1,0.2,0.3,0.2,0.4s0.1,0.3,0.1,0.5
		s0.1,0.3,0.2,0.3s0.2,0.1,0.4,0.1c-0.4,0.9-0.9,1.6-1.5,2.1s-1.2,0.9-1.9,1.1s-1.5,0.5-2.3,0.6s-1.8,0.3-2.9,0.5h-0.7
		c-0.2,0-0.4-0.1-0.5-0.1c-0.7,0.1-1.4,0.2-2.3,0.4s-1.8,0.2-2.7,0.1s-1.8-0.1-2.6-0.4C152.9,152.5,152.2,152.1,151.7,151.6
		L151.7,151.6z M177.4,148.6c0,0.2,0.1,0.4,0.1,0.5s0.1,0.3,0.1,0.5c-0.1,0.2-0.2,0.5-0.2,0.7s-0.1,0.4-0.2,0.7
		c-0.1,0.2-0.1,0.3-0.1,0.3v0.5l-0.1,0.4c-0.1,0.2-0.3,0.3-0.4,0.4s-0.3,0.2-0.5,0.2c0,0-0.1,0.1-0.2,0.1s-0.2,0.1-0.2,0.1l-0.1,0.4
		l-0.5,0.1c-0.4,0.1-0.7,0.1-1,0.1h-0.4c-0.3-0.3-0.5-0.5-0.7-0.6s-0.3-0.3-0.5-0.4c-0.2-0.3-0.4-0.6-0.4-0.7s-0.1-0.3-0.1-0.4
		c0-0.3-0.1-0.5-0.2-0.6l-0.5-0.5l0.4-0.3l-0.4-0.7c0.3-0.2,0.5-0.4,0.6-0.5s0.3-0.2,0.4-0.3s0.2-0.2,0.3-0.4s0.3-0.4,0.6-0.8
		l0.3-0.5l0.5,0.2c0.1,0.1,0.3,0.1,0.6,0.2s0.6,0.1,0.8,0.2c0.4,0.1,0.8,0.2,1.1,0.3s0.6,0.2,0.8,0.4L177.4,148.6L177.4,148.6z
		 M192,152.1c-0.4,0-0.7,0.1-1,0.2s-0.6,0.2-1,0.2c-0.1,0-0.3,0.1-0.4,0.1s-0.3,0.1-0.5,0.1c-0.4-0.1-0.8-0.2-1.2-0.2
		s-0.7-0.1-1-0.1l-0.5-0.1c-0.3-0.1-0.5-0.2-0.6-0.2s-0.3-0.1-0.4-0.1s-0.3-0.1-0.5-0.1s-0.4-0.1-0.8-0.1c-0.4,0.2-0.8,0.2-1.2,0.2
		c-0.3,0-0.5,0-0.8-0.1s-0.6-0.2-0.8-0.5s-0.6-0.6-0.8-1s-0.5-1-0.7-1.7c0.1-0.5,0.2-1,0.2-1.4s0.2-0.7,0.3-0.9l0.3-0.3
		c0.4-0.2,0.9-0.2,1.4-0.2s1,0.1,1.5,0.2s1,0.3,1.5,0.5c0.2,0.1,0.4,0.2,0.5,0.2s0.2,0.1,0.2,0.1h0.9c0.1,0,0.2,0,0.3-0.1h0.4
		c0.2,0.1,0.4,0.1,0.6,0.1s0.3,0,0.5-0.1s0.4-0.1,0.5-0.1c0.2-0.1,0.4-0.1,0.5-0.1s0.3-0.1,0.4-0.1l0.4-0.3c0.2-0.1,0.4-0.2,0.5-0.3
		s0.2-0.3,0.3-0.4s0.2-0.3,0.3-0.5s0.2-0.3,0.3-0.5c0.1-0.1,0.2-0.3,0.3-0.4s0.2-0.3,0.3-0.4v-0.4c0.4-0.9,0.7-1.7,1-2.6
		s0.5-1.8,0.7-2.7s0.4-1.8,0.5-2.6s0.3-1.6,0.4-2.3h-2.1c-0.4,0-0.9,0.1-1.2,0.1s-0.8,0.1-1.2,0.2s-0.9,0.2-1.6,0.3l-0.6,0.1
		c-0.4,0.2-0.9,0.4-1.3,0.6s-0.8,0.3-1.3,0.3c-0.7,0-1.3-0.3-1.8-0.8c-0.5-0.3-0.8-0.8-0.9-1.4c-0.1-0.2-0.2-0.4-0.1-0.6
		c-0.1-0.3-0.1-0.6-0.2-0.9s0-0.5,0-0.8v-0.6h0.5l0.3-0.3c0.1-0.1,0.1-0.2,0.1-0.2l0.1-0.4h0.4c0.5-0.1,1-0.2,1.5-0.2s1-0.2,1.6-0.3
		c0.5-0.1,1-0.2,1.4-0.2s0.8-0.1,1.1-0.2s0.7-0.1,1.1-0.1h2.3c0.1-0.1,0.2-0.2,0.3-0.2h0.2c0.2,0,0.3,0,0.4,0.1s0.1,0,0.2,0.1
		c0.8-0.1,1.5-0.2,2.2-0.3s1.3-0.1,1.8-0.1h5.4c0.1,0,0.2,0,0.4,0.1c0.4,0.1,0.8,0.1,1.1,0.2s0.7,0.1,1,0.1h0.7l0.1,0.4l0.3,0.5
		c0.1,0.1,0.2,0.3,0.3,0.4l0.4,0.4c0.3,0.3,0.6,0.6,0.8,1s0.4,0.9,0.3,1.7l-0.3,0.4c-0.1,0-0.2,0.1-0.3,0.2s-0.2,0.2-0.3,0.2
		l-0.4,0.3c-0.3,0-0.6,0-0.8,0.1s-0.4,0-0.7,0h-1.3c-0.5,0-0.9,0-1.4-0.1h-2.9c0,0.8-0.1,1.4-0.3,2s-0.3,1.1-0.5,1.7
		c-0.4,2.3-1,4.5-1.6,6.5s-1.4,3.9-2.2,5.5l-2.1,2.1c-0.6,0.6-1.4,1.1-2.3,1.3h0.6L192,152.1z"/>
	<path fill="#FFFFFF" d="M205,136.9c0.1-0.4,0.1-0.6,0.1-0.9s-0.1-0.5-0.2-0.7c0.1-0.4,0.2-0.7,0.2-0.9s0.1-0.5,0-0.9
		c0.2-0.6,0.5-1.1,1-1.5s0.9-0.8,1.4-1.1s1.1-0.5,1.6-0.7s1.1-0.4,1.6-0.5c0-0.1,0-0.1-0.1-0.1s-0.1-0.1-0.1-0.2
		c1.3-0.2,2.5-0.6,3.8-1l3.9-1.2c1.3-0.4,2.7-0.6,4.1-0.7s2.9,0.1,4.4,0.5c0.1,0.3,0.2,0.6,0.4,0.8s0.3,0.5,0.5,0.8s0.3,0.5,0.5,0.7
		s0.2,0.5,0.2,0.7c0.3,0.3,0.5,0.5,0.7,0.8s0.2,0.7,0.1,1.2c-0.3,0.2-0.5,0.4-0.8,0.6s-0.6,0.4-0.9,0.5c-1.1-0.3-2.1-0.4-3.2-0.3
		s-2,0.2-2.8,0.2c-0.3-0.3-0.6-0.4-0.9-0.4s-0.7,0.1-1.1,0.2s-0.8,0.2-1.1,0.3s-0.7,0.1-1.1,0.1c-0.3,0.2-0.6,0.4-1,0.5
		s-0.9,0.1-1.3,0.2c0,0.1,0,0.2,0.1,0.2s0.1,0.1,0,0.3c0.2,0.2,0.4,0.4,0.7,0.4s0.6,0.2,0.9,0.2s0.6,0.2,0.8,0.3s0.4,0.3,0.5,0.6
		c0.4,0,0.8,0.1,1.1,0.3s0.6,0.4,0.8,0.7s0.4,0.6,0.5,0.9s0.1,0.6,0.1,0.9c0.1,0.2,0.2,0.3,0.3,0.3s0.2,0,0.4,0.2
		c0.1,0.4,0.3,0.7,0.7,1.1s0.6,0.8,0.8,1.2c0,0.7,0.1,1.3,0.1,1.9s-0.1,1.1-0.3,1.7c-0.4,1-1,2-1.7,2.8s-1.6,1.5-2.5,2.2
		s-2,1.2-3,1.6s-2.1,0.8-3.1,1.1h-0.3c-0.1,0-0.2,0-0.1-0.2c-0.2,0.2-0.5,0.3-0.7,0.4s-0.6,0.1-0.9,0.1s-0.6,0-0.9-0.1s-0.6,0-0.9,0
		c-0.2-0.2-0.4-0.4-0.5-0.6s-0.3-0.4-0.4-0.7c-0.1,0-0.2-0.1-0.2-0.2s0-0.2-0.2-0.2v-0.2c0,0,0-0.1,0.1-0.1c0.1-0.1,0.1-0.1,0.1-0.2
		s0-0.1-0.1-0.1s-0.1-0.1-0.2-0.1s-0.1-0.1-0.1-0.2c0.1-0.2,0.2-0.5,0.1-0.8s-0.1-0.6-0.1-0.9s0-0.6,0.1-0.9s0.3-0.5,0.6-0.7
		c1,0.1,1.9,0,2.7-0.1s1.7-0.4,2.4-0.8s1.5-0.7,2.2-1.1s1.4-0.7,2-1.1l0.3-0.6c0.1-0.2,0.3-0.3,0.5-0.5l0.5-0.5
		c0.2-0.2,0.2-0.4,0.3-0.7v-0.2l-0.1-0.1l-0.1-0.1c0,0-0.1-0.1-0.1-0.2c-0.1,0-0.1,0-0.2-0.1s-0.1,0-0.2,0c-0.6-0.3-1.3-0.6-1.9-0.8
		s-1.3-0.4-1.7-0.7c-0.3,0.2-0.6,0.2-0.8,0.1s-0.6-0.2-1-0.3c-1,0-1.9-0.1-2.8-0.3s-1.7-0.4-2.5-0.7c0-0.1-0.1-0.3-0.2-0.4
		s-0.2-0.1-0.5-0.1c-0.2-0.2-0.3-0.5-0.5-0.7S205.2,137.2,205,136.9L205,136.9z"/>
</g>
</svg>
