<?xml version="1.0" encoding="utf-8"?>
<!-- Generator: Adobe Illustrator 25.0.0, SVG Export Plug-In . SVG Version: 6.00 Build 0)  -->
<svg version="1.1" id="Layer_1" xmlns="http://www.w3.org/2000/svg" xmlns:xlink="http://www.w3.org/1999/xlink" x="0px" y="0px"
	 viewBox="0 0 306 375" enable-background="new 0 0 306 375" xml:space="preserve">
<path fill="#F05661" d="M158.3,18.2c0,0-47.7,0-51.9-12.6L67.9,18.2c0,0-26.8,7.5-29.3,18.4c0,0-5.6,7.3-10.6,55.8
	c0,0-10.3,74-8.6,83.2c0,0-2.5,24.3-2.5,31.8c0,0-4.2,64.5-4.2,77c0,0-2.5,34.3,0,40.2c0,0,1.7,15.9,7.5,19.3c0,0,2.5,20.9,1.7,24.3
	c0,0,15.9,7.5,31,0.8c0,0,0.8-21.8,3.4-26c0,0,6.3-14.5,7.4-33.6c0.2-2.9,0.2-6,0.1-9.1c0,0,3.4-0.8,4.5,10.3c0,0-3.4,14-2.2,15.6
	c1.1,1.7,34.1,5.6,41.3,2.8c0,0,17.9-4.5,24-3.3c0,0,17.3,0.6,26.2,0"/>
<path fill="#6D6E71" d="M158.8,17.3c-5.3,0-10.6-0.3-15.8-0.7c-9-0.7-18.5-1.7-27-5c-3.1-1.2-7-3-8.1-6.4c-0.2-0.6-1.2-0.6-1.7-0.4
	C94.1,8.7,82,12.7,69.8,16.7c-3.9,1.3-7.9,2.5-11.8,4c-4.2,1.7-8.5,3.7-12.3,6.2c-3.2,2.1-6.7,4.9-8.2,8.6c-0.6,1.6-1.4,3.3-2,4.9
	c-2,5.7-3.2,11.8-4.3,17.8c-2.9,15.6-4.3,31.4-6.4,47.2c-2.3,17-4.5,34.1-6.1,51.2c-0.6,5.9-1.3,12-1,17.9c0.1,1.6,0,2.8-0.2,4.8
	c-0.4,4.5-0.9,9-1.2,13.5c-1,12.2-1.5,24.5-2.3,36.7c-1.1,17.1-2.2,34.3-2.8,51.4c-0.4,13.3-2.1,26.8-0.9,40.1
	c0.2,2.1,0.8,4.1,1.1,6.1c0.6,4.2,1.6,8.5,3.4,12.4c0.8,1.7,1.9,3.8,3.5,4.8c0.1,0.1,0.6,0.6,0.4,0.2v0.3c0.1,0.5,0.1,1,0.2,1.5
	c0.5,4,0.9,8.1,1.2,12.1c0.3,3.2,0.9,6.9,0.2,10.1c-0.1,0.2,0.1,0.5,0.3,0.6c10,4.7,22.6,5.2,32.7,0.8c0.3-0.1,0.8-0.5,0.9-0.9
	c0.3-7.3,0.6-14.7,2.1-21.9c0.4-2.2,1.3-4.1,2.1-6.2c1.7-4.6,3.1-9.3,4.1-14c1.9-8.7,2.9-17.6,2.6-26.5c-0.4,0.3-0.8,0.7-1.2,1
	c0.1,0-0.6,0.1-0.6,0.1c0.1-0.1,0-0.1,0,0c0,0,0.6,0.5,0.8,0.7c1.5,1.7,1.9,4.5,2.2,6.6c0.3,1.9,0.1,2.9-0.3,4.7
	c-0.5,2.2-0.9,4.4-1.3,6.6c-0.4,2.1-1.8,6.7,0.9,7.7c3,1.1,6.5,1.4,9.7,1.8c5,0.7,10,1.1,15,1.4c4.5,0.2,9.1,0.5,13.6-0.1
	c0.8-0.1,1.5-0.2,2.3-0.4c0.3-0.1,0.6-0.2,0.9-0.2c0.8-0.2,0.1,0,0.4-0.1l3.9-0.9c5-1.1,10-2.1,15.1-2.5c3.6-0.2,7.5,0.2,11.1,0.3
	c6.5,0.1,13.1,0.2,19.6-0.2c1.5-0.1,2.3-2,0.3-1.8c-9.1,0.5-18.8,0.1-27.6-0.2c-7.9-0.3-16.4,2-23.9,3.9c-3.7,1-7.9,0.7-11.8,0.5
	c-5.2-0.2-10.4-0.6-15.6-1.3c-3.6-0.4-7.3-0.8-10.7-1.8c-0.4-0.1-0.6-0.1-0.8-0.3c0.1,0.2,0-1,0-1.2c0-2.1,0.5-4.3,0.9-6.3
	c0.4-2.2,0.9-4.5,1.4-6.7s-0.2-4.8-0.8-6.9c-0.7-2.3-2.1-5.6-5.1-4.9c-0.4,0.1-1.2,0.5-1.2,1c0.4,13.4-1.8,26.9-6.3,39.5
	c-0.7,2-1.7,3.9-2.2,5.9c-1.1,4.3-1.4,8.9-1.8,13.3c-0.3,3.3-0.5,6.6-0.6,9.8l0.9-0.9c-9,3.9-20.4,3.3-29.2-0.9l0.3,0.6
	c0.7-3.2,0-7-0.2-10.2c-0.3-4.1-0.7-8.1-1.2-12.2c-0.1-0.6,0-1.7-0.3-2.3s-1.4-1.1-1.9-1.7c-0.7-0.8-1.3-1.8-1.8-2.8
	c-1.9-3.9-2.9-8.3-3.5-12.5c-0.3-2-0.9-4-1.1-6.1c-0.4-4-0.4-8.2-0.3-12.2c0.1-7.6,0.5-15.2,1-22.7c0.3-4.9,0.3-9.8,0.6-14.7
	c0.4-9,0.9-18.1,1.5-27.1c0.5-8.5,1-17,1.6-25.6c0.2-3.8,0.6-7.6,0.7-11.5c0.2-9,1.2-17.9,2.1-26.8c0.2-1.8,0.4-3.5,0.3-5.3
	c-0.2-2.2,0-4.4,0.1-6.6c0.9-16.6,3.2-33.2,5.3-49.8c1.7-13.4,3.4-26.8,5.1-40.1c1.3-10,2.7-19.9,5-29.7c0.9-3.6,1.7-7.3,3.3-10.5
	c0.1-0.3,0.4-0.6,0.5-0.9c0.7-1.6,1.2-3,2.4-4.4c1.4-1.6,3.1-2.9,4.9-4.1c6.2-4.1,13.3-6.8,20.4-9c11.6-3.5,23.1-7.5,34.7-11.3
	c1.4-0.5,2.9-0.9,4.3-1.4c-0.6-0.1-1.1-0.3-1.7-0.4c1.1,3.1,4.1,5,6.8,6.3c4,1.9,8.3,2.9,12.5,3.8c9,1.8,18.1,2.5,27.2,2.9
	c2.1,0.1,4.2,0.1,6.2,0.1c0.6,0,1.6-0.2,1.9-0.8C159.9,17.7,159.5,17.3,158.8,17.3L158.8,17.3z"/>
<path fill="#F05661" d="M153.8,18.2c0,0,47.7,0,51.9-12.6l38.5,12.6c0,0,26.8,7.5,29.3,18.4c0,0,5.6,7.3,10.6,55.8
	c0,0,10.3,74,8.6,83.2c0,0,2.5,24.3,2.5,31.8c0,0,4.2,64.5,4.2,77c0,0,2.5,34.3,0,40.2c0,0-1.7,15.9-7.5,19.3c0,0-2.5,20.9-1.7,24.3
	c0,0-15.9,7.5-31,0.8c0,0-0.8-21.8-3.4-26c0,0-6.3-14.5-7.4-33.6c-0.2-2.9-0.2-6-0.1-9.1c0,0-3.4-0.8-4.5,10.3c0,0,3.4,14,2.2,15.6
	c-1.1,1.7-34,5.6-41.3,2.8c0,0-17.9-4.5-24-3.3c0,0-17.3,0.6-26.2,0"/>
<path fill="#6D6E71" d="M153.3,19.1c5.8,0,11.6-0.3,17.4-0.8c9.4-0.8,19.4-1.9,28.2-5.6c3.4-1.4,7-3.6,8.3-7.2
	c-0.8,0.3-1.5,0.7-2.3,1c12.1,3.9,24.1,7.9,36.2,11.8c3.9,1.3,7.8,2.5,11.6,4c4.2,1.7,8.4,3.6,12.1,6.2c1.7,1.2,3.4,2.5,4.8,4.1
	c1.3,1.4,1.8,2.9,2.6,4.7c0.2,0.5,0.2,0.4,0.4,0.7c0.5,1.1,1,2.3,1.4,3.5c2,6.1,3.3,12.6,4.4,18.9c2.7,15.3,4.2,30.9,6.2,46.3
	c2.2,17,4.5,34.1,6,51.2c0.5,5.5,1.4,11.4,0.9,17c-0.2,1.8,0.1,3.6,0.3,5.4c0.5,4.6,0.9,9.1,1.2,13.7c1,12.1,1.5,24.2,2.2,36.3
	c1,17,2.2,33.9,2.7,50.9c0.1,4.8,0.5,9.5,0.7,14.3c0.4,8.5,1,17.2,0.1,25.7c-0.2,2.1-0.8,4.1-1.1,6.1c-0.7,4.3-1.6,8.8-3.7,12.7
	c-0.4,0.8-0.9,1.6-1.6,2.3c-0.6,0.6-1.6,1.1-1.9,1.8s-0.2,1.7-0.3,2.4c-0.5,4.1-0.9,8.2-1.2,12.3c-0.2,3.1-0.9,6.7-0.2,9.8
	c0.3-0.4,0.6-0.7,0.9-1.1c-5.4,2.5-11.7,3.6-17.6,3.4c-2.6-0.1-5.1-0.5-7.6-1.1c-0.6-0.2-1.2-0.4-1.9-0.6c-0.3-0.1-2-0.6-1.9-0.5
	c-0.1-0.1,0-0.3,0-0.5c-0.2-0.6-0.1-1.4-0.1-2c-0.1-1.3-0.1-2.6-0.2-3.9c-0.4-5.9-0.6-12.2-2.3-17.9c-0.4-1.2-0.8-1.9-1.2-3
	c-1-2.5-1.8-5-2.5-7.5c-3.2-10.9-4.8-22.3-4.5-33.7c0-0.4-0.2-0.6-0.6-0.7c-2.3-0.5-4.1,1.4-5,3.3c-1.1,2.3-2,5.7-1.8,8.3
	c0.1,1.2,0.5,2.4,0.8,3.5c0.5,2.3,1,4.6,1.3,7c0.2,1.3,0.2,3.6,0.4,4.5c0-0.2,0.4-0.2-0.1,0c-0.6,0.2-1.2,0.3-1.9,0.5
	c-1.9,0.4-3.8,0.7-5.6,1c-4.9,0.7-9.9,1.2-14.9,1.5c-4.6,0.3-9.3,0.5-13.8,0c-2.5-0.3-4.9-1.1-7.4-1.7c-5-1.1-10.1-2.1-15.1-2.5
	c-3.6-0.3-7.4,0.2-11,0.2c-6.6,0.1-13.3,0.2-19.9-0.2c-1.2-0.1-3,1.7-1.1,1.8c5.9,0.4,11.9,0.3,17.8,0.2c3.3,0,6.6-0.1,9.9-0.3
	c4.9-0.4,10.1,0.8,14.9,1.8c2.8,0.6,5.6,1.3,8.4,2c3.8,0.9,8,0.8,11.9,0.7c5.2-0.1,10.5-0.6,15.7-1.2c3.9-0.5,7.8-0.9,11.6-1.8
	c0.9-0.2,2-0.5,2.8-1c1.1-0.8,0.9-2.5,0.8-3.7c-0.2-2.5-0.7-5.1-1.2-7.6c-0.4-1.7-1-3.5-1.1-5.2c-0.1-1.4,0.4-3.1,0.7-4.5
	c0.3-1.3,0.6-2.6,1.3-3.7c0.2-0.3,0.3-0.5,0.5-0.8s0.3-0.3,0.3-0.2c0,0-0.4,0.1-0.7,0c-0.2-0.2-0.4-0.5-0.6-0.7
	c-0.4,13.4,1.8,27,6.3,39.6c0.7,2,1.7,3.9,2.2,5.9c1.1,4.3,1.4,8.9,1.8,13.3c0.3,3.3,0.5,6.7,0.6,10c0,0.2,0.2,0.3,0.3,0.4
	c10.1,4.4,22.7,3.8,32.7-0.9c0.4-0.2,1-0.6,0.9-1.1c-0.4-1.7-0.1-3.6-0.1-5.3c0.1-2.7,0.4-5.4,0.6-8c0.3-3.6,0.7-7.1,1.1-10.7
	c-0.2,0.2-0.4,0.5-0.5,0.7c3.4-2.1,5-6.4,6.1-10c1-3.2,1.4-6.4,2-9.7c0.3-1.8,0.9-4.5,1-6.8c0.2-4.1,0.2-8.1,0.1-12.2
	c-0.2-6.9-0.5-13.8-1-20.7c-0.3-4.3-0.3-9.4-0.5-14c-0.8-16.8-1.8-33.6-2.9-50.4c-0.7-11.8-1.3-23.6-2.4-35.4
	c-0.3-3.1-0.6-6.3-0.9-9.4c-0.1-0.7,0-0.5,0.1-1.3c0.1-0.9,0.1-1.8,0.1-2.6c0-6.2-0.7-12.4-1.3-18.5c-1.6-16.2-3.7-32.4-5.8-48.5
	c-1.9-14.5-3.3-29.2-5.8-43.6c-1.1-6.5-2.3-13.1-4.3-19.5c-0.6-2-1.5-3.8-2.3-5.7s-1.6-3.6-3.1-5.3c-2.9-3-6.6-5.2-10.3-7.1
	c-5.3-2.7-10.8-4.7-16.4-6.4c-11.6-3.6-23.1-7.5-34.6-11.3c-1.3-0.4-2.6-0.8-3.9-1.3c-0.8-0.3-2,0.2-2.3,1c-1,2.8-4.1,4.4-6.6,5.5
	c-3.9,1.7-8.2,2.6-12.4,3.4c-8.4,1.5-17,2.2-25.5,2.5c-1.9,0.1-3.6,0.1-5.5,0.1c-0.6,0-1.6,0.2-1.9,0.8
	C152.2,18.7,152.7,19.1,153.3,19.1L153.3,19.1z"/>
<path fill="#FFFFFF" stroke="#58595B" stroke-miterlimit="10" d="M65.9,300.6c0,0,4.5,5.6,2.8,12.3l-2.2,12.8c0,0,23.4,5,36.8,2.8
	c0,0,18.4-3.9,22.9-3.9c0,0,25.7,1.1,29.6,0c0,0,30.1,1.1,34,1.1c0,0,11.7,2.4,15.1,2.4c0,0,32.9,3.2,40.7-3c0,0-5.2-21.8,0.9-26.8
	c0,0-27.5,5.2-38,2.2c0,0-26-3-32.7-0.7c0,0-9.3,1.1-31.3,2.2c0,0-13-1.5-29.8-1.1c0,0-13.8,0.2-21.6,0.2
	C93.3,301.2,70.4,307.3,65.9,300.6L65.9,300.6z"/>
<path fill="#FFFFFF" stroke="#58595B" stroke-width="1.017" stroke-miterlimit="10" d="M20.3,343.9c0,0,2-0.4,6.3-0.7
	c0,0,9.8-0.4,16.9,1.1c0,0,8.2,0.7,12.9-1.8c0,0-2.8,5.8-2.8,12.8l-0.4,14.2c0,0-16.5,4.8-30.6-1.5C22.7,368,23.1,353.4,20.3,343.9
	L20.3,343.9z"/>
<path fill="#FFFFFF" stroke="#58595B" stroke-width="1.041" stroke-miterlimit="10" d="M292.3,341.5c0,0-2.1-0.4-6.7-0.8
	c0,0-10.4-0.4-17.9,1.2c0,0-8.8,0.8-13.8-1.9c0,0,2.9,6.2,2.9,13.6l0.4,15.1c0,0,17.5,5,32.5-1.5
	C289.8,367.1,289.4,351.6,292.3,341.5L292.3,341.5z"/>
<path fill="#6D6E71" d="M29.9,63.4c3.7,1.7,7.1,4.2,10.2,6.7c7.1,5.8,13.1,13.2,16.7,21.7c1.8,4.1,3.1,8.6,3.7,13
	c0.3,2.3,0.5,4.6,0.7,6.9c1.1,10.7,1.8,21.5,2.2,32.3c0.2,6.5,0.3,13.1,0.1,19.7c-0.1,2.4-0.1,4.9-0.4,7.3
	c-0.6,4.8-1.2,9.7-1.8,14.5c-2.2,18.7-4.1,37.5-5,56.4c-0.5,9.4-0.8,18.9-0.4,28.3c0.1,3.2,0.7,6.5,0.7,9.6c0,4.5,0.6,8.9,1.8,13.3
	c0.9,3.5,2.2,7,3.8,10.2c0.4,0.7,3.2-0.2,2.9-0.8c-2.9-6-4.8-12.5-5.4-19.1c-0.1-1.5-0.2-3-0.2-4.5c0-1.3-0.2-2.6-0.3-4
	c-0.7-8.9-0.6-17.9-0.3-26.8c0.7-19.4,2.5-38.8,4.7-58.1c0.7-5.9,1.4-11.8,2.2-17.7c0.9-6.6,0.8-13.2,0.8-19.8
	c-0.1-12-0.8-23.9-1.9-35.8c-0.5-6.2-0.9-12.5-2.5-18.5c-4-15-15.1-28.1-28.8-35.3c-0.2-0.1-0.5-0.3-0.8-0.4
	c-0.6-0.3-1.3-0.1-1.9,0.1C30.7,62.5,29.5,63.1,29.9,63.4L29.9,63.4z M276.4,54.8c-3.9,1.9-7.6,4.5-10.9,7.2
	c-7.4,6.1-13.4,13.8-17.1,22.6c-2.7,6.6-3.5,13.3-4.2,20.3c-1.1,11.5-1.9,23-2.2,34.5c-0.2,6.8-0.2,13.6,0.1,20.4
	c0.1,1.4,0.2,2.8,0.4,4.2c0.8,5.7,1.5,11.4,2.1,17c1.1,9.4,2,18.7,2.9,28.1c0.9,10.5,1.7,21.1,2.1,31.7c0.3,9.2,0.5,18.4-0.3,27.5
	c-0.1,1.2-0.4,2.4-0.2,3.5c0.2,1.5,0.3,2.9,0.3,4.4c0.2,5.5,0,11-1.2,16.4c-0.6,3-1.6,5.9-2.9,8.6c-0.2,0.5,1,0.3,1.2,0.3
	c0.5-0.1,1.5-0.3,1.7-0.8c4.4-8.9,4.9-19.8,3.8-29.5c-0.1-1.1,0.1-2.1,0.2-3.2c0.2-2,0.3-4,0.4-6c0.2-4.6,0.2-9.2,0.2-13.8
	c-0.1-10.4-0.8-20.8-1.5-31.1c-0.8-9.9-1.7-19.8-2.8-29.7c-0.8-7-1.6-13.9-2.5-20.8c-0.2-1.6-0.4-3.2-0.6-4.9
	c-0.5-3.6-0.4-7.3-0.4-10.9c-0.2-12.7,0.5-25.5,1.5-38.2c0.3-4.2,0.7-8.4,1.2-12.6c0.2-2.1,0.4-4.1,0.8-6.2c2-10.5,7.3-20,14.7-27.6
	c2.7-2.7,5.6-5.2,8.7-7.4c1.1-0.8,2.2-1.5,3.4-2.2c0.4-0.3,0.9-0.5,1.3-0.8c0.2-0.1,0.4-0.2,0.5-0.3c0.3-0.1-0.1,0.1,0.1,0
	c0.1,0,0.2-0.1,0.2-0.1c0.3-0.1,0.5-0.3,0.8-0.4c0.4-0.2,0.9-0.5,0.4-0.8C278,54.2,276.9,54.6,276.4,54.8L276.4,54.8z"/>
<path fill="none" stroke="#FFFFFF" stroke-miterlimit="10" d="M156.1,43.5c-50.6-3-50.6-38.1-50.6-38.1L93.2,9.3
	c0,0,8.6,44.3,62.5,43.2"/>
<path fill="#FFFFFF" d="M155.3,18.2C110.3,17.6,107,6.5,107,6.5l-12.6,3.9c0,0,12.1,17.3,61.5,16.2"/>
<path fill="#6D6E71" d="M155.9,17.5c-11.8-0.2-24-0.7-35.4-4.1c-3.9-1.2-8.5-2.8-11.3-6c-0.4-0.5-0.6-0.6-0.8-1.2
	c-0.2-0.5-1.3-0.3-1.6-0.2L94.2,9.9C93.8,10,92.6,10.4,93,11c1.7,2.5,4.6,4.3,7.1,5.9c8.3,5,17.9,7.5,27.4,8.9
	c9.1,1.4,18.4,1.8,27.7,1.6c0.5,0,1.6-0.2,1.9-0.7c0.3-0.6-0.2-0.7-0.7-0.7c-14,0.3-28.5-0.6-42-5c-6-2-12.1-4.7-16.8-8.9
	c-0.7-0.6-1.4-1.3-2-2.1c-0.4,0.4-0.8,0.8-1.2,1.1L107,7.2c-0.5-0.1-1.1-0.1-1.6-0.2c0.5,1.7,2.6,3.1,3.9,4
	c6.1,3.9,13.8,5.3,20.8,6.4c8.1,1.2,16.3,1.6,24.4,1.7c0.5,0,1.6-0.2,1.9-0.7C157,17.6,156.4,17.5,155.9,17.5L155.9,17.5z"/>
<path fill="#FFFFFF" d="M155.9,18.2c45-0.6,48.3-11.7,48.3-11.7l12.6,3.9c0,0-12.1,17.3-61.5,16.2"/>
<path fill="#6D6E71" d="M155.3,18.8c12.2-0.2,25-0.8,36.8-4.4c4.3-1.3,9.5-3.1,12.5-6.6c0.4-0.4,0.9-1,1-1.6
	c-0.9,0.3-1.7,0.6-2.6,0.8l12.6,3.9c0-0.2-0.1-0.4-0.1-0.5c-1.7,2.4-4.1,4-6.6,5.5c-7.7,4.7-16.8,7.1-25.6,8.4
	c-8.9,1.4-18,1.8-27,1.6c-0.6,0-1.5,0.1-2,0.6c-0.4,0.3-0.5,0.7,0.2,0.7c14.5,0.3,29.4-0.6,43.3-5.1c6.5-2.1,13.1-5,18.3-9.6
	c0.8-0.7,1.5-1.4,2.1-2.2c0.2-0.2,0.2-0.4-0.1-0.5l-12.6-3.9c-0.6-0.2-2.4,0.1-2.6,0.8c-0.4,1.4-2.1,2.6-3.4,3.4
	c-2,1.3-4.3,2.2-6.7,3c-4.1,1.3-8.3,2.1-12.6,2.8c-7.8,1.1-15.7,1.5-23.6,1.6c-0.5,0-1.6,0.2-1.9,0.7
	C154.2,18.8,154.8,18.8,155.3,18.8L155.3,18.8z"/>
<path fill="#FFFFFF" d="M156.3,43.5c-50.4-3-50.4-38.1-50.4-38.1L93.7,9.3c0,0,8.5,44.3,62.3,43.1"/>
<path fill="#6D6E71" d="M156.9,42.5c-13.6-0.8-28.2-4.2-38.4-13.9c-5.4-5.2-9.2-11.9-10.6-19.2c-0.2-1-0.4-2.1-0.5-3.2V5.7V5.6V5.3
	c0-0.9-1-1.1-1.7-0.8c-4.1,1.3-8.2,2.6-12.2,3.9c-0.6,0.2-1.3,0.6-1.2,1.4c1,5.4,3.5,10.6,6.3,15.3c6.3,10.7,16,19,27.6,23.6
	c9.4,3.8,19.7,5.1,29.8,4.9c1.6,0,2.2-2.1,0.3-2.1c-15.7,0.3-31.6-3.6-43.6-14c-7.1-6.1-12.6-14.3-15.8-23.1
	c-0.6-1.7-1.2-3.5-1.6-5.4c-0.4,0.4-0.8,0.9-1.2,1.4c4.1-1.3,8.2-2.6,12.2-3.9c-0.6-0.3-1.1-0.6-1.7-0.8c0,4.2,1.4,8.6,3.1,12.5
	c4.3,9.4,12.2,16.4,21.5,20.6c8.4,3.8,17.7,5.4,26.8,6c0.7,0,1.6-0.2,1.9-0.9C158,43,157.5,42.5,156.9,42.5L156.9,42.5z"/>
<path fill="#FFFFFF" d="M154.5,43.5C206.1,42.8,205,5.4,205,5.4l12.2,3.9c0,0-8.5,44.3-62.3,43.1"/>
<path fill="#6D6E71" d="M154.3,44.4c14.4-0.2,29.9-3.4,40.6-13.6c5.8-5.5,9.7-12.9,11-20.8c0.3-1.6,0.5-3.2,0.4-4.8
	c-0.8,0.3-1.5,0.7-2.3,1c4.1,1.3,8.2,2.6,12.2,3.9c-0.2-0.2-0.4-0.5-0.6-0.7c-1,5.1-3.3,9.9-5.9,14.4c-6,10.3-15,18.3-26,22.9
	c-9,3.7-18.8,5-28.5,4.8c-0.6,0-1.6,0.2-1.9,0.8c-0.3,0.6,0.2,1,0.8,1c16.4,0.3,33-3.6,45.8-14.4c7.6-6.4,13.4-14.9,16.8-24.3
	c0.7-1.8,1.3-3.7,1.7-5.6c0.1-0.4-0.3-0.6-0.6-0.7c-4.1-1.3-8.2-2.6-12.2-3.9c-0.6-0.2-2.4,0.1-2.3,1c0.1,4.1-1,8.5-2.5,12.2
	c-3.7,9.1-11,16-20,19.9c-8.3,3.6-17.4,4.8-26.4,4.9C153.1,42.6,152.3,44.4,154.3,44.4L154.3,44.4z"/>
<path opacity="0.33" stroke="#6D6E71" stroke-miterlimit="10" enable-background="new    " d="M112.2,20.8c0,0,4.8,18.6,43.2,21.2
	c0,0,32,2.2,44.3-21.2c0,0-13,7.4-43.9,7.1C155.8,27.9,121.9,27.9,112.2,20.8z"/>
<path fill="#6D6E71" d="M156.4,203.6c7,0.1,14,0.3,21.1,0.4c11.5,0.2,22.9,0.5,34.4,0.8c2.1,0.1,4.2,0.1,6.2,0.2
	c0.6,0,1.3,0.1,1.9,0.1h0.8c-0.2-0.1-0.4-0.3-0.6-0.4c1,6.6,2.3,13.2,3.7,19.8c2.8,13.1,6.2,26.1,10.9,38.6
	c2.2,5.9,4.8,11.8,8.1,17.1c1.4,2.2,2.9,4.4,4.6,6.4c0.8,0.9,1.6,1.7,2.5,2.4c0.4,0.3,0.2,0.1,0.3,0.5c0.1,0.5,0,1.1,0,1.6
	c-0.1,1.7-0.5,3.4-1,5.1c-0.4,1-0.8,2-1.4,3c-0.2,0.3-0.3,0.5-0.5,0.8c-0.1,0.1-0.5,0.9-0.1,0.5h-0.1c-0.1,0.1-0.3,0.1-0.4,0.2
	c-0.2,0.1,0.4-0.1,0,0c-0.2,0.1-0.4,0.1-0.6,0.2c-0.9,0.3-1.8,0.5-2.7,0.6c-3.5,0.6-7,0.7-10.5,0.5c-2.6-0.2-5.2-0.5-7.8-1
	c-1.4-0.3-2.9-0.8-4.3-0.9c-4.6-0.3-9.3-0.3-14-0.5c-6.2-0.2-12.4-0.4-18.6-0.2c-0.9,0-1.8,0-2.8,0.1l1.2,0.3
	c-0.6-0.7-2.2-0.7-2.9-0.8c-4.3-0.5-8.7-0.2-13,0c-5.2,0.2-10.4,0.7-15.5,1.1c-0.4,0-2.2,0.7-1.5,1.5l0.2,0.2
	c0.4-0.5,0.8-0.9,1.1-1.4c-3.8,0.8-7.8,0.6-11.6,0.5c-4-0.1-8-0.4-12-0.8c-4.9-0.4-9.6-0.5-14.5-0.5c-7.2,0.1-14.4,0.3-21.6,0.6
	c-0.9,0-1.8,0-2.6,0.1c-1.8,0.1-3.6,0.8-5.4,1.1c-5.1,0.9-10.3,1.3-15.5,0.9c-1.7-0.1-3.3-0.4-4.9-0.7c-0.6-0.1-1.6-0.2-2.2-0.6
	h-0.1c0.4,0.4-0.4-0.9-0.1-0.4c-0.4-0.7-1-1.3-1.4-2c-0.8-1.3-1.4-2.6-1.9-4s-0.9-2.8-1-4.3c-0.2,0.3-0.4,0.6-0.5,0.9
	c4.3-3,7.1-8.2,9.4-12.8c3.4-6.8,6.1-13.9,8.6-21.1c4.9-14.1,9-28.6,12.6-43.1c0.8-3.2,1.6-6.4,2.3-9.6c-0.5,0.3-1.1,0.7-1.6,1
	c2.4-0.5,5-0.3,7.3-0.4c5.2-0.2,10.4-0.3,15.6-0.4c11.3-0.3,22.5-0.5,33.8-0.7c2.5,0,5.1-0.1,7.6-0.1c0.6,0,1.6-0.2,1.9-0.8
	c0.3-0.6-0.2-1-0.8-0.9c-7.1,0.1-14.2,0.3-21.3,0.4c-11.5,0.2-23,0.5-34.4,0.8c-2.1,0.1-4.3,0.1-6.4,0.2c-1,0-2,0-2.9,0.2
	c-0.6,0.1-1.5,0.4-1.6,1c-2,8.7-4.2,17.3-6.6,25.9c-4.2,15.2-8.8,30.5-15.4,44.8c-1.5,3.1-3.1,6.2-4.9,9.1c-1.3,2-3,4.2-4.8,5.5
	c-0.3,0.2-0.6,0.5-0.5,0.9c0.4,3.8,2.2,7.7,4.6,10.7c1.2,1.5,3.5,1.6,5.2,1.9c4.4,0.7,8.9,0.8,13.3,0.4c3.1-0.2,6.2-0.7,9.3-1.4
	c1.1-0.2,2.2-0.6,3.3-0.6h1c0.6,0,1.3,0,1.9-0.1c1.7-0.1,3.3-0.1,5-0.2c3.9-0.1,7.9-0.2,11.9-0.3c5.4-0.1,10.8-0.3,16.1,0.3
	c4.2,0.4,8.5,0.7,12.7,0.9c4.6,0.2,9.5,0.3,14-0.6c0.4-0.1,1.7-0.8,1.1-1.4l-0.2-0.2l-1.5,1.5c8.7-0.8,17.7-1.8,26.5-1.2
	c0.4,0,0.8,0.1,1.1,0.1h0.4h0.2c0.3,0.1,0.7,0.1,1,0.2c-0.7-0.2,0.5,0.2-0.1-0.1c0.9,0.4,1.8,0.2,2.7,0.2c7.4-0.3,15.3,0.1,22.9,0.3
	l9,0.3c0.5,0,1,0,1.5,0.1c3.3,0.5,6.5,1.4,9.9,1.7c4.5,0.4,9.1,0.4,13.5-0.4c1.6-0.3,3.9-0.6,5.3-1.5c1.1-0.7,1.9-2.2,2.4-3.3
	c0.6-1.2,1.1-2.4,1.4-3.7c0.5-1.8,0.7-3.6,0.6-5.4c0-0.5,0-0.7-0.3-1c-0.5-0.5-1.1-1-1.6-1.5c-1.1-1.1-2.1-2.2-3-3.5
	c-4.6-6-7.7-13.1-10.4-20.1c-3.1-8.1-5.6-16.5-7.8-24.9c-2.9-11.1-5.3-22.4-7.1-33.7c0-0.2-0.1-0.4-0.1-0.6s-0.4-0.4-0.6-0.4
	c-2.5-0.5-5.2-0.3-7.7-0.4c-5.2-0.2-10.4-0.3-15.7-0.4c-11.3-0.3-22.6-0.5-34-0.7c-2.6,0-5.2-0.1-7.7-0.1c-0.6,0-1.6,0.2-1.9,0.8
	C155.3,203.3,155.8,203.6,156.4,203.6L156.4,203.6z"/>
<path fill="#6D6E71" d="M91.5,206c0.8,1,1.7,1.9,2.5,2.9c0.5,0.6,1.1,1.2,1.6,1.9c0.2,0.2,0.3,0.5,0.5,0.6c0.4,0.3-0.2,0.2,0.1-0.2
	c-0.3,0.4-0.3,1.8-0.4,2.3c-0.8,4.9-1.8,9.9-2.9,14.8c-3.7,16.3-8.6,32.7-16.3,47.6c-4.1,7.9-9.2,15.7-16.2,21.3
	c-0.5,0.4-0.2,1,0.3,1.1c0.7,0.2,1.6-0.1,2.1-0.6c6.4-5,11.2-11.9,15.1-19c4.3-7.8,7.7-16.1,10.6-24.6c4.4-13,7.8-26.4,10.1-40
	c0.2-1,0.6-2.2,0.5-3.3c-0.1-0.9-1.4-2-2-2.6c-1-1.1-2-2.3-3-3.4C93.6,203.9,90.7,205,91.5,206L91.5,206z M217.6,205.6
	c-0.6,1.2-1.2,2.5-1.8,3.7c-0.2,0.4-0.4,0.7-0.4,1.1c0,1,0.3,2.2,0.5,3.2c0.9,5.3,1.9,10.5,3,15.7c3.5,16,8,32,15.2,46.7
	c3.7,7.5,8.3,15,14.8,20.6c0.6,0.5,3.1-0.6,2.7-1c-5.8-4.9-10-11.5-13.5-18.1c-3.9-7.5-7-15.4-9.6-23.4c-4.2-13-7.3-26.4-9.6-39.9
	c-0.2-1.5-0.4-2.9-0.7-4.4c-0.1-0.5-0.1-0.3,0.1-0.6c0.7-1.4,1.4-2.8,2.1-4.1c0.2-0.5-1-0.3-1.1-0.2
	C218.9,204.9,217.9,205.1,217.6,205.6L217.6,205.6z"/>
<path fill="#6D6E71" d="M98.3,210.4c10.2,0.4,20.5,0.7,30.7,0.9c19.4,0.4,38.7,0.7,58.1,0.2c8.7-0.2,17.5-0.5,26.1-1.5
	c0.5-0.1,1.6-0.2,1.9-0.7s-0.2-0.5-0.7-0.5c-7.6,0.9-15.2,1.2-22.8,1.5c-9.6,0.3-19.2,0.3-28.9,0.3c-17.3-0.1-34.5-0.5-51.8-1
	c-3.6-0.1-7.2-0.2-10.8-0.4c-0.6,0-1.6,0.1-2.1,0.5C97.7,210.1,97.7,210.4,98.3,210.4L98.3,210.4z"/>
<path fill="#FFFFFF" d="M233.9,247c0,0-0.1,8.1-8.9,7.1c0,0,5.6,17.2,6.2,18.2c0,0,6.7,0.4,9.1-6.4L233.9,247L233.9,247z"/>
<path fill="#6D6E71" d="M232.5,247.4v0.2c0,0.3-0.1,0.5-0.1,0.8c-0.1,0.8-0.4,1.5-0.7,2.2c-1.2,2.4-3.2,3-5.7,2.8
	c-0.5,0-2.6,0.2-2.4,1.1c1,2.9,1.9,5.8,2.9,8.7c0.7,2.1,1.4,4.1,2.1,6.2c0.4,1.1,0.7,2.3,1.2,3.4c0.2,0.3,0.5,0.3,0.9,0.3
	c2,0.1,4.1-0.5,5.8-1.4c1.4-0.7,2.7-1.7,3.7-3c0.6-0.8,1.7-2.3,1.5-3.3c-0.1-0.6-0.5-1.3-0.7-2c-0.4-1.1-0.8-2.3-1.1-3.4
	c-0.9-2.8-1.8-5.5-2.8-8.2c-0.6-1.7-1.1-3.4-1.7-5.1C235.1,245.8,232.2,246.6,232.5,247.4c1.2,3.6,2.4,7.2,3.6,10.9
	c0.7,2.2,1.5,4.4,2.2,6.6c0.1,0.4,0.5,1,0.5,1.4s-0.5,1.1-0.7,1.5c-0.4,0.8-1,1.5-1.6,2.1c-1.4,1.3-3.2,1.9-4.7,1.8l0.9,0.3
	c-0.5-1-0.8-2.2-1.2-3.2l-2.1-6.3c-1-2.9-1.9-5.8-2.9-8.7c-0.8,0.4-1.6,0.7-2.4,1.1c3.5,0.4,7.6-0.4,9.8-3.5c0.9-1.4,1.5-3,1.5-4.7
	C235.4,245.9,232.5,246.4,232.5,247.4L232.5,247.4z"/>
<path opacity="0.4" enable-background="new    " d="M48.1,78.5c0,0,15.2,12.9,18,37.1c0,0,2.9,36.6,2.9,47.8c0,0-6.5,28.7-5.8,37.7
	c0,0-7.2,53.5-4.3,62.5c0,0-2.9,28.7,5.1,37.1c0,0,3.6,5.6-1.4,15.8c0,0-17.3-13.5-8.7-54c0,0,12.3-107.5,7.2-127.8
	C61.1,134.8,59.6,91.4,48.1,78.5z M260.1,67.9c0,0-11.7,13.5-14,38.6c0,0-2.2,38-2.2,49.7c0,0,5,29.8,4.5,39.2c0,0,5.6,55.6,3.4,65
	c0,0,2.2,29.8-3.9,38.6c0,0-2.8,5.9,1.1,16.4c0,0,13.4-14,6.7-56.2c0,0-9.5-111.8-5.6-132.8C250.1,126.4,251.2,81.3,260.1,67.9
	L260.1,67.9z"/>
<path opacity="0.3" enable-background="new    " d="M97.7,291.1c0,0-10.1-8.9-9.5-4.5c0,0,3.9,6.7,3.9,8.9s1.7,5.6,1.7,5.6l13.4-1.1
	L97.7,291.1L97.7,291.1z M26.9,337.6c0,0-7.1-4.8-6.8-2.4c0,0,2.8,3.6,2.8,4.8s1.2,3,1.2,3l9.5-0.6L26.9,337.6z M262.4,336.6
	c0,0-7.1-4.8-6.8-2.4c0,0,2.8,3.6,2.8,4.8s1.2,3,1.2,3l9.5-0.6L262.4,336.6z M198.2,293.5c0,0-7.4-7.8-6.7-4.6c0,0,0.1,6.2,0.1,7.8
	c0,0.3,0,0.5-0.1,0.8c-0.3,1.3,0.8,2.6,2.2,2.5l15.6-0.2L198.2,293.5L198.2,293.5z M285.9,335.9c0,0,6.3-5.7,5.7-3.4
	c0,0-0.1,4.5-0.1,5.7c0,0.2,0,0.4,0.1,0.6c0.2,1-0.7,1.9-1.9,1.9l-13.4-0.1L285.9,335.9L285.9,335.9z M51.6,339.3
	c0,0,6.3-5.7,5.7-3.4c0,0-0.1,4.5-0.1,5.7c0,0.2,0,0.4,0.1,0.6c0.2,1-0.7,1.9-1.9,1.9L42,344L51.6,339.3z M88.8,207.4
	c0,0-16.7,72.6-28.5,79.8l-0.6-8.4C59.8,278.9,88.2,217.5,88.8,207.4L88.8,207.4z"/>
<path opacity="0.26" enable-background="new    " d="M225,204.6c0,0,6.1,38.5,7.8,42.4l2.8-0.6l6.7,19.5l-1.1,3.9
	c0,0,5.6,15.1,8.9,15.1s-16.2-52.5-17.9-62.5L225,204.6L225,204.6z"/>
<path opacity="0.3" enable-background="new    " d="M100.5,209.7c0,0,32.2,0.9,37.4-0.3s63.8,1.8,70.8,0.3c6.9-1.5,4.6-3.5,4.6-3.5
	s-38.5-0.3-43.7,0.3C169.5,206.5,104,207.7,100.5,209.7z"/>
<path opacity="0.31" enable-background="new    " d="M61.2,198.2c0,0-5,38-17.3,46.9s12.8-25.7,11.7-40.2 M248.4,209.4
	c0,0,5,38,17.3,46.9S252.9,230.6,254,216"/>
<g>
	<path fill="none" stroke="#FFFFFF" stroke-width="5.591" stroke-miterlimit="10" d="M172.5,131.1v-26.7h-65.3v80.1h65.3v-28.3"/>
	<path fill="none" stroke="#FFFFFF" stroke-width="3.572" stroke-miterlimit="10" d="M120.6,109.3L108,120.9h12.6V109.3z"/>
	<g>
		<path fill="#FFFFFF" d="M153.6,152.1v-6.2h-10.2v7.3l2.1,0.1v3.1h-8.7v-2.9l1.2-0.1c0.7-0.1,1-0.4,1-1v-16.7l-2-0.1v-3.1h8.7v2.9
			l-1.2,0.1c-0.4,0-0.7,0.1-0.8,0.3c-0.2,0.2-0.2,0.5-0.2,0.9v5.6h10.2v-6.6l-2-0.1v-3.1h8.7v2.9l-1.2,0.1c-0.7,0.1-1,0.5-1,1.1
			v16.6l2,0.1v3.1h-8.7v-2.9l1.2-0.1c0.4,0,0.6-0.1,0.8-0.3C153.6,152.9,153.6,152.5,153.6,152.1L153.6,152.1z M169.2,152.3V136
			h-2.8c-0.5,0-0.8,0.4-0.8,1.1v1.7l-3.7-0.2v-6.1h18.8v6.1l-3.7,0.2v-1.7c0-0.4-0.1-0.7-0.2-0.9s-0.4-0.2-0.9-0.2h-2.5v17.2
			l2.8,0.1v3.1h-10.1v-2.9l1.9-0.1C168.8,153.2,169.2,152.9,169.2,152.3L169.2,152.3z M190.1,132.4l6.1,16.3h0.1l6.2-16.3h7.1v2.9
			l-1.2,0.1c-0.7,0.1-1.1,0.5-1,1.3l0.9,16.5l2.2,0.1v3.1h-8.7v-2.9l1.3-0.1c0.6,0,1-0.4,0.9-0.9l-0.7-12.7h-0.1l-5.5,14.4h-3.4
			l-5.5-14.2h-0.1l-0.7,13.4l2.3,0.1v3.1H182v-2.9l1.3-0.1c0.5,0,0.9-0.4,0.9-1l1-16.7l-2.2-0.1v-3.1L190.1,132.4L190.1,132.4z
			 M229.5,156.3h-17.1v-2.9l1.2-0.1c0.7-0.1,1-0.4,1-1v-16.7l-2-0.1v-3.1h8.7v2.9l-1.2,0.1c-0.7,0.1-1,0.5-1,1.1v16.1h6
			c0.3,0,0.6-0.1,0.7-0.3c0.1-0.2,0.2-0.5,0.2-0.9V149l3.7,0.2L229.5,156.3L229.5,156.3z"/>
	</g>
</g>
</svg>
