<svg xmlns="http://www.w3.org/2000/svg" viewBox="0 0 612 792"><path fill="#F05661" d="M306.9 261s-27.7.3-40.3-3.9c0 0-10.1 5.6-14.5 7.3 0 0-24.6 6.7-40.3 13.5 0 0-15.7 3.4-25.7 30.8l-22.4 63.9s11.7 24.1 50.3 23l7.3-16.3s6.7 5 8.9 45.4c.1 1.8-6.7 130-6.2 134.5 0 0 11.7 9 45.9 10.1 0 0 35 .6 39.3-.4"/><path fill="#6D6E70" d="M307 260h-2.4c-2.3 0-4.5-.1-6.8-.1-6.4-.2-12.7-.6-19-1.4-3-.4-6-.9-9-1.6-1.2-.3-2.6-1.1-3.9-.6-.5.2-1 .5-1.4.8-2.5 1.4-5 2.7-7.6 4-1.7.9-4 2-5.5 2.5-11.4 3.4-22.7 6.7-33.8 10.9-2.9 1.1-5.8 2.1-8.6 3.3-3.3 1.4-6.2 3.5-8.8 5.9-7.7 7-12.7 16.6-16.1 26.3-2.4 6.8-4.8 13.6-7.1 20.4l-9.9 28.2c-1.2 3.4-2.4 6.7-3.5 10.1-.3.9-.7 1.9-1 2.8-.1.4-.5 1-.4 1.4.2 1.1 1.5 2.5 2.1 3.3 1.9 2.7 4.2 5 6.7 7.2 8.7 7.5 19.9 11.4 31.2 12.7 3.9.4 7.8.5 11.7.4.5 0 1.3-.3 1.5-.9 2.4-5.4 4.8-10.8 7.3-16.3-.8.2-1.7.4-2.5.7-.4-.3.1.1.2.3.4.5.7 1 1 1.6 1.4 2.6 2.3 5.9 3.1 8.9 1.6 6.6 2.6 13.5 3.2 20.3.5 4.9 1.2 10 1 15-.2 5.9-.6 11.8-.8 17.6-.5 10.4-1 20.8-1.6 31.2l-1.8 35.7c-.5 10.3-1 20.6-1.4 30.9-.2 5.6-.6 11.3-.6 16.9 0 .6-.1 1.1.4 1.6.4.4.9.6 1.4.9 3.1 1.8 6.5 3.1 9.9 4.2 12.3 3.9 25.4 5.1 38.2 5.3 10.9.1 21.8.4 32.6-.1 1.5-.1 3-.1 4.4-.4 1.8-.4 1.3-2.2-.5-1.8.3-.1-.1 0-.4.1-.3 0-.7.1-1 .1-.9.1-1.8.1-2.8.1-2.6.1-5.1.1-7.7.2-6 .1-11.9 0-17.9 0-12.2-.1-24.4-.6-36.3-3.3-4.7-1.1-9.4-2.4-13.8-4.5-1-.5-2.1-1-3-1.6-.2-.1-.5-.4-.7-.4-.5-.2.2.2.1.2 0 0 0 .1 0 0v-.3-1c0-1 0-1.9.1-2.9.1-3.2.2-6.3.3-9.5.4-9.7.9-19.5 1.3-29.2.6-11.7 1.1-23.5 1.7-35.2.5-10.8 1.1-21.7 1.6-32.5.3-6.9.7-13.7 1-20.6.1-1.7.1-3.3 0-5.1-.5-8.6-1.3-17.2-2.8-25.7-.8-4.4-1.7-8.9-3.4-13.1-.6-1.6-1.3-3.3-2.4-4.6-.2-.2-.3-.4-.5-.5-.7-.5-2.2-.1-2.5.7-2.4 5.4-4.8 10.8-7.3 16.3l1.5-.9c-17.6.5-36.9-4.9-47.5-19.9-.4-.6-.8-1.2-1.2-1.9-.1-.2-.2-.4-.3-.5-.2-.2 0-.1 0 0s-.2.7 0 .4c.1-.1.1-.4.2-.5.2-.7.5-1.4.7-2.1 2.2-6.2 4.3-12.3 6.5-18.5 4.8-13.7 9.6-27.3 14.4-41 2.8-8.1 6.7-16.1 12.4-22.6 2.5-2.8 5.3-5.3 8.5-7.2.9-.5 1.8-1 2.8-1.4.2-.1.3-.1.5-.2s-.3.1.1-.1c.2-.1.4-.1.6-.2 1.5-.5 3-1.2 4.6-1.8 3-1.2 6-2.3 9.1-3.4 5.8-2 11.7-3.9 17.6-5.6 3-.9 6.1-1.7 9.1-2.6 4.1-1.3 7.9-3.6 11.7-5.6 1.1-.6 2.3-1.2 3.4-1.9-.5 0-1 .1-1.5.1 6.2 2 12.9 2.7 19.3 3.2 5.9.5 11.8.7 17.7.8h3.9c1.7-.5 2.4-2.4.4-2.4z"/><path fill="#F05661" d="M304.1 261s27.7.3 40.3-3.9c0 0 10.1 5.6 14.5 7.3 0 0 24.6 6.7 40.3 13.5 0 0 15.7 3.4 25.7 30.8l22.4 63.9s-11.7 24.1-50.3 23l-7.3-16.3s-6.7 5-8.9 45.4c-.1 1.8 6.7 130 6.2 134.5 0 0-11.7 9-45.9 10.1 0 0-28.7 0-38.8.4"/><path fill="#6D6E70" d="M303.6 262c10.2.1 20.6-.3 30.7-1.8 3.5-.5 7-1.1 10.4-2.2-.5 0-.9-.1-1.4-.1 3.5 2 7.1 3.9 10.7 5.6 2.5 1.2 4.9 2 7.5 2.8 10.9 3.1 21.8 6.5 32.4 10.7 4.7 1.9 9 3.4 13 6.6 7.9 6.5 13.2 16.1 16.6 25.6 4.3 12.1 8.5 24.2 12.7 36.4l7.5 21.3c.6 1.8 1.3 3.6 1.9 5.4 0 .1.1.4.2.5.3.3-.2 0 .1-.3-.2.1-.3.5-.4.7-7.5 12.9-23.3 19.5-37.6 21-3.5.4-7 .5-10.5.4l.9.6c-2.4-5.4-4.8-10.8-7.3-16.3-.4-.9-1.8-.7-2.4-.2-1.4 1.1-2.2 3.1-2.9 4.7-2.7 6.6-3.8 13.9-4.8 20.9-.9 6.7-1.6 13.4-1.8 20.2v2.1c.2 3.8.4 7.7.5 11.5.7 14.5 1.4 28.9 2.2 43.4.8 16.3 1.6 32.5 2.4 48.8.4 9.4 1.2 18.8 1.1 28.2v.8c.2-.2.3-.5.5-.7-.4.3-.8.5-1.2.7-.2.1.1 0-.4.2-.3.2-.6.3-.8.4-.7.4-1.5.7-2.2 1-5.2 2.3-10.8 3.7-16.4 4.8-13.3 2.6-26.7 2.4-40.1 2.5-7.5 0-15 .1-22.4.3-1.6.1-2.3 2-.3 2 11.9-.4 23.8-.4 35.6-.4 12.7 0 25.9-1.3 38.1-5.2 3.5-1.1 6.9-2.4 10.1-4.1 1.1-.6 2.4-1.1 2.5-2.5.3-5.1-.3-10.3-.5-15.4-.4-9.7-.9-19.4-1.3-29.2-.6-11.6-1.1-23.1-1.7-34.7-.5-10.5-1.1-21-1.6-31.5-.3-6.7-.7-13.4-1-20.1-.1-1.5-.1-3 0-4.6.5-8.5 1.3-17.1 2.7-25.5.8-4.4 1.7-8.8 3.2-13 .4-1.1.9-2.1 1.4-3.1.2-.3.4-.6.6-1 .2-.3-.1 0 .3-.4.2-.2.5-.5.1-.2-.8-.1-1.6-.1-2.4-.2 2.4 5.4 4.8 10.8 7.3 16.3.2.4.5.6.9.6 13.2.3 26.7-2.1 38-9.3 5.4-3.5 10.4-8.1 13.7-13.7.5-.9.6-1.3.2-2.3-.9-2.4-1.7-4.9-2.6-7.3-3.1-8.8-6.2-17.7-9.3-26.5-2.9-8.2-5.7-16.4-8.6-24.6-2.9-8.4-6.3-16.6-11.8-23.7-4.2-5.3-9.5-10-16-12.2-2.2-.8-4.4-1.8-6.7-2.6-3.6-1.4-7.2-2.6-10.9-3.9-6.1-2-12.3-3.9-18.5-5.7l-4.2-1.2c-2-.6-3.9-1.7-5.8-2.6-2.5-1.3-5-2.6-7.4-3.9-.4-.2-.8-.5-1.2-.7-1.2-.5-2.9.4-4.1.7-6.1 1.5-12.6 2.1-18.9 2.5-5.2.3-10.5.5-15.7.6h-2.2c-.6 0-1.6.2-1.9.9.1.7.5 1.2 1.2 1.2z"/><path fill="#FFF" d="M268.1 257.1s4 32.3 40.9 31.8c0 0 28.9-2.2 35-31.8l6.7 3.3s0 36.3-44.7 36.3c0 0-36.8 4.5-45.8-36.8l7.9-2.8z"/><path fill="#FFF" d="M262.1 260.9l5.2 5.4s-26.8 8.4-32.7 15.1c0 0-17.6 14.2-15.9 46.9 0 0 .8 42.7 2.5 46.9l-6.3 19.8s-32.7 3.3-50.2-22.6l25.1-71.2s9.2-19 24.8-23.4l47.5-16.9zM350.8 262l-3.3 5.6s22.8 7 28.6 13.7c0 0 17.6 14.2 15.9 46.9 0 0 .4 46.6-1.3 50.7l7.5 15.9s25.1 7.5 49.4-21.8l-30.4-81.5s-12.3-12.8-24-15.6L350.8 262z"/><g><path fill="#6D6E70" d="M256.2 261.3c1 4.6 3 9.1 5.4 13.2 5.2 8.9 12.9 16.1 22.6 19.9 8.4 3.3 17.5 3.9 26.4 3.4 8.2-.5 16.4-2.3 23.7-6.1 4.5-2.3 8.5-5.5 11.6-9.4 3.6-4.6 5.8-10.2 6.6-16 .2-1.7.4-3.4.4-5.2 0-.7-2.9-.2-2.9.8-.2 6.1-1.6 12.3-4.8 17.5-2.5 4.2-6.1 7.7-10.3 10.3-3.7 2.3-7.7 3.9-11.9 5-3.2.8-7 1.4-10 1.7-7.9.6-16.1.3-23.7-2.2-9.8-3.2-18.1-9.9-23.6-18.6-1.9-3-3.5-6.2-4.8-9.5-.7-1.7-1-3.5-1.7-5.2 0-.1 0-.2-.1-.2-.2-1-3.1-.3-2.9.6z"/><path fill="#6D6E70" d="M267.3 257.4c1.1 4.2 2.9 8.3 5 12.1 4.1 7.5 10.1 14.2 18 17.7 5.7 2.5 12 3.1 18.1 2.3 6.7-1 13.3-3.1 19.1-6.6 8.1-4.8 13.9-12.5 16.1-21.7.3-1.4.6-2.9.8-4.3.2-1.4-2.8-1-2.9.3-1.2 9.3-5.7 17.6-13.5 23-3 2.1-6.3 3.7-9.7 4.9-1.5.5-3 1-4.6 1.4-.7.2-1.4.3-2 .5-.7.1-1.3.3-1.7.3-5.2.9-10.3.8-15.4-.9-8.1-2.7-14.2-9-18.6-16.2-2.6-4.2-4.3-8.7-5.9-13.3 0-.1 0-.2-.1-.2-.1-1.3-3-.6-2.7.7z"/></g><g><path fill="#6D6E70" d="M258.5 268.6c-4.6 1.5-9 3.7-13.2 6.2-8.5 5-16.3 11.7-21.4 20.3-3 5-5 10.3-5.8 16-.8 5.7-.7 11.4-.3 17.1.5 7.3 1.3 14.5 1.8 21.7.4 6.3.7 12.6 1 18.9.1 3.4.1 6.9.3 10.3v.5c0 .8 2.9.3 2.9-.8-.2-7.9-.5-15.8-1-23.7-.4-6.9-.9-13.9-1.5-20.8-.6-6.5-1.2-13.1-.7-19.6.2-3.4.7-6.9 1.7-10.2.2-.7.5-1.4.8-2.1.1-.3.1-.2.1-.2.4-.8.7-1.7 1-2.5 4.1-9.3 11.4-16.8 19.8-22.3 3.3-2.2 6.9-4.1 10.5-5.8 1.1-.5 2.3-1 3.4-1.4.3-.1.6-.2 1-.3.5-.2-.3.1 0 0 .4-.1 1.4-.5 1.3-1.1-.2-.5-1.3-.3-1.7-.2z"/></g><g><path fill="#6D6E70" d="M351.8 270.5c4.4 1.4 8.6 3.6 12.6 5.9 8.4 5 16.1 11.7 20.9 20.3 2.8 4.9 4.7 10 5.4 15.6.7 5.8.6 11.6.2 17.4-.6 7.2-1.3 14.4-1.8 21.6-.6 9.5-1.1 19.1-1.3 28.6 0 1.1 2.9.5 2.9-.4.2-8 .5-16.1 1-24.1.4-7.1.9-14.2 1.6-21.2.6-6.5 1.1-13 .6-19.5-.2-3.4-.7-6.9-1.8-10.2-.6-1.9-1.5-3.8-2.3-5.6-4.3-9.2-11.8-16.6-20.3-22.2-4.7-3.1-9.9-5.9-15.2-7.6-.1 0-.2-.1-.3-.1-.7-.2-1.5-.1-2 .3-.2.3-.9 1-.2 1.2z"/></g><path opacity=".3" fill="#231F20" d="M228 362.5s.1 3.3.3 9.1c1 28.6 4.4 117.7 10.9 159.5 0 0-1.1-78.1-1.1-106L228 362.5zM384.3 361.4s-.1 3.3-.3 9.1c-1 28.6-4.4 117.7-10.9 159.5 0 0 1.1-78.1 1.1-106l10.1-62.6z"/><path opacity=".31" fill="#231F20" d="M184.5 336.8c-8.9 20.1-5.6 53.6 27.9 54.7 0 0-42.4-3.3-38-22.3l10.1-32.4z"/><path opacity=".32" fill="#231F20" d="M394.4 355.8s4 14.9-1.1 20.4l5.6 17.6s27.9 1.1 41.3-18.6c-.1-.1-34.4 38.5-45.8-19.4z"/><g><path fill="none" stroke="#FFF" stroke-width="5.032" stroke-miterlimit="10" d="M317.5 363.3v-24h-58.8v72.1h58.8v-25.5"/><path fill="none" stroke="#FFF" stroke-width="3.215" stroke-miterlimit="10" d="M270.8 343.6l-11.4 10.5h11.4z"/><g fill="#FFF"><path d="M300.5 382.2v-5.6h-9.2v6.5l1.9.1v2.8h-7.8v-2.6l1.1-.1c.6-.1.9-.4.9-.9v-15.1l-1.8-.1v-2.8h7.8v2.6l-1.1.1c-.3 0-.6.1-.7.3-.2.1-.2.4-.2.8v5h9.2v-6l-1.8-.1v-2.8h7.8v2.6l-1.1.1c-.6.1-.9.4-.9 1v14.9l1.8.1v2.8h-7.8v-2.6l1.1-.1c.3 0 .6-.1.7-.3 0 .1.1-.2.1-.6zM314.5 382.4v-14.7H312c-.5 0-.7.3-.7 1v1.5l-3.3-.2v-5.5h16.9v5.5l-3.3.2v-1.5c0-.4-.1-.6-.2-.8-.1-.2-.4-.2-.8-.2h-2.2v15.5l2.6.1v2.8h-9.1v-2.6l1.7-.1c.6-.2.9-.5.9-1zM333.4 364.5l5.5 14.6h.1l5.5-14.6h6.4v2.6l-1.1.1c-.6.1-1 .4-.9 1.1l.8 14.8 2 .1v2.8h-7.8v-2.6l1.2-.1c.6 0 .9-.3.8-.8l-.6-11.4h-.1l-5 12.9h-3.1l-4.9-12.8h-.1l-.6 12 2.1.1v2.8H326v-2.6l1.2-.1c.5 0 .8-.3.8-.9l.9-15.1-2-.1v-2.8h6.5zM368.8 386h-15.4v-2.6l1.1-.1c.6-.1.9-.4.9-.9v-15.1l-1.8-.1v-2.8h7.8v2.6l-1.1.1c-.6.1-.9.4-.9 1v14.5h5.4c.3 0 .5-.1.6-.2.1-.2.1-.4.1-.8v-2.3l3.3.2v6.5z"/></g></g></svg>