<?xml version="1.0" encoding="utf-8"?>
<!-- Generator: Adobe Illustrator 25.0.0, SVG Export Plug-In . SVG Version: 6.00 Build 0)  -->
<svg version="1.1" id="Layer_1" xmlns="http://www.w3.org/2000/svg" xmlns:xlink="http://www.w3.org/1999/xlink" x="0px" y="0px"
	 viewBox="0 0 293 322" enable-background="new 0 0 293 322" xml:space="preserve">
<path fill="#F05661" d="M146.9,8c0,0-27.7,0.3-40.3-3.9c0,0-10.1,5.6-14.5,7.3c0,0-24.6,6.7-40.3,13.5c0,0-15.7,3.4-25.7,30.8
	L3.7,119.6c0,0,11.7,24.1,50.3,23l7.3-16.3c0,0,6.7,5,8.9,45.4c0.1,1.8-6.7,130-6.2,134.5c0,0,11.7,9,45.9,10.1c0,0,35,0.6,39.3-0.4
	"/>
<path fill="#6D6E70" d="M147,7h-2.4c-2.3,0-4.5-0.1-6.8-0.1c-6.4-0.2-12.7-0.6-19-1.4c-3-0.4-6-0.9-9-1.6c-1.2-0.3-2.6-1.1-3.9-0.6
	c-0.5,0.2-1,0.5-1.4,0.8c-2.5,1.4-5,2.7-7.6,4c-1.7,0.9-4,2-5.5,2.5C80,14,68.7,17.3,57.6,21.5c-2.9,1.1-5.8,2.1-8.6,3.3
	c-3.3,1.4-6.2,3.5-8.8,5.9c-7.7,7-12.7,16.6-16.1,26.3c-2.4,6.8-4.8,13.6-7.1,20.4l-9.9,28.2c-1.2,3.4-2.4,6.7-3.5,10.1
	c-0.3,0.9-0.7,1.9-1,2.8c-0.1,0.4-0.5,1-0.4,1.4c0.2,1.1,1.5,2.5,2.1,3.3c1.9,2.7,4.2,5,6.7,7.2c8.7,7.5,19.9,11.4,31.2,12.7
	c3.9,0.4,7.8,0.5,11.7,0.4c0.5,0,1.3-0.3,1.5-0.9c2.4-5.4,4.8-10.8,7.3-16.3c-0.8,0.2-1.7,0.4-2.5,0.7c-0.4-0.3,0.1,0.1,0.2,0.3
	c0.4,0.5,0.7,1,1,1.6c1.4,2.6,2.3,5.9,3.1,8.9c1.6,6.6,2.6,13.5,3.2,20.3c0.5,4.9,1.2,10,1,15c-0.2,5.9-0.6,11.8-0.8,17.6
	c-0.5,10.4-1,20.8-1.6,31.2l-1.8,35.7c-0.5,10.3-1,20.6-1.4,30.9c-0.2,5.6-0.6,11.3-0.6,16.9c0,0.6-0.1,1.1,0.4,1.6
	c0.4,0.4,0.9,0.6,1.4,0.9c3.1,1.8,6.5,3.1,9.9,4.2c12.3,3.9,25.4,5.1,38.2,5.3c10.9,0.1,21.8,0.4,32.6-0.1c1.5-0.1,3-0.1,4.4-0.4
	c1.8-0.4,1.3-2.2-0.5-1.8c0.3-0.1-0.1,0-0.4,0.1c-0.3,0-0.7,0.1-1,0.1c-0.9,0.1-1.8,0.1-2.8,0.1c-2.6,0.1-5.1,0.1-7.7,0.2
	c-6,0.1-11.9,0-17.9,0c-12.2-0.1-24.4-0.6-36.3-3.3c-4.7-1.1-9.4-2.4-13.8-4.5c-1-0.5-2.1-1-3-1.6c-0.2-0.1-0.5-0.4-0.7-0.4
	c-0.5-0.2,0.2,0.2,0.1,0.2c0,0,0,0.1,0,0v-0.3v-1c0-1,0-1.9,0.1-2.9c0.1-3.2,0.2-6.3,0.3-9.5c0.4-9.7,0.9-19.5,1.3-29.2
	c0.6-11.7,1.1-23.5,1.7-35.2c0.5-10.8,1.1-21.7,1.6-32.5c0.3-6.9,0.7-13.7,1-20.6c0.1-1.7,0.1-3.3,0-5.1c-0.5-8.6-1.3-17.2-2.8-25.7
	c-0.8-4.4-1.7-8.9-3.4-13.1c-0.6-1.6-1.3-3.3-2.4-4.6c-0.2-0.2-0.3-0.4-0.5-0.5c-0.7-0.5-2.2-0.1-2.5,0.7
	c-2.4,5.4-4.8,10.8-7.3,16.3l1.5-0.9C36.4,142.4,17.1,137,6.5,122c-0.4-0.6-0.8-1.2-1.2-1.9c-0.1-0.2-0.2-0.4-0.3-0.5
	c-0.2-0.2,0-0.1,0,0s-0.2,0.7,0,0.4c0.1-0.1,0.1-0.4,0.2-0.5c0.2-0.7,0.5-1.4,0.7-2.1c2.2-6.2,4.3-12.3,6.5-18.5
	c4.8-13.7,9.6-27.3,14.4-41c2.8-8.1,6.7-16.1,12.4-22.6c2.5-2.8,5.3-5.3,8.5-7.2c0.9-0.5,1.8-1,2.8-1.4c0.2-0.1,0.3-0.1,0.5-0.2
	s-0.3,0.1,0.1-0.1c0.2-0.1,0.4-0.1,0.6-0.2c1.5-0.5,3-1.2,4.6-1.8c3-1.2,6-2.3,9.1-3.4c5.8-2,11.7-3.9,17.6-5.6
	c3-0.9,6.1-1.7,9.1-2.6c4.1-1.3,7.9-3.6,11.7-5.6c1.1-0.6,2.3-1.2,3.4-1.9c-0.5,0-1,0.1-1.5,0.1c6.2,2,12.9,2.7,19.3,3.2
	c5.9,0.5,11.8,0.7,17.7,0.8h3.9C148.3,8.9,149,7,147,7L147,7z"/>
<path fill="#F05661" d="M144.1,8c0,0,27.7,0.3,40.3-3.9c0,0,10.1,5.6,14.5,7.3c0,0,24.6,6.7,40.3,13.5c0,0,15.7,3.4,25.7,30.8
	l22.4,63.9c0,0-11.7,24.1-50.3,23l-7.3-16.3c0,0-6.7,5-8.9,45.4c-0.1,1.8,6.7,130,6.2,134.5c0,0-11.7,9-45.9,10.1
	c0,0-28.7,0-38.8,0.4"/>
<path fill="#6D6E70" d="M143.6,9c10.2,0.1,20.6-0.3,30.7-1.8c3.5-0.5,7-1.1,10.4-2.2c-0.5,0-0.9-0.1-1.4-0.1c3.5,2,7.1,3.9,10.7,5.6
	c2.5,1.2,4.9,2,7.5,2.8c10.9,3.1,21.8,6.5,32.4,10.7c4.7,1.9,9,3.4,13,6.6c7.9,6.5,13.2,16.1,16.6,25.6c4.3,12.1,8.5,24.2,12.7,36.4
	l7.5,21.3c0.6,1.8,1.3,3.6,1.9,5.4c0,0.1,0.1,0.4,0.2,0.5c0.3,0.3-0.2,0,0.1-0.3c-0.2,0.1-0.3,0.5-0.4,0.7
	c-7.5,12.9-23.3,19.5-37.6,21c-3.5,0.4-7,0.5-10.5,0.4l0.9,0.6c-2.4-5.4-4.8-10.8-7.3-16.3c-0.4-0.9-1.8-0.7-2.4-0.2
	c-1.4,1.1-2.2,3.1-2.9,4.7c-2.7,6.6-3.8,13.9-4.8,20.9c-0.9,6.7-1.6,13.4-1.8,20.2v2.1c0.2,3.8,0.4,7.7,0.5,11.5
	c0.7,14.5,1.4,28.9,2.2,43.4c0.8,16.3,1.6,32.5,2.4,48.8c0.4,9.4,1.2,18.8,1.1,28.2v0.8c0.2-0.2,0.3-0.5,0.5-0.7
	c-0.4,0.3-0.8,0.5-1.2,0.7c-0.2,0.1,0.1,0-0.4,0.2c-0.3,0.2-0.6,0.3-0.8,0.4c-0.7,0.4-1.5,0.7-2.2,1c-5.2,2.3-10.8,3.7-16.4,4.8
	c-13.3,2.6-26.7,2.4-40.1,2.5c-7.5,0-15,0.1-22.4,0.3c-1.6,0.1-2.3,2-0.3,2c11.9-0.4,23.8-0.4,35.6-0.4c12.7,0,25.9-1.3,38.1-5.2
	c3.5-1.1,6.9-2.4,10.1-4.1c1.1-0.6,2.4-1.1,2.5-2.5c0.3-5.1-0.3-10.3-0.5-15.4c-0.4-9.7-0.9-19.4-1.3-29.2
	c-0.6-11.6-1.1-23.1-1.7-34.7c-0.5-10.5-1.1-21-1.6-31.5c-0.3-6.7-0.7-13.4-1-20.1c-0.1-1.5-0.1-3,0-4.6c0.5-8.5,1.3-17.1,2.7-25.5
	c0.8-4.4,1.7-8.8,3.2-13c0.4-1.1,0.9-2.1,1.4-3.1c0.2-0.3,0.4-0.6,0.6-1c0.2-0.3-0.1,0,0.3-0.4c0.2-0.2,0.5-0.5,0.1-0.2
	c-0.8-0.1-1.6-0.1-2.4-0.2c2.4,5.4,4.8,10.8,7.3,16.3c0.2,0.4,0.5,0.6,0.9,0.6c13.2,0.3,26.7-2.1,38-9.3c5.4-3.5,10.4-8.1,13.7-13.7
	c0.5-0.9,0.6-1.3,0.2-2.3c-0.9-2.4-1.7-4.9-2.6-7.3c-3.1-8.8-6.2-17.7-9.3-26.5c-2.9-8.2-5.7-16.4-8.6-24.6
	c-2.9-8.4-6.3-16.6-11.8-23.7c-4.2-5.3-9.5-10-16-12.2c-2.2-0.8-4.4-1.8-6.7-2.6c-3.6-1.4-7.2-2.6-10.9-3.9
	c-6.1-2-12.3-3.9-18.5-5.7l-4.2-1.2c-2-0.6-3.9-1.7-5.8-2.6c-2.5-1.3-5-2.6-7.4-3.9c-0.4-0.2-0.8-0.5-1.2-0.7
	c-1.2-0.5-2.9,0.4-4.1,0.7c-6.1,1.5-12.6,2.1-18.9,2.5c-5.2,0.3-10.5,0.5-15.7,0.6h-2.2c-0.6,0-1.6,0.2-1.9,0.9
	C142.5,8.5,142.9,9,143.6,9L143.6,9z"/>
<path fill="#FFFFFF" d="M108.1,4.1c0,0,4,32.3,40.9,31.8c0,0,28.9-2.2,35-31.8l6.7,3.3c0,0,0,36.3-44.7,36.3c0,0-36.8,4.5-45.8-36.8
	L108.1,4.1z"/>
<path fill="#FFFFFF" d="M102.1,7.9l5.2,5.4c0,0-26.8,8.4-32.7,15.1c0,0-17.6,14.2-15.9,46.9c0,0,0.8,42.7,2.5,46.9L54.9,142
	c0,0-32.7,3.3-50.2-22.6l25.1-71.2c0,0,9.2-19,24.8-23.4L102.1,7.9L102.1,7.9z M190.8,9l-3.3,5.6c0,0,22.8,7,28.6,13.7
	c0,0,17.6,14.2,15.9,46.9c0,0,0.4,46.6-1.3,50.7l7.5,15.9c0,0,25.1,7.5,49.4-21.8l-30.4-81.5c0,0-12.3-12.8-24-15.6L190.8,9z"/>
<g>
	<path fill="#6D6E70" d="M96.2,8.3c1,4.6,3,9.1,5.4,13.2c5.2,8.9,12.9,16.1,22.6,19.9c8.4,3.3,17.5,3.9,26.4,3.4
		c8.2-0.5,16.4-2.3,23.7-6.1c4.5-2.3,8.5-5.5,11.6-9.4c3.6-4.6,5.8-10.2,6.6-16c0.2-1.7,0.4-3.4,0.4-5.2c0-0.7-2.9-0.2-2.9,0.8
		c-0.2,6.1-1.6,12.3-4.8,17.5c-2.5,4.2-6.1,7.7-10.3,10.3c-3.7,2.3-7.7,3.9-11.9,5c-3.2,0.8-7,1.4-10,1.7
		c-7.9,0.6-16.1,0.3-23.7-2.2c-9.8-3.2-18.1-9.9-23.6-18.6c-1.9-3-3.5-6.2-4.8-9.5c-0.7-1.7-1-3.5-1.7-5.2c0-0.1,0-0.2-0.1-0.2
		C98.9,6.7,96,7.4,96.2,8.3L96.2,8.3z"/>
	<path fill="#6D6E70" d="M107.3,4.4c1.1,4.2,2.9,8.3,5,12.1c4.1,7.5,10.1,14.2,18,17.7c5.7,2.5,12,3.1,18.1,2.3
		c6.7-1,13.3-3.1,19.1-6.6c8.1-4.8,13.9-12.5,16.1-21.7c0.3-1.4,0.6-2.9,0.8-4.3c0.2-1.4-2.8-1-2.9,0.3c-1.2,9.3-5.7,17.6-13.5,23
		c-3,2.1-6.3,3.7-9.7,4.9c-1.5,0.5-3,1-4.6,1.4c-0.7,0.2-1.4,0.3-2,0.5c-0.7,0.1-1.3,0.3-1.7,0.3c-5.2,0.9-10.3,0.8-15.4-0.9
		c-8.1-2.7-14.2-9-18.6-16.2c-2.6-4.2-4.3-8.7-5.9-13.3c0-0.1,0-0.2-0.1-0.2C109.9,2.4,107,3.1,107.3,4.4L107.3,4.4z"/>
</g>
<g>
	<path fill="#6D6E70" d="M98.5,15.6c-4.6,1.5-9,3.7-13.2,6.2c-8.5,5-16.3,11.7-21.4,20.3c-3,5-5,10.3-5.8,16s-0.7,11.4-0.3,17.1
		c0.5,7.3,1.3,14.5,1.8,21.7c0.4,6.3,0.7,12.6,1,18.9c0.1,3.4,0.1,6.9,0.3,10.3v0.5c0,0.8,2.9,0.3,2.9-0.8c-0.2-7.9-0.5-15.8-1-23.7
		c-0.4-6.9-0.9-13.9-1.5-20.8c-0.6-6.5-1.2-13.1-0.7-19.6c0.2-3.4,0.7-6.9,1.7-10.2c0.2-0.7,0.5-1.4,0.8-2.1
		c0.1-0.3,0.1-0.2,0.1-0.2c0.4-0.8,0.7-1.7,1-2.5c4.1-9.3,11.4-16.8,19.8-22.3c3.3-2.2,6.9-4.1,10.5-5.8c1.1-0.5,2.3-1,3.4-1.4
		c0.3-0.1,0.6-0.2,1-0.3c0.5-0.2-0.3,0.1,0,0c0.4-0.1,1.4-0.5,1.3-1.1C100,15.3,98.9,15.5,98.5,15.6z"/>
</g>
<g>
	<path fill="#6D6E70" d="M191.8,17.5c4.4,1.4,8.6,3.6,12.6,5.9c8.4,5,16.1,11.7,20.9,20.3c2.8,4.9,4.7,10,5.4,15.6
		c0.7,5.8,0.6,11.6,0.2,17.4c-0.6,7.2-1.3,14.4-1.8,21.6c-0.6,9.5-1.1,19.1-1.3,28.6c0,1.1,2.9,0.5,2.9-0.4c0.2-8,0.5-16.1,1-24.1
		c0.4-7.1,0.9-14.2,1.6-21.2c0.6-6.5,1.1-13,0.6-19.5c-0.2-3.4-0.7-6.9-1.8-10.2c-0.6-1.9-1.5-3.8-2.3-5.6
		c-4.3-9.2-11.8-16.6-20.3-22.2c-4.7-3.1-9.9-5.9-15.2-7.6c-0.1,0-0.2-0.1-0.3-0.1c-0.7-0.2-1.5-0.1-2,0.3
		C191.8,16.6,191.1,17.3,191.8,17.5L191.8,17.5z"/>
</g>
<path opacity="0.3" fill="#231F20" enable-background="new    " d="M68,109.5c0,0,0.1,3.3,0.3,9.1c1,28.6,4.4,117.7,10.9,159.5
	c0,0-1.1-78.1-1.1-106L68,109.5z M224.3,108.4c0,0-0.1,3.3-0.3,9.1c-1,28.6-4.4,117.7-10.9,159.5c0,0,1.1-78.1,1.1-106L224.3,108.4
	L224.3,108.4z"/>
<path opacity="0.31" fill="#231F20" enable-background="new    " d="M24.5,83.8c-8.9,20.1-5.6,53.6,27.9,54.7c0,0-42.4-3.3-38-22.3
	L24.5,83.8L24.5,83.8z"/>
<path opacity="0.32" fill="#231F20" enable-background="new    " d="M234.4,102.8c0,0,4,14.9-1.1,20.4l5.6,17.6
	c0,0,27.9,1.1,41.3-18.6C280.1,122.1,245.8,160.7,234.4,102.8z"/>
<g>
	<path fill="none" stroke="#FFFFFF" stroke-width="5.032" stroke-miterlimit="10" d="M157.5,110.3v-24H98.7v72.1h58.8v-25.5"/>
	<path fill="none" stroke="#FFFFFF" stroke-width="3.215" stroke-miterlimit="10" d="M110.8,90.6l-11.4,10.5h11.4V90.6z"/>
	<g>
		<path fill="#FFFFFF" d="M140.5,129.2v-5.6h-9.2v6.5l1.9,0.1v2.8h-7.8v-2.6l1.1-0.1c0.6-0.1,0.9-0.4,0.9-0.9v-15.1l-1.8-0.1v-2.8
			h7.8v2.6l-1.1,0.1c-0.3,0-0.6,0.1-0.7,0.3c-0.2,0.1-0.2,0.4-0.2,0.8v5h9.2v-6l-1.8-0.1v-2.8h7.8v2.6l-1.1,0.1
			c-0.6,0.1-0.9,0.4-0.9,1v14.9l1.8,0.1v2.8h-7.8v-2.6l1.1-0.1c0.3,0,0.6-0.1,0.7-0.3C140.4,129.9,140.5,129.6,140.5,129.2
			L140.5,129.2z M154.5,129.4v-14.7H152c-0.5,0-0.7,0.3-0.7,1v1.5L148,117v-5.5h16.9v5.5l-3.3,0.2v-1.5c0-0.4-0.1-0.6-0.2-0.8
			c-0.1-0.2-0.4-0.2-0.8-0.2h-2.2v15.5l2.6,0.1v2.8h-9.1v-2.6l1.7-0.1C154.2,130.2,154.5,129.9,154.5,129.4L154.5,129.4z
			 M173.4,111.5l5.5,14.6h0.1l5.5-14.6h6.4v2.6l-1.1,0.1c-0.6,0.1-1,0.4-0.9,1.1l0.8,14.8l2,0.1v2.8h-7.8v-2.6l1.2-0.1
			c0.6,0,0.9-0.3,0.8-0.8l-0.6-11.4h-0.1l-5,12.9h-3.1l-4.9-12.8h-0.1l-0.6,12l2.1,0.1v2.8H166v-2.6l1.2-0.1c0.5,0,0.8-0.3,0.8-0.9
			l0.9-15.1l-2-0.1v-2.8H173.4z M208.8,133h-15.4v-2.6l1.1-0.1c0.6-0.1,0.9-0.4,0.9-0.9v-15.1l-1.8-0.1v-2.8h7.8v2.6l-1.1,0.1
			c-0.6,0.1-0.9,0.4-0.9,1v14.5h5.4c0.3,0,0.5-0.1,0.6-0.2c0.1-0.2,0.1-0.4,0.1-0.8v-2.3l3.3,0.2V133L208.8,133z"/>
	</g>
</g>
</svg>
