<?xml version="1.0" encoding="utf-8"?>
<!-- Generator: Adobe Illustrator 25.0.0, SVG Export Plug-In . SVG Version: 6.00 Build 0)  -->
<svg version="1.1" id="Layer_1" xmlns="http://www.w3.org/2000/svg" xmlns:xlink="http://www.w3.org/1999/xlink" x="0px" y="0px"
	 viewBox="0 0 291 322" enable-background="new 0 0 291 322" xml:space="preserve">
<path fill="#F495B5" d="M146.9,9c0,0-27.7,0.3-40.3-3.9c0,0-10.1,5.6-14.5,7.3c0,0-24.6,6.7-40.3,13.5c0,0-15.7,3.4-25.7,30.8
	L3.7,120.6c0,0,11.7,24.1,50.3,23l7.3-16.3c0,0,6.7,5,8.9,45.4c0.1,1.8-6.7,130-6.2,134.5c0,0,11.7,9,45.9,10.1c0,0,35,0.6,39.3-0.4
	"/>
<path fill="#6D6E70" d="M147,8h-2.4c-2.3,0-4.5-0.1-6.8-0.1c-6.4-0.2-12.7-0.6-19-1.4c-3-0.4-6-0.9-9-1.6c-1.2-0.3-2.6-1.1-3.9-0.6
	c-0.5,0.2-1,0.5-1.4,0.8c-2.5,1.4-5,2.7-7.6,4c-1.7,0.9-4,2-5.5,2.5C80,15,68.7,18.3,57.6,22.5c-2.9,1.1-5.8,2.1-8.6,3.3
	c-3.3,1.4-6.2,3.5-8.8,5.9c-7.7,7-12.7,16.6-16.1,26.3c-2.4,6.8-4.8,13.6-7.1,20.4l-9.9,28.2c-1.2,3.4-2.4,6.7-3.5,10.1
	c-0.3,0.9-0.7,1.9-1,2.8c-0.1,0.4-0.5,1-0.4,1.4c0.2,1.1,1.5,2.5,2.1,3.3c1.9,2.7,4.2,5,6.7,7.2c8.7,7.5,19.9,11.4,31.2,12.7
	c3.9,0.4,7.8,0.5,11.7,0.4c0.5,0,1.3-0.3,1.5-0.9c2.4-5.4,4.8-10.8,7.3-16.3c-0.8,0.2-1.7,0.4-2.5,0.7c-0.4-0.3,0.1,0.1,0.2,0.3
	c0.4,0.5,0.7,1,1,1.6c1.4,2.6,2.3,5.9,3.1,8.9c1.6,6.6,2.6,13.5,3.2,20.3c0.5,4.9,1.2,10,1,15c-0.2,5.9-0.6,11.8-0.8,17.6
	c-0.5,10.4-1,20.8-1.6,31.2l-1.8,35.7c-0.5,10.3-1,20.6-1.4,30.9c-0.2,5.6-0.6,11.3-0.6,16.9c0,0.6-0.1,1.1,0.4,1.6
	c0.4,0.4,0.9,0.6,1.4,0.9c3.1,1.8,6.5,3.1,9.9,4.2c12.3,3.9,25.4,5.1,38.2,5.3c10.9,0.1,21.8,0.4,32.6-0.1c1.5-0.1,3-0.1,4.4-0.4
	c1.8-0.4,1.3-2.2-0.5-1.8c0.3-0.1-0.1,0-0.4,0.1c-0.3,0-0.7,0.1-1,0.1c-0.9,0.1-1.8,0.1-2.8,0.1c-2.6,0.1-5.1,0.1-7.7,0.2
	c-6,0.1-11.9,0-17.9,0c-12.2-0.1-24.4-0.6-36.3-3.3c-4.7-1.1-9.4-2.4-13.8-4.5c-1-0.5-2.1-1-3-1.6c-0.2-0.1-0.5-0.4-0.7-0.4
	c-0.5-0.2,0.2,0.2,0.1,0.2c0,0,0,0.1,0,0v-0.3v-1c0-1,0-1.9,0.1-2.9c0.1-3.2,0.2-6.3,0.3-9.5c0.4-9.7,0.9-19.5,1.3-29.2
	c0.6-11.7,1.1-23.5,1.7-35.2c0.5-10.8,1.1-21.7,1.6-32.5c0.3-6.9,0.7-13.7,1-20.6c0.1-1.7,0.1-3.3,0-5.1c-0.5-8.6-1.3-17.2-2.8-25.7
	c-0.8-4.4-1.7-8.9-3.4-13.1c-0.6-1.6-1.3-3.3-2.4-4.6c-0.2-0.2-0.3-0.4-0.5-0.5c-0.7-0.5-2.2-0.1-2.5,0.7
	c-2.4,5.4-4.8,10.8-7.3,16.3l1.5-0.9C36.4,143.4,17.1,138,6.5,123c-0.4-0.6-0.8-1.2-1.2-1.9c-0.1-0.2-0.2-0.4-0.3-0.5
	c-0.2-0.2,0-0.1,0,0s-0.2,0.7,0,0.4c0.1-0.1,0.1-0.4,0.2-0.5c0.2-0.7,0.5-1.4,0.7-2.1c2.2-6.2,4.3-12.3,6.5-18.5
	c4.8-13.7,9.6-27.3,14.4-41c2.8-8.1,6.7-16.1,12.4-22.6c2.5-2.8,5.3-5.3,8.5-7.2c0.9-0.5,1.8-1,2.8-1.4c0.2-0.1,0.3-0.1,0.5-0.2
	s-0.3,0.1,0.1-0.1c0.2-0.1,0.4-0.1,0.6-0.2c1.5-0.5,3-1.2,4.6-1.8c3-1.2,6-2.3,9.1-3.4c5.8-2,11.7-3.9,17.6-5.6
	c3-0.9,6.1-1.7,9.1-2.6c4.1-1.3,7.9-3.6,11.7-5.6c1.1-0.6,2.3-1.2,3.4-1.9c-0.5,0-1,0.1-1.5,0.1c6.2,2,12.9,2.7,19.3,3.2
	c5.9,0.5,11.8,0.7,17.7,0.8h3.9C148.3,9.9,149,8,147,8L147,8z"/>
<path fill="#F495B5" d="M144.1,9c0,0,27.7,0.3,40.3-3.9c0,0,10.1,5.6,14.5,7.3c0,0,24.6,6.7,40.3,13.5c0,0,15.7,3.4,25.7,30.8
	l22.4,63.9c0,0-11.7,24.1-50.3,23l-7.3-16.3c0,0-6.7,5-8.9,45.4c-0.1,1.8,6.7,130,6.2,134.5c0,0-11.7,9-45.9,10.1
	c0,0-28.7,0-38.8,0.4"/>
<path fill="#6D6E70" d="M143.6,10c10.2,0.1,20.6-0.3,30.7-1.8c3.5-0.5,7-1.1,10.4-2.2c-0.5,0-0.9-0.1-1.4-0.1
	c3.5,2,7.1,3.9,10.7,5.6c2.5,1.2,4.9,2,7.5,2.8c10.9,3.1,21.8,6.5,32.4,10.7c4.7,1.9,9,3.4,13,6.6c7.9,6.5,13.2,16.1,16.6,25.6
	c4.3,12.1,8.5,24.2,12.7,36.4l7.5,21.3c0.6,1.8,1.3,3.6,1.9,5.4c0,0.1,0.1,0.4,0.2,0.5c0.3,0.3-0.2,0,0.1-0.3
	c-0.2,0.1-0.3,0.5-0.4,0.7c-7.5,12.9-23.3,19.5-37.6,21c-3.5,0.4-7,0.5-10.5,0.4l0.9,0.6c-2.4-5.4-4.8-10.8-7.3-16.3
	c-0.4-0.9-1.8-0.7-2.4-0.2c-1.4,1.1-2.2,3.1-2.9,4.7c-2.7,6.6-3.8,13.9-4.8,20.9c-0.9,6.7-1.6,13.4-1.8,20.2v2.1
	c0.2,3.8,0.4,7.7,0.5,11.5c0.7,14.5,1.4,28.9,2.2,43.4c0.8,16.3,1.6,32.5,2.4,48.8c0.4,9.4,1.2,18.8,1.1,28.2v0.8
	c0.2-0.2,0.3-0.5,0.5-0.7c-0.4,0.3-0.8,0.5-1.2,0.7c-0.2,0.1,0.1,0-0.4,0.2c-0.3,0.2-0.6,0.3-0.8,0.4c-0.7,0.4-1.5,0.7-2.2,1
	c-5.2,2.3-10.8,3.7-16.4,4.8c-13.3,2.6-26.7,2.4-40.1,2.5c-7.5,0-15,0.1-22.4,0.3c-1.6,0.1-2.3,2-0.3,2c11.9-0.4,23.8-0.4,35.6-0.4
	c12.7,0,25.9-1.3,38.1-5.2c3.5-1.1,6.9-2.4,10.1-4.1c1.1-0.6,2.4-1.1,2.5-2.5c0.3-5.1-0.3-10.3-0.5-15.4c-0.4-9.7-0.9-19.4-1.3-29.2
	c-0.6-11.6-1.1-23.1-1.7-34.7c-0.5-10.5-1.1-21-1.6-31.5c-0.3-6.7-0.7-13.4-1-20.1c-0.1-1.5-0.1-3,0-4.6c0.5-8.5,1.3-17.1,2.7-25.5
	c0.8-4.4,1.7-8.8,3.2-13c0.4-1.1,0.9-2.1,1.4-3.1c0.2-0.3,0.4-0.6,0.6-1c0.2-0.3-0.1,0,0.3-0.4c0.2-0.2,0.5-0.5,0.1-0.2
	c-0.8-0.1-1.6-0.1-2.4-0.2c2.4,5.4,4.8,10.8,7.3,16.3c0.2,0.4,0.5,0.6,0.9,0.6c13.2,0.3,26.7-2.1,38-9.3c5.4-3.5,10.4-8.1,13.7-13.7
	c0.5-0.9,0.6-1.3,0.2-2.3c-0.9-2.4-1.7-4.9-2.6-7.3c-3.1-8.8-6.2-17.7-9.3-26.5c-2.9-8.2-5.7-16.4-8.6-24.6
	c-2.9-8.4-6.3-16.6-11.8-23.7c-4.2-5.3-9.5-10-16-12.2c-2.2-0.8-4.4-1.8-6.7-2.6c-3.6-1.4-7.2-2.6-10.9-3.9
	c-6.1-2-12.3-3.9-18.5-5.7l-4.2-1.2c-2-0.6-3.9-1.7-5.8-2.6c-2.5-1.3-5-2.6-7.4-3.9c-0.4-0.2-0.8-0.5-1.2-0.7
	c-1.2-0.5-2.9,0.4-4.1,0.7c-6.1,1.5-12.6,2.1-18.9,2.5c-5.2,0.3-10.5,0.5-15.7,0.6h-2.2c-0.6,0-1.6,0.2-1.9,0.9
	C142.5,9.5,142.9,10,143.6,10L143.6,10z"/>
<path fill="#FFFFFF" d="M108.1,5.1c0,0,4,32.3,40.9,31.8c0,0,28.9-2.2,35-31.8l6.7,3.3c0,0,0,36.3-44.7,36.3c0,0-36.8,4.5-45.8-36.8
	L108.1,5.1z"/>
<path fill="#FFFFFF" d="M102.1,8.9l5.2,5.4c0,0-26.8,8.4-32.7,15.1c0,0-17.6,14.2-15.9,46.9c0,0,0.8,42.7,2.5,46.9L54.9,143
	c0,0-32.7,3.3-50.2-22.6l25.1-71.2c0,0,9.2-19,24.8-23.4L102.1,8.9L102.1,8.9z M190.8,10l-3.3,5.6c0,0,22.8,7,28.6,13.7
	c0,0,17.6,14.2,15.9,46.9c0,0,0.4,46.6-1.3,50.7l7.5,15.9c0,0,25.1,7.5,49.4-21.8l-30.4-81.5c0,0-12.3-12.8-24-15.6L190.8,10z"/>
<g>
	<path fill="#6D6E70" d="M96.2,9.3c1,4.6,3.1,9.2,5.4,13.3c5.1,8.9,12.9,16.1,22.5,20c8.5,3.5,17.7,4.1,26.7,3.6
		c8-0.4,16.1-2.3,23.2-6c4.5-2.4,8.7-5.6,11.8-9.6c3.6-4.6,5.8-10.2,6.6-16c0.3-1.8,0.4-3.5,0.5-5.3c0.1-1.5-2.9-1.2-2.9,0.2
		c-0.2,6.1-1.5,12.1-4.7,17.4c-2.5,4.2-6.1,7.7-10.3,10.2c-6.7,4.2-14.7,6.1-22.3,6.7c-1.7,0.1-3.4,0.2-5.1,0.2h0.1
		c-1,0-2.1,0.1-3.1,0c-1.8,0-3.6-0.1-5.4-0.3c-3.3-0.3-6.6-1-9.8-2c-9.9-3.1-18.1-9.7-23.7-18.4c-3-4.6-4.9-9.5-6.4-14.7
		c0-0.1,0-0.2-0.1-0.2C98.8,7.1,95.9,7.9,96.2,9.3L96.2,9.3z"/>
	<path fill="#6D6E70" d="M107.3,5.4c1.1,4.2,3,8.3,5.1,12.1c4.1,7.4,10.1,14.1,18.1,17.5c5.6,2.4,11.7,2.8,17.7,2
		c6.8-1,13.6-3.1,19.6-6.7c8-4.8,13.8-12.4,15.9-21.5c0.3-1.4,0.6-2.7,0.7-4.1c0-0.2-2.8,0-2.9,0.8c-1.2,9.4-5.9,17.8-13.7,23.4
		c-5.3,3.8-11.6,6-17.7,7c-0.9,0.1-1.6,0.3-2.7,0.4c-0.3,0-0.7,0.1-1,0.1h-0.3c-0.3,0,0.2,0,0,0c-3.9,0.2-7.9-0.3-11.6-1.7
		c-8-2.9-14.1-9.2-18.4-16.3c-1.6-2.7-3.1-5.6-4.2-8.6c-0.4-1-0.8-2-1.1-3.1c-0.2-0.5-0.3-1.2-0.5-1.7c0-0.1,0-0.2-0.1-0.2
		C110.1,4.1,107.2,4.8,107.3,5.4L107.3,5.4z"/>
</g>
<g>
	<path fill="#6D6E70" d="M98.5,16.6c-4.6,1.5-9,3.7-13.2,6.2c-8.5,5-16.3,11.7-21.4,20.3c-3,5-5,10.3-5.8,16s-0.7,11.4-0.3,17.1
		c0.5,7.3,1.3,14.5,1.8,21.7c0.4,6.3,0.7,12.6,1,18.9c0.1,3.4,0.1,6.9,0.3,10.3v0.5c0,0.8,2.9,0.3,2.9-0.8c-0.2-7.9-0.5-15.8-1-23.7
		c-0.4-6.9-0.9-13.9-1.5-20.8c-0.6-6.5-1.2-13.1-0.7-19.6c0.2-3.4,0.7-6.9,1.7-10.2c0.2-0.7,0.5-1.4,0.8-2.1
		c0.1-0.3,0.1-0.2,0.1-0.2c0.4-0.8,0.7-1.7,1-2.5c4.1-9.3,11.4-16.8,19.8-22.3c3.3-2.2,6.9-4.1,10.5-5.8c1.1-0.5,2.3-1,3.4-1.4
		c0.3-0.1,0.6-0.2,1-0.3c0.5-0.2-0.3,0.1,0,0c0.4-0.1,1.4-0.5,1.3-1.1C100,16.3,98.9,16.5,98.5,16.6z"/>
</g>
<g>
	<path fill="#6D6E70" d="M191.8,18.5c4.4,1.4,8.6,3.6,12.6,5.9c8.4,5,16.1,11.7,20.9,20.3c2.8,4.9,4.7,10,5.4,15.6
		c0.7,5.8,0.6,11.6,0.2,17.4c-0.6,7.2-1.3,14.4-1.8,21.6c-0.6,9.5-1.1,19.1-1.3,28.6c0,1.1,2.9,0.5,2.9-0.4c0.2-8,0.5-16.1,1-24.1
		c0.4-7.1,0.9-14.2,1.6-21.2c0.6-6.5,1.1-13,0.6-19.5c-0.2-3.4-0.7-6.9-1.8-10.2c-0.6-1.9-1.5-3.8-2.3-5.6
		c-4.3-9.2-11.8-16.6-20.3-22.2c-4.7-3.1-9.9-5.9-15.2-7.6c-0.1,0-0.2-0.1-0.3-0.1c-0.7-0.2-1.5-0.1-2,0.3
		C191.8,17.6,191.1,18.3,191.8,18.5L191.8,18.5z"/>
</g>
<path opacity="0.3" fill="#231F20" enable-background="new    " d="M68,110.5c0,0,0.1,3.3,0.3,9.1c1,28.6,4.4,117.7,10.9,159.5
	c0,0-1.1-78.1-1.1-106L68,110.5z M224.3,109.4c0,0-0.1,3.3-0.3,9.1c-1,28.6-4.4,117.7-10.9,159.5c0,0,1.1-78.1,1.1-106L224.3,109.4
	L224.3,109.4z"/>
<path opacity="0.31" fill="#231F20" enable-background="new    " d="M24.5,84.8c-8.9,20.1-5.6,53.6,27.9,54.7c0,0-42.4-3.3-38-22.3
	L24.5,84.8L24.5,84.8z"/>
<path opacity="0.32" fill="#231F20" enable-background="new    " d="M234.4,103.8c0,0,4,14.9-1.1,20.4l5.6,17.6
	c0,0,27.9,1.1,41.3-18.6C280.1,123.1,245.8,161.7,234.4,103.8z"/>
<g>
	<g>
		<path fill="#FFFFFF" d="M98.5,137.3l6.1,14.6h0.1l6.1-14.6h7.1v2.6l-1.2,0.1c-0.7,0.1-1.1,0.4-1,1.1l0.9,14.8l2.2,0.1v2.8h-8.6
			v-2.6l1.3-0.1c0.6,0,1-0.3,0.9-0.8l-0.7-11.4h-0.1l-5.5,12.9h-3.4L97.3,144h-0.1l-0.7,12l2.3,0.1v2.8h-8.4v-2.6l1.3-0.1
			c0.5,0,0.8-0.3,0.9-0.9l1-15.1l-2.2-0.1v-2.8H98.5L98.5,137.3z M133.8,158.2v-2.5c-1.3,1.7-3.2,2.5-5.8,2.5
			c-3.7,0-5.5-1.9-5.5-5.6v-6.5c0-0.6-0.3-0.9-0.9-0.9l-1.1-0.1v-2.7h6.3v9.3c0,1.1,0.2,2,0.5,2.6c0.4,0.6,1.1,0.9,2.2,0.9
			s2-0.3,2.7-0.9s1-1.4,1-2.3v-5.9c0-0.4-0.1-0.6-0.2-0.8c-0.1-0.1-0.4-0.2-0.7-0.2l-1.1-0.1v-2.7h6.3V158c0,2.6-0.7,4.5-2.1,5.7
			s-3.5,1.8-6.3,1.8s-5-0.4-6.6-1.1v-4.5l3.4-0.3v1.6c0,0.6,0.3,1,0.9,1.2s1.4,0.3,2.5,0.3C132.2,162.9,133.8,161.4,133.8,158.2
			L133.8,158.2z M155.6,155.9c2.9,0,4.3-1,4.3-3.1c0-1.1-0.6-1.9-1.9-2.4c-0.7-0.3-1.5-0.6-2.6-0.8c-1.1-0.3-1.9-0.5-2.6-0.8
			s-1.4-0.6-2.1-1.1c-1.4-1-2.1-2.4-2.1-4.4s0.8-3.5,2.3-4.7c1.5-1.1,3.5-1.7,5.9-1.7s4.7,0.4,6.8,1.3v4.9l-3.6,0.2v-1.9
			c0-0.3,0-0.6-0.1-0.7c-0.3-0.4-1.1-0.6-2.5-0.6s-2.5,0.2-3.1,0.7s-1,1.2-1,2.1c0,0.7,0.3,1.3,0.9,1.8c0.4,0.3,0.9,0.6,1.7,0.9
			c0.8,0.2,1.5,0.5,2.4,0.7c0.8,0.2,1.6,0.5,2.2,0.8c0.7,0.3,1.3,0.7,2.1,1.2c1.5,1,2.2,2.5,2.2,4.5s-0.8,3.6-2.4,4.8
			c-1.6,1.2-3.7,1.8-6.4,1.8s-5-0.4-7.1-1.3V153l3.6-0.2v2c0,0.3,0,0.6,0.1,0.7c0.1,0.2,0.4,0.3,0.9,0.4
			C153.8,155.8,154.6,155.9,155.6,155.9L155.6,155.9z M187.9,148.1c0,2.8-0.6,5.1-1.9,6.9s-3.2,3-5.6,3.6v0.1
			c1.8,0.1,3.6,0.6,5.2,1.5c1.2,0.7,2.6,1,4.2,1c0.4,0,0.7,0,1.1-0.1l-0.4,3.1h-1l-3.5-0.6c-1.5-0.5-3-1-4.4-1.6
			c-1.6-0.7-3.1-1-4.5-1c-0.7,0-1.3,0.1-2,0.2l0.5-2.3c-5.7-0.7-8.5-4.3-8.5-10.8c0-2,0.3-3.7,1-5.2c0.6-1.5,1.5-2.7,2.6-3.5
			c2.1-1.7,4.5-2.5,7.4-2.5c2.8,0,5.2,0.9,7.1,2.7C186.9,141.4,187.9,144.2,187.9,148.1L187.9,148.1z M171.5,147.9c0,5.4,2,8,6.1,8
			c2.2,0,3.7-0.8,4.6-2.5c0.8-1.4,1.2-3.2,1.2-5.3c0-1.9-0.4-3.6-1.1-5.2c-0.4-0.9-1-1.5-1.8-2s-1.9-0.7-3.2-0.7s-2.4,0.4-3.4,1.2
			c-0.9,0.8-1.6,1.7-1.9,2.8C171.7,145.3,171.5,146.5,171.5,147.9L171.5,147.9z M207.5,158.8h-17v-2.6l1.2-0.1c0.7-0.1,1-0.4,1-0.9
			v-15.1l-2-0.1v-2.8h8.6v2.6l-1.2,0.1c-0.7,0.1-1,0.4-1,1v14.5h5.9c0.3,0,0.6-0.1,0.7-0.2s0.2-0.4,0.2-0.8v-2.3l3.6,0.2
			L207.5,158.8L207.5,158.8z"/>
	</g>
	<g>
		<ellipse fill="none" stroke="#FFFFFF" stroke-width="2.983" stroke-miterlimit="10" cx="141.4" cy="90.8" rx="20.8" ry="7.5"/>
		<path fill="none" stroke="#FFFFFF" stroke-width="2.983" stroke-miterlimit="10" d="M119.5,90.5v31.6c0,0,26.7,13.6,44.4-2.2
			l1.1-29.4C165,90.5,146.7,75.5,119.5,90.5z"/>
		<path fill="none" stroke="#FFFFFF" stroke-width="3.383" stroke-miterlimit="10" d="M120.1,103.4c0,0,17,12.4,44.4-0.7
			 M120.1,112.2c0,0,17,12.4,44.4-0.7"/>
	</g>
</g>
</svg>
