<?xml version="1.0" encoding="utf-8"?>
<!-- Generator: Adobe Illustrator 25.0.0, SVG Export Plug-In . SVG Version: 6.00 Build 0)  -->
<svg version="1.1" id="Layer_1" xmlns="http://www.w3.org/2000/svg" xmlns:xlink="http://www.w3.org/1999/xlink" x="0px" y="0px"
	 viewBox="0 0 293 323" enable-background="new 0 0 293 323" xml:space="preserve">
<path fill="#2AA872" d="M147.9,9c0,0-27.7,0.3-40.3-3.9c0,0-10.1,5.6-14.5,7.3c0,0-24.6,6.7-40.3,13.5c0,0-15.7,3.4-25.7,30.8
	L4.7,120.6c0,0,11.7,24.1,50.3,23l7.3-16.3c0,0,6.7,5,8.9,45.4c0.1,1.8-6.7,130-6.2,134.5c0,0,11.7,9,45.9,10.1c0,0,35,0.6,39.3-0.4
	"/>
<path fill="#6D6E70" d="M148,8h-2.4c-2.3,0-4.5-0.1-6.8-0.1c-6.4-0.2-12.7-0.6-19-1.4c-3-0.4-6-0.9-9-1.6c-1.2-0.3-2.6-1.1-3.9-0.6
	c-0.5,0.2-1,0.5-1.4,0.8c-2.5,1.4-5,2.7-7.6,4c-1.7,0.9-4,2-5.5,2.5C81,15,69.7,18.3,58.6,22.5c-2.9,1.1-5.8,2.1-8.6,3.3
	c-3.3,1.4-6.2,3.5-8.8,5.9c-7.7,7-12.7,16.6-16.1,26.3c-2.4,6.8-4.8,13.6-7.1,20.4l-9.9,28.2c-1.2,3.4-2.4,6.7-3.5,10.1
	c-0.3,0.9-0.7,1.9-1,2.8c-0.1,0.4-0.5,1-0.4,1.4c0.2,1.1,1.5,2.5,2.1,3.3c1.9,2.7,4.2,5,6.7,7.2c8.7,7.5,19.9,11.4,31.2,12.7
	c3.9,0.4,7.8,0.5,11.7,0.4c0.5,0,1.3-0.3,1.5-0.9c2.4-5.4,4.8-10.8,7.3-16.3c-0.8,0.2-1.7,0.4-2.5,0.7c-0.4-0.3,0.1,0.1,0.2,0.3
	c0.4,0.5,0.7,1,1,1.6c1.4,2.6,2.3,5.9,3.1,8.9c1.6,6.6,2.6,13.5,3.2,20.3c0.5,4.9,1.2,10,1,15c-0.2,5.9-0.6,11.8-0.8,17.6
	c-0.5,10.4-1,20.8-1.6,31.2l-1.8,35.7c-0.5,10.3-1,20.6-1.4,30.9c-0.2,5.6-0.6,11.3-0.6,16.9c0,0.6-0.1,1.1,0.4,1.6
	c0.4,0.4,0.9,0.6,1.4,0.9c3.1,1.8,6.5,3.1,9.9,4.2c12.3,3.9,25.4,5.1,38.2,5.3c10.9,0.1,21.8,0.4,32.6-0.1c1.5-0.1,3-0.1,4.4-0.4
	c1.8-0.4,1.3-2.2-0.5-1.8c0.3-0.1-0.1,0-0.4,0.1c-0.3,0-0.7,0.1-1,0.1c-0.9,0.1-1.8,0.1-2.8,0.1c-2.6,0.1-5.1,0.1-7.7,0.2
	c-6,0.1-11.9,0-17.9,0c-12.2-0.1-24.4-0.6-36.3-3.3c-4.7-1.1-9.4-2.4-13.8-4.5c-1-0.5-2.1-1-3-1.6c-0.2-0.1-0.5-0.4-0.7-0.4
	c-0.5-0.2,0.2,0.2,0.1,0.2c0,0,0,0.1,0,0v-0.3v-1c0-1,0-1.9,0.1-2.9c0.1-3.2,0.2-6.3,0.3-9.5c0.4-9.7,0.9-19.5,1.3-29.2
	c0.6-11.7,1.1-23.5,1.7-35.2c0.5-10.8,1.1-21.7,1.6-32.5c0.3-6.9,0.7-13.7,1-20.6c0.1-1.7,0.1-3.3,0-5.1c-0.5-8.6-1.3-17.2-2.8-25.7
	c-0.8-4.4-1.7-8.9-3.4-13.1c-0.6-1.6-1.3-3.3-2.4-4.6c-0.2-0.2-0.3-0.4-0.5-0.5c-0.7-0.5-2.2-0.1-2.5,0.7
	c-2.4,5.4-4.8,10.8-7.3,16.3l1.5-0.9C37.4,143.4,18.1,138,7.5,123c-0.4-0.6-0.8-1.2-1.2-1.9c-0.1-0.2-0.2-0.4-0.3-0.5
	c-0.2-0.2,0-0.1,0,0s-0.2,0.7,0,0.4c0.1-0.1,0.1-0.4,0.2-0.5c0.2-0.7,0.5-1.4,0.7-2.1c2.2-6.2,4.3-12.3,6.5-18.5
	c4.8-13.7,9.6-27.3,14.4-41c2.8-8.1,6.7-16.1,12.4-22.6c2.5-2.8,5.3-5.3,8.5-7.2c0.9-0.5,1.8-1,2.8-1.4c0.2-0.1,0.3-0.1,0.5-0.2
	s-0.3,0.1,0.1-0.1c0.2-0.1,0.4-0.1,0.6-0.2c1.5-0.5,3-1.2,4.6-1.8c3-1.2,6-2.3,9.1-3.4c5.8-2,11.7-3.9,17.6-5.6
	c3-0.9,6.1-1.7,9.1-2.6c4.1-1.3,7.9-3.6,11.7-5.6c1.1-0.6,2.3-1.2,3.4-1.9c-0.5,0-1,0.1-1.5,0.1c6.2,2,12.9,2.7,19.3,3.2
	c5.9,0.5,11.8,0.7,17.7,0.8h3.9C149.3,9.9,150,8,148,8L148,8z"/>
<path fill="#2AA872" d="M145.1,9c0,0,27.7,0.3,40.3-3.9c0,0,10.1,5.6,14.5,7.3c0,0,24.6,6.7,40.3,13.5c0,0,15.7,3.4,25.7,30.8
	l22.4,63.9c0,0-11.7,24.1-50.3,23l-7.3-16.3c0,0-6.7,5-8.9,45.4c-0.1,1.8,6.7,130,6.2,134.5c0,0-11.7,9-45.9,10.1
	c0,0-28.7,0-38.8,0.4"/>
<path fill="#6D6E70" d="M144.6,10c10.2,0.1,20.6-0.3,30.7-1.8c3.5-0.5,7-1.1,10.4-2.2c-0.5,0-0.9-0.1-1.4-0.1
	c3.5,2,7.1,3.9,10.7,5.6c2.5,1.2,4.9,2,7.5,2.8c10.9,3.1,21.8,6.5,32.4,10.7c4.7,1.9,9,3.4,13,6.6c7.9,6.5,13.2,16.1,16.6,25.6
	c4.3,12.1,8.5,24.2,12.7,36.4l7.5,21.3c0.6,1.8,1.3,3.6,1.9,5.4c0,0.1,0.1,0.4,0.2,0.5c0.3,0.3-0.2,0,0.1-0.3
	c-0.2,0.1-0.3,0.5-0.4,0.7c-7.5,12.9-23.3,19.5-37.6,21c-3.5,0.4-7,0.5-10.5,0.4l0.9,0.6c-2.4-5.4-4.8-10.8-7.3-16.3
	c-0.4-0.9-1.8-0.7-2.4-0.2c-1.4,1.1-2.2,3.1-2.9,4.7c-2.7,6.6-3.8,13.9-4.8,20.9c-0.9,6.7-1.6,13.4-1.8,20.2v2.1
	c0.2,3.8,0.4,7.7,0.5,11.5c0.7,14.5,1.4,28.9,2.2,43.4c0.8,16.3,1.6,32.5,2.4,48.8c0.4,9.4,1.2,18.8,1.1,28.2v0.8
	c0.2-0.2,0.3-0.5,0.5-0.7c-0.4,0.3-0.8,0.5-1.2,0.7c-0.2,0.1,0.1,0-0.4,0.2c-0.3,0.2-0.6,0.3-0.8,0.4c-0.7,0.4-1.5,0.7-2.2,1
	c-5.2,2.3-10.8,3.7-16.4,4.8c-13.3,2.6-26.7,2.4-40.1,2.5c-7.5,0-15,0.1-22.4,0.3c-1.6,0.1-2.3,2-0.3,2c11.9-0.4,23.8-0.4,35.6-0.4
	c12.7,0,25.9-1.3,38.1-5.2c3.5-1.1,6.9-2.4,10.1-4.1c1.1-0.6,2.4-1.1,2.5-2.5c0.3-5.1-0.3-10.3-0.5-15.4c-0.4-9.7-0.9-19.4-1.3-29.2
	c-0.6-11.6-1.1-23.1-1.7-34.7c-0.5-10.5-1.1-21-1.6-31.5c-0.3-6.7-0.7-13.4-1-20.1c-0.1-1.5-0.1-3,0-4.6c0.5-8.5,1.3-17.1,2.7-25.5
	c0.8-4.4,1.7-8.8,3.2-13c0.4-1.1,0.9-2.1,1.4-3.1c0.2-0.3,0.4-0.6,0.6-1c0.2-0.3-0.1,0,0.3-0.4c0.2-0.2,0.5-0.5,0.1-0.2
	c-0.8-0.1-1.6-0.1-2.4-0.2c2.4,5.4,4.8,10.8,7.3,16.3c0.2,0.4,0.5,0.6,0.9,0.6c13.2,0.3,26.7-2.1,38-9.3c5.4-3.5,10.4-8.1,13.7-13.7
	c0.5-0.9,0.6-1.3,0.2-2.3c-0.9-2.4-1.7-4.9-2.6-7.3c-3.1-8.8-6.2-17.7-9.3-26.5c-2.9-8.2-5.7-16.4-8.6-24.6
	c-2.9-8.4-6.3-16.6-11.8-23.7c-4.2-5.3-9.5-10-16-12.2c-2.2-0.8-4.4-1.8-6.7-2.6c-3.6-1.4-7.2-2.6-10.9-3.9
	c-6.1-2-12.3-3.9-18.5-5.7l-4.2-1.2c-2-0.6-3.9-1.7-5.8-2.6c-2.5-1.3-5-2.6-7.4-3.9c-0.4-0.2-0.8-0.5-1.2-0.7
	c-1.2-0.5-2.9,0.4-4.1,0.7c-6.1,1.5-12.6,2.1-18.9,2.5c-5.2,0.3-10.5,0.5-15.7,0.6h-2.2c-0.6,0-1.6,0.2-1.9,0.9
	C143.5,9.5,143.9,10,144.6,10L144.6,10z"/>
<path fill="#FFFFFF" d="M109.1,5.1c0,0,4,32.3,40.9,31.8c0,0,28.9-2.2,35-31.8l6.7,3.3c0,0,0,36.3-44.7,36.3c0,0-36.8,4.5-45.8-36.8
	L109.1,5.1z"/>
<path fill="#FFFFFF" d="M103.1,8.9l5.2,5.4c0,0-26.8,8.4-32.7,15.1c0,0-17.6,14.2-15.9,46.9c0,0,0.8,42.7,2.5,46.9L55.9,143
	c0,0-32.7,3.3-50.2-22.6l25.1-71.2c0,0,9.2-19,24.8-23.4L103.1,8.9L103.1,8.9z M191.8,10l-3.3,5.6c0,0,22.8,7,28.6,13.7
	c0,0,17.6,14.2,15.9,46.9c0,0,0.4,46.6-1.3,50.7l7.5,15.9c0,0,25.1,7.5,49.4-21.8l-30.4-81.5c0,0-12.3-12.8-24-15.6L191.8,10z"/>
<g>
	<path fill="#6D6E70" d="M97.2,9.3c1,4.6,3.1,9.1,5.4,13.2c5.1,8.9,12.9,16.1,22.4,19.9c8.5,3.4,17.7,4,26.7,3.5
		c8-0.4,16.1-2.3,23.3-6c4.5-2.3,8.6-5.5,11.7-9.5c3.6-4.6,5.8-10.1,6.6-15.8c0.3-1.8,0.4-3.5,0.5-5.3c0-1.2-2.9-0.7-2.9,0.3
		c-0.2,6.1-1.5,12.2-4.7,17.5c-2.5,4.2-6.1,7.7-10.3,10.3c-6.7,4.2-14.6,6.1-22.3,6.8c-0.6,0.1-1.3,0.1-1.9,0.1h-2.9
		c-6.3,0-12.5-0.3-18.6-2.3c-9.9-3.1-18.2-9.9-23.8-18.6c-1.9-3-3.5-6.2-4.8-9.5c-0.7-1.7-1.1-3.6-1.7-5.3c0-0.1,0-0.2-0.1-0.2
		C99.8,7.5,96.9,8.2,97.2,9.3L97.2,9.3z"/>
	<path fill="#6D6E70" d="M108.3,5.4c1.1,4.2,2.9,8.3,5,12c4.1,7.4,10,14.1,17.9,17.5c5.7,2.5,12,3,18.1,2.1c6.7-1,13.4-3.1,19.2-6.6
		c8-4.8,13.9-12.3,16.1-21.4c0.3-1.4,0.6-2.9,0.8-4.3c0.1-0.8-2.8-0.3-2.9,0.5c-1.2,9.4-5.8,17.8-13.5,23.3
		c-5.3,3.8-11.7,6.1-17.9,7.1c-0.5,0.1-1.1,0.2-1.6,0.3c-0.2,0-0.4,0.1-0.7,0.1c-0.3,0,0,0,0,0h-0.3c-0.5,0.1-1.1,0.1-1.6,0.1
		c-3.8,0.2-7.6-0.3-11.1-1.6c-8.1-2.8-14.3-9.2-18.6-16.4c-1.6-2.7-3.1-5.6-4.2-8.6c-0.6-1.5-0.9-3.3-1.6-4.8c0-0.1,0-0.2-0.1-0.2
		C111,3.9,108.1,4.7,108.3,5.4L108.3,5.4z"/>
</g>
<g>
	<path fill="#6D6E70" d="M99.5,16.6c-4.6,1.5-9,3.7-13.2,6.2c-8.5,5-16.3,11.7-21.4,20.3c-3,5-5,10.3-5.8,16s-0.7,11.4-0.3,17.1
		c0.5,7.3,1.3,14.5,1.8,21.7c0.4,6.3,0.7,12.6,1,18.9c0.1,3.4,0.1,6.9,0.3,10.3v0.5c0,0.8,2.9,0.3,2.9-0.8c-0.2-7.9-0.5-15.8-1-23.7
		c-0.4-6.9-0.9-13.9-1.5-20.8c-0.6-6.5-1.2-13.1-0.7-19.6c0.2-3.4,0.7-6.9,1.7-10.2c0.2-0.7,0.5-1.4,0.8-2.1
		c0.1-0.3,0.1-0.2,0.1-0.2c0.4-0.8,0.7-1.7,1-2.5c4.1-9.3,11.4-16.8,19.8-22.3c3.3-2.2,6.9-4.1,10.5-5.8c1.1-0.5,2.3-1,3.4-1.4
		c0.3-0.1,0.6-0.2,1-0.3c0.5-0.2-0.3,0.1,0,0c0.4-0.1,1.4-0.5,1.3-1.1C101,16.3,99.9,16.5,99.5,16.6z"/>
</g>
<g>
	<path fill="#6D6E70" d="M192.8,18.5c4.4,1.4,8.6,3.6,12.6,5.9c8.4,5,16.1,11.7,20.9,20.3c2.8,4.9,4.7,10,5.4,15.6
		c0.7,5.8,0.6,11.6,0.2,17.4c-0.6,7.2-1.3,14.4-1.8,21.6c-0.6,9.5-1.1,19.1-1.3,28.6c0,1.1,2.9,0.5,2.9-0.4c0.2-8,0.5-16.1,1-24.1
		c0.4-7.1,0.9-14.2,1.6-21.2c0.6-6.5,1.1-13,0.6-19.5c-0.2-3.4-0.7-6.9-1.8-10.2c-0.6-1.9-1.5-3.8-2.3-5.6
		c-4.3-9.2-11.8-16.6-20.3-22.2c-4.7-3.1-9.9-5.9-15.2-7.6c-0.1,0-0.2-0.1-0.3-0.1c-0.7-0.2-1.5-0.1-2,0.3
		C192.8,17.6,192.1,18.3,192.8,18.5L192.8,18.5z"/>
</g>
<path opacity="0.3" fill="#231F20" enable-background="new    " d="M69,110.5c0,0,0.1,3.3,0.3,9.1c1,28.6,4.4,117.7,10.9,159.5
	c0,0-1.1-78.1-1.1-106L69,110.5z M225.3,109.4c0,0-0.1,3.3-0.3,9.1c-1,28.6-4.4,117.7-10.9,159.5c0,0,1.1-78.1,1.1-106L225.3,109.4
	L225.3,109.4z"/>
<path opacity="0.31" fill="#231F20" enable-background="new    " d="M25.5,84.8c-8.9,20.1-5.6,53.6,27.9,54.7c0,0-42.4-3.3-38-22.3
	L25.5,84.8L25.5,84.8z"/>
<path opacity="0.32" fill="#231F20" enable-background="new    " d="M235.4,103.8c0,0,4,14.9-1.1,20.4l5.6,17.6
	c0,0,27.9,1.1,41.3-18.6C281.1,123.1,246.8,161.7,235.4,103.8z"/>
<g>
	<path fill="none" stroke="#FFFFFF" stroke-width="2.813" stroke-miterlimit="10" d="M192,118.5l0.5-14.3c0-10.3-8.4-18.8-18.8-18.8
		h-66.5c-10.3,0-18.8,8.4-18.8,18.8v44.3c0,10.3,8.4,18.8,18.8,18.8h66.5c14.5-0.5,19-15.8,19-26.1"/>
	<g>
		<path fill="#FFFFFF" d="M117.8,133.5c0,0.5,0,1-0.2,1.4s-0.4,0.7-0.7,0.9c-0.3,0.3-0.6,0.5-1,0.6s-0.7,0.3-1.1,0.4
			c-0.2-0.1-0.3-0.2-0.5-0.3s-0.3-0.2-0.6-0.3c-0.3-0.5-0.5-1-0.8-1.3c-0.3-0.4-0.4-0.8-0.3-1.3v-0.3c0-0.2,0.1-0.4,0.1-0.7
			s0.1-0.5,0.1-0.7v-0.4c-0.5,0-1,0.1-1.5,0.3l-1.5,0.6c-0.5,0.2-1,0.5-1.4,0.7s-0.8,0.4-1.1,0.6c0,0.1,0,0.2-0.1,0.5
			c-0.1,0.2-0.2,0.5-0.3,0.8c-0.1,0.3-0.3,0.5-0.4,0.7s-0.3,0.3-0.4,0.3c0,0.1,0.1,0.1,0.1,0.2v0.3c-0.3,0.1-0.6,0.2-0.8,0.3
			c-0.2,0.1-0.5,0.3-0.7,0.3c-0.3,0.1-0.5,0.1-0.8,0.1s-0.6-0.1-1-0.3c0-0.1-0.1-0.2-0.2-0.3l-0.3-0.3c-0.1-0.1-0.2-0.1-0.3-0.2
			L102,136c-0.1,0-0.1-0.1-0.1-0.2c0-0.2,0.1-0.2,0.3-0.1c-0.2-0.3-0.4-0.6-0.4-0.8c-0.1-0.2-0.2-0.5-0.4-0.8c0,0,0.1-0.1,0.1-0.2
			s0.1-0.2,0.1-0.3c0-0.1,0.1-0.1,0.1-0.2h0.2v-0.5c0-0.1,0.1-0.2,0.1-0.3c0-0.1,0.1-0.2,0.1-0.3c0-0.1,0-0.2-0.1-0.3
			c0.3-0.5,0.6-1,0.7-1.5s0.2-1,0.2-1.5c0.1-0.1,0.3-0.4,0.4-0.6c0.1-0.3,0.2-0.6,0.3-0.8c0.1-0.3,0.1-0.6,0.1-0.8
			c0-0.3,0-0.5-0.1-0.6c0-0.1,0.1-0.1,0.3-0.1c0.1-0.7,0.2-1.5,0.3-2.4c0.1-0.9,0.1-1.7,0.3-2.5c0.1-0.8,0.3-1.5,0.6-2.1
			c0.3-0.6,0.8-1,1.4-1.2c0.1,0.4,0.3,0.8,0.5,1.2c0.2,0.3,0.4,0.7,0.7,1c0.2,0.3,0.5,0.6,0.7,0.9s0.5,0.7,0.7,1.1
			c0,0.4-0.1,0.9-0.1,1.4s-0.1,1.1-0.2,1.6s-0.2,1.1-0.3,1.6c-0.1,0.5-0.2,0.9-0.3,1.3c0,0.1,0.1,0.2,0.2,0.2s0.1,0.1,0,0.3
			c0.5-0.1,1-0.2,1.6-0.3c0.5-0.1,1.1-0.2,1.6-0.3c0.5-0.1,1.1-0.3,1.6-0.4c0.5-0.2,1-0.4,1.4-0.6c0.1-0.8,0.2-1.6,0.4-2.5
			s0.2-1.7,0.1-2.5l0.3-0.3l0.3-0.3c-0.1-0.4-0.1-0.8-0.1-1.3c0-0.4,0.1-0.9,0.2-1.3s0.3-0.7,0.6-1c0.3-0.3,0.6-0.5,1-0.6
			c0.2,0.3,0.4,0.7,0.6,1.1s0.3,0.8,0.5,1.2c0.2,0.4,0.4,0.8,0.6,1.1c0.2,0.3,0.5,0.6,0.8,0.9c0.1,0.6,0.1,1.2,0.1,1.9
			s0.1,1.3,0.1,2c-0.2,0.8-0.4,1.6-0.6,2.3c-0.2,0.7-0.3,1.5-0.4,2.4c-0.1,0.2-0.3,0.4-0.3,0.6l-0.3,0.6l-0.3,0.6
			c-0.1,0.2-0.2,0.4-0.4,0.5c0.1,0.3,0.1,0.5,0,0.7C117.6,132.9,117.6,133.2,117.8,133.5L117.8,133.5z M138.5,121.3
			c-0.5,0-1.1,0-1.7,0.1s-1.2,0.2-1.8,0.2c-0.4,0.1-0.8,0.1-1.2,0.2c-0.4,0-0.7,0.1-1.1,0.1c-0.1,0.5-0.3,0.9-0.4,1.2
			c-0.1,0.4-0.3,0.7-0.5,1c-0.2,0.4-0.3,0.7-0.5,1.1c-0.1,0.4-0.3,0.8-0.4,1.2c-0.2,0.3-0.4,0.6-0.5,0.9s-0.2,0.6-0.3,1
			c-0.3,0.3-0.4,0.6-0.6,1s-0.2,0.6-0.3,0.9l-0.1,0.4c-0.1,0.1-0.2,0.2-0.2,0.3c0,0.1-0.1,0.1-0.2,0.2c0,0.2-0.1,0.5-0.2,0.7
			c0,0.1-0.1,0.2-0.1,0.3v0.2c0,0.2-0.1,0.3-0.2,0.4v0.3c0,0.1,0,0.2-0.1,0.3c-0.1,0.3-0.1,0.5-0.1,0.6c0.1,0.1,0.1,0.2,0.2,0.2
			c0.1,0.1,0.1,0.1,0.1,0.3c0.1,0.1,0.2,0.1,0.3,0.2c0.1,0.1,0.2,0.1,0.4,0.2l0.3,0.3c0.1,0.6,0,1.1-0.3,1.5s-0.9,0.6-1.6,0.6H127
			c-0.1-0.1-0.2-0.2-0.2-0.3c-0.2-0.1-0.3-0.1-0.4-0.2c-0.1,0-0.2-0.1-0.3-0.3c-0.3-0.1-0.5-0.2-0.7-0.3l-0.3-0.2v-0.4
			c-0.1-0.2-0.3-0.4-0.3-0.6c-0.1-0.2-0.1-0.5-0.2-0.7c0-0.2-0.1-0.4-0.1-0.5c-0.1-0.2-0.1-0.3-0.2-0.4c0-1.2,0.1-2.3,0.3-3.1
			c0.3-0.8,0.6-1.7,0.9-2.4c0.2-0.4,0.3-0.8,0.5-1.3c0.2-0.4,0.3-0.9,0.4-1.3l0.3-0.3c0.1-0.3,0.3-0.6,0.4-0.8s0.2-0.4,0.3-0.7
			c0.1-0.1,0.1-0.3,0.2-0.4s0.1-0.3,0.1-0.4h-1.5c-0.2,0.1-0.5,0.2-0.8,0.2h-0.7c-0.2,0-0.4,0-0.5,0.1h-1h-0.9
			c-0.2,0-0.3-0.1-0.5-0.2c-0.3-0.3-0.4-0.5-0.5-0.5l-0.3-0.4c0-0.1-0.1-0.2-0.1-0.4c0-0.1-0.1-0.2-0.1-0.4
			c-0.1-0.2-0.2-0.4-0.2-0.7s-0.1-0.5-0.1-0.9c0-0.2,0.1-0.3,0.1-0.4c0.1-0.1,0.1-0.2,0.2-0.2l0.1-0.5h1.3c0.7,0,1.4,0,2.1-0.1
			s1.4-0.1,2.2-0.2c0.4,0,0.8-0.1,1.3-0.1c0.4,0,0.9-0.1,1.3-0.1c0.1-0.2,0.2-0.4,0.3-0.5l0.3-0.2c0.4,0,0.6,0,0.8,0.1
			c0.2,0.1,0.3,0.2,0.4,0.3c0.5,0,0.9-0.1,1.4-0.1c0.5-0.1,1-0.1,1.4-0.2c0.7-0.1,1.4-0.2,2.2-0.3c0.7-0.1,1.4-0.1,2.1-0.1h0.9
			c0.3,0,0.5,0.1,0.8,0.1l0.3,0.2l0.3,0.3c0.1,0.1,0.2,0.2,0.4,0.3c0.3,0.2,0.5,0.5,0.8,0.8s0.3,0.8,0.3,1.4
			c-0.2,0.3-0.3,0.4-0.4,0.4l-0.3,0.4h-0.6c-0.1,0-0.2,0.1-0.3,0.1c-0.1,0-0.2,0.1-0.3,0.1c-0.1,0-0.2,0.1-0.3,0.1h-0.5
			C138.9,121,138.6,121.3,138.5,121.3L138.5,121.3z"/>
		<path fill="#FFFFFF" d="M154,121.3c-0.5,0-1.1,0-1.7,0.1s-1.2,0.2-1.8,0.2c-0.4,0.1-0.8,0.1-1.2,0.2c-0.4,0-0.7,0.1-1.1,0.1
			c-0.1,0.5-0.3,0.9-0.4,1.2c-0.1,0.4-0.3,0.7-0.5,1c-0.2,0.4-0.3,0.7-0.5,1.1c-0.1,0.4-0.3,0.8-0.4,1.2c-0.2,0.3-0.4,0.6-0.5,0.9
			s-0.2,0.6-0.3,1c-0.3,0.3-0.4,0.6-0.6,1s-0.2,0.6-0.3,0.9l-0.1,0.4c-0.1,0.1-0.2,0.2-0.2,0.3c0,0.1-0.1,0.1-0.2,0.2
			c0,0.2-0.1,0.5-0.2,0.7c0,0.1-0.1,0.2-0.1,0.3v0.2c0,0.2-0.1,0.3-0.2,0.4v0.3c0,0.1,0,0.2-0.1,0.3c-0.1,0.3-0.1,0.5-0.1,0.6
			c0.1,0.1,0.1,0.2,0.2,0.2c0.1,0.1,0.1,0.1,0.1,0.3c0.1,0.1,0.2,0.1,0.3,0.2c0.1,0.1,0.2,0.1,0.4,0.2l0.3,0.3
			c0.1,0.6,0,1.1-0.3,1.5s-0.9,0.6-1.6,0.6h-0.4c-0.1-0.1-0.2-0.2-0.2-0.3c-0.2-0.1-0.3-0.1-0.4-0.2c-0.1,0-0.2-0.1-0.3-0.3
			c-0.3-0.1-0.5-0.2-0.7-0.3l-0.3-0.2v-0.4c-0.1-0.2-0.3-0.4-0.3-0.6c-0.1-0.2-0.1-0.5-0.2-0.7c0-0.2-0.1-0.4-0.1-0.5
			c-0.1-0.2-0.1-0.3-0.2-0.4c0-1.2,0.1-2.3,0.3-3.1c0.3-0.8,0.6-1.7,0.9-2.4c0.2-0.4,0.3-0.8,0.5-1.3c0.2-0.4,0.3-0.9,0.4-1.3
			l0.3-0.3c0.1-0.3,0.3-0.6,0.4-0.8s0.2-0.4,0.3-0.7c0.1-0.1,0.1-0.3,0.2-0.4s0.1-0.3,0.1-0.4h-1.5c-0.2,0.1-0.5,0.2-0.8,0.2h-0.6
			c-0.2,0-0.4,0-0.5,0.1h-1h-0.9c-0.2,0-0.3-0.1-0.5-0.2c-0.3-0.3-0.4-0.5-0.5-0.5l-0.3-0.4c0-0.1-0.1-0.2-0.1-0.4
			c0-0.1-0.1-0.2-0.1-0.4c-0.1-0.2-0.2-0.4-0.2-0.7s-0.1-0.5-0.1-0.9c0-0.2,0.1-0.3,0.1-0.4c0.1-0.1,0.1-0.2,0.2-0.2l0.1-0.5h1.3
			c0.7,0,1.4,0,2.1-0.1s1.4-0.1,2.2-0.2c0.4,0,0.8-0.1,1.3-0.1c0.4,0,0.9-0.1,1.3-0.1c0.1-0.2,0.2-0.4,0.3-0.5l0.3-0.2
			c0.4,0,0.6,0,0.8,0.1c0.2,0.1,0.3,0.2,0.4,0.3c0.5,0,0.9-0.1,1.4-0.1c0.5-0.1,1-0.1,1.4-0.2c0.7-0.1,1.4-0.2,2.2-0.3
			c0.7-0.1,1.4-0.1,2.1-0.1h0.9c0.3,0,0.5,0.1,0.8,0.1l0.3,0.2l0.3,0.3c0.1,0.1,0.2,0.2,0.4,0.3c0.3,0.2,0.5,0.5,0.8,0.8
			s0.3,0.8,0.3,1.4c-0.2,0.3-0.3,0.4-0.4,0.4l-0.3,0.4h-0.6c-0.1,0-0.2,0.1-0.3,0.1c-0.1,0-0.2,0.1-0.3,0.1c-0.1,0-0.2,0.1-0.3,0.1
			h-0.5C154.5,121,154.1,121.3,154,121.3L154,121.3z"/>
		<path fill="#FFFFFF" d="M163.5,116.9c0.9,0.1,1.7,0.3,2.4,0.5c0.7,0.3,1.3,0.6,1.8,1c0.3,0.5,0.7,1.1,1,1.7s0.5,1.2,0.7,1.9
			s0.2,1.3,0.2,2s-0.2,1.4-0.5,2.1c-0.6,0.8-1.4,1.4-2.2,1.9c-0.9,0.5-1.8,0.9-2.8,1.2c-1,0.3-2.1,0.5-3.1,0.8
			c-1.1,0.2-2.1,0.4-3.2,0.6v1.5c0,0.5-0.1,1.1-0.2,1.6s-0.2,1.1-0.4,1.6s-0.4,1-0.8,1.4c-0.4,0-0.7,0-1.1,0.1s-0.7,0.2-1,0.2
			c-0.1-0.1-0.3-0.2-0.4-0.2c-0.1-0.1-0.3-0.1-0.5-0.1c0-0.2,0-0.4-0.2-0.6c-0.1-0.2-0.3-0.4-0.4-0.7c-0.1-0.2-0.2-0.5-0.3-0.7
			c-0.1-0.2,0-0.4,0.3-0.6c-0.1-0.1-0.2-0.3-0.2-0.6c0.1-0.3,0.3-0.6,0.4-1s0.2-0.9,0.3-1.3c0.1-0.4,0.1-0.8,0-1.2
			c0-0.4-0.3-0.6-0.6-0.8l0.1-0.1h0.2c-0.2-0.1-0.3-0.3-0.3-0.5s-0.1-0.4-0.2-0.6c0-0.1,0.1-0.2,0.1-0.3c0-0.1,0.1-0.1,0.2-0.1
			c-0.1-0.4-0.1-0.7,0-1.1c0.1-0.3,0.2-0.7,0.3-1c0.1-0.3,0.3-0.6,0.5-0.9l0.6-0.9c0.1,0,0.2,0,0.3,0.1c0,0.1,0.1,0.1,0.2,0
			c0.3-0.2,0.5-0.4,0.6-0.7c0.1-0.2,0.2-0.5,0.2-0.8c0.1-0.4,0.3-0.9,0.5-1.3c0.2-0.5,0.4-0.9,0.7-1.2c0.3-0.4,0.5-0.7,0.8-1
			s0.6-0.5,1-0.7l0.9-0.6c0.3-0.2,0.8-0.3,1.2-0.4c0.4-0.1,0.9-0.1,1.3-0.2c0.5,0,0.9,0,1.2,0.1c0.1,0,0.2,0,0.2-0.1
			C163.4,117,163.4,116.9,163.5,116.9L163.5,116.9z M162.2,124.5c0.5-0.2,1.1-0.4,1.7-0.6c0.6-0.1,1.1-0.4,1.5-0.8
			c-0.3-0.2-0.6-0.4-1.1-0.6s-1-0.3-1.6-0.3s-1.1,0-1.7,0.1s-1.1,0.4-1.5,0.8c-0.1,0.4-0.2,0.7-0.3,0.9c-0.1,0.2-0.2,0.5-0.3,0.8
			c0,0.1,0.1,0.2,0.2,0.2c0.1,0.1,0.2,0.1,0.2,0.2c0.5-0.3,1-0.4,1.5-0.4C161.2,124.8,161.7,124.7,162.2,124.5L162.2,124.5z"/>
		<path fill="#FFFFFF" d="M169,122.3c0.1-0.4,0.4-0.8,0.7-1.1s0.7-0.6,1.1-0.8l1.2-0.6c0.4-0.1,0.8-0.3,1.2-0.4
			c0.8-0.4,1.7-0.7,2.7-1s1.9-0.6,2.9-0.9s2-0.4,3.1-0.5s2.2,0.1,3.3,0.4l0.3,0.6c0.1,0.2,0.3,0.4,0.4,0.6s0.3,0.4,0.4,0.6
			s0.2,0.4,0.2,0.6c0.2,0.2,0.4,0.4,0.5,0.6s0.1,0.5,0.1,0.9c-0.2,0.2-0.4,0.3-0.6,0.5c-0.2,0.1-0.4,0.3-0.6,0.4
			c-0.8-0.2-1.6-0.3-2.4-0.2c-0.8,0.1-1.5,0.1-2.2,0.2c-0.2-0.2-0.4-0.3-0.7-0.3s-0.5,0-0.8,0.1l-0.9,0.3c-0.3,0.1-0.6,0.1-0.8,0.1
			c-0.2,0.2-0.5,0.3-0.8,0.3c-0.3,0.1-0.6,0.1-1,0.1c0,0.1,0,0.2,0.1,0.2s0.1,0.1,0,0.2c0.1,0.1,0.3,0.3,0.5,0.3
			c0.2,0.1,0.4,0.1,0.6,0.2s0.4,0.1,0.6,0.2s0.3,0.2,0.3,0.5c0.3,0,0.6,0.1,0.8,0.2c0.2,0.1,0.4,0.3,0.6,0.5
			c0.1,0.2,0.3,0.4,0.3,0.7c0.1,0.2,0.1,0.5,0.1,0.6c0.1,0.2,0.1,0.2,0.2,0.2s0.2,0,0.3,0.1c0.1,0.3,0.2,0.6,0.5,0.8
			c0.3,0.3,0.5,0.6,0.6,0.9c0,0.5,0.1,1,0.1,1.4s-0.1,0.8-0.2,1.2c-0.3,0.8-0.8,1.5-1.3,2.1c-0.6,0.6-1.2,1.2-1.9,1.6
			s-1.5,0.9-2.3,1.2c-0.8,0.3-1.6,0.6-2.3,0.9h-0.3c-0.1,0-0.1,0-0.1-0.2l-0.6,0.3c-0.2,0-0.4,0.1-0.6,0h-1.4l-0.4-0.4
			c-0.1-0.1-0.2-0.3-0.3-0.5c-0.1,0-0.2-0.1-0.1-0.2s0-0.2-0.1-0.2c0.1-0.2,0.2-0.3,0.2-0.4c0,0,0-0.1-0.1-0.1s-0.1,0-0.1-0.1
			c0,0-0.1-0.1,0-0.1c0.1-0.2,0.1-0.4,0.1-0.6s0-0.4-0.1-0.7v-0.7c0.1-0.2,0.2-0.4,0.5-0.5c0.7,0.1,1.4,0.1,2-0.1
			c0.6-0.1,1.2-0.3,1.8-0.6c0.6-0.3,1.1-0.5,1.6-0.8s1-0.6,1.5-0.8c0.1-0.2,0.2-0.3,0.3-0.5c0.1-0.1,0.2-0.2,0.4-0.3l0.3-0.3
			c0.1-0.1,0.2-0.3,0.2-0.5c0-0.1,0-0.2-0.1-0.3c-0.1,0-0.1-0.1-0.1-0.2l-0.3-0.1c-0.4-0.2-0.9-0.4-1.4-0.6s-0.9-0.3-1.3-0.5
			c-0.2,0.1-0.4,0.2-0.6,0.1s-0.5-0.1-0.8-0.2c-0.7,0-1.4-0.1-2.1-0.2s-1.3-0.3-1.9-0.6c0-0.1-0.1-0.2-0.2-0.3
			c-0.1-0.1-0.2-0.1-0.3-0.1c-0.1-0.2-0.3-0.3-0.4-0.5s-0.2-0.3-0.3-0.5c0-0.3,0.1-0.5,0.1-0.6c0-0.2,0-0.4-0.2-0.5
			c0.1-0.3,0.1-0.5,0.2-0.7C169.1,122.8,169.1,122.6,169,122.3L169,122.3z"/>
		<path fill="#FFFFFF" d="M188.2,132.8c0,0.2,0.1,0.3,0.1,0.5c0,0.1,0.1,0.3,0.1,0.5c-0.1,0.2-0.2,0.4-0.2,0.6
			c-0.1,0.2-0.1,0.4-0.2,0.6c-0.1,0.1-0.1,0.2-0.1,0.3v0.5l-0.1,0.4c-0.1,0.1-0.2,0.3-0.4,0.3c-0.1,0.1-0.3,0.2-0.4,0.2
			c0,0-0.1,0.1-0.2,0.1s-0.1,0.1-0.2,0.1l-0.1,0.4l-0.4,0.1c-0.4,0.1-0.7,0.1-0.9,0.1h-0.4c-0.3-0.2-0.5-0.4-0.6-0.5
			s-0.3-0.2-0.5-0.3c-0.2-0.3-0.3-0.5-0.3-0.6s-0.1-0.3-0.1-0.4c0-0.3-0.1-0.5-0.2-0.5l-0.4-0.4l0.4-0.3l-0.3-0.6
			c0.3-0.2,0.4-0.3,0.6-0.4l0.3-0.3c0.1-0.1,0.2-0.2,0.3-0.4c0.1-0.1,0.3-0.4,0.5-0.7l0.3-0.4l0.4,0.2c0.1,0.1,0.3,0.1,0.6,0.2
			s0.5,0.1,0.7,0.1c0.4,0.1,0.7,0.2,1,0.2C187.8,132.5,188.1,132.6,188.2,132.8L188.2,132.8L188.2,132.8z M189.9,123.9
			c0,0.3-0.1,0.5-0.1,0.7v0.9c0,0.2,0.1,0.5,0.2,0.9l0.1,0.5l-0.5,0.1c-0.1,0-0.3,0.1-0.5,0.3c-0.2,0.2-0.5,0.3-0.6,0.4l-0.9,0.6
			c-0.3,0.2-0.5,0.3-0.8,0.3c-0.3-0.2-0.6-0.3-0.7-0.4s-0.3-0.2-0.4-0.3l-0.3-0.6l-0.3-0.6c-0.1-0.1-0.1-0.2-0.1-0.3v-0.1h-0.1
			l-0.2-0.2l-0.2-0.4c0-0.3,0-0.6,0.2-1c0-0.2,0.1-0.3,0.1-0.4l-0.2-0.3l0.3-0.3c0.1-0.2,0.3-0.4,0.3-0.5c0.1-0.1,0.1-0.2,0.3-0.3
			l0.3-0.3h0.8c0.2,0,0.4,0,0.6-0.1c0.4,0.1,0.6,0.2,0.7,0.2c0.1,0.1,0.2,0.2,0.3,0.2c0.2,0.2,0.4,0.3,0.5,0.3h0.6l-0.1,0.5
			L189.9,123.9L189.9,123.9z M200.6,118.8c0.4-0.3,0.8-0.7,1.2-1.3c0.4-0.6,0.9-1.2,1.4-1.9c0.5-0.6,1-1.1,1.5-1.6s1-0.6,1.6-0.6
			c0.3,0.8,0.5,1.5,0.5,2.3c0,0.7-0.1,1.6-0.2,2.5c-0.2,0.2-0.5,0.5-0.8,0.9c-0.4,0.4-0.8,0.8-1.2,1.3c-0.4,0.5-0.9,1-1.3,1.5
			s-0.9,1-1.3,1.5s-0.8,0.9-1.1,1.3c-0.3,0.4-0.5,0.7-0.6,0.9c-0.3,0.3-0.7,0.8-1.2,1.3l-1.5,1.8c-0.5,0.6-1,1.2-1.5,1.9
			c-0.5,0.6-0.9,1.1-1.2,1.5c0,0.1,0,0.2,0.1,0.3c0.1,0.1,0.1,0.2,0.2,0.3c-0.2,0.2-0.4,0.4-0.4,0.6s-0.1,0.4,0,0.6
			c0,0.2,0.1,0.4,0.1,0.6s0.1,0.4,0,0.6l-0.4,0.4c-0.1,0.2-0.2,0.3-0.3,0.5s-0.2,0.3-0.3,0.5c-0.1,0.1-0.3,0.3-0.5,0.4
			c-0.4,0-0.8-0.1-1.1-0.2c-0.3-0.1-0.6-0.1-1-0.2c-0.4-0.3-0.6-0.7-0.7-1.1s-0.2-0.9-0.2-1.3s0.1-0.9,0.2-1.4s0.2-0.8,0.3-1.2
			c0.2-0.1,0.2-0.3,0-0.3c0.1-0.3,0.2-0.5,0.4-0.7c0.2-0.2,0.3-0.4,0.3-0.5c0.1-0.2,0.4-0.6,0.9-1.1s0.9-1,1.4-1.5s1-1.1,1.4-1.6
			c0.5-0.5,0.8-0.9,1.1-1.2c0.1-0.3,0.4-0.8,0.9-1.3s0.9-1.1,1.4-1.7s0.9-1.1,1.4-1.6C200.3,119.5,200.5,119.1,200.6,118.8
			L200.6,118.8z M213.6,118.8c0.4-0.3,0.8-0.7,1.2-1.3c0.4-0.6,0.9-1.2,1.4-1.9c0.5-0.6,1-1.1,1.5-1.6s1-0.6,1.6-0.6
			c0.3,0.8,0.5,1.5,0.5,2.3c0,0.7-0.1,1.6-0.2,2.5c-0.2,0.2-0.5,0.5-0.8,0.9c-0.4,0.4-0.8,0.8-1.2,1.3c-0.4,0.5-0.9,1-1.3,1.5
			s-0.9,1-1.3,1.5s-0.8,0.9-1.1,1.3c-0.3,0.4-0.5,0.7-0.6,0.9c-0.3,0.3-0.7,0.8-1.2,1.3l-1.5,1.8c-0.5,0.6-1,1.2-1.5,1.9
			c-0.5,0.6-0.9,1.1-1.2,1.5c0,0.1,0,0.2,0.1,0.3c0.1,0.1,0.1,0.2,0.2,0.3c-0.2,0.2-0.4,0.4-0.4,0.6s-0.1,0.4,0,0.6
			c0,0.2,0.1,0.4,0.1,0.6s0.1,0.4,0,0.6l-0.4,0.4c-0.1,0.2-0.2,0.3-0.3,0.5s-0.2,0.3-0.3,0.5c-0.1,0.1-0.3,0.3-0.5,0.4
			c-0.4,0-0.8-0.1-1.1-0.2c-0.3-0.1-0.6-0.1-1-0.2c-0.4-0.3-0.6-0.7-0.7-1.1s-0.2-0.9-0.2-1.3s0.1-0.9,0.2-1.4s0.2-0.8,0.3-1.2
			c0.2-0.1,0.2-0.3,0-0.3c0.1-0.3,0.2-0.5,0.4-0.7c0.2-0.2,0.3-0.4,0.3-0.5c0.1-0.2,0.4-0.6,0.9-1.1s0.9-1,1.4-1.5s1-1.1,1.4-1.6
			c0.5-0.5,0.8-0.9,1.1-1.2c0.1-0.3,0.4-0.8,0.9-1.3s0.9-1.1,1.4-1.7s0.9-1.1,1.4-1.6C213.3,119.5,213.5,119.1,213.6,118.8
			L213.6,118.8z"/>
	</g>
	<path fill="none" stroke="#FFFFFF" stroke-width="2.797" stroke-miterlimit="10" d="M90.3,101.9H192"/>
	<ellipse fill="none" stroke="#FFFFFF" stroke-width="2.797" stroke-miterlimit="10" cx="100.1" cy="95.9" rx="2.6" ry="2.3"/>
	<ellipse fill="none" stroke="#FFFFFF" stroke-width="2.797" stroke-miterlimit="10" cx="109.1" cy="95.9" rx="2.6" ry="2.3"/>
	<ellipse fill="none" stroke="#FFFFFF" stroke-width="2.797" stroke-miterlimit="10" cx="119" cy="95.9" rx="2.6" ry="2.3"/>
</g>
</svg>
