<?xml version="1.0" encoding="utf-8"?>
<!-- Generator: Adobe Illustrator 25.0.0, SVG Export Plug-In . SVG Version: 6.00 Build 0)  -->
<svg version="1.1" id="Layer_1" xmlns="http://www.w3.org/2000/svg" xmlns:xlink="http://www.w3.org/1999/xlink" x="0px" y="0px"
	 viewBox="0 0 302 324" enable-background="new 0 0 302 324" xml:space="preserve">
<path fill="#FFC63E" d="M151.9,9c0,0-27.7,0.3-40.3-3.9c0,0-10.1,5.6-14.5,7.3c0,0-24.6,6.7-40.3,13.5c0,0-15.7,3.4-25.7,30.8
	L8.7,120.6c0,0,11.7,24.1,50.3,23l7.3-16.3c0,0,6.7,5,8.9,45.4c0.1,1.8-6.7,130-6.2,134.5c0,0,11.7,9,45.9,10.1c0,0,35,0.6,39.3-0.4
	"/>
<path fill="#6D6E70" d="M152,8h-2.4c-2.3,0-4.5-0.1-6.8-0.1c-6.4-0.2-12.7-0.6-19-1.4c-3-0.4-6-0.9-9-1.6c-1.2-0.3-2.6-1.1-3.9-0.6
	c-0.5,0.2-1,0.5-1.4,0.8c-2.5,1.4-5,2.7-7.6,4c-1.7,0.9-4,2-5.5,2.5C85,15,73.7,18.3,62.6,22.5c-2.9,1.1-5.8,2.1-8.6,3.3
	c-3.3,1.4-6.2,3.5-8.8,5.9c-7.7,7-12.7,16.6-16.1,26.3c-2.4,6.8-4.8,13.6-7.1,20.4l-9.9,28.2c-1.2,3.4-2.4,6.7-3.5,10.1
	c-0.3,0.9-0.7,1.9-1,2.8c-0.1,0.4-0.5,1-0.4,1.4c0.2,1.1,1.5,2.5,2.1,3.3c1.9,2.7,4.2,5,6.7,7.2c8.7,7.5,19.9,11.4,31.2,12.7
	c3.9,0.4,7.8,0.5,11.7,0.4c0.5,0,1.3-0.3,1.5-0.9c2.4-5.4,4.8-10.8,7.3-16.3c-0.8,0.2-1.7,0.4-2.5,0.7c-0.4-0.3,0.1,0.1,0.2,0.3
	c0.4,0.5,0.7,1,1,1.6c1.4,2.6,2.3,5.9,3.1,8.9c1.6,6.6,2.6,13.5,3.2,20.3c0.5,4.9,1.2,10,1,15c-0.2,5.9-0.6,11.8-0.8,17.6
	c-0.5,10.4-1,20.8-1.6,31.2l-1.8,35.7c-0.5,10.3-1,20.6-1.4,30.9c-0.2,5.6-0.6,11.3-0.6,16.9c0,0.6-0.1,1.1,0.4,1.6
	c0.4,0.4,0.9,0.6,1.4,0.9c3.1,1.8,6.5,3.1,9.9,4.2c12.3,3.9,25.4,5.1,38.2,5.3c10.9,0.1,21.8,0.4,32.6-0.1c1.5-0.1,3-0.1,4.4-0.4
	c1.8-0.4,1.3-2.2-0.5-1.8c0.3-0.1-0.1,0-0.4,0.1c-0.3,0-0.7,0.1-1,0.1c-0.9,0.1-1.8,0.1-2.8,0.1c-2.6,0.1-5.1,0.1-7.7,0.2
	c-6,0.1-11.9,0-17.9,0c-12.2-0.1-24.4-0.6-36.3-3.3c-4.7-1.1-9.4-2.4-13.8-4.5c-1-0.5-2.1-1-3-1.6c-0.2-0.1-0.5-0.4-0.7-0.4
	c-0.5-0.2,0.2,0.2,0.1,0.2c0,0,0,0.1,0,0v-0.3v-1c0-1,0-1.9,0.1-2.9c0.1-3.2,0.2-6.3,0.3-9.5c0.4-9.7,0.9-19.5,1.3-29.2
	c0.6-11.7,1.1-23.5,1.7-35.2c0.5-10.8,1.1-21.7,1.6-32.5c0.3-6.9,0.7-13.7,1-20.6c0.1-1.7,0.1-3.3,0-5.1c-0.5-8.6-1.3-17.2-2.8-25.7
	c-0.8-4.4-1.7-8.9-3.4-13.1c-0.6-1.6-1.3-3.3-2.4-4.6c-0.2-0.2-0.3-0.4-0.5-0.5c-0.7-0.5-2.2-0.1-2.5,0.7
	c-2.4,5.4-4.8,10.8-7.3,16.3l1.5-0.9c-17.6,0.5-36.9-4.9-47.5-19.9c-0.4-0.6-0.8-1.2-1.2-1.9c-0.1-0.2-0.2-0.4-0.3-0.5
	c-0.2-0.2,0-0.1,0,0s-0.2,0.7,0,0.4c0.1-0.1,0.1-0.4,0.2-0.5c0.2-0.7,0.5-1.4,0.7-2.1c2.2-6.2,4.3-12.3,6.5-18.5
	c4.8-13.7,9.6-27.3,14.4-41c2.8-8.1,6.7-16.1,12.4-22.6c2.5-2.8,5.3-5.3,8.5-7.2c0.9-0.5,1.8-1,2.8-1.4c0.2-0.1,0.3-0.1,0.5-0.2
	s-0.3,0.1,0.1-0.1c0.2-0.1,0.4-0.1,0.6-0.2c1.5-0.5,3-1.2,4.6-1.8c3-1.2,6-2.3,9.1-3.4c5.8-2,11.7-3.9,17.6-5.6
	c3-0.9,6.1-1.7,9.1-2.6c4.1-1.3,7.9-3.6,11.7-5.6c1.1-0.6,2.3-1.2,3.4-1.9c-0.5,0-1,0.1-1.5,0.1c6.2,2,12.9,2.7,19.3,3.2
	c5.9,0.5,11.8,0.7,17.7,0.8h3.9C153.3,9.9,154,8,152,8L152,8z"/>
<path fill="#FFC63E" d="M149.1,9c0,0,27.7,0.3,40.3-3.9c0,0,10.1,5.6,14.5,7.3c0,0,24.6,6.7,40.3,13.5c0,0,15.7,3.4,25.7,30.8
	l22.4,63.9c0,0-11.7,24.1-50.3,23l-7.3-16.3c0,0-6.7,5-8.9,45.4c-0.1,1.8,6.7,130,6.2,134.5c0,0-11.7,9-45.9,10.1
	c0,0-28.7,0-38.8,0.4"/>
<path fill="#6D6E70" d="M148.6,10c10.2,0.1,20.6-0.3,30.7-1.8c3.5-0.5,7-1.1,10.4-2.2c-0.5,0-0.9-0.1-1.4-0.1
	c3.5,2,7.1,3.9,10.7,5.6c2.5,1.2,4.9,2,7.5,2.8c10.9,3.1,21.8,6.5,32.4,10.7c4.7,1.9,9,3.4,13,6.6c7.9,6.5,13.2,16.1,16.6,25.6
	c4.3,12.1,8.5,24.2,12.7,36.4l7.5,21.3c0.6,1.8,1.3,3.6,1.9,5.4c0,0.1,0.1,0.4,0.2,0.5c0.3,0.3-0.2,0,0.1-0.3
	c-0.2,0.1-0.3,0.5-0.4,0.7c-7.5,12.9-23.3,19.5-37.6,21c-3.5,0.4-7,0.5-10.5,0.4l0.9,0.6c-2.4-5.4-4.8-10.8-7.3-16.3
	c-0.4-0.9-1.8-0.7-2.4-0.2c-1.4,1.1-2.2,3.1-2.9,4.7c-2.7,6.6-3.8,13.9-4.8,20.9c-0.9,6.7-1.6,13.4-1.8,20.2v2.1
	c0.2,3.8,0.4,7.7,0.5,11.5c0.7,14.5,1.4,28.9,2.2,43.4c0.8,16.3,1.6,32.5,2.4,48.8c0.4,9.4,1.2,18.8,1.1,28.2v0.8
	c0.2-0.2,0.3-0.5,0.5-0.7c-0.4,0.3-0.8,0.5-1.2,0.7c-0.2,0.1,0.1,0-0.4,0.2c-0.3,0.2-0.6,0.3-0.8,0.4c-0.7,0.4-1.5,0.7-2.2,1
	c-5.2,2.3-10.8,3.7-16.4,4.8c-13.3,2.6-26.7,2.4-40.1,2.5c-7.5,0-15,0.1-22.4,0.3c-1.6,0.1-2.3,2-0.3,2c11.9-0.4,23.8-0.4,35.6-0.4
	c12.7,0,25.9-1.3,38.1-5.2c3.5-1.1,6.9-2.4,10.1-4.1c1.1-0.6,2.4-1.1,2.5-2.5c0.3-5.1-0.3-10.3-0.5-15.4c-0.4-9.7-0.9-19.4-1.3-29.2
	c-0.6-11.6-1.1-23.1-1.7-34.7c-0.5-10.5-1.1-21-1.6-31.5c-0.3-6.7-0.7-13.4-1-20.1c-0.1-1.5-0.1-3,0-4.6c0.5-8.5,1.3-17.1,2.7-25.5
	c0.8-4.4,1.7-8.8,3.2-13c0.4-1.1,0.9-2.1,1.4-3.1c0.2-0.3,0.4-0.6,0.6-1c0.2-0.3-0.1,0,0.3-0.4c0.2-0.2,0.5-0.5,0.1-0.2
	c-0.8-0.1-1.6-0.1-2.4-0.2c2.4,5.4,4.8,10.8,7.3,16.3c0.2,0.4,0.5,0.6,0.9,0.6c13.2,0.3,26.7-2.1,38-9.3c5.4-3.5,10.4-8.1,13.7-13.7
	c0.5-0.9,0.6-1.3,0.2-2.3c-0.9-2.4-1.7-4.9-2.6-7.3c-3.1-8.8-6.2-17.7-9.3-26.5c-2.9-8.2-5.7-16.4-8.6-24.6
	c-2.9-8.4-6.3-16.6-11.8-23.7c-4.2-5.3-9.5-10-16-12.2c-2.2-0.8-4.4-1.8-6.7-2.6c-3.6-1.4-7.2-2.6-10.9-3.9
	c-6.1-2-12.3-3.9-18.5-5.7l-4.2-1.2c-2-0.6-3.9-1.7-5.8-2.6c-2.5-1.3-5-2.6-7.4-3.9c-0.4-0.2-0.8-0.5-1.2-0.7
	c-1.2-0.5-2.9,0.4-4.1,0.7c-6.1,1.5-12.6,2.1-18.9,2.5c-5.2,0.3-10.5,0.5-15.7,0.6h-2.2c-0.6,0-1.6,0.2-1.9,0.9
	C147.5,9.5,147.9,10,148.6,10L148.6,10z"/>
<path fill="#FFFFFF" d="M113.1,5.1c0,0,4,32.3,40.9,31.8c0,0,28.9-2.2,35-31.8l6.7,3.3c0,0,0,36.3-44.7,36.3c0,0-36.8,4.5-45.8-36.8
	L113.1,5.1z"/>
<path fill="#FFFFFF" d="M107.1,8.9l5.2,5.4c0,0-26.8,8.4-32.7,15.1c0,0-17.6,14.2-15.9,46.9c0,0,0.8,42.7,2.5,46.9L59.9,143
	c0,0-32.7,3.3-50.2-22.6l25.1-71.2c0,0,9.2-19,24.8-23.4L107.1,8.9L107.1,8.9z M195.8,10l-3.3,5.6c0,0,22.8,7,28.6,13.7
	c0,0,17.6,14.2,15.9,46.9c0,0,0.4,46.6-1.3,50.7l7.5,15.9c0,0,25.1,7.5,49.4-21.8l-30.4-81.5c0,0-12.3-12.8-24-15.6L195.8,10z"/>
<g>
	<path fill="#6D6E70" d="M101.2,9.3c1,4.6,3.1,9.2,5.4,13.3c5.1,8.9,12.9,16.1,22.5,20c8.5,3.5,17.7,4.1,26.7,3.6
		c8-0.4,16.1-2.3,23.2-6c4.5-2.4,8.7-5.6,11.8-9.6c3.6-4.6,5.8-10.2,6.6-16c0.3-1.8,0.4-3.5,0.5-5.3c0.1-1.6-2.9-1.2-2.9,0.2
		c-0.2,6.1-1.5,12.1-4.7,17.4c-2.5,4.2-6.1,7.7-10.3,10.2c-6.7,4.2-14.7,6.1-22.3,6.7c-1.7,0.1-3.4,0.2-5.1,0.2h0.1
		c-1,0-2.1,0.1-3.1,0c-1.8,0-3.6-0.1-5.4-0.3c-3.3-0.3-6.6-1-9.8-2c-9.9-3.1-18.1-9.7-23.7-18.4c-3-4.6-4.9-9.5-6.4-14.7
		c0-0.1,0-0.2-0.1-0.2C103.8,7.1,100.9,7.9,101.2,9.3L101.2,9.3z"/>
	<path fill="#6D6E70" d="M112.3,5.4c1.1,4.2,2.9,8.3,5,12.1c4.1,7.4,10.1,14.2,18,17.6c5.7,2.5,12,3.1,18.1,2.2
		c6.7-1,13.3-3.1,19.1-6.6c8.1-4.8,13.9-12.4,16.1-21.6c0.3-1.4,0.6-2.9,0.8-4.3c0.2-1.2-2.8-0.8-2.9,0.3
		c-1.2,9.3-5.7,17.7-13.5,23.1c-3,2.1-6.4,3.8-9.9,5c-1.4,0.5-2.9,0.9-4.4,1.3c-1.3,0.3-2.5,0.6-3.7,0.8c-5.2,0.9-10.3,0.8-15.4-0.9
		c-8.1-2.7-14.3-9.1-18.6-16.2c-1.7-2.7-3.1-5.6-4.2-8.6c-0.6-1.6-1-3.2-1.6-4.8c0-0.1,0-0.2-0.1-0.2C114.9,3.5,112,4.3,112.3,5.4
		L112.3,5.4z"/>
</g>
<g>
	<path fill="#6D6E70" d="M103.5,16.5c-4.6,1.5-9,3.7-13.2,6.2c-8.5,5-16.2,11.7-21.3,20.2c-3,4.9-5.1,10.4-5.9,16.1
		c-0.8,5.6-0.7,11.2-0.3,16.8c0.5,7.3,1.3,14.6,1.8,22c0.6,9.7,1.1,19.6,1.3,29.2v0.5c0,1.3,2.9,0.7,2.9-0.3
		c-0.2-7.9-0.5-15.7-1-23.5c-0.4-6.9-0.9-13.8-1.5-20.7c-0.6-6.6-1.2-13.1-0.8-19.7c0.4-5.6,1.5-10.5,3.6-15.4
		c4.1-9.2,11.4-16.6,19.7-22.1c3.3-2.2,6.9-4.1,10.5-5.8c1.1-0.5,2.3-1,3.4-1.4c0.2-0.1,0.4-0.1,0.6-0.2c0.3-0.1,0.3-0.1,0.1,0
		c0.1,0,0.2-0.1,0.3-0.1c0.5-0.1,1.4-0.5,1.2-1.2C105,16.3,104,16.3,103.5,16.5L103.5,16.5z"/>
</g>
<g>
	<path fill="#6D6E70" d="M196.8,18.5c4.5,1.4,8.8,3.7,12.8,6.1c8.4,5,16.1,11.8,20.9,20.5c2.7,4.9,4.5,10,5.2,15.6
		c0.7,5.8,0.6,11.8,0.1,17.6c-0.6,7.2-1.3,14.4-1.8,21.6c-0.6,9.5-1,18.9-1.2,28.4c0,0.8,2.9,0.3,2.9-0.8c0.2-8.1,0.5-16.2,1-24.3
		c0.4-7.1,0.9-14.2,1.6-21.2c0.6-6.4,1.1-12.9,0.6-19.3c-0.3-3.4-0.7-6.8-1.8-10c-0.6-1.9-1.5-3.8-2.3-5.6
		c-4.4-9.2-11.8-16.6-20.3-22.1c-4.8-3.1-9.9-5.9-15.4-7.7c-0.7-0.2-1.5-0.1-2,0.3C196.8,17.7,196.2,18.3,196.8,18.5L196.8,18.5z"/>
</g>
<path opacity="0.3" fill="#231F20" enable-background="new    " d="M73,110.5c0,0,0.1,3.3,0.3,9.1c1,28.6,4.4,117.7,10.9,159.5
	c0,0-1.1-78.1-1.1-106L73,110.5z M229.3,109.4c0,0-0.1,3.3-0.3,9.1c-1,28.6-4.4,117.7-10.9,159.5c0,0,1.1-78.1,1.1-106L229.3,109.4
	L229.3,109.4z"/>
<path opacity="0.31" fill="#231F20" enable-background="new    " d="M29.5,84.8c-8.9,20.1-5.6,53.6,27.9,54.7c0,0-42.4-3.3-38-22.3
	L29.5,84.8L29.5,84.8z"/>
<path opacity="0.32" fill="#231F20" enable-background="new    " d="M239.4,103.8c0,0,4,14.9-1.1,20.4l5.6,17.6
	c0,0,27.9,1.1,41.3-18.6C285.1,123.1,250.8,161.7,239.4,103.8z"/>
<g>
	<path fill="#FFFFFF" d="M85,123c-0.2,0.2-0.3,0.4-0.4,0.6c0,0.3-0.1,0.5-0.2,0.8c-0.1,0.3-0.2,0.5-0.3,0.6
		c-0.2,0.2-0.4,0.3-0.8,0.2c-0.1,0.1-0.1,0.2,0,0.2s0.1,0.1,0.1,0.3c-0.3,0-0.5,0-0.6,0.1s-0.3,0.1-0.5,0.2
		c-0.5-0.1-0.9-0.4-1.2-0.8s-0.6-0.8-0.9-1.3c-0.2-0.5-0.5-0.9-0.6-1.4c-0.2-0.5-0.4-0.9-0.6-1.3c0-0.1,0-0.1,0.1-0.1h0.2
		c-0.1-0.2-0.2-0.4-0.2-0.7c-0.1-0.3-0.2-0.5-0.3-0.6c0.6-1.3,1.3-2.7,2-4.1s1.4-2.9,2.1-4.3c0.7-1.5,1.4-2.9,2.1-4.4
		c0.7-1.5,1.4-2.9,2-4.4c0.6,0.2,1.2,0.5,1.7,0.7c0.6,0.3,1.1,0.6,1.5,1s0.9,0.8,1.2,1.3s0.5,1.1,0.6,1.7c0,0.1-0.1,0.2-0.2,0.1
		c-0.1,0-0.1,0-0.2,0.1c0.1,0.1,0.2,0.2,0.2,0.3v0.4c0,0.1,0.1,0.2,0.2,0.3h-0.2c0,0.1-0.1,0.1-0.2,0c0.1,0.3,0.1,0.5,0.1,0.7
		s-0.1,0.3-0.2,0.5c-0.1,0.1-0.2,0.3-0.2,0.4v0.6h-0.2l-0.1,0.1c0,0,0,0.1-0.1,0.1h-0.2c0.1,0.5,0.1,1.1,0.1,1.7s0,1.1-0.1,1.7v1.8
		c0,0.6,0.1,1.2,0.3,1.9c0.9-0.5,1.6-1.2,2.2-2.1c0.6-0.8,1-1.8,1.3-2.8s0.6-2.1,0.8-3.3l0.6-3.6c0.2-0.2,0.4-0.5,0.6-0.9
		c0.1-0.3,0.3-0.7,0.3-1c0.1-0.4,0.2-0.7,0.3-1.1s0.2-0.7,0.4-1c0.4,0,0.7,0.2,1,0.3c0.3,0.2,0.5,0.4,0.7,0.6s0.5,0.4,0.7,0.6
		c0.3,0.2,0.6,0.3,0.9,0.4c0.3,0.4,0.6,0.8,0.8,1.2c0.3,0.4,0.4,0.8,0.5,1.3c-0.1,0.2-0.2,0.4-0.3,0.7c-0.1,0.3-0.1,0.5-0.2,0.8
		s-0.2,0.5-0.3,0.7c-0.1,0.2-0.3,0.4-0.5,0.5l-0.3,1.8c-0.1,0.5-0.2,1.1-0.3,1.6s-0.2,1.1-0.3,1.6c-0.1,0.6-0.1,1.2-0.1,1.9
		c-0.2,0.6-0.4,1.2-0.6,1.9s-0.4,1.2-0.5,1.8c-0.4,0.3-0.7,0.7-0.9,1.2s-0.5,0.9-0.7,1.4c-0.1,0.1-0.2,0.1-0.2,0s-0.1-0.1-0.3-0.1
		c0,0.2,0,0.3-0.1,0.4s-0.1,0.2,0,0.5c-0.4,0.2-0.7,0.4-0.9,0.7c-0.3,0.3-0.6,0.5-0.9,0.8c-0.3,0.2-0.7,0.4-1.1,0.5
		c-0.4,0.1-1,0-1.7-0.3c-1-0.8-2-1.6-2.8-2.6s-1.5-2.2-2-3.5c-0.2,0.1-0.4,0.2-0.5,0.4c-0.1,0.2-0.2,0.4-0.3,0.7l-0.3,0.6
		c-0.1,0.2-0.2,0.3-0.4,0.3c0,0.2-0.1,0.4-0.2,0.5c-0.1,0.2-0.2,0.3-0.3,0.5s-0.2,0.3-0.2,0.5C84.8,122.6,84.9,122.8,85,123L85,123z
		 M109,126.1c-0.9,0.1-1.8,0.1-2.5-0.1s-1.4-0.5-2-1c-0.6-0.4-1.1-1-1.6-1.6c-0.4-0.6-0.8-1.3-1.1-2c-0.2-1.4-0.1-2.7,0.2-3.9
		c0.3-1.2,0.7-2.3,1.3-3.2c0.6-1,1.2-1.9,1.9-2.8c0.7-0.9,1.4-1.7,2.1-2.5c0.1,0.1,0.3,0.1,0.4,0s0.2-0.1,0.3-0.3l0.3-0.3
		c0.1-0.1,0.2-0.2,0.3-0.2c0.1-0.2,0.2-0.3,0.3-0.5c0.1-0.1,0.3-0.2,0.4-0.4c0.2-0.1,0.3-0.2,0.4-0.4c0.1-0.1,0.3-0.3,0.4-0.5
		c0.2,0,0.4-0.1,0.6-0.2s0.3-0.2,0.4-0.3c0.1-0.1,0.3-0.2,0.4-0.3c0.1-0.1,0.3-0.2,0.5-0.3V105c0.5-0.2,0.8-0.4,1-0.7
		c0.2-0.3,0.5-0.6,0.8-1h0.6c0.2,0,0.4,0,0.6-0.1c0.2-0.4,0.4-0.6,0.5-0.8c0.2-0.2,0.4-0.4,0.7-0.6c0.3,0.2,0.7,0.3,1,0.3
		c0.4,0,0.7,0.2,1,0.5c0,0.3,0.1,0.4,0.2,0.6l0.4,0.4c0.1,0.1,0.3,0.2,0.4,0.4c0.1,0.1,0.2,0.3,0.3,0.5c0.1,0,0.2,0,0.2-0.1
		c0,0,0.1-0.1,0.2,0c0,0.2,0.1,0.3,0.1,0.4s0.1,0.2,0.1,0.3c0.1,0.1,0.1,0.2,0.2,0.3c0.1,0.1,0.1,0.2,0.1,0.4
		c-0.1,0.3-0.2,0.5-0.3,0.8c-0.1,0.3-0.3,0.5-0.5,0.6c0,0.2,0.1,0.3,0.2,0.3s0.2,0.1,0.2,0.2c0,0.2,0,0.3-0.1,0.5
		c0.6,1,1.1,2,1.6,3.1s1,2.1,1.6,3.1v0.9c0.1,0.3,0.2,0.6,0.3,0.8c0.1,0.3,0.2,0.5,0.3,0.8c0.1,0.3,0.2,0.5,0.2,0.8v1.2
		c0,0.4-0.1,0.8-0.3,1.2c-0.1,0.4-0.3,0.7-0.5,1.1c-0.2,0.3-0.5,0.6-0.7,0.7c-0.3,0.4-0.8,0.8-1.3,1c-0.5,0.3-1,0.6-1.4,0.9
		c-0.3,0.2-0.6,0.3-0.9,0.4s-0.7,0.2-1,0.2c-0.3,0.2-0.6,0.3-1,0.5s-0.8,0.3-1.2,0.4l-1.2,0.3c-0.4,0.1-0.8,0.1-1.1,0
		c-0.8,0.3-1.5,0.5-2.2,0.6C110.9,126.4,110,126.4,109,126.1L109,126.1z M109.4,114.6c-0.2,0.5-0.5,0.9-0.7,1.3
		c-0.3,0.4-0.6,0.8-0.8,1.2c-0.3,0.4-0.5,0.8-0.7,1.3s-0.3,1-0.3,1.6c0.4,0.4,0.9,0.6,1.5,0.6c0.6,0.1,1.2,0.1,1.8,0
		c0.6-0.1,1.2-0.1,1.8-0.2s1.2-0.2,1.6-0.2c0-0.2,0.1-0.3,0.3-0.3c0.9-0.1,1.7-0.3,2.5-0.7l2.4-1.2c0.1-0.3,0.2-0.5,0.4-0.7
		c0.2-0.2,0.3-0.5,0.3-0.8c-0.1-0.2-0.2-0.3-0.2-0.5v-0.6c-0.5-0.8-1-1.6-1.4-2.5s-0.9-1.7-1.4-2.5c0,0.1-0.1,0.2-0.3,0.3
		c-0.1,0.1-0.3,0.1-0.4-0.1c-0.1,0.2-0.2,0.4-0.3,0.4s-0.3,0.1-0.4,0.1s-0.3,0-0.5-0.1s-0.3-0.1-0.4-0.3c-0.7,0.6-1.5,1.2-2.2,1.7
		s-1.4,1.2-2,1.9c-0.1,0.1-0.2,0.1-0.2,0.1C109.6,114.6,109.6,114.6,109.4,114.6L109.4,114.6z M128.6,126.4
		c-0.6-0.1-1.1-0.4-1.4-0.7c-0.3-0.3-0.6-0.8-0.7-1.2s-0.3-1-0.3-1.6c-0.1-0.6-0.1-1.2-0.2-1.8c0.1-0.3,0.2-0.5,0.3-0.7
		c0.1-0.2,0.2-0.5,0.2-0.8c0.2-0.7,0.4-1.3,0.6-2s0.3-1.3,0.4-2c0.1-0.2,0.3-0.3,0.4-0.4c0.2-1.2,0.2-2.4,0.1-3.7
		c-0.1-1.3-0.3-2.4-0.6-3.5c0-0.2,0.1-0.4,0.1-0.5v-0.3c0-0.2,0-0.3,0.2-0.3h0.5c0-0.4-0.1-0.8-0.2-1.1s-0.3-0.8-0.4-1.3
		c0.2-0.4,0.3-0.7,0.3-1.1c0.1-0.4,0.2-0.7,0.3-1c0.7,0.2,1.3,0.5,2,0.7c0.7,0.3,1.3,0.5,1.9,0.8s1.3,0.5,1.9,0.8l1.8,0.6
		c0.9,0.7,1.8,1.3,2.8,1.9s1.8,1.4,2.6,2.1c0.8,0.8,1.5,1.7,2,2.6c0.5,1,0.8,2.2,0.9,3.5c0,0.1-0.1,0.2-0.1,0.3c0,0.1,0,0.2-0.1,0.3
		s0,0.2,0,0.3v0.4c-0.8,1.3-1.7,2.4-2.9,3.4c-1.2,0.9-2.4,1.7-3.8,2.4s-2.8,1.3-4.3,1.9C131.5,125.1,130,125.7,128.6,126.4
		L128.6,126.4z M131.7,108.4c-0.2,0-0.3,0-0.4,0.1c0.3,0.9,0.4,1.8,0.6,2.7c0.1,0.8,0.2,1.7,0.2,2.5s0,1.7-0.1,2.6s-0.3,1.8-0.4,2.9
		c0.3,0,0.5-0.1,0.7-0.2l0.6-0.3c0.2-0.1,0.5-0.2,0.7-0.3c0.2-0.1,0.5-0.1,0.8-0.2c0.1-0.2,0.2-0.3,0.3-0.4s0.3-0.2,0.4-0.3
		c0.5-0.2,1.1-0.4,1.6-0.7c0.5-0.2,1-0.5,1.5-0.8c0.4-0.3,0.8-0.6,1.2-1c0.4-0.4,0.7-0.8,0.9-1.4c-0.2-0.3-0.4-0.6-0.6-0.8
		s-0.5-0.4-0.8-0.7c-0.3-0.2-0.5-0.5-0.8-0.7c-0.2-0.2-0.4-0.5-0.6-0.8c-0.3,0-0.6-0.1-0.9-0.3c-0.3-0.1-0.5-0.3-0.7-0.4
		s-0.5-0.3-0.7-0.4c-0.3-0.1-0.6-0.2-0.9-0.2c-0.5-0.3-1-0.5-1.5-0.6C132.3,108.8,132,108.6,131.7,108.4L131.7,108.4z M146.1,124.9
		c-0.2-0.2-0.3-0.4-0.4-0.6s-0.2-0.4-0.5-0.6c0-0.3-0.1-0.7-0.2-1.1s-0.1-0.8-0.2-1.3s-0.1-0.9-0.2-1.3v-1.2c0-0.2,0.1-0.4,0.2-0.5
		c0.1-0.2,0.2-0.3,0.3-0.5s0.2-0.3,0.2-0.5c0.1-0.2,0.1-0.3,0-0.5c0.1,0,0.2-0.1,0.2-0.2s0.1-0.2,0.3-0.1c0.1-0.5,0.3-0.9,0.5-1.3
		s0.3-0.8,0.5-1.2l0.6-1.2c0.2-0.4,0.4-0.8,0.6-1.3c-0.4-0.3-0.6-0.7-0.8-1.1s-0.3-0.8-0.4-1.2c-0.1-0.4-0.1-0.8-0.2-1.2
		c0-0.4-0.1-0.8-0.3-1.2c0.3-0.4,0.6-0.7,0.9-0.9l1.2-0.6c0.4-0.2,0.9-0.3,1.4-0.4s1-0.2,1.6-0.3c1-0.3,1.9-0.6,2.7-0.7
		c0.8-0.2,1.6-0.3,2.3-0.4l2.4-0.3c0.8-0.1,1.8-0.2,2.8-0.4c0,0.1,0.1,0.1,0.1,0.1h0.2c0.1,0.1,0.2,0.2,0.3,0.2v-0.2v-0.1h0.2
		c0.1,0,0.1,0,0.2,0.1h0.1c0,0,0.1-0.1,0-0.2c0.3,0.4,0.6,0.8,1,1.1c0.4,0.3,0.8,0.5,1.3,0.7v0.9c0,0.1,0,0.2,0.1,0.4
		c-0.3,0.6-0.7,1-1.2,1.3s-0.9,0.6-1.4,0.7s-1,0.3-1.5,0.4s-1.1,0.2-1.6,0.3c-0.6,0.1-1.1,0.2-1.7,0.4c-0.6,0.2-1.1,0.4-1.7,0.8
		c-0.2-0.1-0.3-0.1-0.5-0.1c-0.1,0-0.3,0-0.4,0.1c-0.1,0-0.3,0.1-0.5,0.1H154c-0.2,0.1-0.4,0.3-0.6,0.3s-0.4,0.1-0.7,0.2
		c0.1,0.2,0.2,0.5,0.1,0.7c0,0.2,0,0.4,0.1,0.6c0.9,0.1,1.9,0.1,2.9,0c1.1-0.1,2.1-0.2,3.2-0.2v0.2c0,0-0.1,0.1-0.1,0.2
		c0.2,0.1,0.4,0.3,0.5,0.5c0.2,0.2,0.3,0.4,0.5,0.6s0.4,0.3,0.6,0.4s0.4,0.2,0.7,0.1c0.1,0.2,0.2,0.4,0.2,0.7c0,0.2,0,0.5-0.1,0.7
		c-0.4,0.3-0.8,0.6-1.2,0.8c-0.4,0.3-0.8,0.5-1.2,0.8c-0.4,0.2-0.9,0.4-1.4,0.6c-0.5,0.1-1.1,0.2-1.6,0.2h-0.3c-0.1,0-0.2,0-0.3-0.1
		c-0.2,0.1-0.5,0.1-0.8,0.1s-0.6,0-0.9,0.1c-0.3-0.1-0.6-0.2-1-0.2s-0.7-0.1-1-0.2c-0.4,0.5-0.7,1.1-1.1,1.7
		c-0.3,0.6-0.6,1.2-0.9,1.9c0.9,0.1,1.6,0.2,2.2,0.2s1.1-0.1,1.6-0.1c0.5-0.1,1-0.1,1.6-0.2s1.2-0.1,2-0.1c0.5-0.3,1.1-0.4,1.8-0.5
		c0.7-0.1,1.3-0.2,1.9-0.4c0.2,0.1,0.4,0.2,0.5,0.4c0.1,0.2,0.3,0.4,0.4,0.5c0.1,0.2,0.3,0.3,0.4,0.5c0.1,0.1,0.3,0.2,0.6,0.1
		c0.1,0.1,0.2,0.2,0.2,0.4c0,0.1,0.1,0.3,0.1,0.4s0.1,0.2,0.1,0.3c0.1,0.1,0.2,0.1,0.3,0.1c-0.4,0.8-0.8,1.5-1.3,1.9s-1.1,0.8-1.7,1
		s-1.3,0.4-2.1,0.5c-0.8,0.1-1.6,0.3-2.6,0.4H155c-0.2,0-0.3-0.1-0.5-0.1c-0.6,0.1-1.3,0.2-2.1,0.3c-0.8,0.1-1.6,0.1-2.5,0.1
		c-0.8,0-1.6-0.1-2.4-0.3C147.2,125.8,146.6,125.4,146.1,124.9L146.1,124.9z M169.2,122.3c0,0.2,0.1,0.3,0.1,0.5
		c0,0.1,0.1,0.3,0.1,0.5c-0.1,0.2-0.2,0.4-0.2,0.6c-0.1,0.2-0.1,0.4-0.2,0.6c-0.1,0.1-0.1,0.2-0.1,0.3v0.5l-0.1,0.4
		c-0.1,0.1-0.2,0.3-0.4,0.3c-0.1,0.1-0.3,0.2-0.4,0.2c0,0-0.1,0.1-0.2,0.1s-0.1,0.1-0.2,0.1l-0.1,0.4l-0.4,0.1
		c-0.4,0.1-0.7,0.1-0.9,0.1h-0.4c-0.3-0.2-0.5-0.4-0.6-0.5s-0.3-0.2-0.5-0.3c-0.2-0.3-0.3-0.5-0.3-0.6s-0.1-0.3-0.1-0.4
		c0-0.3-0.1-0.5-0.2-0.5l-0.4-0.4l0.4-0.3l-0.3-0.6c0.3-0.2,0.4-0.3,0.6-0.4s0.2-0.2,0.3-0.3s0.2-0.2,0.3-0.4
		c0.1-0.1,0.3-0.4,0.5-0.7l0.3-0.4l0.4,0.2c0.1,0.1,0.3,0.1,0.6,0.2s0.5,0.1,0.7,0.1c0.4,0.1,0.7,0.2,1,0.2S169.1,122.1,169.2,122.3
		L169.2,122.3L169.2,122.3z M182.3,125.5c-0.3,0-0.6,0.1-0.9,0.2s-0.6,0.1-0.9,0.2c-0.1,0-0.3,0.1-0.4,0.1s-0.3,0.1-0.4,0.1
		c-0.4-0.1-0.7-0.1-1.1-0.2s-0.7-0.1-0.9-0.1l-0.5-0.1c-0.3-0.1-0.4-0.2-0.6-0.2s-0.2-0.1-0.4-0.1s-0.3-0.1-0.4-0.1
		c-0.2,0-0.4-0.1-0.7-0.1c-0.4,0.1-0.7,0.2-1,0.2c-0.2,0-0.5,0-0.7-0.1c-0.3-0.1-0.5-0.2-0.8-0.4c-0.3-0.2-0.5-0.5-0.7-0.9
		s-0.4-0.9-0.6-1.5c0.1-0.5,0.1-0.9,0.2-1.3s0.2-0.6,0.3-0.9l0.3-0.3c0.4-0.1,0.8-0.2,1.3-0.2s0.9,0.1,1.4,0.2
		c0.4,0.1,0.9,0.3,1.3,0.5c0.2,0.1,0.3,0.1,0.4,0.2c0.1,0,0.1,0.1,0.2,0.1h1.6c0.1,0.1,0.3,0.1,0.5,0.1c0.1,0,0.3,0,0.5-0.1
		c0.2,0,0.3-0.1,0.5-0.1c0.2-0.1,0.3-0.1,0.4-0.1s0.2-0.1,0.3-0.1l0.3-0.3c0.2-0.1,0.4-0.2,0.5-0.3c0.1-0.1,0.2-0.2,0.3-0.4
		c0.1-0.1,0.2-0.3,0.2-0.4c0.1-0.1,0.2-0.3,0.3-0.5c0.1-0.1,0.2-0.3,0.3-0.4l0.3-0.3v-0.3l0.9-2.4c0.3-0.8,0.5-1.6,0.7-2.4
		s0.4-1.6,0.5-2.3c0.1-0.8,0.3-1.4,0.4-2.1h-2c-0.4,0-0.8,0.1-1.1,0.1c-0.3,0-0.7,0.1-1.1,0.2s-0.8,0.2-1.4,0.3l-0.5,0.1
		c-0.4,0.2-0.8,0.4-1.2,0.5c-0.4,0.2-0.8,0.2-1.2,0.2c-0.6,0-1.2-0.3-1.6-0.8c-0.5-0.3-0.8-0.7-0.8-1.3c-0.1-0.2-0.1-0.4-0.1-0.5
		c-0.1-0.3-0.1-0.6-0.1-0.8v-1.2h0.5l0.3-0.3c0.1-0.1,0.1-0.1,0.1-0.2l0.1-0.3h0.3c0.4-0.1,0.9-0.1,1.4-0.2s0.9-0.2,1.4-0.3
		c0.5-0.1,0.9-0.2,1.2-0.2c0.3-0.1,0.7-0.1,1-0.1s0.6-0.1,1-0.1h2.1c0.1-0.1,0.2-0.2,0.3-0.2h0.2c0.1,0,0.3,0,0.3,0.1
		c0.1,0,0.1,0,0.2,0.1c0.7-0.1,1.4-0.2,2-0.2h7.1c0.4,0.1,0.7,0.1,1,0.2c0.3,0,0.6,0.1,0.9,0.1h0.6l0.1,0.4l0.3,0.4
		c0.1,0.1,0.1,0.2,0.3,0.3l0.3,0.3c0.3,0.2,0.5,0.5,0.7,0.9c0.2,0.3,0.3,0.8,0.3,1.5l-0.3,0.4c-0.1,0-0.2,0.1-0.2,0.2
		c-0.1,0.1-0.2,0.1-0.2,0.2l-0.3,0.3h-2.5c-0.4,0-0.8,0-1.2-0.1h-2.6c0,0.7-0.1,1.3-0.2,1.8s-0.3,1-0.4,1.6c-0.4,2.1-0.9,4-1.5,5.9
		s-1.2,3.5-1.9,5c-0.7,0.7-1.3,1.4-1.9,1.9C183.9,124.8,183.2,125.2,182.3,125.5L182.3,125.5z"/>
	<path fill="#FFFFFF" d="M194.1,111.8c0.1-0.3,0.1-0.6,0.1-0.8c0-0.2-0.1-0.4-0.2-0.6c0.1-0.3,0.2-0.6,0.2-0.8
		c0.1-0.2,0.1-0.5,0-0.8c0.2-0.5,0.5-1,0.9-1.4s0.8-0.7,1.3-1s0.9-0.5,1.5-0.7c0.5-0.2,1-0.3,1.4-0.5c0-0.1,0-0.1-0.1-0.1
		s-0.1-0.1-0.1-0.2c1.1-0.2,2.3-0.5,3.4-0.9s2.3-0.8,3.5-1.1s2.4-0.5,3.7-0.6c1.3-0.1,2.6,0.1,4,0.5c0.1,0.3,0.2,0.5,0.3,0.7
		s0.3,0.5,0.5,0.7s0.3,0.4,0.4,0.6s0.2,0.4,0.2,0.7c0.3,0.2,0.5,0.5,0.6,0.7c0.2,0.3,0.2,0.6,0.1,1.1c-0.2,0.2-0.5,0.3-0.7,0.5
		c-0.3,0.2-0.5,0.3-0.8,0.5c-0.9-0.2-1.9-0.3-2.8-0.3s-1.8,0.1-2.6,0.2c-0.2-0.3-0.5-0.4-0.8-0.4s-0.6,0.1-1,0.2
		c-0.3,0.1-0.7,0.2-1,0.3c-0.3,0.1-0.7,0.1-0.9,0.1c-0.2,0.2-0.5,0.4-0.9,0.4c-0.4,0.1-0.8,0.1-1.2,0.2c0,0.1,0,0.2,0.1,0.2
		s0.1,0.1,0,0.3c0.1,0.2,0.3,0.3,0.6,0.4c0.3,0.1,0.5,0.1,0.8,0.2s0.5,0.2,0.7,0.3c0.2,0.1,0.3,0.3,0.4,0.6c0.4,0,0.7,0.1,1,0.3
		c0.3,0.2,0.5,0.4,0.7,0.6c0.2,0.3,0.3,0.5,0.4,0.8s0.1,0.5,0.1,0.8c0.1,0.2,0.2,0.3,0.3,0.3c0.1,0,0.2,0,0.3,0.2
		c0.1,0.3,0.3,0.6,0.6,1c0.3,0.3,0.5,0.7,0.7,1.1c0,0.6,0.1,1.2,0.1,1.7s-0.1,1-0.3,1.5c-0.4,0.9-0.9,1.8-1.5,2.5
		c-0.7,0.7-1.4,1.4-2.3,1.9c-0.9,0.6-1.8,1-2.7,1.5c-0.9,0.4-1.9,0.8-2.8,1H200c-0.1,0-0.1,0-0.1-0.2c-0.2,0.2-0.4,0.3-0.6,0.3
		s-0.5,0.1-0.8,0h-1.7l-0.5-0.5l-0.3-0.6c-0.1,0-0.2-0.1-0.1-0.2c0-0.1,0-0.2-0.1-0.2v-0.2c0,0,0-0.1,0.1-0.1l0.1-0.1
		c0,0,0-0.1-0.1-0.1s-0.1-0.1-0.2-0.1s-0.1-0.1,0-0.2c0.1-0.2,0.1-0.4,0.1-0.7s-0.1-0.5-0.1-0.8s0-0.5,0.1-0.8s0.2-0.4,0.5-0.6
		c0.9,0.1,1.7,0,2.5-0.1c0.8-0.2,1.5-0.4,2.2-0.7c0.7-0.3,1.3-0.6,2-1c0.6-0.3,1.2-0.7,1.8-1c0.1-0.2,0.2-0.4,0.3-0.5l0.4-0.4
		l0.4-0.4l0.3-0.6v-0.2l-0.1-0.1L206,116c0,0-0.1-0.1-0.1-0.2c-0.1,0-0.1,0-0.2-0.1h-0.1c-0.5-0.3-1.1-0.5-1.7-0.7s-1.1-0.4-1.5-0.6
		c-0.3,0.2-0.5,0.2-0.8,0.1l-0.9-0.3c-0.9,0-1.7-0.1-2.5-0.3c-0.8-0.1-1.6-0.3-2.3-0.7c0-0.1-0.1-0.2-0.2-0.3s-0.2-0.1-0.4-0.1
		c-0.1-0.2-0.3-0.4-0.5-0.6C194.4,112.2,194.2,112,194.1,111.8L194.1,111.8z"/>
</g>
</svg>
